%TF.GenerationSoftware,KiCad,Pcbnew,9.0.1-9.0.1-0~ubuntu24.04.1*%
%TF.CreationDate,2025-05-07T20:50:54+02:00*%
%TF.ProjectId,OOS - optyczny odbiornik sygnalow,4f4f5320-2d20-46f7-9074-79637a6e7920,0.0.3*%
%TF.SameCoordinates,Original*%
%TF.FileFunction,Legend,Top*%
%TF.FilePolarity,Positive*%
%FSLAX46Y46*%
G04 Gerber Fmt 4.6, Leading zero omitted, Abs format (unit mm)*
G04 Created by KiCad (PCBNEW 9.0.1-9.0.1-0~ubuntu24.04.1) date 2025-05-07 20:50:54*
%MOMM*%
%LPD*%
G01*
G04 APERTURE LIST*
G04 Aperture macros list*
%AMRoundRect*
0 Rectangle with rounded corners*
0 $1 Rounding radius*
0 $2 $3 $4 $5 $6 $7 $8 $9 X,Y pos of 4 corners*
0 Add a 4 corners polygon primitive as box body*
4,1,4,$2,$3,$4,$5,$6,$7,$8,$9,$2,$3,0*
0 Add four circle primitives for the rounded corners*
1,1,$1+$1,$2,$3*
1,1,$1+$1,$4,$5*
1,1,$1+$1,$6,$7*
1,1,$1+$1,$8,$9*
0 Add four rect primitives between the rounded corners*
20,1,$1+$1,$2,$3,$4,$5,0*
20,1,$1+$1,$4,$5,$6,$7,0*
20,1,$1+$1,$6,$7,$8,$9,0*
20,1,$1+$1,$8,$9,$2,$3,0*%
%AMFreePoly0*
4,1,23,0.500000,-0.750000,0.000000,-0.750000,0.000000,-0.745722,-0.065263,-0.745722,-0.191342,-0.711940,-0.304381,-0.646677,-0.396677,-0.554381,-0.461940,-0.441342,-0.495722,-0.315263,-0.495722,-0.250000,-0.500000,-0.250000,-0.500000,0.250000,-0.495722,0.250000,-0.495722,0.315263,-0.461940,0.441342,-0.396677,0.554381,-0.304381,0.646677,-0.191342,0.711940,-0.065263,0.745722,0.000000,0.745722,
0.000000,0.750000,0.500000,0.750000,0.500000,-0.750000,0.500000,-0.750000,$1*%
%AMFreePoly1*
4,1,23,0.000000,0.745722,0.065263,0.745722,0.191342,0.711940,0.304381,0.646677,0.396677,0.554381,0.461940,0.441342,0.495722,0.315263,0.495722,0.250000,0.500000,0.250000,0.500000,-0.250000,0.495722,-0.250000,0.495722,-0.315263,0.461940,-0.441342,0.396677,-0.554381,0.304381,-0.646677,0.191342,-0.711940,0.065263,-0.745722,0.000000,-0.745722,0.000000,-0.750000,-0.500000,-0.750000,
-0.500000,0.750000,0.000000,0.750000,0.000000,0.745722,0.000000,0.745722,$1*%
G04 Aperture macros list end*
%ADD10C,0.200000*%
%ADD11C,0.080000*%
%ADD12C,0.120000*%
%ADD13C,1.000000*%
%ADD14C,1.000000*%
%ADD15O,1.700000X1.700000*%
%ADD16R,1.700000X1.700000*%
%ADD17RoundRect,0.135000X0.135000X0.185000X-0.135000X0.185000X-0.135000X-0.185000X0.135000X-0.185000X0*%
%ADD18RoundRect,0.162500X-0.617500X-0.162500X0.617500X-0.162500X0.617500X0.162500X-0.617500X0.162500X0*%
%ADD19RoundRect,0.225000X-0.250000X0.225000X-0.250000X-0.225000X0.250000X-0.225000X0.250000X0.225000X0*%
%ADD20RoundRect,0.135000X0.185000X-0.135000X0.185000X0.135000X-0.185000X0.135000X-0.185000X-0.135000X0*%
%ADD21O,1.600000X1.200000*%
%ADD22C,1.200000*%
%ADD23FreePoly0,90.000000*%
%ADD24FreePoly1,90.000000*%
%ADD25O,2.000000X2.000000*%
%ADD26O,4.000000X4.000000*%
%ADD27RoundRect,0.135000X-0.135000X-0.185000X0.135000X-0.185000X0.135000X0.185000X-0.135000X0.185000X0*%
%ADD28C,3.200000*%
%ADD29RoundRect,0.140000X0.170000X-0.140000X0.170000X0.140000X-0.170000X0.140000X-0.170000X-0.140000X0*%
%ADD30RoundRect,0.218750X0.218750X0.256250X-0.218750X0.256250X-0.218750X-0.256250X0.218750X-0.256250X0*%
%ADD31C,3.000000*%
%ADD32RoundRect,0.225000X0.250000X-0.225000X0.250000X0.225000X-0.250000X0.225000X-0.250000X-0.225000X0*%
%ADD33RoundRect,0.218750X-0.218750X-0.256250X0.218750X-0.256250X0.218750X0.256250X-0.218750X0.256250X0*%
%ADD34RoundRect,0.140000X-0.170000X0.140000X-0.170000X-0.140000X0.170000X-0.140000X0.170000X0.140000X0*%
%ADD35RoundRect,0.140000X0.140000X0.170000X-0.140000X0.170000X-0.140000X-0.170000X0.140000X-0.170000X0*%
%ADD36RoundRect,0.200000X-0.200000X-0.275000X0.200000X-0.275000X0.200000X0.275000X-0.200000X0.275000X0*%
%ADD37RoundRect,0.200000X0.200000X0.275000X-0.200000X0.275000X-0.200000X-0.275000X0.200000X-0.275000X0*%
G04 APERTURE END LIST*
D10*
G36*
X197166267Y-90702707D02*
G01*
X197183717Y-90737607D01*
X196912232Y-90791904D01*
X196912232Y-90747016D01*
X196934387Y-90702706D01*
X196978696Y-90680552D01*
X197121958Y-90680552D01*
X197166267Y-90702707D01*
G37*
G36*
X200038710Y-90377024D02*
G01*
X200063379Y-90401692D01*
X200098832Y-90472599D01*
X200140803Y-90640480D01*
X200140803Y-90853956D01*
X200098832Y-91021837D01*
X200063379Y-91092743D01*
X200038710Y-91117413D01*
X199979101Y-91147219D01*
X199931077Y-91147219D01*
X199871467Y-91117414D01*
X199846800Y-91092746D01*
X199811345Y-91021837D01*
X199769375Y-90853956D01*
X199769375Y-90640481D01*
X199811345Y-90472599D01*
X199846799Y-90401692D01*
X199871467Y-90377023D01*
X199931077Y-90347219D01*
X199979101Y-90347219D01*
X200038710Y-90377024D01*
G37*
G36*
X201467281Y-90377024D02*
G01*
X201491950Y-90401692D01*
X201527403Y-90472599D01*
X201569374Y-90640480D01*
X201569374Y-90853956D01*
X201527403Y-91021837D01*
X201491950Y-91092743D01*
X201467281Y-91117413D01*
X201407672Y-91147219D01*
X201359648Y-91147219D01*
X201300038Y-91117414D01*
X201275371Y-91092746D01*
X201239916Y-91021837D01*
X201197946Y-90853956D01*
X201197946Y-90640481D01*
X201239916Y-90472599D01*
X201275370Y-90401692D01*
X201300038Y-90377023D01*
X201359648Y-90347219D01*
X201407672Y-90347219D01*
X201467281Y-90377024D01*
G37*
G36*
X196276805Y-90377024D02*
G01*
X196301474Y-90401692D01*
X196331279Y-90461302D01*
X196331279Y-90556945D01*
X196301474Y-90616554D01*
X196276805Y-90641222D01*
X196217196Y-90671028D01*
X195959851Y-90671028D01*
X195959851Y-90347219D01*
X196217196Y-90347219D01*
X196276805Y-90377024D01*
G37*
G36*
X197086328Y-88767080D02*
G01*
X197110997Y-88791748D01*
X197146450Y-88862655D01*
X197188421Y-89030536D01*
X197188421Y-89244012D01*
X197146450Y-89411893D01*
X197110997Y-89482799D01*
X197086328Y-89507469D01*
X197026719Y-89537275D01*
X196978695Y-89537275D01*
X196919085Y-89507470D01*
X196894418Y-89482802D01*
X196858963Y-89411893D01*
X196816993Y-89244012D01*
X196816993Y-89030537D01*
X196858963Y-88862655D01*
X196894417Y-88791748D01*
X196919085Y-88767079D01*
X196978695Y-88737275D01*
X197026719Y-88737275D01*
X197086328Y-88767080D01*
G37*
G36*
X200991090Y-88767080D02*
G01*
X201015759Y-88791748D01*
X201051212Y-88862655D01*
X201093183Y-89030536D01*
X201093183Y-89244012D01*
X201051212Y-89411893D01*
X201015759Y-89482799D01*
X200991090Y-89507469D01*
X200931481Y-89537275D01*
X200883457Y-89537275D01*
X200823847Y-89507470D01*
X200799180Y-89482802D01*
X200763725Y-89411893D01*
X200721755Y-89244012D01*
X200721755Y-89030537D01*
X200763725Y-88862655D01*
X200799179Y-88791748D01*
X200823847Y-88767079D01*
X200883457Y-88737275D01*
X200931481Y-88737275D01*
X200991090Y-88767080D01*
G37*
G36*
X194610137Y-88767080D02*
G01*
X194634806Y-88791748D01*
X194664611Y-88851358D01*
X194664611Y-88947001D01*
X194634806Y-89006610D01*
X194610137Y-89031278D01*
X194550528Y-89061084D01*
X194293183Y-89061084D01*
X194293183Y-88737275D01*
X194550528Y-88737275D01*
X194610137Y-88767080D01*
G37*
G36*
X193610137Y-88767080D02*
G01*
X193634806Y-88791748D01*
X193664611Y-88851358D01*
X193664611Y-88947001D01*
X193634806Y-89006610D01*
X193610137Y-89031278D01*
X193550528Y-89061084D01*
X193293183Y-89061084D01*
X193293183Y-88737275D01*
X193550528Y-88737275D01*
X193610137Y-88767080D01*
G37*
G36*
X203309056Y-91458330D02*
G01*
X192982072Y-91458330D01*
X192982072Y-90247219D01*
X195759851Y-90247219D01*
X195759851Y-91247219D01*
X195761772Y-91266728D01*
X195776704Y-91302776D01*
X195804294Y-91330366D01*
X195840342Y-91345298D01*
X195879360Y-91345298D01*
X195915408Y-91330366D01*
X195942998Y-91302776D01*
X195957930Y-91266728D01*
X195959851Y-91247219D01*
X195959851Y-90871028D01*
X196045881Y-90871028D01*
X196349356Y-91304565D01*
X196362117Y-91319446D01*
X196395022Y-91340415D01*
X196433447Y-91347196D01*
X196471541Y-91338756D01*
X196503506Y-91316381D01*
X196524475Y-91283476D01*
X196531256Y-91245052D01*
X196522816Y-91206957D01*
X196513202Y-91189873D01*
X196283234Y-90861347D01*
X196285524Y-90860471D01*
X196380762Y-90812852D01*
X196389158Y-90807566D01*
X196391598Y-90806556D01*
X196394344Y-90804302D01*
X196397352Y-90802409D01*
X196399081Y-90800414D01*
X196406752Y-90794120D01*
X196454370Y-90746501D01*
X196460662Y-90738834D01*
X196462660Y-90737102D01*
X196464553Y-90734093D01*
X196466807Y-90731348D01*
X196467817Y-90728907D01*
X196471278Y-90723409D01*
X196712232Y-90723409D01*
X196712232Y-91104361D01*
X196714153Y-91123870D01*
X196715528Y-91127190D01*
X196715783Y-91130773D01*
X196722789Y-91149082D01*
X196770408Y-91244321D01*
X196772461Y-91247584D01*
X196772975Y-91249123D01*
X196774637Y-91251039D01*
X196780851Y-91260911D01*
X196790322Y-91269125D01*
X196798539Y-91278600D01*
X196808409Y-91284812D01*
X196810327Y-91286476D01*
X196811867Y-91286989D01*
X196815130Y-91289043D01*
X196910367Y-91336662D01*
X196928676Y-91343668D01*
X196932259Y-91343922D01*
X196935580Y-91345298D01*
X196955089Y-91347219D01*
X197145565Y-91347219D01*
X197165074Y-91345298D01*
X197168394Y-91343922D01*
X197171978Y-91343668D01*
X197190286Y-91336662D01*
X197285524Y-91289043D01*
X197302114Y-91278600D01*
X197327679Y-91249123D01*
X197340017Y-91212107D01*
X197337252Y-91173187D01*
X197319803Y-91138289D01*
X197290326Y-91112724D01*
X197253310Y-91100385D01*
X197214390Y-91103151D01*
X197196081Y-91110157D01*
X197121958Y-91147219D01*
X196978696Y-91147219D01*
X196934386Y-91125064D01*
X196912232Y-91080754D01*
X196912232Y-90995865D01*
X197307928Y-90916726D01*
X197307931Y-90916726D01*
X197307933Y-90916724D01*
X197308033Y-90916705D01*
X197326787Y-90910995D01*
X197334927Y-90905543D01*
X197343979Y-90901794D01*
X197350980Y-90894792D01*
X197359206Y-90889284D01*
X197364640Y-90881132D01*
X197371569Y-90874204D01*
X197375358Y-90865056D01*
X197380850Y-90856819D01*
X197382751Y-90847208D01*
X197386501Y-90838156D01*
X197388422Y-90818647D01*
X197388422Y-90723409D01*
X197386501Y-90703900D01*
X197385125Y-90700579D01*
X197384871Y-90696996D01*
X197377865Y-90678687D01*
X197336105Y-90595167D01*
X197522829Y-90595167D01*
X197527582Y-90614186D01*
X197765677Y-91280852D01*
X197774047Y-91298579D01*
X197777417Y-91302301D01*
X197779565Y-91306836D01*
X197790416Y-91316659D01*
X197800234Y-91327504D01*
X197804766Y-91329651D01*
X197808491Y-91333023D01*
X197822281Y-91337947D01*
X197835496Y-91344208D01*
X197840506Y-91344457D01*
X197845236Y-91346146D01*
X197859857Y-91345418D01*
X197874466Y-91346145D01*
X197879191Y-91344457D01*
X197884206Y-91344208D01*
X197897432Y-91337942D01*
X197911211Y-91333022D01*
X197914931Y-91329653D01*
X197919468Y-91327505D01*
X197929290Y-91316654D01*
X197940137Y-91306836D01*
X197942284Y-91302301D01*
X197945655Y-91298579D01*
X197954025Y-91280853D01*
X197990011Y-91180091D01*
X198333201Y-91180091D01*
X198333201Y-91219109D01*
X198338791Y-91232604D01*
X198348133Y-91255158D01*
X198348137Y-91255162D01*
X198360569Y-91270311D01*
X198408188Y-91317929D01*
X198423341Y-91330366D01*
X198429754Y-91333022D01*
X198459390Y-91345298D01*
X198498408Y-91345298D01*
X198534456Y-91330366D01*
X198549610Y-91317930D01*
X198597228Y-91270311D01*
X198609665Y-91255158D01*
X198616417Y-91238856D01*
X198624596Y-91219110D01*
X198624597Y-91180092D01*
X198609666Y-91144043D01*
X198597229Y-91128890D01*
X198549610Y-91081270D01*
X198534457Y-91068833D01*
X198512263Y-91059640D01*
X198498408Y-91053901D01*
X198459390Y-91053901D01*
X198448832Y-91058274D01*
X198423342Y-91068832D01*
X198423341Y-91068833D01*
X198408187Y-91081270D01*
X198360569Y-91128890D01*
X198348132Y-91144043D01*
X198338119Y-91168219D01*
X198333201Y-91180091D01*
X197990011Y-91180091D01*
X198177086Y-90656281D01*
X198333201Y-90656281D01*
X198333201Y-90695299D01*
X198348133Y-90731347D01*
X198360569Y-90746501D01*
X198408188Y-90794119D01*
X198423341Y-90806556D01*
X198432344Y-90810285D01*
X198459390Y-90821488D01*
X198498408Y-90821488D01*
X198534456Y-90806556D01*
X198549610Y-90794120D01*
X198597228Y-90746501D01*
X198609665Y-90731348D01*
X198624596Y-90695299D01*
X198624596Y-90656281D01*
X198621736Y-90649377D01*
X198612953Y-90628171D01*
X199569375Y-90628171D01*
X199569375Y-90866266D01*
X199569710Y-90869668D01*
X199569493Y-90871127D01*
X199570572Y-90878424D01*
X199571296Y-90885775D01*
X199571860Y-90887138D01*
X199572361Y-90890520D01*
X199619980Y-91080995D01*
X199620493Y-91082432D01*
X199620545Y-91083155D01*
X199623653Y-91091279D01*
X199626575Y-91099456D01*
X199627005Y-91100036D01*
X199627551Y-91101463D01*
X199675170Y-91196701D01*
X199680453Y-91205093D01*
X199681465Y-91207537D01*
X199683721Y-91210286D01*
X199685613Y-91213291D01*
X199687607Y-91215020D01*
X199693902Y-91222690D01*
X199741520Y-91270310D01*
X199749188Y-91276603D01*
X199750920Y-91278600D01*
X199753928Y-91280493D01*
X199756674Y-91282747D01*
X199759114Y-91283757D01*
X199767511Y-91289043D01*
X199862748Y-91336662D01*
X199881057Y-91343668D01*
X199884640Y-91343922D01*
X199887961Y-91345298D01*
X199907470Y-91347219D01*
X200002708Y-91347219D01*
X200022217Y-91345298D01*
X200025537Y-91343922D01*
X200029121Y-91343668D01*
X200047429Y-91336662D01*
X200142667Y-91289043D01*
X200151062Y-91283758D01*
X200153504Y-91282747D01*
X200156251Y-91280491D01*
X200159257Y-91278600D01*
X200160987Y-91276605D01*
X200168657Y-91270310D01*
X200216276Y-91222690D01*
X200222568Y-91215023D01*
X200224565Y-91213292D01*
X200226458Y-91210284D01*
X200228713Y-91207537D01*
X200229724Y-91205095D01*
X200235008Y-91196701D01*
X200243313Y-91180091D01*
X200523677Y-91180091D01*
X200523677Y-91219109D01*
X200529267Y-91232604D01*
X200538609Y-91255158D01*
X200538613Y-91255162D01*
X200551045Y-91270311D01*
X200598664Y-91317929D01*
X200613817Y-91330366D01*
X200620230Y-91333022D01*
X200649866Y-91345298D01*
X200688884Y-91345298D01*
X200724932Y-91330366D01*
X200740086Y-91317930D01*
X200787704Y-91270311D01*
X200800141Y-91255158D01*
X200806893Y-91238856D01*
X200815072Y-91219110D01*
X200815073Y-91180092D01*
X200800142Y-91144043D01*
X200787705Y-91128890D01*
X200740086Y-91081270D01*
X200724933Y-91068833D01*
X200702739Y-91059640D01*
X200688884Y-91053901D01*
X200649866Y-91053901D01*
X200639308Y-91058274D01*
X200613818Y-91068832D01*
X200613817Y-91068833D01*
X200598663Y-91081270D01*
X200551045Y-91128890D01*
X200538608Y-91144043D01*
X200528595Y-91168219D01*
X200523677Y-91180091D01*
X200243313Y-91180091D01*
X200282627Y-91101464D01*
X200283173Y-91100035D01*
X200283603Y-91099456D01*
X200286524Y-91091279D01*
X200289633Y-91083155D01*
X200289684Y-91082434D01*
X200290198Y-91080996D01*
X200337817Y-90890520D01*
X200338317Y-90887138D01*
X200338882Y-90885775D01*
X200339605Y-90878424D01*
X200340685Y-90871127D01*
X200340467Y-90869668D01*
X200340803Y-90866266D01*
X200340803Y-90628171D01*
X200997946Y-90628171D01*
X200997946Y-90866266D01*
X200998281Y-90869668D01*
X200998064Y-90871127D01*
X200999143Y-90878424D01*
X200999867Y-90885775D01*
X201000431Y-90887138D01*
X201000932Y-90890520D01*
X201048551Y-91080995D01*
X201049064Y-91082432D01*
X201049116Y-91083155D01*
X201052224Y-91091279D01*
X201055146Y-91099456D01*
X201055576Y-91100036D01*
X201056122Y-91101463D01*
X201103741Y-91196701D01*
X201109024Y-91205093D01*
X201110036Y-91207537D01*
X201112292Y-91210286D01*
X201114184Y-91213291D01*
X201116178Y-91215020D01*
X201122473Y-91222690D01*
X201170091Y-91270310D01*
X201177759Y-91276603D01*
X201179491Y-91278600D01*
X201182499Y-91280493D01*
X201185245Y-91282747D01*
X201187685Y-91283757D01*
X201196082Y-91289043D01*
X201291319Y-91336662D01*
X201309628Y-91343668D01*
X201313211Y-91343922D01*
X201316532Y-91345298D01*
X201336041Y-91347219D01*
X201431279Y-91347219D01*
X201450788Y-91345298D01*
X201454108Y-91343922D01*
X201457692Y-91343668D01*
X201476000Y-91336662D01*
X201571238Y-91289043D01*
X201579633Y-91283758D01*
X201582075Y-91282747D01*
X201584822Y-91280491D01*
X201587828Y-91278600D01*
X201589558Y-91276605D01*
X201597228Y-91270310D01*
X201644847Y-91222690D01*
X201651139Y-91215023D01*
X201653136Y-91213292D01*
X201655029Y-91210284D01*
X201657284Y-91207537D01*
X201658295Y-91205095D01*
X201663579Y-91196701D01*
X201671884Y-91180091D01*
X201952248Y-91180091D01*
X201952248Y-91219109D01*
X201957838Y-91232604D01*
X201967180Y-91255158D01*
X201967184Y-91255162D01*
X201979616Y-91270311D01*
X202027235Y-91317929D01*
X202042388Y-91330366D01*
X202048801Y-91333022D01*
X202078437Y-91345298D01*
X202117455Y-91345298D01*
X202153503Y-91330366D01*
X202168657Y-91317930D01*
X202216275Y-91270311D01*
X202228712Y-91255158D01*
X202235464Y-91238856D01*
X202243643Y-91219110D01*
X202243644Y-91180092D01*
X202228713Y-91144043D01*
X202216276Y-91128890D01*
X202168657Y-91081270D01*
X202153504Y-91068833D01*
X202131310Y-91059640D01*
X202117455Y-91053901D01*
X202078437Y-91053901D01*
X202067879Y-91058274D01*
X202042389Y-91068832D01*
X202042388Y-91068833D01*
X202027234Y-91081270D01*
X201979616Y-91128890D01*
X201967179Y-91144043D01*
X201957166Y-91168219D01*
X201952248Y-91180091D01*
X201671884Y-91180091D01*
X201711198Y-91101464D01*
X201711744Y-91100035D01*
X201712174Y-91099456D01*
X201715095Y-91091279D01*
X201718204Y-91083155D01*
X201718255Y-91082434D01*
X201718769Y-91080996D01*
X201766388Y-90890520D01*
X201766888Y-90887138D01*
X201767453Y-90885775D01*
X201768176Y-90878424D01*
X201769256Y-90871127D01*
X201769038Y-90869668D01*
X201769374Y-90866266D01*
X201769374Y-90628171D01*
X201769038Y-90624768D01*
X201769256Y-90623310D01*
X201768176Y-90616012D01*
X201767453Y-90608662D01*
X201766888Y-90607298D01*
X201766388Y-90603917D01*
X201718769Y-90413441D01*
X201718255Y-90412002D01*
X201718204Y-90411282D01*
X201715095Y-90403157D01*
X201712174Y-90394981D01*
X201711744Y-90394401D01*
X201711198Y-90392973D01*
X201663579Y-90297736D01*
X201658293Y-90289339D01*
X201657283Y-90286899D01*
X201655029Y-90284153D01*
X201653136Y-90281145D01*
X201651138Y-90279412D01*
X201644846Y-90271746D01*
X201600811Y-90227710D01*
X202380819Y-90227710D01*
X202380819Y-90266728D01*
X202395751Y-90302776D01*
X202423341Y-90330366D01*
X202459389Y-90345298D01*
X202478898Y-90347219D01*
X202877568Y-90347219D01*
X202689354Y-90562321D01*
X202683324Y-90570754D01*
X202681465Y-90572614D01*
X202680734Y-90574377D01*
X202677953Y-90578268D01*
X202672748Y-90593656D01*
X202666533Y-90608662D01*
X202666533Y-90612035D01*
X202665453Y-90615229D01*
X202666533Y-90631431D01*
X202666533Y-90647680D01*
X202667823Y-90650795D01*
X202668048Y-90654161D01*
X202675248Y-90668721D01*
X202681465Y-90683728D01*
X202683849Y-90686112D01*
X202685345Y-90689136D01*
X202697570Y-90699833D01*
X202709055Y-90711318D01*
X202712169Y-90712608D01*
X202714709Y-90714830D01*
X202730097Y-90720034D01*
X202745103Y-90726250D01*
X202749862Y-90726718D01*
X202751670Y-90727330D01*
X202754294Y-90727155D01*
X202764612Y-90728171D01*
X202883862Y-90728171D01*
X202943471Y-90757976D01*
X202968140Y-90782644D01*
X202997945Y-90842254D01*
X202997945Y-91033135D01*
X202968140Y-91092743D01*
X202943471Y-91117413D01*
X202883862Y-91147219D01*
X202645362Y-91147219D01*
X202585752Y-91117414D01*
X202549609Y-91081270D01*
X202534456Y-91068833D01*
X202498408Y-91053902D01*
X202459390Y-91053901D01*
X202423341Y-91068832D01*
X202395751Y-91096422D01*
X202380820Y-91132470D01*
X202380819Y-91171488D01*
X202395750Y-91207537D01*
X202408187Y-91222690D01*
X202455805Y-91270310D01*
X202463473Y-91276603D01*
X202465205Y-91278600D01*
X202468213Y-91280493D01*
X202470959Y-91282747D01*
X202473399Y-91283757D01*
X202481796Y-91289043D01*
X202577033Y-91336662D01*
X202595342Y-91343668D01*
X202598925Y-91343922D01*
X202602246Y-91345298D01*
X202621755Y-91347219D01*
X202907469Y-91347219D01*
X202926978Y-91345298D01*
X202930298Y-91343922D01*
X202933882Y-91343668D01*
X202952190Y-91336662D01*
X203047428Y-91289043D01*
X203055823Y-91283758D01*
X203058265Y-91282747D01*
X203061012Y-91280491D01*
X203064018Y-91278600D01*
X203065748Y-91276605D01*
X203073418Y-91270310D01*
X203121037Y-91222690D01*
X203127329Y-91215023D01*
X203129326Y-91213292D01*
X203131219Y-91210284D01*
X203133474Y-91207537D01*
X203134485Y-91205095D01*
X203139769Y-91196701D01*
X203187388Y-91101464D01*
X203194394Y-91083155D01*
X203194648Y-91079571D01*
X203196024Y-91076251D01*
X203197945Y-91056742D01*
X203197945Y-90818647D01*
X203196024Y-90799138D01*
X203194648Y-90795817D01*
X203194394Y-90792234D01*
X203187388Y-90773925D01*
X203139769Y-90678688D01*
X203134483Y-90670291D01*
X203133473Y-90667851D01*
X203131219Y-90665105D01*
X203129326Y-90662097D01*
X203127328Y-90660364D01*
X203121036Y-90652698D01*
X203073418Y-90605079D01*
X203065747Y-90598784D01*
X203064018Y-90596790D01*
X203061010Y-90594896D01*
X203058264Y-90592643D01*
X203055824Y-90591632D01*
X203047428Y-90586347D01*
X202968580Y-90546923D01*
X203173203Y-90313069D01*
X203179232Y-90304635D01*
X203181092Y-90302776D01*
X203181822Y-90301012D01*
X203184604Y-90297122D01*
X203189808Y-90281733D01*
X203196024Y-90266728D01*
X203196024Y-90263354D01*
X203197104Y-90260161D01*
X203196024Y-90243958D01*
X203196024Y-90227710D01*
X203194733Y-90224594D01*
X203194509Y-90221229D01*
X203187306Y-90206663D01*
X203181092Y-90191662D01*
X203178708Y-90189278D01*
X203177213Y-90186254D01*
X203164979Y-90175549D01*
X203153502Y-90164072D01*
X203150388Y-90162782D01*
X203147849Y-90160560D01*
X203132457Y-90155354D01*
X203117454Y-90149140D01*
X203112694Y-90148671D01*
X203110887Y-90148060D01*
X203108262Y-90148234D01*
X203097945Y-90147219D01*
X202478898Y-90147219D01*
X202459389Y-90149140D01*
X202423341Y-90164072D01*
X202395751Y-90191662D01*
X202380819Y-90227710D01*
X201600811Y-90227710D01*
X201597228Y-90224127D01*
X201589557Y-90217832D01*
X201587828Y-90215838D01*
X201584820Y-90213944D01*
X201582074Y-90211691D01*
X201579634Y-90210680D01*
X201571238Y-90205395D01*
X201476000Y-90157776D01*
X201457692Y-90150770D01*
X201454108Y-90150515D01*
X201450788Y-90149140D01*
X201431279Y-90147219D01*
X201336041Y-90147219D01*
X201316532Y-90149140D01*
X201313211Y-90150515D01*
X201309628Y-90150770D01*
X201291319Y-90157776D01*
X201196082Y-90205395D01*
X201187685Y-90210680D01*
X201185245Y-90211691D01*
X201182499Y-90213944D01*
X201179491Y-90215838D01*
X201177758Y-90217835D01*
X201170092Y-90224128D01*
X201122473Y-90271746D01*
X201116178Y-90279416D01*
X201114184Y-90281146D01*
X201112290Y-90284153D01*
X201110037Y-90286900D01*
X201109026Y-90289339D01*
X201103741Y-90297736D01*
X201056122Y-90392974D01*
X201055576Y-90394400D01*
X201055146Y-90394981D01*
X201052224Y-90403157D01*
X201049116Y-90411282D01*
X201049064Y-90412004D01*
X201048551Y-90413442D01*
X201000932Y-90603917D01*
X201000431Y-90607298D01*
X200999867Y-90608662D01*
X200999143Y-90616012D01*
X200998064Y-90623310D01*
X200998281Y-90624768D01*
X200997946Y-90628171D01*
X200340803Y-90628171D01*
X200340467Y-90624768D01*
X200340685Y-90623310D01*
X200339605Y-90616012D01*
X200338882Y-90608662D01*
X200338317Y-90607298D01*
X200337817Y-90603917D01*
X200290198Y-90413441D01*
X200289684Y-90412002D01*
X200289633Y-90411282D01*
X200286524Y-90403157D01*
X200283603Y-90394981D01*
X200283173Y-90394401D01*
X200282627Y-90392973D01*
X200235008Y-90297736D01*
X200229722Y-90289339D01*
X200228712Y-90286899D01*
X200226458Y-90284153D01*
X200224565Y-90281145D01*
X200222567Y-90279412D01*
X200216275Y-90271746D01*
X200168657Y-90224127D01*
X200160986Y-90217832D01*
X200159257Y-90215838D01*
X200156249Y-90213944D01*
X200153503Y-90211691D01*
X200151063Y-90210680D01*
X200142667Y-90205395D01*
X200047429Y-90157776D01*
X200029121Y-90150770D01*
X200025537Y-90150515D01*
X200022217Y-90149140D01*
X200002708Y-90147219D01*
X199907470Y-90147219D01*
X199887961Y-90149140D01*
X199884640Y-90150515D01*
X199881057Y-90150770D01*
X199862748Y-90157776D01*
X199767511Y-90205395D01*
X199759114Y-90210680D01*
X199756674Y-90211691D01*
X199753928Y-90213944D01*
X199750920Y-90215838D01*
X199749187Y-90217835D01*
X199741521Y-90224128D01*
X199693902Y-90271746D01*
X199687607Y-90279416D01*
X199685613Y-90281146D01*
X199683719Y-90284153D01*
X199681466Y-90286900D01*
X199680455Y-90289339D01*
X199675170Y-90297736D01*
X199627551Y-90392974D01*
X199627005Y-90394400D01*
X199626575Y-90394981D01*
X199623653Y-90403157D01*
X199620545Y-90411282D01*
X199620493Y-90412004D01*
X199619980Y-90413442D01*
X199572361Y-90603917D01*
X199571860Y-90607298D01*
X199571296Y-90608662D01*
X199570572Y-90616012D01*
X199569493Y-90623310D01*
X199569710Y-90624768D01*
X199569375Y-90628171D01*
X198612953Y-90628171D01*
X198609665Y-90620232D01*
X198597228Y-90605079D01*
X198549610Y-90557460D01*
X198534456Y-90545024D01*
X198498408Y-90530092D01*
X198459390Y-90530092D01*
X198433899Y-90540650D01*
X198423341Y-90545024D01*
X198408188Y-90557461D01*
X198360569Y-90605079D01*
X198348134Y-90620232D01*
X198348133Y-90620233D01*
X198333201Y-90656281D01*
X198177086Y-90656281D01*
X198192120Y-90614186D01*
X198196873Y-90595167D01*
X198194935Y-90556197D01*
X198178232Y-90520935D01*
X198149306Y-90494749D01*
X198112561Y-90481626D01*
X198073591Y-90483563D01*
X198038329Y-90500267D01*
X198012142Y-90529192D01*
X198003772Y-90546919D01*
X197859851Y-90949897D01*
X197715930Y-90546918D01*
X197707560Y-90529192D01*
X197681373Y-90500266D01*
X197646111Y-90483563D01*
X197607141Y-90481625D01*
X197570396Y-90494748D01*
X197541470Y-90520935D01*
X197524767Y-90556197D01*
X197522829Y-90595167D01*
X197336105Y-90595167D01*
X197330246Y-90583450D01*
X197328191Y-90580186D01*
X197327679Y-90578648D01*
X197326017Y-90576732D01*
X197319803Y-90566859D01*
X197310327Y-90558641D01*
X197302114Y-90549171D01*
X197292242Y-90542957D01*
X197290326Y-90541295D01*
X197288787Y-90540781D01*
X197285524Y-90538728D01*
X197190286Y-90491109D01*
X197171978Y-90484103D01*
X197168394Y-90483848D01*
X197165074Y-90482473D01*
X197145565Y-90480552D01*
X196955089Y-90480552D01*
X196935580Y-90482473D01*
X196932259Y-90483848D01*
X196928676Y-90484103D01*
X196910367Y-90491109D01*
X196815130Y-90538728D01*
X196811866Y-90540782D01*
X196810328Y-90541295D01*
X196808412Y-90542956D01*
X196798539Y-90549171D01*
X196790321Y-90558646D01*
X196780851Y-90566860D01*
X196774637Y-90576731D01*
X196772975Y-90578648D01*
X196772461Y-90580186D01*
X196770408Y-90583450D01*
X196722789Y-90678688D01*
X196715783Y-90696996D01*
X196715528Y-90700579D01*
X196714153Y-90703900D01*
X196712232Y-90723409D01*
X196471278Y-90723409D01*
X196473103Y-90720511D01*
X196520722Y-90625274D01*
X196527728Y-90606965D01*
X196527982Y-90603381D01*
X196529358Y-90600061D01*
X196531279Y-90580552D01*
X196531279Y-90437695D01*
X196529358Y-90418186D01*
X196527982Y-90414865D01*
X196527728Y-90411282D01*
X196520722Y-90392973D01*
X196473103Y-90297736D01*
X196467817Y-90289339D01*
X196466807Y-90286899D01*
X196464553Y-90284153D01*
X196462660Y-90281145D01*
X196460662Y-90279412D01*
X196454370Y-90271746D01*
X196406752Y-90224127D01*
X196399081Y-90217832D01*
X196397352Y-90215838D01*
X196394344Y-90213944D01*
X196391598Y-90211691D01*
X196389158Y-90210680D01*
X196380762Y-90205395D01*
X196285524Y-90157776D01*
X196267216Y-90150770D01*
X196263632Y-90150515D01*
X196260312Y-90149140D01*
X196240803Y-90147219D01*
X195859851Y-90147219D01*
X195840342Y-90149140D01*
X195804294Y-90164072D01*
X195776704Y-90191662D01*
X195761772Y-90227710D01*
X195759851Y-90247219D01*
X192982072Y-90247219D01*
X192982072Y-89875475D01*
X198426517Y-89875475D01*
X198434169Y-89913735D01*
X198455880Y-89946155D01*
X198488345Y-89967798D01*
X198526622Y-89975370D01*
X198564882Y-89967718D01*
X198597302Y-89946007D01*
X198609722Y-89930840D01*
X198818438Y-89617766D01*
X199523676Y-89617766D01*
X199523676Y-89656784D01*
X199538608Y-89692832D01*
X199566198Y-89720422D01*
X199602246Y-89735354D01*
X199621755Y-89737275D01*
X200240802Y-89737275D01*
X200260311Y-89735354D01*
X200296359Y-89720422D01*
X200323949Y-89692832D01*
X200338881Y-89656784D01*
X200338881Y-89617766D01*
X200323949Y-89581718D01*
X200296359Y-89554128D01*
X200260311Y-89539196D01*
X200240802Y-89537275D01*
X199863177Y-89537275D01*
X200263894Y-89136557D01*
X200276330Y-89121403D01*
X200277704Y-89118084D01*
X200280060Y-89115369D01*
X200288051Y-89097469D01*
X200314465Y-89018227D01*
X200521755Y-89018227D01*
X200521755Y-89256322D01*
X200522090Y-89259724D01*
X200521873Y-89261183D01*
X200522952Y-89268480D01*
X200523676Y-89275831D01*
X200524240Y-89277194D01*
X200524741Y-89280576D01*
X200572360Y-89471051D01*
X200572873Y-89472488D01*
X200572925Y-89473211D01*
X200576033Y-89481335D01*
X200578955Y-89489512D01*
X200579385Y-89490092D01*
X200579931Y-89491519D01*
X200627550Y-89586757D01*
X200632833Y-89595149D01*
X200633845Y-89597593D01*
X200636101Y-89600342D01*
X200637993Y-89603347D01*
X200639987Y-89605076D01*
X200646282Y-89612746D01*
X200693900Y-89660366D01*
X200701568Y-89666659D01*
X200703300Y-89668656D01*
X200706308Y-89670549D01*
X200709054Y-89672803D01*
X200711494Y-89673813D01*
X200719891Y-89679099D01*
X200815128Y-89726718D01*
X200833437Y-89733724D01*
X200837020Y-89733978D01*
X200840341Y-89735354D01*
X200859850Y-89737275D01*
X200955088Y-89737275D01*
X200974597Y-89735354D01*
X200977917Y-89733978D01*
X200981501Y-89733724D01*
X200999809Y-89726718D01*
X201095047Y-89679099D01*
X201103442Y-89673814D01*
X201105884Y-89672803D01*
X201108631Y-89670547D01*
X201111637Y-89668656D01*
X201113367Y-89666661D01*
X201121037Y-89660366D01*
X201163636Y-89617766D01*
X201428438Y-89617766D01*
X201428438Y-89656784D01*
X201443370Y-89692832D01*
X201470960Y-89720422D01*
X201507008Y-89735354D01*
X201526517Y-89737275D01*
X202145564Y-89737275D01*
X202165073Y-89735354D01*
X202201121Y-89720422D01*
X202228711Y-89692832D01*
X202243643Y-89656784D01*
X202243643Y-89617766D01*
X202228711Y-89581718D01*
X202201121Y-89554128D01*
X202165073Y-89539196D01*
X202145564Y-89537275D01*
X201767939Y-89537275D01*
X202168656Y-89136557D01*
X202179685Y-89123118D01*
X202426984Y-89123118D01*
X202428438Y-89127936D01*
X202428438Y-89132974D01*
X202434034Y-89146483D01*
X202438255Y-89160473D01*
X202441442Y-89164369D01*
X202443370Y-89169022D01*
X202453706Y-89179358D01*
X202462962Y-89190671D01*
X202467399Y-89193051D01*
X202470960Y-89196612D01*
X202484465Y-89202206D01*
X202497346Y-89209116D01*
X202502355Y-89209616D01*
X202507008Y-89211544D01*
X202521629Y-89211544D01*
X202536170Y-89212998D01*
X202540989Y-89211544D01*
X202546026Y-89211544D01*
X202559535Y-89205947D01*
X202573525Y-89201727D01*
X202577421Y-89198539D01*
X202582074Y-89196612D01*
X202597228Y-89184176D01*
X202633371Y-89148031D01*
X202692981Y-89118227D01*
X202883862Y-89118227D01*
X202943471Y-89148032D01*
X202968140Y-89172700D01*
X202997945Y-89232310D01*
X202997945Y-89423191D01*
X202968140Y-89482799D01*
X202943471Y-89507469D01*
X202883862Y-89537275D01*
X202692981Y-89537275D01*
X202633371Y-89507470D01*
X202597228Y-89471326D01*
X202582075Y-89458889D01*
X202546027Y-89443958D01*
X202507009Y-89443957D01*
X202470960Y-89458888D01*
X202443370Y-89486478D01*
X202428439Y-89522526D01*
X202428438Y-89561544D01*
X202443369Y-89597593D01*
X202455806Y-89612746D01*
X202503424Y-89660366D01*
X202511092Y-89666659D01*
X202512824Y-89668656D01*
X202515832Y-89670549D01*
X202518578Y-89672803D01*
X202521018Y-89673813D01*
X202529415Y-89679099D01*
X202624652Y-89726718D01*
X202642961Y-89733724D01*
X202646544Y-89733978D01*
X202649865Y-89735354D01*
X202669374Y-89737275D01*
X202907469Y-89737275D01*
X202926978Y-89735354D01*
X202930298Y-89733978D01*
X202933882Y-89733724D01*
X202952190Y-89726718D01*
X203047428Y-89679099D01*
X203055823Y-89673814D01*
X203058265Y-89672803D01*
X203061012Y-89670547D01*
X203064018Y-89668656D01*
X203065748Y-89666661D01*
X203073418Y-89660366D01*
X203121037Y-89612746D01*
X203127329Y-89605079D01*
X203129326Y-89603348D01*
X203131219Y-89600340D01*
X203133474Y-89597593D01*
X203134485Y-89595151D01*
X203139769Y-89586757D01*
X203187388Y-89491520D01*
X203194394Y-89473211D01*
X203194648Y-89469627D01*
X203196024Y-89466307D01*
X203197945Y-89446798D01*
X203197945Y-89208703D01*
X203196024Y-89189194D01*
X203194648Y-89185873D01*
X203194394Y-89182290D01*
X203187388Y-89163981D01*
X203139769Y-89068744D01*
X203134483Y-89060347D01*
X203133473Y-89057907D01*
X203131219Y-89055161D01*
X203129326Y-89052153D01*
X203127328Y-89050420D01*
X203121036Y-89042754D01*
X203073418Y-88995135D01*
X203065747Y-88988840D01*
X203064018Y-88986846D01*
X203061010Y-88984952D01*
X203058264Y-88982699D01*
X203055824Y-88981688D01*
X203047428Y-88976403D01*
X202952190Y-88928784D01*
X202933882Y-88921778D01*
X202930298Y-88921523D01*
X202926978Y-88920148D01*
X202907469Y-88918227D01*
X202669374Y-88918227D01*
X202649865Y-88920148D01*
X202646544Y-88921523D01*
X202646207Y-88921547D01*
X202664635Y-88737275D01*
X203050326Y-88737275D01*
X203069835Y-88735354D01*
X203105883Y-88720422D01*
X203133473Y-88692832D01*
X203148405Y-88656784D01*
X203148405Y-88617766D01*
X203133473Y-88581718D01*
X203105883Y-88554128D01*
X203069835Y-88539196D01*
X203050326Y-88537275D01*
X202574136Y-88537275D01*
X202566919Y-88537985D01*
X202564483Y-88537742D01*
X202562104Y-88538459D01*
X202554627Y-88539196D01*
X202541117Y-88544792D01*
X202527128Y-88549013D01*
X202523231Y-88552200D01*
X202518579Y-88554128D01*
X202508242Y-88564464D01*
X202496930Y-88573720D01*
X202494549Y-88578157D01*
X202490989Y-88581718D01*
X202485394Y-88595223D01*
X202478485Y-88608104D01*
X202477008Y-88615468D01*
X202476057Y-88617766D01*
X202476057Y-88620216D01*
X202474632Y-88627325D01*
X202427013Y-89103515D01*
X202426984Y-89123118D01*
X202179685Y-89123118D01*
X202181092Y-89121403D01*
X202182466Y-89118084D01*
X202184822Y-89115369D01*
X202192813Y-89097469D01*
X202240432Y-88954612D01*
X202242631Y-88944939D01*
X202243643Y-88942498D01*
X202243991Y-88938960D01*
X202244779Y-88935497D01*
X202244591Y-88932862D01*
X202245564Y-88922989D01*
X202245564Y-88827751D01*
X202243643Y-88808242D01*
X202242267Y-88804921D01*
X202242013Y-88801338D01*
X202235007Y-88783029D01*
X202187388Y-88687792D01*
X202182102Y-88679395D01*
X202181092Y-88676955D01*
X202178838Y-88674209D01*
X202176945Y-88671201D01*
X202174947Y-88669468D01*
X202168655Y-88661802D01*
X202121037Y-88614183D01*
X202113366Y-88607888D01*
X202111637Y-88605894D01*
X202108629Y-88604000D01*
X202105883Y-88601747D01*
X202103443Y-88600736D01*
X202095047Y-88595451D01*
X201999809Y-88547832D01*
X201981501Y-88540826D01*
X201977917Y-88540571D01*
X201974597Y-88539196D01*
X201955088Y-88537275D01*
X201716993Y-88537275D01*
X201697484Y-88539196D01*
X201694163Y-88540571D01*
X201690580Y-88540826D01*
X201672271Y-88547832D01*
X201577034Y-88595451D01*
X201568637Y-88600736D01*
X201566197Y-88601747D01*
X201563451Y-88604000D01*
X201560443Y-88605894D01*
X201558710Y-88607891D01*
X201551044Y-88614184D01*
X201503425Y-88661802D01*
X201490989Y-88676956D01*
X201476057Y-88713004D01*
X201476057Y-88752022D01*
X201490989Y-88788070D01*
X201518579Y-88815660D01*
X201554627Y-88830592D01*
X201593645Y-88830592D01*
X201629693Y-88815660D01*
X201644847Y-88803224D01*
X201680990Y-88767079D01*
X201740600Y-88737275D01*
X201931481Y-88737275D01*
X201991090Y-88767080D01*
X202015759Y-88791748D01*
X202045564Y-88851358D01*
X202045564Y-88906762D01*
X202010542Y-89011826D01*
X201455806Y-89566564D01*
X201443370Y-89581718D01*
X201428438Y-89617766D01*
X201163636Y-89617766D01*
X201168656Y-89612746D01*
X201174948Y-89605079D01*
X201176945Y-89603348D01*
X201178838Y-89600340D01*
X201181093Y-89597593D01*
X201182104Y-89595151D01*
X201187388Y-89586757D01*
X201235007Y-89491520D01*
X201235553Y-89490091D01*
X201235983Y-89489512D01*
X201238904Y-89481335D01*
X201242013Y-89473211D01*
X201242064Y-89472490D01*
X201242578Y-89471052D01*
X201290197Y-89280576D01*
X201290697Y-89277194D01*
X201291262Y-89275831D01*
X201291985Y-89268480D01*
X201293065Y-89261183D01*
X201292847Y-89259724D01*
X201293183Y-89256322D01*
X201293183Y-89018227D01*
X201292847Y-89014824D01*
X201293065Y-89013366D01*
X201291985Y-89006068D01*
X201291262Y-88998718D01*
X201290697Y-88997354D01*
X201290197Y-88993973D01*
X201242578Y-88803497D01*
X201242064Y-88802058D01*
X201242013Y-88801338D01*
X201238904Y-88793213D01*
X201235983Y-88785037D01*
X201235553Y-88784457D01*
X201235007Y-88783029D01*
X201187388Y-88687792D01*
X201182102Y-88679395D01*
X201181092Y-88676955D01*
X201178838Y-88674209D01*
X201176945Y-88671201D01*
X201174947Y-88669468D01*
X201168655Y-88661802D01*
X201121037Y-88614183D01*
X201113366Y-88607888D01*
X201111637Y-88605894D01*
X201108629Y-88604000D01*
X201105883Y-88601747D01*
X201103443Y-88600736D01*
X201095047Y-88595451D01*
X200999809Y-88547832D01*
X200981501Y-88540826D01*
X200977917Y-88540571D01*
X200974597Y-88539196D01*
X200955088Y-88537275D01*
X200859850Y-88537275D01*
X200840341Y-88539196D01*
X200837020Y-88540571D01*
X200833437Y-88540826D01*
X200815128Y-88547832D01*
X200719891Y-88595451D01*
X200711494Y-88600736D01*
X200709054Y-88601747D01*
X200706308Y-88604000D01*
X200703300Y-88605894D01*
X200701567Y-88607891D01*
X200693901Y-88614184D01*
X200646282Y-88661802D01*
X200639987Y-88669472D01*
X200637993Y-88671202D01*
X200636099Y-88674209D01*
X200633846Y-88676956D01*
X200632835Y-88679395D01*
X200627550Y-88687792D01*
X200579931Y-88783030D01*
X200579385Y-88784456D01*
X200578955Y-88785037D01*
X200576033Y-88793213D01*
X200572925Y-88801338D01*
X200572873Y-88802060D01*
X200572360Y-88803498D01*
X200524741Y-88993973D01*
X200524240Y-88997354D01*
X200523676Y-88998718D01*
X200522952Y-89006068D01*
X200521873Y-89013366D01*
X200522090Y-89014824D01*
X200521755Y-89018227D01*
X200314465Y-89018227D01*
X200335670Y-88954612D01*
X200337869Y-88944939D01*
X200338881Y-88942498D01*
X200339229Y-88938960D01*
X200340017Y-88935497D01*
X200339829Y-88932862D01*
X200340802Y-88922989D01*
X200340802Y-88827751D01*
X200338881Y-88808242D01*
X200337505Y-88804921D01*
X200337251Y-88801338D01*
X200330245Y-88783029D01*
X200282626Y-88687792D01*
X200277340Y-88679395D01*
X200276330Y-88676955D01*
X200274076Y-88674209D01*
X200272183Y-88671201D01*
X200270185Y-88669468D01*
X200263893Y-88661802D01*
X200216275Y-88614183D01*
X200208604Y-88607888D01*
X200206875Y-88605894D01*
X200203867Y-88604000D01*
X200201121Y-88601747D01*
X200198681Y-88600736D01*
X200190285Y-88595451D01*
X200095047Y-88547832D01*
X200076739Y-88540826D01*
X200073155Y-88540571D01*
X200069835Y-88539196D01*
X200050326Y-88537275D01*
X199812231Y-88537275D01*
X199792722Y-88539196D01*
X199789401Y-88540571D01*
X199785818Y-88540826D01*
X199767509Y-88547832D01*
X199672272Y-88595451D01*
X199663875Y-88600736D01*
X199661435Y-88601747D01*
X199658689Y-88604000D01*
X199655681Y-88605894D01*
X199653948Y-88607891D01*
X199646282Y-88614184D01*
X199598663Y-88661802D01*
X199586227Y-88676956D01*
X199571295Y-88713004D01*
X199571295Y-88752022D01*
X199586227Y-88788070D01*
X199613817Y-88815660D01*
X199649865Y-88830592D01*
X199688883Y-88830592D01*
X199724931Y-88815660D01*
X199740085Y-88803224D01*
X199776228Y-88767079D01*
X199835838Y-88737275D01*
X200026719Y-88737275D01*
X200086328Y-88767080D01*
X200110997Y-88791748D01*
X200140802Y-88851358D01*
X200140802Y-88906762D01*
X200105780Y-89011826D01*
X199551044Y-89566564D01*
X199538608Y-89581718D01*
X199523676Y-89617766D01*
X198818438Y-89617766D01*
X199466864Y-88645126D01*
X199476088Y-88627828D01*
X199483659Y-88589551D01*
X199476007Y-88551291D01*
X199454296Y-88518871D01*
X199421831Y-88497227D01*
X199383555Y-88489656D01*
X199345294Y-88497308D01*
X199312874Y-88519019D01*
X199300454Y-88534186D01*
X198443312Y-89819900D01*
X198434089Y-89837198D01*
X198426517Y-89875475D01*
X192982072Y-89875475D01*
X192982072Y-88637275D01*
X193093183Y-88637275D01*
X193093183Y-89637275D01*
X193095104Y-89656784D01*
X193110036Y-89692832D01*
X193137626Y-89720422D01*
X193173674Y-89735354D01*
X193212692Y-89735354D01*
X193248740Y-89720422D01*
X193276330Y-89692832D01*
X193291262Y-89656784D01*
X193293183Y-89637275D01*
X193293183Y-89261084D01*
X193574135Y-89261084D01*
X193593644Y-89259163D01*
X193596964Y-89257787D01*
X193600548Y-89257533D01*
X193618856Y-89250527D01*
X193714094Y-89202908D01*
X193722490Y-89197622D01*
X193724930Y-89196612D01*
X193727676Y-89194358D01*
X193730684Y-89192465D01*
X193732413Y-89190470D01*
X193740084Y-89184176D01*
X193787702Y-89136557D01*
X193793994Y-89128890D01*
X193795992Y-89127158D01*
X193797885Y-89124149D01*
X193800139Y-89121404D01*
X193801149Y-89118963D01*
X193806435Y-89110567D01*
X193854054Y-89015330D01*
X193861060Y-88997021D01*
X193861314Y-88993437D01*
X193862690Y-88990117D01*
X193864611Y-88970608D01*
X193864611Y-88827751D01*
X193862690Y-88808242D01*
X193861314Y-88804921D01*
X193861060Y-88801338D01*
X193854054Y-88783029D01*
X193806435Y-88687792D01*
X193801149Y-88679395D01*
X193800139Y-88676955D01*
X193797885Y-88674209D01*
X193795992Y-88671201D01*
X193793994Y-88669468D01*
X193787702Y-88661802D01*
X193763176Y-88637275D01*
X194093183Y-88637275D01*
X194093183Y-89637275D01*
X194095104Y-89656784D01*
X194110036Y-89692832D01*
X194137626Y-89720422D01*
X194173674Y-89735354D01*
X194212692Y-89735354D01*
X194248740Y-89720422D01*
X194276330Y-89692832D01*
X194291262Y-89656784D01*
X194293183Y-89637275D01*
X194293183Y-89261084D01*
X194379213Y-89261084D01*
X194682688Y-89694621D01*
X194695449Y-89709502D01*
X194728354Y-89730471D01*
X194766779Y-89737252D01*
X194804873Y-89728812D01*
X194836838Y-89706437D01*
X194857807Y-89673532D01*
X194864588Y-89635108D01*
X194863366Y-89629591D01*
X194998241Y-89629591D01*
X194999866Y-89643132D01*
X194999866Y-89656784D01*
X195002172Y-89662352D01*
X195002890Y-89668331D01*
X195009575Y-89680224D01*
X195014798Y-89692832D01*
X195019056Y-89697090D01*
X195022009Y-89702343D01*
X195032741Y-89710775D01*
X195042388Y-89720422D01*
X195047953Y-89722727D01*
X195052690Y-89726449D01*
X195065826Y-89730130D01*
X195078436Y-89735354D01*
X195087727Y-89736268D01*
X195090261Y-89736979D01*
X195092369Y-89736725D01*
X195097945Y-89737275D01*
X195621754Y-89737275D01*
X195641263Y-89735354D01*
X195677311Y-89720422D01*
X195704901Y-89692832D01*
X195719833Y-89656784D01*
X195719833Y-89617766D01*
X195704901Y-89581718D01*
X195677311Y-89554128D01*
X195641263Y-89539196D01*
X195621754Y-89537275D01*
X195303691Y-89537275D01*
X195700386Y-89032390D01*
X195703398Y-89027668D01*
X195704901Y-89026165D01*
X195705909Y-89023731D01*
X195709420Y-89018227D01*
X196616993Y-89018227D01*
X196616993Y-89256322D01*
X196617328Y-89259724D01*
X196617111Y-89261183D01*
X196618190Y-89268480D01*
X196618914Y-89275831D01*
X196619478Y-89277194D01*
X196619979Y-89280576D01*
X196667598Y-89471051D01*
X196668111Y-89472488D01*
X196668163Y-89473211D01*
X196671271Y-89481335D01*
X196674193Y-89489512D01*
X196674623Y-89490092D01*
X196675169Y-89491519D01*
X196722788Y-89586757D01*
X196728071Y-89595149D01*
X196729083Y-89597593D01*
X196731339Y-89600342D01*
X196733231Y-89603347D01*
X196735225Y-89605076D01*
X196741520Y-89612746D01*
X196789138Y-89660366D01*
X196796806Y-89666659D01*
X196798538Y-89668656D01*
X196801546Y-89670549D01*
X196804292Y-89672803D01*
X196806732Y-89673813D01*
X196815129Y-89679099D01*
X196910366Y-89726718D01*
X196928675Y-89733724D01*
X196932258Y-89733978D01*
X196935579Y-89735354D01*
X196955088Y-89737275D01*
X197050326Y-89737275D01*
X197069835Y-89735354D01*
X197073155Y-89733978D01*
X197076739Y-89733724D01*
X197095047Y-89726718D01*
X197190285Y-89679099D01*
X197198680Y-89673814D01*
X197201122Y-89672803D01*
X197203869Y-89670547D01*
X197206875Y-89668656D01*
X197208605Y-89666661D01*
X197216275Y-89660366D01*
X197263894Y-89612746D01*
X197270186Y-89605079D01*
X197272183Y-89603348D01*
X197274076Y-89600340D01*
X197276331Y-89597593D01*
X197277342Y-89595151D01*
X197282626Y-89586757D01*
X197330245Y-89491520D01*
X197330791Y-89490091D01*
X197331221Y-89489512D01*
X197334142Y-89481335D01*
X197337251Y-89473211D01*
X197337302Y-89472490D01*
X197337816Y-89471052D01*
X197385435Y-89280576D01*
X197385935Y-89277194D01*
X197386500Y-89275831D01*
X197387223Y-89268480D01*
X197388303Y-89261183D01*
X197388085Y-89259724D01*
X197388421Y-89256322D01*
X197388421Y-89123118D01*
X197569841Y-89123118D01*
X197571295Y-89127936D01*
X197571295Y-89132974D01*
X197576891Y-89146483D01*
X197581112Y-89160473D01*
X197584299Y-89164369D01*
X197586227Y-89169022D01*
X197596563Y-89179358D01*
X197605819Y-89190671D01*
X197610256Y-89193051D01*
X197613817Y-89196612D01*
X197627322Y-89202206D01*
X197640203Y-89209116D01*
X197645212Y-89209616D01*
X197649865Y-89211544D01*
X197664486Y-89211544D01*
X197679027Y-89212998D01*
X197683846Y-89211544D01*
X197688883Y-89211544D01*
X197702392Y-89205947D01*
X197716382Y-89201727D01*
X197720278Y-89198539D01*
X197724931Y-89196612D01*
X197740085Y-89184176D01*
X197776228Y-89148031D01*
X197835838Y-89118227D01*
X198026719Y-89118227D01*
X198086328Y-89148032D01*
X198110997Y-89172700D01*
X198140802Y-89232310D01*
X198140802Y-89423191D01*
X198110997Y-89482799D01*
X198086328Y-89507469D01*
X198026719Y-89537275D01*
X197835838Y-89537275D01*
X197776228Y-89507470D01*
X197740085Y-89471326D01*
X197724932Y-89458889D01*
X197688884Y-89443958D01*
X197649866Y-89443957D01*
X197613817Y-89458888D01*
X197586227Y-89486478D01*
X197571296Y-89522526D01*
X197571295Y-89561544D01*
X197586226Y-89597593D01*
X197598663Y-89612746D01*
X197646281Y-89660366D01*
X197653949Y-89666659D01*
X197655681Y-89668656D01*
X197658689Y-89670549D01*
X197661435Y-89672803D01*
X197663875Y-89673813D01*
X197672272Y-89679099D01*
X197767509Y-89726718D01*
X197785818Y-89733724D01*
X197789401Y-89733978D01*
X197792722Y-89735354D01*
X197812231Y-89737275D01*
X198050326Y-89737275D01*
X198069835Y-89735354D01*
X198073155Y-89733978D01*
X198076739Y-89733724D01*
X198095047Y-89726718D01*
X198190285Y-89679099D01*
X198198680Y-89673814D01*
X198201122Y-89672803D01*
X198203869Y-89670547D01*
X198206875Y-89668656D01*
X198208605Y-89666661D01*
X198216275Y-89660366D01*
X198263894Y-89612746D01*
X198270186Y-89605079D01*
X198272183Y-89603348D01*
X198274076Y-89600340D01*
X198276331Y-89597593D01*
X198277342Y-89595151D01*
X198282626Y-89586757D01*
X198330245Y-89491520D01*
X198337251Y-89473211D01*
X198337505Y-89469627D01*
X198338881Y-89466307D01*
X198340802Y-89446798D01*
X198340802Y-89208703D01*
X198338881Y-89189194D01*
X198337505Y-89185873D01*
X198337251Y-89182290D01*
X198330245Y-89163981D01*
X198282626Y-89068744D01*
X198277340Y-89060347D01*
X198276330Y-89057907D01*
X198274076Y-89055161D01*
X198272183Y-89052153D01*
X198270185Y-89050420D01*
X198263893Y-89042754D01*
X198216275Y-88995135D01*
X198208604Y-88988840D01*
X198206875Y-88986846D01*
X198203867Y-88984952D01*
X198201121Y-88982699D01*
X198198681Y-88981688D01*
X198190285Y-88976403D01*
X198095047Y-88928784D01*
X198076739Y-88921778D01*
X198073155Y-88921523D01*
X198069835Y-88920148D01*
X198050326Y-88918227D01*
X197812231Y-88918227D01*
X197792722Y-88920148D01*
X197789401Y-88921523D01*
X197789064Y-88921547D01*
X197807492Y-88737275D01*
X198193183Y-88737275D01*
X198212692Y-88735354D01*
X198248740Y-88720422D01*
X198276330Y-88692832D01*
X198291262Y-88656784D01*
X198291262Y-88617766D01*
X198276330Y-88581718D01*
X198248740Y-88554128D01*
X198212692Y-88539196D01*
X198193183Y-88537275D01*
X197716993Y-88537275D01*
X197709776Y-88537985D01*
X197707340Y-88537742D01*
X197704961Y-88538459D01*
X197697484Y-88539196D01*
X197683974Y-88544792D01*
X197669985Y-88549013D01*
X197666088Y-88552200D01*
X197661436Y-88554128D01*
X197651099Y-88564464D01*
X197639787Y-88573720D01*
X197637406Y-88578157D01*
X197633846Y-88581718D01*
X197628251Y-88595223D01*
X197621342Y-88608104D01*
X197619865Y-88615468D01*
X197618914Y-88617766D01*
X197618914Y-88620216D01*
X197617489Y-88627325D01*
X197569870Y-89103515D01*
X197569841Y-89123118D01*
X197388421Y-89123118D01*
X197388421Y-89018227D01*
X197388085Y-89014824D01*
X197388303Y-89013366D01*
X197387223Y-89006068D01*
X197386500Y-88998718D01*
X197385935Y-88997354D01*
X197385435Y-88993973D01*
X197337816Y-88803497D01*
X197337302Y-88802058D01*
X197337251Y-88801338D01*
X197334142Y-88793213D01*
X197331221Y-88785037D01*
X197330791Y-88784457D01*
X197330245Y-88783029D01*
X197282626Y-88687792D01*
X197277340Y-88679395D01*
X197276330Y-88676955D01*
X197274076Y-88674209D01*
X197272183Y-88671201D01*
X197270185Y-88669468D01*
X197263893Y-88661802D01*
X197216275Y-88614183D01*
X197208604Y-88607888D01*
X197206875Y-88605894D01*
X197203867Y-88604000D01*
X197201121Y-88601747D01*
X197198681Y-88600736D01*
X197190285Y-88595451D01*
X197095047Y-88547832D01*
X197076739Y-88540826D01*
X197073155Y-88540571D01*
X197069835Y-88539196D01*
X197050326Y-88537275D01*
X196955088Y-88537275D01*
X196935579Y-88539196D01*
X196932258Y-88540571D01*
X196928675Y-88540826D01*
X196910366Y-88547832D01*
X196815129Y-88595451D01*
X196806732Y-88600736D01*
X196804292Y-88601747D01*
X196801546Y-88604000D01*
X196798538Y-88605894D01*
X196796805Y-88607891D01*
X196789139Y-88614184D01*
X196741520Y-88661802D01*
X196735225Y-88669472D01*
X196733231Y-88671202D01*
X196731337Y-88674209D01*
X196729084Y-88676956D01*
X196728073Y-88679395D01*
X196722788Y-88687792D01*
X196675169Y-88783030D01*
X196674623Y-88784456D01*
X196674193Y-88785037D01*
X196671271Y-88793213D01*
X196668163Y-88801338D01*
X196668111Y-88802060D01*
X196667598Y-88803498D01*
X196619979Y-88993973D01*
X196619478Y-88997354D01*
X196618914Y-88998718D01*
X196618190Y-89006068D01*
X196617111Y-89013366D01*
X196617328Y-89014824D01*
X196616993Y-89018227D01*
X195709420Y-89018227D01*
X195710928Y-89015863D01*
X195714609Y-89002726D01*
X195719833Y-88990117D01*
X195719833Y-88984089D01*
X195721458Y-88978292D01*
X195719833Y-88964750D01*
X195719833Y-88951099D01*
X195717526Y-88945530D01*
X195716809Y-88939552D01*
X195710123Y-88927658D01*
X195704901Y-88915051D01*
X195700642Y-88910792D01*
X195697690Y-88905540D01*
X195686957Y-88897107D01*
X195677311Y-88887461D01*
X195671745Y-88885155D01*
X195667009Y-88881434D01*
X195653872Y-88877752D01*
X195641263Y-88872529D01*
X195631971Y-88871614D01*
X195629438Y-88870904D01*
X195627329Y-88871157D01*
X195621754Y-88870608D01*
X195097945Y-88870608D01*
X195078436Y-88872529D01*
X195042388Y-88887461D01*
X195014798Y-88915051D01*
X194999866Y-88951099D01*
X194999866Y-88990117D01*
X195014798Y-89026165D01*
X195042388Y-89053755D01*
X195078436Y-89068687D01*
X195097945Y-89070608D01*
X195416008Y-89070608D01*
X195019313Y-89575493D01*
X195016301Y-89580215D01*
X195014798Y-89581718D01*
X195013789Y-89584151D01*
X195008771Y-89592020D01*
X195005089Y-89605156D01*
X194999866Y-89617766D01*
X194999866Y-89623793D01*
X194998241Y-89629591D01*
X194863366Y-89629591D01*
X194856148Y-89597013D01*
X194846534Y-89579929D01*
X194616566Y-89251403D01*
X194618856Y-89250527D01*
X194714094Y-89202908D01*
X194722490Y-89197622D01*
X194724930Y-89196612D01*
X194727676Y-89194358D01*
X194730684Y-89192465D01*
X194732413Y-89190470D01*
X194740084Y-89184176D01*
X194787702Y-89136557D01*
X194793994Y-89128890D01*
X194795992Y-89127158D01*
X194797885Y-89124149D01*
X194800139Y-89121404D01*
X194801149Y-89118963D01*
X194806435Y-89110567D01*
X194854054Y-89015330D01*
X194861060Y-88997021D01*
X194861314Y-88993437D01*
X194862690Y-88990117D01*
X194864611Y-88970608D01*
X194864611Y-88827751D01*
X194862690Y-88808242D01*
X194861314Y-88804921D01*
X194861060Y-88801338D01*
X194854054Y-88783029D01*
X194806435Y-88687792D01*
X194801149Y-88679395D01*
X194800139Y-88676955D01*
X194797885Y-88674209D01*
X194795992Y-88671201D01*
X194793994Y-88669468D01*
X194787702Y-88661802D01*
X194740084Y-88614183D01*
X194732413Y-88607888D01*
X194730684Y-88605894D01*
X194727676Y-88604000D01*
X194724930Y-88601747D01*
X194722490Y-88600736D01*
X194714094Y-88595451D01*
X194618856Y-88547832D01*
X194600548Y-88540826D01*
X194596964Y-88540571D01*
X194593644Y-88539196D01*
X194574135Y-88537275D01*
X194193183Y-88537275D01*
X194173674Y-88539196D01*
X194137626Y-88554128D01*
X194110036Y-88581718D01*
X194095104Y-88617766D01*
X194093183Y-88637275D01*
X193763176Y-88637275D01*
X193740084Y-88614183D01*
X193732413Y-88607888D01*
X193730684Y-88605894D01*
X193727676Y-88604000D01*
X193724930Y-88601747D01*
X193722490Y-88600736D01*
X193714094Y-88595451D01*
X193618856Y-88547832D01*
X193600548Y-88540826D01*
X193596964Y-88540571D01*
X193593644Y-88539196D01*
X193574135Y-88537275D01*
X193193183Y-88537275D01*
X193173674Y-88539196D01*
X193137626Y-88554128D01*
X193110036Y-88581718D01*
X193095104Y-88617766D01*
X193093183Y-88637275D01*
X192982072Y-88637275D01*
X192982072Y-88378545D01*
X203309056Y-88378545D01*
X203309056Y-91458330D01*
G37*
D11*
X196082856Y-104803411D02*
X196425714Y-104803411D01*
X196254285Y-105403411D02*
X196254285Y-104803411D01*
X196625714Y-105403411D02*
X196625714Y-104803411D01*
X196625714Y-104803411D02*
X196854285Y-104803411D01*
X196854285Y-104803411D02*
X196911428Y-104831982D01*
X196911428Y-104831982D02*
X196939999Y-104860554D01*
X196939999Y-104860554D02*
X196968571Y-104917697D01*
X196968571Y-104917697D02*
X196968571Y-105003411D01*
X196968571Y-105003411D02*
X196939999Y-105060554D01*
X196939999Y-105060554D02*
X196911428Y-105089125D01*
X196911428Y-105089125D02*
X196854285Y-105117697D01*
X196854285Y-105117697D02*
X196625714Y-105117697D01*
X197511428Y-104803411D02*
X197225714Y-104803411D01*
X197225714Y-104803411D02*
X197197142Y-105089125D01*
X197197142Y-105089125D02*
X197225714Y-105060554D01*
X197225714Y-105060554D02*
X197282857Y-105031982D01*
X197282857Y-105031982D02*
X197425714Y-105031982D01*
X197425714Y-105031982D02*
X197482857Y-105060554D01*
X197482857Y-105060554D02*
X197511428Y-105089125D01*
X197511428Y-105089125D02*
X197539999Y-105146268D01*
X197539999Y-105146268D02*
X197539999Y-105289125D01*
X197539999Y-105289125D02*
X197511428Y-105346268D01*
X197511428Y-105346268D02*
X197482857Y-105374840D01*
X197482857Y-105374840D02*
X197425714Y-105403411D01*
X197425714Y-105403411D02*
X197282857Y-105403411D01*
X197282857Y-105403411D02*
X197225714Y-105374840D01*
X197225714Y-105374840D02*
X197197142Y-105346268D01*
X183458345Y-93653411D02*
X183258345Y-93367697D01*
X183115488Y-93653411D02*
X183115488Y-93053411D01*
X183115488Y-93053411D02*
X183344059Y-93053411D01*
X183344059Y-93053411D02*
X183401202Y-93081982D01*
X183401202Y-93081982D02*
X183429773Y-93110554D01*
X183429773Y-93110554D02*
X183458345Y-93167697D01*
X183458345Y-93167697D02*
X183458345Y-93253411D01*
X183458345Y-93253411D02*
X183429773Y-93310554D01*
X183429773Y-93310554D02*
X183401202Y-93339125D01*
X183401202Y-93339125D02*
X183344059Y-93367697D01*
X183344059Y-93367697D02*
X183115488Y-93367697D01*
X184029773Y-93653411D02*
X183686916Y-93653411D01*
X183858345Y-93653411D02*
X183858345Y-93053411D01*
X183858345Y-93053411D02*
X183801202Y-93139125D01*
X183801202Y-93139125D02*
X183744059Y-93196268D01*
X183744059Y-93196268D02*
X183686916Y-93224840D01*
X184401202Y-93053411D02*
X184458345Y-93053411D01*
X184458345Y-93053411D02*
X184515488Y-93081982D01*
X184515488Y-93081982D02*
X184544060Y-93110554D01*
X184544060Y-93110554D02*
X184572631Y-93167697D01*
X184572631Y-93167697D02*
X184601202Y-93281982D01*
X184601202Y-93281982D02*
X184601202Y-93424840D01*
X184601202Y-93424840D02*
X184572631Y-93539125D01*
X184572631Y-93539125D02*
X184544060Y-93596268D01*
X184544060Y-93596268D02*
X184515488Y-93624840D01*
X184515488Y-93624840D02*
X184458345Y-93653411D01*
X184458345Y-93653411D02*
X184401202Y-93653411D01*
X184401202Y-93653411D02*
X184344060Y-93624840D01*
X184344060Y-93624840D02*
X184315488Y-93596268D01*
X184315488Y-93596268D02*
X184286917Y-93539125D01*
X184286917Y-93539125D02*
X184258345Y-93424840D01*
X184258345Y-93424840D02*
X184258345Y-93281982D01*
X184258345Y-93281982D02*
X184286917Y-93167697D01*
X184286917Y-93167697D02*
X184315488Y-93110554D01*
X184315488Y-93110554D02*
X184344060Y-93081982D01*
X184344060Y-93081982D02*
X184401202Y-93053411D01*
X185212857Y-102553411D02*
X185212857Y-103039125D01*
X185212857Y-103039125D02*
X185241428Y-103096268D01*
X185241428Y-103096268D02*
X185270000Y-103124840D01*
X185270000Y-103124840D02*
X185327142Y-103153411D01*
X185327142Y-103153411D02*
X185441428Y-103153411D01*
X185441428Y-103153411D02*
X185498571Y-103124840D01*
X185498571Y-103124840D02*
X185527142Y-103096268D01*
X185527142Y-103096268D02*
X185555714Y-103039125D01*
X185555714Y-103039125D02*
X185555714Y-102553411D01*
X186155713Y-103153411D02*
X185812856Y-103153411D01*
X185984285Y-103153411D02*
X185984285Y-102553411D01*
X185984285Y-102553411D02*
X185927142Y-102639125D01*
X185927142Y-102639125D02*
X185869999Y-102696268D01*
X185869999Y-102696268D02*
X185812856Y-102724840D01*
X191970000Y-93446268D02*
X191941428Y-93474840D01*
X191941428Y-93474840D02*
X191855714Y-93503411D01*
X191855714Y-93503411D02*
X191798571Y-93503411D01*
X191798571Y-93503411D02*
X191712857Y-93474840D01*
X191712857Y-93474840D02*
X191655714Y-93417697D01*
X191655714Y-93417697D02*
X191627143Y-93360554D01*
X191627143Y-93360554D02*
X191598571Y-93246268D01*
X191598571Y-93246268D02*
X191598571Y-93160554D01*
X191598571Y-93160554D02*
X191627143Y-93046268D01*
X191627143Y-93046268D02*
X191655714Y-92989125D01*
X191655714Y-92989125D02*
X191712857Y-92931982D01*
X191712857Y-92931982D02*
X191798571Y-92903411D01*
X191798571Y-92903411D02*
X191855714Y-92903411D01*
X191855714Y-92903411D02*
X191941428Y-92931982D01*
X191941428Y-92931982D02*
X191970000Y-92960554D01*
X192484286Y-93103411D02*
X192484286Y-93503411D01*
X192341428Y-92874840D02*
X192198571Y-93303411D01*
X192198571Y-93303411D02*
X192570000Y-93303411D01*
X190312856Y-97703411D02*
X190655714Y-97703411D01*
X190484285Y-98303411D02*
X190484285Y-97703411D01*
X190855714Y-98303411D02*
X190855714Y-97703411D01*
X190855714Y-97703411D02*
X191084285Y-97703411D01*
X191084285Y-97703411D02*
X191141428Y-97731982D01*
X191141428Y-97731982D02*
X191169999Y-97760554D01*
X191169999Y-97760554D02*
X191198571Y-97817697D01*
X191198571Y-97817697D02*
X191198571Y-97903411D01*
X191198571Y-97903411D02*
X191169999Y-97960554D01*
X191169999Y-97960554D02*
X191141428Y-97989125D01*
X191141428Y-97989125D02*
X191084285Y-98017697D01*
X191084285Y-98017697D02*
X190855714Y-98017697D01*
X191484285Y-98303411D02*
X191598571Y-98303411D01*
X191598571Y-98303411D02*
X191655714Y-98274840D01*
X191655714Y-98274840D02*
X191684285Y-98246268D01*
X191684285Y-98246268D02*
X191741428Y-98160554D01*
X191741428Y-98160554D02*
X191769999Y-98046268D01*
X191769999Y-98046268D02*
X191769999Y-97817697D01*
X191769999Y-97817697D02*
X191741428Y-97760554D01*
X191741428Y-97760554D02*
X191712857Y-97731982D01*
X191712857Y-97731982D02*
X191655714Y-97703411D01*
X191655714Y-97703411D02*
X191541428Y-97703411D01*
X191541428Y-97703411D02*
X191484285Y-97731982D01*
X191484285Y-97731982D02*
X191455714Y-97760554D01*
X191455714Y-97760554D02*
X191427142Y-97817697D01*
X191427142Y-97817697D02*
X191427142Y-97960554D01*
X191427142Y-97960554D02*
X191455714Y-98017697D01*
X191455714Y-98017697D02*
X191484285Y-98046268D01*
X191484285Y-98046268D02*
X191541428Y-98074840D01*
X191541428Y-98074840D02*
X191655714Y-98074840D01*
X191655714Y-98074840D02*
X191712857Y-98046268D01*
X191712857Y-98046268D02*
X191741428Y-98017697D01*
X191741428Y-98017697D02*
X191769999Y-97960554D01*
X181458345Y-98553411D02*
X181258345Y-98267697D01*
X181115488Y-98553411D02*
X181115488Y-97953411D01*
X181115488Y-97953411D02*
X181344059Y-97953411D01*
X181344059Y-97953411D02*
X181401202Y-97981982D01*
X181401202Y-97981982D02*
X181429773Y-98010554D01*
X181429773Y-98010554D02*
X181458345Y-98067697D01*
X181458345Y-98067697D02*
X181458345Y-98153411D01*
X181458345Y-98153411D02*
X181429773Y-98210554D01*
X181429773Y-98210554D02*
X181401202Y-98239125D01*
X181401202Y-98239125D02*
X181344059Y-98267697D01*
X181344059Y-98267697D02*
X181115488Y-98267697D01*
X181658345Y-97953411D02*
X182058345Y-97953411D01*
X182058345Y-97953411D02*
X181801202Y-98553411D01*
X191162856Y-108303411D02*
X191505714Y-108303411D01*
X191334285Y-108903411D02*
X191334285Y-108303411D01*
X191705714Y-108903411D02*
X191705714Y-108303411D01*
X191705714Y-108303411D02*
X191934285Y-108303411D01*
X191934285Y-108303411D02*
X191991428Y-108331982D01*
X191991428Y-108331982D02*
X192019999Y-108360554D01*
X192019999Y-108360554D02*
X192048571Y-108417697D01*
X192048571Y-108417697D02*
X192048571Y-108503411D01*
X192048571Y-108503411D02*
X192019999Y-108560554D01*
X192019999Y-108560554D02*
X191991428Y-108589125D01*
X191991428Y-108589125D02*
X191934285Y-108617697D01*
X191934285Y-108617697D02*
X191705714Y-108617697D01*
X192562857Y-108303411D02*
X192448571Y-108303411D01*
X192448571Y-108303411D02*
X192391428Y-108331982D01*
X192391428Y-108331982D02*
X192362857Y-108360554D01*
X192362857Y-108360554D02*
X192305714Y-108446268D01*
X192305714Y-108446268D02*
X192277142Y-108560554D01*
X192277142Y-108560554D02*
X192277142Y-108789125D01*
X192277142Y-108789125D02*
X192305714Y-108846268D01*
X192305714Y-108846268D02*
X192334285Y-108874840D01*
X192334285Y-108874840D02*
X192391428Y-108903411D01*
X192391428Y-108903411D02*
X192505714Y-108903411D01*
X192505714Y-108903411D02*
X192562857Y-108874840D01*
X192562857Y-108874840D02*
X192591428Y-108846268D01*
X192591428Y-108846268D02*
X192619999Y-108789125D01*
X192619999Y-108789125D02*
X192619999Y-108646268D01*
X192619999Y-108646268D02*
X192591428Y-108589125D01*
X192591428Y-108589125D02*
X192562857Y-108560554D01*
X192562857Y-108560554D02*
X192505714Y-108531982D01*
X192505714Y-108531982D02*
X192391428Y-108531982D01*
X192391428Y-108531982D02*
X192334285Y-108560554D01*
X192334285Y-108560554D02*
X192305714Y-108589125D01*
X192305714Y-108589125D02*
X192277142Y-108646268D01*
X183662856Y-103605411D02*
X184005714Y-103605411D01*
X183834285Y-104205411D02*
X183834285Y-103605411D01*
X184205714Y-104205411D02*
X184205714Y-103605411D01*
X184205714Y-103605411D02*
X184434285Y-103605411D01*
X184434285Y-103605411D02*
X184491428Y-103633982D01*
X184491428Y-103633982D02*
X184519999Y-103662554D01*
X184519999Y-103662554D02*
X184548571Y-103719697D01*
X184548571Y-103719697D02*
X184548571Y-103805411D01*
X184548571Y-103805411D02*
X184519999Y-103862554D01*
X184519999Y-103862554D02*
X184491428Y-103891125D01*
X184491428Y-103891125D02*
X184434285Y-103919697D01*
X184434285Y-103919697D02*
X184205714Y-103919697D01*
X184748571Y-103605411D02*
X185119999Y-103605411D01*
X185119999Y-103605411D02*
X184919999Y-103833982D01*
X184919999Y-103833982D02*
X185005714Y-103833982D01*
X185005714Y-103833982D02*
X185062857Y-103862554D01*
X185062857Y-103862554D02*
X185091428Y-103891125D01*
X185091428Y-103891125D02*
X185119999Y-103948268D01*
X185119999Y-103948268D02*
X185119999Y-104091125D01*
X185119999Y-104091125D02*
X185091428Y-104148268D01*
X185091428Y-104148268D02*
X185062857Y-104176840D01*
X185062857Y-104176840D02*
X185005714Y-104205411D01*
X185005714Y-104205411D02*
X184834285Y-104205411D01*
X184834285Y-104205411D02*
X184777142Y-104176840D01*
X184777142Y-104176840D02*
X184748571Y-104148268D01*
X191727143Y-110403411D02*
X191727143Y-109803411D01*
X191727143Y-109803411D02*
X191870000Y-109803411D01*
X191870000Y-109803411D02*
X191955714Y-109831982D01*
X191955714Y-109831982D02*
X192012857Y-109889125D01*
X192012857Y-109889125D02*
X192041428Y-109946268D01*
X192041428Y-109946268D02*
X192070000Y-110060554D01*
X192070000Y-110060554D02*
X192070000Y-110146268D01*
X192070000Y-110146268D02*
X192041428Y-110260554D01*
X192041428Y-110260554D02*
X192012857Y-110317697D01*
X192012857Y-110317697D02*
X191955714Y-110374840D01*
X191955714Y-110374840D02*
X191870000Y-110403411D01*
X191870000Y-110403411D02*
X191727143Y-110403411D01*
X192270000Y-109803411D02*
X192641428Y-109803411D01*
X192641428Y-109803411D02*
X192441428Y-110031982D01*
X192441428Y-110031982D02*
X192527143Y-110031982D01*
X192527143Y-110031982D02*
X192584286Y-110060554D01*
X192584286Y-110060554D02*
X192612857Y-110089125D01*
X192612857Y-110089125D02*
X192641428Y-110146268D01*
X192641428Y-110146268D02*
X192641428Y-110289125D01*
X192641428Y-110289125D02*
X192612857Y-110346268D01*
X192612857Y-110346268D02*
X192584286Y-110374840D01*
X192584286Y-110374840D02*
X192527143Y-110403411D01*
X192527143Y-110403411D02*
X192355714Y-110403411D01*
X192355714Y-110403411D02*
X192298571Y-110374840D01*
X192298571Y-110374840D02*
X192270000Y-110346268D01*
X198919999Y-101553411D02*
X198919999Y-101981982D01*
X198919999Y-101981982D02*
X198891428Y-102067697D01*
X198891428Y-102067697D02*
X198834285Y-102124840D01*
X198834285Y-102124840D02*
X198748571Y-102153411D01*
X198748571Y-102153411D02*
X198691428Y-102153411D01*
X199205714Y-102153411D02*
X199205714Y-101553411D01*
X199205714Y-101553411D02*
X199434285Y-101553411D01*
X199434285Y-101553411D02*
X199491428Y-101581982D01*
X199491428Y-101581982D02*
X199519999Y-101610554D01*
X199519999Y-101610554D02*
X199548571Y-101667697D01*
X199548571Y-101667697D02*
X199548571Y-101753411D01*
X199548571Y-101753411D02*
X199519999Y-101810554D01*
X199519999Y-101810554D02*
X199491428Y-101839125D01*
X199491428Y-101839125D02*
X199434285Y-101867697D01*
X199434285Y-101867697D02*
X199205714Y-101867697D01*
X200119999Y-102153411D02*
X199777142Y-102153411D01*
X199948571Y-102153411D02*
X199948571Y-101553411D01*
X199948571Y-101553411D02*
X199891428Y-101639125D01*
X199891428Y-101639125D02*
X199834285Y-101696268D01*
X199834285Y-101696268D02*
X199777142Y-101724840D01*
X184412856Y-112303411D02*
X184755714Y-112303411D01*
X184584285Y-112903411D02*
X184584285Y-112303411D01*
X184955714Y-112903411D02*
X184955714Y-112303411D01*
X184955714Y-112303411D02*
X185184285Y-112303411D01*
X185184285Y-112303411D02*
X185241428Y-112331982D01*
X185241428Y-112331982D02*
X185269999Y-112360554D01*
X185269999Y-112360554D02*
X185298571Y-112417697D01*
X185298571Y-112417697D02*
X185298571Y-112503411D01*
X185298571Y-112503411D02*
X185269999Y-112560554D01*
X185269999Y-112560554D02*
X185241428Y-112589125D01*
X185241428Y-112589125D02*
X185184285Y-112617697D01*
X185184285Y-112617697D02*
X184955714Y-112617697D01*
X185527142Y-112360554D02*
X185555714Y-112331982D01*
X185555714Y-112331982D02*
X185612857Y-112303411D01*
X185612857Y-112303411D02*
X185755714Y-112303411D01*
X185755714Y-112303411D02*
X185812857Y-112331982D01*
X185812857Y-112331982D02*
X185841428Y-112360554D01*
X185841428Y-112360554D02*
X185869999Y-112417697D01*
X185869999Y-112417697D02*
X185869999Y-112474840D01*
X185869999Y-112474840D02*
X185841428Y-112560554D01*
X185841428Y-112560554D02*
X185498571Y-112903411D01*
X185498571Y-112903411D02*
X185869999Y-112903411D01*
X196719999Y-86053411D02*
X196719999Y-86481982D01*
X196719999Y-86481982D02*
X196691428Y-86567697D01*
X196691428Y-86567697D02*
X196634285Y-86624840D01*
X196634285Y-86624840D02*
X196548571Y-86653411D01*
X196548571Y-86653411D02*
X196491428Y-86653411D01*
X197291428Y-86053411D02*
X197005714Y-86053411D01*
X197005714Y-86053411D02*
X196977142Y-86339125D01*
X196977142Y-86339125D02*
X197005714Y-86310554D01*
X197005714Y-86310554D02*
X197062857Y-86281982D01*
X197062857Y-86281982D02*
X197205714Y-86281982D01*
X197205714Y-86281982D02*
X197262857Y-86310554D01*
X197262857Y-86310554D02*
X197291428Y-86339125D01*
X197291428Y-86339125D02*
X197319999Y-86396268D01*
X197319999Y-86396268D02*
X197319999Y-86539125D01*
X197319999Y-86539125D02*
X197291428Y-86596268D01*
X197291428Y-86596268D02*
X197262857Y-86624840D01*
X197262857Y-86624840D02*
X197205714Y-86653411D01*
X197205714Y-86653411D02*
X197062857Y-86653411D01*
X197062857Y-86653411D02*
X197005714Y-86624840D01*
X197005714Y-86624840D02*
X196977142Y-86596268D01*
X183458345Y-89903411D02*
X183258345Y-89617697D01*
X183115488Y-89903411D02*
X183115488Y-89303411D01*
X183115488Y-89303411D02*
X183344059Y-89303411D01*
X183344059Y-89303411D02*
X183401202Y-89331982D01*
X183401202Y-89331982D02*
X183429773Y-89360554D01*
X183429773Y-89360554D02*
X183458345Y-89417697D01*
X183458345Y-89417697D02*
X183458345Y-89503411D01*
X183458345Y-89503411D02*
X183429773Y-89560554D01*
X183429773Y-89560554D02*
X183401202Y-89589125D01*
X183401202Y-89589125D02*
X183344059Y-89617697D01*
X183344059Y-89617697D02*
X183115488Y-89617697D01*
X184029773Y-89903411D02*
X183686916Y-89903411D01*
X183858345Y-89903411D02*
X183858345Y-89303411D01*
X183858345Y-89303411D02*
X183801202Y-89389125D01*
X183801202Y-89389125D02*
X183744059Y-89446268D01*
X183744059Y-89446268D02*
X183686916Y-89474840D01*
X184601202Y-89903411D02*
X184258345Y-89903411D01*
X184429774Y-89903411D02*
X184429774Y-89303411D01*
X184429774Y-89303411D02*
X184372631Y-89389125D01*
X184372631Y-89389125D02*
X184315488Y-89446268D01*
X184315488Y-89446268D02*
X184258345Y-89474840D01*
X185070000Y-98653411D02*
X184870000Y-98367697D01*
X184727143Y-98653411D02*
X184727143Y-98053411D01*
X184727143Y-98053411D02*
X184955714Y-98053411D01*
X184955714Y-98053411D02*
X185012857Y-98081982D01*
X185012857Y-98081982D02*
X185041428Y-98110554D01*
X185041428Y-98110554D02*
X185070000Y-98167697D01*
X185070000Y-98167697D02*
X185070000Y-98253411D01*
X185070000Y-98253411D02*
X185041428Y-98310554D01*
X185041428Y-98310554D02*
X185012857Y-98339125D01*
X185012857Y-98339125D02*
X184955714Y-98367697D01*
X184955714Y-98367697D02*
X184727143Y-98367697D01*
X185355714Y-98653411D02*
X185470000Y-98653411D01*
X185470000Y-98653411D02*
X185527143Y-98624840D01*
X185527143Y-98624840D02*
X185555714Y-98596268D01*
X185555714Y-98596268D02*
X185612857Y-98510554D01*
X185612857Y-98510554D02*
X185641428Y-98396268D01*
X185641428Y-98396268D02*
X185641428Y-98167697D01*
X185641428Y-98167697D02*
X185612857Y-98110554D01*
X185612857Y-98110554D02*
X185584286Y-98081982D01*
X185584286Y-98081982D02*
X185527143Y-98053411D01*
X185527143Y-98053411D02*
X185412857Y-98053411D01*
X185412857Y-98053411D02*
X185355714Y-98081982D01*
X185355714Y-98081982D02*
X185327143Y-98110554D01*
X185327143Y-98110554D02*
X185298571Y-98167697D01*
X185298571Y-98167697D02*
X185298571Y-98310554D01*
X185298571Y-98310554D02*
X185327143Y-98367697D01*
X185327143Y-98367697D02*
X185355714Y-98396268D01*
X185355714Y-98396268D02*
X185412857Y-98424840D01*
X185412857Y-98424840D02*
X185527143Y-98424840D01*
X185527143Y-98424840D02*
X185584286Y-98396268D01*
X185584286Y-98396268D02*
X185612857Y-98367697D01*
X185612857Y-98367697D02*
X185641428Y-98310554D01*
X184570000Y-111846268D02*
X184541428Y-111874840D01*
X184541428Y-111874840D02*
X184455714Y-111903411D01*
X184455714Y-111903411D02*
X184398571Y-111903411D01*
X184398571Y-111903411D02*
X184312857Y-111874840D01*
X184312857Y-111874840D02*
X184255714Y-111817697D01*
X184255714Y-111817697D02*
X184227143Y-111760554D01*
X184227143Y-111760554D02*
X184198571Y-111646268D01*
X184198571Y-111646268D02*
X184198571Y-111560554D01*
X184198571Y-111560554D02*
X184227143Y-111446268D01*
X184227143Y-111446268D02*
X184255714Y-111389125D01*
X184255714Y-111389125D02*
X184312857Y-111331982D01*
X184312857Y-111331982D02*
X184398571Y-111303411D01*
X184398571Y-111303411D02*
X184455714Y-111303411D01*
X184455714Y-111303411D02*
X184541428Y-111331982D01*
X184541428Y-111331982D02*
X184570000Y-111360554D01*
X184855714Y-111903411D02*
X184970000Y-111903411D01*
X184970000Y-111903411D02*
X185027143Y-111874840D01*
X185027143Y-111874840D02*
X185055714Y-111846268D01*
X185055714Y-111846268D02*
X185112857Y-111760554D01*
X185112857Y-111760554D02*
X185141428Y-111646268D01*
X185141428Y-111646268D02*
X185141428Y-111417697D01*
X185141428Y-111417697D02*
X185112857Y-111360554D01*
X185112857Y-111360554D02*
X185084286Y-111331982D01*
X185084286Y-111331982D02*
X185027143Y-111303411D01*
X185027143Y-111303411D02*
X184912857Y-111303411D01*
X184912857Y-111303411D02*
X184855714Y-111331982D01*
X184855714Y-111331982D02*
X184827143Y-111360554D01*
X184827143Y-111360554D02*
X184798571Y-111417697D01*
X184798571Y-111417697D02*
X184798571Y-111560554D01*
X184798571Y-111560554D02*
X184827143Y-111617697D01*
X184827143Y-111617697D02*
X184855714Y-111646268D01*
X184855714Y-111646268D02*
X184912857Y-111674840D01*
X184912857Y-111674840D02*
X185027143Y-111674840D01*
X185027143Y-111674840D02*
X185084286Y-111646268D01*
X185084286Y-111646268D02*
X185112857Y-111617697D01*
X185112857Y-111617697D02*
X185141428Y-111560554D01*
X179402143Y-103303411D02*
X179402143Y-102703411D01*
X179402143Y-102703411D02*
X179545000Y-102703411D01*
X179545000Y-102703411D02*
X179630714Y-102731982D01*
X179630714Y-102731982D02*
X179687857Y-102789125D01*
X179687857Y-102789125D02*
X179716428Y-102846268D01*
X179716428Y-102846268D02*
X179745000Y-102960554D01*
X179745000Y-102960554D02*
X179745000Y-103046268D01*
X179745000Y-103046268D02*
X179716428Y-103160554D01*
X179716428Y-103160554D02*
X179687857Y-103217697D01*
X179687857Y-103217697D02*
X179630714Y-103274840D01*
X179630714Y-103274840D02*
X179545000Y-103303411D01*
X179545000Y-103303411D02*
X179402143Y-103303411D01*
X180316428Y-103303411D02*
X179973571Y-103303411D01*
X180145000Y-103303411D02*
X180145000Y-102703411D01*
X180145000Y-102703411D02*
X180087857Y-102789125D01*
X180087857Y-102789125D02*
X180030714Y-102846268D01*
X180030714Y-102846268D02*
X179973571Y-102874840D01*
X183029773Y-92053411D02*
X183372631Y-92053411D01*
X183201202Y-92653411D02*
X183201202Y-92053411D01*
X183572631Y-92653411D02*
X183572631Y-92053411D01*
X183572631Y-92053411D02*
X183801202Y-92053411D01*
X183801202Y-92053411D02*
X183858345Y-92081982D01*
X183858345Y-92081982D02*
X183886916Y-92110554D01*
X183886916Y-92110554D02*
X183915488Y-92167697D01*
X183915488Y-92167697D02*
X183915488Y-92253411D01*
X183915488Y-92253411D02*
X183886916Y-92310554D01*
X183886916Y-92310554D02*
X183858345Y-92339125D01*
X183858345Y-92339125D02*
X183801202Y-92367697D01*
X183801202Y-92367697D02*
X183572631Y-92367697D01*
X184486916Y-92653411D02*
X184144059Y-92653411D01*
X184315488Y-92653411D02*
X184315488Y-92053411D01*
X184315488Y-92053411D02*
X184258345Y-92139125D01*
X184258345Y-92139125D02*
X184201202Y-92196268D01*
X184201202Y-92196268D02*
X184144059Y-92224840D01*
X184858345Y-92053411D02*
X184915488Y-92053411D01*
X184915488Y-92053411D02*
X184972631Y-92081982D01*
X184972631Y-92081982D02*
X185001203Y-92110554D01*
X185001203Y-92110554D02*
X185029774Y-92167697D01*
X185029774Y-92167697D02*
X185058345Y-92281982D01*
X185058345Y-92281982D02*
X185058345Y-92424840D01*
X185058345Y-92424840D02*
X185029774Y-92539125D01*
X185029774Y-92539125D02*
X185001203Y-92596268D01*
X185001203Y-92596268D02*
X184972631Y-92624840D01*
X184972631Y-92624840D02*
X184915488Y-92653411D01*
X184915488Y-92653411D02*
X184858345Y-92653411D01*
X184858345Y-92653411D02*
X184801203Y-92624840D01*
X184801203Y-92624840D02*
X184772631Y-92596268D01*
X184772631Y-92596268D02*
X184744060Y-92539125D01*
X184744060Y-92539125D02*
X184715488Y-92424840D01*
X184715488Y-92424840D02*
X184715488Y-92281982D01*
X184715488Y-92281982D02*
X184744060Y-92167697D01*
X184744060Y-92167697D02*
X184772631Y-92110554D01*
X184772631Y-92110554D02*
X184801203Y-92081982D01*
X184801203Y-92081982D02*
X184858345Y-92053411D01*
X194320000Y-103846268D02*
X194291428Y-103874840D01*
X194291428Y-103874840D02*
X194205714Y-103903411D01*
X194205714Y-103903411D02*
X194148571Y-103903411D01*
X194148571Y-103903411D02*
X194062857Y-103874840D01*
X194062857Y-103874840D02*
X194005714Y-103817697D01*
X194005714Y-103817697D02*
X193977143Y-103760554D01*
X193977143Y-103760554D02*
X193948571Y-103646268D01*
X193948571Y-103646268D02*
X193948571Y-103560554D01*
X193948571Y-103560554D02*
X193977143Y-103446268D01*
X193977143Y-103446268D02*
X194005714Y-103389125D01*
X194005714Y-103389125D02*
X194062857Y-103331982D01*
X194062857Y-103331982D02*
X194148571Y-103303411D01*
X194148571Y-103303411D02*
X194205714Y-103303411D01*
X194205714Y-103303411D02*
X194291428Y-103331982D01*
X194291428Y-103331982D02*
X194320000Y-103360554D01*
X194891428Y-103903411D02*
X194548571Y-103903411D01*
X194720000Y-103903411D02*
X194720000Y-103303411D01*
X194720000Y-103303411D02*
X194662857Y-103389125D01*
X194662857Y-103389125D02*
X194605714Y-103446268D01*
X194605714Y-103446268D02*
X194548571Y-103474840D01*
X182529773Y-95803411D02*
X182872631Y-95803411D01*
X182701202Y-96403411D02*
X182701202Y-95803411D01*
X183072631Y-96403411D02*
X183072631Y-95803411D01*
X183072631Y-95803411D02*
X183301202Y-95803411D01*
X183301202Y-95803411D02*
X183358345Y-95831982D01*
X183358345Y-95831982D02*
X183386916Y-95860554D01*
X183386916Y-95860554D02*
X183415488Y-95917697D01*
X183415488Y-95917697D02*
X183415488Y-96003411D01*
X183415488Y-96003411D02*
X183386916Y-96060554D01*
X183386916Y-96060554D02*
X183358345Y-96089125D01*
X183358345Y-96089125D02*
X183301202Y-96117697D01*
X183301202Y-96117697D02*
X183072631Y-96117697D01*
X183929774Y-96003411D02*
X183929774Y-96403411D01*
X183786916Y-95774840D02*
X183644059Y-96203411D01*
X183644059Y-96203411D02*
X184015488Y-96203411D01*
X183170000Y-111346268D02*
X183141428Y-111374840D01*
X183141428Y-111374840D02*
X183055714Y-111403411D01*
X183055714Y-111403411D02*
X182998571Y-111403411D01*
X182998571Y-111403411D02*
X182912857Y-111374840D01*
X182912857Y-111374840D02*
X182855714Y-111317697D01*
X182855714Y-111317697D02*
X182827143Y-111260554D01*
X182827143Y-111260554D02*
X182798571Y-111146268D01*
X182798571Y-111146268D02*
X182798571Y-111060554D01*
X182798571Y-111060554D02*
X182827143Y-110946268D01*
X182827143Y-110946268D02*
X182855714Y-110889125D01*
X182855714Y-110889125D02*
X182912857Y-110831982D01*
X182912857Y-110831982D02*
X182998571Y-110803411D01*
X182998571Y-110803411D02*
X183055714Y-110803411D01*
X183055714Y-110803411D02*
X183141428Y-110831982D01*
X183141428Y-110831982D02*
X183170000Y-110860554D01*
X183512857Y-111060554D02*
X183455714Y-111031982D01*
X183455714Y-111031982D02*
X183427143Y-111003411D01*
X183427143Y-111003411D02*
X183398571Y-110946268D01*
X183398571Y-110946268D02*
X183398571Y-110917697D01*
X183398571Y-110917697D02*
X183427143Y-110860554D01*
X183427143Y-110860554D02*
X183455714Y-110831982D01*
X183455714Y-110831982D02*
X183512857Y-110803411D01*
X183512857Y-110803411D02*
X183627143Y-110803411D01*
X183627143Y-110803411D02*
X183684286Y-110831982D01*
X183684286Y-110831982D02*
X183712857Y-110860554D01*
X183712857Y-110860554D02*
X183741428Y-110917697D01*
X183741428Y-110917697D02*
X183741428Y-110946268D01*
X183741428Y-110946268D02*
X183712857Y-111003411D01*
X183712857Y-111003411D02*
X183684286Y-111031982D01*
X183684286Y-111031982D02*
X183627143Y-111060554D01*
X183627143Y-111060554D02*
X183512857Y-111060554D01*
X183512857Y-111060554D02*
X183455714Y-111089125D01*
X183455714Y-111089125D02*
X183427143Y-111117697D01*
X183427143Y-111117697D02*
X183398571Y-111174840D01*
X183398571Y-111174840D02*
X183398571Y-111289125D01*
X183398571Y-111289125D02*
X183427143Y-111346268D01*
X183427143Y-111346268D02*
X183455714Y-111374840D01*
X183455714Y-111374840D02*
X183512857Y-111403411D01*
X183512857Y-111403411D02*
X183627143Y-111403411D01*
X183627143Y-111403411D02*
X183684286Y-111374840D01*
X183684286Y-111374840D02*
X183712857Y-111346268D01*
X183712857Y-111346268D02*
X183741428Y-111289125D01*
X183741428Y-111289125D02*
X183741428Y-111174840D01*
X183741428Y-111174840D02*
X183712857Y-111117697D01*
X183712857Y-111117697D02*
X183684286Y-111089125D01*
X183684286Y-111089125D02*
X183627143Y-111060554D01*
X193670000Y-93396268D02*
X193641428Y-93424840D01*
X193641428Y-93424840D02*
X193555714Y-93453411D01*
X193555714Y-93453411D02*
X193498571Y-93453411D01*
X193498571Y-93453411D02*
X193412857Y-93424840D01*
X193412857Y-93424840D02*
X193355714Y-93367697D01*
X193355714Y-93367697D02*
X193327143Y-93310554D01*
X193327143Y-93310554D02*
X193298571Y-93196268D01*
X193298571Y-93196268D02*
X193298571Y-93110554D01*
X193298571Y-93110554D02*
X193327143Y-92996268D01*
X193327143Y-92996268D02*
X193355714Y-92939125D01*
X193355714Y-92939125D02*
X193412857Y-92881982D01*
X193412857Y-92881982D02*
X193498571Y-92853411D01*
X193498571Y-92853411D02*
X193555714Y-92853411D01*
X193555714Y-92853411D02*
X193641428Y-92881982D01*
X193641428Y-92881982D02*
X193670000Y-92910554D01*
X193898571Y-92910554D02*
X193927143Y-92881982D01*
X193927143Y-92881982D02*
X193984286Y-92853411D01*
X193984286Y-92853411D02*
X194127143Y-92853411D01*
X194127143Y-92853411D02*
X194184286Y-92881982D01*
X194184286Y-92881982D02*
X194212857Y-92910554D01*
X194212857Y-92910554D02*
X194241428Y-92967697D01*
X194241428Y-92967697D02*
X194241428Y-93024840D01*
X194241428Y-93024840D02*
X194212857Y-93110554D01*
X194212857Y-93110554D02*
X193870000Y-93453411D01*
X193870000Y-93453411D02*
X194241428Y-93453411D01*
X196789643Y-92923411D02*
X196789643Y-92323411D01*
X196789643Y-92323411D02*
X196932500Y-92323411D01*
X196932500Y-92323411D02*
X197018214Y-92351982D01*
X197018214Y-92351982D02*
X197075357Y-92409125D01*
X197075357Y-92409125D02*
X197103928Y-92466268D01*
X197103928Y-92466268D02*
X197132500Y-92580554D01*
X197132500Y-92580554D02*
X197132500Y-92666268D01*
X197132500Y-92666268D02*
X197103928Y-92780554D01*
X197103928Y-92780554D02*
X197075357Y-92837697D01*
X197075357Y-92837697D02*
X197018214Y-92894840D01*
X197018214Y-92894840D02*
X196932500Y-92923411D01*
X196932500Y-92923411D02*
X196789643Y-92923411D01*
X197361071Y-92380554D02*
X197389643Y-92351982D01*
X197389643Y-92351982D02*
X197446786Y-92323411D01*
X197446786Y-92323411D02*
X197589643Y-92323411D01*
X197589643Y-92323411D02*
X197646786Y-92351982D01*
X197646786Y-92351982D02*
X197675357Y-92380554D01*
X197675357Y-92380554D02*
X197703928Y-92437697D01*
X197703928Y-92437697D02*
X197703928Y-92494840D01*
X197703928Y-92494840D02*
X197675357Y-92580554D01*
X197675357Y-92580554D02*
X197332500Y-92923411D01*
X197332500Y-92923411D02*
X197703928Y-92923411D01*
X188412856Y-101303411D02*
X188755714Y-101303411D01*
X188584285Y-101903411D02*
X188584285Y-101303411D01*
X188955714Y-101903411D02*
X188955714Y-101303411D01*
X188955714Y-101303411D02*
X189184285Y-101303411D01*
X189184285Y-101303411D02*
X189241428Y-101331982D01*
X189241428Y-101331982D02*
X189269999Y-101360554D01*
X189269999Y-101360554D02*
X189298571Y-101417697D01*
X189298571Y-101417697D02*
X189298571Y-101503411D01*
X189298571Y-101503411D02*
X189269999Y-101560554D01*
X189269999Y-101560554D02*
X189241428Y-101589125D01*
X189241428Y-101589125D02*
X189184285Y-101617697D01*
X189184285Y-101617697D02*
X188955714Y-101617697D01*
X189498571Y-101303411D02*
X189898571Y-101303411D01*
X189898571Y-101303411D02*
X189641428Y-101903411D01*
X189034285Y-100596268D02*
X189005713Y-100624840D01*
X189005713Y-100624840D02*
X188919999Y-100653411D01*
X188919999Y-100653411D02*
X188862856Y-100653411D01*
X188862856Y-100653411D02*
X188777142Y-100624840D01*
X188777142Y-100624840D02*
X188719999Y-100567697D01*
X188719999Y-100567697D02*
X188691428Y-100510554D01*
X188691428Y-100510554D02*
X188662856Y-100396268D01*
X188662856Y-100396268D02*
X188662856Y-100310554D01*
X188662856Y-100310554D02*
X188691428Y-100196268D01*
X188691428Y-100196268D02*
X188719999Y-100139125D01*
X188719999Y-100139125D02*
X188777142Y-100081982D01*
X188777142Y-100081982D02*
X188862856Y-100053411D01*
X188862856Y-100053411D02*
X188919999Y-100053411D01*
X188919999Y-100053411D02*
X189005713Y-100081982D01*
X189005713Y-100081982D02*
X189034285Y-100110554D01*
X189605713Y-100653411D02*
X189262856Y-100653411D01*
X189434285Y-100653411D02*
X189434285Y-100053411D01*
X189434285Y-100053411D02*
X189377142Y-100139125D01*
X189377142Y-100139125D02*
X189319999Y-100196268D01*
X189319999Y-100196268D02*
X189262856Y-100224840D01*
X190177142Y-100653411D02*
X189834285Y-100653411D01*
X190005714Y-100653411D02*
X190005714Y-100053411D01*
X190005714Y-100053411D02*
X189948571Y-100139125D01*
X189948571Y-100139125D02*
X189891428Y-100196268D01*
X189891428Y-100196268D02*
X189834285Y-100224840D01*
X191320000Y-103846268D02*
X191291428Y-103874840D01*
X191291428Y-103874840D02*
X191205714Y-103903411D01*
X191205714Y-103903411D02*
X191148571Y-103903411D01*
X191148571Y-103903411D02*
X191062857Y-103874840D01*
X191062857Y-103874840D02*
X191005714Y-103817697D01*
X191005714Y-103817697D02*
X190977143Y-103760554D01*
X190977143Y-103760554D02*
X190948571Y-103646268D01*
X190948571Y-103646268D02*
X190948571Y-103560554D01*
X190948571Y-103560554D02*
X190977143Y-103446268D01*
X190977143Y-103446268D02*
X191005714Y-103389125D01*
X191005714Y-103389125D02*
X191062857Y-103331982D01*
X191062857Y-103331982D02*
X191148571Y-103303411D01*
X191148571Y-103303411D02*
X191205714Y-103303411D01*
X191205714Y-103303411D02*
X191291428Y-103331982D01*
X191291428Y-103331982D02*
X191320000Y-103360554D01*
X191862857Y-103303411D02*
X191577143Y-103303411D01*
X191577143Y-103303411D02*
X191548571Y-103589125D01*
X191548571Y-103589125D02*
X191577143Y-103560554D01*
X191577143Y-103560554D02*
X191634286Y-103531982D01*
X191634286Y-103531982D02*
X191777143Y-103531982D01*
X191777143Y-103531982D02*
X191834286Y-103560554D01*
X191834286Y-103560554D02*
X191862857Y-103589125D01*
X191862857Y-103589125D02*
X191891428Y-103646268D01*
X191891428Y-103646268D02*
X191891428Y-103789125D01*
X191891428Y-103789125D02*
X191862857Y-103846268D01*
X191862857Y-103846268D02*
X191834286Y-103874840D01*
X191834286Y-103874840D02*
X191777143Y-103903411D01*
X191777143Y-103903411D02*
X191634286Y-103903411D01*
X191634286Y-103903411D02*
X191577143Y-103874840D01*
X191577143Y-103874840D02*
X191548571Y-103846268D01*
X181458345Y-100553411D02*
X181258345Y-100267697D01*
X181115488Y-100553411D02*
X181115488Y-99953411D01*
X181115488Y-99953411D02*
X181344059Y-99953411D01*
X181344059Y-99953411D02*
X181401202Y-99981982D01*
X181401202Y-99981982D02*
X181429773Y-100010554D01*
X181429773Y-100010554D02*
X181458345Y-100067697D01*
X181458345Y-100067697D02*
X181458345Y-100153411D01*
X181458345Y-100153411D02*
X181429773Y-100210554D01*
X181429773Y-100210554D02*
X181401202Y-100239125D01*
X181401202Y-100239125D02*
X181344059Y-100267697D01*
X181344059Y-100267697D02*
X181115488Y-100267697D01*
X181972631Y-99953411D02*
X181858345Y-99953411D01*
X181858345Y-99953411D02*
X181801202Y-99981982D01*
X181801202Y-99981982D02*
X181772631Y-100010554D01*
X181772631Y-100010554D02*
X181715488Y-100096268D01*
X181715488Y-100096268D02*
X181686916Y-100210554D01*
X181686916Y-100210554D02*
X181686916Y-100439125D01*
X181686916Y-100439125D02*
X181715488Y-100496268D01*
X181715488Y-100496268D02*
X181744059Y-100524840D01*
X181744059Y-100524840D02*
X181801202Y-100553411D01*
X181801202Y-100553411D02*
X181915488Y-100553411D01*
X181915488Y-100553411D02*
X181972631Y-100524840D01*
X181972631Y-100524840D02*
X182001202Y-100496268D01*
X182001202Y-100496268D02*
X182029773Y-100439125D01*
X182029773Y-100439125D02*
X182029773Y-100296268D01*
X182029773Y-100296268D02*
X182001202Y-100239125D01*
X182001202Y-100239125D02*
X181972631Y-100210554D01*
X181972631Y-100210554D02*
X181915488Y-100181982D01*
X181915488Y-100181982D02*
X181801202Y-100181982D01*
X181801202Y-100181982D02*
X181744059Y-100210554D01*
X181744059Y-100210554D02*
X181715488Y-100239125D01*
X181715488Y-100239125D02*
X181686916Y-100296268D01*
X189284285Y-102596268D02*
X189255713Y-102624840D01*
X189255713Y-102624840D02*
X189169999Y-102653411D01*
X189169999Y-102653411D02*
X189112856Y-102653411D01*
X189112856Y-102653411D02*
X189027142Y-102624840D01*
X189027142Y-102624840D02*
X188969999Y-102567697D01*
X188969999Y-102567697D02*
X188941428Y-102510554D01*
X188941428Y-102510554D02*
X188912856Y-102396268D01*
X188912856Y-102396268D02*
X188912856Y-102310554D01*
X188912856Y-102310554D02*
X188941428Y-102196268D01*
X188941428Y-102196268D02*
X188969999Y-102139125D01*
X188969999Y-102139125D02*
X189027142Y-102081982D01*
X189027142Y-102081982D02*
X189112856Y-102053411D01*
X189112856Y-102053411D02*
X189169999Y-102053411D01*
X189169999Y-102053411D02*
X189255713Y-102081982D01*
X189255713Y-102081982D02*
X189284285Y-102110554D01*
X189855713Y-102653411D02*
X189512856Y-102653411D01*
X189684285Y-102653411D02*
X189684285Y-102053411D01*
X189684285Y-102053411D02*
X189627142Y-102139125D01*
X189627142Y-102139125D02*
X189569999Y-102196268D01*
X189569999Y-102196268D02*
X189512856Y-102224840D01*
X190227142Y-102053411D02*
X190284285Y-102053411D01*
X190284285Y-102053411D02*
X190341428Y-102081982D01*
X190341428Y-102081982D02*
X190370000Y-102110554D01*
X190370000Y-102110554D02*
X190398571Y-102167697D01*
X190398571Y-102167697D02*
X190427142Y-102281982D01*
X190427142Y-102281982D02*
X190427142Y-102424840D01*
X190427142Y-102424840D02*
X190398571Y-102539125D01*
X190398571Y-102539125D02*
X190370000Y-102596268D01*
X190370000Y-102596268D02*
X190341428Y-102624840D01*
X190341428Y-102624840D02*
X190284285Y-102653411D01*
X190284285Y-102653411D02*
X190227142Y-102653411D01*
X190227142Y-102653411D02*
X190170000Y-102624840D01*
X190170000Y-102624840D02*
X190141428Y-102596268D01*
X190141428Y-102596268D02*
X190112857Y-102539125D01*
X190112857Y-102539125D02*
X190084285Y-102424840D01*
X190084285Y-102424840D02*
X190084285Y-102281982D01*
X190084285Y-102281982D02*
X190112857Y-102167697D01*
X190112857Y-102167697D02*
X190141428Y-102110554D01*
X190141428Y-102110554D02*
X190170000Y-102081982D01*
X190170000Y-102081982D02*
X190227142Y-102053411D01*
X181458345Y-102553411D02*
X181258345Y-102267697D01*
X181115488Y-102553411D02*
X181115488Y-101953411D01*
X181115488Y-101953411D02*
X181344059Y-101953411D01*
X181344059Y-101953411D02*
X181401202Y-101981982D01*
X181401202Y-101981982D02*
X181429773Y-102010554D01*
X181429773Y-102010554D02*
X181458345Y-102067697D01*
X181458345Y-102067697D02*
X181458345Y-102153411D01*
X181458345Y-102153411D02*
X181429773Y-102210554D01*
X181429773Y-102210554D02*
X181401202Y-102239125D01*
X181401202Y-102239125D02*
X181344059Y-102267697D01*
X181344059Y-102267697D02*
X181115488Y-102267697D01*
X182001202Y-101953411D02*
X181715488Y-101953411D01*
X181715488Y-101953411D02*
X181686916Y-102239125D01*
X181686916Y-102239125D02*
X181715488Y-102210554D01*
X181715488Y-102210554D02*
X181772631Y-102181982D01*
X181772631Y-102181982D02*
X181915488Y-102181982D01*
X181915488Y-102181982D02*
X181972631Y-102210554D01*
X181972631Y-102210554D02*
X182001202Y-102239125D01*
X182001202Y-102239125D02*
X182029773Y-102296268D01*
X182029773Y-102296268D02*
X182029773Y-102439125D01*
X182029773Y-102439125D02*
X182001202Y-102496268D01*
X182001202Y-102496268D02*
X181972631Y-102524840D01*
X181972631Y-102524840D02*
X181915488Y-102553411D01*
X181915488Y-102553411D02*
X181772631Y-102553411D01*
X181772631Y-102553411D02*
X181715488Y-102524840D01*
X181715488Y-102524840D02*
X181686916Y-102496268D01*
X190570000Y-93346268D02*
X190541428Y-93374840D01*
X190541428Y-93374840D02*
X190455714Y-93403411D01*
X190455714Y-93403411D02*
X190398571Y-93403411D01*
X190398571Y-93403411D02*
X190312857Y-93374840D01*
X190312857Y-93374840D02*
X190255714Y-93317697D01*
X190255714Y-93317697D02*
X190227143Y-93260554D01*
X190227143Y-93260554D02*
X190198571Y-93146268D01*
X190198571Y-93146268D02*
X190198571Y-93060554D01*
X190198571Y-93060554D02*
X190227143Y-92946268D01*
X190227143Y-92946268D02*
X190255714Y-92889125D01*
X190255714Y-92889125D02*
X190312857Y-92831982D01*
X190312857Y-92831982D02*
X190398571Y-92803411D01*
X190398571Y-92803411D02*
X190455714Y-92803411D01*
X190455714Y-92803411D02*
X190541428Y-92831982D01*
X190541428Y-92831982D02*
X190570000Y-92860554D01*
X191084286Y-92803411D02*
X190970000Y-92803411D01*
X190970000Y-92803411D02*
X190912857Y-92831982D01*
X190912857Y-92831982D02*
X190884286Y-92860554D01*
X190884286Y-92860554D02*
X190827143Y-92946268D01*
X190827143Y-92946268D02*
X190798571Y-93060554D01*
X190798571Y-93060554D02*
X190798571Y-93289125D01*
X190798571Y-93289125D02*
X190827143Y-93346268D01*
X190827143Y-93346268D02*
X190855714Y-93374840D01*
X190855714Y-93374840D02*
X190912857Y-93403411D01*
X190912857Y-93403411D02*
X191027143Y-93403411D01*
X191027143Y-93403411D02*
X191084286Y-93374840D01*
X191084286Y-93374840D02*
X191112857Y-93346268D01*
X191112857Y-93346268D02*
X191141428Y-93289125D01*
X191141428Y-93289125D02*
X191141428Y-93146268D01*
X191141428Y-93146268D02*
X191112857Y-93089125D01*
X191112857Y-93089125D02*
X191084286Y-93060554D01*
X191084286Y-93060554D02*
X191027143Y-93031982D01*
X191027143Y-93031982D02*
X190912857Y-93031982D01*
X190912857Y-93031982D02*
X190855714Y-93060554D01*
X190855714Y-93060554D02*
X190827143Y-93089125D01*
X190827143Y-93089125D02*
X190798571Y-93146268D01*
X189320000Y-103403411D02*
X189120000Y-103117697D01*
X188977143Y-103403411D02*
X188977143Y-102803411D01*
X188977143Y-102803411D02*
X189205714Y-102803411D01*
X189205714Y-102803411D02*
X189262857Y-102831982D01*
X189262857Y-102831982D02*
X189291428Y-102860554D01*
X189291428Y-102860554D02*
X189320000Y-102917697D01*
X189320000Y-102917697D02*
X189320000Y-103003411D01*
X189320000Y-103003411D02*
X189291428Y-103060554D01*
X189291428Y-103060554D02*
X189262857Y-103089125D01*
X189262857Y-103089125D02*
X189205714Y-103117697D01*
X189205714Y-103117697D02*
X188977143Y-103117697D01*
X189662857Y-103060554D02*
X189605714Y-103031982D01*
X189605714Y-103031982D02*
X189577143Y-103003411D01*
X189577143Y-103003411D02*
X189548571Y-102946268D01*
X189548571Y-102946268D02*
X189548571Y-102917697D01*
X189548571Y-102917697D02*
X189577143Y-102860554D01*
X189577143Y-102860554D02*
X189605714Y-102831982D01*
X189605714Y-102831982D02*
X189662857Y-102803411D01*
X189662857Y-102803411D02*
X189777143Y-102803411D01*
X189777143Y-102803411D02*
X189834286Y-102831982D01*
X189834286Y-102831982D02*
X189862857Y-102860554D01*
X189862857Y-102860554D02*
X189891428Y-102917697D01*
X189891428Y-102917697D02*
X189891428Y-102946268D01*
X189891428Y-102946268D02*
X189862857Y-103003411D01*
X189862857Y-103003411D02*
X189834286Y-103031982D01*
X189834286Y-103031982D02*
X189777143Y-103060554D01*
X189777143Y-103060554D02*
X189662857Y-103060554D01*
X189662857Y-103060554D02*
X189605714Y-103089125D01*
X189605714Y-103089125D02*
X189577143Y-103117697D01*
X189577143Y-103117697D02*
X189548571Y-103174840D01*
X189548571Y-103174840D02*
X189548571Y-103289125D01*
X189548571Y-103289125D02*
X189577143Y-103346268D01*
X189577143Y-103346268D02*
X189605714Y-103374840D01*
X189605714Y-103374840D02*
X189662857Y-103403411D01*
X189662857Y-103403411D02*
X189777143Y-103403411D01*
X189777143Y-103403411D02*
X189834286Y-103374840D01*
X189834286Y-103374840D02*
X189862857Y-103346268D01*
X189862857Y-103346268D02*
X189891428Y-103289125D01*
X189891428Y-103289125D02*
X189891428Y-103174840D01*
X189891428Y-103174840D02*
X189862857Y-103117697D01*
X189862857Y-103117697D02*
X189834286Y-103089125D01*
X189834286Y-103089125D02*
X189777143Y-103060554D01*
X176645000Y-103403411D02*
X176445000Y-103117697D01*
X176302143Y-103403411D02*
X176302143Y-102803411D01*
X176302143Y-102803411D02*
X176530714Y-102803411D01*
X176530714Y-102803411D02*
X176587857Y-102831982D01*
X176587857Y-102831982D02*
X176616428Y-102860554D01*
X176616428Y-102860554D02*
X176645000Y-102917697D01*
X176645000Y-102917697D02*
X176645000Y-103003411D01*
X176645000Y-103003411D02*
X176616428Y-103060554D01*
X176616428Y-103060554D02*
X176587857Y-103089125D01*
X176587857Y-103089125D02*
X176530714Y-103117697D01*
X176530714Y-103117697D02*
X176302143Y-103117697D01*
X177216428Y-103403411D02*
X176873571Y-103403411D01*
X177045000Y-103403411D02*
X177045000Y-102803411D01*
X177045000Y-102803411D02*
X176987857Y-102889125D01*
X176987857Y-102889125D02*
X176930714Y-102946268D01*
X176930714Y-102946268D02*
X176873571Y-102974840D01*
X188462856Y-98803411D02*
X188805714Y-98803411D01*
X188634285Y-99403411D02*
X188634285Y-98803411D01*
X189005714Y-99403411D02*
X189005714Y-98803411D01*
X189005714Y-98803411D02*
X189234285Y-98803411D01*
X189234285Y-98803411D02*
X189291428Y-98831982D01*
X189291428Y-98831982D02*
X189319999Y-98860554D01*
X189319999Y-98860554D02*
X189348571Y-98917697D01*
X189348571Y-98917697D02*
X189348571Y-99003411D01*
X189348571Y-99003411D02*
X189319999Y-99060554D01*
X189319999Y-99060554D02*
X189291428Y-99089125D01*
X189291428Y-99089125D02*
X189234285Y-99117697D01*
X189234285Y-99117697D02*
X189005714Y-99117697D01*
X189691428Y-99060554D02*
X189634285Y-99031982D01*
X189634285Y-99031982D02*
X189605714Y-99003411D01*
X189605714Y-99003411D02*
X189577142Y-98946268D01*
X189577142Y-98946268D02*
X189577142Y-98917697D01*
X189577142Y-98917697D02*
X189605714Y-98860554D01*
X189605714Y-98860554D02*
X189634285Y-98831982D01*
X189634285Y-98831982D02*
X189691428Y-98803411D01*
X189691428Y-98803411D02*
X189805714Y-98803411D01*
X189805714Y-98803411D02*
X189862857Y-98831982D01*
X189862857Y-98831982D02*
X189891428Y-98860554D01*
X189891428Y-98860554D02*
X189919999Y-98917697D01*
X189919999Y-98917697D02*
X189919999Y-98946268D01*
X189919999Y-98946268D02*
X189891428Y-99003411D01*
X189891428Y-99003411D02*
X189862857Y-99031982D01*
X189862857Y-99031982D02*
X189805714Y-99060554D01*
X189805714Y-99060554D02*
X189691428Y-99060554D01*
X189691428Y-99060554D02*
X189634285Y-99089125D01*
X189634285Y-99089125D02*
X189605714Y-99117697D01*
X189605714Y-99117697D02*
X189577142Y-99174840D01*
X189577142Y-99174840D02*
X189577142Y-99289125D01*
X189577142Y-99289125D02*
X189605714Y-99346268D01*
X189605714Y-99346268D02*
X189634285Y-99374840D01*
X189634285Y-99374840D02*
X189691428Y-99403411D01*
X189691428Y-99403411D02*
X189805714Y-99403411D01*
X189805714Y-99403411D02*
X189862857Y-99374840D01*
X189862857Y-99374840D02*
X189891428Y-99346268D01*
X189891428Y-99346268D02*
X189919999Y-99289125D01*
X189919999Y-99289125D02*
X189919999Y-99174840D01*
X189919999Y-99174840D02*
X189891428Y-99117697D01*
X189891428Y-99117697D02*
X189862857Y-99089125D01*
X189862857Y-99089125D02*
X189805714Y-99060554D01*
X183458345Y-91096268D02*
X183429773Y-91124840D01*
X183429773Y-91124840D02*
X183344059Y-91153411D01*
X183344059Y-91153411D02*
X183286916Y-91153411D01*
X183286916Y-91153411D02*
X183201202Y-91124840D01*
X183201202Y-91124840D02*
X183144059Y-91067697D01*
X183144059Y-91067697D02*
X183115488Y-91010554D01*
X183115488Y-91010554D02*
X183086916Y-90896268D01*
X183086916Y-90896268D02*
X183086916Y-90810554D01*
X183086916Y-90810554D02*
X183115488Y-90696268D01*
X183115488Y-90696268D02*
X183144059Y-90639125D01*
X183144059Y-90639125D02*
X183201202Y-90581982D01*
X183201202Y-90581982D02*
X183286916Y-90553411D01*
X183286916Y-90553411D02*
X183344059Y-90553411D01*
X183344059Y-90553411D02*
X183429773Y-90581982D01*
X183429773Y-90581982D02*
X183458345Y-90610554D01*
X184029773Y-91153411D02*
X183686916Y-91153411D01*
X183858345Y-91153411D02*
X183858345Y-90553411D01*
X183858345Y-90553411D02*
X183801202Y-90639125D01*
X183801202Y-90639125D02*
X183744059Y-90696268D01*
X183744059Y-90696268D02*
X183686916Y-90724840D01*
X184258345Y-90610554D02*
X184286917Y-90581982D01*
X184286917Y-90581982D02*
X184344060Y-90553411D01*
X184344060Y-90553411D02*
X184486917Y-90553411D01*
X184486917Y-90553411D02*
X184544060Y-90581982D01*
X184544060Y-90581982D02*
X184572631Y-90610554D01*
X184572631Y-90610554D02*
X184601202Y-90667697D01*
X184601202Y-90667697D02*
X184601202Y-90724840D01*
X184601202Y-90724840D02*
X184572631Y-90810554D01*
X184572631Y-90810554D02*
X184229774Y-91153411D01*
X184229774Y-91153411D02*
X184601202Y-91153411D01*
X192570000Y-103846268D02*
X192541428Y-103874840D01*
X192541428Y-103874840D02*
X192455714Y-103903411D01*
X192455714Y-103903411D02*
X192398571Y-103903411D01*
X192398571Y-103903411D02*
X192312857Y-103874840D01*
X192312857Y-103874840D02*
X192255714Y-103817697D01*
X192255714Y-103817697D02*
X192227143Y-103760554D01*
X192227143Y-103760554D02*
X192198571Y-103646268D01*
X192198571Y-103646268D02*
X192198571Y-103560554D01*
X192198571Y-103560554D02*
X192227143Y-103446268D01*
X192227143Y-103446268D02*
X192255714Y-103389125D01*
X192255714Y-103389125D02*
X192312857Y-103331982D01*
X192312857Y-103331982D02*
X192398571Y-103303411D01*
X192398571Y-103303411D02*
X192455714Y-103303411D01*
X192455714Y-103303411D02*
X192541428Y-103331982D01*
X192541428Y-103331982D02*
X192570000Y-103360554D01*
X192770000Y-103303411D02*
X193141428Y-103303411D01*
X193141428Y-103303411D02*
X192941428Y-103531982D01*
X192941428Y-103531982D02*
X193027143Y-103531982D01*
X193027143Y-103531982D02*
X193084286Y-103560554D01*
X193084286Y-103560554D02*
X193112857Y-103589125D01*
X193112857Y-103589125D02*
X193141428Y-103646268D01*
X193141428Y-103646268D02*
X193141428Y-103789125D01*
X193141428Y-103789125D02*
X193112857Y-103846268D01*
X193112857Y-103846268D02*
X193084286Y-103874840D01*
X193084286Y-103874840D02*
X193027143Y-103903411D01*
X193027143Y-103903411D02*
X192855714Y-103903411D01*
X192855714Y-103903411D02*
X192798571Y-103874840D01*
X192798571Y-103874840D02*
X192770000Y-103846268D01*
X179320000Y-112153411D02*
X179120000Y-111867697D01*
X178977143Y-112153411D02*
X178977143Y-111553411D01*
X178977143Y-111553411D02*
X179205714Y-111553411D01*
X179205714Y-111553411D02*
X179262857Y-111581982D01*
X179262857Y-111581982D02*
X179291428Y-111610554D01*
X179291428Y-111610554D02*
X179320000Y-111667697D01*
X179320000Y-111667697D02*
X179320000Y-111753411D01*
X179320000Y-111753411D02*
X179291428Y-111810554D01*
X179291428Y-111810554D02*
X179262857Y-111839125D01*
X179262857Y-111839125D02*
X179205714Y-111867697D01*
X179205714Y-111867697D02*
X178977143Y-111867697D01*
X179520000Y-111553411D02*
X179891428Y-111553411D01*
X179891428Y-111553411D02*
X179691428Y-111781982D01*
X179691428Y-111781982D02*
X179777143Y-111781982D01*
X179777143Y-111781982D02*
X179834286Y-111810554D01*
X179834286Y-111810554D02*
X179862857Y-111839125D01*
X179862857Y-111839125D02*
X179891428Y-111896268D01*
X179891428Y-111896268D02*
X179891428Y-112039125D01*
X179891428Y-112039125D02*
X179862857Y-112096268D01*
X179862857Y-112096268D02*
X179834286Y-112124840D01*
X179834286Y-112124840D02*
X179777143Y-112153411D01*
X179777143Y-112153411D02*
X179605714Y-112153411D01*
X179605714Y-112153411D02*
X179548571Y-112124840D01*
X179548571Y-112124840D02*
X179520000Y-112096268D01*
X177837856Y-107803411D02*
X178180714Y-107803411D01*
X178009285Y-108403411D02*
X178009285Y-107803411D01*
X178380714Y-108403411D02*
X178380714Y-107803411D01*
X178380714Y-107803411D02*
X178609285Y-107803411D01*
X178609285Y-107803411D02*
X178666428Y-107831982D01*
X178666428Y-107831982D02*
X178694999Y-107860554D01*
X178694999Y-107860554D02*
X178723571Y-107917697D01*
X178723571Y-107917697D02*
X178723571Y-108003411D01*
X178723571Y-108003411D02*
X178694999Y-108060554D01*
X178694999Y-108060554D02*
X178666428Y-108089125D01*
X178666428Y-108089125D02*
X178609285Y-108117697D01*
X178609285Y-108117697D02*
X178380714Y-108117697D01*
X179294999Y-108403411D02*
X178952142Y-108403411D01*
X179123571Y-108403411D02*
X179123571Y-107803411D01*
X179123571Y-107803411D02*
X179066428Y-107889125D01*
X179066428Y-107889125D02*
X179009285Y-107946268D01*
X179009285Y-107946268D02*
X178952142Y-107974840D01*
X183115488Y-93803411D02*
X183115488Y-94289125D01*
X183115488Y-94289125D02*
X183144059Y-94346268D01*
X183144059Y-94346268D02*
X183172631Y-94374840D01*
X183172631Y-94374840D02*
X183229773Y-94403411D01*
X183229773Y-94403411D02*
X183344059Y-94403411D01*
X183344059Y-94403411D02*
X183401202Y-94374840D01*
X183401202Y-94374840D02*
X183429773Y-94346268D01*
X183429773Y-94346268D02*
X183458345Y-94289125D01*
X183458345Y-94289125D02*
X183458345Y-93803411D01*
X183715487Y-93860554D02*
X183744059Y-93831982D01*
X183744059Y-93831982D02*
X183801202Y-93803411D01*
X183801202Y-93803411D02*
X183944059Y-93803411D01*
X183944059Y-93803411D02*
X184001202Y-93831982D01*
X184001202Y-93831982D02*
X184029773Y-93860554D01*
X184029773Y-93860554D02*
X184058344Y-93917697D01*
X184058344Y-93917697D02*
X184058344Y-93974840D01*
X184058344Y-93974840D02*
X184029773Y-94060554D01*
X184029773Y-94060554D02*
X183686916Y-94403411D01*
X183686916Y-94403411D02*
X184058344Y-94403411D01*
X183029773Y-88303411D02*
X183372631Y-88303411D01*
X183201202Y-88903411D02*
X183201202Y-88303411D01*
X183572631Y-88903411D02*
X183572631Y-88303411D01*
X183572631Y-88303411D02*
X183801202Y-88303411D01*
X183801202Y-88303411D02*
X183858345Y-88331982D01*
X183858345Y-88331982D02*
X183886916Y-88360554D01*
X183886916Y-88360554D02*
X183915488Y-88417697D01*
X183915488Y-88417697D02*
X183915488Y-88503411D01*
X183915488Y-88503411D02*
X183886916Y-88560554D01*
X183886916Y-88560554D02*
X183858345Y-88589125D01*
X183858345Y-88589125D02*
X183801202Y-88617697D01*
X183801202Y-88617697D02*
X183572631Y-88617697D01*
X184486916Y-88903411D02*
X184144059Y-88903411D01*
X184315488Y-88903411D02*
X184315488Y-88303411D01*
X184315488Y-88303411D02*
X184258345Y-88389125D01*
X184258345Y-88389125D02*
X184201202Y-88446268D01*
X184201202Y-88446268D02*
X184144059Y-88474840D01*
X185058345Y-88903411D02*
X184715488Y-88903411D01*
X184886917Y-88903411D02*
X184886917Y-88303411D01*
X184886917Y-88303411D02*
X184829774Y-88389125D01*
X184829774Y-88389125D02*
X184772631Y-88446268D01*
X184772631Y-88446268D02*
X184715488Y-88474840D01*
X200195000Y-92853411D02*
X199995000Y-92567697D01*
X199852143Y-92853411D02*
X199852143Y-92253411D01*
X199852143Y-92253411D02*
X200080714Y-92253411D01*
X200080714Y-92253411D02*
X200137857Y-92281982D01*
X200137857Y-92281982D02*
X200166428Y-92310554D01*
X200166428Y-92310554D02*
X200195000Y-92367697D01*
X200195000Y-92367697D02*
X200195000Y-92453411D01*
X200195000Y-92453411D02*
X200166428Y-92510554D01*
X200166428Y-92510554D02*
X200137857Y-92539125D01*
X200137857Y-92539125D02*
X200080714Y-92567697D01*
X200080714Y-92567697D02*
X199852143Y-92567697D01*
X200423571Y-92310554D02*
X200452143Y-92281982D01*
X200452143Y-92281982D02*
X200509286Y-92253411D01*
X200509286Y-92253411D02*
X200652143Y-92253411D01*
X200652143Y-92253411D02*
X200709286Y-92281982D01*
X200709286Y-92281982D02*
X200737857Y-92310554D01*
X200737857Y-92310554D02*
X200766428Y-92367697D01*
X200766428Y-92367697D02*
X200766428Y-92424840D01*
X200766428Y-92424840D02*
X200737857Y-92510554D01*
X200737857Y-92510554D02*
X200395000Y-92853411D01*
X200395000Y-92853411D02*
X200766428Y-92853411D01*
X181570000Y-111346268D02*
X181541428Y-111374840D01*
X181541428Y-111374840D02*
X181455714Y-111403411D01*
X181455714Y-111403411D02*
X181398571Y-111403411D01*
X181398571Y-111403411D02*
X181312857Y-111374840D01*
X181312857Y-111374840D02*
X181255714Y-111317697D01*
X181255714Y-111317697D02*
X181227143Y-111260554D01*
X181227143Y-111260554D02*
X181198571Y-111146268D01*
X181198571Y-111146268D02*
X181198571Y-111060554D01*
X181198571Y-111060554D02*
X181227143Y-110946268D01*
X181227143Y-110946268D02*
X181255714Y-110889125D01*
X181255714Y-110889125D02*
X181312857Y-110831982D01*
X181312857Y-110831982D02*
X181398571Y-110803411D01*
X181398571Y-110803411D02*
X181455714Y-110803411D01*
X181455714Y-110803411D02*
X181541428Y-110831982D01*
X181541428Y-110831982D02*
X181570000Y-110860554D01*
X181770000Y-110803411D02*
X182170000Y-110803411D01*
X182170000Y-110803411D02*
X181912857Y-111403411D01*
X198770000Y-105153411D02*
X198570000Y-104867697D01*
X198427143Y-105153411D02*
X198427143Y-104553411D01*
X198427143Y-104553411D02*
X198655714Y-104553411D01*
X198655714Y-104553411D02*
X198712857Y-104581982D01*
X198712857Y-104581982D02*
X198741428Y-104610554D01*
X198741428Y-104610554D02*
X198770000Y-104667697D01*
X198770000Y-104667697D02*
X198770000Y-104753411D01*
X198770000Y-104753411D02*
X198741428Y-104810554D01*
X198741428Y-104810554D02*
X198712857Y-104839125D01*
X198712857Y-104839125D02*
X198655714Y-104867697D01*
X198655714Y-104867697D02*
X198427143Y-104867697D01*
X199284286Y-104753411D02*
X199284286Y-105153411D01*
X199141428Y-104524840D02*
X198998571Y-104953411D01*
X198998571Y-104953411D02*
X199370000Y-104953411D01*
D12*
%TO.C,TP5*%
X197540000Y-103930000D02*
G75*
G02*
X196140000Y-103930000I-700000J0D01*
G01*
X196140000Y-103930000D02*
G75*
G02*
X197540000Y-103930000I700000J0D01*
G01*
%TO.C,J2*%
X202450000Y-98275000D02*
X202450000Y-100875000D01*
X199790000Y-100875000D02*
X202450000Y-100875000D01*
X199790000Y-98275000D02*
X202450000Y-98275000D01*
X199790000Y-98275000D02*
X199790000Y-100875000D01*
X199790000Y-97005000D02*
X199790000Y-95675000D01*
X199790000Y-95675000D02*
X201120000Y-95675000D01*
%TO.C,R10*%
X187083641Y-93010000D02*
X186776359Y-93010000D01*
X187083641Y-93770000D02*
X186776359Y-93770000D01*
%TO.C,U1*%
X187520000Y-107390000D02*
X189320000Y-107390000D01*
X188520000Y-104170000D02*
X187720000Y-104170000D01*
X188520000Y-104170000D02*
X189320000Y-104170000D01*
X187220000Y-104220000D02*
X186980000Y-103890000D01*
X187460000Y-103890000D01*
X187220000Y-104220000D01*
G36*
X187220000Y-104220000D02*
G01*
X186980000Y-103890000D01*
X187460000Y-103890000D01*
X187220000Y-104220000D01*
G37*
%TO.C,C4*%
X191560000Y-95274420D02*
X191560000Y-95555580D01*
X192580000Y-95274420D02*
X192580000Y-95555580D01*
%TO.C,TP9*%
X189820000Y-97640000D02*
G75*
G02*
X188420000Y-97640000I-700000J0D01*
G01*
X188420000Y-97640000D02*
G75*
G02*
X189820000Y-97640000I700000J0D01*
G01*
%TO.C,R7*%
X182440000Y-98433641D02*
X182440000Y-98126359D01*
X183200000Y-98433641D02*
X183200000Y-98126359D01*
%TO.C,J1*%
X174590000Y-105710000D02*
X175920000Y-105710000D01*
X174590000Y-107040000D02*
X174590000Y-105710000D01*
X174590000Y-108310000D02*
X174590000Y-110910000D01*
X174590000Y-108310000D02*
X177250000Y-108310000D01*
X174590000Y-110910000D02*
X177250000Y-110910000D01*
X177250000Y-108310000D02*
X177250000Y-110910000D01*
%TO.C,TP6*%
X190205276Y-108380000D02*
G75*
G02*
X188805276Y-108380000I-700000J0D01*
G01*
X188805276Y-108380000D02*
G75*
G02*
X190205276Y-108380000I700000J0D01*
G01*
%TO.C,J3*%
X174590000Y-95675000D02*
X175920000Y-95675000D01*
X174590000Y-97005000D02*
X174590000Y-95675000D01*
X174590000Y-98275000D02*
X174590000Y-100875000D01*
X174590000Y-98275000D02*
X177250000Y-98275000D01*
X174590000Y-100875000D02*
X177250000Y-100875000D01*
X177250000Y-98275000D02*
X177250000Y-100875000D01*
%TO.C,TP3*%
X185120000Y-105380000D02*
G75*
G02*
X183720000Y-105380000I-700000J0D01*
G01*
X183720000Y-105380000D02*
G75*
G02*
X185120000Y-105380000I700000J0D01*
G01*
%TO.C,D3*%
X189817607Y-112637005D02*
X190729775Y-113549172D01*
X190729775Y-113549172D02*
X191719724Y-112559223D01*
X191719724Y-112559223D02*
X190807557Y-111647055D01*
X189817607Y-112637005D02*
G75*
G02*
X190807557Y-111647055I-1582331J2572281D01*
G01*
%TO.C,JP1*%
X200120000Y-103980000D02*
X200120000Y-102580000D01*
X200820000Y-101880000D02*
X201420000Y-101880000D01*
X201420000Y-104680000D02*
X200820000Y-104680000D01*
X202120000Y-102580000D02*
X202120000Y-103980000D01*
X200120000Y-102580000D02*
G75*
G02*
X200820000Y-101880000I700000J0D01*
G01*
X200820000Y-104680000D02*
G75*
G02*
X200120000Y-103980000I-1J699999D01*
G01*
X201420000Y-101880000D02*
G75*
G02*
X202120000Y-102580000I0J-700000D01*
G01*
X202120000Y-103980000D02*
G75*
G02*
X201420000Y-104680000I-699999J-1D01*
G01*
%TO.C,TP2*%
X185870000Y-110064724D02*
G75*
G02*
X184470000Y-110064724I-700000J0D01*
G01*
X184470000Y-110064724D02*
G75*
G02*
X185870000Y-110064724I700000J0D01*
G01*
%TO.C,J5*%
X180920000Y-71760000D02*
X195920000Y-71760000D01*
X180920000Y-86760000D02*
X180920000Y-71760000D01*
X188420000Y-71960000D02*
X187420000Y-72960000D01*
X188420000Y-71960000D02*
X189420000Y-72960000D01*
X195920000Y-71760000D02*
X195920000Y-86760000D01*
X195920000Y-86760000D02*
X180920000Y-86760000D01*
%TO.C,R11*%
X187083641Y-89250000D02*
X186776359Y-89250000D01*
X187083641Y-90010000D02*
X186776359Y-90010000D01*
%TO.C,R9*%
X187426359Y-97510000D02*
X187733641Y-97510000D01*
X187426359Y-98270000D02*
X187733641Y-98270000D01*
%TO.C,C9*%
X184210000Y-107887836D02*
X184210000Y-107672164D01*
X184930000Y-107887836D02*
X184930000Y-107672164D01*
%TO.C,D1*%
X179045000Y-104915000D02*
X181330000Y-104915000D01*
X181330000Y-103445000D02*
X179045000Y-103445000D01*
X181330000Y-104915000D02*
X181330000Y-103445000D01*
%TO.C,TP10*%
X187120000Y-92390000D02*
G75*
G02*
X185720000Y-92390000I-700000J0D01*
G01*
X185720000Y-92390000D02*
G75*
G02*
X187120000Y-92390000I700000J0D01*
G01*
%TO.C,C1*%
X194830000Y-105239420D02*
X194830000Y-105520580D01*
X193810000Y-105239420D02*
X193810000Y-105520580D01*
%TO.C,TP4*%
X185620000Y-96740000D02*
G75*
G02*
X184220000Y-96740000I-700000J0D01*
G01*
X184220000Y-96740000D02*
G75*
G02*
X185620000Y-96740000I700000J0D01*
G01*
%TO.C,C8*%
X182760000Y-108455580D02*
X182760000Y-108174420D01*
X183780000Y-108455580D02*
X183780000Y-108174420D01*
%TO.C,C2*%
X193160000Y-95274420D02*
X193160000Y-95555580D01*
X194180000Y-95274420D02*
X194180000Y-95555580D01*
%TO.C,D2*%
X195747500Y-93345000D02*
X195747500Y-94815000D01*
X195747500Y-94815000D02*
X198032500Y-94815000D01*
X198032500Y-93345000D02*
X195747500Y-93345000D01*
%TO.C,TP7*%
X187770000Y-101880000D02*
G75*
G02*
X186370000Y-101880000I-700000J0D01*
G01*
X186370000Y-101880000D02*
G75*
G02*
X187770000Y-101880000I700000J0D01*
G01*
%TO.C,C11*%
X186710000Y-100507836D02*
X186710000Y-100292164D01*
X187430000Y-100507836D02*
X187430000Y-100292164D01*
%TO.C,C5*%
X191060000Y-104772164D02*
X191060000Y-104987836D01*
X191780000Y-104772164D02*
X191780000Y-104987836D01*
%TO.C,R6*%
X182440000Y-100433641D02*
X182440000Y-100126359D01*
X183200000Y-100433641D02*
X183200000Y-100126359D01*
%TO.C,J4*%
X199790000Y-105710000D02*
X201120000Y-105710000D01*
X199790000Y-107040000D02*
X199790000Y-105710000D01*
X199790000Y-108310000D02*
X199790000Y-110910000D01*
X199790000Y-108310000D02*
X202450000Y-108310000D01*
X199790000Y-110910000D02*
X202450000Y-110910000D01*
X202450000Y-108310000D02*
X202450000Y-110910000D01*
%TO.C,C10*%
X187657836Y-102520000D02*
X187442164Y-102520000D01*
X187657836Y-103240000D02*
X187442164Y-103240000D01*
%TO.C,R5*%
X182440000Y-102433641D02*
X182440000Y-102126359D01*
X183200000Y-102433641D02*
X183200000Y-102126359D01*
%TO.C,C6*%
X190410000Y-94762164D02*
X190410000Y-94977836D01*
X191130000Y-94762164D02*
X191130000Y-94977836D01*
%TO.C,R8*%
X187733641Y-103500000D02*
X187426359Y-103500000D01*
X187733641Y-104260000D02*
X187426359Y-104260000D01*
%TO.C,R1*%
X176507742Y-103657500D02*
X176982258Y-103657500D01*
X176507742Y-104702500D02*
X176982258Y-104702500D01*
%TO.C,TP8*%
X187770000Y-98880000D02*
G75*
G02*
X186370000Y-98880000I-700000J0D01*
G01*
X186370000Y-98880000D02*
G75*
G02*
X187770000Y-98880000I700000J0D01*
G01*
%TO.C,C12*%
X186060000Y-90997836D02*
X186060000Y-90782164D01*
X186780000Y-90997836D02*
X186780000Y-90782164D01*
%TO.C,C3*%
X192210000Y-105239420D02*
X192210000Y-105520580D01*
X193230000Y-105239420D02*
X193230000Y-105520580D01*
%TO.C,R3*%
X179182742Y-110092500D02*
X179657258Y-110092500D01*
X179182742Y-111137500D02*
X179657258Y-111137500D01*
%TO.C,TP1*%
X179295000Y-109180000D02*
G75*
G02*
X177895000Y-109180000I-700000J0D01*
G01*
X177895000Y-109180000D02*
G75*
G02*
X179295000Y-109180000I700000J0D01*
G01*
%TO.C,U2*%
X186870000Y-97400000D02*
X188670000Y-97400000D01*
X187870000Y-94180000D02*
X187070000Y-94180000D01*
X187870000Y-94180000D02*
X188670000Y-94180000D01*
X186570000Y-94230000D02*
X186330000Y-93900000D01*
X186810000Y-93900000D01*
X186570000Y-94230000D01*
G36*
X186570000Y-94230000D02*
G01*
X186330000Y-93900000D01*
X186810000Y-93900000D01*
X186570000Y-94230000D01*
G37*
%TO.C,TP11*%
X187120000Y-88630000D02*
G75*
G02*
X185720000Y-88630000I-700000J0D01*
G01*
X185720000Y-88630000D02*
G75*
G02*
X187120000Y-88630000I700000J0D01*
G01*
%TO.C,R2*%
X200532258Y-93557500D02*
X200057742Y-93557500D01*
X200532258Y-94602500D02*
X200057742Y-94602500D01*
%TO.C,C7*%
X181160000Y-108174420D02*
X181160000Y-108455580D01*
X182180000Y-108174420D02*
X182180000Y-108455580D01*
%TO.C,R4*%
X198983641Y-103550000D02*
X198676359Y-103550000D01*
X198983641Y-104310000D02*
X198676359Y-104310000D01*
%TD*%
%LPC*%
D13*
X203920000Y-119380000D02*
X172920000Y-119380000D01*
X172920000Y-72380000D01*
X203920000Y-72380000D01*
X203920000Y-119380000D01*
%TO.C,JP1*%
G36*
X200370000Y-103430000D02*
G01*
X201870000Y-103430000D01*
X201870000Y-103130000D01*
X200370000Y-103130000D01*
X200370000Y-103430000D01*
G37*
%TD*%
D14*
%TO.C,TP5*%
X196840000Y-103930000D03*
%TD*%
D15*
%TO.C,J2*%
X201120000Y-99545000D03*
D16*
X201120000Y-97005000D03*
%TD*%
D17*
%TO.C,R10*%
X187440000Y-93390000D03*
X186420000Y-93390000D03*
%TD*%
D18*
%TO.C,U1*%
X187070000Y-104830000D03*
X187070000Y-105780000D03*
X187070000Y-106730000D03*
X189770000Y-106730000D03*
X189770000Y-105780000D03*
X189770000Y-104830000D03*
%TD*%
D19*
%TO.C,C4*%
X192070000Y-94640000D03*
X192070000Y-96190000D03*
%TD*%
D14*
%TO.C,TP9*%
X189120000Y-97640000D03*
%TD*%
D20*
%TO.C,R7*%
X182820000Y-98790000D03*
X182820000Y-97770000D03*
%TD*%
D16*
%TO.C,J1*%
X175920000Y-107040000D03*
D15*
X175920000Y-109580000D03*
%TD*%
D14*
%TO.C,TP6*%
X189505276Y-108380000D03*
%TD*%
D16*
%TO.C,J3*%
X175920000Y-97005000D03*
D15*
X175920000Y-99545000D03*
%TD*%
D14*
%TO.C,TP3*%
X184420000Y-105380000D03*
%TD*%
D21*
%TO.C,D3*%
X189505276Y-110064724D03*
D22*
X186965276Y-110064724D03*
%TD*%
D23*
%TO.C,JP1*%
X201120000Y-103930000D03*
D24*
X201120000Y-102630000D03*
%TD*%
D14*
%TO.C,TP2*%
X185170000Y-110064724D03*
%TD*%
D25*
%TO.C,J5*%
X188300000Y-84460000D03*
D26*
X183500000Y-79460000D03*
D25*
X185800000Y-84460000D03*
D26*
X193500000Y-79460000D03*
%TD*%
D17*
%TO.C,R11*%
X187440000Y-89630000D03*
X186420000Y-89630000D03*
%TD*%
D27*
%TO.C,R9*%
X187070000Y-97890000D03*
X188090000Y-97890000D03*
%TD*%
D28*
%TO.C,H2*%
X199920000Y-76910000D03*
%TD*%
D29*
%TO.C,C9*%
X184570000Y-108260000D03*
X184570000Y-107300000D03*
%TD*%
D30*
%TO.C,D1*%
X180632500Y-104180000D03*
X179057500Y-104180000D03*
%TD*%
D14*
%TO.C,TP10*%
X186420000Y-92390000D03*
%TD*%
D19*
%TO.C,C1*%
X194320000Y-106155000D03*
X194320000Y-104605000D03*
%TD*%
D14*
%TO.C,TP4*%
X184920000Y-96740000D03*
%TD*%
D31*
%TO.C,FID3*%
X176920000Y-82910000D03*
%TD*%
D32*
%TO.C,C8*%
X183270000Y-109090000D03*
X183270000Y-107540000D03*
%TD*%
D31*
%TO.C,FID2*%
X199920000Y-82910000D03*
%TD*%
D19*
%TO.C,C2*%
X193670000Y-94640000D03*
X193670000Y-96190000D03*
%TD*%
D28*
%TO.C,H4*%
X176920000Y-115380000D03*
%TD*%
D33*
%TO.C,D2*%
X196445000Y-94080000D03*
X198020000Y-94080000D03*
%TD*%
D14*
%TO.C,TP7*%
X187070000Y-101880000D03*
%TD*%
D29*
%TO.C,C11*%
X187070000Y-100880000D03*
X187070000Y-99920000D03*
%TD*%
D34*
%TO.C,C5*%
X191420000Y-104400000D03*
X191420000Y-105360000D03*
%TD*%
D20*
%TO.C,R6*%
X182820000Y-100790000D03*
X182820000Y-99770000D03*
%TD*%
D16*
%TO.C,J4*%
X201120000Y-107040000D03*
D15*
X201120000Y-109580000D03*
%TD*%
D35*
%TO.C,C10*%
X188030000Y-102880000D03*
X187070000Y-102880000D03*
%TD*%
D20*
%TO.C,R5*%
X182820000Y-102790000D03*
X182820000Y-101770000D03*
%TD*%
D34*
%TO.C,C6*%
X190770000Y-94390000D03*
X190770000Y-95350000D03*
%TD*%
D17*
%TO.C,R8*%
X188090000Y-103880000D03*
X187070000Y-103880000D03*
%TD*%
D36*
%TO.C,R1*%
X175920000Y-104180000D03*
X177570000Y-104180000D03*
%TD*%
D14*
%TO.C,TP8*%
X187070000Y-98880000D03*
%TD*%
D29*
%TO.C,C12*%
X186420000Y-91370000D03*
X186420000Y-90410000D03*
%TD*%
D19*
%TO.C,C3*%
X192720000Y-104605000D03*
X192720000Y-106155000D03*
%TD*%
D36*
%TO.C,R3*%
X178595000Y-110615000D03*
X180245000Y-110615000D03*
%TD*%
D14*
%TO.C,TP1*%
X178595000Y-109180000D03*
%TD*%
D18*
%TO.C,U2*%
X186420000Y-94840000D03*
X186420000Y-95790000D03*
X186420000Y-96740000D03*
X189120000Y-96740000D03*
X189120000Y-95790000D03*
X189120000Y-94840000D03*
%TD*%
D14*
%TO.C,TP11*%
X186420000Y-88630000D03*
%TD*%
D31*
%TO.C,FID1*%
X193920000Y-115380000D03*
%TD*%
D28*
%TO.C,H3*%
X199920000Y-115380000D03*
%TD*%
D37*
%TO.C,R2*%
X201120000Y-94080000D03*
X199470000Y-94080000D03*
%TD*%
D19*
%TO.C,C7*%
X181670000Y-107540000D03*
X181670000Y-109090000D03*
%TD*%
D28*
%TO.C,H1*%
X176920000Y-76910000D03*
%TD*%
D17*
%TO.C,R4*%
X199340000Y-103930000D03*
X198320000Y-103930000D03*
%TD*%
%LPD*%
M02*
