%TF.GenerationSoftware,KiCad,Pcbnew,9.0.1-9.0.1-0~ubuntu24.04.1*%
%TF.CreationDate,2025-05-07T20:50:56+02:00*%
%TF.ProjectId,OOS - optyczny odbiornik sygnalow,4f4f5320-2d20-46f7-9074-79637a6e7920,0.0.3*%
%TF.SameCoordinates,Original*%
%TF.FileFunction,Other,User*%
%FSLAX46Y46*%
G04 Gerber Fmt 4.6, Leading zero omitted, Abs format (unit mm)*
G04 Created by KiCad (PCBNEW 9.0.1-9.0.1-0~ubuntu24.04.1) date 2025-05-07 20:50:56*
%MOMM*%
%LPD*%
G01*
G04 APERTURE LIST*
%ADD10C,0.100000*%
%ADD11C,0.300000*%
G04 APERTURE END LIST*
D10*
X115792935Y-26004228D02*
X114935792Y-26004228D01*
X115364363Y-26004228D02*
X115364363Y-24504228D01*
X115364363Y-24504228D02*
X115221506Y-24718514D01*
X115221506Y-24718514D02*
X115078649Y-24861371D01*
X115078649Y-24861371D02*
X114935792Y-24932800D01*
D11*
X115138799Y-20900114D02*
X115638799Y-20900114D01*
X115853085Y-21685828D02*
X115138799Y-21685828D01*
X115138799Y-21685828D02*
X115138799Y-20185828D01*
X115138799Y-20185828D02*
X115853085Y-20185828D01*
X116495942Y-20685828D02*
X116495942Y-22185828D01*
X116495942Y-20757257D02*
X116638800Y-20685828D01*
X116638800Y-20685828D02*
X116924514Y-20685828D01*
X116924514Y-20685828D02*
X117067371Y-20757257D01*
X117067371Y-20757257D02*
X117138800Y-20828685D01*
X117138800Y-20828685D02*
X117210228Y-20971542D01*
X117210228Y-20971542D02*
X117210228Y-21400114D01*
X117210228Y-21400114D02*
X117138800Y-21542971D01*
X117138800Y-21542971D02*
X117067371Y-21614400D01*
X117067371Y-21614400D02*
X116924514Y-21685828D01*
X116924514Y-21685828D02*
X116638800Y-21685828D01*
X116638800Y-21685828D02*
X116495942Y-21614400D01*
X117781657Y-21614400D02*
X117924514Y-21685828D01*
X117924514Y-21685828D02*
X118210228Y-21685828D01*
X118210228Y-21685828D02*
X118353085Y-21614400D01*
X118353085Y-21614400D02*
X118424514Y-21471542D01*
X118424514Y-21471542D02*
X118424514Y-21400114D01*
X118424514Y-21400114D02*
X118353085Y-21257257D01*
X118353085Y-21257257D02*
X118210228Y-21185828D01*
X118210228Y-21185828D02*
X117995943Y-21185828D01*
X117995943Y-21185828D02*
X117853085Y-21114400D01*
X117853085Y-21114400D02*
X117781657Y-20971542D01*
X117781657Y-20971542D02*
X117781657Y-20900114D01*
X117781657Y-20900114D02*
X117853085Y-20757257D01*
X117853085Y-20757257D02*
X117995943Y-20685828D01*
X117995943Y-20685828D02*
X118210228Y-20685828D01*
X118210228Y-20685828D02*
X118353085Y-20757257D01*
X119067371Y-21685828D02*
X119067371Y-20685828D01*
X119067371Y-20185828D02*
X118995943Y-20257257D01*
X118995943Y-20257257D02*
X119067371Y-20328685D01*
X119067371Y-20328685D02*
X119138800Y-20257257D01*
X119138800Y-20257257D02*
X119067371Y-20185828D01*
X119067371Y-20185828D02*
X119067371Y-20328685D01*
X119995943Y-21685828D02*
X119853086Y-21614400D01*
X119853086Y-21614400D02*
X119781657Y-21471542D01*
X119781657Y-21471542D02*
X119781657Y-20185828D01*
X120781657Y-21685828D02*
X120638800Y-21614400D01*
X120638800Y-21614400D02*
X120567371Y-21542971D01*
X120567371Y-21542971D02*
X120495943Y-21400114D01*
X120495943Y-21400114D02*
X120495943Y-20971542D01*
X120495943Y-20971542D02*
X120567371Y-20828685D01*
X120567371Y-20828685D02*
X120638800Y-20757257D01*
X120638800Y-20757257D02*
X120781657Y-20685828D01*
X120781657Y-20685828D02*
X120995943Y-20685828D01*
X120995943Y-20685828D02*
X121138800Y-20757257D01*
X121138800Y-20757257D02*
X121210229Y-20828685D01*
X121210229Y-20828685D02*
X121281657Y-20971542D01*
X121281657Y-20971542D02*
X121281657Y-21400114D01*
X121281657Y-21400114D02*
X121210229Y-21542971D01*
X121210229Y-21542971D02*
X121138800Y-21614400D01*
X121138800Y-21614400D02*
X120995943Y-21685828D01*
X120995943Y-21685828D02*
X120781657Y-21685828D01*
X121924514Y-20685828D02*
X121924514Y-21685828D01*
X121924514Y-20828685D02*
X121995943Y-20757257D01*
X121995943Y-20757257D02*
X122138800Y-20685828D01*
X122138800Y-20685828D02*
X122353086Y-20685828D01*
X122353086Y-20685828D02*
X122495943Y-20757257D01*
X122495943Y-20757257D02*
X122567372Y-20900114D01*
X122567372Y-20900114D02*
X122567372Y-21685828D01*
X125281657Y-21685828D02*
X124781657Y-20971542D01*
X124424514Y-21685828D02*
X124424514Y-20185828D01*
X124424514Y-20185828D02*
X124995943Y-20185828D01*
X124995943Y-20185828D02*
X125138800Y-20257257D01*
X125138800Y-20257257D02*
X125210229Y-20328685D01*
X125210229Y-20328685D02*
X125281657Y-20471542D01*
X125281657Y-20471542D02*
X125281657Y-20685828D01*
X125281657Y-20685828D02*
X125210229Y-20828685D01*
X125210229Y-20828685D02*
X125138800Y-20900114D01*
X125138800Y-20900114D02*
X124995943Y-20971542D01*
X124995943Y-20971542D02*
X124424514Y-20971542D01*
D10*
X18920000Y-19380000D02*
X144248576Y-19380000D01*
X100650078Y-36036514D02*
X100150078Y-36036514D01*
X100150078Y-36822228D02*
X100150078Y-35322228D01*
X100150078Y-35322228D02*
X100864364Y-35322228D01*
X102292935Y-36822228D02*
X101792935Y-36107942D01*
X101435792Y-36822228D02*
X101435792Y-35322228D01*
X101435792Y-35322228D02*
X102007221Y-35322228D01*
X102007221Y-35322228D02*
X102150078Y-35393657D01*
X102150078Y-35393657D02*
X102221507Y-35465085D01*
X102221507Y-35465085D02*
X102292935Y-35607942D01*
X102292935Y-35607942D02*
X102292935Y-35822228D01*
X102292935Y-35822228D02*
X102221507Y-35965085D01*
X102221507Y-35965085D02*
X102150078Y-36036514D01*
X102150078Y-36036514D02*
X102007221Y-36107942D01*
X102007221Y-36107942D02*
X101435792Y-36107942D01*
X103578650Y-35822228D02*
X103578650Y-36822228D01*
X103221507Y-35250800D02*
X102864364Y-36322228D01*
X102864364Y-36322228D02*
X103792935Y-36322228D01*
X105507220Y-35822228D02*
X105507220Y-36822228D01*
X105507220Y-35965085D02*
X105578649Y-35893657D01*
X105578649Y-35893657D02*
X105721506Y-35822228D01*
X105721506Y-35822228D02*
X105935792Y-35822228D01*
X105935792Y-35822228D02*
X106078649Y-35893657D01*
X106078649Y-35893657D02*
X106150078Y-36036514D01*
X106150078Y-36036514D02*
X106150078Y-36822228D01*
X107507221Y-36822228D02*
X107507221Y-36036514D01*
X107507221Y-36036514D02*
X107435792Y-35893657D01*
X107435792Y-35893657D02*
X107292935Y-35822228D01*
X107292935Y-35822228D02*
X107007221Y-35822228D01*
X107007221Y-35822228D02*
X106864363Y-35893657D01*
X107507221Y-36750800D02*
X107364363Y-36822228D01*
X107364363Y-36822228D02*
X107007221Y-36822228D01*
X107007221Y-36822228D02*
X106864363Y-36750800D01*
X106864363Y-36750800D02*
X106792935Y-36607942D01*
X106792935Y-36607942D02*
X106792935Y-36465085D01*
X106792935Y-36465085D02*
X106864363Y-36322228D01*
X106864363Y-36322228D02*
X107007221Y-36250800D01*
X107007221Y-36250800D02*
X107364363Y-36250800D01*
X107364363Y-36250800D02*
X107507221Y-36179371D01*
X108007221Y-35822228D02*
X108578649Y-35822228D01*
X108221506Y-35322228D02*
X108221506Y-36607942D01*
X108221506Y-36607942D02*
X108292935Y-36750800D01*
X108292935Y-36750800D02*
X108435792Y-36822228D01*
X108435792Y-36822228D02*
X108578649Y-36822228D01*
X109721507Y-35822228D02*
X109721507Y-36822228D01*
X109078649Y-35822228D02*
X109078649Y-36607942D01*
X109078649Y-36607942D02*
X109150078Y-36750800D01*
X109150078Y-36750800D02*
X109292935Y-36822228D01*
X109292935Y-36822228D02*
X109507221Y-36822228D01*
X109507221Y-36822228D02*
X109650078Y-36750800D01*
X109650078Y-36750800D02*
X109721507Y-36679371D01*
X110435792Y-36822228D02*
X110435792Y-35822228D01*
X110435792Y-36107942D02*
X110507221Y-35965085D01*
X110507221Y-35965085D02*
X110578650Y-35893657D01*
X110578650Y-35893657D02*
X110721507Y-35822228D01*
X110721507Y-35822228D02*
X110864364Y-35822228D01*
X112007221Y-36822228D02*
X112007221Y-36036514D01*
X112007221Y-36036514D02*
X111935792Y-35893657D01*
X111935792Y-35893657D02*
X111792935Y-35822228D01*
X111792935Y-35822228D02*
X111507221Y-35822228D01*
X111507221Y-35822228D02*
X111364363Y-35893657D01*
X112007221Y-36750800D02*
X111864363Y-36822228D01*
X111864363Y-36822228D02*
X111507221Y-36822228D01*
X111507221Y-36822228D02*
X111364363Y-36750800D01*
X111364363Y-36750800D02*
X111292935Y-36607942D01*
X111292935Y-36607942D02*
X111292935Y-36465085D01*
X111292935Y-36465085D02*
X111364363Y-36322228D01*
X111364363Y-36322228D02*
X111507221Y-36250800D01*
X111507221Y-36250800D02*
X111864363Y-36250800D01*
X111864363Y-36250800D02*
X112007221Y-36179371D01*
X112935792Y-36822228D02*
X112792935Y-36750800D01*
X112792935Y-36750800D02*
X112721506Y-36607942D01*
X112721506Y-36607942D02*
X112721506Y-35322228D01*
X38835791Y-28110228D02*
X39692934Y-28110228D01*
X39264362Y-29610228D02*
X39264362Y-28110228D01*
X40407219Y-29610228D02*
X40264362Y-29538800D01*
X40264362Y-29538800D02*
X40192933Y-29467371D01*
X40192933Y-29467371D02*
X40121505Y-29324514D01*
X40121505Y-29324514D02*
X40121505Y-28895942D01*
X40121505Y-28895942D02*
X40192933Y-28753085D01*
X40192933Y-28753085D02*
X40264362Y-28681657D01*
X40264362Y-28681657D02*
X40407219Y-28610228D01*
X40407219Y-28610228D02*
X40621505Y-28610228D01*
X40621505Y-28610228D02*
X40764362Y-28681657D01*
X40764362Y-28681657D02*
X40835791Y-28753085D01*
X40835791Y-28753085D02*
X40907219Y-28895942D01*
X40907219Y-28895942D02*
X40907219Y-29324514D01*
X40907219Y-29324514D02*
X40835791Y-29467371D01*
X40835791Y-29467371D02*
X40764362Y-29538800D01*
X40764362Y-29538800D02*
X40621505Y-29610228D01*
X40621505Y-29610228D02*
X40407219Y-29610228D01*
X41550076Y-28610228D02*
X41550076Y-30110228D01*
X41550076Y-28681657D02*
X41692934Y-28610228D01*
X41692934Y-28610228D02*
X41978648Y-28610228D01*
X41978648Y-28610228D02*
X42121505Y-28681657D01*
X42121505Y-28681657D02*
X42192934Y-28753085D01*
X42192934Y-28753085D02*
X42264362Y-28895942D01*
X42264362Y-28895942D02*
X42264362Y-29324514D01*
X42264362Y-29324514D02*
X42192934Y-29467371D01*
X42192934Y-29467371D02*
X42121505Y-29538800D01*
X42121505Y-29538800D02*
X41978648Y-29610228D01*
X41978648Y-29610228D02*
X41692934Y-29610228D01*
X41692934Y-29610228D02*
X41550076Y-29538800D01*
X43978648Y-29538800D02*
X44192934Y-29610228D01*
X44192934Y-29610228D02*
X44550076Y-29610228D01*
X44550076Y-29610228D02*
X44692934Y-29538800D01*
X44692934Y-29538800D02*
X44764362Y-29467371D01*
X44764362Y-29467371D02*
X44835791Y-29324514D01*
X44835791Y-29324514D02*
X44835791Y-29181657D01*
X44835791Y-29181657D02*
X44764362Y-29038800D01*
X44764362Y-29038800D02*
X44692934Y-28967371D01*
X44692934Y-28967371D02*
X44550076Y-28895942D01*
X44550076Y-28895942D02*
X44264362Y-28824514D01*
X44264362Y-28824514D02*
X44121505Y-28753085D01*
X44121505Y-28753085D02*
X44050076Y-28681657D01*
X44050076Y-28681657D02*
X43978648Y-28538800D01*
X43978648Y-28538800D02*
X43978648Y-28395942D01*
X43978648Y-28395942D02*
X44050076Y-28253085D01*
X44050076Y-28253085D02*
X44121505Y-28181657D01*
X44121505Y-28181657D02*
X44264362Y-28110228D01*
X44264362Y-28110228D02*
X44621505Y-28110228D01*
X44621505Y-28110228D02*
X44835791Y-28181657D01*
X45692933Y-29610228D02*
X45550076Y-29538800D01*
X45550076Y-29538800D02*
X45478647Y-29467371D01*
X45478647Y-29467371D02*
X45407219Y-29324514D01*
X45407219Y-29324514D02*
X45407219Y-28895942D01*
X45407219Y-28895942D02*
X45478647Y-28753085D01*
X45478647Y-28753085D02*
X45550076Y-28681657D01*
X45550076Y-28681657D02*
X45692933Y-28610228D01*
X45692933Y-28610228D02*
X45907219Y-28610228D01*
X45907219Y-28610228D02*
X46050076Y-28681657D01*
X46050076Y-28681657D02*
X46121505Y-28753085D01*
X46121505Y-28753085D02*
X46192933Y-28895942D01*
X46192933Y-28895942D02*
X46192933Y-29324514D01*
X46192933Y-29324514D02*
X46121505Y-29467371D01*
X46121505Y-29467371D02*
X46050076Y-29538800D01*
X46050076Y-29538800D02*
X45907219Y-29610228D01*
X45907219Y-29610228D02*
X45692933Y-29610228D01*
X47050076Y-29610228D02*
X46907219Y-29538800D01*
X46907219Y-29538800D02*
X46835790Y-29395942D01*
X46835790Y-29395942D02*
X46835790Y-28110228D01*
X48264362Y-29610228D02*
X48264362Y-28110228D01*
X48264362Y-29538800D02*
X48121504Y-29610228D01*
X48121504Y-29610228D02*
X47835790Y-29610228D01*
X47835790Y-29610228D02*
X47692933Y-29538800D01*
X47692933Y-29538800D02*
X47621504Y-29467371D01*
X47621504Y-29467371D02*
X47550076Y-29324514D01*
X47550076Y-29324514D02*
X47550076Y-28895942D01*
X47550076Y-28895942D02*
X47621504Y-28753085D01*
X47621504Y-28753085D02*
X47692933Y-28681657D01*
X47692933Y-28681657D02*
X47835790Y-28610228D01*
X47835790Y-28610228D02*
X48121504Y-28610228D01*
X48121504Y-28610228D02*
X48264362Y-28681657D01*
X49550076Y-29538800D02*
X49407219Y-29610228D01*
X49407219Y-29610228D02*
X49121505Y-29610228D01*
X49121505Y-29610228D02*
X48978647Y-29538800D01*
X48978647Y-29538800D02*
X48907219Y-29395942D01*
X48907219Y-29395942D02*
X48907219Y-28824514D01*
X48907219Y-28824514D02*
X48978647Y-28681657D01*
X48978647Y-28681657D02*
X49121505Y-28610228D01*
X49121505Y-28610228D02*
X49407219Y-28610228D01*
X49407219Y-28610228D02*
X49550076Y-28681657D01*
X49550076Y-28681657D02*
X49621505Y-28824514D01*
X49621505Y-28824514D02*
X49621505Y-28967371D01*
X49621505Y-28967371D02*
X48907219Y-29110228D01*
X50264361Y-29610228D02*
X50264361Y-28610228D01*
X50264361Y-28895942D02*
X50335790Y-28753085D01*
X50335790Y-28753085D02*
X50407219Y-28681657D01*
X50407219Y-28681657D02*
X50550076Y-28610228D01*
X50550076Y-28610228D02*
X50692933Y-28610228D01*
X52335789Y-29610228D02*
X52335789Y-28110228D01*
X52335789Y-28110228D02*
X52835789Y-29181657D01*
X52835789Y-29181657D02*
X53335789Y-28110228D01*
X53335789Y-28110228D02*
X53335789Y-29610228D01*
X54692933Y-29610228D02*
X54692933Y-28824514D01*
X54692933Y-28824514D02*
X54621504Y-28681657D01*
X54621504Y-28681657D02*
X54478647Y-28610228D01*
X54478647Y-28610228D02*
X54192933Y-28610228D01*
X54192933Y-28610228D02*
X54050075Y-28681657D01*
X54692933Y-29538800D02*
X54550075Y-29610228D01*
X54550075Y-29610228D02*
X54192933Y-29610228D01*
X54192933Y-29610228D02*
X54050075Y-29538800D01*
X54050075Y-29538800D02*
X53978647Y-29395942D01*
X53978647Y-29395942D02*
X53978647Y-29253085D01*
X53978647Y-29253085D02*
X54050075Y-29110228D01*
X54050075Y-29110228D02*
X54192933Y-29038800D01*
X54192933Y-29038800D02*
X54550075Y-29038800D01*
X54550075Y-29038800D02*
X54692933Y-28967371D01*
X55335790Y-29538800D02*
X55478647Y-29610228D01*
X55478647Y-29610228D02*
X55764361Y-29610228D01*
X55764361Y-29610228D02*
X55907218Y-29538800D01*
X55907218Y-29538800D02*
X55978647Y-29395942D01*
X55978647Y-29395942D02*
X55978647Y-29324514D01*
X55978647Y-29324514D02*
X55907218Y-29181657D01*
X55907218Y-29181657D02*
X55764361Y-29110228D01*
X55764361Y-29110228D02*
X55550076Y-29110228D01*
X55550076Y-29110228D02*
X55407218Y-29038800D01*
X55407218Y-29038800D02*
X55335790Y-28895942D01*
X55335790Y-28895942D02*
X55335790Y-28824514D01*
X55335790Y-28824514D02*
X55407218Y-28681657D01*
X55407218Y-28681657D02*
X55550076Y-28610228D01*
X55550076Y-28610228D02*
X55764361Y-28610228D01*
X55764361Y-28610228D02*
X55907218Y-28681657D01*
X56621504Y-29610228D02*
X56621504Y-28110228D01*
X56764362Y-29038800D02*
X57192933Y-29610228D01*
X57192933Y-28610228D02*
X56621504Y-29181657D01*
D11*
X127810229Y-20185828D02*
X128667372Y-20185828D01*
X128238800Y-21685828D02*
X128238800Y-20185828D01*
X129810229Y-21685828D02*
X129810229Y-20900114D01*
X129810229Y-20900114D02*
X129738800Y-20757257D01*
X129738800Y-20757257D02*
X129595943Y-20685828D01*
X129595943Y-20685828D02*
X129310229Y-20685828D01*
X129310229Y-20685828D02*
X129167371Y-20757257D01*
X129810229Y-21614400D02*
X129667371Y-21685828D01*
X129667371Y-21685828D02*
X129310229Y-21685828D01*
X129310229Y-21685828D02*
X129167371Y-21614400D01*
X129167371Y-21614400D02*
X129095943Y-21471542D01*
X129095943Y-21471542D02*
X129095943Y-21328685D01*
X129095943Y-21328685D02*
X129167371Y-21185828D01*
X129167371Y-21185828D02*
X129310229Y-21114400D01*
X129310229Y-21114400D02*
X129667371Y-21114400D01*
X129667371Y-21114400D02*
X129810229Y-21042971D01*
X130524514Y-20685828D02*
X130524514Y-21685828D01*
X130524514Y-20828685D02*
X130595943Y-20757257D01*
X130595943Y-20757257D02*
X130738800Y-20685828D01*
X130738800Y-20685828D02*
X130953086Y-20685828D01*
X130953086Y-20685828D02*
X131095943Y-20757257D01*
X131095943Y-20757257D02*
X131167372Y-20900114D01*
X131167372Y-20900114D02*
X131167372Y-21685828D01*
X132524515Y-20685828D02*
X132524515Y-21900114D01*
X132524515Y-21900114D02*
X132453086Y-22042971D01*
X132453086Y-22042971D02*
X132381657Y-22114400D01*
X132381657Y-22114400D02*
X132238800Y-22185828D01*
X132238800Y-22185828D02*
X132024515Y-22185828D01*
X132024515Y-22185828D02*
X131881657Y-22114400D01*
X132524515Y-21614400D02*
X132381657Y-21685828D01*
X132381657Y-21685828D02*
X132095943Y-21685828D01*
X132095943Y-21685828D02*
X131953086Y-21614400D01*
X131953086Y-21614400D02*
X131881657Y-21542971D01*
X131881657Y-21542971D02*
X131810229Y-21400114D01*
X131810229Y-21400114D02*
X131810229Y-20971542D01*
X131810229Y-20971542D02*
X131881657Y-20828685D01*
X131881657Y-20828685D02*
X131953086Y-20757257D01*
X131953086Y-20757257D02*
X132095943Y-20685828D01*
X132095943Y-20685828D02*
X132381657Y-20685828D01*
X132381657Y-20685828D02*
X132524515Y-20757257D01*
X133810229Y-21614400D02*
X133667372Y-21685828D01*
X133667372Y-21685828D02*
X133381658Y-21685828D01*
X133381658Y-21685828D02*
X133238800Y-21614400D01*
X133238800Y-21614400D02*
X133167372Y-21471542D01*
X133167372Y-21471542D02*
X133167372Y-20900114D01*
X133167372Y-20900114D02*
X133238800Y-20757257D01*
X133238800Y-20757257D02*
X133381658Y-20685828D01*
X133381658Y-20685828D02*
X133667372Y-20685828D01*
X133667372Y-20685828D02*
X133810229Y-20757257D01*
X133810229Y-20757257D02*
X133881658Y-20900114D01*
X133881658Y-20900114D02*
X133881658Y-21042971D01*
X133881658Y-21042971D02*
X133167372Y-21185828D01*
X134524514Y-20685828D02*
X134524514Y-21685828D01*
X134524514Y-20828685D02*
X134595943Y-20757257D01*
X134595943Y-20757257D02*
X134738800Y-20685828D01*
X134738800Y-20685828D02*
X134953086Y-20685828D01*
X134953086Y-20685828D02*
X135095943Y-20757257D01*
X135095943Y-20757257D02*
X135167372Y-20900114D01*
X135167372Y-20900114D02*
X135167372Y-21685828D01*
X135810229Y-21614400D02*
X135953086Y-21685828D01*
X135953086Y-21685828D02*
X136238800Y-21685828D01*
X136238800Y-21685828D02*
X136381657Y-21614400D01*
X136381657Y-21614400D02*
X136453086Y-21471542D01*
X136453086Y-21471542D02*
X136453086Y-21400114D01*
X136453086Y-21400114D02*
X136381657Y-21257257D01*
X136381657Y-21257257D02*
X136238800Y-21185828D01*
X136238800Y-21185828D02*
X136024515Y-21185828D01*
X136024515Y-21185828D02*
X135881657Y-21114400D01*
X135881657Y-21114400D02*
X135810229Y-20971542D01*
X135810229Y-20971542D02*
X135810229Y-20900114D01*
X135810229Y-20900114D02*
X135881657Y-20757257D01*
X135881657Y-20757257D02*
X136024515Y-20685828D01*
X136024515Y-20685828D02*
X136238800Y-20685828D01*
X136238800Y-20685828D02*
X136381657Y-20757257D01*
X138167372Y-21614400D02*
X138310229Y-21685828D01*
X138310229Y-21685828D02*
X138595943Y-21685828D01*
X138595943Y-21685828D02*
X138738800Y-21614400D01*
X138738800Y-21614400D02*
X138810229Y-21471542D01*
X138810229Y-21471542D02*
X138810229Y-21400114D01*
X138810229Y-21400114D02*
X138738800Y-21257257D01*
X138738800Y-21257257D02*
X138595943Y-21185828D01*
X138595943Y-21185828D02*
X138381658Y-21185828D01*
X138381658Y-21185828D02*
X138238800Y-21114400D01*
X138238800Y-21114400D02*
X138167372Y-20971542D01*
X138167372Y-20971542D02*
X138167372Y-20900114D01*
X138167372Y-20900114D02*
X138238800Y-20757257D01*
X138238800Y-20757257D02*
X138381658Y-20685828D01*
X138381658Y-20685828D02*
X138595943Y-20685828D01*
X138595943Y-20685828D02*
X138738800Y-20757257D01*
X139238801Y-20685828D02*
X139810229Y-20685828D01*
X139453086Y-20185828D02*
X139453086Y-21471542D01*
X139453086Y-21471542D02*
X139524515Y-21614400D01*
X139524515Y-21614400D02*
X139667372Y-21685828D01*
X139667372Y-21685828D02*
X139810229Y-21685828D01*
X140310229Y-21685828D02*
X140310229Y-20685828D01*
X140310229Y-20971542D02*
X140381658Y-20828685D01*
X140381658Y-20828685D02*
X140453087Y-20757257D01*
X140453087Y-20757257D02*
X140595944Y-20685828D01*
X140595944Y-20685828D02*
X140738801Y-20685828D01*
X141881658Y-21685828D02*
X141881658Y-20900114D01*
X141881658Y-20900114D02*
X141810229Y-20757257D01*
X141810229Y-20757257D02*
X141667372Y-20685828D01*
X141667372Y-20685828D02*
X141381658Y-20685828D01*
X141381658Y-20685828D02*
X141238800Y-20757257D01*
X141881658Y-21614400D02*
X141738800Y-21685828D01*
X141738800Y-21685828D02*
X141381658Y-21685828D01*
X141381658Y-21685828D02*
X141238800Y-21614400D01*
X141238800Y-21614400D02*
X141167372Y-21471542D01*
X141167372Y-21471542D02*
X141167372Y-21328685D01*
X141167372Y-21328685D02*
X141238800Y-21185828D01*
X141238800Y-21185828D02*
X141381658Y-21114400D01*
X141381658Y-21114400D02*
X141738800Y-21114400D01*
X141738800Y-21114400D02*
X141881658Y-21042971D01*
X142381658Y-20685828D02*
X142953086Y-20685828D01*
X142595943Y-20185828D02*
X142595943Y-21471542D01*
X142595943Y-21471542D02*
X142667372Y-21614400D01*
X142667372Y-21614400D02*
X142810229Y-21685828D01*
X142810229Y-21685828D02*
X142953086Y-21685828D01*
D10*
X100935793Y-28181657D02*
X100792936Y-28110228D01*
X100792936Y-28110228D02*
X100578650Y-28110228D01*
X100578650Y-28110228D02*
X100364364Y-28181657D01*
X100364364Y-28181657D02*
X100221507Y-28324514D01*
X100221507Y-28324514D02*
X100150078Y-28467371D01*
X100150078Y-28467371D02*
X100078650Y-28753085D01*
X100078650Y-28753085D02*
X100078650Y-28967371D01*
X100078650Y-28967371D02*
X100150078Y-29253085D01*
X100150078Y-29253085D02*
X100221507Y-29395942D01*
X100221507Y-29395942D02*
X100364364Y-29538800D01*
X100364364Y-29538800D02*
X100578650Y-29610228D01*
X100578650Y-29610228D02*
X100721507Y-29610228D01*
X100721507Y-29610228D02*
X100935793Y-29538800D01*
X100935793Y-29538800D02*
X101007221Y-29467371D01*
X101007221Y-29467371D02*
X101007221Y-28967371D01*
X101007221Y-28967371D02*
X100721507Y-28967371D01*
X101650078Y-29610228D02*
X101650078Y-28610228D01*
X101650078Y-28895942D02*
X101721507Y-28753085D01*
X101721507Y-28753085D02*
X101792936Y-28681657D01*
X101792936Y-28681657D02*
X101935793Y-28610228D01*
X101935793Y-28610228D02*
X102078650Y-28610228D01*
X103150078Y-29538800D02*
X103007221Y-29610228D01*
X103007221Y-29610228D02*
X102721507Y-29610228D01*
X102721507Y-29610228D02*
X102578649Y-29538800D01*
X102578649Y-29538800D02*
X102507221Y-29395942D01*
X102507221Y-29395942D02*
X102507221Y-28824514D01*
X102507221Y-28824514D02*
X102578649Y-28681657D01*
X102578649Y-28681657D02*
X102721507Y-28610228D01*
X102721507Y-28610228D02*
X103007221Y-28610228D01*
X103007221Y-28610228D02*
X103150078Y-28681657D01*
X103150078Y-28681657D02*
X103221507Y-28824514D01*
X103221507Y-28824514D02*
X103221507Y-28967371D01*
X103221507Y-28967371D02*
X102507221Y-29110228D01*
X104435792Y-29538800D02*
X104292935Y-29610228D01*
X104292935Y-29610228D02*
X104007221Y-29610228D01*
X104007221Y-29610228D02*
X103864363Y-29538800D01*
X103864363Y-29538800D02*
X103792935Y-29395942D01*
X103792935Y-29395942D02*
X103792935Y-28824514D01*
X103792935Y-28824514D02*
X103864363Y-28681657D01*
X103864363Y-28681657D02*
X104007221Y-28610228D01*
X104007221Y-28610228D02*
X104292935Y-28610228D01*
X104292935Y-28610228D02*
X104435792Y-28681657D01*
X104435792Y-28681657D02*
X104507221Y-28824514D01*
X104507221Y-28824514D02*
X104507221Y-28967371D01*
X104507221Y-28967371D02*
X103792935Y-29110228D01*
X105150077Y-28610228D02*
X105150077Y-29610228D01*
X105150077Y-28753085D02*
X105221506Y-28681657D01*
X105221506Y-28681657D02*
X105364363Y-28610228D01*
X105364363Y-28610228D02*
X105578649Y-28610228D01*
X105578649Y-28610228D02*
X105721506Y-28681657D01*
X105721506Y-28681657D02*
X105792935Y-28824514D01*
X105792935Y-28824514D02*
X105792935Y-29610228D01*
D11*
X100281657Y-21685828D02*
X100281657Y-20185828D01*
X101138800Y-21685828D02*
X100495943Y-20828685D01*
X101138800Y-20185828D02*
X100281657Y-21042971D01*
X101995943Y-21685828D02*
X101853086Y-21614400D01*
X101853086Y-21614400D02*
X101781657Y-21542971D01*
X101781657Y-21542971D02*
X101710229Y-21400114D01*
X101710229Y-21400114D02*
X101710229Y-20971542D01*
X101710229Y-20971542D02*
X101781657Y-20828685D01*
X101781657Y-20828685D02*
X101853086Y-20757257D01*
X101853086Y-20757257D02*
X101995943Y-20685828D01*
X101995943Y-20685828D02*
X102210229Y-20685828D01*
X102210229Y-20685828D02*
X102353086Y-20757257D01*
X102353086Y-20757257D02*
X102424515Y-20828685D01*
X102424515Y-20828685D02*
X102495943Y-20971542D01*
X102495943Y-20971542D02*
X102495943Y-21400114D01*
X102495943Y-21400114D02*
X102424515Y-21542971D01*
X102424515Y-21542971D02*
X102353086Y-21614400D01*
X102353086Y-21614400D02*
X102210229Y-21685828D01*
X102210229Y-21685828D02*
X101995943Y-21685828D01*
X103353086Y-21685828D02*
X103210229Y-21614400D01*
X103210229Y-21614400D02*
X103138800Y-21471542D01*
X103138800Y-21471542D02*
X103138800Y-20185828D01*
X104138800Y-21685828D02*
X103995943Y-21614400D01*
X103995943Y-21614400D02*
X103924514Y-21542971D01*
X103924514Y-21542971D02*
X103853086Y-21400114D01*
X103853086Y-21400114D02*
X103853086Y-20971542D01*
X103853086Y-20971542D02*
X103924514Y-20828685D01*
X103924514Y-20828685D02*
X103995943Y-20757257D01*
X103995943Y-20757257D02*
X104138800Y-20685828D01*
X104138800Y-20685828D02*
X104353086Y-20685828D01*
X104353086Y-20685828D02*
X104495943Y-20757257D01*
X104495943Y-20757257D02*
X104567372Y-20828685D01*
X104567372Y-20828685D02*
X104638800Y-20971542D01*
X104638800Y-20971542D02*
X104638800Y-21400114D01*
X104638800Y-21400114D02*
X104567372Y-21542971D01*
X104567372Y-21542971D02*
X104495943Y-21614400D01*
X104495943Y-21614400D02*
X104353086Y-21685828D01*
X104353086Y-21685828D02*
X104138800Y-21685828D01*
X105281657Y-21685828D02*
X105281657Y-20685828D01*
X105281657Y-20971542D02*
X105353086Y-20828685D01*
X105353086Y-20828685D02*
X105424515Y-20757257D01*
X105424515Y-20757257D02*
X105567372Y-20685828D01*
X105567372Y-20685828D02*
X105710229Y-20685828D01*
D10*
X79478650Y-46140228D02*
X79621507Y-46140228D01*
X79621507Y-46140228D02*
X79764364Y-46211657D01*
X79764364Y-46211657D02*
X79835793Y-46283085D01*
X79835793Y-46283085D02*
X79907221Y-46425942D01*
X79907221Y-46425942D02*
X79978650Y-46711657D01*
X79978650Y-46711657D02*
X79978650Y-47068800D01*
X79978650Y-47068800D02*
X79907221Y-47354514D01*
X79907221Y-47354514D02*
X79835793Y-47497371D01*
X79835793Y-47497371D02*
X79764364Y-47568800D01*
X79764364Y-47568800D02*
X79621507Y-47640228D01*
X79621507Y-47640228D02*
X79478650Y-47640228D01*
X79478650Y-47640228D02*
X79335793Y-47568800D01*
X79335793Y-47568800D02*
X79264364Y-47497371D01*
X79264364Y-47497371D02*
X79192935Y-47354514D01*
X79192935Y-47354514D02*
X79121507Y-47068800D01*
X79121507Y-47068800D02*
X79121507Y-46711657D01*
X79121507Y-46711657D02*
X79192935Y-46425942D01*
X79192935Y-46425942D02*
X79264364Y-46283085D01*
X79264364Y-46283085D02*
X79335793Y-46211657D01*
X79335793Y-46211657D02*
X79478650Y-46140228D01*
X81764363Y-47640228D02*
X81764363Y-46640228D01*
X81764363Y-46783085D02*
X81835792Y-46711657D01*
X81835792Y-46711657D02*
X81978649Y-46640228D01*
X81978649Y-46640228D02*
X82192935Y-46640228D01*
X82192935Y-46640228D02*
X82335792Y-46711657D01*
X82335792Y-46711657D02*
X82407221Y-46854514D01*
X82407221Y-46854514D02*
X82407221Y-47640228D01*
X82407221Y-46854514D02*
X82478649Y-46711657D01*
X82478649Y-46711657D02*
X82621506Y-46640228D01*
X82621506Y-46640228D02*
X82835792Y-46640228D01*
X82835792Y-46640228D02*
X82978649Y-46711657D01*
X82978649Y-46711657D02*
X83050078Y-46854514D01*
X83050078Y-46854514D02*
X83050078Y-47640228D01*
X83764363Y-47640228D02*
X83764363Y-46640228D01*
X83764363Y-46783085D02*
X83835792Y-46711657D01*
X83835792Y-46711657D02*
X83978649Y-46640228D01*
X83978649Y-46640228D02*
X84192935Y-46640228D01*
X84192935Y-46640228D02*
X84335792Y-46711657D01*
X84335792Y-46711657D02*
X84407221Y-46854514D01*
X84407221Y-46854514D02*
X84407221Y-47640228D01*
X84407221Y-46854514D02*
X84478649Y-46711657D01*
X84478649Y-46711657D02*
X84621506Y-46640228D01*
X84621506Y-46640228D02*
X84835792Y-46640228D01*
X84835792Y-46640228D02*
X84978649Y-46711657D01*
X84978649Y-46711657D02*
X85050078Y-46854514D01*
X85050078Y-46854514D02*
X85050078Y-47640228D01*
X79478650Y-42534228D02*
X79621507Y-42534228D01*
X79621507Y-42534228D02*
X79764364Y-42605657D01*
X79764364Y-42605657D02*
X79835793Y-42677085D01*
X79835793Y-42677085D02*
X79907221Y-42819942D01*
X79907221Y-42819942D02*
X79978650Y-43105657D01*
X79978650Y-43105657D02*
X79978650Y-43462800D01*
X79978650Y-43462800D02*
X79907221Y-43748514D01*
X79907221Y-43748514D02*
X79835793Y-43891371D01*
X79835793Y-43891371D02*
X79764364Y-43962800D01*
X79764364Y-43962800D02*
X79621507Y-44034228D01*
X79621507Y-44034228D02*
X79478650Y-44034228D01*
X79478650Y-44034228D02*
X79335793Y-43962800D01*
X79335793Y-43962800D02*
X79264364Y-43891371D01*
X79264364Y-43891371D02*
X79192935Y-43748514D01*
X79192935Y-43748514D02*
X79121507Y-43462800D01*
X79121507Y-43462800D02*
X79121507Y-43105657D01*
X79121507Y-43105657D02*
X79192935Y-42819942D01*
X79192935Y-42819942D02*
X79264364Y-42677085D01*
X79264364Y-42677085D02*
X79335793Y-42605657D01*
X79335793Y-42605657D02*
X79478650Y-42534228D01*
X80692935Y-43962800D02*
X80692935Y-44034228D01*
X80692935Y-44034228D02*
X80621506Y-44177085D01*
X80621506Y-44177085D02*
X80550078Y-44248514D01*
X81621507Y-42534228D02*
X81764364Y-42534228D01*
X81764364Y-42534228D02*
X81907221Y-42605657D01*
X81907221Y-42605657D02*
X81978650Y-42677085D01*
X81978650Y-42677085D02*
X82050078Y-42819942D01*
X82050078Y-42819942D02*
X82121507Y-43105657D01*
X82121507Y-43105657D02*
X82121507Y-43462800D01*
X82121507Y-43462800D02*
X82050078Y-43748514D01*
X82050078Y-43748514D02*
X81978650Y-43891371D01*
X81978650Y-43891371D02*
X81907221Y-43962800D01*
X81907221Y-43962800D02*
X81764364Y-44034228D01*
X81764364Y-44034228D02*
X81621507Y-44034228D01*
X81621507Y-44034228D02*
X81478650Y-43962800D01*
X81478650Y-43962800D02*
X81407221Y-43891371D01*
X81407221Y-43891371D02*
X81335792Y-43748514D01*
X81335792Y-43748514D02*
X81264364Y-43462800D01*
X81264364Y-43462800D02*
X81264364Y-43105657D01*
X81264364Y-43105657D02*
X81335792Y-42819942D01*
X81335792Y-42819942D02*
X81407221Y-42677085D01*
X81407221Y-42677085D02*
X81478650Y-42605657D01*
X81478650Y-42605657D02*
X81621507Y-42534228D01*
X83550078Y-44034228D02*
X82692935Y-44034228D01*
X83121506Y-44034228D02*
X83121506Y-42534228D01*
X83121506Y-42534228D02*
X82978649Y-42748514D01*
X82978649Y-42748514D02*
X82835792Y-42891371D01*
X82835792Y-42891371D02*
X82692935Y-42962800D01*
X85335791Y-44034228D02*
X85335791Y-43034228D01*
X85335791Y-43177085D02*
X85407220Y-43105657D01*
X85407220Y-43105657D02*
X85550077Y-43034228D01*
X85550077Y-43034228D02*
X85764363Y-43034228D01*
X85764363Y-43034228D02*
X85907220Y-43105657D01*
X85907220Y-43105657D02*
X85978649Y-43248514D01*
X85978649Y-43248514D02*
X85978649Y-44034228D01*
X85978649Y-43248514D02*
X86050077Y-43105657D01*
X86050077Y-43105657D02*
X86192934Y-43034228D01*
X86192934Y-43034228D02*
X86407220Y-43034228D01*
X86407220Y-43034228D02*
X86550077Y-43105657D01*
X86550077Y-43105657D02*
X86621506Y-43248514D01*
X86621506Y-43248514D02*
X86621506Y-44034228D01*
X87335791Y-44034228D02*
X87335791Y-43034228D01*
X87335791Y-43177085D02*
X87407220Y-43105657D01*
X87407220Y-43105657D02*
X87550077Y-43034228D01*
X87550077Y-43034228D02*
X87764363Y-43034228D01*
X87764363Y-43034228D02*
X87907220Y-43105657D01*
X87907220Y-43105657D02*
X87978649Y-43248514D01*
X87978649Y-43248514D02*
X87978649Y-44034228D01*
X87978649Y-43248514D02*
X88050077Y-43105657D01*
X88050077Y-43105657D02*
X88192934Y-43034228D01*
X88192934Y-43034228D02*
X88407220Y-43034228D01*
X88407220Y-43034228D02*
X88550077Y-43105657D01*
X88550077Y-43105657D02*
X88621506Y-43248514D01*
X88621506Y-43248514D02*
X88621506Y-44034228D01*
X79978650Y-36822228D02*
X79121507Y-36822228D01*
X79550078Y-36822228D02*
X79550078Y-35322228D01*
X79550078Y-35322228D02*
X79407221Y-35536514D01*
X79407221Y-35536514D02*
X79264364Y-35679371D01*
X79264364Y-35679371D02*
X79121507Y-35750800D01*
X80692935Y-36750800D02*
X80692935Y-36822228D01*
X80692935Y-36822228D02*
X80621506Y-36965085D01*
X80621506Y-36965085D02*
X80550078Y-37036514D01*
X82050078Y-35322228D02*
X81335792Y-35322228D01*
X81335792Y-35322228D02*
X81264364Y-36036514D01*
X81264364Y-36036514D02*
X81335792Y-35965085D01*
X81335792Y-35965085D02*
X81478650Y-35893657D01*
X81478650Y-35893657D02*
X81835792Y-35893657D01*
X81835792Y-35893657D02*
X81978650Y-35965085D01*
X81978650Y-35965085D02*
X82050078Y-36036514D01*
X82050078Y-36036514D02*
X82121507Y-36179371D01*
X82121507Y-36179371D02*
X82121507Y-36536514D01*
X82121507Y-36536514D02*
X82050078Y-36679371D01*
X82050078Y-36679371D02*
X81978650Y-36750800D01*
X81978650Y-36750800D02*
X81835792Y-36822228D01*
X81835792Y-36822228D02*
X81478650Y-36822228D01*
X81478650Y-36822228D02*
X81335792Y-36750800D01*
X81335792Y-36750800D02*
X81264364Y-36679371D01*
X83550078Y-36822228D02*
X82692935Y-36822228D01*
X83121506Y-36822228D02*
X83121506Y-35322228D01*
X83121506Y-35322228D02*
X82978649Y-35536514D01*
X82978649Y-35536514D02*
X82835792Y-35679371D01*
X82835792Y-35679371D02*
X82692935Y-35750800D01*
X85335791Y-36822228D02*
X85335791Y-35822228D01*
X85335791Y-35965085D02*
X85407220Y-35893657D01*
X85407220Y-35893657D02*
X85550077Y-35822228D01*
X85550077Y-35822228D02*
X85764363Y-35822228D01*
X85764363Y-35822228D02*
X85907220Y-35893657D01*
X85907220Y-35893657D02*
X85978649Y-36036514D01*
X85978649Y-36036514D02*
X85978649Y-36822228D01*
X85978649Y-36036514D02*
X86050077Y-35893657D01*
X86050077Y-35893657D02*
X86192934Y-35822228D01*
X86192934Y-35822228D02*
X86407220Y-35822228D01*
X86407220Y-35822228D02*
X86550077Y-35893657D01*
X86550077Y-35893657D02*
X86621506Y-36036514D01*
X86621506Y-36036514D02*
X86621506Y-36822228D01*
X87335791Y-36822228D02*
X87335791Y-35822228D01*
X87335791Y-35965085D02*
X87407220Y-35893657D01*
X87407220Y-35893657D02*
X87550077Y-35822228D01*
X87550077Y-35822228D02*
X87764363Y-35822228D01*
X87764363Y-35822228D02*
X87907220Y-35893657D01*
X87907220Y-35893657D02*
X87978649Y-36036514D01*
X87978649Y-36036514D02*
X87978649Y-36822228D01*
X87978649Y-36036514D02*
X88050077Y-35893657D01*
X88050077Y-35893657D02*
X88192934Y-35822228D01*
X88192934Y-35822228D02*
X88407220Y-35822228D01*
X88407220Y-35822228D02*
X88550077Y-35893657D01*
X88550077Y-35893657D02*
X88621506Y-36036514D01*
X88621506Y-36036514D02*
X88621506Y-36822228D01*
X18920000Y-27294000D02*
X144248576Y-27294000D01*
X79478650Y-31716228D02*
X79621507Y-31716228D01*
X79621507Y-31716228D02*
X79764364Y-31787657D01*
X79764364Y-31787657D02*
X79835793Y-31859085D01*
X79835793Y-31859085D02*
X79907221Y-32001942D01*
X79907221Y-32001942D02*
X79978650Y-32287657D01*
X79978650Y-32287657D02*
X79978650Y-32644800D01*
X79978650Y-32644800D02*
X79907221Y-32930514D01*
X79907221Y-32930514D02*
X79835793Y-33073371D01*
X79835793Y-33073371D02*
X79764364Y-33144800D01*
X79764364Y-33144800D02*
X79621507Y-33216228D01*
X79621507Y-33216228D02*
X79478650Y-33216228D01*
X79478650Y-33216228D02*
X79335793Y-33144800D01*
X79335793Y-33144800D02*
X79264364Y-33073371D01*
X79264364Y-33073371D02*
X79192935Y-32930514D01*
X79192935Y-32930514D02*
X79121507Y-32644800D01*
X79121507Y-32644800D02*
X79121507Y-32287657D01*
X79121507Y-32287657D02*
X79192935Y-32001942D01*
X79192935Y-32001942D02*
X79264364Y-31859085D01*
X79264364Y-31859085D02*
X79335793Y-31787657D01*
X79335793Y-31787657D02*
X79478650Y-31716228D01*
X80692935Y-33144800D02*
X80692935Y-33216228D01*
X80692935Y-33216228D02*
X80621506Y-33359085D01*
X80621506Y-33359085D02*
X80550078Y-33430514D01*
X81621507Y-31716228D02*
X81764364Y-31716228D01*
X81764364Y-31716228D02*
X81907221Y-31787657D01*
X81907221Y-31787657D02*
X81978650Y-31859085D01*
X81978650Y-31859085D02*
X82050078Y-32001942D01*
X82050078Y-32001942D02*
X82121507Y-32287657D01*
X82121507Y-32287657D02*
X82121507Y-32644800D01*
X82121507Y-32644800D02*
X82050078Y-32930514D01*
X82050078Y-32930514D02*
X81978650Y-33073371D01*
X81978650Y-33073371D02*
X81907221Y-33144800D01*
X81907221Y-33144800D02*
X81764364Y-33216228D01*
X81764364Y-33216228D02*
X81621507Y-33216228D01*
X81621507Y-33216228D02*
X81478650Y-33144800D01*
X81478650Y-33144800D02*
X81407221Y-33073371D01*
X81407221Y-33073371D02*
X81335792Y-32930514D01*
X81335792Y-32930514D02*
X81264364Y-32644800D01*
X81264364Y-32644800D02*
X81264364Y-32287657D01*
X81264364Y-32287657D02*
X81335792Y-32001942D01*
X81335792Y-32001942D02*
X81407221Y-31859085D01*
X81407221Y-31859085D02*
X81478650Y-31787657D01*
X81478650Y-31787657D02*
X81621507Y-31716228D01*
X82621506Y-31716228D02*
X83550078Y-31716228D01*
X83550078Y-31716228D02*
X83050078Y-32287657D01*
X83050078Y-32287657D02*
X83264363Y-32287657D01*
X83264363Y-32287657D02*
X83407221Y-32359085D01*
X83407221Y-32359085D02*
X83478649Y-32430514D01*
X83478649Y-32430514D02*
X83550078Y-32573371D01*
X83550078Y-32573371D02*
X83550078Y-32930514D01*
X83550078Y-32930514D02*
X83478649Y-33073371D01*
X83478649Y-33073371D02*
X83407221Y-33144800D01*
X83407221Y-33144800D02*
X83264363Y-33216228D01*
X83264363Y-33216228D02*
X82835792Y-33216228D01*
X82835792Y-33216228D02*
X82692935Y-33144800D01*
X82692935Y-33144800D02*
X82621506Y-33073371D01*
X84907220Y-31716228D02*
X84192934Y-31716228D01*
X84192934Y-31716228D02*
X84121506Y-32430514D01*
X84121506Y-32430514D02*
X84192934Y-32359085D01*
X84192934Y-32359085D02*
X84335792Y-32287657D01*
X84335792Y-32287657D02*
X84692934Y-32287657D01*
X84692934Y-32287657D02*
X84835792Y-32359085D01*
X84835792Y-32359085D02*
X84907220Y-32430514D01*
X84907220Y-32430514D02*
X84978649Y-32573371D01*
X84978649Y-32573371D02*
X84978649Y-32930514D01*
X84978649Y-32930514D02*
X84907220Y-33073371D01*
X84907220Y-33073371D02*
X84835792Y-33144800D01*
X84835792Y-33144800D02*
X84692934Y-33216228D01*
X84692934Y-33216228D02*
X84335792Y-33216228D01*
X84335792Y-33216228D02*
X84192934Y-33144800D01*
X84192934Y-33144800D02*
X84121506Y-33073371D01*
X86764362Y-33216228D02*
X86764362Y-32216228D01*
X86764362Y-32359085D02*
X86835791Y-32287657D01*
X86835791Y-32287657D02*
X86978648Y-32216228D01*
X86978648Y-32216228D02*
X87192934Y-32216228D01*
X87192934Y-32216228D02*
X87335791Y-32287657D01*
X87335791Y-32287657D02*
X87407220Y-32430514D01*
X87407220Y-32430514D02*
X87407220Y-33216228D01*
X87407220Y-32430514D02*
X87478648Y-32287657D01*
X87478648Y-32287657D02*
X87621505Y-32216228D01*
X87621505Y-32216228D02*
X87835791Y-32216228D01*
X87835791Y-32216228D02*
X87978648Y-32287657D01*
X87978648Y-32287657D02*
X88050077Y-32430514D01*
X88050077Y-32430514D02*
X88050077Y-33216228D01*
X88764362Y-33216228D02*
X88764362Y-32216228D01*
X88764362Y-32359085D02*
X88835791Y-32287657D01*
X88835791Y-32287657D02*
X88978648Y-32216228D01*
X88978648Y-32216228D02*
X89192934Y-32216228D01*
X89192934Y-32216228D02*
X89335791Y-32287657D01*
X89335791Y-32287657D02*
X89407220Y-32430514D01*
X89407220Y-32430514D02*
X89407220Y-33216228D01*
X89407220Y-32430514D02*
X89478648Y-32287657D01*
X89478648Y-32287657D02*
X89621505Y-32216228D01*
X89621505Y-32216228D02*
X89835791Y-32216228D01*
X89835791Y-32216228D02*
X89978648Y-32287657D01*
X89978648Y-32287657D02*
X90050077Y-32430514D01*
X90050077Y-32430514D02*
X90050077Y-33216228D01*
X64121505Y-47640228D02*
X63407219Y-47640228D01*
X63407219Y-47640228D02*
X63407219Y-46140228D01*
X64621505Y-47640228D02*
X64621505Y-46640228D01*
X64621505Y-46140228D02*
X64550077Y-46211657D01*
X64550077Y-46211657D02*
X64621505Y-46283085D01*
X64621505Y-46283085D02*
X64692934Y-46211657D01*
X64692934Y-46211657D02*
X64621505Y-46140228D01*
X64621505Y-46140228D02*
X64621505Y-46283085D01*
X65978649Y-46640228D02*
X65978649Y-48140228D01*
X65978649Y-47568800D02*
X65835791Y-47640228D01*
X65835791Y-47640228D02*
X65550077Y-47640228D01*
X65550077Y-47640228D02*
X65407220Y-47568800D01*
X65407220Y-47568800D02*
X65335791Y-47497371D01*
X65335791Y-47497371D02*
X65264363Y-47354514D01*
X65264363Y-47354514D02*
X65264363Y-46925942D01*
X65264363Y-46925942D02*
X65335791Y-46783085D01*
X65335791Y-46783085D02*
X65407220Y-46711657D01*
X65407220Y-46711657D02*
X65550077Y-46640228D01*
X65550077Y-46640228D02*
X65835791Y-46640228D01*
X65835791Y-46640228D02*
X65978649Y-46711657D01*
X67335792Y-46640228D02*
X67335792Y-47640228D01*
X66692934Y-46640228D02*
X66692934Y-47425942D01*
X66692934Y-47425942D02*
X66764363Y-47568800D01*
X66764363Y-47568800D02*
X66907220Y-47640228D01*
X66907220Y-47640228D02*
X67121506Y-47640228D01*
X67121506Y-47640228D02*
X67264363Y-47568800D01*
X67264363Y-47568800D02*
X67335792Y-47497371D01*
X68050077Y-47640228D02*
X68050077Y-46640228D01*
X68050077Y-46140228D02*
X67978649Y-46211657D01*
X67978649Y-46211657D02*
X68050077Y-46283085D01*
X68050077Y-46283085D02*
X68121506Y-46211657D01*
X68121506Y-46211657D02*
X68050077Y-46140228D01*
X68050077Y-46140228D02*
X68050077Y-46283085D01*
X69407221Y-47640228D02*
X69407221Y-46140228D01*
X69407221Y-47568800D02*
X69264363Y-47640228D01*
X69264363Y-47640228D02*
X68978649Y-47640228D01*
X68978649Y-47640228D02*
X68835792Y-47568800D01*
X68835792Y-47568800D02*
X68764363Y-47497371D01*
X68764363Y-47497371D02*
X68692935Y-47354514D01*
X68692935Y-47354514D02*
X68692935Y-46925942D01*
X68692935Y-46925942D02*
X68764363Y-46783085D01*
X68764363Y-46783085D02*
X68835792Y-46711657D01*
X68835792Y-46711657D02*
X68978649Y-46640228D01*
X68978649Y-46640228D02*
X69264363Y-46640228D01*
X69264363Y-46640228D02*
X69407221Y-46711657D01*
X71264363Y-47640228D02*
X71264363Y-46140228D01*
X71264363Y-46140228D02*
X71835792Y-46140228D01*
X71835792Y-46140228D02*
X71978649Y-46211657D01*
X71978649Y-46211657D02*
X72050078Y-46283085D01*
X72050078Y-46283085D02*
X72121506Y-46425942D01*
X72121506Y-46425942D02*
X72121506Y-46640228D01*
X72121506Y-46640228D02*
X72050078Y-46783085D01*
X72050078Y-46783085D02*
X71978649Y-46854514D01*
X71978649Y-46854514D02*
X71835792Y-46925942D01*
X71835792Y-46925942D02*
X71264363Y-46925942D01*
X72764363Y-47640228D02*
X72764363Y-46140228D01*
X73407221Y-47640228D02*
X73407221Y-46854514D01*
X73407221Y-46854514D02*
X73335792Y-46711657D01*
X73335792Y-46711657D02*
X73192935Y-46640228D01*
X73192935Y-46640228D02*
X72978649Y-46640228D01*
X72978649Y-46640228D02*
X72835792Y-46711657D01*
X72835792Y-46711657D02*
X72764363Y-46783085D01*
X74335792Y-47640228D02*
X74192935Y-47568800D01*
X74192935Y-47568800D02*
X74121506Y-47497371D01*
X74121506Y-47497371D02*
X74050078Y-47354514D01*
X74050078Y-47354514D02*
X74050078Y-46925942D01*
X74050078Y-46925942D02*
X74121506Y-46783085D01*
X74121506Y-46783085D02*
X74192935Y-46711657D01*
X74192935Y-46711657D02*
X74335792Y-46640228D01*
X74335792Y-46640228D02*
X74550078Y-46640228D01*
X74550078Y-46640228D02*
X74692935Y-46711657D01*
X74692935Y-46711657D02*
X74764364Y-46783085D01*
X74764364Y-46783085D02*
X74835792Y-46925942D01*
X74835792Y-46925942D02*
X74835792Y-47354514D01*
X74835792Y-47354514D02*
X74764364Y-47497371D01*
X74764364Y-47497371D02*
X74692935Y-47568800D01*
X74692935Y-47568800D02*
X74550078Y-47640228D01*
X74550078Y-47640228D02*
X74335792Y-47640228D01*
X75264364Y-46640228D02*
X75835792Y-46640228D01*
X75478649Y-46140228D02*
X75478649Y-47425942D01*
X75478649Y-47425942D02*
X75550078Y-47568800D01*
X75550078Y-47568800D02*
X75692935Y-47640228D01*
X75692935Y-47640228D02*
X75835792Y-47640228D01*
X76550078Y-47640228D02*
X76407221Y-47568800D01*
X76407221Y-47568800D02*
X76335792Y-47497371D01*
X76335792Y-47497371D02*
X76264364Y-47354514D01*
X76264364Y-47354514D02*
X76264364Y-46925942D01*
X76264364Y-46925942D02*
X76335792Y-46783085D01*
X76335792Y-46783085D02*
X76407221Y-46711657D01*
X76407221Y-46711657D02*
X76550078Y-46640228D01*
X76550078Y-46640228D02*
X76764364Y-46640228D01*
X76764364Y-46640228D02*
X76907221Y-46711657D01*
X76907221Y-46711657D02*
X76978650Y-46783085D01*
X76978650Y-46783085D02*
X77050078Y-46925942D01*
X77050078Y-46925942D02*
X77050078Y-47354514D01*
X77050078Y-47354514D02*
X76978650Y-47497371D01*
X76978650Y-47497371D02*
X76907221Y-47568800D01*
X76907221Y-47568800D02*
X76764364Y-47640228D01*
X76764364Y-47640228D02*
X76550078Y-47640228D01*
X79478650Y-24504228D02*
X79621507Y-24504228D01*
X79621507Y-24504228D02*
X79764364Y-24575657D01*
X79764364Y-24575657D02*
X79835793Y-24647085D01*
X79835793Y-24647085D02*
X79907221Y-24789942D01*
X79907221Y-24789942D02*
X79978650Y-25075657D01*
X79978650Y-25075657D02*
X79978650Y-25432800D01*
X79978650Y-25432800D02*
X79907221Y-25718514D01*
X79907221Y-25718514D02*
X79835793Y-25861371D01*
X79835793Y-25861371D02*
X79764364Y-25932800D01*
X79764364Y-25932800D02*
X79621507Y-26004228D01*
X79621507Y-26004228D02*
X79478650Y-26004228D01*
X79478650Y-26004228D02*
X79335793Y-25932800D01*
X79335793Y-25932800D02*
X79264364Y-25861371D01*
X79264364Y-25861371D02*
X79192935Y-25718514D01*
X79192935Y-25718514D02*
X79121507Y-25432800D01*
X79121507Y-25432800D02*
X79121507Y-25075657D01*
X79121507Y-25075657D02*
X79192935Y-24789942D01*
X79192935Y-24789942D02*
X79264364Y-24647085D01*
X79264364Y-24647085D02*
X79335793Y-24575657D01*
X79335793Y-24575657D02*
X79478650Y-24504228D01*
X81764363Y-26004228D02*
X81764363Y-25004228D01*
X81764363Y-25147085D02*
X81835792Y-25075657D01*
X81835792Y-25075657D02*
X81978649Y-25004228D01*
X81978649Y-25004228D02*
X82192935Y-25004228D01*
X82192935Y-25004228D02*
X82335792Y-25075657D01*
X82335792Y-25075657D02*
X82407221Y-25218514D01*
X82407221Y-25218514D02*
X82407221Y-26004228D01*
X82407221Y-25218514D02*
X82478649Y-25075657D01*
X82478649Y-25075657D02*
X82621506Y-25004228D01*
X82621506Y-25004228D02*
X82835792Y-25004228D01*
X82835792Y-25004228D02*
X82978649Y-25075657D01*
X82978649Y-25075657D02*
X83050078Y-25218514D01*
X83050078Y-25218514D02*
X83050078Y-26004228D01*
X83764363Y-26004228D02*
X83764363Y-25004228D01*
X83764363Y-25147085D02*
X83835792Y-25075657D01*
X83835792Y-25075657D02*
X83978649Y-25004228D01*
X83978649Y-25004228D02*
X84192935Y-25004228D01*
X84192935Y-25004228D02*
X84335792Y-25075657D01*
X84335792Y-25075657D02*
X84407221Y-25218514D01*
X84407221Y-25218514D02*
X84407221Y-26004228D01*
X84407221Y-25218514D02*
X84478649Y-25075657D01*
X84478649Y-25075657D02*
X84621506Y-25004228D01*
X84621506Y-25004228D02*
X84835792Y-25004228D01*
X84835792Y-25004228D02*
X84978649Y-25075657D01*
X84978649Y-25075657D02*
X85050078Y-25218514D01*
X85050078Y-25218514D02*
X85050078Y-26004228D01*
X64121505Y-44034228D02*
X63407219Y-44034228D01*
X63407219Y-44034228D02*
X63407219Y-42534228D01*
X64621505Y-44034228D02*
X64621505Y-43034228D01*
X64621505Y-42534228D02*
X64550077Y-42605657D01*
X64550077Y-42605657D02*
X64621505Y-42677085D01*
X64621505Y-42677085D02*
X64692934Y-42605657D01*
X64692934Y-42605657D02*
X64621505Y-42534228D01*
X64621505Y-42534228D02*
X64621505Y-42677085D01*
X65978649Y-43034228D02*
X65978649Y-44534228D01*
X65978649Y-43962800D02*
X65835791Y-44034228D01*
X65835791Y-44034228D02*
X65550077Y-44034228D01*
X65550077Y-44034228D02*
X65407220Y-43962800D01*
X65407220Y-43962800D02*
X65335791Y-43891371D01*
X65335791Y-43891371D02*
X65264363Y-43748514D01*
X65264363Y-43748514D02*
X65264363Y-43319942D01*
X65264363Y-43319942D02*
X65335791Y-43177085D01*
X65335791Y-43177085D02*
X65407220Y-43105657D01*
X65407220Y-43105657D02*
X65550077Y-43034228D01*
X65550077Y-43034228D02*
X65835791Y-43034228D01*
X65835791Y-43034228D02*
X65978649Y-43105657D01*
X67335792Y-43034228D02*
X67335792Y-44034228D01*
X66692934Y-43034228D02*
X66692934Y-43819942D01*
X66692934Y-43819942D02*
X66764363Y-43962800D01*
X66764363Y-43962800D02*
X66907220Y-44034228D01*
X66907220Y-44034228D02*
X67121506Y-44034228D01*
X67121506Y-44034228D02*
X67264363Y-43962800D01*
X67264363Y-43962800D02*
X67335792Y-43891371D01*
X68050077Y-44034228D02*
X68050077Y-43034228D01*
X68050077Y-42534228D02*
X67978649Y-42605657D01*
X67978649Y-42605657D02*
X68050077Y-42677085D01*
X68050077Y-42677085D02*
X68121506Y-42605657D01*
X68121506Y-42605657D02*
X68050077Y-42534228D01*
X68050077Y-42534228D02*
X68050077Y-42677085D01*
X69407221Y-44034228D02*
X69407221Y-42534228D01*
X69407221Y-43962800D02*
X69264363Y-44034228D01*
X69264363Y-44034228D02*
X68978649Y-44034228D01*
X68978649Y-44034228D02*
X68835792Y-43962800D01*
X68835792Y-43962800D02*
X68764363Y-43891371D01*
X68764363Y-43891371D02*
X68692935Y-43748514D01*
X68692935Y-43748514D02*
X68692935Y-43319942D01*
X68692935Y-43319942D02*
X68764363Y-43177085D01*
X68764363Y-43177085D02*
X68835792Y-43105657D01*
X68835792Y-43105657D02*
X68978649Y-43034228D01*
X68978649Y-43034228D02*
X69264363Y-43034228D01*
X69264363Y-43034228D02*
X69407221Y-43105657D01*
X71264363Y-44034228D02*
X71264363Y-42534228D01*
X71978649Y-43034228D02*
X71978649Y-44034228D01*
X71978649Y-43177085D02*
X72050078Y-43105657D01*
X72050078Y-43105657D02*
X72192935Y-43034228D01*
X72192935Y-43034228D02*
X72407221Y-43034228D01*
X72407221Y-43034228D02*
X72550078Y-43105657D01*
X72550078Y-43105657D02*
X72621507Y-43248514D01*
X72621507Y-43248514D02*
X72621507Y-44034228D01*
X73335792Y-44034228D02*
X73335792Y-42534228D01*
X73478650Y-43462800D02*
X73907221Y-44034228D01*
X73907221Y-43034228D02*
X73335792Y-43605657D01*
X100007221Y-24504228D02*
X100364364Y-26004228D01*
X100364364Y-26004228D02*
X100650078Y-24932800D01*
X100650078Y-24932800D02*
X100935793Y-26004228D01*
X100935793Y-26004228D02*
X101292936Y-24504228D01*
X101864364Y-26004228D02*
X101864364Y-24504228D01*
X102507222Y-26004228D02*
X102507222Y-25218514D01*
X102507222Y-25218514D02*
X102435793Y-25075657D01*
X102435793Y-25075657D02*
X102292936Y-25004228D01*
X102292936Y-25004228D02*
X102078650Y-25004228D01*
X102078650Y-25004228D02*
X101935793Y-25075657D01*
X101935793Y-25075657D02*
X101864364Y-25147085D01*
X103221507Y-26004228D02*
X103221507Y-25004228D01*
X103221507Y-24504228D02*
X103150079Y-24575657D01*
X103150079Y-24575657D02*
X103221507Y-24647085D01*
X103221507Y-24647085D02*
X103292936Y-24575657D01*
X103292936Y-24575657D02*
X103221507Y-24504228D01*
X103221507Y-24504228D02*
X103221507Y-24647085D01*
X103721508Y-25004228D02*
X104292936Y-25004228D01*
X103935793Y-24504228D02*
X103935793Y-25789942D01*
X103935793Y-25789942D02*
X104007222Y-25932800D01*
X104007222Y-25932800D02*
X104150079Y-26004228D01*
X104150079Y-26004228D02*
X104292936Y-26004228D01*
X105364365Y-25932800D02*
X105221508Y-26004228D01*
X105221508Y-26004228D02*
X104935794Y-26004228D01*
X104935794Y-26004228D02*
X104792936Y-25932800D01*
X104792936Y-25932800D02*
X104721508Y-25789942D01*
X104721508Y-25789942D02*
X104721508Y-25218514D01*
X104721508Y-25218514D02*
X104792936Y-25075657D01*
X104792936Y-25075657D02*
X104935794Y-25004228D01*
X104935794Y-25004228D02*
X105221508Y-25004228D01*
X105221508Y-25004228D02*
X105364365Y-25075657D01*
X105364365Y-25075657D02*
X105435794Y-25218514D01*
X105435794Y-25218514D02*
X105435794Y-25361371D01*
X105435794Y-25361371D02*
X104721508Y-25504228D01*
X64121505Y-29610228D02*
X63407219Y-29610228D01*
X63407219Y-29610228D02*
X63407219Y-28110228D01*
X64621505Y-29610228D02*
X64621505Y-28610228D01*
X64621505Y-28110228D02*
X64550077Y-28181657D01*
X64550077Y-28181657D02*
X64621505Y-28253085D01*
X64621505Y-28253085D02*
X64692934Y-28181657D01*
X64692934Y-28181657D02*
X64621505Y-28110228D01*
X64621505Y-28110228D02*
X64621505Y-28253085D01*
X65978649Y-28610228D02*
X65978649Y-30110228D01*
X65978649Y-29538800D02*
X65835791Y-29610228D01*
X65835791Y-29610228D02*
X65550077Y-29610228D01*
X65550077Y-29610228D02*
X65407220Y-29538800D01*
X65407220Y-29538800D02*
X65335791Y-29467371D01*
X65335791Y-29467371D02*
X65264363Y-29324514D01*
X65264363Y-29324514D02*
X65264363Y-28895942D01*
X65264363Y-28895942D02*
X65335791Y-28753085D01*
X65335791Y-28753085D02*
X65407220Y-28681657D01*
X65407220Y-28681657D02*
X65550077Y-28610228D01*
X65550077Y-28610228D02*
X65835791Y-28610228D01*
X65835791Y-28610228D02*
X65978649Y-28681657D01*
X67335792Y-28610228D02*
X67335792Y-29610228D01*
X66692934Y-28610228D02*
X66692934Y-29395942D01*
X66692934Y-29395942D02*
X66764363Y-29538800D01*
X66764363Y-29538800D02*
X66907220Y-29610228D01*
X66907220Y-29610228D02*
X67121506Y-29610228D01*
X67121506Y-29610228D02*
X67264363Y-29538800D01*
X67264363Y-29538800D02*
X67335792Y-29467371D01*
X68050077Y-29610228D02*
X68050077Y-28610228D01*
X68050077Y-28110228D02*
X67978649Y-28181657D01*
X67978649Y-28181657D02*
X68050077Y-28253085D01*
X68050077Y-28253085D02*
X68121506Y-28181657D01*
X68121506Y-28181657D02*
X68050077Y-28110228D01*
X68050077Y-28110228D02*
X68050077Y-28253085D01*
X69407221Y-29610228D02*
X69407221Y-28110228D01*
X69407221Y-29538800D02*
X69264363Y-29610228D01*
X69264363Y-29610228D02*
X68978649Y-29610228D01*
X68978649Y-29610228D02*
X68835792Y-29538800D01*
X68835792Y-29538800D02*
X68764363Y-29467371D01*
X68764363Y-29467371D02*
X68692935Y-29324514D01*
X68692935Y-29324514D02*
X68692935Y-28895942D01*
X68692935Y-28895942D02*
X68764363Y-28753085D01*
X68764363Y-28753085D02*
X68835792Y-28681657D01*
X68835792Y-28681657D02*
X68978649Y-28610228D01*
X68978649Y-28610228D02*
X69264363Y-28610228D01*
X69264363Y-28610228D02*
X69407221Y-28681657D01*
X71264363Y-29610228D02*
X71264363Y-28110228D01*
X71978649Y-28610228D02*
X71978649Y-29610228D01*
X71978649Y-28753085D02*
X72050078Y-28681657D01*
X72050078Y-28681657D02*
X72192935Y-28610228D01*
X72192935Y-28610228D02*
X72407221Y-28610228D01*
X72407221Y-28610228D02*
X72550078Y-28681657D01*
X72550078Y-28681657D02*
X72621507Y-28824514D01*
X72621507Y-28824514D02*
X72621507Y-29610228D01*
X73335792Y-29610228D02*
X73335792Y-28110228D01*
X73478650Y-29038800D02*
X73907221Y-29610228D01*
X73907221Y-28610228D02*
X73335792Y-29181657D01*
D11*
X63538798Y-21685828D02*
X63538798Y-20185828D01*
X63538798Y-20185828D02*
X64038798Y-21257257D01*
X64038798Y-21257257D02*
X64538798Y-20185828D01*
X64538798Y-20185828D02*
X64538798Y-21685828D01*
X65895942Y-21685828D02*
X65895942Y-20900114D01*
X65895942Y-20900114D02*
X65824513Y-20757257D01*
X65824513Y-20757257D02*
X65681656Y-20685828D01*
X65681656Y-20685828D02*
X65395942Y-20685828D01*
X65395942Y-20685828D02*
X65253084Y-20757257D01*
X65895942Y-21614400D02*
X65753084Y-21685828D01*
X65753084Y-21685828D02*
X65395942Y-21685828D01*
X65395942Y-21685828D02*
X65253084Y-21614400D01*
X65253084Y-21614400D02*
X65181656Y-21471542D01*
X65181656Y-21471542D02*
X65181656Y-21328685D01*
X65181656Y-21328685D02*
X65253084Y-21185828D01*
X65253084Y-21185828D02*
X65395942Y-21114400D01*
X65395942Y-21114400D02*
X65753084Y-21114400D01*
X65753084Y-21114400D02*
X65895942Y-21042971D01*
X66395942Y-20685828D02*
X66967370Y-20685828D01*
X66610227Y-20185828D02*
X66610227Y-21471542D01*
X66610227Y-21471542D02*
X66681656Y-21614400D01*
X66681656Y-21614400D02*
X66824513Y-21685828D01*
X66824513Y-21685828D02*
X66967370Y-21685828D01*
X68038799Y-21614400D02*
X67895942Y-21685828D01*
X67895942Y-21685828D02*
X67610228Y-21685828D01*
X67610228Y-21685828D02*
X67467370Y-21614400D01*
X67467370Y-21614400D02*
X67395942Y-21471542D01*
X67395942Y-21471542D02*
X67395942Y-20900114D01*
X67395942Y-20900114D02*
X67467370Y-20757257D01*
X67467370Y-20757257D02*
X67610228Y-20685828D01*
X67610228Y-20685828D02*
X67895942Y-20685828D01*
X67895942Y-20685828D02*
X68038799Y-20757257D01*
X68038799Y-20757257D02*
X68110228Y-20900114D01*
X68110228Y-20900114D02*
X68110228Y-21042971D01*
X68110228Y-21042971D02*
X67395942Y-21185828D01*
X68753084Y-21685828D02*
X68753084Y-20685828D01*
X68753084Y-20971542D02*
X68824513Y-20828685D01*
X68824513Y-20828685D02*
X68895942Y-20757257D01*
X68895942Y-20757257D02*
X69038799Y-20685828D01*
X69038799Y-20685828D02*
X69181656Y-20685828D01*
X69681655Y-21685828D02*
X69681655Y-20685828D01*
X69681655Y-20185828D02*
X69610227Y-20257257D01*
X69610227Y-20257257D02*
X69681655Y-20328685D01*
X69681655Y-20328685D02*
X69753084Y-20257257D01*
X69753084Y-20257257D02*
X69681655Y-20185828D01*
X69681655Y-20185828D02*
X69681655Y-20328685D01*
X71038799Y-21685828D02*
X71038799Y-20900114D01*
X71038799Y-20900114D02*
X70967370Y-20757257D01*
X70967370Y-20757257D02*
X70824513Y-20685828D01*
X70824513Y-20685828D02*
X70538799Y-20685828D01*
X70538799Y-20685828D02*
X70395941Y-20757257D01*
X71038799Y-21614400D02*
X70895941Y-21685828D01*
X70895941Y-21685828D02*
X70538799Y-21685828D01*
X70538799Y-21685828D02*
X70395941Y-21614400D01*
X70395941Y-21614400D02*
X70324513Y-21471542D01*
X70324513Y-21471542D02*
X70324513Y-21328685D01*
X70324513Y-21328685D02*
X70395941Y-21185828D01*
X70395941Y-21185828D02*
X70538799Y-21114400D01*
X70538799Y-21114400D02*
X70895941Y-21114400D01*
X70895941Y-21114400D02*
X71038799Y-21042971D01*
X71967370Y-21685828D02*
X71824513Y-21614400D01*
X71824513Y-21614400D02*
X71753084Y-21471542D01*
X71753084Y-21471542D02*
X71753084Y-20185828D01*
X71538799Y-20971542D02*
X71967370Y-20685828D01*
D10*
X114864363Y-42534228D02*
X115792935Y-42534228D01*
X115792935Y-42534228D02*
X115292935Y-43105657D01*
X115292935Y-43105657D02*
X115507220Y-43105657D01*
X115507220Y-43105657D02*
X115650078Y-43177085D01*
X115650078Y-43177085D02*
X115721506Y-43248514D01*
X115721506Y-43248514D02*
X115792935Y-43391371D01*
X115792935Y-43391371D02*
X115792935Y-43748514D01*
X115792935Y-43748514D02*
X115721506Y-43891371D01*
X115721506Y-43891371D02*
X115650078Y-43962800D01*
X115650078Y-43962800D02*
X115507220Y-44034228D01*
X115507220Y-44034228D02*
X115078649Y-44034228D01*
X115078649Y-44034228D02*
X114935792Y-43962800D01*
X114935792Y-43962800D02*
X114864363Y-43891371D01*
X116507220Y-43962800D02*
X116507220Y-44034228D01*
X116507220Y-44034228D02*
X116435791Y-44177085D01*
X116435791Y-44177085D02*
X116364363Y-44248514D01*
X117007220Y-42534228D02*
X117935792Y-42534228D01*
X117935792Y-42534228D02*
X117435792Y-43105657D01*
X117435792Y-43105657D02*
X117650077Y-43105657D01*
X117650077Y-43105657D02*
X117792935Y-43177085D01*
X117792935Y-43177085D02*
X117864363Y-43248514D01*
X117864363Y-43248514D02*
X117935792Y-43391371D01*
X117935792Y-43391371D02*
X117935792Y-43748514D01*
X117935792Y-43748514D02*
X117864363Y-43891371D01*
X117864363Y-43891371D02*
X117792935Y-43962800D01*
X117792935Y-43962800D02*
X117650077Y-44034228D01*
X117650077Y-44034228D02*
X117221506Y-44034228D01*
X117221506Y-44034228D02*
X117078649Y-43962800D01*
X117078649Y-43962800D02*
X117007220Y-43891371D01*
X39550076Y-46854514D02*
X39764362Y-46925942D01*
X39764362Y-46925942D02*
X39835791Y-46997371D01*
X39835791Y-46997371D02*
X39907219Y-47140228D01*
X39907219Y-47140228D02*
X39907219Y-47354514D01*
X39907219Y-47354514D02*
X39835791Y-47497371D01*
X39835791Y-47497371D02*
X39764362Y-47568800D01*
X39764362Y-47568800D02*
X39621505Y-47640228D01*
X39621505Y-47640228D02*
X39050076Y-47640228D01*
X39050076Y-47640228D02*
X39050076Y-46140228D01*
X39050076Y-46140228D02*
X39550076Y-46140228D01*
X39550076Y-46140228D02*
X39692934Y-46211657D01*
X39692934Y-46211657D02*
X39764362Y-46283085D01*
X39764362Y-46283085D02*
X39835791Y-46425942D01*
X39835791Y-46425942D02*
X39835791Y-46568800D01*
X39835791Y-46568800D02*
X39764362Y-46711657D01*
X39764362Y-46711657D02*
X39692934Y-46783085D01*
X39692934Y-46783085D02*
X39550076Y-46854514D01*
X39550076Y-46854514D02*
X39050076Y-46854514D01*
X40764362Y-47640228D02*
X40621505Y-47568800D01*
X40621505Y-47568800D02*
X40550076Y-47497371D01*
X40550076Y-47497371D02*
X40478648Y-47354514D01*
X40478648Y-47354514D02*
X40478648Y-46925942D01*
X40478648Y-46925942D02*
X40550076Y-46783085D01*
X40550076Y-46783085D02*
X40621505Y-46711657D01*
X40621505Y-46711657D02*
X40764362Y-46640228D01*
X40764362Y-46640228D02*
X40978648Y-46640228D01*
X40978648Y-46640228D02*
X41121505Y-46711657D01*
X41121505Y-46711657D02*
X41192934Y-46783085D01*
X41192934Y-46783085D02*
X41264362Y-46925942D01*
X41264362Y-46925942D02*
X41264362Y-47354514D01*
X41264362Y-47354514D02*
X41192934Y-47497371D01*
X41192934Y-47497371D02*
X41121505Y-47568800D01*
X41121505Y-47568800D02*
X40978648Y-47640228D01*
X40978648Y-47640228D02*
X40764362Y-47640228D01*
X41692934Y-46640228D02*
X42264362Y-46640228D01*
X41907219Y-46140228D02*
X41907219Y-47425942D01*
X41907219Y-47425942D02*
X41978648Y-47568800D01*
X41978648Y-47568800D02*
X42121505Y-47640228D01*
X42121505Y-47640228D02*
X42264362Y-47640228D01*
X42550077Y-46640228D02*
X43121505Y-46640228D01*
X42764362Y-46140228D02*
X42764362Y-47425942D01*
X42764362Y-47425942D02*
X42835791Y-47568800D01*
X42835791Y-47568800D02*
X42978648Y-47640228D01*
X42978648Y-47640228D02*
X43121505Y-47640228D01*
X43835791Y-47640228D02*
X43692934Y-47568800D01*
X43692934Y-47568800D02*
X43621505Y-47497371D01*
X43621505Y-47497371D02*
X43550077Y-47354514D01*
X43550077Y-47354514D02*
X43550077Y-46925942D01*
X43550077Y-46925942D02*
X43621505Y-46783085D01*
X43621505Y-46783085D02*
X43692934Y-46711657D01*
X43692934Y-46711657D02*
X43835791Y-46640228D01*
X43835791Y-46640228D02*
X44050077Y-46640228D01*
X44050077Y-46640228D02*
X44192934Y-46711657D01*
X44192934Y-46711657D02*
X44264363Y-46783085D01*
X44264363Y-46783085D02*
X44335791Y-46925942D01*
X44335791Y-46925942D02*
X44335791Y-47354514D01*
X44335791Y-47354514D02*
X44264363Y-47497371D01*
X44264363Y-47497371D02*
X44192934Y-47568800D01*
X44192934Y-47568800D02*
X44050077Y-47640228D01*
X44050077Y-47640228D02*
X43835791Y-47640228D01*
X44978648Y-47640228D02*
X44978648Y-46640228D01*
X44978648Y-46783085D02*
X45050077Y-46711657D01*
X45050077Y-46711657D02*
X45192934Y-46640228D01*
X45192934Y-46640228D02*
X45407220Y-46640228D01*
X45407220Y-46640228D02*
X45550077Y-46711657D01*
X45550077Y-46711657D02*
X45621506Y-46854514D01*
X45621506Y-46854514D02*
X45621506Y-47640228D01*
X45621506Y-46854514D02*
X45692934Y-46711657D01*
X45692934Y-46711657D02*
X45835791Y-46640228D01*
X45835791Y-46640228D02*
X46050077Y-46640228D01*
X46050077Y-46640228D02*
X46192934Y-46711657D01*
X46192934Y-46711657D02*
X46264363Y-46854514D01*
X46264363Y-46854514D02*
X46264363Y-47640228D01*
X48050077Y-47568800D02*
X48264363Y-47640228D01*
X48264363Y-47640228D02*
X48621505Y-47640228D01*
X48621505Y-47640228D02*
X48764363Y-47568800D01*
X48764363Y-47568800D02*
X48835791Y-47497371D01*
X48835791Y-47497371D02*
X48907220Y-47354514D01*
X48907220Y-47354514D02*
X48907220Y-47211657D01*
X48907220Y-47211657D02*
X48835791Y-47068800D01*
X48835791Y-47068800D02*
X48764363Y-46997371D01*
X48764363Y-46997371D02*
X48621505Y-46925942D01*
X48621505Y-46925942D02*
X48335791Y-46854514D01*
X48335791Y-46854514D02*
X48192934Y-46783085D01*
X48192934Y-46783085D02*
X48121505Y-46711657D01*
X48121505Y-46711657D02*
X48050077Y-46568800D01*
X48050077Y-46568800D02*
X48050077Y-46425942D01*
X48050077Y-46425942D02*
X48121505Y-46283085D01*
X48121505Y-46283085D02*
X48192934Y-46211657D01*
X48192934Y-46211657D02*
X48335791Y-46140228D01*
X48335791Y-46140228D02*
X48692934Y-46140228D01*
X48692934Y-46140228D02*
X48907220Y-46211657D01*
X49550076Y-47640228D02*
X49550076Y-46640228D01*
X49550076Y-46140228D02*
X49478648Y-46211657D01*
X49478648Y-46211657D02*
X49550076Y-46283085D01*
X49550076Y-46283085D02*
X49621505Y-46211657D01*
X49621505Y-46211657D02*
X49550076Y-46140228D01*
X49550076Y-46140228D02*
X49550076Y-46283085D01*
X50478648Y-47640228D02*
X50335791Y-47568800D01*
X50335791Y-47568800D02*
X50264362Y-47425942D01*
X50264362Y-47425942D02*
X50264362Y-46140228D01*
X51050076Y-47640228D02*
X51050076Y-46140228D01*
X51192934Y-47068800D02*
X51621505Y-47640228D01*
X51621505Y-46640228D02*
X51050076Y-47211657D01*
X53335791Y-47568800D02*
X53550077Y-47640228D01*
X53550077Y-47640228D02*
X53907219Y-47640228D01*
X53907219Y-47640228D02*
X54050077Y-47568800D01*
X54050077Y-47568800D02*
X54121505Y-47497371D01*
X54121505Y-47497371D02*
X54192934Y-47354514D01*
X54192934Y-47354514D02*
X54192934Y-47211657D01*
X54192934Y-47211657D02*
X54121505Y-47068800D01*
X54121505Y-47068800D02*
X54050077Y-46997371D01*
X54050077Y-46997371D02*
X53907219Y-46925942D01*
X53907219Y-46925942D02*
X53621505Y-46854514D01*
X53621505Y-46854514D02*
X53478648Y-46783085D01*
X53478648Y-46783085D02*
X53407219Y-46711657D01*
X53407219Y-46711657D02*
X53335791Y-46568800D01*
X53335791Y-46568800D02*
X53335791Y-46425942D01*
X53335791Y-46425942D02*
X53407219Y-46283085D01*
X53407219Y-46283085D02*
X53478648Y-46211657D01*
X53478648Y-46211657D02*
X53621505Y-46140228D01*
X53621505Y-46140228D02*
X53978648Y-46140228D01*
X53978648Y-46140228D02*
X54192934Y-46211657D01*
X55478648Y-47568800D02*
X55335790Y-47640228D01*
X55335790Y-47640228D02*
X55050076Y-47640228D01*
X55050076Y-47640228D02*
X54907219Y-47568800D01*
X54907219Y-47568800D02*
X54835790Y-47497371D01*
X54835790Y-47497371D02*
X54764362Y-47354514D01*
X54764362Y-47354514D02*
X54764362Y-46925942D01*
X54764362Y-46925942D02*
X54835790Y-46783085D01*
X54835790Y-46783085D02*
X54907219Y-46711657D01*
X54907219Y-46711657D02*
X55050076Y-46640228D01*
X55050076Y-46640228D02*
X55335790Y-46640228D01*
X55335790Y-46640228D02*
X55478648Y-46711657D01*
X56121504Y-47640228D02*
X56121504Y-46640228D01*
X56121504Y-46925942D02*
X56192933Y-46783085D01*
X56192933Y-46783085D02*
X56264362Y-46711657D01*
X56264362Y-46711657D02*
X56407219Y-46640228D01*
X56407219Y-46640228D02*
X56550076Y-46640228D01*
X57621504Y-47568800D02*
X57478647Y-47640228D01*
X57478647Y-47640228D02*
X57192933Y-47640228D01*
X57192933Y-47640228D02*
X57050075Y-47568800D01*
X57050075Y-47568800D02*
X56978647Y-47425942D01*
X56978647Y-47425942D02*
X56978647Y-46854514D01*
X56978647Y-46854514D02*
X57050075Y-46711657D01*
X57050075Y-46711657D02*
X57192933Y-46640228D01*
X57192933Y-46640228D02*
X57478647Y-46640228D01*
X57478647Y-46640228D02*
X57621504Y-46711657D01*
X57621504Y-46711657D02*
X57692933Y-46854514D01*
X57692933Y-46854514D02*
X57692933Y-46997371D01*
X57692933Y-46997371D02*
X56978647Y-47140228D01*
X58907218Y-47568800D02*
X58764361Y-47640228D01*
X58764361Y-47640228D02*
X58478647Y-47640228D01*
X58478647Y-47640228D02*
X58335789Y-47568800D01*
X58335789Y-47568800D02*
X58264361Y-47425942D01*
X58264361Y-47425942D02*
X58264361Y-46854514D01*
X58264361Y-46854514D02*
X58335789Y-46711657D01*
X58335789Y-46711657D02*
X58478647Y-46640228D01*
X58478647Y-46640228D02*
X58764361Y-46640228D01*
X58764361Y-46640228D02*
X58907218Y-46711657D01*
X58907218Y-46711657D02*
X58978647Y-46854514D01*
X58978647Y-46854514D02*
X58978647Y-46997371D01*
X58978647Y-46997371D02*
X58264361Y-47140228D01*
X59621503Y-46640228D02*
X59621503Y-47640228D01*
X59621503Y-46783085D02*
X59692932Y-46711657D01*
X59692932Y-46711657D02*
X59835789Y-46640228D01*
X59835789Y-46640228D02*
X60050075Y-46640228D01*
X60050075Y-46640228D02*
X60192932Y-46711657D01*
X60192932Y-46711657D02*
X60264361Y-46854514D01*
X60264361Y-46854514D02*
X60264361Y-47640228D01*
X39550076Y-43248514D02*
X39764362Y-43319942D01*
X39764362Y-43319942D02*
X39835791Y-43391371D01*
X39835791Y-43391371D02*
X39907219Y-43534228D01*
X39907219Y-43534228D02*
X39907219Y-43748514D01*
X39907219Y-43748514D02*
X39835791Y-43891371D01*
X39835791Y-43891371D02*
X39764362Y-43962800D01*
X39764362Y-43962800D02*
X39621505Y-44034228D01*
X39621505Y-44034228D02*
X39050076Y-44034228D01*
X39050076Y-44034228D02*
X39050076Y-42534228D01*
X39050076Y-42534228D02*
X39550076Y-42534228D01*
X39550076Y-42534228D02*
X39692934Y-42605657D01*
X39692934Y-42605657D02*
X39764362Y-42677085D01*
X39764362Y-42677085D02*
X39835791Y-42819942D01*
X39835791Y-42819942D02*
X39835791Y-42962800D01*
X39835791Y-42962800D02*
X39764362Y-43105657D01*
X39764362Y-43105657D02*
X39692934Y-43177085D01*
X39692934Y-43177085D02*
X39550076Y-43248514D01*
X39550076Y-43248514D02*
X39050076Y-43248514D01*
X40764362Y-44034228D02*
X40621505Y-43962800D01*
X40621505Y-43962800D02*
X40550076Y-43891371D01*
X40550076Y-43891371D02*
X40478648Y-43748514D01*
X40478648Y-43748514D02*
X40478648Y-43319942D01*
X40478648Y-43319942D02*
X40550076Y-43177085D01*
X40550076Y-43177085D02*
X40621505Y-43105657D01*
X40621505Y-43105657D02*
X40764362Y-43034228D01*
X40764362Y-43034228D02*
X40978648Y-43034228D01*
X40978648Y-43034228D02*
X41121505Y-43105657D01*
X41121505Y-43105657D02*
X41192934Y-43177085D01*
X41192934Y-43177085D02*
X41264362Y-43319942D01*
X41264362Y-43319942D02*
X41264362Y-43748514D01*
X41264362Y-43748514D02*
X41192934Y-43891371D01*
X41192934Y-43891371D02*
X41121505Y-43962800D01*
X41121505Y-43962800D02*
X40978648Y-44034228D01*
X40978648Y-44034228D02*
X40764362Y-44034228D01*
X41692934Y-43034228D02*
X42264362Y-43034228D01*
X41907219Y-42534228D02*
X41907219Y-43819942D01*
X41907219Y-43819942D02*
X41978648Y-43962800D01*
X41978648Y-43962800D02*
X42121505Y-44034228D01*
X42121505Y-44034228D02*
X42264362Y-44034228D01*
X42550077Y-43034228D02*
X43121505Y-43034228D01*
X42764362Y-42534228D02*
X42764362Y-43819942D01*
X42764362Y-43819942D02*
X42835791Y-43962800D01*
X42835791Y-43962800D02*
X42978648Y-44034228D01*
X42978648Y-44034228D02*
X43121505Y-44034228D01*
X43835791Y-44034228D02*
X43692934Y-43962800D01*
X43692934Y-43962800D02*
X43621505Y-43891371D01*
X43621505Y-43891371D02*
X43550077Y-43748514D01*
X43550077Y-43748514D02*
X43550077Y-43319942D01*
X43550077Y-43319942D02*
X43621505Y-43177085D01*
X43621505Y-43177085D02*
X43692934Y-43105657D01*
X43692934Y-43105657D02*
X43835791Y-43034228D01*
X43835791Y-43034228D02*
X44050077Y-43034228D01*
X44050077Y-43034228D02*
X44192934Y-43105657D01*
X44192934Y-43105657D02*
X44264363Y-43177085D01*
X44264363Y-43177085D02*
X44335791Y-43319942D01*
X44335791Y-43319942D02*
X44335791Y-43748514D01*
X44335791Y-43748514D02*
X44264363Y-43891371D01*
X44264363Y-43891371D02*
X44192934Y-43962800D01*
X44192934Y-43962800D02*
X44050077Y-44034228D01*
X44050077Y-44034228D02*
X43835791Y-44034228D01*
X44978648Y-44034228D02*
X44978648Y-43034228D01*
X44978648Y-43177085D02*
X45050077Y-43105657D01*
X45050077Y-43105657D02*
X45192934Y-43034228D01*
X45192934Y-43034228D02*
X45407220Y-43034228D01*
X45407220Y-43034228D02*
X45550077Y-43105657D01*
X45550077Y-43105657D02*
X45621506Y-43248514D01*
X45621506Y-43248514D02*
X45621506Y-44034228D01*
X45621506Y-43248514D02*
X45692934Y-43105657D01*
X45692934Y-43105657D02*
X45835791Y-43034228D01*
X45835791Y-43034228D02*
X46050077Y-43034228D01*
X46050077Y-43034228D02*
X46192934Y-43105657D01*
X46192934Y-43105657D02*
X46264363Y-43248514D01*
X46264363Y-43248514D02*
X46264363Y-44034228D01*
X48050077Y-43962800D02*
X48264363Y-44034228D01*
X48264363Y-44034228D02*
X48621505Y-44034228D01*
X48621505Y-44034228D02*
X48764363Y-43962800D01*
X48764363Y-43962800D02*
X48835791Y-43891371D01*
X48835791Y-43891371D02*
X48907220Y-43748514D01*
X48907220Y-43748514D02*
X48907220Y-43605657D01*
X48907220Y-43605657D02*
X48835791Y-43462800D01*
X48835791Y-43462800D02*
X48764363Y-43391371D01*
X48764363Y-43391371D02*
X48621505Y-43319942D01*
X48621505Y-43319942D02*
X48335791Y-43248514D01*
X48335791Y-43248514D02*
X48192934Y-43177085D01*
X48192934Y-43177085D02*
X48121505Y-43105657D01*
X48121505Y-43105657D02*
X48050077Y-42962800D01*
X48050077Y-42962800D02*
X48050077Y-42819942D01*
X48050077Y-42819942D02*
X48121505Y-42677085D01*
X48121505Y-42677085D02*
X48192934Y-42605657D01*
X48192934Y-42605657D02*
X48335791Y-42534228D01*
X48335791Y-42534228D02*
X48692934Y-42534228D01*
X48692934Y-42534228D02*
X48907220Y-42605657D01*
X49764362Y-44034228D02*
X49621505Y-43962800D01*
X49621505Y-43962800D02*
X49550076Y-43891371D01*
X49550076Y-43891371D02*
X49478648Y-43748514D01*
X49478648Y-43748514D02*
X49478648Y-43319942D01*
X49478648Y-43319942D02*
X49550076Y-43177085D01*
X49550076Y-43177085D02*
X49621505Y-43105657D01*
X49621505Y-43105657D02*
X49764362Y-43034228D01*
X49764362Y-43034228D02*
X49978648Y-43034228D01*
X49978648Y-43034228D02*
X50121505Y-43105657D01*
X50121505Y-43105657D02*
X50192934Y-43177085D01*
X50192934Y-43177085D02*
X50264362Y-43319942D01*
X50264362Y-43319942D02*
X50264362Y-43748514D01*
X50264362Y-43748514D02*
X50192934Y-43891371D01*
X50192934Y-43891371D02*
X50121505Y-43962800D01*
X50121505Y-43962800D02*
X49978648Y-44034228D01*
X49978648Y-44034228D02*
X49764362Y-44034228D01*
X51121505Y-44034228D02*
X50978648Y-43962800D01*
X50978648Y-43962800D02*
X50907219Y-43819942D01*
X50907219Y-43819942D02*
X50907219Y-42534228D01*
X52335791Y-44034228D02*
X52335791Y-42534228D01*
X52335791Y-43962800D02*
X52192933Y-44034228D01*
X52192933Y-44034228D02*
X51907219Y-44034228D01*
X51907219Y-44034228D02*
X51764362Y-43962800D01*
X51764362Y-43962800D02*
X51692933Y-43891371D01*
X51692933Y-43891371D02*
X51621505Y-43748514D01*
X51621505Y-43748514D02*
X51621505Y-43319942D01*
X51621505Y-43319942D02*
X51692933Y-43177085D01*
X51692933Y-43177085D02*
X51764362Y-43105657D01*
X51764362Y-43105657D02*
X51907219Y-43034228D01*
X51907219Y-43034228D02*
X52192933Y-43034228D01*
X52192933Y-43034228D02*
X52335791Y-43105657D01*
X53621505Y-43962800D02*
X53478648Y-44034228D01*
X53478648Y-44034228D02*
X53192934Y-44034228D01*
X53192934Y-44034228D02*
X53050076Y-43962800D01*
X53050076Y-43962800D02*
X52978648Y-43819942D01*
X52978648Y-43819942D02*
X52978648Y-43248514D01*
X52978648Y-43248514D02*
X53050076Y-43105657D01*
X53050076Y-43105657D02*
X53192934Y-43034228D01*
X53192934Y-43034228D02*
X53478648Y-43034228D01*
X53478648Y-43034228D02*
X53621505Y-43105657D01*
X53621505Y-43105657D02*
X53692934Y-43248514D01*
X53692934Y-43248514D02*
X53692934Y-43391371D01*
X53692934Y-43391371D02*
X52978648Y-43534228D01*
X54335790Y-44034228D02*
X54335790Y-43034228D01*
X54335790Y-43319942D02*
X54407219Y-43177085D01*
X54407219Y-43177085D02*
X54478648Y-43105657D01*
X54478648Y-43105657D02*
X54621505Y-43034228D01*
X54621505Y-43034228D02*
X54764362Y-43034228D01*
X56407218Y-44034228D02*
X56407218Y-42534228D01*
X56407218Y-42534228D02*
X56907218Y-43605657D01*
X56907218Y-43605657D02*
X57407218Y-42534228D01*
X57407218Y-42534228D02*
X57407218Y-44034228D01*
X58764362Y-44034228D02*
X58764362Y-43248514D01*
X58764362Y-43248514D02*
X58692933Y-43105657D01*
X58692933Y-43105657D02*
X58550076Y-43034228D01*
X58550076Y-43034228D02*
X58264362Y-43034228D01*
X58264362Y-43034228D02*
X58121504Y-43105657D01*
X58764362Y-43962800D02*
X58621504Y-44034228D01*
X58621504Y-44034228D02*
X58264362Y-44034228D01*
X58264362Y-44034228D02*
X58121504Y-43962800D01*
X58121504Y-43962800D02*
X58050076Y-43819942D01*
X58050076Y-43819942D02*
X58050076Y-43677085D01*
X58050076Y-43677085D02*
X58121504Y-43534228D01*
X58121504Y-43534228D02*
X58264362Y-43462800D01*
X58264362Y-43462800D02*
X58621504Y-43462800D01*
X58621504Y-43462800D02*
X58764362Y-43391371D01*
X59407219Y-43962800D02*
X59550076Y-44034228D01*
X59550076Y-44034228D02*
X59835790Y-44034228D01*
X59835790Y-44034228D02*
X59978647Y-43962800D01*
X59978647Y-43962800D02*
X60050076Y-43819942D01*
X60050076Y-43819942D02*
X60050076Y-43748514D01*
X60050076Y-43748514D02*
X59978647Y-43605657D01*
X59978647Y-43605657D02*
X59835790Y-43534228D01*
X59835790Y-43534228D02*
X59621505Y-43534228D01*
X59621505Y-43534228D02*
X59478647Y-43462800D01*
X59478647Y-43462800D02*
X59407219Y-43319942D01*
X59407219Y-43319942D02*
X59407219Y-43248514D01*
X59407219Y-43248514D02*
X59478647Y-43105657D01*
X59478647Y-43105657D02*
X59621505Y-43034228D01*
X59621505Y-43034228D02*
X59835790Y-43034228D01*
X59835790Y-43034228D02*
X59978647Y-43105657D01*
X60692933Y-44034228D02*
X60692933Y-42534228D01*
X60835791Y-43462800D02*
X61264362Y-44034228D01*
X61264362Y-43034228D02*
X60692933Y-43605657D01*
X39692934Y-40356800D02*
X39550076Y-40428228D01*
X39550076Y-40428228D02*
X39264362Y-40428228D01*
X39264362Y-40428228D02*
X39121505Y-40356800D01*
X39121505Y-40356800D02*
X39050076Y-40285371D01*
X39050076Y-40285371D02*
X38978648Y-40142514D01*
X38978648Y-40142514D02*
X38978648Y-39713942D01*
X38978648Y-39713942D02*
X39050076Y-39571085D01*
X39050076Y-39571085D02*
X39121505Y-39499657D01*
X39121505Y-39499657D02*
X39264362Y-39428228D01*
X39264362Y-39428228D02*
X39550076Y-39428228D01*
X39550076Y-39428228D02*
X39692934Y-39499657D01*
X40550076Y-40428228D02*
X40407219Y-40356800D01*
X40407219Y-40356800D02*
X40335790Y-40285371D01*
X40335790Y-40285371D02*
X40264362Y-40142514D01*
X40264362Y-40142514D02*
X40264362Y-39713942D01*
X40264362Y-39713942D02*
X40335790Y-39571085D01*
X40335790Y-39571085D02*
X40407219Y-39499657D01*
X40407219Y-39499657D02*
X40550076Y-39428228D01*
X40550076Y-39428228D02*
X40764362Y-39428228D01*
X40764362Y-39428228D02*
X40907219Y-39499657D01*
X40907219Y-39499657D02*
X40978648Y-39571085D01*
X40978648Y-39571085D02*
X41050076Y-39713942D01*
X41050076Y-39713942D02*
X41050076Y-40142514D01*
X41050076Y-40142514D02*
X40978648Y-40285371D01*
X40978648Y-40285371D02*
X40907219Y-40356800D01*
X40907219Y-40356800D02*
X40764362Y-40428228D01*
X40764362Y-40428228D02*
X40550076Y-40428228D01*
X41692933Y-39428228D02*
X41692933Y-40928228D01*
X41692933Y-39499657D02*
X41835791Y-39428228D01*
X41835791Y-39428228D02*
X42121505Y-39428228D01*
X42121505Y-39428228D02*
X42264362Y-39499657D01*
X42264362Y-39499657D02*
X42335791Y-39571085D01*
X42335791Y-39571085D02*
X42407219Y-39713942D01*
X42407219Y-39713942D02*
X42407219Y-40142514D01*
X42407219Y-40142514D02*
X42335791Y-40285371D01*
X42335791Y-40285371D02*
X42264362Y-40356800D01*
X42264362Y-40356800D02*
X42121505Y-40428228D01*
X42121505Y-40428228D02*
X41835791Y-40428228D01*
X41835791Y-40428228D02*
X41692933Y-40356800D01*
X43050076Y-39428228D02*
X43050076Y-40928228D01*
X43050076Y-39499657D02*
X43192934Y-39428228D01*
X43192934Y-39428228D02*
X43478648Y-39428228D01*
X43478648Y-39428228D02*
X43621505Y-39499657D01*
X43621505Y-39499657D02*
X43692934Y-39571085D01*
X43692934Y-39571085D02*
X43764362Y-39713942D01*
X43764362Y-39713942D02*
X43764362Y-40142514D01*
X43764362Y-40142514D02*
X43692934Y-40285371D01*
X43692934Y-40285371D02*
X43621505Y-40356800D01*
X43621505Y-40356800D02*
X43478648Y-40428228D01*
X43478648Y-40428228D02*
X43192934Y-40428228D01*
X43192934Y-40428228D02*
X43050076Y-40356800D01*
X44978648Y-40356800D02*
X44835791Y-40428228D01*
X44835791Y-40428228D02*
X44550077Y-40428228D01*
X44550077Y-40428228D02*
X44407219Y-40356800D01*
X44407219Y-40356800D02*
X44335791Y-40213942D01*
X44335791Y-40213942D02*
X44335791Y-39642514D01*
X44335791Y-39642514D02*
X44407219Y-39499657D01*
X44407219Y-39499657D02*
X44550077Y-39428228D01*
X44550077Y-39428228D02*
X44835791Y-39428228D01*
X44835791Y-39428228D02*
X44978648Y-39499657D01*
X44978648Y-39499657D02*
X45050077Y-39642514D01*
X45050077Y-39642514D02*
X45050077Y-39785371D01*
X45050077Y-39785371D02*
X44335791Y-39928228D01*
X45692933Y-40428228D02*
X45692933Y-39428228D01*
X45692933Y-39713942D02*
X45764362Y-39571085D01*
X45764362Y-39571085D02*
X45835791Y-39499657D01*
X45835791Y-39499657D02*
X45978648Y-39428228D01*
X45978648Y-39428228D02*
X46121505Y-39428228D01*
X62234288Y-19380000D02*
X62234288Y-48930000D01*
X115792935Y-33216228D02*
X114935792Y-33216228D01*
X115364363Y-33216228D02*
X115364363Y-31716228D01*
X115364363Y-31716228D02*
X115221506Y-31930514D01*
X115221506Y-31930514D02*
X115078649Y-32073371D01*
X115078649Y-32073371D02*
X114935792Y-32144800D01*
X20592931Y-32430514D02*
X20092931Y-32430514D01*
X20092931Y-33216228D02*
X20092931Y-31716228D01*
X20092931Y-31716228D02*
X20807217Y-31716228D01*
X21378645Y-33073371D02*
X21450074Y-33144800D01*
X21450074Y-33144800D02*
X21378645Y-33216228D01*
X21378645Y-33216228D02*
X21307217Y-33144800D01*
X21307217Y-33144800D02*
X21378645Y-33073371D01*
X21378645Y-33073371D02*
X21378645Y-33216228D01*
X22950074Y-33073371D02*
X22878646Y-33144800D01*
X22878646Y-33144800D02*
X22664360Y-33216228D01*
X22664360Y-33216228D02*
X22521503Y-33216228D01*
X22521503Y-33216228D02*
X22307217Y-33144800D01*
X22307217Y-33144800D02*
X22164360Y-33001942D01*
X22164360Y-33001942D02*
X22092931Y-32859085D01*
X22092931Y-32859085D02*
X22021503Y-32573371D01*
X22021503Y-32573371D02*
X22021503Y-32359085D01*
X22021503Y-32359085D02*
X22092931Y-32073371D01*
X22092931Y-32073371D02*
X22164360Y-31930514D01*
X22164360Y-31930514D02*
X22307217Y-31787657D01*
X22307217Y-31787657D02*
X22521503Y-31716228D01*
X22521503Y-31716228D02*
X22664360Y-31716228D01*
X22664360Y-31716228D02*
X22878646Y-31787657D01*
X22878646Y-31787657D02*
X22950074Y-31859085D01*
X24235789Y-32216228D02*
X24235789Y-33216228D01*
X23592931Y-32216228D02*
X23592931Y-33001942D01*
X23592931Y-33001942D02*
X23664360Y-33144800D01*
X23664360Y-33144800D02*
X23807217Y-33216228D01*
X23807217Y-33216228D02*
X24021503Y-33216228D01*
X24021503Y-33216228D02*
X24164360Y-33144800D01*
X24164360Y-33144800D02*
X24235789Y-33073371D01*
X37877145Y-19380000D02*
X37877145Y-48930000D01*
X18920000Y-34506000D02*
X144248576Y-34506000D01*
X18920000Y-48930000D02*
X144248576Y-48930000D01*
X20592931Y-25218514D02*
X20092931Y-25218514D01*
X20092931Y-26004228D02*
X20092931Y-24504228D01*
X20092931Y-24504228D02*
X20807217Y-24504228D01*
X21378645Y-25861371D02*
X21450074Y-25932800D01*
X21450074Y-25932800D02*
X21378645Y-26004228D01*
X21378645Y-26004228D02*
X21307217Y-25932800D01*
X21307217Y-25932800D02*
X21378645Y-25861371D01*
X21378645Y-25861371D02*
X21378645Y-26004228D01*
X22021503Y-25932800D02*
X22235789Y-26004228D01*
X22235789Y-26004228D02*
X22592931Y-26004228D01*
X22592931Y-26004228D02*
X22735789Y-25932800D01*
X22735789Y-25932800D02*
X22807217Y-25861371D01*
X22807217Y-25861371D02*
X22878646Y-25718514D01*
X22878646Y-25718514D02*
X22878646Y-25575657D01*
X22878646Y-25575657D02*
X22807217Y-25432800D01*
X22807217Y-25432800D02*
X22735789Y-25361371D01*
X22735789Y-25361371D02*
X22592931Y-25289942D01*
X22592931Y-25289942D02*
X22307217Y-25218514D01*
X22307217Y-25218514D02*
X22164360Y-25147085D01*
X22164360Y-25147085D02*
X22092931Y-25075657D01*
X22092931Y-25075657D02*
X22021503Y-24932800D01*
X22021503Y-24932800D02*
X22021503Y-24789942D01*
X22021503Y-24789942D02*
X22092931Y-24647085D01*
X22092931Y-24647085D02*
X22164360Y-24575657D01*
X22164360Y-24575657D02*
X22307217Y-24504228D01*
X22307217Y-24504228D02*
X22664360Y-24504228D01*
X22664360Y-24504228D02*
X22878646Y-24575657D01*
X23521502Y-26004228D02*
X23521502Y-25004228D01*
X23521502Y-24504228D02*
X23450074Y-24575657D01*
X23450074Y-24575657D02*
X23521502Y-24647085D01*
X23521502Y-24647085D02*
X23592931Y-24575657D01*
X23592931Y-24575657D02*
X23521502Y-24504228D01*
X23521502Y-24504228D02*
X23521502Y-24647085D01*
X24450074Y-26004228D02*
X24307217Y-25932800D01*
X24307217Y-25932800D02*
X24235788Y-25789942D01*
X24235788Y-25789942D02*
X24235788Y-24504228D01*
X25021502Y-26004228D02*
X25021502Y-24504228D01*
X25164360Y-25432800D02*
X25592931Y-26004228D01*
X25592931Y-25004228D02*
X25021502Y-25575657D01*
X26164360Y-25932800D02*
X26307217Y-26004228D01*
X26307217Y-26004228D02*
X26592931Y-26004228D01*
X26592931Y-26004228D02*
X26735788Y-25932800D01*
X26735788Y-25932800D02*
X26807217Y-25789942D01*
X26807217Y-25789942D02*
X26807217Y-25718514D01*
X26807217Y-25718514D02*
X26735788Y-25575657D01*
X26735788Y-25575657D02*
X26592931Y-25504228D01*
X26592931Y-25504228D02*
X26378646Y-25504228D01*
X26378646Y-25504228D02*
X26235788Y-25432800D01*
X26235788Y-25432800D02*
X26164360Y-25289942D01*
X26164360Y-25289942D02*
X26164360Y-25218514D01*
X26164360Y-25218514D02*
X26235788Y-25075657D01*
X26235788Y-25075657D02*
X26378646Y-25004228D01*
X26378646Y-25004228D02*
X26592931Y-25004228D01*
X26592931Y-25004228D02*
X26735788Y-25075657D01*
X28092932Y-25932800D02*
X27950074Y-26004228D01*
X27950074Y-26004228D02*
X27664360Y-26004228D01*
X27664360Y-26004228D02*
X27521503Y-25932800D01*
X27521503Y-25932800D02*
X27450074Y-25861371D01*
X27450074Y-25861371D02*
X27378646Y-25718514D01*
X27378646Y-25718514D02*
X27378646Y-25289942D01*
X27378646Y-25289942D02*
X27450074Y-25147085D01*
X27450074Y-25147085D02*
X27521503Y-25075657D01*
X27521503Y-25075657D02*
X27664360Y-25004228D01*
X27664360Y-25004228D02*
X27950074Y-25004228D01*
X27950074Y-25004228D02*
X28092932Y-25075657D01*
X28735788Y-26004228D02*
X28735788Y-25004228D01*
X28735788Y-25289942D02*
X28807217Y-25147085D01*
X28807217Y-25147085D02*
X28878646Y-25075657D01*
X28878646Y-25075657D02*
X29021503Y-25004228D01*
X29021503Y-25004228D02*
X29164360Y-25004228D01*
X30235788Y-25932800D02*
X30092931Y-26004228D01*
X30092931Y-26004228D02*
X29807217Y-26004228D01*
X29807217Y-26004228D02*
X29664359Y-25932800D01*
X29664359Y-25932800D02*
X29592931Y-25789942D01*
X29592931Y-25789942D02*
X29592931Y-25218514D01*
X29592931Y-25218514D02*
X29664359Y-25075657D01*
X29664359Y-25075657D02*
X29807217Y-25004228D01*
X29807217Y-25004228D02*
X30092931Y-25004228D01*
X30092931Y-25004228D02*
X30235788Y-25075657D01*
X30235788Y-25075657D02*
X30307217Y-25218514D01*
X30307217Y-25218514D02*
X30307217Y-25361371D01*
X30307217Y-25361371D02*
X29592931Y-25504228D01*
X31521502Y-25932800D02*
X31378645Y-26004228D01*
X31378645Y-26004228D02*
X31092931Y-26004228D01*
X31092931Y-26004228D02*
X30950073Y-25932800D01*
X30950073Y-25932800D02*
X30878645Y-25789942D01*
X30878645Y-25789942D02*
X30878645Y-25218514D01*
X30878645Y-25218514D02*
X30950073Y-25075657D01*
X30950073Y-25075657D02*
X31092931Y-25004228D01*
X31092931Y-25004228D02*
X31378645Y-25004228D01*
X31378645Y-25004228D02*
X31521502Y-25075657D01*
X31521502Y-25075657D02*
X31592931Y-25218514D01*
X31592931Y-25218514D02*
X31592931Y-25361371D01*
X31592931Y-25361371D02*
X30878645Y-25504228D01*
X32235787Y-25004228D02*
X32235787Y-26004228D01*
X32235787Y-25147085D02*
X32307216Y-25075657D01*
X32307216Y-25075657D02*
X32450073Y-25004228D01*
X32450073Y-25004228D02*
X32664359Y-25004228D01*
X32664359Y-25004228D02*
X32807216Y-25075657D01*
X32807216Y-25075657D02*
X32878645Y-25218514D01*
X32878645Y-25218514D02*
X32878645Y-26004228D01*
X79478650Y-38928228D02*
X79621507Y-38928228D01*
X79621507Y-38928228D02*
X79764364Y-38999657D01*
X79764364Y-38999657D02*
X79835793Y-39071085D01*
X79835793Y-39071085D02*
X79907221Y-39213942D01*
X79907221Y-39213942D02*
X79978650Y-39499657D01*
X79978650Y-39499657D02*
X79978650Y-39856800D01*
X79978650Y-39856800D02*
X79907221Y-40142514D01*
X79907221Y-40142514D02*
X79835793Y-40285371D01*
X79835793Y-40285371D02*
X79764364Y-40356800D01*
X79764364Y-40356800D02*
X79621507Y-40428228D01*
X79621507Y-40428228D02*
X79478650Y-40428228D01*
X79478650Y-40428228D02*
X79335793Y-40356800D01*
X79335793Y-40356800D02*
X79264364Y-40285371D01*
X79264364Y-40285371D02*
X79192935Y-40142514D01*
X79192935Y-40142514D02*
X79121507Y-39856800D01*
X79121507Y-39856800D02*
X79121507Y-39499657D01*
X79121507Y-39499657D02*
X79192935Y-39213942D01*
X79192935Y-39213942D02*
X79264364Y-39071085D01*
X79264364Y-39071085D02*
X79335793Y-38999657D01*
X79335793Y-38999657D02*
X79478650Y-38928228D01*
X80692935Y-40356800D02*
X80692935Y-40428228D01*
X80692935Y-40428228D02*
X80621506Y-40571085D01*
X80621506Y-40571085D02*
X80550078Y-40642514D01*
X81621507Y-38928228D02*
X81764364Y-38928228D01*
X81764364Y-38928228D02*
X81907221Y-38999657D01*
X81907221Y-38999657D02*
X81978650Y-39071085D01*
X81978650Y-39071085D02*
X82050078Y-39213942D01*
X82050078Y-39213942D02*
X82121507Y-39499657D01*
X82121507Y-39499657D02*
X82121507Y-39856800D01*
X82121507Y-39856800D02*
X82050078Y-40142514D01*
X82050078Y-40142514D02*
X81978650Y-40285371D01*
X81978650Y-40285371D02*
X81907221Y-40356800D01*
X81907221Y-40356800D02*
X81764364Y-40428228D01*
X81764364Y-40428228D02*
X81621507Y-40428228D01*
X81621507Y-40428228D02*
X81478650Y-40356800D01*
X81478650Y-40356800D02*
X81407221Y-40285371D01*
X81407221Y-40285371D02*
X81335792Y-40142514D01*
X81335792Y-40142514D02*
X81264364Y-39856800D01*
X81264364Y-39856800D02*
X81264364Y-39499657D01*
X81264364Y-39499657D02*
X81335792Y-39213942D01*
X81335792Y-39213942D02*
X81407221Y-39071085D01*
X81407221Y-39071085D02*
X81478650Y-38999657D01*
X81478650Y-38999657D02*
X81621507Y-38928228D01*
X82621506Y-38928228D02*
X83550078Y-38928228D01*
X83550078Y-38928228D02*
X83050078Y-39499657D01*
X83050078Y-39499657D02*
X83264363Y-39499657D01*
X83264363Y-39499657D02*
X83407221Y-39571085D01*
X83407221Y-39571085D02*
X83478649Y-39642514D01*
X83478649Y-39642514D02*
X83550078Y-39785371D01*
X83550078Y-39785371D02*
X83550078Y-40142514D01*
X83550078Y-40142514D02*
X83478649Y-40285371D01*
X83478649Y-40285371D02*
X83407221Y-40356800D01*
X83407221Y-40356800D02*
X83264363Y-40428228D01*
X83264363Y-40428228D02*
X82835792Y-40428228D01*
X82835792Y-40428228D02*
X82692935Y-40356800D01*
X82692935Y-40356800D02*
X82621506Y-40285371D01*
X84907220Y-38928228D02*
X84192934Y-38928228D01*
X84192934Y-38928228D02*
X84121506Y-39642514D01*
X84121506Y-39642514D02*
X84192934Y-39571085D01*
X84192934Y-39571085D02*
X84335792Y-39499657D01*
X84335792Y-39499657D02*
X84692934Y-39499657D01*
X84692934Y-39499657D02*
X84835792Y-39571085D01*
X84835792Y-39571085D02*
X84907220Y-39642514D01*
X84907220Y-39642514D02*
X84978649Y-39785371D01*
X84978649Y-39785371D02*
X84978649Y-40142514D01*
X84978649Y-40142514D02*
X84907220Y-40285371D01*
X84907220Y-40285371D02*
X84835792Y-40356800D01*
X84835792Y-40356800D02*
X84692934Y-40428228D01*
X84692934Y-40428228D02*
X84335792Y-40428228D01*
X84335792Y-40428228D02*
X84192934Y-40356800D01*
X84192934Y-40356800D02*
X84121506Y-40285371D01*
X86764362Y-40428228D02*
X86764362Y-39428228D01*
X86764362Y-39571085D02*
X86835791Y-39499657D01*
X86835791Y-39499657D02*
X86978648Y-39428228D01*
X86978648Y-39428228D02*
X87192934Y-39428228D01*
X87192934Y-39428228D02*
X87335791Y-39499657D01*
X87335791Y-39499657D02*
X87407220Y-39642514D01*
X87407220Y-39642514D02*
X87407220Y-40428228D01*
X87407220Y-39642514D02*
X87478648Y-39499657D01*
X87478648Y-39499657D02*
X87621505Y-39428228D01*
X87621505Y-39428228D02*
X87835791Y-39428228D01*
X87835791Y-39428228D02*
X87978648Y-39499657D01*
X87978648Y-39499657D02*
X88050077Y-39642514D01*
X88050077Y-39642514D02*
X88050077Y-40428228D01*
X88764362Y-40428228D02*
X88764362Y-39428228D01*
X88764362Y-39571085D02*
X88835791Y-39499657D01*
X88835791Y-39499657D02*
X88978648Y-39428228D01*
X88978648Y-39428228D02*
X89192934Y-39428228D01*
X89192934Y-39428228D02*
X89335791Y-39499657D01*
X89335791Y-39499657D02*
X89407220Y-39642514D01*
X89407220Y-39642514D02*
X89407220Y-40428228D01*
X89407220Y-39642514D02*
X89478648Y-39499657D01*
X89478648Y-39499657D02*
X89621505Y-39428228D01*
X89621505Y-39428228D02*
X89835791Y-39428228D01*
X89835791Y-39428228D02*
X89978648Y-39499657D01*
X89978648Y-39499657D02*
X90050077Y-39642514D01*
X90050077Y-39642514D02*
X90050077Y-40428228D01*
X18920000Y-38112000D02*
X144248576Y-38112000D01*
X98977147Y-19380000D02*
X98977147Y-48930000D01*
X18920000Y-41718000D02*
X144248576Y-41718000D01*
X38835791Y-24504228D02*
X39692934Y-24504228D01*
X39264362Y-26004228D02*
X39264362Y-24504228D01*
X40407219Y-26004228D02*
X40264362Y-25932800D01*
X40264362Y-25932800D02*
X40192933Y-25861371D01*
X40192933Y-25861371D02*
X40121505Y-25718514D01*
X40121505Y-25718514D02*
X40121505Y-25289942D01*
X40121505Y-25289942D02*
X40192933Y-25147085D01*
X40192933Y-25147085D02*
X40264362Y-25075657D01*
X40264362Y-25075657D02*
X40407219Y-25004228D01*
X40407219Y-25004228D02*
X40621505Y-25004228D01*
X40621505Y-25004228D02*
X40764362Y-25075657D01*
X40764362Y-25075657D02*
X40835791Y-25147085D01*
X40835791Y-25147085D02*
X40907219Y-25289942D01*
X40907219Y-25289942D02*
X40907219Y-25718514D01*
X40907219Y-25718514D02*
X40835791Y-25861371D01*
X40835791Y-25861371D02*
X40764362Y-25932800D01*
X40764362Y-25932800D02*
X40621505Y-26004228D01*
X40621505Y-26004228D02*
X40407219Y-26004228D01*
X41550076Y-25004228D02*
X41550076Y-26504228D01*
X41550076Y-25075657D02*
X41692934Y-25004228D01*
X41692934Y-25004228D02*
X41978648Y-25004228D01*
X41978648Y-25004228D02*
X42121505Y-25075657D01*
X42121505Y-25075657D02*
X42192934Y-25147085D01*
X42192934Y-25147085D02*
X42264362Y-25289942D01*
X42264362Y-25289942D02*
X42264362Y-25718514D01*
X42264362Y-25718514D02*
X42192934Y-25861371D01*
X42192934Y-25861371D02*
X42121505Y-25932800D01*
X42121505Y-25932800D02*
X41978648Y-26004228D01*
X41978648Y-26004228D02*
X41692934Y-26004228D01*
X41692934Y-26004228D02*
X41550076Y-25932800D01*
X43978648Y-25932800D02*
X44192934Y-26004228D01*
X44192934Y-26004228D02*
X44550076Y-26004228D01*
X44550076Y-26004228D02*
X44692934Y-25932800D01*
X44692934Y-25932800D02*
X44764362Y-25861371D01*
X44764362Y-25861371D02*
X44835791Y-25718514D01*
X44835791Y-25718514D02*
X44835791Y-25575657D01*
X44835791Y-25575657D02*
X44764362Y-25432800D01*
X44764362Y-25432800D02*
X44692934Y-25361371D01*
X44692934Y-25361371D02*
X44550076Y-25289942D01*
X44550076Y-25289942D02*
X44264362Y-25218514D01*
X44264362Y-25218514D02*
X44121505Y-25147085D01*
X44121505Y-25147085D02*
X44050076Y-25075657D01*
X44050076Y-25075657D02*
X43978648Y-24932800D01*
X43978648Y-24932800D02*
X43978648Y-24789942D01*
X43978648Y-24789942D02*
X44050076Y-24647085D01*
X44050076Y-24647085D02*
X44121505Y-24575657D01*
X44121505Y-24575657D02*
X44264362Y-24504228D01*
X44264362Y-24504228D02*
X44621505Y-24504228D01*
X44621505Y-24504228D02*
X44835791Y-24575657D01*
X45478647Y-26004228D02*
X45478647Y-25004228D01*
X45478647Y-24504228D02*
X45407219Y-24575657D01*
X45407219Y-24575657D02*
X45478647Y-24647085D01*
X45478647Y-24647085D02*
X45550076Y-24575657D01*
X45550076Y-24575657D02*
X45478647Y-24504228D01*
X45478647Y-24504228D02*
X45478647Y-24647085D01*
X46407219Y-26004228D02*
X46264362Y-25932800D01*
X46264362Y-25932800D02*
X46192933Y-25789942D01*
X46192933Y-25789942D02*
X46192933Y-24504228D01*
X46978647Y-26004228D02*
X46978647Y-24504228D01*
X47121505Y-25432800D02*
X47550076Y-26004228D01*
X47550076Y-25004228D02*
X46978647Y-25575657D01*
X49264362Y-25932800D02*
X49478648Y-26004228D01*
X49478648Y-26004228D02*
X49835790Y-26004228D01*
X49835790Y-26004228D02*
X49978648Y-25932800D01*
X49978648Y-25932800D02*
X50050076Y-25861371D01*
X50050076Y-25861371D02*
X50121505Y-25718514D01*
X50121505Y-25718514D02*
X50121505Y-25575657D01*
X50121505Y-25575657D02*
X50050076Y-25432800D01*
X50050076Y-25432800D02*
X49978648Y-25361371D01*
X49978648Y-25361371D02*
X49835790Y-25289942D01*
X49835790Y-25289942D02*
X49550076Y-25218514D01*
X49550076Y-25218514D02*
X49407219Y-25147085D01*
X49407219Y-25147085D02*
X49335790Y-25075657D01*
X49335790Y-25075657D02*
X49264362Y-24932800D01*
X49264362Y-24932800D02*
X49264362Y-24789942D01*
X49264362Y-24789942D02*
X49335790Y-24647085D01*
X49335790Y-24647085D02*
X49407219Y-24575657D01*
X49407219Y-24575657D02*
X49550076Y-24504228D01*
X49550076Y-24504228D02*
X49907219Y-24504228D01*
X49907219Y-24504228D02*
X50121505Y-24575657D01*
X51407219Y-25932800D02*
X51264361Y-26004228D01*
X51264361Y-26004228D02*
X50978647Y-26004228D01*
X50978647Y-26004228D02*
X50835790Y-25932800D01*
X50835790Y-25932800D02*
X50764361Y-25861371D01*
X50764361Y-25861371D02*
X50692933Y-25718514D01*
X50692933Y-25718514D02*
X50692933Y-25289942D01*
X50692933Y-25289942D02*
X50764361Y-25147085D01*
X50764361Y-25147085D02*
X50835790Y-25075657D01*
X50835790Y-25075657D02*
X50978647Y-25004228D01*
X50978647Y-25004228D02*
X51264361Y-25004228D01*
X51264361Y-25004228D02*
X51407219Y-25075657D01*
X52050075Y-26004228D02*
X52050075Y-25004228D01*
X52050075Y-25289942D02*
X52121504Y-25147085D01*
X52121504Y-25147085D02*
X52192933Y-25075657D01*
X52192933Y-25075657D02*
X52335790Y-25004228D01*
X52335790Y-25004228D02*
X52478647Y-25004228D01*
X53550075Y-25932800D02*
X53407218Y-26004228D01*
X53407218Y-26004228D02*
X53121504Y-26004228D01*
X53121504Y-26004228D02*
X52978646Y-25932800D01*
X52978646Y-25932800D02*
X52907218Y-25789942D01*
X52907218Y-25789942D02*
X52907218Y-25218514D01*
X52907218Y-25218514D02*
X52978646Y-25075657D01*
X52978646Y-25075657D02*
X53121504Y-25004228D01*
X53121504Y-25004228D02*
X53407218Y-25004228D01*
X53407218Y-25004228D02*
X53550075Y-25075657D01*
X53550075Y-25075657D02*
X53621504Y-25218514D01*
X53621504Y-25218514D02*
X53621504Y-25361371D01*
X53621504Y-25361371D02*
X52907218Y-25504228D01*
X54835789Y-25932800D02*
X54692932Y-26004228D01*
X54692932Y-26004228D02*
X54407218Y-26004228D01*
X54407218Y-26004228D02*
X54264360Y-25932800D01*
X54264360Y-25932800D02*
X54192932Y-25789942D01*
X54192932Y-25789942D02*
X54192932Y-25218514D01*
X54192932Y-25218514D02*
X54264360Y-25075657D01*
X54264360Y-25075657D02*
X54407218Y-25004228D01*
X54407218Y-25004228D02*
X54692932Y-25004228D01*
X54692932Y-25004228D02*
X54835789Y-25075657D01*
X54835789Y-25075657D02*
X54907218Y-25218514D01*
X54907218Y-25218514D02*
X54907218Y-25361371D01*
X54907218Y-25361371D02*
X54192932Y-25504228D01*
X55550074Y-25004228D02*
X55550074Y-26004228D01*
X55550074Y-25147085D02*
X55621503Y-25075657D01*
X55621503Y-25075657D02*
X55764360Y-25004228D01*
X55764360Y-25004228D02*
X55978646Y-25004228D01*
X55978646Y-25004228D02*
X56121503Y-25075657D01*
X56121503Y-25075657D02*
X56192932Y-25218514D01*
X56192932Y-25218514D02*
X56192932Y-26004228D01*
D11*
X80110229Y-20257257D02*
X79967372Y-20185828D01*
X79967372Y-20185828D02*
X79753086Y-20185828D01*
X79753086Y-20185828D02*
X79538800Y-20257257D01*
X79538800Y-20257257D02*
X79395943Y-20400114D01*
X79395943Y-20400114D02*
X79324514Y-20542971D01*
X79324514Y-20542971D02*
X79253086Y-20828685D01*
X79253086Y-20828685D02*
X79253086Y-21042971D01*
X79253086Y-21042971D02*
X79324514Y-21328685D01*
X79324514Y-21328685D02*
X79395943Y-21471542D01*
X79395943Y-21471542D02*
X79538800Y-21614400D01*
X79538800Y-21614400D02*
X79753086Y-21685828D01*
X79753086Y-21685828D02*
X79895943Y-21685828D01*
X79895943Y-21685828D02*
X80110229Y-21614400D01*
X80110229Y-21614400D02*
X80181657Y-21542971D01*
X80181657Y-21542971D02*
X80181657Y-21042971D01*
X80181657Y-21042971D02*
X79895943Y-21042971D01*
X80824514Y-21685828D02*
X80824514Y-20685828D01*
X80824514Y-20971542D02*
X80895943Y-20828685D01*
X80895943Y-20828685D02*
X80967372Y-20757257D01*
X80967372Y-20757257D02*
X81110229Y-20685828D01*
X81110229Y-20685828D02*
X81253086Y-20685828D01*
X82395943Y-20685828D02*
X82395943Y-21685828D01*
X81753085Y-20685828D02*
X81753085Y-21471542D01*
X81753085Y-21471542D02*
X81824514Y-21614400D01*
X81824514Y-21614400D02*
X81967371Y-21685828D01*
X81967371Y-21685828D02*
X82181657Y-21685828D01*
X82181657Y-21685828D02*
X82324514Y-21614400D01*
X82324514Y-21614400D02*
X82395943Y-21542971D01*
X83110228Y-21685828D02*
X83110228Y-20185828D01*
X83110228Y-20757257D02*
X83253086Y-20685828D01*
X83253086Y-20685828D02*
X83538800Y-20685828D01*
X83538800Y-20685828D02*
X83681657Y-20757257D01*
X83681657Y-20757257D02*
X83753086Y-20828685D01*
X83753086Y-20828685D02*
X83824514Y-20971542D01*
X83824514Y-20971542D02*
X83824514Y-21400114D01*
X83824514Y-21400114D02*
X83753086Y-21542971D01*
X83753086Y-21542971D02*
X83681657Y-21614400D01*
X83681657Y-21614400D02*
X83538800Y-21685828D01*
X83538800Y-21685828D02*
X83253086Y-21685828D01*
X83253086Y-21685828D02*
X83110228Y-21614400D01*
X84681657Y-21685828D02*
X84538800Y-21614400D01*
X84538800Y-21614400D02*
X84467371Y-21542971D01*
X84467371Y-21542971D02*
X84395943Y-21400114D01*
X84395943Y-21400114D02*
X84395943Y-20971542D01*
X84395943Y-20971542D02*
X84467371Y-20828685D01*
X84467371Y-20828685D02*
X84538800Y-20757257D01*
X84538800Y-20757257D02*
X84681657Y-20685828D01*
X84681657Y-20685828D02*
X84895943Y-20685828D01*
X84895943Y-20685828D02*
X85038800Y-20757257D01*
X85038800Y-20757257D02*
X85110229Y-20828685D01*
X85110229Y-20828685D02*
X85181657Y-20971542D01*
X85181657Y-20971542D02*
X85181657Y-21400114D01*
X85181657Y-21400114D02*
X85110229Y-21542971D01*
X85110229Y-21542971D02*
X85038800Y-21614400D01*
X85038800Y-21614400D02*
X84895943Y-21685828D01*
X84895943Y-21685828D02*
X84681657Y-21685828D01*
X85753086Y-21614400D02*
X85895943Y-21685828D01*
X85895943Y-21685828D02*
X86181657Y-21685828D01*
X86181657Y-21685828D02*
X86324514Y-21614400D01*
X86324514Y-21614400D02*
X86395943Y-21471542D01*
X86395943Y-21471542D02*
X86395943Y-21400114D01*
X86395943Y-21400114D02*
X86324514Y-21257257D01*
X86324514Y-21257257D02*
X86181657Y-21185828D01*
X86181657Y-21185828D02*
X85967372Y-21185828D01*
X85967372Y-21185828D02*
X85824514Y-21114400D01*
X85824514Y-21114400D02*
X85753086Y-20971542D01*
X85753086Y-20971542D02*
X85753086Y-20900114D01*
X85753086Y-20900114D02*
X85824514Y-20757257D01*
X85824514Y-20757257D02*
X85967372Y-20685828D01*
X85967372Y-20685828D02*
X86181657Y-20685828D01*
X86181657Y-20685828D02*
X86324514Y-20757257D01*
X86181657Y-20114400D02*
X85967372Y-20328685D01*
X87681658Y-21614400D02*
X87538800Y-21685828D01*
X87538800Y-21685828D02*
X87253086Y-21685828D01*
X87253086Y-21685828D02*
X87110229Y-21614400D01*
X87110229Y-21614400D02*
X87038800Y-21542971D01*
X87038800Y-21542971D02*
X86967372Y-21400114D01*
X86967372Y-21400114D02*
X86967372Y-20971542D01*
X86967372Y-20971542D02*
X87038800Y-20828685D01*
X87038800Y-20828685D02*
X87110229Y-20757257D01*
X87110229Y-20757257D02*
X87253086Y-20685828D01*
X87253086Y-20685828D02*
X87538800Y-20685828D01*
X87538800Y-20685828D02*
X87681658Y-20757257D01*
X87538800Y-20114400D02*
X87324515Y-20328685D01*
X89895943Y-22257257D02*
X89824514Y-22185828D01*
X89824514Y-22185828D02*
X89681657Y-21971542D01*
X89681657Y-21971542D02*
X89610229Y-21828685D01*
X89610229Y-21828685D02*
X89538800Y-21614400D01*
X89538800Y-21614400D02*
X89467371Y-21257257D01*
X89467371Y-21257257D02*
X89467371Y-20971542D01*
X89467371Y-20971542D02*
X89538800Y-20614400D01*
X89538800Y-20614400D02*
X89610229Y-20400114D01*
X89610229Y-20400114D02*
X89681657Y-20257257D01*
X89681657Y-20257257D02*
X89824514Y-20042971D01*
X89824514Y-20042971D02*
X89895943Y-19971542D01*
X90324514Y-20685828D02*
X90610229Y-21685828D01*
X90610229Y-21685828D02*
X90895943Y-20971542D01*
X90895943Y-20971542D02*
X91181657Y-21685828D01*
X91181657Y-21685828D02*
X91467371Y-20685828D01*
X93181657Y-21685828D02*
X93181657Y-20685828D01*
X93181657Y-20828685D02*
X93253086Y-20757257D01*
X93253086Y-20757257D02*
X93395943Y-20685828D01*
X93395943Y-20685828D02*
X93610229Y-20685828D01*
X93610229Y-20685828D02*
X93753086Y-20757257D01*
X93753086Y-20757257D02*
X93824515Y-20900114D01*
X93824515Y-20900114D02*
X93824515Y-21685828D01*
X93824515Y-20900114D02*
X93895943Y-20757257D01*
X93895943Y-20757257D02*
X94038800Y-20685828D01*
X94038800Y-20685828D02*
X94253086Y-20685828D01*
X94253086Y-20685828D02*
X94395943Y-20757257D01*
X94395943Y-20757257D02*
X94467372Y-20900114D01*
X94467372Y-20900114D02*
X94467372Y-21685828D01*
X95181657Y-21685828D02*
X95181657Y-20685828D01*
X95181657Y-20828685D02*
X95253086Y-20757257D01*
X95253086Y-20757257D02*
X95395943Y-20685828D01*
X95395943Y-20685828D02*
X95610229Y-20685828D01*
X95610229Y-20685828D02*
X95753086Y-20757257D01*
X95753086Y-20757257D02*
X95824515Y-20900114D01*
X95824515Y-20900114D02*
X95824515Y-21685828D01*
X95824515Y-20900114D02*
X95895943Y-20757257D01*
X95895943Y-20757257D02*
X96038800Y-20685828D01*
X96038800Y-20685828D02*
X96253086Y-20685828D01*
X96253086Y-20685828D02*
X96395943Y-20757257D01*
X96395943Y-20757257D02*
X96467372Y-20900114D01*
X96467372Y-20900114D02*
X96467372Y-21685828D01*
X97038800Y-22257257D02*
X97110229Y-22185828D01*
X97110229Y-22185828D02*
X97253086Y-21971542D01*
X97253086Y-21971542D02*
X97324515Y-21828685D01*
X97324515Y-21828685D02*
X97395943Y-21614400D01*
X97395943Y-21614400D02*
X97467372Y-21257257D01*
X97467372Y-21257257D02*
X97467372Y-20971542D01*
X97467372Y-20971542D02*
X97395943Y-20614400D01*
X97395943Y-20614400D02*
X97324515Y-20400114D01*
X97324515Y-20400114D02*
X97253086Y-20257257D01*
X97253086Y-20257257D02*
X97110229Y-20042971D01*
X97110229Y-20042971D02*
X97038800Y-19971542D01*
D10*
X18920000Y-23688000D02*
X144248576Y-23688000D01*
X18920000Y-45324000D02*
X144248576Y-45324000D01*
X39692934Y-33144800D02*
X39550076Y-33216228D01*
X39550076Y-33216228D02*
X39264362Y-33216228D01*
X39264362Y-33216228D02*
X39121505Y-33144800D01*
X39121505Y-33144800D02*
X39050076Y-33073371D01*
X39050076Y-33073371D02*
X38978648Y-32930514D01*
X38978648Y-32930514D02*
X38978648Y-32501942D01*
X38978648Y-32501942D02*
X39050076Y-32359085D01*
X39050076Y-32359085D02*
X39121505Y-32287657D01*
X39121505Y-32287657D02*
X39264362Y-32216228D01*
X39264362Y-32216228D02*
X39550076Y-32216228D01*
X39550076Y-32216228D02*
X39692934Y-32287657D01*
X40550076Y-33216228D02*
X40407219Y-33144800D01*
X40407219Y-33144800D02*
X40335790Y-33073371D01*
X40335790Y-33073371D02*
X40264362Y-32930514D01*
X40264362Y-32930514D02*
X40264362Y-32501942D01*
X40264362Y-32501942D02*
X40335790Y-32359085D01*
X40335790Y-32359085D02*
X40407219Y-32287657D01*
X40407219Y-32287657D02*
X40550076Y-32216228D01*
X40550076Y-32216228D02*
X40764362Y-32216228D01*
X40764362Y-32216228D02*
X40907219Y-32287657D01*
X40907219Y-32287657D02*
X40978648Y-32359085D01*
X40978648Y-32359085D02*
X41050076Y-32501942D01*
X41050076Y-32501942D02*
X41050076Y-32930514D01*
X41050076Y-32930514D02*
X40978648Y-33073371D01*
X40978648Y-33073371D02*
X40907219Y-33144800D01*
X40907219Y-33144800D02*
X40764362Y-33216228D01*
X40764362Y-33216228D02*
X40550076Y-33216228D01*
X41692933Y-32216228D02*
X41692933Y-33716228D01*
X41692933Y-32287657D02*
X41835791Y-32216228D01*
X41835791Y-32216228D02*
X42121505Y-32216228D01*
X42121505Y-32216228D02*
X42264362Y-32287657D01*
X42264362Y-32287657D02*
X42335791Y-32359085D01*
X42335791Y-32359085D02*
X42407219Y-32501942D01*
X42407219Y-32501942D02*
X42407219Y-32930514D01*
X42407219Y-32930514D02*
X42335791Y-33073371D01*
X42335791Y-33073371D02*
X42264362Y-33144800D01*
X42264362Y-33144800D02*
X42121505Y-33216228D01*
X42121505Y-33216228D02*
X41835791Y-33216228D01*
X41835791Y-33216228D02*
X41692933Y-33144800D01*
X43050076Y-32216228D02*
X43050076Y-33716228D01*
X43050076Y-32287657D02*
X43192934Y-32216228D01*
X43192934Y-32216228D02*
X43478648Y-32216228D01*
X43478648Y-32216228D02*
X43621505Y-32287657D01*
X43621505Y-32287657D02*
X43692934Y-32359085D01*
X43692934Y-32359085D02*
X43764362Y-32501942D01*
X43764362Y-32501942D02*
X43764362Y-32930514D01*
X43764362Y-32930514D02*
X43692934Y-33073371D01*
X43692934Y-33073371D02*
X43621505Y-33144800D01*
X43621505Y-33144800D02*
X43478648Y-33216228D01*
X43478648Y-33216228D02*
X43192934Y-33216228D01*
X43192934Y-33216228D02*
X43050076Y-33144800D01*
X44978648Y-33144800D02*
X44835791Y-33216228D01*
X44835791Y-33216228D02*
X44550077Y-33216228D01*
X44550077Y-33216228D02*
X44407219Y-33144800D01*
X44407219Y-33144800D02*
X44335791Y-33001942D01*
X44335791Y-33001942D02*
X44335791Y-32430514D01*
X44335791Y-32430514D02*
X44407219Y-32287657D01*
X44407219Y-32287657D02*
X44550077Y-32216228D01*
X44550077Y-32216228D02*
X44835791Y-32216228D01*
X44835791Y-32216228D02*
X44978648Y-32287657D01*
X44978648Y-32287657D02*
X45050077Y-32430514D01*
X45050077Y-32430514D02*
X45050077Y-32573371D01*
X45050077Y-32573371D02*
X44335791Y-32716228D01*
X45692933Y-33216228D02*
X45692933Y-32216228D01*
X45692933Y-32501942D02*
X45764362Y-32359085D01*
X45764362Y-32359085D02*
X45835791Y-32287657D01*
X45835791Y-32287657D02*
X45978648Y-32216228D01*
X45978648Y-32216228D02*
X46121505Y-32216228D01*
X115792935Y-40428228D02*
X114935792Y-40428228D01*
X115364363Y-40428228D02*
X115364363Y-38928228D01*
X115364363Y-38928228D02*
X115221506Y-39142514D01*
X115221506Y-39142514D02*
X115078649Y-39285371D01*
X115078649Y-39285371D02*
X114935792Y-39356800D01*
X79478650Y-28110228D02*
X79621507Y-28110228D01*
X79621507Y-28110228D02*
X79764364Y-28181657D01*
X79764364Y-28181657D02*
X79835793Y-28253085D01*
X79835793Y-28253085D02*
X79907221Y-28395942D01*
X79907221Y-28395942D02*
X79978650Y-28681657D01*
X79978650Y-28681657D02*
X79978650Y-29038800D01*
X79978650Y-29038800D02*
X79907221Y-29324514D01*
X79907221Y-29324514D02*
X79835793Y-29467371D01*
X79835793Y-29467371D02*
X79764364Y-29538800D01*
X79764364Y-29538800D02*
X79621507Y-29610228D01*
X79621507Y-29610228D02*
X79478650Y-29610228D01*
X79478650Y-29610228D02*
X79335793Y-29538800D01*
X79335793Y-29538800D02*
X79264364Y-29467371D01*
X79264364Y-29467371D02*
X79192935Y-29324514D01*
X79192935Y-29324514D02*
X79121507Y-29038800D01*
X79121507Y-29038800D02*
X79121507Y-28681657D01*
X79121507Y-28681657D02*
X79192935Y-28395942D01*
X79192935Y-28395942D02*
X79264364Y-28253085D01*
X79264364Y-28253085D02*
X79335793Y-28181657D01*
X79335793Y-28181657D02*
X79478650Y-28110228D01*
X80692935Y-29538800D02*
X80692935Y-29610228D01*
X80692935Y-29610228D02*
X80621506Y-29753085D01*
X80621506Y-29753085D02*
X80550078Y-29824514D01*
X81621507Y-28110228D02*
X81764364Y-28110228D01*
X81764364Y-28110228D02*
X81907221Y-28181657D01*
X81907221Y-28181657D02*
X81978650Y-28253085D01*
X81978650Y-28253085D02*
X82050078Y-28395942D01*
X82050078Y-28395942D02*
X82121507Y-28681657D01*
X82121507Y-28681657D02*
X82121507Y-29038800D01*
X82121507Y-29038800D02*
X82050078Y-29324514D01*
X82050078Y-29324514D02*
X81978650Y-29467371D01*
X81978650Y-29467371D02*
X81907221Y-29538800D01*
X81907221Y-29538800D02*
X81764364Y-29610228D01*
X81764364Y-29610228D02*
X81621507Y-29610228D01*
X81621507Y-29610228D02*
X81478650Y-29538800D01*
X81478650Y-29538800D02*
X81407221Y-29467371D01*
X81407221Y-29467371D02*
X81335792Y-29324514D01*
X81335792Y-29324514D02*
X81264364Y-29038800D01*
X81264364Y-29038800D02*
X81264364Y-28681657D01*
X81264364Y-28681657D02*
X81335792Y-28395942D01*
X81335792Y-28395942D02*
X81407221Y-28253085D01*
X81407221Y-28253085D02*
X81478650Y-28181657D01*
X81478650Y-28181657D02*
X81621507Y-28110228D01*
X83550078Y-29610228D02*
X82692935Y-29610228D01*
X83121506Y-29610228D02*
X83121506Y-28110228D01*
X83121506Y-28110228D02*
X82978649Y-28324514D01*
X82978649Y-28324514D02*
X82835792Y-28467371D01*
X82835792Y-28467371D02*
X82692935Y-28538800D01*
X85335791Y-29610228D02*
X85335791Y-28610228D01*
X85335791Y-28753085D02*
X85407220Y-28681657D01*
X85407220Y-28681657D02*
X85550077Y-28610228D01*
X85550077Y-28610228D02*
X85764363Y-28610228D01*
X85764363Y-28610228D02*
X85907220Y-28681657D01*
X85907220Y-28681657D02*
X85978649Y-28824514D01*
X85978649Y-28824514D02*
X85978649Y-29610228D01*
X85978649Y-28824514D02*
X86050077Y-28681657D01*
X86050077Y-28681657D02*
X86192934Y-28610228D01*
X86192934Y-28610228D02*
X86407220Y-28610228D01*
X86407220Y-28610228D02*
X86550077Y-28681657D01*
X86550077Y-28681657D02*
X86621506Y-28824514D01*
X86621506Y-28824514D02*
X86621506Y-29610228D01*
X87335791Y-29610228D02*
X87335791Y-28610228D01*
X87335791Y-28753085D02*
X87407220Y-28681657D01*
X87407220Y-28681657D02*
X87550077Y-28610228D01*
X87550077Y-28610228D02*
X87764363Y-28610228D01*
X87764363Y-28610228D02*
X87907220Y-28681657D01*
X87907220Y-28681657D02*
X87978649Y-28824514D01*
X87978649Y-28824514D02*
X87978649Y-29610228D01*
X87978649Y-28824514D02*
X88050077Y-28681657D01*
X88050077Y-28681657D02*
X88192934Y-28610228D01*
X88192934Y-28610228D02*
X88407220Y-28610228D01*
X88407220Y-28610228D02*
X88550077Y-28681657D01*
X88550077Y-28681657D02*
X88621506Y-28824514D01*
X88621506Y-28824514D02*
X88621506Y-29610228D01*
X20592931Y-28824514D02*
X20092931Y-28824514D01*
X20092931Y-29610228D02*
X20092931Y-28110228D01*
X20092931Y-28110228D02*
X20807217Y-28110228D01*
X21378645Y-29467371D02*
X21450074Y-29538800D01*
X21450074Y-29538800D02*
X21378645Y-29610228D01*
X21378645Y-29610228D02*
X21307217Y-29538800D01*
X21307217Y-29538800D02*
X21378645Y-29467371D01*
X21378645Y-29467371D02*
X21378645Y-29610228D01*
X22092931Y-29610228D02*
X22092931Y-28110228D01*
X22092931Y-28110228D02*
X22592931Y-29181657D01*
X22592931Y-29181657D02*
X23092931Y-28110228D01*
X23092931Y-28110228D02*
X23092931Y-29610228D01*
X24450075Y-29610228D02*
X24450075Y-28824514D01*
X24450075Y-28824514D02*
X24378646Y-28681657D01*
X24378646Y-28681657D02*
X24235789Y-28610228D01*
X24235789Y-28610228D02*
X23950075Y-28610228D01*
X23950075Y-28610228D02*
X23807217Y-28681657D01*
X24450075Y-29538800D02*
X24307217Y-29610228D01*
X24307217Y-29610228D02*
X23950075Y-29610228D01*
X23950075Y-29610228D02*
X23807217Y-29538800D01*
X23807217Y-29538800D02*
X23735789Y-29395942D01*
X23735789Y-29395942D02*
X23735789Y-29253085D01*
X23735789Y-29253085D02*
X23807217Y-29110228D01*
X23807217Y-29110228D02*
X23950075Y-29038800D01*
X23950075Y-29038800D02*
X24307217Y-29038800D01*
X24307217Y-29038800D02*
X24450075Y-28967371D01*
X25092932Y-29538800D02*
X25235789Y-29610228D01*
X25235789Y-29610228D02*
X25521503Y-29610228D01*
X25521503Y-29610228D02*
X25664360Y-29538800D01*
X25664360Y-29538800D02*
X25735789Y-29395942D01*
X25735789Y-29395942D02*
X25735789Y-29324514D01*
X25735789Y-29324514D02*
X25664360Y-29181657D01*
X25664360Y-29181657D02*
X25521503Y-29110228D01*
X25521503Y-29110228D02*
X25307218Y-29110228D01*
X25307218Y-29110228D02*
X25164360Y-29038800D01*
X25164360Y-29038800D02*
X25092932Y-28895942D01*
X25092932Y-28895942D02*
X25092932Y-28824514D01*
X25092932Y-28824514D02*
X25164360Y-28681657D01*
X25164360Y-28681657D02*
X25307218Y-28610228D01*
X25307218Y-28610228D02*
X25521503Y-28610228D01*
X25521503Y-28610228D02*
X25664360Y-28681657D01*
X26378646Y-29610228D02*
X26378646Y-28110228D01*
X26521504Y-29038800D02*
X26950075Y-29610228D01*
X26950075Y-28610228D02*
X26378646Y-29181657D01*
X39692934Y-36750800D02*
X39550076Y-36822228D01*
X39550076Y-36822228D02*
X39264362Y-36822228D01*
X39264362Y-36822228D02*
X39121505Y-36750800D01*
X39121505Y-36750800D02*
X39050076Y-36679371D01*
X39050076Y-36679371D02*
X38978648Y-36536514D01*
X38978648Y-36536514D02*
X38978648Y-36107942D01*
X38978648Y-36107942D02*
X39050076Y-35965085D01*
X39050076Y-35965085D02*
X39121505Y-35893657D01*
X39121505Y-35893657D02*
X39264362Y-35822228D01*
X39264362Y-35822228D02*
X39550076Y-35822228D01*
X39550076Y-35822228D02*
X39692934Y-35893657D01*
X40550076Y-36822228D02*
X40407219Y-36750800D01*
X40407219Y-36750800D02*
X40335790Y-36679371D01*
X40335790Y-36679371D02*
X40264362Y-36536514D01*
X40264362Y-36536514D02*
X40264362Y-36107942D01*
X40264362Y-36107942D02*
X40335790Y-35965085D01*
X40335790Y-35965085D02*
X40407219Y-35893657D01*
X40407219Y-35893657D02*
X40550076Y-35822228D01*
X40550076Y-35822228D02*
X40764362Y-35822228D01*
X40764362Y-35822228D02*
X40907219Y-35893657D01*
X40907219Y-35893657D02*
X40978648Y-35965085D01*
X40978648Y-35965085D02*
X41050076Y-36107942D01*
X41050076Y-36107942D02*
X41050076Y-36536514D01*
X41050076Y-36536514D02*
X40978648Y-36679371D01*
X40978648Y-36679371D02*
X40907219Y-36750800D01*
X40907219Y-36750800D02*
X40764362Y-36822228D01*
X40764362Y-36822228D02*
X40550076Y-36822228D01*
X41692933Y-36822228D02*
X41692933Y-35822228D01*
X41692933Y-36107942D02*
X41764362Y-35965085D01*
X41764362Y-35965085D02*
X41835791Y-35893657D01*
X41835791Y-35893657D02*
X41978648Y-35822228D01*
X41978648Y-35822228D02*
X42121505Y-35822228D01*
X43192933Y-36750800D02*
X43050076Y-36822228D01*
X43050076Y-36822228D02*
X42764362Y-36822228D01*
X42764362Y-36822228D02*
X42621504Y-36750800D01*
X42621504Y-36750800D02*
X42550076Y-36607942D01*
X42550076Y-36607942D02*
X42550076Y-36036514D01*
X42550076Y-36036514D02*
X42621504Y-35893657D01*
X42621504Y-35893657D02*
X42764362Y-35822228D01*
X42764362Y-35822228D02*
X43050076Y-35822228D01*
X43050076Y-35822228D02*
X43192933Y-35893657D01*
X43192933Y-35893657D02*
X43264362Y-36036514D01*
X43264362Y-36036514D02*
X43264362Y-36179371D01*
X43264362Y-36179371D02*
X42550076Y-36322228D01*
X113834289Y-19380000D02*
X113834289Y-48930000D01*
X128178650Y-24504228D02*
X128321507Y-24504228D01*
X128321507Y-24504228D02*
X128464364Y-24575657D01*
X128464364Y-24575657D02*
X128535793Y-24647085D01*
X128535793Y-24647085D02*
X128607221Y-24789942D01*
X128607221Y-24789942D02*
X128678650Y-25075657D01*
X128678650Y-25075657D02*
X128678650Y-25432800D01*
X128678650Y-25432800D02*
X128607221Y-25718514D01*
X128607221Y-25718514D02*
X128535793Y-25861371D01*
X128535793Y-25861371D02*
X128464364Y-25932800D01*
X128464364Y-25932800D02*
X128321507Y-26004228D01*
X128321507Y-26004228D02*
X128178650Y-26004228D01*
X128178650Y-26004228D02*
X128035793Y-25932800D01*
X128035793Y-25932800D02*
X127964364Y-25861371D01*
X127964364Y-25861371D02*
X127892935Y-25718514D01*
X127892935Y-25718514D02*
X127821507Y-25432800D01*
X127821507Y-25432800D02*
X127821507Y-25075657D01*
X127821507Y-25075657D02*
X127892935Y-24789942D01*
X127892935Y-24789942D02*
X127964364Y-24647085D01*
X127964364Y-24647085D02*
X128035793Y-24575657D01*
X128035793Y-24575657D02*
X128178650Y-24504228D01*
X126720004Y-19380000D02*
X126720004Y-48930000D01*
X144248576Y-19380000D02*
X144248576Y-48930000D01*
X18920000Y-19380000D02*
X18920000Y-48930000D01*
X20592931Y-39642514D02*
X20807217Y-39713942D01*
X20807217Y-39713942D02*
X20878646Y-39785371D01*
X20878646Y-39785371D02*
X20950074Y-39928228D01*
X20950074Y-39928228D02*
X20950074Y-40142514D01*
X20950074Y-40142514D02*
X20878646Y-40285371D01*
X20878646Y-40285371D02*
X20807217Y-40356800D01*
X20807217Y-40356800D02*
X20664360Y-40428228D01*
X20664360Y-40428228D02*
X20092931Y-40428228D01*
X20092931Y-40428228D02*
X20092931Y-38928228D01*
X20092931Y-38928228D02*
X20592931Y-38928228D01*
X20592931Y-38928228D02*
X20735789Y-38999657D01*
X20735789Y-38999657D02*
X20807217Y-39071085D01*
X20807217Y-39071085D02*
X20878646Y-39213942D01*
X20878646Y-39213942D02*
X20878646Y-39356800D01*
X20878646Y-39356800D02*
X20807217Y-39499657D01*
X20807217Y-39499657D02*
X20735789Y-39571085D01*
X20735789Y-39571085D02*
X20592931Y-39642514D01*
X20592931Y-39642514D02*
X20092931Y-39642514D01*
X21592931Y-40285371D02*
X21664360Y-40356800D01*
X21664360Y-40356800D02*
X21592931Y-40428228D01*
X21592931Y-40428228D02*
X21521503Y-40356800D01*
X21521503Y-40356800D02*
X21592931Y-40285371D01*
X21592931Y-40285371D02*
X21592931Y-40428228D01*
X23164360Y-40285371D02*
X23092932Y-40356800D01*
X23092932Y-40356800D02*
X22878646Y-40428228D01*
X22878646Y-40428228D02*
X22735789Y-40428228D01*
X22735789Y-40428228D02*
X22521503Y-40356800D01*
X22521503Y-40356800D02*
X22378646Y-40213942D01*
X22378646Y-40213942D02*
X22307217Y-40071085D01*
X22307217Y-40071085D02*
X22235789Y-39785371D01*
X22235789Y-39785371D02*
X22235789Y-39571085D01*
X22235789Y-39571085D02*
X22307217Y-39285371D01*
X22307217Y-39285371D02*
X22378646Y-39142514D01*
X22378646Y-39142514D02*
X22521503Y-38999657D01*
X22521503Y-38999657D02*
X22735789Y-38928228D01*
X22735789Y-38928228D02*
X22878646Y-38928228D01*
X22878646Y-38928228D02*
X23092932Y-38999657D01*
X23092932Y-38999657D02*
X23164360Y-39071085D01*
X24450075Y-39428228D02*
X24450075Y-40428228D01*
X23807217Y-39428228D02*
X23807217Y-40213942D01*
X23807217Y-40213942D02*
X23878646Y-40356800D01*
X23878646Y-40356800D02*
X24021503Y-40428228D01*
X24021503Y-40428228D02*
X24235789Y-40428228D01*
X24235789Y-40428228D02*
X24378646Y-40356800D01*
X24378646Y-40356800D02*
X24450075Y-40285371D01*
D11*
X20224510Y-21685828D02*
X20224510Y-20185828D01*
X20224510Y-20185828D02*
X21081653Y-21685828D01*
X21081653Y-21685828D02*
X21081653Y-20185828D01*
X22438797Y-21685828D02*
X22438797Y-20900114D01*
X22438797Y-20900114D02*
X22367368Y-20757257D01*
X22367368Y-20757257D02*
X22224511Y-20685828D01*
X22224511Y-20685828D02*
X21938797Y-20685828D01*
X21938797Y-20685828D02*
X21795939Y-20757257D01*
X22438797Y-21614400D02*
X22295939Y-21685828D01*
X22295939Y-21685828D02*
X21938797Y-21685828D01*
X21938797Y-21685828D02*
X21795939Y-21614400D01*
X21795939Y-21614400D02*
X21724511Y-21471542D01*
X21724511Y-21471542D02*
X21724511Y-21328685D01*
X21724511Y-21328685D02*
X21795939Y-21185828D01*
X21795939Y-21185828D02*
X21938797Y-21114400D01*
X21938797Y-21114400D02*
X22295939Y-21114400D01*
X22295939Y-21114400D02*
X22438797Y-21042971D01*
X23010225Y-20685828D02*
X23795940Y-20685828D01*
X23795940Y-20685828D02*
X23010225Y-21685828D01*
X23010225Y-21685828D02*
X23795940Y-21685828D01*
X24224511Y-20685828D02*
X24510226Y-21685828D01*
X24510226Y-21685828D02*
X24795940Y-20971542D01*
X24795940Y-20971542D02*
X25081654Y-21685828D01*
X25081654Y-21685828D02*
X25367368Y-20685828D01*
X26581655Y-21685828D02*
X26581655Y-20900114D01*
X26581655Y-20900114D02*
X26510226Y-20757257D01*
X26510226Y-20757257D02*
X26367369Y-20685828D01*
X26367369Y-20685828D02*
X26081655Y-20685828D01*
X26081655Y-20685828D02*
X25938797Y-20757257D01*
X26581655Y-21614400D02*
X26438797Y-21685828D01*
X26438797Y-21685828D02*
X26081655Y-21685828D01*
X26081655Y-21685828D02*
X25938797Y-21614400D01*
X25938797Y-21614400D02*
X25867369Y-21471542D01*
X25867369Y-21471542D02*
X25867369Y-21328685D01*
X25867369Y-21328685D02*
X25938797Y-21185828D01*
X25938797Y-21185828D02*
X26081655Y-21114400D01*
X26081655Y-21114400D02*
X26438797Y-21114400D01*
X26438797Y-21114400D02*
X26581655Y-21042971D01*
X28295940Y-20685828D02*
X28581655Y-21685828D01*
X28581655Y-21685828D02*
X28867369Y-20971542D01*
X28867369Y-20971542D02*
X29153083Y-21685828D01*
X29153083Y-21685828D02*
X29438797Y-20685828D01*
X30653084Y-21685828D02*
X30653084Y-20900114D01*
X30653084Y-20900114D02*
X30581655Y-20757257D01*
X30581655Y-20757257D02*
X30438798Y-20685828D01*
X30438798Y-20685828D02*
X30153084Y-20685828D01*
X30153084Y-20685828D02*
X30010226Y-20757257D01*
X30653084Y-21614400D02*
X30510226Y-21685828D01*
X30510226Y-21685828D02*
X30153084Y-21685828D01*
X30153084Y-21685828D02*
X30010226Y-21614400D01*
X30010226Y-21614400D02*
X29938798Y-21471542D01*
X29938798Y-21471542D02*
X29938798Y-21328685D01*
X29938798Y-21328685D02*
X30010226Y-21185828D01*
X30010226Y-21185828D02*
X30153084Y-21114400D01*
X30153084Y-21114400D02*
X30510226Y-21114400D01*
X30510226Y-21114400D02*
X30653084Y-21042971D01*
X31367369Y-21685828D02*
X31367369Y-20685828D01*
X31367369Y-20971542D02*
X31438798Y-20828685D01*
X31438798Y-20828685D02*
X31510227Y-20757257D01*
X31510227Y-20757257D02*
X31653084Y-20685828D01*
X31653084Y-20685828D02*
X31795941Y-20685828D01*
X32224512Y-21614400D02*
X32367369Y-21685828D01*
X32367369Y-21685828D02*
X32653083Y-21685828D01*
X32653083Y-21685828D02*
X32795940Y-21614400D01*
X32795940Y-21614400D02*
X32867369Y-21471542D01*
X32867369Y-21471542D02*
X32867369Y-21400114D01*
X32867369Y-21400114D02*
X32795940Y-21257257D01*
X32795940Y-21257257D02*
X32653083Y-21185828D01*
X32653083Y-21185828D02*
X32438798Y-21185828D01*
X32438798Y-21185828D02*
X32295940Y-21114400D01*
X32295940Y-21114400D02*
X32224512Y-20971542D01*
X32224512Y-20971542D02*
X32224512Y-20900114D01*
X32224512Y-20900114D02*
X32295940Y-20757257D01*
X32295940Y-20757257D02*
X32438798Y-20685828D01*
X32438798Y-20685828D02*
X32653083Y-20685828D01*
X32653083Y-20685828D02*
X32795940Y-20757257D01*
X33295941Y-20685828D02*
X33867369Y-20685828D01*
X33510226Y-20185828D02*
X33510226Y-21471542D01*
X33510226Y-21471542D02*
X33581655Y-21614400D01*
X33581655Y-21614400D02*
X33724512Y-21685828D01*
X33724512Y-21685828D02*
X33867369Y-21685828D01*
X34224512Y-20685828D02*
X34510227Y-21685828D01*
X34510227Y-21685828D02*
X34795941Y-20971542D01*
X34795941Y-20971542D02*
X35081655Y-21685828D01*
X35081655Y-21685828D02*
X35367369Y-20685828D01*
X35795941Y-20685828D02*
X36153084Y-21685828D01*
X36510227Y-20685828D02*
X36153084Y-21685828D01*
X36153084Y-21685828D02*
X36010227Y-22042971D01*
X36010227Y-22042971D02*
X35938798Y-22114400D01*
X35938798Y-22114400D02*
X35795941Y-22185828D01*
D10*
X100007221Y-46140228D02*
X100364364Y-47640228D01*
X100364364Y-47640228D02*
X100650078Y-46568800D01*
X100650078Y-46568800D02*
X100935793Y-47640228D01*
X100935793Y-47640228D02*
X101292936Y-46140228D01*
X101864364Y-47640228D02*
X101864364Y-46140228D01*
X102507222Y-47640228D02*
X102507222Y-46854514D01*
X102507222Y-46854514D02*
X102435793Y-46711657D01*
X102435793Y-46711657D02*
X102292936Y-46640228D01*
X102292936Y-46640228D02*
X102078650Y-46640228D01*
X102078650Y-46640228D02*
X101935793Y-46711657D01*
X101935793Y-46711657D02*
X101864364Y-46783085D01*
X103221507Y-47640228D02*
X103221507Y-46640228D01*
X103221507Y-46140228D02*
X103150079Y-46211657D01*
X103150079Y-46211657D02*
X103221507Y-46283085D01*
X103221507Y-46283085D02*
X103292936Y-46211657D01*
X103292936Y-46211657D02*
X103221507Y-46140228D01*
X103221507Y-46140228D02*
X103221507Y-46283085D01*
X103721508Y-46640228D02*
X104292936Y-46640228D01*
X103935793Y-46140228D02*
X103935793Y-47425942D01*
X103935793Y-47425942D02*
X104007222Y-47568800D01*
X104007222Y-47568800D02*
X104150079Y-47640228D01*
X104150079Y-47640228D02*
X104292936Y-47640228D01*
X105364365Y-47568800D02*
X105221508Y-47640228D01*
X105221508Y-47640228D02*
X104935794Y-47640228D01*
X104935794Y-47640228D02*
X104792936Y-47568800D01*
X104792936Y-47568800D02*
X104721508Y-47425942D01*
X104721508Y-47425942D02*
X104721508Y-46854514D01*
X104721508Y-46854514D02*
X104792936Y-46711657D01*
X104792936Y-46711657D02*
X104935794Y-46640228D01*
X104935794Y-46640228D02*
X105221508Y-46640228D01*
X105221508Y-46640228D02*
X105364365Y-46711657D01*
X105364365Y-46711657D02*
X105435794Y-46854514D01*
X105435794Y-46854514D02*
X105435794Y-46997371D01*
X105435794Y-46997371D02*
X104721508Y-47140228D01*
X20092931Y-36822228D02*
X20092931Y-35322228D01*
X20092931Y-35322228D02*
X20450074Y-35322228D01*
X20450074Y-35322228D02*
X20664360Y-35393657D01*
X20664360Y-35393657D02*
X20807217Y-35536514D01*
X20807217Y-35536514D02*
X20878646Y-35679371D01*
X20878646Y-35679371D02*
X20950074Y-35965085D01*
X20950074Y-35965085D02*
X20950074Y-36179371D01*
X20950074Y-36179371D02*
X20878646Y-36465085D01*
X20878646Y-36465085D02*
X20807217Y-36607942D01*
X20807217Y-36607942D02*
X20664360Y-36750800D01*
X20664360Y-36750800D02*
X20450074Y-36822228D01*
X20450074Y-36822228D02*
X20092931Y-36822228D01*
X21592931Y-36822228D02*
X21592931Y-35822228D01*
X21592931Y-35322228D02*
X21521503Y-35393657D01*
X21521503Y-35393657D02*
X21592931Y-35465085D01*
X21592931Y-35465085D02*
X21664360Y-35393657D01*
X21664360Y-35393657D02*
X21592931Y-35322228D01*
X21592931Y-35322228D02*
X21592931Y-35465085D01*
X22878646Y-36750800D02*
X22735789Y-36822228D01*
X22735789Y-36822228D02*
X22450075Y-36822228D01*
X22450075Y-36822228D02*
X22307217Y-36750800D01*
X22307217Y-36750800D02*
X22235789Y-36607942D01*
X22235789Y-36607942D02*
X22235789Y-36036514D01*
X22235789Y-36036514D02*
X22307217Y-35893657D01*
X22307217Y-35893657D02*
X22450075Y-35822228D01*
X22450075Y-35822228D02*
X22735789Y-35822228D01*
X22735789Y-35822228D02*
X22878646Y-35893657D01*
X22878646Y-35893657D02*
X22950075Y-36036514D01*
X22950075Y-36036514D02*
X22950075Y-36179371D01*
X22950075Y-36179371D02*
X22235789Y-36322228D01*
X23807217Y-36822228D02*
X23664360Y-36750800D01*
X23664360Y-36750800D02*
X23592931Y-36607942D01*
X23592931Y-36607942D02*
X23592931Y-35322228D01*
X24950074Y-36750800D02*
X24807217Y-36822228D01*
X24807217Y-36822228D02*
X24521503Y-36822228D01*
X24521503Y-36822228D02*
X24378645Y-36750800D01*
X24378645Y-36750800D02*
X24307217Y-36607942D01*
X24307217Y-36607942D02*
X24307217Y-36036514D01*
X24307217Y-36036514D02*
X24378645Y-35893657D01*
X24378645Y-35893657D02*
X24521503Y-35822228D01*
X24521503Y-35822228D02*
X24807217Y-35822228D01*
X24807217Y-35822228D02*
X24950074Y-35893657D01*
X24950074Y-35893657D02*
X25021503Y-36036514D01*
X25021503Y-36036514D02*
X25021503Y-36179371D01*
X25021503Y-36179371D02*
X24307217Y-36322228D01*
X25664359Y-36822228D02*
X25664359Y-35322228D01*
X25807217Y-36250800D02*
X26235788Y-36822228D01*
X26235788Y-35822228D02*
X25664359Y-36393657D01*
X26664360Y-35822228D02*
X27235788Y-35822228D01*
X26878645Y-35322228D02*
X26878645Y-36607942D01*
X26878645Y-36607942D02*
X26950074Y-36750800D01*
X26950074Y-36750800D02*
X27092931Y-36822228D01*
X27092931Y-36822228D02*
X27235788Y-36822228D01*
X27735788Y-36822228D02*
X27735788Y-35822228D01*
X27735788Y-36107942D02*
X27807217Y-35965085D01*
X27807217Y-35965085D02*
X27878646Y-35893657D01*
X27878646Y-35893657D02*
X28021503Y-35822228D01*
X28021503Y-35822228D02*
X28164360Y-35822228D01*
X28521502Y-35822228D02*
X28878645Y-36822228D01*
X29235788Y-35822228D02*
X28878645Y-36822228D01*
X28878645Y-36822228D02*
X28735788Y-37179371D01*
X28735788Y-37179371D02*
X28664359Y-37250800D01*
X28664359Y-37250800D02*
X28521502Y-37322228D01*
X29807216Y-36822228D02*
X29807216Y-35322228D01*
X29950074Y-36250800D02*
X30378645Y-36822228D01*
X30378645Y-35822228D02*
X29807216Y-36393657D01*
X78020004Y-19380000D02*
X78020004Y-48930000D01*
X20592931Y-46854514D02*
X20807217Y-46925942D01*
X20807217Y-46925942D02*
X20878646Y-46997371D01*
X20878646Y-46997371D02*
X20950074Y-47140228D01*
X20950074Y-47140228D02*
X20950074Y-47354514D01*
X20950074Y-47354514D02*
X20878646Y-47497371D01*
X20878646Y-47497371D02*
X20807217Y-47568800D01*
X20807217Y-47568800D02*
X20664360Y-47640228D01*
X20664360Y-47640228D02*
X20092931Y-47640228D01*
X20092931Y-47640228D02*
X20092931Y-46140228D01*
X20092931Y-46140228D02*
X20592931Y-46140228D01*
X20592931Y-46140228D02*
X20735789Y-46211657D01*
X20735789Y-46211657D02*
X20807217Y-46283085D01*
X20807217Y-46283085D02*
X20878646Y-46425942D01*
X20878646Y-46425942D02*
X20878646Y-46568800D01*
X20878646Y-46568800D02*
X20807217Y-46711657D01*
X20807217Y-46711657D02*
X20735789Y-46783085D01*
X20735789Y-46783085D02*
X20592931Y-46854514D01*
X20592931Y-46854514D02*
X20092931Y-46854514D01*
X21592931Y-47497371D02*
X21664360Y-47568800D01*
X21664360Y-47568800D02*
X21592931Y-47640228D01*
X21592931Y-47640228D02*
X21521503Y-47568800D01*
X21521503Y-47568800D02*
X21592931Y-47497371D01*
X21592931Y-47497371D02*
X21592931Y-47640228D01*
X22235789Y-47568800D02*
X22450075Y-47640228D01*
X22450075Y-47640228D02*
X22807217Y-47640228D01*
X22807217Y-47640228D02*
X22950075Y-47568800D01*
X22950075Y-47568800D02*
X23021503Y-47497371D01*
X23021503Y-47497371D02*
X23092932Y-47354514D01*
X23092932Y-47354514D02*
X23092932Y-47211657D01*
X23092932Y-47211657D02*
X23021503Y-47068800D01*
X23021503Y-47068800D02*
X22950075Y-46997371D01*
X22950075Y-46997371D02*
X22807217Y-46925942D01*
X22807217Y-46925942D02*
X22521503Y-46854514D01*
X22521503Y-46854514D02*
X22378646Y-46783085D01*
X22378646Y-46783085D02*
X22307217Y-46711657D01*
X22307217Y-46711657D02*
X22235789Y-46568800D01*
X22235789Y-46568800D02*
X22235789Y-46425942D01*
X22235789Y-46425942D02*
X22307217Y-46283085D01*
X22307217Y-46283085D02*
X22378646Y-46211657D01*
X22378646Y-46211657D02*
X22521503Y-46140228D01*
X22521503Y-46140228D02*
X22878646Y-46140228D01*
X22878646Y-46140228D02*
X23092932Y-46211657D01*
X23735788Y-47640228D02*
X23735788Y-46640228D01*
X23735788Y-46140228D02*
X23664360Y-46211657D01*
X23664360Y-46211657D02*
X23735788Y-46283085D01*
X23735788Y-46283085D02*
X23807217Y-46211657D01*
X23807217Y-46211657D02*
X23735788Y-46140228D01*
X23735788Y-46140228D02*
X23735788Y-46283085D01*
X24664360Y-47640228D02*
X24521503Y-47568800D01*
X24521503Y-47568800D02*
X24450074Y-47425942D01*
X24450074Y-47425942D02*
X24450074Y-46140228D01*
X25235788Y-47640228D02*
X25235788Y-46140228D01*
X25378646Y-47068800D02*
X25807217Y-47640228D01*
X25807217Y-46640228D02*
X25235788Y-47211657D01*
X26378646Y-47568800D02*
X26521503Y-47640228D01*
X26521503Y-47640228D02*
X26807217Y-47640228D01*
X26807217Y-47640228D02*
X26950074Y-47568800D01*
X26950074Y-47568800D02*
X27021503Y-47425942D01*
X27021503Y-47425942D02*
X27021503Y-47354514D01*
X27021503Y-47354514D02*
X26950074Y-47211657D01*
X26950074Y-47211657D02*
X26807217Y-47140228D01*
X26807217Y-47140228D02*
X26592932Y-47140228D01*
X26592932Y-47140228D02*
X26450074Y-47068800D01*
X26450074Y-47068800D02*
X26378646Y-46925942D01*
X26378646Y-46925942D02*
X26378646Y-46854514D01*
X26378646Y-46854514D02*
X26450074Y-46711657D01*
X26450074Y-46711657D02*
X26592932Y-46640228D01*
X26592932Y-46640228D02*
X26807217Y-46640228D01*
X26807217Y-46640228D02*
X26950074Y-46711657D01*
X28307218Y-47568800D02*
X28164360Y-47640228D01*
X28164360Y-47640228D02*
X27878646Y-47640228D01*
X27878646Y-47640228D02*
X27735789Y-47568800D01*
X27735789Y-47568800D02*
X27664360Y-47497371D01*
X27664360Y-47497371D02*
X27592932Y-47354514D01*
X27592932Y-47354514D02*
X27592932Y-46925942D01*
X27592932Y-46925942D02*
X27664360Y-46783085D01*
X27664360Y-46783085D02*
X27735789Y-46711657D01*
X27735789Y-46711657D02*
X27878646Y-46640228D01*
X27878646Y-46640228D02*
X28164360Y-46640228D01*
X28164360Y-46640228D02*
X28307218Y-46711657D01*
X28950074Y-47640228D02*
X28950074Y-46640228D01*
X28950074Y-46925942D02*
X29021503Y-46783085D01*
X29021503Y-46783085D02*
X29092932Y-46711657D01*
X29092932Y-46711657D02*
X29235789Y-46640228D01*
X29235789Y-46640228D02*
X29378646Y-46640228D01*
X30450074Y-47568800D02*
X30307217Y-47640228D01*
X30307217Y-47640228D02*
X30021503Y-47640228D01*
X30021503Y-47640228D02*
X29878645Y-47568800D01*
X29878645Y-47568800D02*
X29807217Y-47425942D01*
X29807217Y-47425942D02*
X29807217Y-46854514D01*
X29807217Y-46854514D02*
X29878645Y-46711657D01*
X29878645Y-46711657D02*
X30021503Y-46640228D01*
X30021503Y-46640228D02*
X30307217Y-46640228D01*
X30307217Y-46640228D02*
X30450074Y-46711657D01*
X30450074Y-46711657D02*
X30521503Y-46854514D01*
X30521503Y-46854514D02*
X30521503Y-46997371D01*
X30521503Y-46997371D02*
X29807217Y-47140228D01*
X31735788Y-47568800D02*
X31592931Y-47640228D01*
X31592931Y-47640228D02*
X31307217Y-47640228D01*
X31307217Y-47640228D02*
X31164359Y-47568800D01*
X31164359Y-47568800D02*
X31092931Y-47425942D01*
X31092931Y-47425942D02*
X31092931Y-46854514D01*
X31092931Y-46854514D02*
X31164359Y-46711657D01*
X31164359Y-46711657D02*
X31307217Y-46640228D01*
X31307217Y-46640228D02*
X31592931Y-46640228D01*
X31592931Y-46640228D02*
X31735788Y-46711657D01*
X31735788Y-46711657D02*
X31807217Y-46854514D01*
X31807217Y-46854514D02*
X31807217Y-46997371D01*
X31807217Y-46997371D02*
X31092931Y-47140228D01*
X32450073Y-46640228D02*
X32450073Y-47640228D01*
X32450073Y-46783085D02*
X32521502Y-46711657D01*
X32521502Y-46711657D02*
X32664359Y-46640228D01*
X32664359Y-46640228D02*
X32878645Y-46640228D01*
X32878645Y-46640228D02*
X33021502Y-46711657D01*
X33021502Y-46711657D02*
X33092931Y-46854514D01*
X33092931Y-46854514D02*
X33092931Y-47640228D01*
X18920000Y-30900000D02*
X144248576Y-30900000D01*
X20592931Y-43248514D02*
X20807217Y-43319942D01*
X20807217Y-43319942D02*
X20878646Y-43391371D01*
X20878646Y-43391371D02*
X20950074Y-43534228D01*
X20950074Y-43534228D02*
X20950074Y-43748514D01*
X20950074Y-43748514D02*
X20878646Y-43891371D01*
X20878646Y-43891371D02*
X20807217Y-43962800D01*
X20807217Y-43962800D02*
X20664360Y-44034228D01*
X20664360Y-44034228D02*
X20092931Y-44034228D01*
X20092931Y-44034228D02*
X20092931Y-42534228D01*
X20092931Y-42534228D02*
X20592931Y-42534228D01*
X20592931Y-42534228D02*
X20735789Y-42605657D01*
X20735789Y-42605657D02*
X20807217Y-42677085D01*
X20807217Y-42677085D02*
X20878646Y-42819942D01*
X20878646Y-42819942D02*
X20878646Y-42962800D01*
X20878646Y-42962800D02*
X20807217Y-43105657D01*
X20807217Y-43105657D02*
X20735789Y-43177085D01*
X20735789Y-43177085D02*
X20592931Y-43248514D01*
X20592931Y-43248514D02*
X20092931Y-43248514D01*
X21592931Y-43891371D02*
X21664360Y-43962800D01*
X21664360Y-43962800D02*
X21592931Y-44034228D01*
X21592931Y-44034228D02*
X21521503Y-43962800D01*
X21521503Y-43962800D02*
X21592931Y-43891371D01*
X21592931Y-43891371D02*
X21592931Y-44034228D01*
X22307217Y-44034228D02*
X22307217Y-42534228D01*
X22307217Y-42534228D02*
X22807217Y-43605657D01*
X22807217Y-43605657D02*
X23307217Y-42534228D01*
X23307217Y-42534228D02*
X23307217Y-44034228D01*
X24664361Y-44034228D02*
X24664361Y-43248514D01*
X24664361Y-43248514D02*
X24592932Y-43105657D01*
X24592932Y-43105657D02*
X24450075Y-43034228D01*
X24450075Y-43034228D02*
X24164361Y-43034228D01*
X24164361Y-43034228D02*
X24021503Y-43105657D01*
X24664361Y-43962800D02*
X24521503Y-44034228D01*
X24521503Y-44034228D02*
X24164361Y-44034228D01*
X24164361Y-44034228D02*
X24021503Y-43962800D01*
X24021503Y-43962800D02*
X23950075Y-43819942D01*
X23950075Y-43819942D02*
X23950075Y-43677085D01*
X23950075Y-43677085D02*
X24021503Y-43534228D01*
X24021503Y-43534228D02*
X24164361Y-43462800D01*
X24164361Y-43462800D02*
X24521503Y-43462800D01*
X24521503Y-43462800D02*
X24664361Y-43391371D01*
X25307218Y-43962800D02*
X25450075Y-44034228D01*
X25450075Y-44034228D02*
X25735789Y-44034228D01*
X25735789Y-44034228D02*
X25878646Y-43962800D01*
X25878646Y-43962800D02*
X25950075Y-43819942D01*
X25950075Y-43819942D02*
X25950075Y-43748514D01*
X25950075Y-43748514D02*
X25878646Y-43605657D01*
X25878646Y-43605657D02*
X25735789Y-43534228D01*
X25735789Y-43534228D02*
X25521504Y-43534228D01*
X25521504Y-43534228D02*
X25378646Y-43462800D01*
X25378646Y-43462800D02*
X25307218Y-43319942D01*
X25307218Y-43319942D02*
X25307218Y-43248514D01*
X25307218Y-43248514D02*
X25378646Y-43105657D01*
X25378646Y-43105657D02*
X25521504Y-43034228D01*
X25521504Y-43034228D02*
X25735789Y-43034228D01*
X25735789Y-43034228D02*
X25878646Y-43105657D01*
X26592932Y-44034228D02*
X26592932Y-42534228D01*
X26735790Y-43462800D02*
X27164361Y-44034228D01*
X27164361Y-43034228D02*
X26592932Y-43605657D01*
X63907219Y-36036514D02*
X63407219Y-36036514D01*
X63407219Y-36822228D02*
X63407219Y-35322228D01*
X63407219Y-35322228D02*
X64121505Y-35322228D01*
X65550076Y-36822228D02*
X65050076Y-36107942D01*
X64692933Y-36822228D02*
X64692933Y-35322228D01*
X64692933Y-35322228D02*
X65264362Y-35322228D01*
X65264362Y-35322228D02*
X65407219Y-35393657D01*
X65407219Y-35393657D02*
X65478648Y-35465085D01*
X65478648Y-35465085D02*
X65550076Y-35607942D01*
X65550076Y-35607942D02*
X65550076Y-35822228D01*
X65550076Y-35822228D02*
X65478648Y-35965085D01*
X65478648Y-35965085D02*
X65407219Y-36036514D01*
X65407219Y-36036514D02*
X65264362Y-36107942D01*
X65264362Y-36107942D02*
X64692933Y-36107942D01*
X66835791Y-35822228D02*
X66835791Y-36822228D01*
X66478648Y-35250800D02*
X66121505Y-36322228D01*
X66121505Y-36322228D02*
X67050076Y-36322228D01*
D11*
X38967370Y-20185828D02*
X39824513Y-20185828D01*
X39395941Y-21685828D02*
X39395941Y-20185828D01*
X40181655Y-20685828D02*
X40538798Y-21685828D01*
X40895941Y-20685828D02*
X40538798Y-21685828D01*
X40538798Y-21685828D02*
X40395941Y-22042971D01*
X40395941Y-22042971D02*
X40324512Y-22114400D01*
X40324512Y-22114400D02*
X40181655Y-22185828D01*
X41467369Y-20685828D02*
X41467369Y-22185828D01*
X41467369Y-20757257D02*
X41610227Y-20685828D01*
X41610227Y-20685828D02*
X41895941Y-20685828D01*
X41895941Y-20685828D02*
X42038798Y-20757257D01*
X42038798Y-20757257D02*
X42110227Y-20828685D01*
X42110227Y-20828685D02*
X42181655Y-20971542D01*
X42181655Y-20971542D02*
X42181655Y-21400114D01*
X42181655Y-21400114D02*
X42110227Y-21542971D01*
X42110227Y-21542971D02*
X42038798Y-21614400D01*
X42038798Y-21614400D02*
X41895941Y-21685828D01*
X41895941Y-21685828D02*
X41610227Y-21685828D01*
X41610227Y-21685828D02*
X41467369Y-21614400D01*
D10*
X100935793Y-42605657D02*
X100792936Y-42534228D01*
X100792936Y-42534228D02*
X100578650Y-42534228D01*
X100578650Y-42534228D02*
X100364364Y-42605657D01*
X100364364Y-42605657D02*
X100221507Y-42748514D01*
X100221507Y-42748514D02*
X100150078Y-42891371D01*
X100150078Y-42891371D02*
X100078650Y-43177085D01*
X100078650Y-43177085D02*
X100078650Y-43391371D01*
X100078650Y-43391371D02*
X100150078Y-43677085D01*
X100150078Y-43677085D02*
X100221507Y-43819942D01*
X100221507Y-43819942D02*
X100364364Y-43962800D01*
X100364364Y-43962800D02*
X100578650Y-44034228D01*
X100578650Y-44034228D02*
X100721507Y-44034228D01*
X100721507Y-44034228D02*
X100935793Y-43962800D01*
X100935793Y-43962800D02*
X101007221Y-43891371D01*
X101007221Y-43891371D02*
X101007221Y-43391371D01*
X101007221Y-43391371D02*
X100721507Y-43391371D01*
X101650078Y-44034228D02*
X101650078Y-43034228D01*
X101650078Y-43319942D02*
X101721507Y-43177085D01*
X101721507Y-43177085D02*
X101792936Y-43105657D01*
X101792936Y-43105657D02*
X101935793Y-43034228D01*
X101935793Y-43034228D02*
X102078650Y-43034228D01*
X103150078Y-43962800D02*
X103007221Y-44034228D01*
X103007221Y-44034228D02*
X102721507Y-44034228D01*
X102721507Y-44034228D02*
X102578649Y-43962800D01*
X102578649Y-43962800D02*
X102507221Y-43819942D01*
X102507221Y-43819942D02*
X102507221Y-43248514D01*
X102507221Y-43248514D02*
X102578649Y-43105657D01*
X102578649Y-43105657D02*
X102721507Y-43034228D01*
X102721507Y-43034228D02*
X103007221Y-43034228D01*
X103007221Y-43034228D02*
X103150078Y-43105657D01*
X103150078Y-43105657D02*
X103221507Y-43248514D01*
X103221507Y-43248514D02*
X103221507Y-43391371D01*
X103221507Y-43391371D02*
X102507221Y-43534228D01*
X104435792Y-43962800D02*
X104292935Y-44034228D01*
X104292935Y-44034228D02*
X104007221Y-44034228D01*
X104007221Y-44034228D02*
X103864363Y-43962800D01*
X103864363Y-43962800D02*
X103792935Y-43819942D01*
X103792935Y-43819942D02*
X103792935Y-43248514D01*
X103792935Y-43248514D02*
X103864363Y-43105657D01*
X103864363Y-43105657D02*
X104007221Y-43034228D01*
X104007221Y-43034228D02*
X104292935Y-43034228D01*
X104292935Y-43034228D02*
X104435792Y-43105657D01*
X104435792Y-43105657D02*
X104507221Y-43248514D01*
X104507221Y-43248514D02*
X104507221Y-43391371D01*
X104507221Y-43391371D02*
X103792935Y-43534228D01*
X105150077Y-43034228D02*
X105150077Y-44034228D01*
X105150077Y-43177085D02*
X105221506Y-43105657D01*
X105221506Y-43105657D02*
X105364363Y-43034228D01*
X105364363Y-43034228D02*
X105578649Y-43034228D01*
X105578649Y-43034228D02*
X105721506Y-43105657D01*
X105721506Y-43105657D02*
X105792935Y-43248514D01*
X105792935Y-43248514D02*
X105792935Y-44034228D01*
X115792935Y-47640228D02*
X114935792Y-47640228D01*
X115364363Y-47640228D02*
X115364363Y-46140228D01*
X115364363Y-46140228D02*
X115221506Y-46354514D01*
X115221506Y-46354514D02*
X115078649Y-46497371D01*
X115078649Y-46497371D02*
X114935792Y-46568800D01*
X64121505Y-26004228D02*
X63407219Y-26004228D01*
X63407219Y-26004228D02*
X63407219Y-24504228D01*
X64621505Y-26004228D02*
X64621505Y-25004228D01*
X64621505Y-24504228D02*
X64550077Y-24575657D01*
X64550077Y-24575657D02*
X64621505Y-24647085D01*
X64621505Y-24647085D02*
X64692934Y-24575657D01*
X64692934Y-24575657D02*
X64621505Y-24504228D01*
X64621505Y-24504228D02*
X64621505Y-24647085D01*
X65978649Y-25004228D02*
X65978649Y-26504228D01*
X65978649Y-25932800D02*
X65835791Y-26004228D01*
X65835791Y-26004228D02*
X65550077Y-26004228D01*
X65550077Y-26004228D02*
X65407220Y-25932800D01*
X65407220Y-25932800D02*
X65335791Y-25861371D01*
X65335791Y-25861371D02*
X65264363Y-25718514D01*
X65264363Y-25718514D02*
X65264363Y-25289942D01*
X65264363Y-25289942D02*
X65335791Y-25147085D01*
X65335791Y-25147085D02*
X65407220Y-25075657D01*
X65407220Y-25075657D02*
X65550077Y-25004228D01*
X65550077Y-25004228D02*
X65835791Y-25004228D01*
X65835791Y-25004228D02*
X65978649Y-25075657D01*
X67335792Y-25004228D02*
X67335792Y-26004228D01*
X66692934Y-25004228D02*
X66692934Y-25789942D01*
X66692934Y-25789942D02*
X66764363Y-25932800D01*
X66764363Y-25932800D02*
X66907220Y-26004228D01*
X66907220Y-26004228D02*
X67121506Y-26004228D01*
X67121506Y-26004228D02*
X67264363Y-25932800D01*
X67264363Y-25932800D02*
X67335792Y-25861371D01*
X68050077Y-26004228D02*
X68050077Y-25004228D01*
X68050077Y-24504228D02*
X67978649Y-24575657D01*
X67978649Y-24575657D02*
X68050077Y-24647085D01*
X68050077Y-24647085D02*
X68121506Y-24575657D01*
X68121506Y-24575657D02*
X68050077Y-24504228D01*
X68050077Y-24504228D02*
X68050077Y-24647085D01*
X69407221Y-26004228D02*
X69407221Y-24504228D01*
X69407221Y-25932800D02*
X69264363Y-26004228D01*
X69264363Y-26004228D02*
X68978649Y-26004228D01*
X68978649Y-26004228D02*
X68835792Y-25932800D01*
X68835792Y-25932800D02*
X68764363Y-25861371D01*
X68764363Y-25861371D02*
X68692935Y-25718514D01*
X68692935Y-25718514D02*
X68692935Y-25289942D01*
X68692935Y-25289942D02*
X68764363Y-25147085D01*
X68764363Y-25147085D02*
X68835792Y-25075657D01*
X68835792Y-25075657D02*
X68978649Y-25004228D01*
X68978649Y-25004228D02*
X69264363Y-25004228D01*
X69264363Y-25004228D02*
X69407221Y-25075657D01*
X71264363Y-26004228D02*
X71264363Y-24504228D01*
X71264363Y-24504228D02*
X71835792Y-24504228D01*
X71835792Y-24504228D02*
X71978649Y-24575657D01*
X71978649Y-24575657D02*
X72050078Y-24647085D01*
X72050078Y-24647085D02*
X72121506Y-24789942D01*
X72121506Y-24789942D02*
X72121506Y-25004228D01*
X72121506Y-25004228D02*
X72050078Y-25147085D01*
X72050078Y-25147085D02*
X71978649Y-25218514D01*
X71978649Y-25218514D02*
X71835792Y-25289942D01*
X71835792Y-25289942D02*
X71264363Y-25289942D01*
X72764363Y-26004228D02*
X72764363Y-24504228D01*
X73407221Y-26004228D02*
X73407221Y-25218514D01*
X73407221Y-25218514D02*
X73335792Y-25075657D01*
X73335792Y-25075657D02*
X73192935Y-25004228D01*
X73192935Y-25004228D02*
X72978649Y-25004228D01*
X72978649Y-25004228D02*
X72835792Y-25075657D01*
X72835792Y-25075657D02*
X72764363Y-25147085D01*
X74335792Y-26004228D02*
X74192935Y-25932800D01*
X74192935Y-25932800D02*
X74121506Y-25861371D01*
X74121506Y-25861371D02*
X74050078Y-25718514D01*
X74050078Y-25718514D02*
X74050078Y-25289942D01*
X74050078Y-25289942D02*
X74121506Y-25147085D01*
X74121506Y-25147085D02*
X74192935Y-25075657D01*
X74192935Y-25075657D02*
X74335792Y-25004228D01*
X74335792Y-25004228D02*
X74550078Y-25004228D01*
X74550078Y-25004228D02*
X74692935Y-25075657D01*
X74692935Y-25075657D02*
X74764364Y-25147085D01*
X74764364Y-25147085D02*
X74835792Y-25289942D01*
X74835792Y-25289942D02*
X74835792Y-25718514D01*
X74835792Y-25718514D02*
X74764364Y-25861371D01*
X74764364Y-25861371D02*
X74692935Y-25932800D01*
X74692935Y-25932800D02*
X74550078Y-26004228D01*
X74550078Y-26004228D02*
X74335792Y-26004228D01*
X75264364Y-25004228D02*
X75835792Y-25004228D01*
X75478649Y-24504228D02*
X75478649Y-25789942D01*
X75478649Y-25789942D02*
X75550078Y-25932800D01*
X75550078Y-25932800D02*
X75692935Y-26004228D01*
X75692935Y-26004228D02*
X75835792Y-26004228D01*
X76550078Y-26004228D02*
X76407221Y-25932800D01*
X76407221Y-25932800D02*
X76335792Y-25861371D01*
X76335792Y-25861371D02*
X76264364Y-25718514D01*
X76264364Y-25718514D02*
X76264364Y-25289942D01*
X76264364Y-25289942D02*
X76335792Y-25147085D01*
X76335792Y-25147085D02*
X76407221Y-25075657D01*
X76407221Y-25075657D02*
X76550078Y-25004228D01*
X76550078Y-25004228D02*
X76764364Y-25004228D01*
X76764364Y-25004228D02*
X76907221Y-25075657D01*
X76907221Y-25075657D02*
X76978650Y-25147085D01*
X76978650Y-25147085D02*
X77050078Y-25289942D01*
X77050078Y-25289942D02*
X77050078Y-25718514D01*
X77050078Y-25718514D02*
X76978650Y-25861371D01*
X76978650Y-25861371D02*
X76907221Y-25932800D01*
X76907221Y-25932800D02*
X76764364Y-26004228D01*
X76764364Y-26004228D02*
X76550078Y-26004228D01*
X114864363Y-28110228D02*
X115792935Y-28110228D01*
X115792935Y-28110228D02*
X115292935Y-28681657D01*
X115292935Y-28681657D02*
X115507220Y-28681657D01*
X115507220Y-28681657D02*
X115650078Y-28753085D01*
X115650078Y-28753085D02*
X115721506Y-28824514D01*
X115721506Y-28824514D02*
X115792935Y-28967371D01*
X115792935Y-28967371D02*
X115792935Y-29324514D01*
X115792935Y-29324514D02*
X115721506Y-29467371D01*
X115721506Y-29467371D02*
X115650078Y-29538800D01*
X115650078Y-29538800D02*
X115507220Y-29610228D01*
X115507220Y-29610228D02*
X115078649Y-29610228D01*
X115078649Y-29610228D02*
X114935792Y-29538800D01*
X114935792Y-29538800D02*
X114864363Y-29467371D01*
X116507220Y-29538800D02*
X116507220Y-29610228D01*
X116507220Y-29610228D02*
X116435791Y-29753085D01*
X116435791Y-29753085D02*
X116364363Y-29824514D01*
X117007220Y-28110228D02*
X117935792Y-28110228D01*
X117935792Y-28110228D02*
X117435792Y-28681657D01*
X117435792Y-28681657D02*
X117650077Y-28681657D01*
X117650077Y-28681657D02*
X117792935Y-28753085D01*
X117792935Y-28753085D02*
X117864363Y-28824514D01*
X117864363Y-28824514D02*
X117935792Y-28967371D01*
X117935792Y-28967371D02*
X117935792Y-29324514D01*
X117935792Y-29324514D02*
X117864363Y-29467371D01*
X117864363Y-29467371D02*
X117792935Y-29538800D01*
X117792935Y-29538800D02*
X117650077Y-29610228D01*
X117650077Y-29610228D02*
X117221506Y-29610228D01*
X117221506Y-29610228D02*
X117078649Y-29538800D01*
X117078649Y-29538800D02*
X117007220Y-29467371D01*
X115650078Y-35822228D02*
X115650078Y-36822228D01*
X115292935Y-35250800D02*
X114935792Y-36322228D01*
X114935792Y-36322228D02*
X115864363Y-36322228D01*
X116507220Y-36750800D02*
X116507220Y-36822228D01*
X116507220Y-36822228D02*
X116435791Y-36965085D01*
X116435791Y-36965085D02*
X116364363Y-37036514D01*
X117864363Y-35322228D02*
X117150077Y-35322228D01*
X117150077Y-35322228D02*
X117078649Y-36036514D01*
X117078649Y-36036514D02*
X117150077Y-35965085D01*
X117150077Y-35965085D02*
X117292935Y-35893657D01*
X117292935Y-35893657D02*
X117650077Y-35893657D01*
X117650077Y-35893657D02*
X117792935Y-35965085D01*
X117792935Y-35965085D02*
X117864363Y-36036514D01*
X117864363Y-36036514D02*
X117935792Y-36179371D01*
X117935792Y-36179371D02*
X117935792Y-36536514D01*
X117935792Y-36536514D02*
X117864363Y-36679371D01*
X117864363Y-36679371D02*
X117792935Y-36750800D01*
X117792935Y-36750800D02*
X117650077Y-36822228D01*
X117650077Y-36822228D02*
X117292935Y-36822228D01*
X117292935Y-36822228D02*
X117150077Y-36750800D01*
X117150077Y-36750800D02*
X117078649Y-36679371D01*
X128178650Y-28110228D02*
X128321507Y-28110228D01*
X128321507Y-28110228D02*
X128464364Y-28181657D01*
X128464364Y-28181657D02*
X128535793Y-28253085D01*
X128535793Y-28253085D02*
X128607221Y-28395942D01*
X128607221Y-28395942D02*
X128678650Y-28681657D01*
X128678650Y-28681657D02*
X128678650Y-29038800D01*
X128678650Y-29038800D02*
X128607221Y-29324514D01*
X128607221Y-29324514D02*
X128535793Y-29467371D01*
X128535793Y-29467371D02*
X128464364Y-29538800D01*
X128464364Y-29538800D02*
X128321507Y-29610228D01*
X128321507Y-29610228D02*
X128178650Y-29610228D01*
X128178650Y-29610228D02*
X128035793Y-29538800D01*
X128035793Y-29538800D02*
X127964364Y-29467371D01*
X127964364Y-29467371D02*
X127892935Y-29324514D01*
X127892935Y-29324514D02*
X127821507Y-29038800D01*
X127821507Y-29038800D02*
X127821507Y-28681657D01*
X127821507Y-28681657D02*
X127892935Y-28395942D01*
X127892935Y-28395942D02*
X127964364Y-28253085D01*
X127964364Y-28253085D02*
X128035793Y-28181657D01*
X128035793Y-28181657D02*
X128178650Y-28110228D01*
X128178650Y-31716228D02*
X128321507Y-31716228D01*
X128321507Y-31716228D02*
X128464364Y-31787657D01*
X128464364Y-31787657D02*
X128535793Y-31859085D01*
X128535793Y-31859085D02*
X128607221Y-32001942D01*
X128607221Y-32001942D02*
X128678650Y-32287657D01*
X128678650Y-32287657D02*
X128678650Y-32644800D01*
X128678650Y-32644800D02*
X128607221Y-32930514D01*
X128607221Y-32930514D02*
X128535793Y-33073371D01*
X128535793Y-33073371D02*
X128464364Y-33144800D01*
X128464364Y-33144800D02*
X128321507Y-33216228D01*
X128321507Y-33216228D02*
X128178650Y-33216228D01*
X128178650Y-33216228D02*
X128035793Y-33144800D01*
X128035793Y-33144800D02*
X127964364Y-33073371D01*
X127964364Y-33073371D02*
X127892935Y-32930514D01*
X127892935Y-32930514D02*
X127821507Y-32644800D01*
X127821507Y-32644800D02*
X127821507Y-32287657D01*
X127821507Y-32287657D02*
X127892935Y-32001942D01*
X127892935Y-32001942D02*
X127964364Y-31859085D01*
X127964364Y-31859085D02*
X128035793Y-31787657D01*
X128035793Y-31787657D02*
X128178650Y-31716228D01*
X128178650Y-35322228D02*
X128321507Y-35322228D01*
X128321507Y-35322228D02*
X128464364Y-35393657D01*
X128464364Y-35393657D02*
X128535793Y-35465085D01*
X128535793Y-35465085D02*
X128607221Y-35607942D01*
X128607221Y-35607942D02*
X128678650Y-35893657D01*
X128678650Y-35893657D02*
X128678650Y-36250800D01*
X128678650Y-36250800D02*
X128607221Y-36536514D01*
X128607221Y-36536514D02*
X128535793Y-36679371D01*
X128535793Y-36679371D02*
X128464364Y-36750800D01*
X128464364Y-36750800D02*
X128321507Y-36822228D01*
X128321507Y-36822228D02*
X128178650Y-36822228D01*
X128178650Y-36822228D02*
X128035793Y-36750800D01*
X128035793Y-36750800D02*
X127964364Y-36679371D01*
X127964364Y-36679371D02*
X127892935Y-36536514D01*
X127892935Y-36536514D02*
X127821507Y-36250800D01*
X127821507Y-36250800D02*
X127821507Y-35893657D01*
X127821507Y-35893657D02*
X127892935Y-35607942D01*
X127892935Y-35607942D02*
X127964364Y-35465085D01*
X127964364Y-35465085D02*
X128035793Y-35393657D01*
X128035793Y-35393657D02*
X128178650Y-35322228D01*
X129392935Y-36750800D02*
X129392935Y-36822228D01*
X129392935Y-36822228D02*
X129321506Y-36965085D01*
X129321506Y-36965085D02*
X129250078Y-37036514D01*
X130321507Y-35322228D02*
X130464364Y-35322228D01*
X130464364Y-35322228D02*
X130607221Y-35393657D01*
X130607221Y-35393657D02*
X130678650Y-35465085D01*
X130678650Y-35465085D02*
X130750078Y-35607942D01*
X130750078Y-35607942D02*
X130821507Y-35893657D01*
X130821507Y-35893657D02*
X130821507Y-36250800D01*
X130821507Y-36250800D02*
X130750078Y-36536514D01*
X130750078Y-36536514D02*
X130678650Y-36679371D01*
X130678650Y-36679371D02*
X130607221Y-36750800D01*
X130607221Y-36750800D02*
X130464364Y-36822228D01*
X130464364Y-36822228D02*
X130321507Y-36822228D01*
X130321507Y-36822228D02*
X130178650Y-36750800D01*
X130178650Y-36750800D02*
X130107221Y-36679371D01*
X130107221Y-36679371D02*
X130035792Y-36536514D01*
X130035792Y-36536514D02*
X129964364Y-36250800D01*
X129964364Y-36250800D02*
X129964364Y-35893657D01*
X129964364Y-35893657D02*
X130035792Y-35607942D01*
X130035792Y-35607942D02*
X130107221Y-35465085D01*
X130107221Y-35465085D02*
X130178650Y-35393657D01*
X130178650Y-35393657D02*
X130321507Y-35322228D01*
X131392935Y-35465085D02*
X131464363Y-35393657D01*
X131464363Y-35393657D02*
X131607221Y-35322228D01*
X131607221Y-35322228D02*
X131964363Y-35322228D01*
X131964363Y-35322228D02*
X132107221Y-35393657D01*
X132107221Y-35393657D02*
X132178649Y-35465085D01*
X132178649Y-35465085D02*
X132250078Y-35607942D01*
X132250078Y-35607942D02*
X132250078Y-35750800D01*
X132250078Y-35750800D02*
X132178649Y-35965085D01*
X132178649Y-35965085D02*
X131321506Y-36822228D01*
X131321506Y-36822228D02*
X132250078Y-36822228D01*
X128178650Y-38928228D02*
X128321507Y-38928228D01*
X128321507Y-38928228D02*
X128464364Y-38999657D01*
X128464364Y-38999657D02*
X128535793Y-39071085D01*
X128535793Y-39071085D02*
X128607221Y-39213942D01*
X128607221Y-39213942D02*
X128678650Y-39499657D01*
X128678650Y-39499657D02*
X128678650Y-39856800D01*
X128678650Y-39856800D02*
X128607221Y-40142514D01*
X128607221Y-40142514D02*
X128535793Y-40285371D01*
X128535793Y-40285371D02*
X128464364Y-40356800D01*
X128464364Y-40356800D02*
X128321507Y-40428228D01*
X128321507Y-40428228D02*
X128178650Y-40428228D01*
X128178650Y-40428228D02*
X128035793Y-40356800D01*
X128035793Y-40356800D02*
X127964364Y-40285371D01*
X127964364Y-40285371D02*
X127892935Y-40142514D01*
X127892935Y-40142514D02*
X127821507Y-39856800D01*
X127821507Y-39856800D02*
X127821507Y-39499657D01*
X127821507Y-39499657D02*
X127892935Y-39213942D01*
X127892935Y-39213942D02*
X127964364Y-39071085D01*
X127964364Y-39071085D02*
X128035793Y-38999657D01*
X128035793Y-38999657D02*
X128178650Y-38928228D01*
X128178650Y-42534228D02*
X128321507Y-42534228D01*
X128321507Y-42534228D02*
X128464364Y-42605657D01*
X128464364Y-42605657D02*
X128535793Y-42677085D01*
X128535793Y-42677085D02*
X128607221Y-42819942D01*
X128607221Y-42819942D02*
X128678650Y-43105657D01*
X128678650Y-43105657D02*
X128678650Y-43462800D01*
X128678650Y-43462800D02*
X128607221Y-43748514D01*
X128607221Y-43748514D02*
X128535793Y-43891371D01*
X128535793Y-43891371D02*
X128464364Y-43962800D01*
X128464364Y-43962800D02*
X128321507Y-44034228D01*
X128321507Y-44034228D02*
X128178650Y-44034228D01*
X128178650Y-44034228D02*
X128035793Y-43962800D01*
X128035793Y-43962800D02*
X127964364Y-43891371D01*
X127964364Y-43891371D02*
X127892935Y-43748514D01*
X127892935Y-43748514D02*
X127821507Y-43462800D01*
X127821507Y-43462800D02*
X127821507Y-43105657D01*
X127821507Y-43105657D02*
X127892935Y-42819942D01*
X127892935Y-42819942D02*
X127964364Y-42677085D01*
X127964364Y-42677085D02*
X128035793Y-42605657D01*
X128035793Y-42605657D02*
X128178650Y-42534228D01*
X128178650Y-46140228D02*
X128321507Y-46140228D01*
X128321507Y-46140228D02*
X128464364Y-46211657D01*
X128464364Y-46211657D02*
X128535793Y-46283085D01*
X128535793Y-46283085D02*
X128607221Y-46425942D01*
X128607221Y-46425942D02*
X128678650Y-46711657D01*
X128678650Y-46711657D02*
X128678650Y-47068800D01*
X128678650Y-47068800D02*
X128607221Y-47354514D01*
X128607221Y-47354514D02*
X128535793Y-47497371D01*
X128535793Y-47497371D02*
X128464364Y-47568800D01*
X128464364Y-47568800D02*
X128321507Y-47640228D01*
X128321507Y-47640228D02*
X128178650Y-47640228D01*
X128178650Y-47640228D02*
X128035793Y-47568800D01*
X128035793Y-47568800D02*
X127964364Y-47497371D01*
X127964364Y-47497371D02*
X127892935Y-47354514D01*
X127892935Y-47354514D02*
X127821507Y-47068800D01*
X127821507Y-47068800D02*
X127821507Y-46711657D01*
X127821507Y-46711657D02*
X127892935Y-46425942D01*
X127892935Y-46425942D02*
X127964364Y-46283085D01*
X127964364Y-46283085D02*
X128035793Y-46211657D01*
X128035793Y-46211657D02*
X128178650Y-46140228D01*
M02*
