%TF.GenerationSoftware,KiCad,Pcbnew,9.0.1-9.0.1-0~ubuntu24.04.1*%
%TF.CreationDate,2025-05-07T20:50:54+02:00*%
%TF.ProjectId,OOS - optyczny odbiornik sygnalow,4f4f5320-2d20-46f7-9074-79637a6e7920,0.0.3*%
%TF.SameCoordinates,Original*%
%TF.FileFunction,Copper,L2,Bot*%
%TF.FilePolarity,Positive*%
%FSLAX46Y46*%
G04 Gerber Fmt 4.6, Leading zero omitted, Abs format (unit mm)*
G04 Created by KiCad (PCBNEW 9.0.1-9.0.1-0~ubuntu24.04.1) date 2025-05-07 20:50:54*
%MOMM*%
%LPD*%
G01*
G04 APERTURE LIST*
%TA.AperFunction,ComponentPad*%
%ADD10O,1.700000X1.700000*%
%TD*%
%TA.AperFunction,ComponentPad*%
%ADD11R,1.700000X1.700000*%
%TD*%
%TA.AperFunction,ComponentPad*%
%ADD12O,1.600000X1.200000*%
%TD*%
%TA.AperFunction,ComponentPad*%
%ADD13C,1.200000*%
%TD*%
%TA.AperFunction,ComponentPad*%
%ADD14O,2.000000X2.000000*%
%TD*%
%TA.AperFunction,ComponentPad*%
%ADD15O,4.000000X4.000000*%
%TD*%
%TA.AperFunction,ViaPad*%
%ADD16C,0.600000*%
%TD*%
%TA.AperFunction,Conductor*%
%ADD17C,0.500000*%
%TD*%
G04 APERTURE END LIST*
D10*
%TO.P,J2,2,Pin_2*%
%TO.N,+5V*%
X201120000Y-99545000D03*
D11*
%TO.P,J2,1,Pin_1*%
X201120000Y-97005000D03*
%TD*%
%TO.P,J1,1,Pin_1*%
%TO.N,+V_photo*%
X175920000Y-107040000D03*
D10*
%TO.P,J1,2,Pin_2*%
X175920000Y-109580000D03*
%TD*%
D11*
%TO.P,J3,1,Pin_1*%
%TO.N,0V*%
X175920000Y-97005000D03*
D10*
%TO.P,J3,2,Pin_2*%
X175920000Y-99545000D03*
%TD*%
D12*
%TO.P,D3,1,A*%
%TO.N,/OPA300_TIA_-*%
X189505276Y-110064724D03*
D13*
%TO.P,D3,2,K*%
%TO.N,/BPX65_Cathode*%
X186965276Y-110064724D03*
%TD*%
D14*
%TO.P,J5,1,In*%
%TO.N,/OPA300_x10_Out_AC*%
X188300000Y-84460000D03*
D15*
%TO.P,J5,2,Ext*%
%TO.N,0V*%
X183500000Y-79460000D03*
D14*
X185800000Y-84460000D03*
D15*
X193500000Y-79460000D03*
%TD*%
D11*
%TO.P,J4,1,Pin_1*%
%TO.N,/OPA300_En_Alt_Con*%
X201120000Y-107040000D03*
D10*
%TO.P,J4,2,Pin_2*%
X201120000Y-109580000D03*
%TD*%
D16*
%TO.N,0V*%
X192720000Y-107080000D03*
X191820000Y-102880000D03*
X182820000Y-96980000D03*
X180870000Y-117380000D03*
X190120000Y-98630000D03*
X181520000Y-110430000D03*
X179970000Y-101580000D03*
X191420000Y-117380000D03*
X173820000Y-87830000D03*
X183270000Y-106580000D03*
X193670000Y-97180000D03*
X192870000Y-93430000D03*
X181670000Y-106580000D03*
X185870000Y-117530000D03*
X195620000Y-112980000D03*
X199720000Y-105530000D03*
X185820000Y-105780000D03*
X185170000Y-95790000D03*
X203120000Y-87080000D03*
X184020000Y-99480000D03*
X203020000Y-73630000D03*
X187020000Y-86030000D03*
X197420000Y-95980000D03*
X174720000Y-104380000D03*
X181520000Y-104180000D03*
X176920000Y-105380000D03*
X173770000Y-73680000D03*
X175542491Y-101792751D03*
X188200000Y-89630000D03*
X191370000Y-114130000D03*
X199470000Y-102680000D03*
X173820000Y-94830000D03*
X192070000Y-97180000D03*
X185970000Y-103730000D03*
X179970000Y-108680000D03*
X185770000Y-114130000D03*
X188270000Y-99580000D03*
X188220000Y-107730000D03*
X200120000Y-101130000D03*
X195770000Y-105880000D03*
X203020000Y-93180000D03*
X189420000Y-103630000D03*
X186170000Y-108580000D03*
X180370000Y-87730000D03*
X188070000Y-111180000D03*
X195020000Y-100780000D03*
X199520000Y-108480000D03*
X183420000Y-103780000D03*
X183870000Y-110330000D03*
X196720000Y-80830000D03*
X180070000Y-73680000D03*
X197770000Y-106480000D03*
X196720000Y-73580000D03*
X202970000Y-80980000D03*
X194320000Y-107080000D03*
X177320000Y-108580000D03*
X196870000Y-87280000D03*
X195670000Y-97180000D03*
X199420000Y-98030000D03*
X185220000Y-90730000D03*
X197620000Y-99930000D03*
X199720000Y-111230000D03*
X190820000Y-108230000D03*
X187820000Y-92230000D03*
X185320000Y-93580000D03*
X203070000Y-99880000D03*
X173720000Y-80980000D03*
X189370000Y-93780000D03*
X195520000Y-94080000D03*
X193420000Y-99080000D03*
X192270000Y-100730000D03*
X197070000Y-102580000D03*
X191620000Y-106080000D03*
X192170000Y-87680000D03*
X200120000Y-95280000D03*
X179970000Y-80930000D03*
X194420000Y-102880000D03*
X185520000Y-87680000D03*
X185970000Y-97930000D03*
X174720000Y-111280000D03*
X190920000Y-96080000D03*
X184920000Y-101980000D03*
X184570000Y-106580000D03*
X189220000Y-86680000D03*
%TO.N,+5V*%
X174820000Y-102790000D03*
X195395000Y-104555000D03*
%TO.N,0V*%
X180870000Y-112080000D03*
%TD*%
D17*
%TO.N,+5V*%
X174810000Y-102790000D02*
X173671000Y-103929000D01*
X175920000Y-118580000D02*
X200920000Y-118580000D01*
X174820000Y-102790000D02*
X174810000Y-102790000D01*
X203169000Y-116331000D02*
X203169000Y-104480000D01*
X173671000Y-116331000D02*
X175920000Y-118580000D01*
X173671000Y-103929000D02*
X173671000Y-116331000D01*
X203169000Y-101594000D02*
X203169000Y-104480000D01*
X200920000Y-118580000D02*
X203169000Y-116331000D01*
X195395000Y-104555000D02*
X203094000Y-104555000D01*
X201120000Y-99545000D02*
X203169000Y-101594000D01*
X203094000Y-104555000D02*
X203169000Y-104480000D01*
%TD*%
%TA.AperFunction,Conductor*%
%TO.N,0V*%
G36*
X176170000Y-99111988D02*
G01*
X176112993Y-99079075D01*
X175985826Y-99045000D01*
X175854174Y-99045000D01*
X175727007Y-99079075D01*
X175670000Y-99111988D01*
X175670000Y-97438012D01*
X175727007Y-97470925D01*
X175854174Y-97505000D01*
X175985826Y-97505000D01*
X176112993Y-97470925D01*
X176170000Y-97438012D01*
X176170000Y-99111988D01*
G37*
%TD.AperFunction*%
%TA.AperFunction,Conductor*%
G36*
X203562539Y-72700185D02*
G01*
X203608294Y-72752989D01*
X203619500Y-72804500D01*
X203619500Y-100683770D01*
X203599815Y-100750809D01*
X203547011Y-100796564D01*
X203477853Y-100806508D01*
X203414297Y-100777483D01*
X203407819Y-100771451D01*
X202490174Y-99853807D01*
X202456689Y-99792484D01*
X202455382Y-99746733D01*
X202470500Y-99651287D01*
X202470500Y-99438713D01*
X202437246Y-99228757D01*
X202371557Y-99026588D01*
X202275051Y-98837184D01*
X202275049Y-98837181D01*
X202275048Y-98837179D01*
X202150109Y-98665213D01*
X202036569Y-98551673D01*
X202003084Y-98490350D01*
X202008068Y-98420658D01*
X202049940Y-98364725D01*
X202080915Y-98347810D01*
X202212331Y-98298796D01*
X202327546Y-98212546D01*
X202413796Y-98097331D01*
X202464091Y-97962483D01*
X202470500Y-97902873D01*
X202470499Y-96107128D01*
X202464091Y-96047517D01*
X202413884Y-95912906D01*
X202413797Y-95912671D01*
X202413793Y-95912664D01*
X202327547Y-95797455D01*
X202327544Y-95797452D01*
X202212335Y-95711206D01*
X202212328Y-95711202D01*
X202077482Y-95660908D01*
X202077483Y-95660908D01*
X202017883Y-95654501D01*
X202017881Y-95654500D01*
X202017873Y-95654500D01*
X202017864Y-95654500D01*
X200222129Y-95654500D01*
X200222123Y-95654501D01*
X200162516Y-95660908D01*
X200027671Y-95711202D01*
X200027664Y-95711206D01*
X199912455Y-95797452D01*
X199912452Y-95797455D01*
X199826206Y-95912664D01*
X199826202Y-95912671D01*
X199775908Y-96047517D01*
X199769501Y-96107116D01*
X199769501Y-96107123D01*
X199769500Y-96107135D01*
X199769500Y-97902870D01*
X199769501Y-97902876D01*
X199775908Y-97962483D01*
X199826202Y-98097328D01*
X199826206Y-98097335D01*
X199912452Y-98212544D01*
X199912455Y-98212547D01*
X200027664Y-98298793D01*
X200027671Y-98298797D01*
X200159082Y-98347810D01*
X200215016Y-98389681D01*
X200239433Y-98455145D01*
X200224582Y-98523418D01*
X200203431Y-98551673D01*
X200089889Y-98665215D01*
X199964951Y-98837179D01*
X199868444Y-99026585D01*
X199802753Y-99228760D01*
X199769500Y-99438713D01*
X199769500Y-99651286D01*
X199802753Y-99861239D01*
X199868444Y-100063414D01*
X199964951Y-100252820D01*
X200089890Y-100424786D01*
X200240213Y-100575109D01*
X200412179Y-100700048D01*
X200412181Y-100700049D01*
X200412184Y-100700051D01*
X200601588Y-100796557D01*
X200803757Y-100862246D01*
X201013713Y-100895500D01*
X201013714Y-100895500D01*
X201226284Y-100895500D01*
X201226287Y-100895500D01*
X201321731Y-100880382D01*
X201391020Y-100889336D01*
X201428807Y-100915174D01*
X202382181Y-101868548D01*
X202415666Y-101929871D01*
X202418500Y-101956229D01*
X202418500Y-103680500D01*
X202398815Y-103747539D01*
X202346011Y-103793294D01*
X202294500Y-103804500D01*
X195699604Y-103804500D01*
X195652155Y-103795062D01*
X195628497Y-103785263D01*
X195628493Y-103785262D01*
X195628488Y-103785260D01*
X195473845Y-103754500D01*
X195473842Y-103754500D01*
X195316158Y-103754500D01*
X195316155Y-103754500D01*
X195161510Y-103785261D01*
X195161498Y-103785264D01*
X195015827Y-103845602D01*
X195015814Y-103845609D01*
X194884711Y-103933210D01*
X194884707Y-103933213D01*
X194773213Y-104044707D01*
X194773210Y-104044711D01*
X194685609Y-104175814D01*
X194685602Y-104175827D01*
X194625264Y-104321498D01*
X194625261Y-104321510D01*
X194594500Y-104476153D01*
X194594500Y-104633846D01*
X194625261Y-104788489D01*
X194625264Y-104788501D01*
X194685602Y-104934172D01*
X194685609Y-104934185D01*
X194773210Y-105065288D01*
X194773213Y-105065292D01*
X194884707Y-105176786D01*
X194884711Y-105176789D01*
X195015814Y-105264390D01*
X195015827Y-105264397D01*
X195115060Y-105305500D01*
X195161503Y-105324737D01*
X195316153Y-105355499D01*
X195316156Y-105355500D01*
X195316158Y-105355500D01*
X195473844Y-105355500D01*
X195473845Y-105355499D01*
X195550152Y-105340320D01*
X195628488Y-105324739D01*
X195628489Y-105324738D01*
X195628497Y-105324737D01*
X195652155Y-105314937D01*
X195699604Y-105305500D01*
X202294500Y-105305500D01*
X202361539Y-105325185D01*
X202407294Y-105377989D01*
X202418500Y-105429500D01*
X202418500Y-105652819D01*
X202398815Y-105719858D01*
X202346011Y-105765613D01*
X202276853Y-105775557D01*
X202220191Y-105752087D01*
X202212334Y-105746206D01*
X202212328Y-105746202D01*
X202077482Y-105695908D01*
X202077483Y-105695908D01*
X202017883Y-105689501D01*
X202017881Y-105689500D01*
X202017873Y-105689500D01*
X202017864Y-105689500D01*
X200222129Y-105689500D01*
X200222123Y-105689501D01*
X200162516Y-105695908D01*
X200027671Y-105746202D01*
X200027664Y-105746206D01*
X199912455Y-105832452D01*
X199912452Y-105832455D01*
X199826206Y-105947664D01*
X199826202Y-105947671D01*
X199775908Y-106082517D01*
X199769501Y-106142116D01*
X199769501Y-106142123D01*
X199769500Y-106142135D01*
X199769500Y-107937870D01*
X199769501Y-107937876D01*
X199775908Y-107997483D01*
X199826202Y-108132328D01*
X199826206Y-108132335D01*
X199912452Y-108247544D01*
X199912455Y-108247547D01*
X200027664Y-108333793D01*
X200027671Y-108333797D01*
X200159082Y-108382810D01*
X200215016Y-108424681D01*
X200239433Y-108490145D01*
X200224582Y-108558418D01*
X200203431Y-108586673D01*
X200089889Y-108700215D01*
X199964951Y-108872179D01*
X199868444Y-109061585D01*
X199802753Y-109263760D01*
X199769500Y-109473713D01*
X199769500Y-109686286D01*
X199802753Y-109896239D01*
X199802753Y-109896241D01*
X199802754Y-109896243D01*
X199854098Y-110054264D01*
X199868444Y-110098414D01*
X199964951Y-110287820D01*
X200089890Y-110459786D01*
X200240213Y-110610109D01*
X200412179Y-110735048D01*
X200412181Y-110735049D01*
X200412184Y-110735051D01*
X200601588Y-110831557D01*
X200803757Y-110897246D01*
X201013713Y-110930500D01*
X201013714Y-110930500D01*
X201226286Y-110930500D01*
X201226287Y-110930500D01*
X201436243Y-110897246D01*
X201638412Y-110831557D01*
X201827816Y-110735051D01*
X201849789Y-110719086D01*
X201999786Y-110610109D01*
X201999788Y-110610106D01*
X201999792Y-110610104D01*
X202150104Y-110459792D01*
X202194181Y-110399125D01*
X202249511Y-110356458D01*
X202319124Y-110350479D01*
X202380919Y-110383084D01*
X202415277Y-110443922D01*
X202418500Y-110472009D01*
X202418500Y-115968770D01*
X202398815Y-116035809D01*
X202382181Y-116056451D01*
X200645451Y-117793181D01*
X200584128Y-117826666D01*
X200557770Y-117829500D01*
X176282229Y-117829500D01*
X176215190Y-117809815D01*
X176194548Y-117793181D01*
X174457819Y-116056451D01*
X174424334Y-115995128D01*
X174421500Y-115968770D01*
X174421500Y-115268549D01*
X175219500Y-115268549D01*
X175219500Y-115491450D01*
X175219501Y-115491466D01*
X175248594Y-115712452D01*
X175248595Y-115712457D01*
X175248596Y-115712463D01*
X175248597Y-115712465D01*
X175306290Y-115927780D01*
X175306293Y-115927790D01*
X175391593Y-116133722D01*
X175391595Y-116133726D01*
X175503052Y-116326774D01*
X175503057Y-116326780D01*
X175503058Y-116326782D01*
X175638751Y-116503622D01*
X175638757Y-116503629D01*
X175796370Y-116661242D01*
X175796376Y-116661247D01*
X175973226Y-116796948D01*
X176166274Y-116908405D01*
X176372219Y-116993710D01*
X176587537Y-117051404D01*
X176808543Y-117080500D01*
X176808550Y-117080500D01*
X177031450Y-117080500D01*
X177031457Y-117080500D01*
X177252463Y-117051404D01*
X177467781Y-116993710D01*
X177673726Y-116908405D01*
X177866774Y-116796948D01*
X178043624Y-116661247D01*
X178201247Y-116503624D01*
X178336948Y-116326774D01*
X178448405Y-116133726D01*
X178533710Y-115927781D01*
X178591404Y-115712463D01*
X178620500Y-115491457D01*
X178620500Y-115268549D01*
X198219500Y-115268549D01*
X198219500Y-115491450D01*
X198219501Y-115491466D01*
X198248594Y-115712452D01*
X198248595Y-115712457D01*
X198248596Y-115712463D01*
X198248597Y-115712465D01*
X198306290Y-115927780D01*
X198306293Y-115927790D01*
X198391593Y-116133722D01*
X198391595Y-116133726D01*
X198503052Y-116326774D01*
X198503057Y-116326780D01*
X198503058Y-116326782D01*
X198638751Y-116503622D01*
X198638757Y-116503629D01*
X198796370Y-116661242D01*
X198796376Y-116661247D01*
X198973226Y-116796948D01*
X199166274Y-116908405D01*
X199372219Y-116993710D01*
X199587537Y-117051404D01*
X199808543Y-117080500D01*
X199808550Y-117080500D01*
X200031450Y-117080500D01*
X200031457Y-117080500D01*
X200252463Y-117051404D01*
X200467781Y-116993710D01*
X200673726Y-116908405D01*
X200866774Y-116796948D01*
X201043624Y-116661247D01*
X201201247Y-116503624D01*
X201336948Y-116326774D01*
X201448405Y-116133726D01*
X201533710Y-115927781D01*
X201591404Y-115712463D01*
X201620500Y-115491457D01*
X201620500Y-115268543D01*
X201591404Y-115047537D01*
X201533710Y-114832219D01*
X201448405Y-114626274D01*
X201336948Y-114433226D01*
X201201247Y-114256376D01*
X201201242Y-114256370D01*
X201043629Y-114098757D01*
X201043622Y-114098751D01*
X200866782Y-113963058D01*
X200866780Y-113963057D01*
X200866774Y-113963052D01*
X200673726Y-113851595D01*
X200673722Y-113851593D01*
X200467790Y-113766293D01*
X200467783Y-113766291D01*
X200467781Y-113766290D01*
X200252463Y-113708596D01*
X200252457Y-113708595D01*
X200252452Y-113708594D01*
X200031466Y-113679501D01*
X200031463Y-113679500D01*
X200031457Y-113679500D01*
X199808543Y-113679500D01*
X199808537Y-113679500D01*
X199808533Y-113679501D01*
X199587547Y-113708594D01*
X199587540Y-113708595D01*
X199587537Y-113708596D01*
X199372219Y-113766290D01*
X199372209Y-113766293D01*
X199166277Y-113851593D01*
X199166273Y-113851595D01*
X198973226Y-113963052D01*
X198973217Y-113963058D01*
X198796377Y-114098751D01*
X198796370Y-114098757D01*
X198638757Y-114256370D01*
X198638751Y-114256377D01*
X198503058Y-114433217D01*
X198503052Y-114433226D01*
X198391595Y-114626273D01*
X198391593Y-114626277D01*
X198306293Y-114832209D01*
X198306290Y-114832219D01*
X198248597Y-115047534D01*
X198248594Y-115047547D01*
X198219501Y-115268533D01*
X198219500Y-115268549D01*
X178620500Y-115268549D01*
X178620500Y-115268543D01*
X178591404Y-115047537D01*
X178533710Y-114832219D01*
X178448405Y-114626274D01*
X178336948Y-114433226D01*
X178201247Y-114256376D01*
X178201242Y-114256370D01*
X178043629Y-114098757D01*
X178043622Y-114098751D01*
X177866782Y-113963058D01*
X177866780Y-113963057D01*
X177866774Y-113963052D01*
X177673726Y-113851595D01*
X177673722Y-113851593D01*
X177467790Y-113766293D01*
X177467783Y-113766291D01*
X177467781Y-113766290D01*
X177252463Y-113708596D01*
X177252457Y-113708595D01*
X177252452Y-113708594D01*
X177031466Y-113679501D01*
X177031463Y-113679500D01*
X177031457Y-113679500D01*
X176808543Y-113679500D01*
X176808537Y-113679500D01*
X176808533Y-113679501D01*
X176587547Y-113708594D01*
X176587540Y-113708595D01*
X176587537Y-113708596D01*
X176372219Y-113766290D01*
X176372209Y-113766293D01*
X176166277Y-113851593D01*
X176166273Y-113851595D01*
X175973226Y-113963052D01*
X175973217Y-113963058D01*
X175796377Y-114098751D01*
X175796370Y-114098757D01*
X175638757Y-114256370D01*
X175638751Y-114256377D01*
X175503058Y-114433217D01*
X175503052Y-114433226D01*
X175391595Y-114626273D01*
X175391593Y-114626277D01*
X175306293Y-114832209D01*
X175306290Y-114832219D01*
X175248597Y-115047534D01*
X175248594Y-115047547D01*
X175219501Y-115268533D01*
X175219500Y-115268549D01*
X174421500Y-115268549D01*
X174421500Y-110121303D01*
X174441185Y-110054264D01*
X174493989Y-110008509D01*
X174563147Y-109998565D01*
X174626703Y-110027590D01*
X174663431Y-110082986D01*
X174668443Y-110098413D01*
X174764951Y-110287820D01*
X174889890Y-110459786D01*
X175040213Y-110610109D01*
X175212179Y-110735048D01*
X175212181Y-110735049D01*
X175212184Y-110735051D01*
X175401588Y-110831557D01*
X175603757Y-110897246D01*
X175813713Y-110930500D01*
X175813714Y-110930500D01*
X176026286Y-110930500D01*
X176026287Y-110930500D01*
X176236243Y-110897246D01*
X176438412Y-110831557D01*
X176627816Y-110735051D01*
X176649789Y-110719086D01*
X176799786Y-110610109D01*
X176799788Y-110610106D01*
X176799792Y-110610104D01*
X176950104Y-110459792D01*
X176950106Y-110459788D01*
X176950109Y-110459786D01*
X177075048Y-110287820D01*
X177075047Y-110287820D01*
X177075051Y-110287816D01*
X177171557Y-110098412D01*
X177210645Y-109978113D01*
X185864776Y-109978113D01*
X185864776Y-110151335D01*
X185891874Y-110322425D01*
X185945403Y-110487169D01*
X186024044Y-110641512D01*
X186125862Y-110781652D01*
X186248348Y-110904138D01*
X186388488Y-111005956D01*
X186542831Y-111084597D01*
X186707575Y-111138126D01*
X186878665Y-111165224D01*
X186878666Y-111165224D01*
X187051886Y-111165224D01*
X187051887Y-111165224D01*
X187222977Y-111138126D01*
X187387721Y-111084597D01*
X187542064Y-111005956D01*
X187682204Y-110904138D01*
X187804690Y-110781652D01*
X187906508Y-110641512D01*
X187985149Y-110487169D01*
X188017346Y-110388077D01*
X188056782Y-110330403D01*
X188121141Y-110303205D01*
X188189987Y-110315120D01*
X188241463Y-110362364D01*
X188253205Y-110388074D01*
X188285403Y-110487169D01*
X188364044Y-110641512D01*
X188465862Y-110781652D01*
X188588348Y-110904138D01*
X188728488Y-111005956D01*
X188882831Y-111084597D01*
X189047575Y-111138126D01*
X189218665Y-111165224D01*
X189218666Y-111165224D01*
X189791886Y-111165224D01*
X189791887Y-111165224D01*
X189962977Y-111138126D01*
X190127721Y-111084597D01*
X190282064Y-111005956D01*
X190422204Y-110904138D01*
X190544690Y-110781652D01*
X190646508Y-110641512D01*
X190725149Y-110487169D01*
X190778678Y-110322425D01*
X190805776Y-110151335D01*
X190805776Y-109978113D01*
X190778678Y-109807023D01*
X190725149Y-109642279D01*
X190646508Y-109487936D01*
X190544690Y-109347796D01*
X190422204Y-109225310D01*
X190282064Y-109123492D01*
X190190847Y-109077015D01*
X190127723Y-109044852D01*
X190127722Y-109044851D01*
X190127721Y-109044851D01*
X189962977Y-108991322D01*
X189962975Y-108991321D01*
X189962974Y-108991321D01*
X189831547Y-108970505D01*
X189791887Y-108964224D01*
X189218665Y-108964224D01*
X189179004Y-108970505D01*
X189047578Y-108991321D01*
X188882828Y-109044852D01*
X188728487Y-109123492D01*
X188648532Y-109181583D01*
X188588348Y-109225310D01*
X188588346Y-109225312D01*
X188588345Y-109225312D01*
X188465864Y-109347793D01*
X188465864Y-109347794D01*
X188465862Y-109347796D01*
X188422135Y-109407980D01*
X188364044Y-109487935D01*
X188285404Y-109642276D01*
X188253207Y-109741368D01*
X188213769Y-109799044D01*
X188149411Y-109826242D01*
X188080564Y-109814327D01*
X188029089Y-109767083D01*
X188017345Y-109741368D01*
X187999448Y-109686287D01*
X187985149Y-109642279D01*
X187906508Y-109487936D01*
X187804690Y-109347796D01*
X187682204Y-109225310D01*
X187542064Y-109123492D01*
X187450847Y-109077015D01*
X187387723Y-109044852D01*
X187387722Y-109044851D01*
X187387721Y-109044851D01*
X187222977Y-108991322D01*
X187222975Y-108991321D01*
X187222974Y-108991321D01*
X187091547Y-108970505D01*
X187051887Y-108964224D01*
X186878665Y-108964224D01*
X186839004Y-108970505D01*
X186707578Y-108991321D01*
X186542828Y-109044852D01*
X186388487Y-109123492D01*
X186308532Y-109181583D01*
X186248348Y-109225310D01*
X186248346Y-109225312D01*
X186248345Y-109225312D01*
X186125864Y-109347793D01*
X186125864Y-109347794D01*
X186125862Y-109347796D01*
X186082135Y-109407980D01*
X186024044Y-109487935D01*
X185945404Y-109642276D01*
X185891873Y-109807026D01*
X185868605Y-109953936D01*
X185864776Y-109978113D01*
X177210645Y-109978113D01*
X177237246Y-109896243D01*
X177270500Y-109686287D01*
X177270500Y-109473713D01*
X177237246Y-109263757D01*
X177171557Y-109061588D01*
X177075051Y-108872184D01*
X177075049Y-108872181D01*
X177075048Y-108872179D01*
X176950109Y-108700213D01*
X176836569Y-108586673D01*
X176803084Y-108525350D01*
X176808068Y-108455658D01*
X176849940Y-108399725D01*
X176880915Y-108382810D01*
X177012331Y-108333796D01*
X177127546Y-108247546D01*
X177213796Y-108132331D01*
X177264091Y-107997483D01*
X177270500Y-107937873D01*
X177270499Y-106142128D01*
X177264091Y-106082517D01*
X177213796Y-105947669D01*
X177213795Y-105947668D01*
X177213793Y-105947664D01*
X177127547Y-105832455D01*
X177127544Y-105832452D01*
X177012335Y-105746206D01*
X177012328Y-105746202D01*
X176877482Y-105695908D01*
X176877483Y-105695908D01*
X176817883Y-105689501D01*
X176817881Y-105689500D01*
X176817873Y-105689500D01*
X176817864Y-105689500D01*
X175022129Y-105689500D01*
X175022123Y-105689501D01*
X174962516Y-105695908D01*
X174827671Y-105746202D01*
X174827664Y-105746206D01*
X174712455Y-105832452D01*
X174644766Y-105922873D01*
X174588832Y-105964743D01*
X174519141Y-105969727D01*
X174457818Y-105936241D01*
X174424333Y-105874918D01*
X174421500Y-105848561D01*
X174421500Y-104291229D01*
X174441185Y-104224190D01*
X174457819Y-104203548D01*
X174728157Y-103933210D01*
X175118226Y-103543140D01*
X175158448Y-103516264D01*
X175199179Y-103499394D01*
X175330289Y-103411789D01*
X175441789Y-103300289D01*
X175529394Y-103169179D01*
X175589737Y-103023497D01*
X175620500Y-102868842D01*
X175620500Y-102711158D01*
X175620500Y-102711155D01*
X175620499Y-102711153D01*
X175589738Y-102556510D01*
X175589737Y-102556503D01*
X175548784Y-102457633D01*
X175529397Y-102410827D01*
X175529390Y-102410814D01*
X175441789Y-102279711D01*
X175441786Y-102279707D01*
X175330292Y-102168213D01*
X175330288Y-102168210D01*
X175199185Y-102080609D01*
X175199172Y-102080602D01*
X175053501Y-102020264D01*
X175053489Y-102020261D01*
X174898845Y-101989500D01*
X174898842Y-101989500D01*
X174741158Y-101989500D01*
X174741155Y-101989500D01*
X174586510Y-102020261D01*
X174586498Y-102020264D01*
X174440827Y-102080602D01*
X174440814Y-102080609D01*
X174309711Y-102168210D01*
X174309707Y-102168213D01*
X174198213Y-102279707D01*
X174198207Y-102279715D01*
X174110606Y-102410818D01*
X174110602Y-102410827D01*
X174107875Y-102417411D01*
X174080998Y-102457633D01*
X173432181Y-103106451D01*
X173370858Y-103139936D01*
X173301167Y-103134952D01*
X173245233Y-103093081D01*
X173220816Y-103027616D01*
X173220500Y-103018770D01*
X173220500Y-96107155D01*
X174570000Y-96107155D01*
X174570000Y-96755000D01*
X175486988Y-96755000D01*
X175454075Y-96812007D01*
X175420000Y-96939174D01*
X175420000Y-97070826D01*
X175454075Y-97197993D01*
X175486988Y-97255000D01*
X174570000Y-97255000D01*
X174570000Y-97902844D01*
X174576401Y-97962372D01*
X174576403Y-97962379D01*
X174626645Y-98097086D01*
X174626649Y-98097093D01*
X174712809Y-98212187D01*
X174712812Y-98212190D01*
X174827906Y-98298350D01*
X174827913Y-98298354D01*
X174959986Y-98347614D01*
X175015920Y-98389485D01*
X175040337Y-98454949D01*
X175025486Y-98523222D01*
X175004335Y-98551477D01*
X174890271Y-98665541D01*
X174765379Y-98837442D01*
X174668904Y-99026782D01*
X174603242Y-99228870D01*
X174603242Y-99228873D01*
X174592769Y-99295000D01*
X175486988Y-99295000D01*
X175454075Y-99352007D01*
X175420000Y-99479174D01*
X175420000Y-99610826D01*
X175454075Y-99737993D01*
X175486988Y-99795000D01*
X174592769Y-99795000D01*
X174603242Y-99861126D01*
X174603242Y-99861129D01*
X174668904Y-100063217D01*
X174765379Y-100252557D01*
X174890272Y-100424459D01*
X174890276Y-100424464D01*
X175040535Y-100574723D01*
X175040540Y-100574727D01*
X175212442Y-100699620D01*
X175401782Y-100796095D01*
X175603871Y-100861757D01*
X175670000Y-100872231D01*
X175670000Y-99978012D01*
X175727007Y-100010925D01*
X175854174Y-100045000D01*
X175985826Y-100045000D01*
X176112993Y-100010925D01*
X176170000Y-99978012D01*
X176170000Y-100872230D01*
X176236126Y-100861757D01*
X176236129Y-100861757D01*
X176438217Y-100796095D01*
X176627557Y-100699620D01*
X176799459Y-100574727D01*
X176799464Y-100574723D01*
X176949723Y-100424464D01*
X176949727Y-100424459D01*
X177074620Y-100252557D01*
X177171095Y-100063217D01*
X177236757Y-99861129D01*
X177236757Y-99861126D01*
X177247231Y-99795000D01*
X176353012Y-99795000D01*
X176385925Y-99737993D01*
X176420000Y-99610826D01*
X176420000Y-99479174D01*
X176385925Y-99352007D01*
X176353012Y-99295000D01*
X177247231Y-99295000D01*
X177236757Y-99228873D01*
X177236757Y-99228870D01*
X177171095Y-99026782D01*
X177074620Y-98837442D01*
X176949727Y-98665540D01*
X176949723Y-98665535D01*
X176835665Y-98551477D01*
X176802180Y-98490154D01*
X176807164Y-98420462D01*
X176849036Y-98364529D01*
X176880013Y-98347614D01*
X177012086Y-98298354D01*
X177012093Y-98298350D01*
X177127187Y-98212190D01*
X177127190Y-98212187D01*
X177213350Y-98097093D01*
X177213354Y-98097086D01*
X177263596Y-97962379D01*
X177263598Y-97962372D01*
X177269999Y-97902844D01*
X177270000Y-97902827D01*
X177270000Y-97255000D01*
X176353012Y-97255000D01*
X176385925Y-97197993D01*
X176420000Y-97070826D01*
X176420000Y-96939174D01*
X176385925Y-96812007D01*
X176353012Y-96755000D01*
X177270000Y-96755000D01*
X177270000Y-96107172D01*
X177269999Y-96107155D01*
X177263598Y-96047627D01*
X177263596Y-96047620D01*
X177213354Y-95912913D01*
X177213350Y-95912906D01*
X177127190Y-95797812D01*
X177127187Y-95797809D01*
X177012093Y-95711649D01*
X177012086Y-95711645D01*
X176877379Y-95661403D01*
X176877372Y-95661401D01*
X176817844Y-95655000D01*
X176170000Y-95655000D01*
X176170000Y-96571988D01*
X176112993Y-96539075D01*
X175985826Y-96505000D01*
X175854174Y-96505000D01*
X175727007Y-96539075D01*
X175670000Y-96571988D01*
X175670000Y-95655000D01*
X175022155Y-95655000D01*
X174962627Y-95661401D01*
X174962620Y-95661403D01*
X174827913Y-95711645D01*
X174827906Y-95711649D01*
X174712812Y-95797809D01*
X174712809Y-95797812D01*
X174626649Y-95912906D01*
X174626645Y-95912913D01*
X174576403Y-96047620D01*
X174576401Y-96047627D01*
X174570000Y-96107155D01*
X173220500Y-96107155D01*
X173220500Y-84210000D01*
X184320898Y-84210000D01*
X185366988Y-84210000D01*
X185334075Y-84267007D01*
X185300000Y-84394174D01*
X185300000Y-84525826D01*
X185334075Y-84652993D01*
X185366988Y-84710000D01*
X184320898Y-84710000D01*
X184336934Y-84811247D01*
X184409897Y-85035802D01*
X184517085Y-85246171D01*
X184655866Y-85437186D01*
X184822813Y-85604133D01*
X185013828Y-85742914D01*
X185224195Y-85850102D01*
X185448744Y-85923063D01*
X185448750Y-85923065D01*
X185550000Y-85939101D01*
X185550000Y-84893012D01*
X185607007Y-84925925D01*
X185734174Y-84960000D01*
X185865826Y-84960000D01*
X185992993Y-84925925D01*
X186050000Y-84893012D01*
X186050000Y-85939100D01*
X186151249Y-85923065D01*
X186151255Y-85923063D01*
X186375804Y-85850102D01*
X186586171Y-85742914D01*
X186777186Y-85604133D01*
X186944137Y-85437182D01*
X186949369Y-85429981D01*
X187004696Y-85387312D01*
X187074309Y-85381329D01*
X187136106Y-85413932D01*
X187150008Y-85429974D01*
X187155247Y-85437186D01*
X187155483Y-85437510D01*
X187322490Y-85604517D01*
X187513567Y-85743343D01*
X187612991Y-85794002D01*
X187724003Y-85850566D01*
X187724005Y-85850566D01*
X187724008Y-85850568D01*
X187844412Y-85889689D01*
X187948631Y-85923553D01*
X188181903Y-85960500D01*
X188181908Y-85960500D01*
X188418097Y-85960500D01*
X188651368Y-85923553D01*
X188652876Y-85923063D01*
X188875992Y-85850568D01*
X189086433Y-85743343D01*
X189277510Y-85604517D01*
X189444517Y-85437510D01*
X189583343Y-85246433D01*
X189690568Y-85035992D01*
X189763553Y-84811368D01*
X189788637Y-84652993D01*
X189800500Y-84578097D01*
X189800500Y-84341902D01*
X189763553Y-84108631D01*
X189690566Y-83884003D01*
X189634002Y-83772991D01*
X189583343Y-83673567D01*
X189444517Y-83482490D01*
X189277510Y-83315483D01*
X189086433Y-83176657D01*
X188875996Y-83069433D01*
X188651368Y-82996446D01*
X188418097Y-82959500D01*
X188418092Y-82959500D01*
X188181908Y-82959500D01*
X188181903Y-82959500D01*
X187948631Y-82996446D01*
X187724003Y-83069433D01*
X187513566Y-83176657D01*
X187404550Y-83255862D01*
X187322490Y-83315483D01*
X187322488Y-83315485D01*
X187322487Y-83315485D01*
X187155485Y-83482487D01*
X187155480Y-83482493D01*
X187150005Y-83490029D01*
X187094673Y-83532692D01*
X187025059Y-83538667D01*
X186963266Y-83506058D01*
X186949372Y-83490022D01*
X186944139Y-83482819D01*
X186777186Y-83315866D01*
X186586171Y-83177085D01*
X186375802Y-83069897D01*
X186151247Y-82996934D01*
X186050000Y-82980897D01*
X186050000Y-84026988D01*
X185992993Y-83994075D01*
X185865826Y-83960000D01*
X185734174Y-83960000D01*
X185607007Y-83994075D01*
X185550000Y-84026988D01*
X185550000Y-82980897D01*
X185448752Y-82996934D01*
X185224197Y-83069897D01*
X185013828Y-83177085D01*
X184822813Y-83315866D01*
X184655866Y-83482813D01*
X184517085Y-83673828D01*
X184409897Y-83884197D01*
X184336934Y-84108752D01*
X184320898Y-84210000D01*
X173220500Y-84210000D01*
X173220500Y-79209999D01*
X181012348Y-79209999D01*
X181012349Y-79210000D01*
X182530137Y-79210000D01*
X182500000Y-79361509D01*
X182500000Y-79558491D01*
X182530137Y-79710000D01*
X181012349Y-79710000D01*
X181031437Y-79879412D01*
X181031439Y-79879424D01*
X181093921Y-80153178D01*
X181093922Y-80153180D01*
X181186662Y-80418217D01*
X181308492Y-80671200D01*
X181457884Y-80908956D01*
X181632957Y-81128490D01*
X181831509Y-81327042D01*
X182051043Y-81502115D01*
X182288799Y-81651507D01*
X182541782Y-81773337D01*
X182806819Y-81866077D01*
X182806821Y-81866078D01*
X183080575Y-81928560D01*
X183080589Y-81928563D01*
X183249999Y-81947650D01*
X183250000Y-81947650D01*
X183250000Y-80429863D01*
X183401509Y-80460000D01*
X183598491Y-80460000D01*
X183750000Y-80429863D01*
X183750000Y-81947650D01*
X183919410Y-81928563D01*
X183919424Y-81928560D01*
X184193178Y-81866078D01*
X184193180Y-81866077D01*
X184458217Y-81773337D01*
X184711200Y-81651507D01*
X184948956Y-81502115D01*
X185168490Y-81327042D01*
X185367042Y-81128490D01*
X185542115Y-80908956D01*
X185691507Y-80671200D01*
X185813337Y-80418217D01*
X185906077Y-80153180D01*
X185906078Y-80153178D01*
X185968560Y-79879424D01*
X185968562Y-79879412D01*
X185987651Y-79710000D01*
X184469863Y-79710000D01*
X184500000Y-79558491D01*
X184500000Y-79361509D01*
X184469863Y-79210000D01*
X185987651Y-79210000D01*
X185987651Y-79209999D01*
X191012348Y-79209999D01*
X191012349Y-79210000D01*
X192530137Y-79210000D01*
X192500000Y-79361509D01*
X192500000Y-79558491D01*
X192530137Y-79710000D01*
X191012349Y-79710000D01*
X191031437Y-79879412D01*
X191031439Y-79879424D01*
X191093921Y-80153178D01*
X191093922Y-80153180D01*
X191186662Y-80418217D01*
X191308492Y-80671200D01*
X191457884Y-80908956D01*
X191632957Y-81128490D01*
X191831509Y-81327042D01*
X192051043Y-81502115D01*
X192288799Y-81651507D01*
X192541782Y-81773337D01*
X192806819Y-81866077D01*
X192806821Y-81866078D01*
X193080575Y-81928560D01*
X193080589Y-81928563D01*
X193249999Y-81947650D01*
X193250000Y-81947650D01*
X193250000Y-80429863D01*
X193401509Y-80460000D01*
X193598491Y-80460000D01*
X193750000Y-80429863D01*
X193750000Y-81947650D01*
X193919410Y-81928563D01*
X193919424Y-81928560D01*
X194193178Y-81866078D01*
X194193180Y-81866077D01*
X194458217Y-81773337D01*
X194711200Y-81651507D01*
X194948956Y-81502115D01*
X195168490Y-81327042D01*
X195367042Y-81128490D01*
X195542115Y-80908956D01*
X195691507Y-80671200D01*
X195813337Y-80418217D01*
X195906077Y-80153180D01*
X195906078Y-80153178D01*
X195968560Y-79879424D01*
X195968562Y-79879412D01*
X195987651Y-79710000D01*
X194469863Y-79710000D01*
X194500000Y-79558491D01*
X194500000Y-79361509D01*
X194469863Y-79210000D01*
X195987651Y-79210000D01*
X195987651Y-79209999D01*
X195968562Y-79040587D01*
X195968560Y-79040575D01*
X195906078Y-78766821D01*
X195906077Y-78766819D01*
X195813337Y-78501782D01*
X195691507Y-78248799D01*
X195542115Y-78011043D01*
X195367042Y-77791509D01*
X195168490Y-77592957D01*
X194948956Y-77417884D01*
X194711200Y-77268492D01*
X194458217Y-77146662D01*
X194193180Y-77053922D01*
X194193178Y-77053921D01*
X193919424Y-76991439D01*
X193919412Y-76991437D01*
X193750000Y-76972348D01*
X193750000Y-78490136D01*
X193598491Y-78460000D01*
X193401509Y-78460000D01*
X193250000Y-78490136D01*
X193250000Y-76972349D01*
X193249999Y-76972348D01*
X193080587Y-76991437D01*
X193080575Y-76991439D01*
X192806821Y-77053921D01*
X192806819Y-77053922D01*
X192541782Y-77146662D01*
X192288799Y-77268492D01*
X192051043Y-77417884D01*
X191831509Y-77592957D01*
X191632957Y-77791509D01*
X191457884Y-78011043D01*
X191308492Y-78248799D01*
X191186662Y-78501782D01*
X191093922Y-78766819D01*
X191093921Y-78766821D01*
X191031439Y-79040575D01*
X191031437Y-79040587D01*
X191012348Y-79209999D01*
X185987651Y-79209999D01*
X185968562Y-79040587D01*
X185968560Y-79040575D01*
X185906078Y-78766821D01*
X185906077Y-78766819D01*
X185813337Y-78501782D01*
X185691507Y-78248799D01*
X185542115Y-78011043D01*
X185367042Y-77791509D01*
X185168490Y-77592957D01*
X184948956Y-77417884D01*
X184711200Y-77268492D01*
X184458217Y-77146662D01*
X184193180Y-77053922D01*
X184193178Y-77053921D01*
X183919424Y-76991439D01*
X183919412Y-76991437D01*
X183750000Y-76972348D01*
X183750000Y-78490136D01*
X183598491Y-78460000D01*
X183401509Y-78460000D01*
X183250000Y-78490136D01*
X183250000Y-76972349D01*
X183249999Y-76972348D01*
X183080587Y-76991437D01*
X183080575Y-76991439D01*
X182806821Y-77053921D01*
X182806819Y-77053922D01*
X182541782Y-77146662D01*
X182288799Y-77268492D01*
X182051043Y-77417884D01*
X181831509Y-77592957D01*
X181632957Y-77791509D01*
X181457884Y-78011043D01*
X181308492Y-78248799D01*
X181186662Y-78501782D01*
X181093922Y-78766819D01*
X181093921Y-78766821D01*
X181031439Y-79040575D01*
X181031437Y-79040587D01*
X181012348Y-79209999D01*
X173220500Y-79209999D01*
X173220500Y-76798549D01*
X175219500Y-76798549D01*
X175219500Y-77021450D01*
X175219501Y-77021466D01*
X175248594Y-77242452D01*
X175248595Y-77242457D01*
X175248596Y-77242463D01*
X175295600Y-77417884D01*
X175306290Y-77457780D01*
X175306293Y-77457790D01*
X175391593Y-77663722D01*
X175391595Y-77663726D01*
X175503052Y-77856774D01*
X175503057Y-77856780D01*
X175503058Y-77856782D01*
X175638751Y-78033622D01*
X175638757Y-78033629D01*
X175796370Y-78191242D01*
X175796376Y-78191247D01*
X175973226Y-78326948D01*
X176166274Y-78438405D01*
X176372219Y-78523710D01*
X176587537Y-78581404D01*
X176808543Y-78610500D01*
X176808550Y-78610500D01*
X177031450Y-78610500D01*
X177031457Y-78610500D01*
X177252463Y-78581404D01*
X177467781Y-78523710D01*
X177673726Y-78438405D01*
X177866774Y-78326948D01*
X178043624Y-78191247D01*
X178201247Y-78033624D01*
X178336948Y-77856774D01*
X178448405Y-77663726D01*
X178533710Y-77457781D01*
X178591404Y-77242463D01*
X178620500Y-77021457D01*
X178620500Y-76798549D01*
X198219500Y-76798549D01*
X198219500Y-77021450D01*
X198219501Y-77021466D01*
X198248594Y-77242452D01*
X198248595Y-77242457D01*
X198248596Y-77242463D01*
X198295600Y-77417884D01*
X198306290Y-77457780D01*
X198306293Y-77457790D01*
X198391593Y-77663722D01*
X198391595Y-77663726D01*
X198503052Y-77856774D01*
X198503057Y-77856780D01*
X198503058Y-77856782D01*
X198638751Y-78033622D01*
X198638757Y-78033629D01*
X198796370Y-78191242D01*
X198796376Y-78191247D01*
X198973226Y-78326948D01*
X199166274Y-78438405D01*
X199372219Y-78523710D01*
X199587537Y-78581404D01*
X199808543Y-78610500D01*
X199808550Y-78610500D01*
X200031450Y-78610500D01*
X200031457Y-78610500D01*
X200252463Y-78581404D01*
X200467781Y-78523710D01*
X200673726Y-78438405D01*
X200866774Y-78326948D01*
X201043624Y-78191247D01*
X201201247Y-78033624D01*
X201336948Y-77856774D01*
X201448405Y-77663726D01*
X201533710Y-77457781D01*
X201591404Y-77242463D01*
X201620500Y-77021457D01*
X201620500Y-76798543D01*
X201591404Y-76577537D01*
X201533710Y-76362219D01*
X201448405Y-76156274D01*
X201336948Y-75963226D01*
X201201247Y-75786376D01*
X201201242Y-75786370D01*
X201043629Y-75628757D01*
X201043622Y-75628751D01*
X200866782Y-75493058D01*
X200866780Y-75493057D01*
X200866774Y-75493052D01*
X200673726Y-75381595D01*
X200673722Y-75381593D01*
X200467790Y-75296293D01*
X200467783Y-75296291D01*
X200467781Y-75296290D01*
X200252463Y-75238596D01*
X200252457Y-75238595D01*
X200252452Y-75238594D01*
X200031466Y-75209501D01*
X200031463Y-75209500D01*
X200031457Y-75209500D01*
X199808543Y-75209500D01*
X199808537Y-75209500D01*
X199808533Y-75209501D01*
X199587547Y-75238594D01*
X199587540Y-75238595D01*
X199587537Y-75238596D01*
X199372219Y-75296290D01*
X199372209Y-75296293D01*
X199166277Y-75381593D01*
X199166273Y-75381595D01*
X198973226Y-75493052D01*
X198973217Y-75493058D01*
X198796377Y-75628751D01*
X198796370Y-75628757D01*
X198638757Y-75786370D01*
X198638751Y-75786377D01*
X198503058Y-75963217D01*
X198503052Y-75963226D01*
X198391595Y-76156273D01*
X198391593Y-76156277D01*
X198306293Y-76362209D01*
X198306290Y-76362219D01*
X198248597Y-76577534D01*
X198248594Y-76577547D01*
X198219501Y-76798533D01*
X198219500Y-76798549D01*
X178620500Y-76798549D01*
X178620500Y-76798543D01*
X178591404Y-76577537D01*
X178533710Y-76362219D01*
X178448405Y-76156274D01*
X178336948Y-75963226D01*
X178201247Y-75786376D01*
X178201242Y-75786370D01*
X178043629Y-75628757D01*
X178043622Y-75628751D01*
X177866782Y-75493058D01*
X177866780Y-75493057D01*
X177866774Y-75493052D01*
X177673726Y-75381595D01*
X177673722Y-75381593D01*
X177467790Y-75296293D01*
X177467783Y-75296291D01*
X177467781Y-75296290D01*
X177252463Y-75238596D01*
X177252457Y-75238595D01*
X177252452Y-75238594D01*
X177031466Y-75209501D01*
X177031463Y-75209500D01*
X177031457Y-75209500D01*
X176808543Y-75209500D01*
X176808537Y-75209500D01*
X176808533Y-75209501D01*
X176587547Y-75238594D01*
X176587540Y-75238595D01*
X176587537Y-75238596D01*
X176372219Y-75296290D01*
X176372209Y-75296293D01*
X176166277Y-75381593D01*
X176166273Y-75381595D01*
X175973226Y-75493052D01*
X175973217Y-75493058D01*
X175796377Y-75628751D01*
X175796370Y-75628757D01*
X175638757Y-75786370D01*
X175638751Y-75786377D01*
X175503058Y-75963217D01*
X175503052Y-75963226D01*
X175391595Y-76156273D01*
X175391593Y-76156277D01*
X175306293Y-76362209D01*
X175306290Y-76362219D01*
X175248597Y-76577534D01*
X175248594Y-76577547D01*
X175219501Y-76798533D01*
X175219500Y-76798549D01*
X173220500Y-76798549D01*
X173220500Y-72804500D01*
X173240185Y-72737461D01*
X173292989Y-72691706D01*
X173344500Y-72680500D01*
X203495500Y-72680500D01*
X203562539Y-72700185D01*
G37*
%TD.AperFunction*%
%TD*%
M02*
