%TF.GenerationSoftware,KiCad,Pcbnew,9.0.1-9.0.1-0~ubuntu24.04.1*%
%TF.CreationDate,2025-05-07T20:50:55+02:00*%
%TF.ProjectId,OOS - optyczny odbiornik sygnalow,4f4f5320-2d20-46f7-9074-79637a6e7920,0.0.3*%
%TF.SameCoordinates,Original*%
%TF.FileFunction,Legend,Bot*%
%TF.FilePolarity,Positive*%
%FSLAX46Y46*%
G04 Gerber Fmt 4.6, Leading zero omitted, Abs format (unit mm)*
G04 Created by KiCad (PCBNEW 9.0.1-9.0.1-0~ubuntu24.04.1) date 2025-05-07 20:50:55*
%MOMM*%
%LPD*%
G01*
G04 APERTURE LIST*
%ADD10C,0.010000*%
%ADD11C,1.000000*%
%ADD12O,1.700000X1.700000*%
%ADD13R,1.700000X1.700000*%
%ADD14O,1.600000X1.200000*%
%ADD15C,1.200000*%
%ADD16O,2.000000X2.000000*%
%ADD17O,4.000000X4.000000*%
%ADD18C,3.200000*%
G04 APERTURE END LIST*
D10*
%TO.C,REF\u002A\u002A*%
X186692971Y-102865397D02*
X183172178Y-102865397D01*
X183172178Y-101997773D01*
X186692971Y-101997773D01*
X186692971Y-102865397D01*
G36*
X186692971Y-102865397D02*
G01*
X183172178Y-102865397D01*
X183172178Y-101997773D01*
X186692971Y-101997773D01*
X186692971Y-102865397D01*
G37*
X185661894Y-97323293D02*
X185662388Y-97336243D01*
X185668819Y-97357986D01*
X185687123Y-97376426D01*
X185722830Y-97398376D01*
X185754174Y-97418429D01*
X185801893Y-97456931D01*
X185845138Y-97500154D01*
X185878219Y-97542202D01*
X185895442Y-97577179D01*
X185899662Y-97590656D01*
X185907480Y-97599909D01*
X185910116Y-97603029D01*
X185931662Y-97608271D01*
X185971314Y-97609357D01*
X186039109Y-97609357D01*
X186039109Y-97722526D01*
X185879577Y-97722526D01*
X185864682Y-97900307D01*
X185862682Y-97924612D01*
X185858023Y-97985455D01*
X185854731Y-98034964D01*
X185853092Y-98068567D01*
X185853390Y-98081691D01*
X185857724Y-98077918D01*
X185877496Y-98058251D01*
X185911679Y-98023393D01*
X185958541Y-97975151D01*
X186016354Y-97915332D01*
X186083387Y-97845742D01*
X186157912Y-97768190D01*
X186238197Y-97684482D01*
X186322513Y-97596424D01*
X186409130Y-97505825D01*
X186496319Y-97414490D01*
X186582349Y-97324228D01*
X186665492Y-97236844D01*
X186744016Y-97154147D01*
X186816192Y-97077943D01*
X186880291Y-97010038D01*
X186934583Y-96952241D01*
X187031592Y-96848615D01*
X187032034Y-96936890D01*
X187032475Y-97025164D01*
X186431938Y-97656733D01*
X185831401Y-98288301D01*
X185819396Y-98432249D01*
X185771365Y-99008210D01*
X185762876Y-99110366D01*
X185752343Y-99238187D01*
X185742621Y-99357342D01*
X185733898Y-99465489D01*
X185726358Y-99560288D01*
X185720187Y-99639394D01*
X185715573Y-99700467D01*
X185712700Y-99741165D01*
X185711754Y-99759145D01*
X185714251Y-99767383D01*
X185725471Y-99785174D01*
X185746751Y-99811986D01*
X185757021Y-99823704D01*
X185779225Y-99849041D01*
X185824023Y-99897561D01*
X185882281Y-99958767D01*
X185955129Y-100033882D01*
X186043703Y-100124125D01*
X186149134Y-100230720D01*
X186218492Y-100300668D01*
X186315179Y-100398233D01*
X186411526Y-100495516D01*
X186504638Y-100589589D01*
X186591618Y-100677525D01*
X186669569Y-100756395D01*
X186735596Y-100823274D01*
X186786802Y-100875233D01*
X186987514Y-101079195D01*
X186951058Y-101117246D01*
X186942460Y-101125820D01*
X186917095Y-101146872D01*
X186899695Y-101155298D01*
X186886071Y-101148105D01*
X186860743Y-101126519D01*
X186830379Y-101095570D01*
X186811896Y-101076023D01*
X186777427Y-101040327D01*
X186728712Y-100990259D01*
X186667469Y-100927576D01*
X186595420Y-100854032D01*
X186514285Y-100771385D01*
X186425784Y-100681390D01*
X186331637Y-100585803D01*
X186233565Y-100486380D01*
X185691161Y-99936918D01*
X185669066Y-100222321D01*
X185664250Y-100283237D01*
X185657216Y-100365123D01*
X185650872Y-100427144D01*
X185644748Y-100472562D01*
X185638373Y-100504637D01*
X185631277Y-100526627D01*
X185622991Y-100541794D01*
X185611393Y-100562991D01*
X185601850Y-100601961D01*
X185599010Y-100658106D01*
X185599010Y-100740348D01*
X185372674Y-100740348D01*
X185372674Y-100564308D01*
X184527082Y-100564308D01*
X184478203Y-100619837D01*
X184464836Y-100634297D01*
X184392388Y-100692388D01*
X184310532Y-100728151D01*
X184221900Y-100740348D01*
X184143692Y-100733881D01*
X184055233Y-100706622D01*
X183979507Y-100657903D01*
X183964748Y-100643978D01*
X183927864Y-100598903D01*
X183895503Y-100546394D01*
X183872297Y-100494636D01*
X183862879Y-100451814D01*
X183862697Y-100445598D01*
X183861342Y-100422821D01*
X183857800Y-100407088D01*
X183850390Y-100399643D01*
X183837431Y-100401731D01*
X183817243Y-100414595D01*
X183788145Y-100439480D01*
X183748456Y-100477628D01*
X183696496Y-100530285D01*
X183630584Y-100598694D01*
X183549040Y-100684099D01*
X183505604Y-100729687D01*
X183433000Y-100806016D01*
X183364309Y-100878383D01*
X183302223Y-100943941D01*
X183249434Y-100999849D01*
X183208634Y-101043261D01*
X183182515Y-101071333D01*
X183111119Y-101149011D01*
X183022863Y-101060991D01*
X183568690Y-100488862D01*
X183603105Y-100452763D01*
X183725546Y-100323847D01*
X183830651Y-100212329D01*
X183918736Y-100117863D01*
X183990116Y-100040104D01*
X184040588Y-99983749D01*
X184247247Y-99983749D01*
X184248872Y-99997009D01*
X184249156Y-99998394D01*
X184262698Y-100029803D01*
X184289748Y-100044438D01*
X184373129Y-100075638D01*
X184447418Y-100127613D01*
X184505846Y-100196366D01*
X184545890Y-100278890D01*
X184565026Y-100372181D01*
X184571364Y-100451140D01*
X185520838Y-100451140D01*
X185527458Y-100422848D01*
X185528629Y-100415904D01*
X185532268Y-100384856D01*
X185537234Y-100334656D01*
X185543157Y-100269302D01*
X185549669Y-100192794D01*
X185556401Y-100109130D01*
X185578724Y-99823704D01*
X185277826Y-99518140D01*
X185222636Y-99462279D01*
X185155109Y-99394463D01*
X185094529Y-99334218D01*
X185043021Y-99283627D01*
X185002710Y-99244775D01*
X184975722Y-99219745D01*
X184964182Y-99210621D01*
X184956444Y-99214980D01*
X184933395Y-99234816D01*
X184898709Y-99267950D01*
X184855487Y-99311395D01*
X184806832Y-99362162D01*
X184794140Y-99375626D01*
X184737229Y-99435850D01*
X184669414Y-99507439D01*
X184595800Y-99585012D01*
X184521493Y-99663186D01*
X184451599Y-99736580D01*
X184447401Y-99740984D01*
X184382420Y-99809360D01*
X184332836Y-99862307D01*
X184296688Y-99902342D01*
X184272016Y-99931986D01*
X184256858Y-99953756D01*
X184249256Y-99970170D01*
X184247247Y-99983749D01*
X184040588Y-99983749D01*
X184045105Y-99978706D01*
X184084019Y-99933323D01*
X184107173Y-99903610D01*
X184114882Y-99889219D01*
X184114883Y-99889134D01*
X184113825Y-99871199D01*
X184110737Y-99830996D01*
X184105858Y-99771262D01*
X184099432Y-99694733D01*
X184091700Y-99604144D01*
X184082905Y-99502232D01*
X184073287Y-99391734D01*
X184063091Y-99275386D01*
X184052556Y-99155923D01*
X184041926Y-99036082D01*
X184031442Y-98918600D01*
X184021346Y-98806212D01*
X184011881Y-98701656D01*
X184003288Y-98607666D01*
X183995809Y-98526980D01*
X183989687Y-98462334D01*
X183985162Y-98416463D01*
X183982478Y-98392105D01*
X183977067Y-98351307D01*
X184106253Y-98351307D01*
X184107908Y-98382228D01*
X184111549Y-98434228D01*
X184116995Y-98505062D01*
X184124063Y-98592486D01*
X184132570Y-98694256D01*
X184142335Y-98808127D01*
X184153174Y-98931854D01*
X184164907Y-99063193D01*
X184174079Y-99164483D01*
X184185566Y-99290101D01*
X184196322Y-99406337D01*
X184206131Y-99510955D01*
X184214781Y-99601715D01*
X184222057Y-99676379D01*
X184227746Y-99732709D01*
X184231634Y-99768466D01*
X184233506Y-99781412D01*
X184239188Y-99777401D01*
X184260020Y-99757713D01*
X184293872Y-99723897D01*
X184338412Y-99678412D01*
X184391310Y-99623721D01*
X184450236Y-99562285D01*
X184512858Y-99496565D01*
X184576848Y-99429024D01*
X184639874Y-99362122D01*
X184699606Y-99298321D01*
X184753713Y-99240082D01*
X184799865Y-99189867D01*
X184835733Y-99150138D01*
X184858984Y-99123355D01*
X184865778Y-99114052D01*
X185047601Y-99114052D01*
X185323305Y-99389543D01*
X185390726Y-99456799D01*
X185454267Y-99519737D01*
X185503490Y-99567675D01*
X185540196Y-99602169D01*
X185566190Y-99624774D01*
X185583276Y-99637046D01*
X185593256Y-99640541D01*
X185597935Y-99636813D01*
X185599116Y-99627419D01*
X185599873Y-99612324D01*
X185602601Y-99573458D01*
X185607108Y-99514470D01*
X185613179Y-99438048D01*
X185620596Y-99346880D01*
X185629142Y-99243655D01*
X185638602Y-99131058D01*
X185648758Y-99011780D01*
X185657723Y-98906652D01*
X185667066Y-98795926D01*
X185675443Y-98695389D01*
X185682653Y-98607518D01*
X185688496Y-98534790D01*
X185692769Y-98479685D01*
X185695273Y-98444679D01*
X185695805Y-98432249D01*
X185695384Y-98432483D01*
X185683509Y-98443925D01*
X185657130Y-98470773D01*
X185618570Y-98510593D01*
X185570153Y-98560947D01*
X185514203Y-98619403D01*
X185453042Y-98683523D01*
X185388995Y-98750873D01*
X185324385Y-98819018D01*
X185261535Y-98885523D01*
X185202768Y-98947952D01*
X185150409Y-99003870D01*
X185049533Y-99111981D01*
X185047601Y-99114052D01*
X184865778Y-99114052D01*
X184867290Y-99111981D01*
X184859148Y-99100958D01*
X184835478Y-99074574D01*
X184798478Y-99035102D01*
X184750350Y-98984766D01*
X184693296Y-98925792D01*
X184629520Y-98860405D01*
X184561222Y-98790830D01*
X184490605Y-98719291D01*
X184419871Y-98648013D01*
X184351222Y-98579222D01*
X184286861Y-98515141D01*
X184228989Y-98457997D01*
X184179810Y-98410014D01*
X184141524Y-98373416D01*
X184116334Y-98350429D01*
X184106442Y-98343278D01*
X184106253Y-98351307D01*
X183977067Y-98351307D01*
X183975390Y-98338664D01*
X183700297Y-98338664D01*
X183699968Y-98128046D01*
X183699797Y-98018747D01*
X183800891Y-98018747D01*
X183800891Y-98238070D01*
X183882624Y-98238070D01*
X183889895Y-98238064D01*
X183930950Y-98237188D01*
X183953277Y-98233442D01*
X183962529Y-98224845D01*
X183964357Y-98209415D01*
X183956306Y-98186734D01*
X183928730Y-98149003D01*
X183882624Y-98099754D01*
X183800891Y-98018747D01*
X183699797Y-98018747D01*
X183699639Y-97917427D01*
X183247914Y-97458466D01*
X182796189Y-96999506D01*
X182795570Y-96912423D01*
X182794951Y-96825342D01*
X183336769Y-97374527D01*
X183389137Y-97427573D01*
X183497803Y-97537347D01*
X183590709Y-97630689D01*
X183669055Y-97708748D01*
X183734043Y-97772672D01*
X183786872Y-97823610D01*
X183828743Y-97862710D01*
X183860855Y-97891123D01*
X183884410Y-97909995D01*
X183900608Y-97920476D01*
X183910649Y-97923714D01*
X183927579Y-97922733D01*
X183937084Y-97915571D01*
X183938723Y-97895976D01*
X183934782Y-97857699D01*
X183932065Y-97833600D01*
X183928284Y-97793319D01*
X183926760Y-97766536D01*
X183926015Y-97757303D01*
X183918746Y-97747414D01*
X183898668Y-97744137D01*
X183859689Y-97745567D01*
X183849737Y-97746128D01*
X183809898Y-97745496D01*
X183781560Y-97736742D01*
X183761586Y-97722526D01*
X184044852Y-97722526D01*
X184049013Y-97769679D01*
X184050935Y-97791073D01*
X184056924Y-97849484D01*
X184062826Y-97887956D01*
X184069727Y-97910487D01*
X184078712Y-97921073D01*
X184090870Y-97923714D01*
X184101801Y-97925512D01*
X184109050Y-97934105D01*
X184113100Y-97954080D01*
X184114863Y-97990025D01*
X184115248Y-98046527D01*
X184115248Y-98169341D01*
X184155447Y-98209415D01*
X184253565Y-98307229D01*
X184391881Y-98445117D01*
X184391881Y-98338664D01*
X185146337Y-98338664D01*
X185146337Y-98577575D01*
X184527831Y-98577575D01*
X184737592Y-98794481D01*
X184777770Y-98835909D01*
X184833328Y-98892775D01*
X184881570Y-98941657D01*
X184919971Y-98980016D01*
X184946003Y-99005316D01*
X184957140Y-99015017D01*
X184961373Y-99012342D01*
X184981224Y-98994357D01*
X185015451Y-98961056D01*
X185062227Y-98914287D01*
X185119724Y-98855900D01*
X185186112Y-98787744D01*
X185259564Y-98711669D01*
X185338251Y-98629525D01*
X185417341Y-98546518D01*
X185494871Y-98464711D01*
X185557746Y-98397658D01*
X185607502Y-98343582D01*
X185645678Y-98300704D01*
X185673811Y-98267248D01*
X185693440Y-98241436D01*
X185706101Y-98221489D01*
X185713334Y-98205631D01*
X185716675Y-98192084D01*
X185717561Y-98185485D01*
X185721488Y-98149123D01*
X185726459Y-98095593D01*
X185731927Y-98030996D01*
X185737344Y-97961437D01*
X185739181Y-97937210D01*
X185744488Y-97871753D01*
X185749548Y-97815292D01*
X185753863Y-97773193D01*
X185756934Y-97750818D01*
X185762955Y-97722526D01*
X184044852Y-97722526D01*
X183761586Y-97722526D01*
X183753630Y-97716864D01*
X183748820Y-97712679D01*
X183709482Y-97662002D01*
X183693903Y-97609357D01*
X184034698Y-97609357D01*
X185449221Y-97609357D01*
X185447172Y-97559060D01*
X185661881Y-97559060D01*
X185661881Y-97609357D01*
X185718908Y-97609357D01*
X185735993Y-97609237D01*
X185761308Y-97607037D01*
X185768616Y-97599909D01*
X185762943Y-97585083D01*
X185761267Y-97582257D01*
X185742448Y-97560519D01*
X185715183Y-97536395D01*
X185687987Y-97516829D01*
X185669371Y-97508763D01*
X185667697Y-97510038D01*
X185663544Y-97527551D01*
X185661881Y-97559060D01*
X185447172Y-97559060D01*
X185445526Y-97518670D01*
X185441832Y-97427982D01*
X185366386Y-97412827D01*
X185328551Y-97405954D01*
X185265368Y-97396331D01*
X185206065Y-97389071D01*
X185121188Y-97380468D01*
X185121188Y-97483615D01*
X184542773Y-97483615D01*
X184542773Y-97392697D01*
X184470471Y-97401328D01*
X184359998Y-97419824D01*
X184248816Y-97453266D01*
X184156850Y-97499899D01*
X184082542Y-97560361D01*
X184034698Y-97609357D01*
X183693903Y-97609357D01*
X183692172Y-97603509D01*
X183697474Y-97542150D01*
X183725975Y-97482872D01*
X183728733Y-97479181D01*
X183766822Y-97447426D01*
X183816476Y-97428642D01*
X183870002Y-97423646D01*
X183919707Y-97433253D01*
X183957900Y-97458279D01*
X183970831Y-97471055D01*
X183983428Y-97474151D01*
X184001467Y-97464573D01*
X184031928Y-97440657D01*
X184041274Y-97433306D01*
X184113430Y-97386914D01*
X184198915Y-97345659D01*
X184268830Y-97320150D01*
X184643367Y-97320150D01*
X184643367Y-97383021D01*
X185020594Y-97383021D01*
X185020594Y-97320150D01*
X184643367Y-97320150D01*
X184268830Y-97320150D01*
X184289767Y-97312511D01*
X184378027Y-97290443D01*
X184455736Y-97282427D01*
X184463991Y-97282363D01*
X184509879Y-97277896D01*
X184535079Y-97265370D01*
X184542773Y-97243359D01*
X184543676Y-97236424D01*
X184548615Y-97230460D01*
X184560611Y-97226094D01*
X184582680Y-97223078D01*
X184617836Y-97221165D01*
X184669094Y-97220105D01*
X184739471Y-97219652D01*
X184831980Y-97219555D01*
X184918660Y-97219725D01*
X184992332Y-97220409D01*
X185046265Y-97221790D01*
X185083288Y-97224045D01*
X185106230Y-97227353D01*
X185117920Y-97231895D01*
X185121188Y-97237847D01*
X185131937Y-97252463D01*
X185162055Y-97261790D01*
X185173582Y-97263422D01*
X185212886Y-97269166D01*
X185265188Y-97276953D01*
X185322376Y-97285578D01*
X185353916Y-97289968D01*
X185400074Y-97294723D01*
X185432641Y-97295870D01*
X185446023Y-97293070D01*
X185448308Y-97291246D01*
X185469405Y-97286740D01*
X185507355Y-97283604D01*
X185556048Y-97282427D01*
X185661881Y-97282427D01*
X185661894Y-97320150D01*
X185661894Y-97323293D01*
G36*
X185661894Y-97323293D02*
G01*
X185662388Y-97336243D01*
X185668819Y-97357986D01*
X185687123Y-97376426D01*
X185722830Y-97398376D01*
X185754174Y-97418429D01*
X185801893Y-97456931D01*
X185845138Y-97500154D01*
X185878219Y-97542202D01*
X185895442Y-97577179D01*
X185899662Y-97590656D01*
X185907480Y-97599909D01*
X185910116Y-97603029D01*
X185931662Y-97608271D01*
X185971314Y-97609357D01*
X186039109Y-97609357D01*
X186039109Y-97722526D01*
X185879577Y-97722526D01*
X185864682Y-97900307D01*
X185862682Y-97924612D01*
X185858023Y-97985455D01*
X185854731Y-98034964D01*
X185853092Y-98068567D01*
X185853390Y-98081691D01*
X185857724Y-98077918D01*
X185877496Y-98058251D01*
X185911679Y-98023393D01*
X185958541Y-97975151D01*
X186016354Y-97915332D01*
X186083387Y-97845742D01*
X186157912Y-97768190D01*
X186238197Y-97684482D01*
X186322513Y-97596424D01*
X186409130Y-97505825D01*
X186496319Y-97414490D01*
X186582349Y-97324228D01*
X186665492Y-97236844D01*
X186744016Y-97154147D01*
X186816192Y-97077943D01*
X186880291Y-97010038D01*
X186934583Y-96952241D01*
X187031592Y-96848615D01*
X187032034Y-96936890D01*
X187032475Y-97025164D01*
X186431938Y-97656733D01*
X185831401Y-98288301D01*
X185819396Y-98432249D01*
X185771365Y-99008210D01*
X185762876Y-99110366D01*
X185752343Y-99238187D01*
X185742621Y-99357342D01*
X185733898Y-99465489D01*
X185726358Y-99560288D01*
X185720187Y-99639394D01*
X185715573Y-99700467D01*
X185712700Y-99741165D01*
X185711754Y-99759145D01*
X185714251Y-99767383D01*
X185725471Y-99785174D01*
X185746751Y-99811986D01*
X185757021Y-99823704D01*
X185779225Y-99849041D01*
X185824023Y-99897561D01*
X185882281Y-99958767D01*
X185955129Y-100033882D01*
X186043703Y-100124125D01*
X186149134Y-100230720D01*
X186218492Y-100300668D01*
X186315179Y-100398233D01*
X186411526Y-100495516D01*
X186504638Y-100589589D01*
X186591618Y-100677525D01*
X186669569Y-100756395D01*
X186735596Y-100823274D01*
X186786802Y-100875233D01*
X186987514Y-101079195D01*
X186951058Y-101117246D01*
X186942460Y-101125820D01*
X186917095Y-101146872D01*
X186899695Y-101155298D01*
X186886071Y-101148105D01*
X186860743Y-101126519D01*
X186830379Y-101095570D01*
X186811896Y-101076023D01*
X186777427Y-101040327D01*
X186728712Y-100990259D01*
X186667469Y-100927576D01*
X186595420Y-100854032D01*
X186514285Y-100771385D01*
X186425784Y-100681390D01*
X186331637Y-100585803D01*
X186233565Y-100486380D01*
X185691161Y-99936918D01*
X185669066Y-100222321D01*
X185664250Y-100283237D01*
X185657216Y-100365123D01*
X185650872Y-100427144D01*
X185644748Y-100472562D01*
X185638373Y-100504637D01*
X185631277Y-100526627D01*
X185622991Y-100541794D01*
X185611393Y-100562991D01*
X185601850Y-100601961D01*
X185599010Y-100658106D01*
X185599010Y-100740348D01*
X185372674Y-100740348D01*
X185372674Y-100564308D01*
X184527082Y-100564308D01*
X184478203Y-100619837D01*
X184464836Y-100634297D01*
X184392388Y-100692388D01*
X184310532Y-100728151D01*
X184221900Y-100740348D01*
X184143692Y-100733881D01*
X184055233Y-100706622D01*
X183979507Y-100657903D01*
X183964748Y-100643978D01*
X183927864Y-100598903D01*
X183895503Y-100546394D01*
X183872297Y-100494636D01*
X183862879Y-100451814D01*
X183862697Y-100445598D01*
X183861342Y-100422821D01*
X183857800Y-100407088D01*
X183850390Y-100399643D01*
X183837431Y-100401731D01*
X183817243Y-100414595D01*
X183788145Y-100439480D01*
X183748456Y-100477628D01*
X183696496Y-100530285D01*
X183630584Y-100598694D01*
X183549040Y-100684099D01*
X183505604Y-100729687D01*
X183433000Y-100806016D01*
X183364309Y-100878383D01*
X183302223Y-100943941D01*
X183249434Y-100999849D01*
X183208634Y-101043261D01*
X183182515Y-101071333D01*
X183111119Y-101149011D01*
X183022863Y-101060991D01*
X183568690Y-100488862D01*
X183603105Y-100452763D01*
X183725546Y-100323847D01*
X183830651Y-100212329D01*
X183918736Y-100117863D01*
X183990116Y-100040104D01*
X184040588Y-99983749D01*
X184247247Y-99983749D01*
X184248872Y-99997009D01*
X184249156Y-99998394D01*
X184262698Y-100029803D01*
X184289748Y-100044438D01*
X184373129Y-100075638D01*
X184447418Y-100127613D01*
X184505846Y-100196366D01*
X184545890Y-100278890D01*
X184565026Y-100372181D01*
X184571364Y-100451140D01*
X185520838Y-100451140D01*
X185527458Y-100422848D01*
X185528629Y-100415904D01*
X185532268Y-100384856D01*
X185537234Y-100334656D01*
X185543157Y-100269302D01*
X185549669Y-100192794D01*
X185556401Y-100109130D01*
X185578724Y-99823704D01*
X185277826Y-99518140D01*
X185222636Y-99462279D01*
X185155109Y-99394463D01*
X185094529Y-99334218D01*
X185043021Y-99283627D01*
X185002710Y-99244775D01*
X184975722Y-99219745D01*
X184964182Y-99210621D01*
X184956444Y-99214980D01*
X184933395Y-99234816D01*
X184898709Y-99267950D01*
X184855487Y-99311395D01*
X184806832Y-99362162D01*
X184794140Y-99375626D01*
X184737229Y-99435850D01*
X184669414Y-99507439D01*
X184595800Y-99585012D01*
X184521493Y-99663186D01*
X184451599Y-99736580D01*
X184447401Y-99740984D01*
X184382420Y-99809360D01*
X184332836Y-99862307D01*
X184296688Y-99902342D01*
X184272016Y-99931986D01*
X184256858Y-99953756D01*
X184249256Y-99970170D01*
X184247247Y-99983749D01*
X184040588Y-99983749D01*
X184045105Y-99978706D01*
X184084019Y-99933323D01*
X184107173Y-99903610D01*
X184114882Y-99889219D01*
X184114883Y-99889134D01*
X184113825Y-99871199D01*
X184110737Y-99830996D01*
X184105858Y-99771262D01*
X184099432Y-99694733D01*
X184091700Y-99604144D01*
X184082905Y-99502232D01*
X184073287Y-99391734D01*
X184063091Y-99275386D01*
X184052556Y-99155923D01*
X184041926Y-99036082D01*
X184031442Y-98918600D01*
X184021346Y-98806212D01*
X184011881Y-98701656D01*
X184003288Y-98607666D01*
X183995809Y-98526980D01*
X183989687Y-98462334D01*
X183985162Y-98416463D01*
X183982478Y-98392105D01*
X183977067Y-98351307D01*
X184106253Y-98351307D01*
X184107908Y-98382228D01*
X184111549Y-98434228D01*
X184116995Y-98505062D01*
X184124063Y-98592486D01*
X184132570Y-98694256D01*
X184142335Y-98808127D01*
X184153174Y-98931854D01*
X184164907Y-99063193D01*
X184174079Y-99164483D01*
X184185566Y-99290101D01*
X184196322Y-99406337D01*
X184206131Y-99510955D01*
X184214781Y-99601715D01*
X184222057Y-99676379D01*
X184227746Y-99732709D01*
X184231634Y-99768466D01*
X184233506Y-99781412D01*
X184239188Y-99777401D01*
X184260020Y-99757713D01*
X184293872Y-99723897D01*
X184338412Y-99678412D01*
X184391310Y-99623721D01*
X184450236Y-99562285D01*
X184512858Y-99496565D01*
X184576848Y-99429024D01*
X184639874Y-99362122D01*
X184699606Y-99298321D01*
X184753713Y-99240082D01*
X184799865Y-99189867D01*
X184835733Y-99150138D01*
X184858984Y-99123355D01*
X184865778Y-99114052D01*
X185047601Y-99114052D01*
X185323305Y-99389543D01*
X185390726Y-99456799D01*
X185454267Y-99519737D01*
X185503490Y-99567675D01*
X185540196Y-99602169D01*
X185566190Y-99624774D01*
X185583276Y-99637046D01*
X185593256Y-99640541D01*
X185597935Y-99636813D01*
X185599116Y-99627419D01*
X185599873Y-99612324D01*
X185602601Y-99573458D01*
X185607108Y-99514470D01*
X185613179Y-99438048D01*
X185620596Y-99346880D01*
X185629142Y-99243655D01*
X185638602Y-99131058D01*
X185648758Y-99011780D01*
X185657723Y-98906652D01*
X185667066Y-98795926D01*
X185675443Y-98695389D01*
X185682653Y-98607518D01*
X185688496Y-98534790D01*
X185692769Y-98479685D01*
X185695273Y-98444679D01*
X185695805Y-98432249D01*
X185695384Y-98432483D01*
X185683509Y-98443925D01*
X185657130Y-98470773D01*
X185618570Y-98510593D01*
X185570153Y-98560947D01*
X185514203Y-98619403D01*
X185453042Y-98683523D01*
X185388995Y-98750873D01*
X185324385Y-98819018D01*
X185261535Y-98885523D01*
X185202768Y-98947952D01*
X185150409Y-99003870D01*
X185049533Y-99111981D01*
X185047601Y-99114052D01*
X184865778Y-99114052D01*
X184867290Y-99111981D01*
X184859148Y-99100958D01*
X184835478Y-99074574D01*
X184798478Y-99035102D01*
X184750350Y-98984766D01*
X184693296Y-98925792D01*
X184629520Y-98860405D01*
X184561222Y-98790830D01*
X184490605Y-98719291D01*
X184419871Y-98648013D01*
X184351222Y-98579222D01*
X184286861Y-98515141D01*
X184228989Y-98457997D01*
X184179810Y-98410014D01*
X184141524Y-98373416D01*
X184116334Y-98350429D01*
X184106442Y-98343278D01*
X184106253Y-98351307D01*
X183977067Y-98351307D01*
X183975390Y-98338664D01*
X183700297Y-98338664D01*
X183699968Y-98128046D01*
X183699797Y-98018747D01*
X183800891Y-98018747D01*
X183800891Y-98238070D01*
X183882624Y-98238070D01*
X183889895Y-98238064D01*
X183930950Y-98237188D01*
X183953277Y-98233442D01*
X183962529Y-98224845D01*
X183964357Y-98209415D01*
X183956306Y-98186734D01*
X183928730Y-98149003D01*
X183882624Y-98099754D01*
X183800891Y-98018747D01*
X183699797Y-98018747D01*
X183699639Y-97917427D01*
X183247914Y-97458466D01*
X182796189Y-96999506D01*
X182795570Y-96912423D01*
X182794951Y-96825342D01*
X183336769Y-97374527D01*
X183389137Y-97427573D01*
X183497803Y-97537347D01*
X183590709Y-97630689D01*
X183669055Y-97708748D01*
X183734043Y-97772672D01*
X183786872Y-97823610D01*
X183828743Y-97862710D01*
X183860855Y-97891123D01*
X183884410Y-97909995D01*
X183900608Y-97920476D01*
X183910649Y-97923714D01*
X183927579Y-97922733D01*
X183937084Y-97915571D01*
X183938723Y-97895976D01*
X183934782Y-97857699D01*
X183932065Y-97833600D01*
X183928284Y-97793319D01*
X183926760Y-97766536D01*
X183926015Y-97757303D01*
X183918746Y-97747414D01*
X183898668Y-97744137D01*
X183859689Y-97745567D01*
X183849737Y-97746128D01*
X183809898Y-97745496D01*
X183781560Y-97736742D01*
X183761586Y-97722526D01*
X184044852Y-97722526D01*
X184049013Y-97769679D01*
X184050935Y-97791073D01*
X184056924Y-97849484D01*
X184062826Y-97887956D01*
X184069727Y-97910487D01*
X184078712Y-97921073D01*
X184090870Y-97923714D01*
X184101801Y-97925512D01*
X184109050Y-97934105D01*
X184113100Y-97954080D01*
X184114863Y-97990025D01*
X184115248Y-98046527D01*
X184115248Y-98169341D01*
X184155447Y-98209415D01*
X184253565Y-98307229D01*
X184391881Y-98445117D01*
X184391881Y-98338664D01*
X185146337Y-98338664D01*
X185146337Y-98577575D01*
X184527831Y-98577575D01*
X184737592Y-98794481D01*
X184777770Y-98835909D01*
X184833328Y-98892775D01*
X184881570Y-98941657D01*
X184919971Y-98980016D01*
X184946003Y-99005316D01*
X184957140Y-99015017D01*
X184961373Y-99012342D01*
X184981224Y-98994357D01*
X185015451Y-98961056D01*
X185062227Y-98914287D01*
X185119724Y-98855900D01*
X185186112Y-98787744D01*
X185259564Y-98711669D01*
X185338251Y-98629525D01*
X185417341Y-98546518D01*
X185494871Y-98464711D01*
X185557746Y-98397658D01*
X185607502Y-98343582D01*
X185645678Y-98300704D01*
X185673811Y-98267248D01*
X185693440Y-98241436D01*
X185706101Y-98221489D01*
X185713334Y-98205631D01*
X185716675Y-98192084D01*
X185717561Y-98185485D01*
X185721488Y-98149123D01*
X185726459Y-98095593D01*
X185731927Y-98030996D01*
X185737344Y-97961437D01*
X185739181Y-97937210D01*
X185744488Y-97871753D01*
X185749548Y-97815292D01*
X185753863Y-97773193D01*
X185756934Y-97750818D01*
X185762955Y-97722526D01*
X184044852Y-97722526D01*
X183761586Y-97722526D01*
X183753630Y-97716864D01*
X183748820Y-97712679D01*
X183709482Y-97662002D01*
X183693903Y-97609357D01*
X184034698Y-97609357D01*
X185449221Y-97609357D01*
X185447172Y-97559060D01*
X185661881Y-97559060D01*
X185661881Y-97609357D01*
X185718908Y-97609357D01*
X185735993Y-97609237D01*
X185761308Y-97607037D01*
X185768616Y-97599909D01*
X185762943Y-97585083D01*
X185761267Y-97582257D01*
X185742448Y-97560519D01*
X185715183Y-97536395D01*
X185687987Y-97516829D01*
X185669371Y-97508763D01*
X185667697Y-97510038D01*
X185663544Y-97527551D01*
X185661881Y-97559060D01*
X185447172Y-97559060D01*
X185445526Y-97518670D01*
X185441832Y-97427982D01*
X185366386Y-97412827D01*
X185328551Y-97405954D01*
X185265368Y-97396331D01*
X185206065Y-97389071D01*
X185121188Y-97380468D01*
X185121188Y-97483615D01*
X184542773Y-97483615D01*
X184542773Y-97392697D01*
X184470471Y-97401328D01*
X184359998Y-97419824D01*
X184248816Y-97453266D01*
X184156850Y-97499899D01*
X184082542Y-97560361D01*
X184034698Y-97609357D01*
X183693903Y-97609357D01*
X183692172Y-97603509D01*
X183697474Y-97542150D01*
X183725975Y-97482872D01*
X183728733Y-97479181D01*
X183766822Y-97447426D01*
X183816476Y-97428642D01*
X183870002Y-97423646D01*
X183919707Y-97433253D01*
X183957900Y-97458279D01*
X183970831Y-97471055D01*
X183983428Y-97474151D01*
X184001467Y-97464573D01*
X184031928Y-97440657D01*
X184041274Y-97433306D01*
X184113430Y-97386914D01*
X184198915Y-97345659D01*
X184268830Y-97320150D01*
X184643367Y-97320150D01*
X184643367Y-97383021D01*
X185020594Y-97383021D01*
X185020594Y-97320150D01*
X184643367Y-97320150D01*
X184268830Y-97320150D01*
X184289767Y-97312511D01*
X184378027Y-97290443D01*
X184455736Y-97282427D01*
X184463991Y-97282363D01*
X184509879Y-97277896D01*
X184535079Y-97265370D01*
X184542773Y-97243359D01*
X184543676Y-97236424D01*
X184548615Y-97230460D01*
X184560611Y-97226094D01*
X184582680Y-97223078D01*
X184617836Y-97221165D01*
X184669094Y-97220105D01*
X184739471Y-97219652D01*
X184831980Y-97219555D01*
X184918660Y-97219725D01*
X184992332Y-97220409D01*
X185046265Y-97221790D01*
X185083288Y-97224045D01*
X185106230Y-97227353D01*
X185117920Y-97231895D01*
X185121188Y-97237847D01*
X185131937Y-97252463D01*
X185162055Y-97261790D01*
X185173582Y-97263422D01*
X185212886Y-97269166D01*
X185265188Y-97276953D01*
X185322376Y-97285578D01*
X185353916Y-97289968D01*
X185400074Y-97294723D01*
X185432641Y-97295870D01*
X185446023Y-97293070D01*
X185448308Y-97291246D01*
X185469405Y-97286740D01*
X185507355Y-97283604D01*
X185556048Y-97282427D01*
X185661881Y-97282427D01*
X185661894Y-97320150D01*
X185661894Y-97323293D01*
G37*
X192765560Y-96453175D02*
X192777093Y-96470511D01*
X192802500Y-96512162D01*
X192840507Y-96575911D01*
X192889837Y-96659545D01*
X192949213Y-96760849D01*
X193017359Y-96877609D01*
X193093000Y-97007608D01*
X193174859Y-97148633D01*
X193261660Y-97298468D01*
X193352126Y-97454900D01*
X193444982Y-97615713D01*
X193538951Y-97778693D01*
X193632757Y-97941624D01*
X193725124Y-98102292D01*
X193814776Y-98258482D01*
X193900436Y-98407980D01*
X193980828Y-98548571D01*
X194054677Y-98678040D01*
X194120705Y-98794172D01*
X194177637Y-98894752D01*
X194224197Y-98977567D01*
X194259108Y-99040400D01*
X194281094Y-99081037D01*
X194288879Y-99097264D01*
X194288887Y-99097388D01*
X194276333Y-99114416D01*
X194240258Y-99143279D01*
X194184417Y-99181247D01*
X194112561Y-99225587D01*
X194064373Y-99253952D01*
X193995032Y-99293396D01*
X193946734Y-99318254D01*
X193916242Y-99329924D01*
X193900320Y-99329806D01*
X193895732Y-99319297D01*
X193895382Y-99317583D01*
X193882268Y-99296682D01*
X193854000Y-99261139D01*
X193815786Y-99217583D01*
X193798155Y-99198875D01*
X193743482Y-99148512D01*
X193683022Y-99105465D01*
X193613182Y-99068473D01*
X193530370Y-99036273D01*
X193430992Y-99007602D01*
X193311455Y-98981198D01*
X193168166Y-98955800D01*
X192997531Y-98930145D01*
X192801134Y-98901227D01*
X192611274Y-98870173D01*
X192445260Y-98839044D01*
X192299382Y-98806942D01*
X192169927Y-98772969D01*
X192053183Y-98736226D01*
X191945440Y-98695817D01*
X191842985Y-98650843D01*
X191767688Y-98613754D01*
X191695765Y-98574725D01*
X191638886Y-98539882D01*
X191601499Y-98511965D01*
X191588049Y-98493714D01*
X191588446Y-98492370D01*
X191599280Y-98470862D01*
X191623845Y-98425822D01*
X191660685Y-98359772D01*
X191708347Y-98275233D01*
X191765376Y-98174727D01*
X191830318Y-98060776D01*
X191901719Y-97935901D01*
X191978124Y-97802624D01*
X192058079Y-97663467D01*
X192140130Y-97520951D01*
X192222822Y-97377598D01*
X192304701Y-97235930D01*
X192384313Y-97098468D01*
X192460204Y-96967734D01*
X192530919Y-96846250D01*
X192595004Y-96736538D01*
X192651004Y-96641118D01*
X192697466Y-96562514D01*
X192732935Y-96503245D01*
X192755957Y-96465835D01*
X192765077Y-96452805D01*
X192765560Y-96453175D01*
G36*
X192765560Y-96453175D02*
G01*
X192777093Y-96470511D01*
X192802500Y-96512162D01*
X192840507Y-96575911D01*
X192889837Y-96659545D01*
X192949213Y-96760849D01*
X193017359Y-96877609D01*
X193093000Y-97007608D01*
X193174859Y-97148633D01*
X193261660Y-97298468D01*
X193352126Y-97454900D01*
X193444982Y-97615713D01*
X193538951Y-97778693D01*
X193632757Y-97941624D01*
X193725124Y-98102292D01*
X193814776Y-98258482D01*
X193900436Y-98407980D01*
X193980828Y-98548571D01*
X194054677Y-98678040D01*
X194120705Y-98794172D01*
X194177637Y-98894752D01*
X194224197Y-98977567D01*
X194259108Y-99040400D01*
X194281094Y-99081037D01*
X194288879Y-99097264D01*
X194288887Y-99097388D01*
X194276333Y-99114416D01*
X194240258Y-99143279D01*
X194184417Y-99181247D01*
X194112561Y-99225587D01*
X194064373Y-99253952D01*
X193995032Y-99293396D01*
X193946734Y-99318254D01*
X193916242Y-99329924D01*
X193900320Y-99329806D01*
X193895732Y-99319297D01*
X193895382Y-99317583D01*
X193882268Y-99296682D01*
X193854000Y-99261139D01*
X193815786Y-99217583D01*
X193798155Y-99198875D01*
X193743482Y-99148512D01*
X193683022Y-99105465D01*
X193613182Y-99068473D01*
X193530370Y-99036273D01*
X193430992Y-99007602D01*
X193311455Y-98981198D01*
X193168166Y-98955800D01*
X192997531Y-98930145D01*
X192801134Y-98901227D01*
X192611274Y-98870173D01*
X192445260Y-98839044D01*
X192299382Y-98806942D01*
X192169927Y-98772969D01*
X192053183Y-98736226D01*
X191945440Y-98695817D01*
X191842985Y-98650843D01*
X191767688Y-98613754D01*
X191695765Y-98574725D01*
X191638886Y-98539882D01*
X191601499Y-98511965D01*
X191588049Y-98493714D01*
X191588446Y-98492370D01*
X191599280Y-98470862D01*
X191623845Y-98425822D01*
X191660685Y-98359772D01*
X191708347Y-98275233D01*
X191765376Y-98174727D01*
X191830318Y-98060776D01*
X191901719Y-97935901D01*
X191978124Y-97802624D01*
X192058079Y-97663467D01*
X192140130Y-97520951D01*
X192222822Y-97377598D01*
X192304701Y-97235930D01*
X192384313Y-97098468D01*
X192460204Y-96967734D01*
X192530919Y-96846250D01*
X192595004Y-96736538D01*
X192651004Y-96641118D01*
X192697466Y-96562514D01*
X192732935Y-96503245D01*
X192755957Y-96465835D01*
X192765077Y-96452805D01*
X192765560Y-96453175D01*
G37*
X191002836Y-99622363D02*
X191017023Y-99636032D01*
X191058392Y-99677719D01*
X191113107Y-99734472D01*
X191178510Y-99803397D01*
X191251943Y-99881599D01*
X191330746Y-99966182D01*
X191412260Y-100054253D01*
X191493827Y-100142916D01*
X191572788Y-100229276D01*
X191646483Y-100310439D01*
X191712254Y-100383510D01*
X191767441Y-100445594D01*
X191809386Y-100493795D01*
X191835431Y-100525220D01*
X191842915Y-100536974D01*
X191840346Y-100538272D01*
X191815785Y-100551978D01*
X191767204Y-100579613D01*
X191696652Y-100619998D01*
X191606173Y-100671955D01*
X191497815Y-100734305D01*
X191373624Y-100805871D01*
X191235645Y-100885475D01*
X191085926Y-100971938D01*
X190926513Y-101064083D01*
X190759451Y-101160732D01*
X190697008Y-101196867D01*
X190532883Y-101291806D01*
X190377358Y-101381714D01*
X190232454Y-101465424D01*
X190100195Y-101541771D01*
X189982604Y-101609589D01*
X189881702Y-101667711D01*
X189799513Y-101714971D01*
X189738059Y-101750203D01*
X189699364Y-101772242D01*
X189685449Y-101779920D01*
X189686075Y-101775831D01*
X189697493Y-101752330D01*
X189718493Y-101714786D01*
X189731376Y-101692564D01*
X189758772Y-101645173D01*
X189799087Y-101575377D01*
X189851009Y-101485444D01*
X189913231Y-101377642D01*
X189984443Y-101254240D01*
X190063335Y-101117506D01*
X190148598Y-100969709D01*
X190238924Y-100813117D01*
X190333002Y-100650000D01*
X190425121Y-100490323D01*
X190514680Y-100335187D01*
X190598893Y-100189412D01*
X190676497Y-100055183D01*
X190746225Y-99934685D01*
X190806814Y-99830102D01*
X190856998Y-99743619D01*
X190895512Y-99677421D01*
X190921092Y-99633693D01*
X190932472Y-99614619D01*
X190955820Y-99578201D01*
X191002836Y-99622363D01*
G36*
X191002836Y-99622363D02*
G01*
X191017023Y-99636032D01*
X191058392Y-99677719D01*
X191113107Y-99734472D01*
X191178510Y-99803397D01*
X191251943Y-99881599D01*
X191330746Y-99966182D01*
X191412260Y-100054253D01*
X191493827Y-100142916D01*
X191572788Y-100229276D01*
X191646483Y-100310439D01*
X191712254Y-100383510D01*
X191767441Y-100445594D01*
X191809386Y-100493795D01*
X191835431Y-100525220D01*
X191842915Y-100536974D01*
X191840346Y-100538272D01*
X191815785Y-100551978D01*
X191767204Y-100579613D01*
X191696652Y-100619998D01*
X191606173Y-100671955D01*
X191497815Y-100734305D01*
X191373624Y-100805871D01*
X191235645Y-100885475D01*
X191085926Y-100971938D01*
X190926513Y-101064083D01*
X190759451Y-101160732D01*
X190697008Y-101196867D01*
X190532883Y-101291806D01*
X190377358Y-101381714D01*
X190232454Y-101465424D01*
X190100195Y-101541771D01*
X189982604Y-101609589D01*
X189881702Y-101667711D01*
X189799513Y-101714971D01*
X189738059Y-101750203D01*
X189699364Y-101772242D01*
X189685449Y-101779920D01*
X189686075Y-101775831D01*
X189697493Y-101752330D01*
X189718493Y-101714786D01*
X189731376Y-101692564D01*
X189758772Y-101645173D01*
X189799087Y-101575377D01*
X189851009Y-101485444D01*
X189913231Y-101377642D01*
X189984443Y-101254240D01*
X190063335Y-101117506D01*
X190148598Y-100969709D01*
X190238924Y-100813117D01*
X190333002Y-100650000D01*
X190425121Y-100490323D01*
X190514680Y-100335187D01*
X190598893Y-100189412D01*
X190676497Y-100055183D01*
X190746225Y-99934685D01*
X190806814Y-99830102D01*
X190856998Y-99743619D01*
X190895512Y-99677421D01*
X190921092Y-99633693D01*
X190932472Y-99614619D01*
X190955820Y-99578201D01*
X191002836Y-99622363D01*
G37*
X194630047Y-99676040D02*
X194635802Y-99684625D01*
X194656365Y-99718346D01*
X194690179Y-99775200D01*
X194735950Y-99852968D01*
X194792383Y-99949432D01*
X194858184Y-100062371D01*
X194932058Y-100189568D01*
X195012711Y-100328803D01*
X195098848Y-100477857D01*
X195189175Y-100634512D01*
X195213947Y-100677521D01*
X195311900Y-100847575D01*
X195410509Y-101018754D01*
X195507760Y-101187562D01*
X195601638Y-101350503D01*
X195690131Y-101504082D01*
X195771222Y-101644801D01*
X195842898Y-101769166D01*
X195903144Y-101873680D01*
X195949947Y-101954847D01*
X196171030Y-102338171D01*
X193071076Y-102338171D01*
X192942921Y-102338159D01*
X192637500Y-102338042D01*
X192341432Y-102337802D01*
X192056159Y-102337444D01*
X191783123Y-102336976D01*
X191523765Y-102336403D01*
X191279527Y-102335732D01*
X191051849Y-102334968D01*
X190842174Y-102334119D01*
X190651943Y-102333189D01*
X190482597Y-102332186D01*
X190335578Y-102331115D01*
X190212327Y-102329983D01*
X190114286Y-102328796D01*
X190042896Y-102327559D01*
X189999598Y-102326280D01*
X189985835Y-102324963D01*
X189996054Y-102318304D01*
X190031311Y-102297083D01*
X190089221Y-102262920D01*
X190167430Y-102217171D01*
X190263583Y-102161190D01*
X190375323Y-102096333D01*
X190500296Y-102023954D01*
X190636146Y-101945409D01*
X190780518Y-101862054D01*
X190931056Y-101775243D01*
X191085405Y-101686332D01*
X191241210Y-101596676D01*
X191396116Y-101507629D01*
X191547766Y-101420548D01*
X191693806Y-101336788D01*
X191831881Y-101257703D01*
X191959634Y-101184649D01*
X192074711Y-101118981D01*
X192174756Y-101062054D01*
X192257414Y-101015224D01*
X192320329Y-100979846D01*
X192361147Y-100957274D01*
X192377511Y-100948864D01*
X192388189Y-100950949D01*
X192420358Y-100969908D01*
X192466221Y-101005032D01*
X192520740Y-101052669D01*
X192569845Y-101100356D01*
X192632389Y-101165316D01*
X192702368Y-101241155D01*
X192776196Y-101323698D01*
X192850285Y-101408768D01*
X192921048Y-101492190D01*
X192984898Y-101569789D01*
X193038247Y-101637389D01*
X193077509Y-101690814D01*
X193099095Y-101725889D01*
X193113506Y-101751505D01*
X193152643Y-101804516D01*
X193202958Y-101860912D01*
X193257276Y-101913462D01*
X193308424Y-101954930D01*
X193349227Y-101978086D01*
X193394292Y-101983438D01*
X193454426Y-101968645D01*
X193511579Y-101934726D01*
X193555933Y-101886053D01*
X193563613Y-101873425D01*
X193573392Y-101852743D01*
X193579765Y-101827854D01*
X193583142Y-101793409D01*
X193583931Y-101744062D01*
X193582541Y-101674464D01*
X193579381Y-101579268D01*
X193577116Y-101524202D01*
X193572304Y-101437117D01*
X193566625Y-101360899D01*
X193560608Y-101302249D01*
X193554783Y-101267866D01*
X193540679Y-101228588D01*
X193498866Y-101151240D01*
X193433895Y-101059591D01*
X193344970Y-100952567D01*
X193231300Y-100829090D01*
X193181972Y-100777066D01*
X193124938Y-100715696D01*
X193077864Y-100663665D01*
X193044624Y-100625266D01*
X193029089Y-100604796D01*
X193027492Y-100601546D01*
X193025577Y-100587553D01*
X193035145Y-100572039D01*
X193060115Y-100551659D01*
X193104406Y-100523071D01*
X193171938Y-100482932D01*
X193229347Y-100449422D01*
X193334992Y-100388123D01*
X193418171Y-100340509D01*
X193481678Y-100305033D01*
X193528306Y-100280149D01*
X193560850Y-100264313D01*
X193582104Y-100255977D01*
X193604097Y-100246728D01*
X193616951Y-100234307D01*
X193618154Y-100231378D01*
X193636961Y-100215084D01*
X193671335Y-100194098D01*
X193725719Y-100164810D01*
X193765874Y-100202192D01*
X193780057Y-100217336D01*
X193813055Y-100258493D01*
X193853346Y-100313445D01*
X193895182Y-100374531D01*
X193984336Y-100509489D01*
X193980837Y-100859362D01*
X193977339Y-101209235D01*
X193926393Y-101258733D01*
X193909274Y-101276379D01*
X193854376Y-101355660D01*
X193822330Y-101449935D01*
X193811412Y-101563780D01*
X193814123Y-101624779D01*
X193833261Y-101732378D01*
X193868141Y-101830583D01*
X193915742Y-101909382D01*
X193948795Y-101938114D01*
X194007549Y-101959937D01*
X194074061Y-101962454D01*
X194139816Y-101946828D01*
X194196301Y-101914220D01*
X194235003Y-101865793D01*
X194236270Y-101863168D01*
X194259663Y-101815225D01*
X194284439Y-101765122D01*
X194305472Y-101718087D01*
X194335644Y-101638810D01*
X194368932Y-101541072D01*
X194404179Y-101429228D01*
X194440229Y-101307634D01*
X194475925Y-101180645D01*
X194510110Y-101052616D01*
X194541627Y-100927902D01*
X194569320Y-100810859D01*
X194592032Y-100705843D01*
X194608606Y-100617209D01*
X194617885Y-100549312D01*
X194618714Y-100506507D01*
X194616847Y-100496782D01*
X194598658Y-100447556D01*
X194564907Y-100381699D01*
X194518555Y-100305165D01*
X194500764Y-100277585D01*
X194429282Y-100165122D01*
X194368520Y-100066772D01*
X194319817Y-99984832D01*
X194284514Y-99921605D01*
X194263952Y-99879390D01*
X194259469Y-99860487D01*
X194259988Y-99859820D01*
X194278545Y-99846205D01*
X194318202Y-99821319D01*
X194373526Y-99788476D01*
X194439084Y-99750988D01*
X194444626Y-99747876D01*
X194515807Y-99708712D01*
X194565381Y-99683736D01*
X194597906Y-99671158D01*
X194617942Y-99669189D01*
X194630047Y-99676040D01*
G36*
X194630047Y-99676040D02*
G01*
X194635802Y-99684625D01*
X194656365Y-99718346D01*
X194690179Y-99775200D01*
X194735950Y-99852968D01*
X194792383Y-99949432D01*
X194858184Y-100062371D01*
X194932058Y-100189568D01*
X195012711Y-100328803D01*
X195098848Y-100477857D01*
X195189175Y-100634512D01*
X195213947Y-100677521D01*
X195311900Y-100847575D01*
X195410509Y-101018754D01*
X195507760Y-101187562D01*
X195601638Y-101350503D01*
X195690131Y-101504082D01*
X195771222Y-101644801D01*
X195842898Y-101769166D01*
X195903144Y-101873680D01*
X195949947Y-101954847D01*
X196171030Y-102338171D01*
X193071076Y-102338171D01*
X192942921Y-102338159D01*
X192637500Y-102338042D01*
X192341432Y-102337802D01*
X192056159Y-102337444D01*
X191783123Y-102336976D01*
X191523765Y-102336403D01*
X191279527Y-102335732D01*
X191051849Y-102334968D01*
X190842174Y-102334119D01*
X190651943Y-102333189D01*
X190482597Y-102332186D01*
X190335578Y-102331115D01*
X190212327Y-102329983D01*
X190114286Y-102328796D01*
X190042896Y-102327559D01*
X189999598Y-102326280D01*
X189985835Y-102324963D01*
X189996054Y-102318304D01*
X190031311Y-102297083D01*
X190089221Y-102262920D01*
X190167430Y-102217171D01*
X190263583Y-102161190D01*
X190375323Y-102096333D01*
X190500296Y-102023954D01*
X190636146Y-101945409D01*
X190780518Y-101862054D01*
X190931056Y-101775243D01*
X191085405Y-101686332D01*
X191241210Y-101596676D01*
X191396116Y-101507629D01*
X191547766Y-101420548D01*
X191693806Y-101336788D01*
X191831881Y-101257703D01*
X191959634Y-101184649D01*
X192074711Y-101118981D01*
X192174756Y-101062054D01*
X192257414Y-101015224D01*
X192320329Y-100979846D01*
X192361147Y-100957274D01*
X192377511Y-100948864D01*
X192388189Y-100950949D01*
X192420358Y-100969908D01*
X192466221Y-101005032D01*
X192520740Y-101052669D01*
X192569845Y-101100356D01*
X192632389Y-101165316D01*
X192702368Y-101241155D01*
X192776196Y-101323698D01*
X192850285Y-101408768D01*
X192921048Y-101492190D01*
X192984898Y-101569789D01*
X193038247Y-101637389D01*
X193077509Y-101690814D01*
X193099095Y-101725889D01*
X193113506Y-101751505D01*
X193152643Y-101804516D01*
X193202958Y-101860912D01*
X193257276Y-101913462D01*
X193308424Y-101954930D01*
X193349227Y-101978086D01*
X193394292Y-101983438D01*
X193454426Y-101968645D01*
X193511579Y-101934726D01*
X193555933Y-101886053D01*
X193563613Y-101873425D01*
X193573392Y-101852743D01*
X193579765Y-101827854D01*
X193583142Y-101793409D01*
X193583931Y-101744062D01*
X193582541Y-101674464D01*
X193579381Y-101579268D01*
X193577116Y-101524202D01*
X193572304Y-101437117D01*
X193566625Y-101360899D01*
X193560608Y-101302249D01*
X193554783Y-101267866D01*
X193540679Y-101228588D01*
X193498866Y-101151240D01*
X193433895Y-101059591D01*
X193344970Y-100952567D01*
X193231300Y-100829090D01*
X193181972Y-100777066D01*
X193124938Y-100715696D01*
X193077864Y-100663665D01*
X193044624Y-100625266D01*
X193029089Y-100604796D01*
X193027492Y-100601546D01*
X193025577Y-100587553D01*
X193035145Y-100572039D01*
X193060115Y-100551659D01*
X193104406Y-100523071D01*
X193171938Y-100482932D01*
X193229347Y-100449422D01*
X193334992Y-100388123D01*
X193418171Y-100340509D01*
X193481678Y-100305033D01*
X193528306Y-100280149D01*
X193560850Y-100264313D01*
X193582104Y-100255977D01*
X193604097Y-100246728D01*
X193616951Y-100234307D01*
X193618154Y-100231378D01*
X193636961Y-100215084D01*
X193671335Y-100194098D01*
X193725719Y-100164810D01*
X193765874Y-100202192D01*
X193780057Y-100217336D01*
X193813055Y-100258493D01*
X193853346Y-100313445D01*
X193895182Y-100374531D01*
X193984336Y-100509489D01*
X193980837Y-100859362D01*
X193977339Y-101209235D01*
X193926393Y-101258733D01*
X193909274Y-101276379D01*
X193854376Y-101355660D01*
X193822330Y-101449935D01*
X193811412Y-101563780D01*
X193814123Y-101624779D01*
X193833261Y-101732378D01*
X193868141Y-101830583D01*
X193915742Y-101909382D01*
X193948795Y-101938114D01*
X194007549Y-101959937D01*
X194074061Y-101962454D01*
X194139816Y-101946828D01*
X194196301Y-101914220D01*
X194235003Y-101865793D01*
X194236270Y-101863168D01*
X194259663Y-101815225D01*
X194284439Y-101765122D01*
X194305472Y-101718087D01*
X194335644Y-101638810D01*
X194368932Y-101541072D01*
X194404179Y-101429228D01*
X194440229Y-101307634D01*
X194475925Y-101180645D01*
X194510110Y-101052616D01*
X194541627Y-100927902D01*
X194569320Y-100810859D01*
X194592032Y-100705843D01*
X194608606Y-100617209D01*
X194617885Y-100549312D01*
X194618714Y-100506507D01*
X194616847Y-100496782D01*
X194598658Y-100447556D01*
X194564907Y-100381699D01*
X194518555Y-100305165D01*
X194500764Y-100277585D01*
X194429282Y-100165122D01*
X194368520Y-100066772D01*
X194319817Y-99984832D01*
X194284514Y-99921605D01*
X194263952Y-99879390D01*
X194259469Y-99860487D01*
X194259988Y-99859820D01*
X194278545Y-99846205D01*
X194318202Y-99821319D01*
X194373526Y-99788476D01*
X194439084Y-99750988D01*
X194444626Y-99747876D01*
X194515807Y-99708712D01*
X194565381Y-99683736D01*
X194597906Y-99671158D01*
X194617942Y-99669189D01*
X194630047Y-99676040D01*
G37*
X184605994Y-91622711D02*
X184605268Y-91700158D01*
X184596689Y-91851594D01*
X184577833Y-91988283D01*
X184547837Y-92114276D01*
X184505836Y-92233625D01*
X184450969Y-92350381D01*
X184384167Y-92461179D01*
X184293363Y-92574739D01*
X184189708Y-92670211D01*
X184073887Y-92747073D01*
X183946586Y-92804797D01*
X183808489Y-92842858D01*
X183770793Y-92848666D01*
X183691752Y-92854396D01*
X183603629Y-92854583D01*
X183514236Y-92849539D01*
X183431384Y-92839578D01*
X183362887Y-92825012D01*
X183332035Y-92815364D01*
X183254730Y-92785123D01*
X183177679Y-92747617D01*
X183108200Y-92706614D01*
X183053615Y-92665879D01*
X183030916Y-92646505D01*
X183008201Y-92628662D01*
X182996779Y-92621778D01*
X182995537Y-92623424D01*
X182992728Y-92641205D01*
X182990776Y-92674370D01*
X182990045Y-92717733D01*
X182990045Y-92813689D01*
X182131896Y-92813689D01*
X182166161Y-92752974D01*
X182171355Y-92743868D01*
X182179715Y-92729249D01*
X182187288Y-92715173D01*
X182194112Y-92700540D01*
X182200227Y-92684249D01*
X182205673Y-92665198D01*
X182210487Y-92642286D01*
X182214708Y-92614413D01*
X182218377Y-92580478D01*
X182221531Y-92539379D01*
X182224211Y-92490015D01*
X182226454Y-92431286D01*
X182228299Y-92362090D01*
X182229787Y-92281326D01*
X182230955Y-92187894D01*
X182231844Y-92080692D01*
X182232491Y-91958620D01*
X182232936Y-91820576D01*
X182233218Y-91665459D01*
X182233375Y-91492168D01*
X182233448Y-91299603D01*
X182233474Y-91086662D01*
X182233485Y-90950530D01*
X183035200Y-90950530D01*
X183035200Y-92100721D01*
X183105756Y-92147089D01*
X183146417Y-92170791D01*
X183200546Y-92196639D01*
X183249689Y-92214829D01*
X183313165Y-92230551D01*
X183409331Y-92241541D01*
X183493900Y-92233365D01*
X183567219Y-92205805D01*
X183629637Y-92158642D01*
X183681502Y-92091658D01*
X183723160Y-92004633D01*
X183754962Y-91897350D01*
X183757545Y-91885009D01*
X183766000Y-91823772D01*
X183771663Y-91746692D01*
X183774576Y-91659002D01*
X183774783Y-91565934D01*
X183772330Y-91472720D01*
X183767261Y-91384594D01*
X183759619Y-91306788D01*
X183749448Y-91244533D01*
X183748167Y-91238666D01*
X183719126Y-91128121D01*
X183684610Y-91037575D01*
X183643456Y-90964953D01*
X183594499Y-90908181D01*
X183536574Y-90865184D01*
X183504620Y-90849615D01*
X183431784Y-90830722D01*
X183350443Y-90827465D01*
X183265319Y-90839389D01*
X183181133Y-90866040D01*
X183102608Y-90906962D01*
X183035200Y-90950530D01*
X182233485Y-90950530D01*
X182233493Y-90852245D01*
X182233689Y-89167378D01*
X183139017Y-89167378D01*
X183114585Y-89204067D01*
X183108318Y-89213647D01*
X183082208Y-89259981D01*
X183064469Y-89307102D01*
X183052908Y-89362251D01*
X183045331Y-89432667D01*
X183044839Y-89439650D01*
X183043062Y-89477641D01*
X183041444Y-89531576D01*
X183039999Y-89598703D01*
X183038740Y-89676271D01*
X183037680Y-89761528D01*
X183036829Y-89851724D01*
X183036203Y-89944107D01*
X183035812Y-90035925D01*
X183035670Y-90124427D01*
X183035790Y-90206862D01*
X183036183Y-90280479D01*
X183036862Y-90342526D01*
X183037841Y-90390251D01*
X183039132Y-90420904D01*
X183040747Y-90431733D01*
X183048957Y-90427333D01*
X183070647Y-90412362D01*
X183100014Y-90390448D01*
X183148879Y-90356236D01*
X183237125Y-90309714D01*
X183335916Y-90276046D01*
X183448510Y-90254231D01*
X183578164Y-90243265D01*
X183670670Y-90242219D01*
X183792011Y-90252014D01*
X183902099Y-90276174D01*
X184005389Y-90315785D01*
X184106338Y-90371932D01*
X184151503Y-90402883D01*
X184256911Y-90494115D01*
X184348538Y-90603106D01*
X184426332Y-90729726D01*
X184490241Y-90873845D01*
X184540214Y-91035332D01*
X184576198Y-91214059D01*
X184598143Y-91409895D01*
X184603900Y-91565934D01*
X184605994Y-91622711D01*
G36*
X184605994Y-91622711D02*
G01*
X184605268Y-91700158D01*
X184596689Y-91851594D01*
X184577833Y-91988283D01*
X184547837Y-92114276D01*
X184505836Y-92233625D01*
X184450969Y-92350381D01*
X184384167Y-92461179D01*
X184293363Y-92574739D01*
X184189708Y-92670211D01*
X184073887Y-92747073D01*
X183946586Y-92804797D01*
X183808489Y-92842858D01*
X183770793Y-92848666D01*
X183691752Y-92854396D01*
X183603629Y-92854583D01*
X183514236Y-92849539D01*
X183431384Y-92839578D01*
X183362887Y-92825012D01*
X183332035Y-92815364D01*
X183254730Y-92785123D01*
X183177679Y-92747617D01*
X183108200Y-92706614D01*
X183053615Y-92665879D01*
X183030916Y-92646505D01*
X183008201Y-92628662D01*
X182996779Y-92621778D01*
X182995537Y-92623424D01*
X182992728Y-92641205D01*
X182990776Y-92674370D01*
X182990045Y-92717733D01*
X182990045Y-92813689D01*
X182131896Y-92813689D01*
X182166161Y-92752974D01*
X182171355Y-92743868D01*
X182179715Y-92729249D01*
X182187288Y-92715173D01*
X182194112Y-92700540D01*
X182200227Y-92684249D01*
X182205673Y-92665198D01*
X182210487Y-92642286D01*
X182214708Y-92614413D01*
X182218377Y-92580478D01*
X182221531Y-92539379D01*
X182224211Y-92490015D01*
X182226454Y-92431286D01*
X182228299Y-92362090D01*
X182229787Y-92281326D01*
X182230955Y-92187894D01*
X182231844Y-92080692D01*
X182232491Y-91958620D01*
X182232936Y-91820576D01*
X182233218Y-91665459D01*
X182233375Y-91492168D01*
X182233448Y-91299603D01*
X182233474Y-91086662D01*
X182233485Y-90950530D01*
X183035200Y-90950530D01*
X183035200Y-92100721D01*
X183105756Y-92147089D01*
X183146417Y-92170791D01*
X183200546Y-92196639D01*
X183249689Y-92214829D01*
X183313165Y-92230551D01*
X183409331Y-92241541D01*
X183493900Y-92233365D01*
X183567219Y-92205805D01*
X183629637Y-92158642D01*
X183681502Y-92091658D01*
X183723160Y-92004633D01*
X183754962Y-91897350D01*
X183757545Y-91885009D01*
X183766000Y-91823772D01*
X183771663Y-91746692D01*
X183774576Y-91659002D01*
X183774783Y-91565934D01*
X183772330Y-91472720D01*
X183767261Y-91384594D01*
X183759619Y-91306788D01*
X183749448Y-91244533D01*
X183748167Y-91238666D01*
X183719126Y-91128121D01*
X183684610Y-91037575D01*
X183643456Y-90964953D01*
X183594499Y-90908181D01*
X183536574Y-90865184D01*
X183504620Y-90849615D01*
X183431784Y-90830722D01*
X183350443Y-90827465D01*
X183265319Y-90839389D01*
X183181133Y-90866040D01*
X183102608Y-90906962D01*
X183035200Y-90950530D01*
X182233485Y-90950530D01*
X182233493Y-90852245D01*
X182233689Y-89167378D01*
X183139017Y-89167378D01*
X183114585Y-89204067D01*
X183108318Y-89213647D01*
X183082208Y-89259981D01*
X183064469Y-89307102D01*
X183052908Y-89362251D01*
X183045331Y-89432667D01*
X183044839Y-89439650D01*
X183043062Y-89477641D01*
X183041444Y-89531576D01*
X183039999Y-89598703D01*
X183038740Y-89676271D01*
X183037680Y-89761528D01*
X183036829Y-89851724D01*
X183036203Y-89944107D01*
X183035812Y-90035925D01*
X183035670Y-90124427D01*
X183035790Y-90206862D01*
X183036183Y-90280479D01*
X183036862Y-90342526D01*
X183037841Y-90390251D01*
X183039132Y-90420904D01*
X183040747Y-90431733D01*
X183048957Y-90427333D01*
X183070647Y-90412362D01*
X183100014Y-90390448D01*
X183148879Y-90356236D01*
X183237125Y-90309714D01*
X183335916Y-90276046D01*
X183448510Y-90254231D01*
X183578164Y-90243265D01*
X183670670Y-90242219D01*
X183792011Y-90252014D01*
X183902099Y-90276174D01*
X184005389Y-90315785D01*
X184106338Y-90371932D01*
X184151503Y-90402883D01*
X184256911Y-90494115D01*
X184348538Y-90603106D01*
X184426332Y-90729726D01*
X184490241Y-90873845D01*
X184540214Y-91035332D01*
X184576198Y-91214059D01*
X184598143Y-91409895D01*
X184603900Y-91565934D01*
X184605994Y-91622711D01*
G37*
X183575767Y-93649068D02*
X183669890Y-93649158D01*
X183744405Y-93649498D01*
X183801811Y-93650239D01*
X183844611Y-93651535D01*
X183875304Y-93653537D01*
X183896391Y-93656396D01*
X183910373Y-93660266D01*
X183919750Y-93665298D01*
X183927022Y-93671645D01*
X183945828Y-93704362D01*
X183947275Y-93741939D01*
X183930917Y-93775178D01*
X183929557Y-93776631D01*
X183918354Y-93784992D01*
X183901252Y-93790547D01*
X183874082Y-93793840D01*
X183832678Y-93795418D01*
X183772873Y-93795822D01*
X183633511Y-93795822D01*
X183633511Y-94059589D01*
X183633436Y-94135417D01*
X183633028Y-94202083D01*
X183632046Y-94251867D01*
X183630250Y-94287784D01*
X183627399Y-94312850D01*
X183623253Y-94330081D01*
X183617571Y-94342492D01*
X183610114Y-94353100D01*
X183607824Y-94355906D01*
X183576646Y-94378548D01*
X183542266Y-94380112D01*
X183509334Y-94360267D01*
X183502355Y-94352191D01*
X183496883Y-94341593D01*
X183492863Y-94325749D01*
X183490072Y-94301773D01*
X183488288Y-94266774D01*
X183487289Y-94217864D01*
X183486852Y-94152154D01*
X183486756Y-94066756D01*
X183486756Y-93795822D01*
X183340820Y-93795822D01*
X183329720Y-93795821D01*
X183273202Y-93795596D01*
X183234358Y-93794457D01*
X183208965Y-93791657D01*
X183192804Y-93786450D01*
X183181652Y-93778089D01*
X183171289Y-93765826D01*
X183155441Y-93735138D01*
X183158543Y-93701358D01*
X183184187Y-93668822D01*
X183189129Y-93665105D01*
X183199338Y-93660269D01*
X183214764Y-93656506D01*
X183237886Y-93653683D01*
X183271183Y-93651670D01*
X183317137Y-93650333D01*
X183378228Y-93649542D01*
X183456935Y-93649163D01*
X183555740Y-93649067D01*
X183575767Y-93649068D01*
G36*
X183575767Y-93649068D02*
G01*
X183669890Y-93649158D01*
X183744405Y-93649498D01*
X183801811Y-93650239D01*
X183844611Y-93651535D01*
X183875304Y-93653537D01*
X183896391Y-93656396D01*
X183910373Y-93660266D01*
X183919750Y-93665298D01*
X183927022Y-93671645D01*
X183945828Y-93704362D01*
X183947275Y-93741939D01*
X183930917Y-93775178D01*
X183929557Y-93776631D01*
X183918354Y-93784992D01*
X183901252Y-93790547D01*
X183874082Y-93793840D01*
X183832678Y-93795418D01*
X183772873Y-93795822D01*
X183633511Y-93795822D01*
X183633511Y-94059589D01*
X183633436Y-94135417D01*
X183633028Y-94202083D01*
X183632046Y-94251867D01*
X183630250Y-94287784D01*
X183627399Y-94312850D01*
X183623253Y-94330081D01*
X183617571Y-94342492D01*
X183610114Y-94353100D01*
X183607824Y-94355906D01*
X183576646Y-94378548D01*
X183542266Y-94380112D01*
X183509334Y-94360267D01*
X183502355Y-94352191D01*
X183496883Y-94341593D01*
X183492863Y-94325749D01*
X183490072Y-94301773D01*
X183488288Y-94266774D01*
X183487289Y-94217864D01*
X183486852Y-94152154D01*
X183486756Y-94066756D01*
X183486756Y-93795822D01*
X183340820Y-93795822D01*
X183329720Y-93795821D01*
X183273202Y-93795596D01*
X183234358Y-93794457D01*
X183208965Y-93791657D01*
X183192804Y-93786450D01*
X183181652Y-93778089D01*
X183171289Y-93765826D01*
X183155441Y-93735138D01*
X183158543Y-93701358D01*
X183184187Y-93668822D01*
X183189129Y-93665105D01*
X183199338Y-93660269D01*
X183214764Y-93656506D01*
X183237886Y-93653683D01*
X183271183Y-93651670D01*
X183317137Y-93650333D01*
X183378228Y-93649542D01*
X183456935Y-93649163D01*
X183555740Y-93649067D01*
X183575767Y-93649068D01*
G37*
X194696817Y-93834427D02*
X194696870Y-93915041D01*
X194696622Y-94015956D01*
X194696583Y-94091617D01*
X194696328Y-94169526D01*
X194695684Y-94229536D01*
X194694480Y-94274264D01*
X194692543Y-94306326D01*
X194689703Y-94328340D01*
X194685788Y-94342924D01*
X194680626Y-94352694D01*
X194674045Y-94360267D01*
X194667077Y-94366501D01*
X194654079Y-94373801D01*
X194634931Y-94378554D01*
X194605528Y-94381292D01*
X194561762Y-94382545D01*
X194499528Y-94382845D01*
X194450582Y-94382469D01*
X194343722Y-94378041D01*
X194254494Y-94367953D01*
X194179696Y-94351365D01*
X194116125Y-94327435D01*
X194060579Y-94295321D01*
X194009854Y-94254182D01*
X194003866Y-94248330D01*
X193966999Y-94199821D01*
X193935899Y-94139013D01*
X193914417Y-94074769D01*
X193909136Y-94036026D01*
X194056353Y-94036026D01*
X194074635Y-94086961D01*
X194104305Y-94132878D01*
X194151002Y-94175287D01*
X194212392Y-94205090D01*
X194291538Y-94224226D01*
X194293028Y-94224464D01*
X194341999Y-94230256D01*
X194400693Y-94234396D01*
X194456734Y-94236004D01*
X194549867Y-94236089D01*
X194549867Y-93795822D01*
X194473667Y-93795808D01*
X194470639Y-93795817D01*
X194419519Y-93797782D01*
X194359416Y-93802507D01*
X194302708Y-93809035D01*
X194252750Y-93818331D01*
X194177998Y-93844600D01*
X194120489Y-93883899D01*
X194078988Y-93936933D01*
X194057771Y-93988200D01*
X194056353Y-94036026D01*
X193909136Y-94036026D01*
X193906400Y-94015956D01*
X193907679Y-93994739D01*
X193919991Y-93937323D01*
X193942520Y-93877413D01*
X193971750Y-93823363D01*
X194004167Y-93783532D01*
X194023708Y-93766510D01*
X194078420Y-93727322D01*
X194138723Y-93697193D01*
X194207919Y-93675232D01*
X194289311Y-93660550D01*
X194386200Y-93652259D01*
X194501889Y-93649467D01*
X194541371Y-93649066D01*
X194587082Y-93648653D01*
X194622883Y-93650457D01*
X194649974Y-93656739D01*
X194669556Y-93669759D01*
X194682830Y-93691778D01*
X194690998Y-93725055D01*
X194695260Y-93771851D01*
X194695857Y-93795822D01*
X194696817Y-93834427D01*
G36*
X194696817Y-93834427D02*
G01*
X194696870Y-93915041D01*
X194696622Y-94015956D01*
X194696583Y-94091617D01*
X194696328Y-94169526D01*
X194695684Y-94229536D01*
X194694480Y-94274264D01*
X194692543Y-94306326D01*
X194689703Y-94328340D01*
X194685788Y-94342924D01*
X194680626Y-94352694D01*
X194674045Y-94360267D01*
X194667077Y-94366501D01*
X194654079Y-94373801D01*
X194634931Y-94378554D01*
X194605528Y-94381292D01*
X194561762Y-94382545D01*
X194499528Y-94382845D01*
X194450582Y-94382469D01*
X194343722Y-94378041D01*
X194254494Y-94367953D01*
X194179696Y-94351365D01*
X194116125Y-94327435D01*
X194060579Y-94295321D01*
X194009854Y-94254182D01*
X194003866Y-94248330D01*
X193966999Y-94199821D01*
X193935899Y-94139013D01*
X193914417Y-94074769D01*
X193909136Y-94036026D01*
X194056353Y-94036026D01*
X194074635Y-94086961D01*
X194104305Y-94132878D01*
X194151002Y-94175287D01*
X194212392Y-94205090D01*
X194291538Y-94224226D01*
X194293028Y-94224464D01*
X194341999Y-94230256D01*
X194400693Y-94234396D01*
X194456734Y-94236004D01*
X194549867Y-94236089D01*
X194549867Y-93795822D01*
X194473667Y-93795808D01*
X194470639Y-93795817D01*
X194419519Y-93797782D01*
X194359416Y-93802507D01*
X194302708Y-93809035D01*
X194252750Y-93818331D01*
X194177998Y-93844600D01*
X194120489Y-93883899D01*
X194078988Y-93936933D01*
X194057771Y-93988200D01*
X194056353Y-94036026D01*
X193909136Y-94036026D01*
X193906400Y-94015956D01*
X193907679Y-93994739D01*
X193919991Y-93937323D01*
X193942520Y-93877413D01*
X193971750Y-93823363D01*
X194004167Y-93783532D01*
X194023708Y-93766510D01*
X194078420Y-93727322D01*
X194138723Y-93697193D01*
X194207919Y-93675232D01*
X194289311Y-93660550D01*
X194386200Y-93652259D01*
X194501889Y-93649467D01*
X194541371Y-93649066D01*
X194587082Y-93648653D01*
X194622883Y-93650457D01*
X194649974Y-93656739D01*
X194669556Y-93669759D01*
X194682830Y-93691778D01*
X194690998Y-93725055D01*
X194695260Y-93771851D01*
X194695857Y-93795822D01*
X194696817Y-93834427D01*
G37*
X184709702Y-93658478D02*
X184727663Y-93676989D01*
X184748263Y-93708071D01*
X184773095Y-93753756D01*
X184803750Y-93816078D01*
X184841820Y-93897071D01*
X184856454Y-93928454D01*
X184886203Y-93991638D01*
X184912297Y-94046244D01*
X184933292Y-94089290D01*
X184947739Y-94117793D01*
X184954191Y-94128770D01*
X184955550Y-94128189D01*
X184965542Y-94114242D01*
X184982833Y-94084704D01*
X185005430Y-94043087D01*
X185031338Y-93992903D01*
X185047311Y-93961414D01*
X185076261Y-93906061D01*
X185098749Y-93867044D01*
X185116965Y-93841566D01*
X185133096Y-93826831D01*
X185149330Y-93820042D01*
X185167857Y-93818400D01*
X185178360Y-93818875D01*
X185194476Y-93823082D01*
X185209790Y-93833946D01*
X185226388Y-93854219D01*
X185246357Y-93886654D01*
X185271783Y-93934004D01*
X185304752Y-93999022D01*
X185314485Y-94018277D01*
X185338943Y-94064946D01*
X185359178Y-94101109D01*
X185373311Y-94123497D01*
X185379460Y-94128845D01*
X185380827Y-94125573D01*
X185390202Y-94104664D01*
X185407062Y-94067725D01*
X185429979Y-94017874D01*
X185457520Y-93958226D01*
X185488255Y-93891898D01*
X185514970Y-93834677D01*
X185544593Y-93772688D01*
X185567664Y-93726949D01*
X185585643Y-93694908D01*
X185599990Y-93674014D01*
X185612166Y-93661718D01*
X185623632Y-93655466D01*
X185633042Y-93652574D01*
X185658147Y-93652425D01*
X185685290Y-93667768D01*
X185686590Y-93668753D01*
X185708674Y-93691388D01*
X185719723Y-93713613D01*
X185719769Y-93714253D01*
X185715228Y-93731915D01*
X185702364Y-93766481D01*
X185682605Y-93814826D01*
X185657381Y-93873825D01*
X185628119Y-93940355D01*
X185596250Y-94011291D01*
X185563201Y-94083507D01*
X185530401Y-94153880D01*
X185499280Y-94219285D01*
X185471265Y-94276597D01*
X185447786Y-94322692D01*
X185430272Y-94354446D01*
X185420151Y-94368733D01*
X185385743Y-94382102D01*
X185344046Y-94375741D01*
X185338681Y-94371044D01*
X185322852Y-94348893D01*
X185300650Y-94312132D01*
X185274233Y-94264415D01*
X185245760Y-94209393D01*
X185165986Y-94050150D01*
X185092799Y-94196742D01*
X185083103Y-94216032D01*
X185056125Y-94268380D01*
X185032096Y-94313170D01*
X185013332Y-94346154D01*
X185002146Y-94363089D01*
X185001000Y-94364332D01*
X184972879Y-94379619D01*
X184937817Y-94381302D01*
X184906776Y-94368733D01*
X184904350Y-94365884D01*
X184892090Y-94345259D01*
X184872352Y-94307708D01*
X184846448Y-94255880D01*
X184815685Y-94192423D01*
X184781375Y-94119985D01*
X184744825Y-94041216D01*
X184724585Y-93997093D01*
X184687812Y-93916365D01*
X184659355Y-93852687D01*
X184638331Y-93803752D01*
X184623854Y-93767257D01*
X184615039Y-93740895D01*
X184611004Y-93722361D01*
X184610862Y-93709352D01*
X184613730Y-93699561D01*
X184628387Y-93678678D01*
X184654990Y-93658377D01*
X184655745Y-93658035D01*
X184675335Y-93651034D01*
X184692790Y-93650504D01*
X184709702Y-93658478D01*
G36*
X184709702Y-93658478D02*
G01*
X184727663Y-93676989D01*
X184748263Y-93708071D01*
X184773095Y-93753756D01*
X184803750Y-93816078D01*
X184841820Y-93897071D01*
X184856454Y-93928454D01*
X184886203Y-93991638D01*
X184912297Y-94046244D01*
X184933292Y-94089290D01*
X184947739Y-94117793D01*
X184954191Y-94128770D01*
X184955550Y-94128189D01*
X184965542Y-94114242D01*
X184982833Y-94084704D01*
X185005430Y-94043087D01*
X185031338Y-93992903D01*
X185047311Y-93961414D01*
X185076261Y-93906061D01*
X185098749Y-93867044D01*
X185116965Y-93841566D01*
X185133096Y-93826831D01*
X185149330Y-93820042D01*
X185167857Y-93818400D01*
X185178360Y-93818875D01*
X185194476Y-93823082D01*
X185209790Y-93833946D01*
X185226388Y-93854219D01*
X185246357Y-93886654D01*
X185271783Y-93934004D01*
X185304752Y-93999022D01*
X185314485Y-94018277D01*
X185338943Y-94064946D01*
X185359178Y-94101109D01*
X185373311Y-94123497D01*
X185379460Y-94128845D01*
X185380827Y-94125573D01*
X185390202Y-94104664D01*
X185407062Y-94067725D01*
X185429979Y-94017874D01*
X185457520Y-93958226D01*
X185488255Y-93891898D01*
X185514970Y-93834677D01*
X185544593Y-93772688D01*
X185567664Y-93726949D01*
X185585643Y-93694908D01*
X185599990Y-93674014D01*
X185612166Y-93661718D01*
X185623632Y-93655466D01*
X185633042Y-93652574D01*
X185658147Y-93652425D01*
X185685290Y-93667768D01*
X185686590Y-93668753D01*
X185708674Y-93691388D01*
X185719723Y-93713613D01*
X185719769Y-93714253D01*
X185715228Y-93731915D01*
X185702364Y-93766481D01*
X185682605Y-93814826D01*
X185657381Y-93873825D01*
X185628119Y-93940355D01*
X185596250Y-94011291D01*
X185563201Y-94083507D01*
X185530401Y-94153880D01*
X185499280Y-94219285D01*
X185471265Y-94276597D01*
X185447786Y-94322692D01*
X185430272Y-94354446D01*
X185420151Y-94368733D01*
X185385743Y-94382102D01*
X185344046Y-94375741D01*
X185338681Y-94371044D01*
X185322852Y-94348893D01*
X185300650Y-94312132D01*
X185274233Y-94264415D01*
X185245760Y-94209393D01*
X185165986Y-94050150D01*
X185092799Y-94196742D01*
X185083103Y-94216032D01*
X185056125Y-94268380D01*
X185032096Y-94313170D01*
X185013332Y-94346154D01*
X185002146Y-94363089D01*
X185001000Y-94364332D01*
X184972879Y-94379619D01*
X184937817Y-94381302D01*
X184906776Y-94368733D01*
X184904350Y-94365884D01*
X184892090Y-94345259D01*
X184872352Y-94307708D01*
X184846448Y-94255880D01*
X184815685Y-94192423D01*
X184781375Y-94119985D01*
X184744825Y-94041216D01*
X184724585Y-93997093D01*
X184687812Y-93916365D01*
X184659355Y-93852687D01*
X184638331Y-93803752D01*
X184623854Y-93767257D01*
X184615039Y-93740895D01*
X184611004Y-93722361D01*
X184610862Y-93709352D01*
X184613730Y-93699561D01*
X184628387Y-93678678D01*
X184654990Y-93658377D01*
X184655745Y-93658035D01*
X184675335Y-93651034D01*
X184692790Y-93650504D01*
X184709702Y-93658478D01*
G37*
X194695614Y-89491792D02*
X194696059Y-89623011D01*
X194696362Y-89770216D01*
X194696548Y-89934349D01*
X194696642Y-90116352D01*
X194696671Y-90317165D01*
X194696661Y-90537732D01*
X194696636Y-90778992D01*
X194696622Y-91041889D01*
X194696622Y-91084040D01*
X194696646Y-91344668D01*
X194696685Y-91583796D01*
X194696708Y-91802360D01*
X194696687Y-92001295D01*
X194696593Y-92181535D01*
X194696395Y-92344015D01*
X194696063Y-92489670D01*
X194695569Y-92619434D01*
X194694883Y-92734243D01*
X194693976Y-92835030D01*
X194692817Y-92922730D01*
X194691378Y-92998279D01*
X194689629Y-93062611D01*
X194687540Y-93116661D01*
X194685083Y-93161363D01*
X194682227Y-93197652D01*
X194678943Y-93226463D01*
X194675202Y-93248731D01*
X194670974Y-93265390D01*
X194666229Y-93277375D01*
X194660939Y-93285621D01*
X194655073Y-93291062D01*
X194648602Y-93294634D01*
X194641497Y-93297270D01*
X194633728Y-93299906D01*
X194625266Y-93303477D01*
X194620908Y-93305145D01*
X194612395Y-93307111D01*
X194599694Y-93308911D01*
X194581885Y-93310555D01*
X194558049Y-93312047D01*
X194527266Y-93313397D01*
X194488617Y-93314611D01*
X194441182Y-93315697D01*
X194384043Y-93316661D01*
X194316279Y-93317511D01*
X194236971Y-93318253D01*
X194145199Y-93318897D01*
X194040044Y-93319447D01*
X193920587Y-93319913D01*
X193785908Y-93320300D01*
X193635088Y-93320616D01*
X193467206Y-93320869D01*
X193281345Y-93321066D01*
X193076583Y-93321213D01*
X192852002Y-93321318D01*
X192606682Y-93321389D01*
X192339704Y-93321432D01*
X192301321Y-93321437D01*
X192035922Y-93321480D01*
X191792050Y-93321525D01*
X191568783Y-93321548D01*
X191365196Y-93321524D01*
X191180367Y-93321430D01*
X191013373Y-93321243D01*
X190863290Y-93320939D01*
X190729196Y-93320494D01*
X190610166Y-93319885D01*
X190505279Y-93319089D01*
X190413610Y-93318080D01*
X190334237Y-93316837D01*
X190266237Y-93315335D01*
X190208686Y-93313551D01*
X190160662Y-93311461D01*
X190121240Y-93309042D01*
X190089499Y-93306270D01*
X190064514Y-93303121D01*
X190045364Y-93299572D01*
X190031123Y-93295598D01*
X190020871Y-93291178D01*
X190013682Y-93286286D01*
X190008635Y-93280900D01*
X190004805Y-93274996D01*
X190001271Y-93268549D01*
X189997108Y-93261537D01*
X189996025Y-93259687D01*
X189993813Y-93254180D01*
X189991786Y-93245868D01*
X189989938Y-93233809D01*
X189988261Y-93217063D01*
X189986745Y-93194687D01*
X189985383Y-93165740D01*
X189984167Y-93129280D01*
X189983089Y-93084367D01*
X189982140Y-93030057D01*
X189981312Y-92965410D01*
X189980597Y-92889484D01*
X189979987Y-92801338D01*
X189979942Y-92792493D01*
X190271378Y-92792493D01*
X190275260Y-92793765D01*
X190298520Y-92795791D01*
X190340874Y-92797626D01*
X190400132Y-92799227D01*
X190474107Y-92800549D01*
X190560610Y-92801548D01*
X190657452Y-92802180D01*
X190762445Y-92802400D01*
X191460651Y-92802400D01*
X192615090Y-92802400D01*
X192614456Y-92726200D01*
X192615574Y-92684160D01*
X192621304Y-92648334D01*
X192633890Y-92610772D01*
X192655568Y-92562577D01*
X192658789Y-92555897D01*
X192684188Y-92506359D01*
X192710996Y-92458369D01*
X192733917Y-92421466D01*
X192738485Y-92414834D01*
X192760516Y-92383593D01*
X192792693Y-92338654D01*
X192833457Y-92282147D01*
X192881245Y-92216204D01*
X192934498Y-92142957D01*
X192991655Y-92064536D01*
X193051155Y-91983072D01*
X193111437Y-91900698D01*
X193170940Y-91819544D01*
X193228105Y-91741742D01*
X193281370Y-91669423D01*
X193329174Y-91604718D01*
X193369957Y-91549759D01*
X193402158Y-91506676D01*
X193424216Y-91477602D01*
X193434571Y-91464667D01*
X193439044Y-91460351D01*
X193443236Y-91458312D01*
X193446643Y-91460926D01*
X193449325Y-91469986D01*
X193451341Y-91487285D01*
X193452748Y-91514614D01*
X193453605Y-91553765D01*
X193453970Y-91606533D01*
X193453903Y-91674707D01*
X193453460Y-91760082D01*
X193452702Y-91864449D01*
X193451685Y-91989600D01*
X193451308Y-92034300D01*
X193450169Y-92155395D01*
X193448972Y-92256688D01*
X193447636Y-92340262D01*
X193446077Y-92408204D01*
X193444215Y-92462599D01*
X193441966Y-92505532D01*
X193439248Y-92539089D01*
X193435979Y-92565355D01*
X193432078Y-92586416D01*
X193427461Y-92604357D01*
X193419192Y-92630770D01*
X193395583Y-92692772D01*
X193369685Y-92745573D01*
X193344535Y-92782645D01*
X193343339Y-92784075D01*
X193341168Y-92788424D01*
X193343328Y-92792026D01*
X193351644Y-92794951D01*
X193367940Y-92797269D01*
X193394041Y-92799051D01*
X193431771Y-92800367D01*
X193482956Y-92801286D01*
X193549420Y-92801878D01*
X193632987Y-92802215D01*
X193735483Y-92802365D01*
X193858732Y-92802400D01*
X194390296Y-92802400D01*
X194351523Y-92744783D01*
X194345432Y-92735893D01*
X194334976Y-92721069D01*
X194325579Y-92707422D01*
X194317183Y-92693765D01*
X194309733Y-92678911D01*
X194303173Y-92661670D01*
X194297446Y-92640855D01*
X194292495Y-92615280D01*
X194288266Y-92583755D01*
X194284701Y-92545093D01*
X194281744Y-92498107D01*
X194279340Y-92441608D01*
X194277431Y-92374409D01*
X194275962Y-92295322D01*
X194274876Y-92203160D01*
X194274118Y-92096734D01*
X194273630Y-91974857D01*
X194273358Y-91836341D01*
X194273243Y-91679999D01*
X194273231Y-91504642D01*
X194273265Y-91309082D01*
X194273289Y-91092133D01*
X194273280Y-90969513D01*
X194273243Y-90764447D01*
X194273227Y-90580116D01*
X194273288Y-90415334D01*
X194273484Y-90268916D01*
X194273870Y-90139674D01*
X194274505Y-90026422D01*
X194275444Y-89927975D01*
X194276745Y-89843144D01*
X194278464Y-89770744D01*
X194280659Y-89709589D01*
X194283385Y-89658492D01*
X194286701Y-89616267D01*
X194290662Y-89581727D01*
X194295325Y-89553686D01*
X194300747Y-89530958D01*
X194306986Y-89512356D01*
X194314097Y-89496693D01*
X194322138Y-89482784D01*
X194331166Y-89469441D01*
X194341236Y-89455479D01*
X194352407Y-89439711D01*
X194392197Y-89381867D01*
X193332314Y-89381867D01*
X193370311Y-89444966D01*
X193384993Y-89470005D01*
X193399531Y-89497586D01*
X193411627Y-89525700D01*
X193421532Y-89556551D01*
X193429494Y-89592344D01*
X193435761Y-89635283D01*
X193440582Y-89687574D01*
X193444206Y-89751419D01*
X193446881Y-89829025D01*
X193448857Y-89922594D01*
X193450382Y-90034333D01*
X193451704Y-90166445D01*
X193452613Y-90286434D01*
X193453020Y-90403063D01*
X193452767Y-90498531D01*
X193451857Y-90572556D01*
X193450293Y-90624855D01*
X193448079Y-90655149D01*
X193445220Y-90663156D01*
X193442161Y-90659858D01*
X193424006Y-90638408D01*
X193394275Y-90601889D01*
X193354639Y-90552442D01*
X193306771Y-90492207D01*
X193252343Y-90423327D01*
X193193027Y-90347943D01*
X193130495Y-90268196D01*
X193066421Y-90186228D01*
X193002475Y-90104180D01*
X192940331Y-90024194D01*
X192881661Y-89948411D01*
X192828137Y-89878973D01*
X192781430Y-89818021D01*
X192743214Y-89767696D01*
X192715161Y-89730140D01*
X192698943Y-89707495D01*
X192653635Y-89635212D01*
X192613661Y-89555463D01*
X192592130Y-89487188D01*
X192588827Y-89429844D01*
X192594116Y-89381867D01*
X191462356Y-89382117D01*
X191501867Y-89412722D01*
X191511248Y-89420089D01*
X191574183Y-89474438D01*
X191642997Y-89542259D01*
X191719596Y-89625516D01*
X191805888Y-89726178D01*
X191823052Y-89746847D01*
X191863833Y-89796409D01*
X191913588Y-89857326D01*
X191970955Y-89927898D01*
X192034569Y-90006424D01*
X192103069Y-90091204D01*
X192175090Y-90180537D01*
X192249270Y-90272722D01*
X192264517Y-90291702D01*
X192324246Y-90366060D01*
X192398653Y-90458848D01*
X192471131Y-90549388D01*
X192540314Y-90635978D01*
X192604841Y-90716918D01*
X192663347Y-90790506D01*
X192714470Y-90855044D01*
X192756847Y-90908829D01*
X192789115Y-90950162D01*
X192809910Y-90977342D01*
X192817869Y-90988668D01*
X192816111Y-90992771D01*
X192803230Y-91013334D01*
X192778885Y-91049561D01*
X192744247Y-91099824D01*
X192700486Y-91162492D01*
X192648775Y-91235936D01*
X192590284Y-91318527D01*
X192526184Y-91408636D01*
X192457646Y-91504631D01*
X192385843Y-91604885D01*
X192311944Y-91707768D01*
X192237121Y-91811650D01*
X192162545Y-91914901D01*
X192089387Y-92015892D01*
X192018819Y-92112994D01*
X191952011Y-92204577D01*
X191890135Y-92289011D01*
X191834361Y-92364667D01*
X191785862Y-92429916D01*
X191745807Y-92483128D01*
X191715369Y-92522673D01*
X191694944Y-92548026D01*
X191648899Y-92602295D01*
X191598612Y-92658775D01*
X191551815Y-92708669D01*
X191460651Y-92802400D01*
X190762445Y-92802400D01*
X190831356Y-92802349D01*
X190929607Y-92802091D01*
X191019030Y-92801637D01*
X191097333Y-92801010D01*
X191162223Y-92800235D01*
X191211411Y-92799335D01*
X191242604Y-92798334D01*
X191253511Y-92797257D01*
X191252322Y-92794037D01*
X191242176Y-92776452D01*
X191225040Y-92750158D01*
X191216540Y-92737691D01*
X191207329Y-92723622D01*
X191199233Y-92709351D01*
X191192185Y-92693479D01*
X191186117Y-92674609D01*
X191180961Y-92651341D01*
X191176651Y-92622278D01*
X191173119Y-92586021D01*
X191170297Y-92541170D01*
X191168118Y-92486328D01*
X191166514Y-92420097D01*
X191165419Y-92341077D01*
X191164765Y-92247871D01*
X191164484Y-92139079D01*
X191164509Y-92013303D01*
X191164772Y-91869145D01*
X191165206Y-91705207D01*
X191165745Y-91520089D01*
X191166279Y-91341232D01*
X191166805Y-91182374D01*
X191167350Y-91043316D01*
X191167945Y-90922665D01*
X191168619Y-90819028D01*
X191169403Y-90731011D01*
X191170326Y-90657223D01*
X191171419Y-90596269D01*
X191172712Y-90546757D01*
X191174235Y-90507293D01*
X191176019Y-90476484D01*
X191178092Y-90452938D01*
X191180486Y-90435260D01*
X191183230Y-90422059D01*
X191186356Y-90411940D01*
X191189892Y-90403511D01*
X191193791Y-90395375D01*
X191213438Y-90358544D01*
X191232225Y-90328391D01*
X191233272Y-90326908D01*
X191247602Y-90304659D01*
X191253511Y-90291702D01*
X191252504Y-90291249D01*
X191235305Y-90289803D01*
X191198656Y-90288480D01*
X191144962Y-90287316D01*
X191076630Y-90286347D01*
X190996064Y-90285611D01*
X190905670Y-90285142D01*
X190807853Y-90284978D01*
X190362195Y-90284978D01*
X190359120Y-91461845D01*
X190356045Y-92638711D01*
X190329407Y-92697622D01*
X190317485Y-92722183D01*
X190300246Y-92752434D01*
X190287074Y-92769560D01*
X190279076Y-92777591D01*
X190271378Y-92792493D01*
X189979942Y-92792493D01*
X189979474Y-92700029D01*
X189979050Y-92584617D01*
X189978706Y-92454160D01*
X189978434Y-92307716D01*
X189978227Y-92144344D01*
X189978076Y-91963101D01*
X189977972Y-91763048D01*
X189977908Y-91543241D01*
X189977876Y-91302739D01*
X189977867Y-91040602D01*
X189977867Y-88849031D01*
X190016249Y-88810649D01*
X190043355Y-88786911D01*
X190070253Y-88775111D01*
X190106560Y-88772267D01*
X190158489Y-88772267D01*
X190158489Y-88860206D01*
X190160427Y-88910102D01*
X190179199Y-89020523D01*
X190216217Y-89121987D01*
X190269369Y-89213152D01*
X190336546Y-89292673D01*
X190415638Y-89359205D01*
X190504534Y-89411406D01*
X190601125Y-89447930D01*
X190703300Y-89467434D01*
X190808950Y-89468573D01*
X190915964Y-89450005D01*
X191022232Y-89410384D01*
X191119219Y-89352516D01*
X191204293Y-89277684D01*
X191273015Y-89189615D01*
X191323918Y-89090616D01*
X191355535Y-88982993D01*
X191366400Y-88869054D01*
X191366400Y-88772267D01*
X192986753Y-88772267D01*
X193197897Y-88772280D01*
X193402020Y-88772330D01*
X193585686Y-88772430D01*
X193749991Y-88772592D01*
X193896029Y-88772829D01*
X194024894Y-88773153D01*
X194137683Y-88773575D01*
X194235488Y-88774109D01*
X194319404Y-88774767D01*
X194390527Y-88775561D01*
X194449950Y-88776504D01*
X194498768Y-88777608D01*
X194538077Y-88778884D01*
X194568969Y-88780347D01*
X194592541Y-88782007D01*
X194609886Y-88783878D01*
X194622099Y-88785972D01*
X194630275Y-88788300D01*
X194635508Y-88790876D01*
X194641504Y-88794445D01*
X194648279Y-88797978D01*
X194654478Y-88801488D01*
X194660126Y-88805918D01*
X194665247Y-88812208D01*
X194669869Y-88821301D01*
X194674015Y-88834139D01*
X194677713Y-88851662D01*
X194680987Y-88874813D01*
X194683863Y-88904534D01*
X194686367Y-88941765D01*
X194688524Y-88987449D01*
X194690360Y-89042527D01*
X194691900Y-89107941D01*
X194693170Y-89184633D01*
X194694195Y-89273544D01*
X194695001Y-89375617D01*
X194695034Y-89381867D01*
X194695614Y-89491792D01*
G36*
X194695614Y-89491792D02*
G01*
X194696059Y-89623011D01*
X194696362Y-89770216D01*
X194696548Y-89934349D01*
X194696642Y-90116352D01*
X194696671Y-90317165D01*
X194696661Y-90537732D01*
X194696636Y-90778992D01*
X194696622Y-91041889D01*
X194696622Y-91084040D01*
X194696646Y-91344668D01*
X194696685Y-91583796D01*
X194696708Y-91802360D01*
X194696687Y-92001295D01*
X194696593Y-92181535D01*
X194696395Y-92344015D01*
X194696063Y-92489670D01*
X194695569Y-92619434D01*
X194694883Y-92734243D01*
X194693976Y-92835030D01*
X194692817Y-92922730D01*
X194691378Y-92998279D01*
X194689629Y-93062611D01*
X194687540Y-93116661D01*
X194685083Y-93161363D01*
X194682227Y-93197652D01*
X194678943Y-93226463D01*
X194675202Y-93248731D01*
X194670974Y-93265390D01*
X194666229Y-93277375D01*
X194660939Y-93285621D01*
X194655073Y-93291062D01*
X194648602Y-93294634D01*
X194641497Y-93297270D01*
X194633728Y-93299906D01*
X194625266Y-93303477D01*
X194620908Y-93305145D01*
X194612395Y-93307111D01*
X194599694Y-93308911D01*
X194581885Y-93310555D01*
X194558049Y-93312047D01*
X194527266Y-93313397D01*
X194488617Y-93314611D01*
X194441182Y-93315697D01*
X194384043Y-93316661D01*
X194316279Y-93317511D01*
X194236971Y-93318253D01*
X194145199Y-93318897D01*
X194040044Y-93319447D01*
X193920587Y-93319913D01*
X193785908Y-93320300D01*
X193635088Y-93320616D01*
X193467206Y-93320869D01*
X193281345Y-93321066D01*
X193076583Y-93321213D01*
X192852002Y-93321318D01*
X192606682Y-93321389D01*
X192339704Y-93321432D01*
X192301321Y-93321437D01*
X192035922Y-93321480D01*
X191792050Y-93321525D01*
X191568783Y-93321548D01*
X191365196Y-93321524D01*
X191180367Y-93321430D01*
X191013373Y-93321243D01*
X190863290Y-93320939D01*
X190729196Y-93320494D01*
X190610166Y-93319885D01*
X190505279Y-93319089D01*
X190413610Y-93318080D01*
X190334237Y-93316837D01*
X190266237Y-93315335D01*
X190208686Y-93313551D01*
X190160662Y-93311461D01*
X190121240Y-93309042D01*
X190089499Y-93306270D01*
X190064514Y-93303121D01*
X190045364Y-93299572D01*
X190031123Y-93295598D01*
X190020871Y-93291178D01*
X190013682Y-93286286D01*
X190008635Y-93280900D01*
X190004805Y-93274996D01*
X190001271Y-93268549D01*
X189997108Y-93261537D01*
X189996025Y-93259687D01*
X189993813Y-93254180D01*
X189991786Y-93245868D01*
X189989938Y-93233809D01*
X189988261Y-93217063D01*
X189986745Y-93194687D01*
X189985383Y-93165740D01*
X189984167Y-93129280D01*
X189983089Y-93084367D01*
X189982140Y-93030057D01*
X189981312Y-92965410D01*
X189980597Y-92889484D01*
X189979987Y-92801338D01*
X189979942Y-92792493D01*
X190271378Y-92792493D01*
X190275260Y-92793765D01*
X190298520Y-92795791D01*
X190340874Y-92797626D01*
X190400132Y-92799227D01*
X190474107Y-92800549D01*
X190560610Y-92801548D01*
X190657452Y-92802180D01*
X190762445Y-92802400D01*
X191460651Y-92802400D01*
X192615090Y-92802400D01*
X192614456Y-92726200D01*
X192615574Y-92684160D01*
X192621304Y-92648334D01*
X192633890Y-92610772D01*
X192655568Y-92562577D01*
X192658789Y-92555897D01*
X192684188Y-92506359D01*
X192710996Y-92458369D01*
X192733917Y-92421466D01*
X192738485Y-92414834D01*
X192760516Y-92383593D01*
X192792693Y-92338654D01*
X192833457Y-92282147D01*
X192881245Y-92216204D01*
X192934498Y-92142957D01*
X192991655Y-92064536D01*
X193051155Y-91983072D01*
X193111437Y-91900698D01*
X193170940Y-91819544D01*
X193228105Y-91741742D01*
X193281370Y-91669423D01*
X193329174Y-91604718D01*
X193369957Y-91549759D01*
X193402158Y-91506676D01*
X193424216Y-91477602D01*
X193434571Y-91464667D01*
X193439044Y-91460351D01*
X193443236Y-91458312D01*
X193446643Y-91460926D01*
X193449325Y-91469986D01*
X193451341Y-91487285D01*
X193452748Y-91514614D01*
X193453605Y-91553765D01*
X193453970Y-91606533D01*
X193453903Y-91674707D01*
X193453460Y-91760082D01*
X193452702Y-91864449D01*
X193451685Y-91989600D01*
X193451308Y-92034300D01*
X193450169Y-92155395D01*
X193448972Y-92256688D01*
X193447636Y-92340262D01*
X193446077Y-92408204D01*
X193444215Y-92462599D01*
X193441966Y-92505532D01*
X193439248Y-92539089D01*
X193435979Y-92565355D01*
X193432078Y-92586416D01*
X193427461Y-92604357D01*
X193419192Y-92630770D01*
X193395583Y-92692772D01*
X193369685Y-92745573D01*
X193344535Y-92782645D01*
X193343339Y-92784075D01*
X193341168Y-92788424D01*
X193343328Y-92792026D01*
X193351644Y-92794951D01*
X193367940Y-92797269D01*
X193394041Y-92799051D01*
X193431771Y-92800367D01*
X193482956Y-92801286D01*
X193549420Y-92801878D01*
X193632987Y-92802215D01*
X193735483Y-92802365D01*
X193858732Y-92802400D01*
X194390296Y-92802400D01*
X194351523Y-92744783D01*
X194345432Y-92735893D01*
X194334976Y-92721069D01*
X194325579Y-92707422D01*
X194317183Y-92693765D01*
X194309733Y-92678911D01*
X194303173Y-92661670D01*
X194297446Y-92640855D01*
X194292495Y-92615280D01*
X194288266Y-92583755D01*
X194284701Y-92545093D01*
X194281744Y-92498107D01*
X194279340Y-92441608D01*
X194277431Y-92374409D01*
X194275962Y-92295322D01*
X194274876Y-92203160D01*
X194274118Y-92096734D01*
X194273630Y-91974857D01*
X194273358Y-91836341D01*
X194273243Y-91679999D01*
X194273231Y-91504642D01*
X194273265Y-91309082D01*
X194273289Y-91092133D01*
X194273280Y-90969513D01*
X194273243Y-90764447D01*
X194273227Y-90580116D01*
X194273288Y-90415334D01*
X194273484Y-90268916D01*
X194273870Y-90139674D01*
X194274505Y-90026422D01*
X194275444Y-89927975D01*
X194276745Y-89843144D01*
X194278464Y-89770744D01*
X194280659Y-89709589D01*
X194283385Y-89658492D01*
X194286701Y-89616267D01*
X194290662Y-89581727D01*
X194295325Y-89553686D01*
X194300747Y-89530958D01*
X194306986Y-89512356D01*
X194314097Y-89496693D01*
X194322138Y-89482784D01*
X194331166Y-89469441D01*
X194341236Y-89455479D01*
X194352407Y-89439711D01*
X194392197Y-89381867D01*
X193332314Y-89381867D01*
X193370311Y-89444966D01*
X193384993Y-89470005D01*
X193399531Y-89497586D01*
X193411627Y-89525700D01*
X193421532Y-89556551D01*
X193429494Y-89592344D01*
X193435761Y-89635283D01*
X193440582Y-89687574D01*
X193444206Y-89751419D01*
X193446881Y-89829025D01*
X193448857Y-89922594D01*
X193450382Y-90034333D01*
X193451704Y-90166445D01*
X193452613Y-90286434D01*
X193453020Y-90403063D01*
X193452767Y-90498531D01*
X193451857Y-90572556D01*
X193450293Y-90624855D01*
X193448079Y-90655149D01*
X193445220Y-90663156D01*
X193442161Y-90659858D01*
X193424006Y-90638408D01*
X193394275Y-90601889D01*
X193354639Y-90552442D01*
X193306771Y-90492207D01*
X193252343Y-90423327D01*
X193193027Y-90347943D01*
X193130495Y-90268196D01*
X193066421Y-90186228D01*
X193002475Y-90104180D01*
X192940331Y-90024194D01*
X192881661Y-89948411D01*
X192828137Y-89878973D01*
X192781430Y-89818021D01*
X192743214Y-89767696D01*
X192715161Y-89730140D01*
X192698943Y-89707495D01*
X192653635Y-89635212D01*
X192613661Y-89555463D01*
X192592130Y-89487188D01*
X192588827Y-89429844D01*
X192594116Y-89381867D01*
X191462356Y-89382117D01*
X191501867Y-89412722D01*
X191511248Y-89420089D01*
X191574183Y-89474438D01*
X191642997Y-89542259D01*
X191719596Y-89625516D01*
X191805888Y-89726178D01*
X191823052Y-89746847D01*
X191863833Y-89796409D01*
X191913588Y-89857326D01*
X191970955Y-89927898D01*
X192034569Y-90006424D01*
X192103069Y-90091204D01*
X192175090Y-90180537D01*
X192249270Y-90272722D01*
X192264517Y-90291702D01*
X192324246Y-90366060D01*
X192398653Y-90458848D01*
X192471131Y-90549388D01*
X192540314Y-90635978D01*
X192604841Y-90716918D01*
X192663347Y-90790506D01*
X192714470Y-90855044D01*
X192756847Y-90908829D01*
X192789115Y-90950162D01*
X192809910Y-90977342D01*
X192817869Y-90988668D01*
X192816111Y-90992771D01*
X192803230Y-91013334D01*
X192778885Y-91049561D01*
X192744247Y-91099824D01*
X192700486Y-91162492D01*
X192648775Y-91235936D01*
X192590284Y-91318527D01*
X192526184Y-91408636D01*
X192457646Y-91504631D01*
X192385843Y-91604885D01*
X192311944Y-91707768D01*
X192237121Y-91811650D01*
X192162545Y-91914901D01*
X192089387Y-92015892D01*
X192018819Y-92112994D01*
X191952011Y-92204577D01*
X191890135Y-92289011D01*
X191834361Y-92364667D01*
X191785862Y-92429916D01*
X191745807Y-92483128D01*
X191715369Y-92522673D01*
X191694944Y-92548026D01*
X191648899Y-92602295D01*
X191598612Y-92658775D01*
X191551815Y-92708669D01*
X191460651Y-92802400D01*
X190762445Y-92802400D01*
X190831356Y-92802349D01*
X190929607Y-92802091D01*
X191019030Y-92801637D01*
X191097333Y-92801010D01*
X191162223Y-92800235D01*
X191211411Y-92799335D01*
X191242604Y-92798334D01*
X191253511Y-92797257D01*
X191252322Y-92794037D01*
X191242176Y-92776452D01*
X191225040Y-92750158D01*
X191216540Y-92737691D01*
X191207329Y-92723622D01*
X191199233Y-92709351D01*
X191192185Y-92693479D01*
X191186117Y-92674609D01*
X191180961Y-92651341D01*
X191176651Y-92622278D01*
X191173119Y-92586021D01*
X191170297Y-92541170D01*
X191168118Y-92486328D01*
X191166514Y-92420097D01*
X191165419Y-92341077D01*
X191164765Y-92247871D01*
X191164484Y-92139079D01*
X191164509Y-92013303D01*
X191164772Y-91869145D01*
X191165206Y-91705207D01*
X191165745Y-91520089D01*
X191166279Y-91341232D01*
X191166805Y-91182374D01*
X191167350Y-91043316D01*
X191167945Y-90922665D01*
X191168619Y-90819028D01*
X191169403Y-90731011D01*
X191170326Y-90657223D01*
X191171419Y-90596269D01*
X191172712Y-90546757D01*
X191174235Y-90507293D01*
X191176019Y-90476484D01*
X191178092Y-90452938D01*
X191180486Y-90435260D01*
X191183230Y-90422059D01*
X191186356Y-90411940D01*
X191189892Y-90403511D01*
X191193791Y-90395375D01*
X191213438Y-90358544D01*
X191232225Y-90328391D01*
X191233272Y-90326908D01*
X191247602Y-90304659D01*
X191253511Y-90291702D01*
X191252504Y-90291249D01*
X191235305Y-90289803D01*
X191198656Y-90288480D01*
X191144962Y-90287316D01*
X191076630Y-90286347D01*
X190996064Y-90285611D01*
X190905670Y-90285142D01*
X190807853Y-90284978D01*
X190362195Y-90284978D01*
X190359120Y-91461845D01*
X190356045Y-92638711D01*
X190329407Y-92697622D01*
X190317485Y-92722183D01*
X190300246Y-92752434D01*
X190287074Y-92769560D01*
X190279076Y-92777591D01*
X190271378Y-92792493D01*
X189979942Y-92792493D01*
X189979474Y-92700029D01*
X189979050Y-92584617D01*
X189978706Y-92454160D01*
X189978434Y-92307716D01*
X189978227Y-92144344D01*
X189978076Y-91963101D01*
X189977972Y-91763048D01*
X189977908Y-91543241D01*
X189977876Y-91302739D01*
X189977867Y-91040602D01*
X189977867Y-88849031D01*
X190016249Y-88810649D01*
X190043355Y-88786911D01*
X190070253Y-88775111D01*
X190106560Y-88772267D01*
X190158489Y-88772267D01*
X190158489Y-88860206D01*
X190160427Y-88910102D01*
X190179199Y-89020523D01*
X190216217Y-89121987D01*
X190269369Y-89213152D01*
X190336546Y-89292673D01*
X190415638Y-89359205D01*
X190504534Y-89411406D01*
X190601125Y-89447930D01*
X190703300Y-89467434D01*
X190808950Y-89468573D01*
X190915964Y-89450005D01*
X191022232Y-89410384D01*
X191119219Y-89352516D01*
X191204293Y-89277684D01*
X191273015Y-89189615D01*
X191323918Y-89090616D01*
X191355535Y-88982993D01*
X191366400Y-88869054D01*
X191366400Y-88772267D01*
X192986753Y-88772267D01*
X193197897Y-88772280D01*
X193402020Y-88772330D01*
X193585686Y-88772430D01*
X193749991Y-88772592D01*
X193896029Y-88772829D01*
X194024894Y-88773153D01*
X194137683Y-88773575D01*
X194235488Y-88774109D01*
X194319404Y-88774767D01*
X194390527Y-88775561D01*
X194449950Y-88776504D01*
X194498768Y-88777608D01*
X194538077Y-88778884D01*
X194568969Y-88780347D01*
X194592541Y-88782007D01*
X194609886Y-88783878D01*
X194622099Y-88785972D01*
X194630275Y-88788300D01*
X194635508Y-88790876D01*
X194641504Y-88794445D01*
X194648279Y-88797978D01*
X194654478Y-88801488D01*
X194660126Y-88805918D01*
X194665247Y-88812208D01*
X194669869Y-88821301D01*
X194674015Y-88834139D01*
X194677713Y-88851662D01*
X194680987Y-88874813D01*
X194683863Y-88904534D01*
X194686367Y-88941765D01*
X194688524Y-88987449D01*
X194690360Y-89042527D01*
X194691900Y-89107941D01*
X194693170Y-89184633D01*
X194694195Y-89273544D01*
X194695001Y-89375617D01*
X194695034Y-89381867D01*
X194695614Y-89491792D01*
G37*
X190874562Y-88412850D02*
X190957313Y-88440053D01*
X191032406Y-88485484D01*
X191104298Y-88551302D01*
X191142846Y-88595567D01*
X191182256Y-88653961D01*
X191207446Y-88714586D01*
X191220861Y-88783865D01*
X191224948Y-88868222D01*
X191224669Y-88914307D01*
X191222460Y-88955450D01*
X191216894Y-88987582D01*
X191206586Y-89018122D01*
X191190148Y-89054489D01*
X191176200Y-89081728D01*
X191117665Y-89167429D01*
X191045619Y-89236617D01*
X190961947Y-89287741D01*
X190868531Y-89319250D01*
X190835434Y-89326225D01*
X190794960Y-89333094D01*
X190761999Y-89334919D01*
X190727698Y-89331947D01*
X190683200Y-89324426D01*
X190631934Y-89312002D01*
X190541434Y-89274112D01*
X190462345Y-89219836D01*
X190396528Y-89151770D01*
X190345840Y-89072511D01*
X190312140Y-88984654D01*
X190297286Y-88890795D01*
X190303136Y-88793530D01*
X190329399Y-88697220D01*
X190374418Y-88608494D01*
X190435373Y-88533419D01*
X190510184Y-88473641D01*
X190596768Y-88430809D01*
X190693043Y-88406571D01*
X190796928Y-88402576D01*
X190874562Y-88412850D01*
G36*
X190874562Y-88412850D02*
G01*
X190957313Y-88440053D01*
X191032406Y-88485484D01*
X191104298Y-88551302D01*
X191142846Y-88595567D01*
X191182256Y-88653961D01*
X191207446Y-88714586D01*
X191220861Y-88783865D01*
X191224948Y-88868222D01*
X191224669Y-88914307D01*
X191222460Y-88955450D01*
X191216894Y-88987582D01*
X191206586Y-89018122D01*
X191190148Y-89054489D01*
X191176200Y-89081728D01*
X191117665Y-89167429D01*
X191045619Y-89236617D01*
X190961947Y-89287741D01*
X190868531Y-89319250D01*
X190835434Y-89326225D01*
X190794960Y-89333094D01*
X190761999Y-89334919D01*
X190727698Y-89331947D01*
X190683200Y-89324426D01*
X190631934Y-89312002D01*
X190541434Y-89274112D01*
X190462345Y-89219836D01*
X190396528Y-89151770D01*
X190345840Y-89072511D01*
X190312140Y-88984654D01*
X190297286Y-88890795D01*
X190303136Y-88793530D01*
X190329399Y-88697220D01*
X190374418Y-88608494D01*
X190435373Y-88533419D01*
X190510184Y-88473641D01*
X190596768Y-88430809D01*
X190693043Y-88406571D01*
X190796928Y-88402576D01*
X190874562Y-88412850D01*
G37*
X189751893Y-93647892D02*
X189763301Y-93654029D01*
X189773850Y-93664691D01*
X189785136Y-93678811D01*
X189789589Y-93684772D01*
X189795588Y-93695268D01*
X189800167Y-93709093D01*
X189803519Y-93728998D01*
X189805833Y-93757732D01*
X189807301Y-93798045D01*
X189808113Y-93852687D01*
X189808460Y-93924407D01*
X189808534Y-94015956D01*
X189808511Y-94074486D01*
X189808292Y-94153573D01*
X189807683Y-94214516D01*
X189806492Y-94260062D01*
X189804529Y-94292963D01*
X189801603Y-94315968D01*
X189797523Y-94331826D01*
X189792097Y-94343286D01*
X189785136Y-94353100D01*
X189754708Y-94377493D01*
X189719765Y-94380372D01*
X189682784Y-94361282D01*
X189678600Y-94357807D01*
X189670424Y-94349279D01*
X189664364Y-94337728D01*
X189659981Y-94319896D01*
X189656839Y-94292524D01*
X189654502Y-94252354D01*
X189652531Y-94196128D01*
X189650489Y-94120589D01*
X189644845Y-93901458D01*
X189379556Y-94142099D01*
X189305722Y-94208875D01*
X189240542Y-94266991D01*
X189188348Y-94311949D01*
X189147273Y-94344871D01*
X189115455Y-94366879D01*
X189091026Y-94379094D01*
X189072124Y-94382639D01*
X189056883Y-94378636D01*
X189043439Y-94368207D01*
X189029927Y-94352474D01*
X189023682Y-94343991D01*
X189018050Y-94333413D01*
X189013839Y-94319255D01*
X189010887Y-94298803D01*
X189009032Y-94269342D01*
X189008113Y-94228161D01*
X189007968Y-94172544D01*
X189008435Y-94099779D01*
X189009352Y-94007151D01*
X189012667Y-93692199D01*
X189039318Y-93670633D01*
X189065383Y-93654441D01*
X189098241Y-93651670D01*
X189132772Y-93670623D01*
X189137084Y-93674208D01*
X189145216Y-93682737D01*
X189151245Y-93694329D01*
X189155606Y-93712235D01*
X189158734Y-93739706D01*
X189161063Y-93779994D01*
X189163029Y-93836351D01*
X189165067Y-93912029D01*
X189170711Y-94131878D01*
X189351334Y-93968084D01*
X189438072Y-93889451D01*
X189513843Y-93821058D01*
X189575980Y-93765708D01*
X189626078Y-93722338D01*
X189665735Y-93689881D01*
X189696548Y-93667273D01*
X189720114Y-93653448D01*
X189738030Y-93647343D01*
X189751893Y-93647892D01*
G36*
X189751893Y-93647892D02*
G01*
X189763301Y-93654029D01*
X189773850Y-93664691D01*
X189785136Y-93678811D01*
X189789589Y-93684772D01*
X189795588Y-93695268D01*
X189800167Y-93709093D01*
X189803519Y-93728998D01*
X189805833Y-93757732D01*
X189807301Y-93798045D01*
X189808113Y-93852687D01*
X189808460Y-93924407D01*
X189808534Y-94015956D01*
X189808511Y-94074486D01*
X189808292Y-94153573D01*
X189807683Y-94214516D01*
X189806492Y-94260062D01*
X189804529Y-94292963D01*
X189801603Y-94315968D01*
X189797523Y-94331826D01*
X189792097Y-94343286D01*
X189785136Y-94353100D01*
X189754708Y-94377493D01*
X189719765Y-94380372D01*
X189682784Y-94361282D01*
X189678600Y-94357807D01*
X189670424Y-94349279D01*
X189664364Y-94337728D01*
X189659981Y-94319896D01*
X189656839Y-94292524D01*
X189654502Y-94252354D01*
X189652531Y-94196128D01*
X189650489Y-94120589D01*
X189644845Y-93901458D01*
X189379556Y-94142099D01*
X189305722Y-94208875D01*
X189240542Y-94266991D01*
X189188348Y-94311949D01*
X189147273Y-94344871D01*
X189115455Y-94366879D01*
X189091026Y-94379094D01*
X189072124Y-94382639D01*
X189056883Y-94378636D01*
X189043439Y-94368207D01*
X189029927Y-94352474D01*
X189023682Y-94343991D01*
X189018050Y-94333413D01*
X189013839Y-94319255D01*
X189010887Y-94298803D01*
X189009032Y-94269342D01*
X189008113Y-94228161D01*
X189007968Y-94172544D01*
X189008435Y-94099779D01*
X189009352Y-94007151D01*
X189012667Y-93692199D01*
X189039318Y-93670633D01*
X189065383Y-93654441D01*
X189098241Y-93651670D01*
X189132772Y-93670623D01*
X189137084Y-93674208D01*
X189145216Y-93682737D01*
X189151245Y-93694329D01*
X189155606Y-93712235D01*
X189158734Y-93739706D01*
X189161063Y-93779994D01*
X189163029Y-93836351D01*
X189165067Y-93912029D01*
X189170711Y-94131878D01*
X189351334Y-93968084D01*
X189438072Y-93889451D01*
X189513843Y-93821058D01*
X189575980Y-93765708D01*
X189626078Y-93722338D01*
X189665735Y-93689881D01*
X189696548Y-93667273D01*
X189720114Y-93653448D01*
X189738030Y-93647343D01*
X189751893Y-93647892D01*
G37*
X193276734Y-93649083D02*
X193353831Y-93649275D01*
X193412777Y-93649860D01*
X193456364Y-93651051D01*
X193487383Y-93653064D01*
X193508625Y-93656112D01*
X193522882Y-93660409D01*
X193532945Y-93666172D01*
X193541606Y-93673612D01*
X193543391Y-93675293D01*
X193550635Y-93682832D01*
X193556277Y-93691850D01*
X193560517Y-93704984D01*
X193563556Y-93724872D01*
X193565594Y-93754151D01*
X193566830Y-93795458D01*
X193567465Y-93851431D01*
X193567700Y-93924707D01*
X193567734Y-94017923D01*
X193567697Y-94090713D01*
X193567448Y-94168889D01*
X193566812Y-94229103D01*
X193565615Y-94273982D01*
X193563684Y-94306152D01*
X193560846Y-94328239D01*
X193556927Y-94342870D01*
X193551755Y-94352670D01*
X193545156Y-94360267D01*
X193541822Y-94363444D01*
X193533300Y-94369554D01*
X193521298Y-94374229D01*
X193503087Y-94377659D01*
X193475940Y-94380036D01*
X193437129Y-94381552D01*
X193383924Y-94382398D01*
X193313598Y-94382765D01*
X193223422Y-94382845D01*
X193181314Y-94382833D01*
X193100167Y-94382651D01*
X193037675Y-94382098D01*
X192991109Y-94380982D01*
X192957741Y-94379113D01*
X192934844Y-94376298D01*
X192919688Y-94372346D01*
X192909546Y-94367066D01*
X192901689Y-94360267D01*
X192886963Y-94338667D01*
X192879111Y-94309467D01*
X192884610Y-94285560D01*
X192901689Y-94258667D01*
X192906668Y-94254059D01*
X192916443Y-94247772D01*
X192930559Y-94243146D01*
X192952054Y-94239930D01*
X192983968Y-94237870D01*
X193029342Y-94236712D01*
X193091213Y-94236202D01*
X193172622Y-94236089D01*
X193420978Y-94236089D01*
X193420978Y-94078045D01*
X193259801Y-94078045D01*
X193223983Y-94077899D01*
X193158359Y-94076176D01*
X193111118Y-94071741D01*
X193079383Y-94063637D01*
X193060277Y-94050906D01*
X193050923Y-94032592D01*
X193048445Y-94007738D01*
X193049242Y-93987482D01*
X193054494Y-93965656D01*
X193067288Y-93950304D01*
X193090628Y-93940309D01*
X193127517Y-93934553D01*
X193180959Y-93931919D01*
X193253958Y-93931289D01*
X193422105Y-93931289D01*
X193418719Y-93866378D01*
X193415334Y-93801467D01*
X193167617Y-93798418D01*
X193105026Y-93797539D01*
X193036565Y-93796095D01*
X192985661Y-93794164D01*
X192949408Y-93791514D01*
X192924901Y-93787910D01*
X192909235Y-93783121D01*
X192899506Y-93776913D01*
X192893491Y-93770510D01*
X192880482Y-93738828D01*
X192884043Y-93703142D01*
X192903818Y-93672084D01*
X192907069Y-93669161D01*
X192916049Y-93662810D01*
X192928153Y-93657957D01*
X192946159Y-93654403D01*
X192972847Y-93651946D01*
X193010997Y-93650385D01*
X193063386Y-93649518D01*
X193132794Y-93649146D01*
X193222001Y-93649067D01*
X193276734Y-93649083D01*
G36*
X193276734Y-93649083D02*
G01*
X193353831Y-93649275D01*
X193412777Y-93649860D01*
X193456364Y-93651051D01*
X193487383Y-93653064D01*
X193508625Y-93656112D01*
X193522882Y-93660409D01*
X193532945Y-93666172D01*
X193541606Y-93673612D01*
X193543391Y-93675293D01*
X193550635Y-93682832D01*
X193556277Y-93691850D01*
X193560517Y-93704984D01*
X193563556Y-93724872D01*
X193565594Y-93754151D01*
X193566830Y-93795458D01*
X193567465Y-93851431D01*
X193567700Y-93924707D01*
X193567734Y-94017923D01*
X193567697Y-94090713D01*
X193567448Y-94168889D01*
X193566812Y-94229103D01*
X193565615Y-94273982D01*
X193563684Y-94306152D01*
X193560846Y-94328239D01*
X193556927Y-94342870D01*
X193551755Y-94352670D01*
X193545156Y-94360267D01*
X193541822Y-94363444D01*
X193533300Y-94369554D01*
X193521298Y-94374229D01*
X193503087Y-94377659D01*
X193475940Y-94380036D01*
X193437129Y-94381552D01*
X193383924Y-94382398D01*
X193313598Y-94382765D01*
X193223422Y-94382845D01*
X193181314Y-94382833D01*
X193100167Y-94382651D01*
X193037675Y-94382098D01*
X192991109Y-94380982D01*
X192957741Y-94379113D01*
X192934844Y-94376298D01*
X192919688Y-94372346D01*
X192909546Y-94367066D01*
X192901689Y-94360267D01*
X192886963Y-94338667D01*
X192879111Y-94309467D01*
X192884610Y-94285560D01*
X192901689Y-94258667D01*
X192906668Y-94254059D01*
X192916443Y-94247772D01*
X192930559Y-94243146D01*
X192952054Y-94239930D01*
X192983968Y-94237870D01*
X193029342Y-94236712D01*
X193091213Y-94236202D01*
X193172622Y-94236089D01*
X193420978Y-94236089D01*
X193420978Y-94078045D01*
X193259801Y-94078045D01*
X193223983Y-94077899D01*
X193158359Y-94076176D01*
X193111118Y-94071741D01*
X193079383Y-94063637D01*
X193060277Y-94050906D01*
X193050923Y-94032592D01*
X193048445Y-94007738D01*
X193049242Y-93987482D01*
X193054494Y-93965656D01*
X193067288Y-93950304D01*
X193090628Y-93940309D01*
X193127517Y-93934553D01*
X193180959Y-93931919D01*
X193253958Y-93931289D01*
X193422105Y-93931289D01*
X193418719Y-93866378D01*
X193415334Y-93801467D01*
X193167617Y-93798418D01*
X193105026Y-93797539D01*
X193036565Y-93796095D01*
X192985661Y-93794164D01*
X192949408Y-93791514D01*
X192924901Y-93787910D01*
X192909235Y-93783121D01*
X192899506Y-93776913D01*
X192893491Y-93770510D01*
X192880482Y-93738828D01*
X192884043Y-93703142D01*
X192903818Y-93672084D01*
X192907069Y-93669161D01*
X192916049Y-93662810D01*
X192928153Y-93657957D01*
X192946159Y-93654403D01*
X192972847Y-93651946D01*
X193010997Y-93650385D01*
X193063386Y-93649518D01*
X193132794Y-93649146D01*
X193222001Y-93649067D01*
X193276734Y-93649083D01*
G37*
X188599803Y-93678811D02*
X188604752Y-93685495D01*
X188610596Y-93696066D01*
X188615057Y-93710153D01*
X188618321Y-93730478D01*
X188620574Y-93759765D01*
X188622002Y-93800737D01*
X188622792Y-93856117D01*
X188623129Y-93928628D01*
X188623200Y-94020994D01*
X188623171Y-94086911D01*
X188622939Y-94165228D01*
X188622319Y-94225496D01*
X188621126Y-94270393D01*
X188619179Y-94302602D01*
X188616294Y-94324800D01*
X188612288Y-94339669D01*
X188606979Y-94349889D01*
X188600183Y-94358138D01*
X188595668Y-94362795D01*
X188587438Y-94369282D01*
X188576078Y-94374194D01*
X188558810Y-94377749D01*
X188532855Y-94380167D01*
X188495436Y-94381667D01*
X188443773Y-94382467D01*
X188375089Y-94382787D01*
X188286606Y-94382845D01*
X188266931Y-94382838D01*
X188179906Y-94382572D01*
X188112254Y-94381806D01*
X188061299Y-94380392D01*
X188024367Y-94378180D01*
X187998783Y-94375022D01*
X187981871Y-94370769D01*
X187970957Y-94365271D01*
X187960464Y-94355285D01*
X187947203Y-94324168D01*
X187948386Y-94288280D01*
X187964550Y-94256733D01*
X187966739Y-94254457D01*
X187975427Y-94248189D01*
X187988769Y-94243523D01*
X188009752Y-94240227D01*
X188041363Y-94238068D01*
X188086590Y-94236814D01*
X188148420Y-94236231D01*
X188229839Y-94236089D01*
X188476445Y-94236089D01*
X188476445Y-94078045D01*
X188314006Y-94078045D01*
X188278338Y-94077964D01*
X188222568Y-94077167D01*
X188183430Y-94075162D01*
X188156976Y-94071521D01*
X188139259Y-94065812D01*
X188126329Y-94057607D01*
X188122686Y-94054423D01*
X188104278Y-94023448D01*
X188103644Y-93987112D01*
X188121183Y-93953493D01*
X188121245Y-93953424D01*
X188130916Y-93944798D01*
X188144209Y-93938742D01*
X188164917Y-93934811D01*
X188196828Y-93932556D01*
X188243734Y-93931531D01*
X188309424Y-93931289D01*
X188477571Y-93931289D01*
X188474186Y-93866378D01*
X188470800Y-93801467D01*
X188228723Y-93798414D01*
X188203707Y-93798086D01*
X188122087Y-93796606D01*
X188059768Y-93794222D01*
X188014154Y-93790227D01*
X187982652Y-93783913D01*
X187962667Y-93774574D01*
X187951604Y-93761503D01*
X187946869Y-93743992D01*
X187945867Y-93721335D01*
X187945873Y-93718970D01*
X187947027Y-93698939D01*
X187951824Y-93683146D01*
X187962632Y-93671090D01*
X187981817Y-93662267D01*
X188011745Y-93656175D01*
X188054783Y-93652311D01*
X188113299Y-93650174D01*
X188189657Y-93649260D01*
X188286226Y-93649067D01*
X188576406Y-93649067D01*
X188599803Y-93678811D01*
G36*
X188599803Y-93678811D02*
G01*
X188604752Y-93685495D01*
X188610596Y-93696066D01*
X188615057Y-93710153D01*
X188618321Y-93730478D01*
X188620574Y-93759765D01*
X188622002Y-93800737D01*
X188622792Y-93856117D01*
X188623129Y-93928628D01*
X188623200Y-94020994D01*
X188623171Y-94086911D01*
X188622939Y-94165228D01*
X188622319Y-94225496D01*
X188621126Y-94270393D01*
X188619179Y-94302602D01*
X188616294Y-94324800D01*
X188612288Y-94339669D01*
X188606979Y-94349889D01*
X188600183Y-94358138D01*
X188595668Y-94362795D01*
X188587438Y-94369282D01*
X188576078Y-94374194D01*
X188558810Y-94377749D01*
X188532855Y-94380167D01*
X188495436Y-94381667D01*
X188443773Y-94382467D01*
X188375089Y-94382787D01*
X188286606Y-94382845D01*
X188266931Y-94382838D01*
X188179906Y-94382572D01*
X188112254Y-94381806D01*
X188061299Y-94380392D01*
X188024367Y-94378180D01*
X187998783Y-94375022D01*
X187981871Y-94370769D01*
X187970957Y-94365271D01*
X187960464Y-94355285D01*
X187947203Y-94324168D01*
X187948386Y-94288280D01*
X187964550Y-94256733D01*
X187966739Y-94254457D01*
X187975427Y-94248189D01*
X187988769Y-94243523D01*
X188009752Y-94240227D01*
X188041363Y-94238068D01*
X188086590Y-94236814D01*
X188148420Y-94236231D01*
X188229839Y-94236089D01*
X188476445Y-94236089D01*
X188476445Y-94078045D01*
X188314006Y-94078045D01*
X188278338Y-94077964D01*
X188222568Y-94077167D01*
X188183430Y-94075162D01*
X188156976Y-94071521D01*
X188139259Y-94065812D01*
X188126329Y-94057607D01*
X188122686Y-94054423D01*
X188104278Y-94023448D01*
X188103644Y-93987112D01*
X188121183Y-93953493D01*
X188121245Y-93953424D01*
X188130916Y-93944798D01*
X188144209Y-93938742D01*
X188164917Y-93934811D01*
X188196828Y-93932556D01*
X188243734Y-93931531D01*
X188309424Y-93931289D01*
X188477571Y-93931289D01*
X188474186Y-93866378D01*
X188470800Y-93801467D01*
X188228723Y-93798414D01*
X188203707Y-93798086D01*
X188122087Y-93796606D01*
X188059768Y-93794222D01*
X188014154Y-93790227D01*
X187982652Y-93783913D01*
X187962667Y-93774574D01*
X187951604Y-93761503D01*
X187946869Y-93743992D01*
X187945867Y-93721335D01*
X187945873Y-93718970D01*
X187947027Y-93698939D01*
X187951824Y-93683146D01*
X187962632Y-93671090D01*
X187981817Y-93662267D01*
X188011745Y-93656175D01*
X188054783Y-93652311D01*
X188113299Y-93650174D01*
X188189657Y-93649260D01*
X188286226Y-93649067D01*
X188576406Y-93649067D01*
X188599803Y-93678811D01*
G37*
X184275406Y-93654949D02*
X184301127Y-93670647D01*
X184327778Y-93692227D01*
X184327778Y-94339684D01*
X184301127Y-94361264D01*
X184269767Y-94378739D01*
X184233966Y-94379575D01*
X184202528Y-94359082D01*
X184198652Y-94354416D01*
X184193186Y-94344949D01*
X184188979Y-94331267D01*
X184185867Y-94310748D01*
X184183687Y-94280768D01*
X184182276Y-94238704D01*
X184181471Y-94181932D01*
X184181107Y-94107830D01*
X184181022Y-94013773D01*
X184181022Y-93692227D01*
X184207673Y-93670647D01*
X184231386Y-93655877D01*
X184254400Y-93649067D01*
X184275406Y-93654949D01*
G36*
X184275406Y-93654949D02*
G01*
X184301127Y-93670647D01*
X184327778Y-93692227D01*
X184327778Y-94339684D01*
X184301127Y-94361264D01*
X184269767Y-94378739D01*
X184233966Y-94379575D01*
X184202528Y-94359082D01*
X184198652Y-94354416D01*
X184193186Y-94344949D01*
X184188979Y-94331267D01*
X184185867Y-94310748D01*
X184183687Y-94280768D01*
X184182276Y-94238704D01*
X184181471Y-94181932D01*
X184181107Y-94107830D01*
X184181022Y-94013773D01*
X184181022Y-93692227D01*
X184207673Y-93670647D01*
X184231386Y-93655877D01*
X184254400Y-93649067D01*
X184275406Y-93654949D01*
G37*
X182899734Y-93671645D02*
X182905366Y-93677835D01*
X182910456Y-93686041D01*
X182914543Y-93697817D01*
X182917721Y-93715276D01*
X182920087Y-93740530D01*
X182921738Y-93775690D01*
X182922769Y-93822869D01*
X182923277Y-93884177D01*
X182923359Y-93961727D01*
X182923109Y-94057631D01*
X182922625Y-94174000D01*
X182922557Y-94188175D01*
X182921971Y-94249937D01*
X182920648Y-94293620D01*
X182918103Y-94323001D01*
X182913848Y-94341855D01*
X182907396Y-94353959D01*
X182898262Y-94363089D01*
X182864804Y-94380506D01*
X182829856Y-94377604D01*
X182798953Y-94353100D01*
X182789944Y-94339897D01*
X182782492Y-94321361D01*
X182778124Y-94295333D01*
X182776069Y-94256787D01*
X182775556Y-94200700D01*
X182775556Y-94078045D01*
X182278845Y-94078045D01*
X182278845Y-94212871D01*
X182278772Y-94248662D01*
X182278009Y-94294992D01*
X182275833Y-94325526D01*
X182271536Y-94344557D01*
X182264412Y-94356374D01*
X182253755Y-94365271D01*
X182221504Y-94380341D01*
X182186217Y-94377673D01*
X182155486Y-94353100D01*
X182150831Y-94346845D01*
X182144895Y-94336321D01*
X182140364Y-94322391D01*
X182137048Y-94302317D01*
X182134759Y-94273360D01*
X182133308Y-94232780D01*
X182132505Y-94177840D01*
X182132162Y-94105799D01*
X182132089Y-94013920D01*
X182132089Y-93704485D01*
X182159798Y-93676776D01*
X182191177Y-93654533D01*
X182224406Y-93651844D01*
X182256267Y-93671645D01*
X182264553Y-93681415D01*
X182271965Y-93697307D01*
X182276302Y-93721275D01*
X182278338Y-93758148D01*
X182278845Y-93812756D01*
X182278845Y-93931289D01*
X182775556Y-93931289D01*
X182775556Y-93815776D01*
X182775994Y-93764078D01*
X182777958Y-93729554D01*
X182782474Y-93706978D01*
X182790567Y-93691126D01*
X182803265Y-93676776D01*
X182834643Y-93654533D01*
X182867872Y-93651844D01*
X182899734Y-93671645D01*
G36*
X182899734Y-93671645D02*
G01*
X182905366Y-93677835D01*
X182910456Y-93686041D01*
X182914543Y-93697817D01*
X182917721Y-93715276D01*
X182920087Y-93740530D01*
X182921738Y-93775690D01*
X182922769Y-93822869D01*
X182923277Y-93884177D01*
X182923359Y-93961727D01*
X182923109Y-94057631D01*
X182922625Y-94174000D01*
X182922557Y-94188175D01*
X182921971Y-94249937D01*
X182920648Y-94293620D01*
X182918103Y-94323001D01*
X182913848Y-94341855D01*
X182907396Y-94353959D01*
X182898262Y-94363089D01*
X182864804Y-94380506D01*
X182829856Y-94377604D01*
X182798953Y-94353100D01*
X182789944Y-94339897D01*
X182782492Y-94321361D01*
X182778124Y-94295333D01*
X182776069Y-94256787D01*
X182775556Y-94200700D01*
X182775556Y-94078045D01*
X182278845Y-94078045D01*
X182278845Y-94212871D01*
X182278772Y-94248662D01*
X182278009Y-94294992D01*
X182275833Y-94325526D01*
X182271536Y-94344557D01*
X182264412Y-94356374D01*
X182253755Y-94365271D01*
X182221504Y-94380341D01*
X182186217Y-94377673D01*
X182155486Y-94353100D01*
X182150831Y-94346845D01*
X182144895Y-94336321D01*
X182140364Y-94322391D01*
X182137048Y-94302317D01*
X182134759Y-94273360D01*
X182133308Y-94232780D01*
X182132505Y-94177840D01*
X182132162Y-94105799D01*
X182132089Y-94013920D01*
X182132089Y-93704485D01*
X182159798Y-93676776D01*
X182191177Y-93654533D01*
X182224406Y-93651844D01*
X182256267Y-93671645D01*
X182264553Y-93681415D01*
X182271965Y-93697307D01*
X182276302Y-93721275D01*
X182278338Y-93758148D01*
X182278845Y-93812756D01*
X182278845Y-93931289D01*
X182775556Y-93931289D01*
X182775556Y-93815776D01*
X182775994Y-93764078D01*
X182777958Y-93729554D01*
X182782474Y-93706978D01*
X182790567Y-93691126D01*
X182803265Y-93676776D01*
X182834643Y-93654533D01*
X182867872Y-93651844D01*
X182899734Y-93671645D01*
G37*
X190549150Y-93654179D02*
X190655157Y-93670494D01*
X190748969Y-93698545D01*
X190827765Y-93737452D01*
X190888719Y-93786334D01*
X190914789Y-93819195D01*
X190944297Y-93868394D01*
X190969568Y-93922252D01*
X190987218Y-93973419D01*
X190993858Y-94014544D01*
X190992298Y-94034259D01*
X190979357Y-94085592D01*
X190956194Y-94142118D01*
X190926302Y-94196035D01*
X190893173Y-94239539D01*
X190882977Y-94249887D01*
X190815892Y-94301662D01*
X190735766Y-94341554D01*
X190649556Y-94365956D01*
X190594592Y-94374068D01*
X190501139Y-94380673D01*
X190411358Y-94378586D01*
X190328869Y-94368340D01*
X190257286Y-94350470D01*
X190200228Y-94325508D01*
X190161311Y-94293988D01*
X190159936Y-94292012D01*
X190152848Y-94266786D01*
X190148609Y-94219535D01*
X190147200Y-94150071D01*
X190148060Y-94087838D01*
X190152780Y-94040456D01*
X190164470Y-94008353D01*
X190186239Y-93988800D01*
X190221198Y-93979070D01*
X190272456Y-93976433D01*
X190343123Y-93978161D01*
X190391743Y-93981173D01*
X190441939Y-93989366D01*
X190474433Y-94003419D01*
X190491892Y-94024654D01*
X190496983Y-94054394D01*
X190496877Y-94058936D01*
X190488175Y-94093730D01*
X190464165Y-94117147D01*
X190422900Y-94130347D01*
X190362431Y-94134489D01*
X190293956Y-94134489D01*
X190293956Y-94172841D01*
X190294006Y-94181976D01*
X190296227Y-94199227D01*
X190305494Y-94209521D01*
X190326875Y-94216459D01*
X190365436Y-94223641D01*
X190370910Y-94224575D01*
X190467860Y-94234478D01*
X190557852Y-94231559D01*
X190638760Y-94216829D01*
X190708459Y-94191299D01*
X190764824Y-94155978D01*
X190805729Y-94111879D01*
X190829051Y-94060012D01*
X190832663Y-94001388D01*
X190827145Y-93972494D01*
X190800461Y-93916604D01*
X190754273Y-93870945D01*
X190689291Y-93836108D01*
X190606229Y-93812690D01*
X190581555Y-93808241D01*
X190492226Y-93797742D01*
X190412419Y-93798971D01*
X190334326Y-93811906D01*
X190299183Y-93818696D01*
X190253745Y-93819713D01*
X190222430Y-93807182D01*
X190202277Y-93780395D01*
X190195893Y-93752148D01*
X190205379Y-93720924D01*
X190214708Y-93707499D01*
X190248943Y-93683967D01*
X190301565Y-93666095D01*
X190370081Y-93654599D01*
X190452000Y-93650192D01*
X190549150Y-93654179D01*
G36*
X190549150Y-93654179D02*
G01*
X190655157Y-93670494D01*
X190748969Y-93698545D01*
X190827765Y-93737452D01*
X190888719Y-93786334D01*
X190914789Y-93819195D01*
X190944297Y-93868394D01*
X190969568Y-93922252D01*
X190987218Y-93973419D01*
X190993858Y-94014544D01*
X190992298Y-94034259D01*
X190979357Y-94085592D01*
X190956194Y-94142118D01*
X190926302Y-94196035D01*
X190893173Y-94239539D01*
X190882977Y-94249887D01*
X190815892Y-94301662D01*
X190735766Y-94341554D01*
X190649556Y-94365956D01*
X190594592Y-94374068D01*
X190501139Y-94380673D01*
X190411358Y-94378586D01*
X190328869Y-94368340D01*
X190257286Y-94350470D01*
X190200228Y-94325508D01*
X190161311Y-94293988D01*
X190159936Y-94292012D01*
X190152848Y-94266786D01*
X190148609Y-94219535D01*
X190147200Y-94150071D01*
X190148060Y-94087838D01*
X190152780Y-94040456D01*
X190164470Y-94008353D01*
X190186239Y-93988800D01*
X190221198Y-93979070D01*
X190272456Y-93976433D01*
X190343123Y-93978161D01*
X190391743Y-93981173D01*
X190441939Y-93989366D01*
X190474433Y-94003419D01*
X190491892Y-94024654D01*
X190496983Y-94054394D01*
X190496877Y-94058936D01*
X190488175Y-94093730D01*
X190464165Y-94117147D01*
X190422900Y-94130347D01*
X190362431Y-94134489D01*
X190293956Y-94134489D01*
X190293956Y-94172841D01*
X190294006Y-94181976D01*
X190296227Y-94199227D01*
X190305494Y-94209521D01*
X190326875Y-94216459D01*
X190365436Y-94223641D01*
X190370910Y-94224575D01*
X190467860Y-94234478D01*
X190557852Y-94231559D01*
X190638760Y-94216829D01*
X190708459Y-94191299D01*
X190764824Y-94155978D01*
X190805729Y-94111879D01*
X190829051Y-94060012D01*
X190832663Y-94001388D01*
X190827145Y-93972494D01*
X190800461Y-93916604D01*
X190754273Y-93870945D01*
X190689291Y-93836108D01*
X190606229Y-93812690D01*
X190581555Y-93808241D01*
X190492226Y-93797742D01*
X190412419Y-93798971D01*
X190334326Y-93811906D01*
X190299183Y-93818696D01*
X190253745Y-93819713D01*
X190222430Y-93807182D01*
X190202277Y-93780395D01*
X190195893Y-93752148D01*
X190205379Y-93720924D01*
X190214708Y-93707499D01*
X190248943Y-93683967D01*
X190301565Y-93666095D01*
X190370081Y-93654599D01*
X190452000Y-93650192D01*
X190549150Y-93654179D01*
G37*
X187605133Y-94260396D02*
X187603163Y-94293175D01*
X187600235Y-94316095D01*
X187596158Y-94331897D01*
X187590743Y-94343319D01*
X187583803Y-94353100D01*
X187560406Y-94382845D01*
X187394714Y-94382251D01*
X187359918Y-94381953D01*
X187261435Y-94378522D01*
X187180473Y-94370839D01*
X187113379Y-94358282D01*
X187056496Y-94340227D01*
X187006169Y-94316052D01*
X187002810Y-94314135D01*
X186944998Y-94277417D01*
X186902644Y-94240451D01*
X186869828Y-94196966D01*
X186840628Y-94140689D01*
X186836346Y-94131073D01*
X186813769Y-94067887D01*
X186808034Y-94022333D01*
X186957279Y-94022333D01*
X186962892Y-94047061D01*
X186968618Y-94062939D01*
X187001548Y-94122847D01*
X187048886Y-94168600D01*
X187112652Y-94201736D01*
X187194861Y-94223790D01*
X187197655Y-94224292D01*
X187243940Y-94230255D01*
X187300336Y-94234483D01*
X187355274Y-94236089D01*
X187449156Y-94236089D01*
X187449156Y-93795822D01*
X187361667Y-93796270D01*
X187294747Y-93798746D01*
X187202349Y-93809998D01*
X187123034Y-93829537D01*
X187061060Y-93856511D01*
X187030120Y-93877240D01*
X187002000Y-93907006D01*
X186978660Y-93949434D01*
X186971533Y-93965400D01*
X186959709Y-93997902D01*
X186957279Y-94022333D01*
X186808034Y-94022333D01*
X186806797Y-94012509D01*
X186815399Y-93957483D01*
X186839541Y-93895351D01*
X186840337Y-93893658D01*
X186880788Y-93824236D01*
X186931473Y-93767638D01*
X186994198Y-93723070D01*
X187070774Y-93689741D01*
X187163009Y-93666861D01*
X187272712Y-93653636D01*
X187401691Y-93649275D01*
X187405263Y-93649270D01*
X187465283Y-93649410D01*
X187507214Y-93650446D01*
X187535328Y-93653040D01*
X187553897Y-93657853D01*
X187567194Y-93665544D01*
X187579491Y-93676776D01*
X187607200Y-93704485D01*
X187607200Y-94013920D01*
X187607175Y-94075526D01*
X187606950Y-94154311D01*
X187606332Y-94215021D01*
X187605775Y-94236089D01*
X187605133Y-94260396D01*
G36*
X187605133Y-94260396D02*
G01*
X187603163Y-94293175D01*
X187600235Y-94316095D01*
X187596158Y-94331897D01*
X187590743Y-94343319D01*
X187583803Y-94353100D01*
X187560406Y-94382845D01*
X187394714Y-94382251D01*
X187359918Y-94381953D01*
X187261435Y-94378522D01*
X187180473Y-94370839D01*
X187113379Y-94358282D01*
X187056496Y-94340227D01*
X187006169Y-94316052D01*
X187002810Y-94314135D01*
X186944998Y-94277417D01*
X186902644Y-94240451D01*
X186869828Y-94196966D01*
X186840628Y-94140689D01*
X186836346Y-94131073D01*
X186813769Y-94067887D01*
X186808034Y-94022333D01*
X186957279Y-94022333D01*
X186962892Y-94047061D01*
X186968618Y-94062939D01*
X187001548Y-94122847D01*
X187048886Y-94168600D01*
X187112652Y-94201736D01*
X187194861Y-94223790D01*
X187197655Y-94224292D01*
X187243940Y-94230255D01*
X187300336Y-94234483D01*
X187355274Y-94236089D01*
X187449156Y-94236089D01*
X187449156Y-93795822D01*
X187361667Y-93796270D01*
X187294747Y-93798746D01*
X187202349Y-93809998D01*
X187123034Y-93829537D01*
X187061060Y-93856511D01*
X187030120Y-93877240D01*
X187002000Y-93907006D01*
X186978660Y-93949434D01*
X186971533Y-93965400D01*
X186959709Y-93997902D01*
X186957279Y-94022333D01*
X186808034Y-94022333D01*
X186806797Y-94012509D01*
X186815399Y-93957483D01*
X186839541Y-93895351D01*
X186840337Y-93893658D01*
X186880788Y-93824236D01*
X186931473Y-93767638D01*
X186994198Y-93723070D01*
X187070774Y-93689741D01*
X187163009Y-93666861D01*
X187272712Y-93653636D01*
X187401691Y-93649275D01*
X187405263Y-93649270D01*
X187465283Y-93649410D01*
X187507214Y-93650446D01*
X187535328Y-93653040D01*
X187553897Y-93657853D01*
X187567194Y-93665544D01*
X187579491Y-93676776D01*
X187607200Y-93704485D01*
X187607200Y-94013920D01*
X187607175Y-94075526D01*
X187606950Y-94154311D01*
X187606332Y-94215021D01*
X187605775Y-94236089D01*
X187605133Y-94260396D01*
G37*
X188408711Y-89342033D02*
X188504268Y-89359523D01*
X188668558Y-89404564D01*
X188822589Y-89467656D01*
X188968509Y-89549915D01*
X189108466Y-89652457D01*
X189244608Y-89776399D01*
X189288473Y-89821661D01*
X189400758Y-89953865D01*
X189493972Y-90091832D01*
X189570719Y-90239750D01*
X189633603Y-90401803D01*
X189637420Y-90413391D01*
X189687507Y-90599392D01*
X189720899Y-90795521D01*
X189737584Y-90997568D01*
X189737551Y-91201325D01*
X189720791Y-91402581D01*
X189687292Y-91597128D01*
X189637044Y-91780756D01*
X189593190Y-91898053D01*
X189515348Y-92060951D01*
X189421828Y-92214866D01*
X189314822Y-92356671D01*
X189196519Y-92483239D01*
X189069111Y-92591441D01*
X188991606Y-92644120D01*
X188864725Y-92713750D01*
X188727243Y-92772468D01*
X188585716Y-92817587D01*
X188446702Y-92846422D01*
X188432597Y-92848106D01*
X188389153Y-92851434D01*
X188331723Y-92854275D01*
X188266122Y-92856373D01*
X188198167Y-92857468D01*
X188071378Y-92855140D01*
X187923673Y-92842136D01*
X187785779Y-92817133D01*
X187652014Y-92779318D01*
X187628562Y-92770889D01*
X187580612Y-92751408D01*
X187524140Y-92726473D01*
X187462379Y-92697722D01*
X187398563Y-92666790D01*
X187335926Y-92635315D01*
X187277703Y-92604934D01*
X187227127Y-92577283D01*
X187187433Y-92553999D01*
X187161854Y-92536718D01*
X187153625Y-92527079D01*
X187155076Y-92523984D01*
X187166250Y-92504079D01*
X187187134Y-92468420D01*
X187216265Y-92419459D01*
X187252181Y-92359646D01*
X187293420Y-92291433D01*
X187338517Y-92217271D01*
X187519785Y-91920008D01*
X187566315Y-91964539D01*
X187657723Y-92042865D01*
X187771334Y-92117439D01*
X187889122Y-92171474D01*
X188009559Y-92204290D01*
X188131117Y-92215211D01*
X188172585Y-92213868D01*
X188290080Y-92195612D01*
X188400089Y-92156617D01*
X188501430Y-92097670D01*
X188592921Y-92019557D01*
X188673380Y-91923064D01*
X188741627Y-91808978D01*
X188757908Y-91774724D01*
X188803982Y-91651240D01*
X188839106Y-91512918D01*
X188863197Y-91363561D01*
X188876173Y-91206973D01*
X188877949Y-91046956D01*
X188868443Y-90887314D01*
X188847572Y-90731850D01*
X188815252Y-90584366D01*
X188771399Y-90448667D01*
X188733982Y-90362076D01*
X188669185Y-90248688D01*
X188593772Y-90155070D01*
X188507418Y-90080959D01*
X188409795Y-90026094D01*
X188300577Y-89990212D01*
X188179439Y-89973051D01*
X188110038Y-89971880D01*
X187987168Y-89986141D01*
X187871664Y-90021241D01*
X187764953Y-90076682D01*
X187668464Y-90151964D01*
X187652720Y-90166440D01*
X187622150Y-90192962D01*
X187599809Y-90210138D01*
X187589691Y-90214787D01*
X187587706Y-90212597D01*
X187573241Y-90193721D01*
X187549400Y-90160397D01*
X187518029Y-90115380D01*
X187480974Y-90061425D01*
X187440083Y-90001285D01*
X187397202Y-89937718D01*
X187354178Y-89873476D01*
X187312857Y-89811315D01*
X187275086Y-89753991D01*
X187242712Y-89704257D01*
X187217582Y-89664868D01*
X187201542Y-89638580D01*
X187196439Y-89628147D01*
X187201050Y-89623941D01*
X187220267Y-89618933D01*
X187229838Y-89616386D01*
X187257809Y-89605249D01*
X187299448Y-89586802D01*
X187350995Y-89562725D01*
X187408690Y-89534699D01*
X187419957Y-89529154D01*
X187597687Y-89449889D01*
X187767490Y-89390385D01*
X187931430Y-89350245D01*
X188091571Y-89329071D01*
X188249977Y-89326466D01*
X188408711Y-89342033D01*
G36*
X188408711Y-89342033D02*
G01*
X188504268Y-89359523D01*
X188668558Y-89404564D01*
X188822589Y-89467656D01*
X188968509Y-89549915D01*
X189108466Y-89652457D01*
X189244608Y-89776399D01*
X189288473Y-89821661D01*
X189400758Y-89953865D01*
X189493972Y-90091832D01*
X189570719Y-90239750D01*
X189633603Y-90401803D01*
X189637420Y-90413391D01*
X189687507Y-90599392D01*
X189720899Y-90795521D01*
X189737584Y-90997568D01*
X189737551Y-91201325D01*
X189720791Y-91402581D01*
X189687292Y-91597128D01*
X189637044Y-91780756D01*
X189593190Y-91898053D01*
X189515348Y-92060951D01*
X189421828Y-92214866D01*
X189314822Y-92356671D01*
X189196519Y-92483239D01*
X189069111Y-92591441D01*
X188991606Y-92644120D01*
X188864725Y-92713750D01*
X188727243Y-92772468D01*
X188585716Y-92817587D01*
X188446702Y-92846422D01*
X188432597Y-92848106D01*
X188389153Y-92851434D01*
X188331723Y-92854275D01*
X188266122Y-92856373D01*
X188198167Y-92857468D01*
X188071378Y-92855140D01*
X187923673Y-92842136D01*
X187785779Y-92817133D01*
X187652014Y-92779318D01*
X187628562Y-92770889D01*
X187580612Y-92751408D01*
X187524140Y-92726473D01*
X187462379Y-92697722D01*
X187398563Y-92666790D01*
X187335926Y-92635315D01*
X187277703Y-92604934D01*
X187227127Y-92577283D01*
X187187433Y-92553999D01*
X187161854Y-92536718D01*
X187153625Y-92527079D01*
X187155076Y-92523984D01*
X187166250Y-92504079D01*
X187187134Y-92468420D01*
X187216265Y-92419459D01*
X187252181Y-92359646D01*
X187293420Y-92291433D01*
X187338517Y-92217271D01*
X187519785Y-91920008D01*
X187566315Y-91964539D01*
X187657723Y-92042865D01*
X187771334Y-92117439D01*
X187889122Y-92171474D01*
X188009559Y-92204290D01*
X188131117Y-92215211D01*
X188172585Y-92213868D01*
X188290080Y-92195612D01*
X188400089Y-92156617D01*
X188501430Y-92097670D01*
X188592921Y-92019557D01*
X188673380Y-91923064D01*
X188741627Y-91808978D01*
X188757908Y-91774724D01*
X188803982Y-91651240D01*
X188839106Y-91512918D01*
X188863197Y-91363561D01*
X188876173Y-91206973D01*
X188877949Y-91046956D01*
X188868443Y-90887314D01*
X188847572Y-90731850D01*
X188815252Y-90584366D01*
X188771399Y-90448667D01*
X188733982Y-90362076D01*
X188669185Y-90248688D01*
X188593772Y-90155070D01*
X188507418Y-90080959D01*
X188409795Y-90026094D01*
X188300577Y-89990212D01*
X188179439Y-89973051D01*
X188110038Y-89971880D01*
X187987168Y-89986141D01*
X187871664Y-90021241D01*
X187764953Y-90076682D01*
X187668464Y-90151964D01*
X187652720Y-90166440D01*
X187622150Y-90192962D01*
X187599809Y-90210138D01*
X187589691Y-90214787D01*
X187587706Y-90212597D01*
X187573241Y-90193721D01*
X187549400Y-90160397D01*
X187518029Y-90115380D01*
X187480974Y-90061425D01*
X187440083Y-90001285D01*
X187397202Y-89937718D01*
X187354178Y-89873476D01*
X187312857Y-89811315D01*
X187275086Y-89753991D01*
X187242712Y-89704257D01*
X187217582Y-89664868D01*
X187201542Y-89638580D01*
X187196439Y-89628147D01*
X187201050Y-89623941D01*
X187220267Y-89618933D01*
X187229838Y-89616386D01*
X187257809Y-89605249D01*
X187299448Y-89586802D01*
X187350995Y-89562725D01*
X187408690Y-89534699D01*
X187419957Y-89529154D01*
X187597687Y-89449889D01*
X187767490Y-89390385D01*
X187931430Y-89350245D01*
X188091571Y-89329071D01*
X188249977Y-89326466D01*
X188408711Y-89342033D01*
G37*
X191406137Y-93653463D02*
X191440291Y-93676776D01*
X191468000Y-93704485D01*
X191468000Y-94017537D01*
X191467959Y-94101567D01*
X191467701Y-94175789D01*
X191467030Y-94232541D01*
X191465752Y-94274512D01*
X191463673Y-94304389D01*
X191460599Y-94324861D01*
X191456334Y-94338614D01*
X191450684Y-94348337D01*
X191443455Y-94356717D01*
X191411991Y-94378181D01*
X191376826Y-94379947D01*
X191343822Y-94360267D01*
X191338516Y-94354398D01*
X191333066Y-94345314D01*
X191328900Y-94331973D01*
X191325846Y-94311757D01*
X191323732Y-94282049D01*
X191322386Y-94240232D01*
X191321638Y-94183689D01*
X191321314Y-94109802D01*
X191321245Y-94015956D01*
X191321284Y-93940294D01*
X191321539Y-93862385D01*
X191322183Y-93802375D01*
X191323387Y-93757648D01*
X191325324Y-93725585D01*
X191328164Y-93703571D01*
X191332079Y-93688987D01*
X191337242Y-93679218D01*
X191343822Y-93671645D01*
X191373006Y-93652623D01*
X191406137Y-93653463D01*
G36*
X191406137Y-93653463D02*
G01*
X191440291Y-93676776D01*
X191468000Y-93704485D01*
X191468000Y-94017537D01*
X191467959Y-94101567D01*
X191467701Y-94175789D01*
X191467030Y-94232541D01*
X191465752Y-94274512D01*
X191463673Y-94304389D01*
X191460599Y-94324861D01*
X191456334Y-94338614D01*
X191450684Y-94348337D01*
X191443455Y-94356717D01*
X191411991Y-94378181D01*
X191376826Y-94379947D01*
X191343822Y-94360267D01*
X191338516Y-94354398D01*
X191333066Y-94345314D01*
X191328900Y-94331973D01*
X191325846Y-94311757D01*
X191323732Y-94282049D01*
X191322386Y-94240232D01*
X191321638Y-94183689D01*
X191321314Y-94109802D01*
X191321245Y-94015956D01*
X191321284Y-93940294D01*
X191321539Y-93862385D01*
X191322183Y-93802375D01*
X191323387Y-93757648D01*
X191325324Y-93725585D01*
X191328164Y-93703571D01*
X191332079Y-93688987D01*
X191337242Y-93679218D01*
X191343822Y-93671645D01*
X191373006Y-93652623D01*
X191406137Y-93653463D01*
G37*
X187147755Y-92023467D02*
X187147261Y-92057363D01*
X187143632Y-92132202D01*
X187136022Y-92194401D01*
X187123688Y-92250984D01*
X187079313Y-92377076D01*
X187016400Y-92491679D01*
X186936238Y-92592568D01*
X186839740Y-92678924D01*
X186727822Y-92749932D01*
X186601397Y-92804776D01*
X186461378Y-92842638D01*
X186425149Y-92848351D01*
X186346155Y-92854313D01*
X186257841Y-92854646D01*
X186168075Y-92849659D01*
X186084722Y-92839666D01*
X186015651Y-92824978D01*
X185929187Y-92794749D01*
X185819286Y-92740057D01*
X185721956Y-92672543D01*
X185659867Y-92621556D01*
X185656605Y-92717622D01*
X185653343Y-92813689D01*
X185230450Y-92813689D01*
X185219543Y-92813686D01*
X185125056Y-92813380D01*
X185038331Y-92812616D01*
X184961837Y-92811451D01*
X184898043Y-92809942D01*
X184849418Y-92808147D01*
X184818433Y-92806121D01*
X184807556Y-92803922D01*
X184807578Y-92803463D01*
X184814614Y-92787910D01*
X184830434Y-92765071D01*
X184834734Y-92759638D01*
X184845777Y-92745606D01*
X184855311Y-92732186D01*
X184863461Y-92717722D01*
X184870352Y-92700556D01*
X184876111Y-92679034D01*
X184880862Y-92651498D01*
X184884731Y-92616292D01*
X184887844Y-92571760D01*
X184890325Y-92516246D01*
X184892300Y-92448093D01*
X184893894Y-92365645D01*
X184895234Y-92267246D01*
X184896444Y-92151239D01*
X184897649Y-92015968D01*
X184898595Y-91904586D01*
X185699378Y-91904586D01*
X185699378Y-92100462D01*
X185744048Y-92156973D01*
X185756785Y-92172212D01*
X185803604Y-92214844D01*
X185864255Y-92250672D01*
X185874897Y-92255850D01*
X185913676Y-92272745D01*
X185948692Y-92282909D01*
X185988722Y-92288325D01*
X186042541Y-92290978D01*
X186060648Y-92291383D01*
X186136011Y-92288540D01*
X186196743Y-92276620D01*
X186248452Y-92254037D01*
X186296746Y-92219211D01*
X186301803Y-92214798D01*
X186350272Y-92159160D01*
X186378459Y-92095333D01*
X186387752Y-92020282D01*
X186380520Y-91948693D01*
X186355796Y-91885645D01*
X186311249Y-91827758D01*
X186256319Y-91780808D01*
X186183894Y-91740961D01*
X186097340Y-91713263D01*
X185994670Y-91697096D01*
X185873894Y-91691842D01*
X185865007Y-91691857D01*
X185809660Y-91692655D01*
X185762736Y-91694488D01*
X185728953Y-91697111D01*
X185713028Y-91700274D01*
X185708943Y-91706741D01*
X185704572Y-91728875D01*
X185701604Y-91767988D01*
X185699914Y-91825939D01*
X185699378Y-91904586D01*
X184898595Y-91904586D01*
X184898975Y-91859778D01*
X184900228Y-91717012D01*
X184901651Y-91571942D01*
X184903176Y-91446027D01*
X184904933Y-91337436D01*
X184907051Y-91244334D01*
X184909660Y-91164891D01*
X184912890Y-91097273D01*
X184916869Y-91039649D01*
X184921728Y-90990185D01*
X184927597Y-90947050D01*
X184934604Y-90908410D01*
X184942880Y-90872434D01*
X184952554Y-90837289D01*
X184963756Y-90801142D01*
X184976616Y-90762161D01*
X184992090Y-90719091D01*
X185034994Y-90626871D01*
X185088735Y-90547099D01*
X185157576Y-90472965D01*
X185235185Y-90409405D01*
X185339761Y-90347725D01*
X185459244Y-90300202D01*
X185594508Y-90266567D01*
X185746426Y-90246552D01*
X185915872Y-90239889D01*
X185973890Y-90240287D01*
X186039398Y-90242335D01*
X186100693Y-90246704D01*
X186162097Y-90254035D01*
X186227932Y-90264969D01*
X186302520Y-90280147D01*
X186390184Y-90300209D01*
X186495245Y-90325797D01*
X186523806Y-90332820D01*
X186599054Y-90350776D01*
X186669388Y-90366820D01*
X186730567Y-90380028D01*
X186778354Y-90389474D01*
X186808511Y-90394231D01*
X186836783Y-90397910D01*
X186863060Y-90403187D01*
X186873059Y-90407942D01*
X186869952Y-90416781D01*
X186859194Y-90444072D01*
X186841864Y-90486906D01*
X186819126Y-90542425D01*
X186792147Y-90607772D01*
X186762090Y-90680089D01*
X186755493Y-90695879D01*
X186716907Y-90786484D01*
X186685768Y-90856217D01*
X186661917Y-90905405D01*
X186645198Y-90934374D01*
X186635454Y-90943452D01*
X186627766Y-90941405D01*
X186601415Y-90931760D01*
X186562982Y-90916190D01*
X186517822Y-90896815D01*
X186423293Y-90858814D01*
X186286480Y-90817780D01*
X186145289Y-90792612D01*
X186107314Y-90788611D01*
X186004059Y-90786447D01*
X185916952Y-90799622D01*
X185845129Y-90828756D01*
X185787731Y-90874466D01*
X185743896Y-90937372D01*
X185712762Y-91018092D01*
X185693470Y-91117245D01*
X185686050Y-91176224D01*
X185847936Y-91169445D01*
X185974495Y-91167813D01*
X186125951Y-91174194D01*
X186274396Y-91188777D01*
X186410578Y-91210882D01*
X186475245Y-91225821D01*
X186607490Y-91268741D01*
X186729762Y-91325340D01*
X186839685Y-91394017D01*
X186934883Y-91473170D01*
X187012980Y-91561196D01*
X187071599Y-91656493D01*
X187095595Y-91708864D01*
X187121232Y-91779590D01*
X187137478Y-91850812D01*
X187145822Y-91929712D01*
X187147690Y-92020282D01*
X187147755Y-92023467D01*
G36*
X187147755Y-92023467D02*
G01*
X187147261Y-92057363D01*
X187143632Y-92132202D01*
X187136022Y-92194401D01*
X187123688Y-92250984D01*
X187079313Y-92377076D01*
X187016400Y-92491679D01*
X186936238Y-92592568D01*
X186839740Y-92678924D01*
X186727822Y-92749932D01*
X186601397Y-92804776D01*
X186461378Y-92842638D01*
X186425149Y-92848351D01*
X186346155Y-92854313D01*
X186257841Y-92854646D01*
X186168075Y-92849659D01*
X186084722Y-92839666D01*
X186015651Y-92824978D01*
X185929187Y-92794749D01*
X185819286Y-92740057D01*
X185721956Y-92672543D01*
X185659867Y-92621556D01*
X185656605Y-92717622D01*
X185653343Y-92813689D01*
X185230450Y-92813689D01*
X185219543Y-92813686D01*
X185125056Y-92813380D01*
X185038331Y-92812616D01*
X184961837Y-92811451D01*
X184898043Y-92809942D01*
X184849418Y-92808147D01*
X184818433Y-92806121D01*
X184807556Y-92803922D01*
X184807578Y-92803463D01*
X184814614Y-92787910D01*
X184830434Y-92765071D01*
X184834734Y-92759638D01*
X184845777Y-92745606D01*
X184855311Y-92732186D01*
X184863461Y-92717722D01*
X184870352Y-92700556D01*
X184876111Y-92679034D01*
X184880862Y-92651498D01*
X184884731Y-92616292D01*
X184887844Y-92571760D01*
X184890325Y-92516246D01*
X184892300Y-92448093D01*
X184893894Y-92365645D01*
X184895234Y-92267246D01*
X184896444Y-92151239D01*
X184897649Y-92015968D01*
X184898595Y-91904586D01*
X185699378Y-91904586D01*
X185699378Y-92100462D01*
X185744048Y-92156973D01*
X185756785Y-92172212D01*
X185803604Y-92214844D01*
X185864255Y-92250672D01*
X185874897Y-92255850D01*
X185913676Y-92272745D01*
X185948692Y-92282909D01*
X185988722Y-92288325D01*
X186042541Y-92290978D01*
X186060648Y-92291383D01*
X186136011Y-92288540D01*
X186196743Y-92276620D01*
X186248452Y-92254037D01*
X186296746Y-92219211D01*
X186301803Y-92214798D01*
X186350272Y-92159160D01*
X186378459Y-92095333D01*
X186387752Y-92020282D01*
X186380520Y-91948693D01*
X186355796Y-91885645D01*
X186311249Y-91827758D01*
X186256319Y-91780808D01*
X186183894Y-91740961D01*
X186097340Y-91713263D01*
X185994670Y-91697096D01*
X185873894Y-91691842D01*
X185865007Y-91691857D01*
X185809660Y-91692655D01*
X185762736Y-91694488D01*
X185728953Y-91697111D01*
X185713028Y-91700274D01*
X185708943Y-91706741D01*
X185704572Y-91728875D01*
X185701604Y-91767988D01*
X185699914Y-91825939D01*
X185699378Y-91904586D01*
X184898595Y-91904586D01*
X184898975Y-91859778D01*
X184900228Y-91717012D01*
X184901651Y-91571942D01*
X184903176Y-91446027D01*
X184904933Y-91337436D01*
X184907051Y-91244334D01*
X184909660Y-91164891D01*
X184912890Y-91097273D01*
X184916869Y-91039649D01*
X184921728Y-90990185D01*
X184927597Y-90947050D01*
X184934604Y-90908410D01*
X184942880Y-90872434D01*
X184952554Y-90837289D01*
X184963756Y-90801142D01*
X184976616Y-90762161D01*
X184992090Y-90719091D01*
X185034994Y-90626871D01*
X185088735Y-90547099D01*
X185157576Y-90472965D01*
X185235185Y-90409405D01*
X185339761Y-90347725D01*
X185459244Y-90300202D01*
X185594508Y-90266567D01*
X185746426Y-90246552D01*
X185915872Y-90239889D01*
X185973890Y-90240287D01*
X186039398Y-90242335D01*
X186100693Y-90246704D01*
X186162097Y-90254035D01*
X186227932Y-90264969D01*
X186302520Y-90280147D01*
X186390184Y-90300209D01*
X186495245Y-90325797D01*
X186523806Y-90332820D01*
X186599054Y-90350776D01*
X186669388Y-90366820D01*
X186730567Y-90380028D01*
X186778354Y-90389474D01*
X186808511Y-90394231D01*
X186836783Y-90397910D01*
X186863060Y-90403187D01*
X186873059Y-90407942D01*
X186869952Y-90416781D01*
X186859194Y-90444072D01*
X186841864Y-90486906D01*
X186819126Y-90542425D01*
X186792147Y-90607772D01*
X186762090Y-90680089D01*
X186755493Y-90695879D01*
X186716907Y-90786484D01*
X186685768Y-90856217D01*
X186661917Y-90905405D01*
X186645198Y-90934374D01*
X186635454Y-90943452D01*
X186627766Y-90941405D01*
X186601415Y-90931760D01*
X186562982Y-90916190D01*
X186517822Y-90896815D01*
X186423293Y-90858814D01*
X186286480Y-90817780D01*
X186145289Y-90792612D01*
X186107314Y-90788611D01*
X186004059Y-90786447D01*
X185916952Y-90799622D01*
X185845129Y-90828756D01*
X185787731Y-90874466D01*
X185743896Y-90937372D01*
X185712762Y-91018092D01*
X185693470Y-91117245D01*
X185686050Y-91176224D01*
X185847936Y-91169445D01*
X185974495Y-91167813D01*
X186125951Y-91174194D01*
X186274396Y-91188777D01*
X186410578Y-91210882D01*
X186475245Y-91225821D01*
X186607490Y-91268741D01*
X186729762Y-91325340D01*
X186839685Y-91394017D01*
X186934883Y-91473170D01*
X187012980Y-91561196D01*
X187071599Y-91656493D01*
X187095595Y-91708864D01*
X187121232Y-91779590D01*
X187137478Y-91850812D01*
X187145822Y-91929712D01*
X187147690Y-92020282D01*
X187147755Y-92023467D01*
G37*
X192260853Y-93649936D02*
X192327100Y-93655366D01*
X192382400Y-93664964D01*
X192433283Y-93679825D01*
X192504595Y-93712958D01*
X192555752Y-93755640D01*
X192586575Y-93807705D01*
X192596889Y-93868983D01*
X192595952Y-93900232D01*
X192590160Y-93925029D01*
X192575353Y-93946699D01*
X192547380Y-93974049D01*
X192539402Y-93981378D01*
X192515692Y-94002281D01*
X192493298Y-94019251D01*
X192469265Y-94033205D01*
X192440637Y-94045056D01*
X192404460Y-94055720D01*
X192357780Y-94066111D01*
X192297641Y-94077146D01*
X192221090Y-94089738D01*
X192125171Y-94104804D01*
X192106808Y-94107838D01*
X192044478Y-94121458D01*
X191999260Y-94137192D01*
X191972976Y-94154263D01*
X191967447Y-94171897D01*
X191970068Y-94176168D01*
X191988000Y-94191233D01*
X192016126Y-94207867D01*
X192028926Y-94213857D01*
X192050224Y-94221050D01*
X192076610Y-94225827D01*
X192112454Y-94228646D01*
X192162128Y-94229964D01*
X192230000Y-94230237D01*
X192247785Y-94230164D01*
X192315406Y-94229053D01*
X192380345Y-94226828D01*
X192435970Y-94223762D01*
X192475651Y-94220127D01*
X192511162Y-94216059D01*
X192540415Y-94215276D01*
X192559315Y-94219876D01*
X192574429Y-94230551D01*
X192578085Y-94234144D01*
X192594427Y-94265918D01*
X192593107Y-94301572D01*
X192574150Y-94332190D01*
X192553780Y-94343796D01*
X192517796Y-94356491D01*
X192475372Y-94366541D01*
X192471922Y-94367140D01*
X192429252Y-94372356D01*
X192371866Y-94376730D01*
X192306849Y-94379818D01*
X192241289Y-94381177D01*
X192225057Y-94381218D01*
X192126744Y-94378741D01*
X192046692Y-94370735D01*
X191981513Y-94356203D01*
X191927817Y-94334149D01*
X191882216Y-94303576D01*
X191841323Y-94263486D01*
X191821202Y-94237259D01*
X191809576Y-94207712D01*
X191806667Y-94167995D01*
X191806808Y-94156026D01*
X191810681Y-94123345D01*
X191823065Y-94096819D01*
X191848230Y-94065971D01*
X191869442Y-94043831D01*
X191895838Y-94021285D01*
X191925555Y-94002917D01*
X191961785Y-93987661D01*
X192007717Y-93974449D01*
X192066544Y-93962214D01*
X192141456Y-93949889D01*
X192235645Y-93936406D01*
X192280957Y-93929396D01*
X192348911Y-93914837D01*
X192398047Y-93898337D01*
X192427614Y-93880439D01*
X192436864Y-93861685D01*
X192425048Y-93842615D01*
X192391416Y-93823771D01*
X192388370Y-93822557D01*
X192342011Y-93810479D01*
X192279361Y-93802279D01*
X192205927Y-93798119D01*
X192127217Y-93798161D01*
X192048739Y-93802569D01*
X191976000Y-93811505D01*
X191972073Y-93812154D01*
X191923257Y-93819861D01*
X191891005Y-93823473D01*
X191870008Y-93822876D01*
X191854954Y-93817954D01*
X191840534Y-93808596D01*
X191839364Y-93807725D01*
X191814847Y-93777351D01*
X191810054Y-93741850D01*
X191825860Y-93707269D01*
X191830406Y-93702813D01*
X191860020Y-93687673D01*
X191907002Y-93674550D01*
X191967306Y-93663750D01*
X192036888Y-93655581D01*
X192111703Y-93650351D01*
X192187706Y-93648367D01*
X192260853Y-93649936D01*
G36*
X192260853Y-93649936D02*
G01*
X192327100Y-93655366D01*
X192382400Y-93664964D01*
X192433283Y-93679825D01*
X192504595Y-93712958D01*
X192555752Y-93755640D01*
X192586575Y-93807705D01*
X192596889Y-93868983D01*
X192595952Y-93900232D01*
X192590160Y-93925029D01*
X192575353Y-93946699D01*
X192547380Y-93974049D01*
X192539402Y-93981378D01*
X192515692Y-94002281D01*
X192493298Y-94019251D01*
X192469265Y-94033205D01*
X192440637Y-94045056D01*
X192404460Y-94055720D01*
X192357780Y-94066111D01*
X192297641Y-94077146D01*
X192221090Y-94089738D01*
X192125171Y-94104804D01*
X192106808Y-94107838D01*
X192044478Y-94121458D01*
X191999260Y-94137192D01*
X191972976Y-94154263D01*
X191967447Y-94171897D01*
X191970068Y-94176168D01*
X191988000Y-94191233D01*
X192016126Y-94207867D01*
X192028926Y-94213857D01*
X192050224Y-94221050D01*
X192076610Y-94225827D01*
X192112454Y-94228646D01*
X192162128Y-94229964D01*
X192230000Y-94230237D01*
X192247785Y-94230164D01*
X192315406Y-94229053D01*
X192380345Y-94226828D01*
X192435970Y-94223762D01*
X192475651Y-94220127D01*
X192511162Y-94216059D01*
X192540415Y-94215276D01*
X192559315Y-94219876D01*
X192574429Y-94230551D01*
X192578085Y-94234144D01*
X192594427Y-94265918D01*
X192593107Y-94301572D01*
X192574150Y-94332190D01*
X192553780Y-94343796D01*
X192517796Y-94356491D01*
X192475372Y-94366541D01*
X192471922Y-94367140D01*
X192429252Y-94372356D01*
X192371866Y-94376730D01*
X192306849Y-94379818D01*
X192241289Y-94381177D01*
X192225057Y-94381218D01*
X192126744Y-94378741D01*
X192046692Y-94370735D01*
X191981513Y-94356203D01*
X191927817Y-94334149D01*
X191882216Y-94303576D01*
X191841323Y-94263486D01*
X191821202Y-94237259D01*
X191809576Y-94207712D01*
X191806667Y-94167995D01*
X191806808Y-94156026D01*
X191810681Y-94123345D01*
X191823065Y-94096819D01*
X191848230Y-94065971D01*
X191869442Y-94043831D01*
X191895838Y-94021285D01*
X191925555Y-94002917D01*
X191961785Y-93987661D01*
X192007717Y-93974449D01*
X192066544Y-93962214D01*
X192141456Y-93949889D01*
X192235645Y-93936406D01*
X192280957Y-93929396D01*
X192348911Y-93914837D01*
X192398047Y-93898337D01*
X192427614Y-93880439D01*
X192436864Y-93861685D01*
X192425048Y-93842615D01*
X192391416Y-93823771D01*
X192388370Y-93822557D01*
X192342011Y-93810479D01*
X192279361Y-93802279D01*
X192205927Y-93798119D01*
X192127217Y-93798161D01*
X192048739Y-93802569D01*
X191976000Y-93811505D01*
X191972073Y-93812154D01*
X191923257Y-93819861D01*
X191891005Y-93823473D01*
X191870008Y-93822876D01*
X191854954Y-93817954D01*
X191840534Y-93808596D01*
X191839364Y-93807725D01*
X191814847Y-93777351D01*
X191810054Y-93741850D01*
X191825860Y-93707269D01*
X191830406Y-93702813D01*
X191860020Y-93687673D01*
X191907002Y-93674550D01*
X191967306Y-93663750D01*
X192036888Y-93655581D01*
X192111703Y-93650351D01*
X192187706Y-93648367D01*
X192260853Y-93649936D01*
G37*
%TD*%
%LPC*%
D11*
X172920000Y-72380000D02*
X203920000Y-72380000D01*
X203920000Y-119380000D01*
X172920000Y-119380000D01*
X172920000Y-72380000D01*
D12*
%TO.C,J2*%
X201120000Y-99545000D03*
D13*
X201120000Y-97005000D03*
%TD*%
%TO.C,J1*%
X175920000Y-107040000D03*
D12*
X175920000Y-109580000D03*
%TD*%
D13*
%TO.C,J3*%
X175920000Y-97005000D03*
D12*
X175920000Y-99545000D03*
%TD*%
D14*
%TO.C,D3*%
X189505276Y-110064724D03*
D15*
X186965276Y-110064724D03*
%TD*%
D16*
%TO.C,J5*%
X188300000Y-84460000D03*
D17*
X183500000Y-79460000D03*
D16*
X185800000Y-84460000D03*
D17*
X193500000Y-79460000D03*
%TD*%
D18*
%TO.C,H2*%
X199920000Y-76910000D03*
%TD*%
%TO.C,H4*%
X176920000Y-115380000D03*
%TD*%
D13*
%TO.C,J4*%
X201120000Y-107040000D03*
D12*
X201120000Y-109580000D03*
%TD*%
D18*
%TO.C,H3*%
X199920000Y-115380000D03*
%TD*%
%TO.C,H1*%
X176920000Y-76910000D03*
%TD*%
%LPD*%
M02*
