%TF.GenerationSoftware,KiCad,Pcbnew,9.0.0*%
%TF.CreationDate,2025-04-28T20:09:46+02:00*%
%TF.ProjectId,OOS - optyczny odbiornik sygnalow,4f4f5320-2d20-46f7-9074-79637a6e7920,rev?*%
%TF.SameCoordinates,Original*%
%TF.FileFunction,Plated,1,2,PTH,Drill*%
%TF.FilePolarity,Positive*%
%FSLAX46Y46*%
G04 Gerber Fmt 4.6, Leading zero omitted, Abs format (unit mm)*
G04 Created by KiCad (PCBNEW 9.0.0) date 2025-04-28 20:09:46*
%MOMM*%
%LPD*%
G01*
G04 APERTURE LIST*
%TA.AperFunction,ViaDrill*%
%ADD10C,0.300000*%
%TD*%
%TA.AperFunction,ComponentDrill*%
%ADD11C,0.700000*%
%TD*%
%TA.AperFunction,ComponentDrill*%
%ADD12C,1.000000*%
%TD*%
%TA.AperFunction,ComponentDrill*%
%ADD13C,2.000000*%
%TD*%
G04 APERTURE END LIST*
D10*
X173720000Y-80980000D03*
X173770000Y-73680000D03*
X173820000Y-87830000D03*
X173820000Y-94830000D03*
X174720000Y-104380000D03*
X174720000Y-111280000D03*
X174820000Y-102790000D03*
X175542491Y-101792751D03*
X176920000Y-105380000D03*
X177320000Y-108580000D03*
X179970000Y-80930000D03*
X179970000Y-101580000D03*
X179970000Y-108680000D03*
X180070000Y-73680000D03*
X180370000Y-87730000D03*
X180870000Y-112080000D03*
X180870000Y-117380000D03*
X181520000Y-104180000D03*
X181520000Y-110430000D03*
X181670000Y-106580000D03*
X182820000Y-96980000D03*
X183270000Y-106580000D03*
X183420000Y-103780000D03*
X183870000Y-110330000D03*
X184020000Y-99480000D03*
X184570000Y-106580000D03*
X184920000Y-101980000D03*
X185170000Y-95790000D03*
X185220000Y-90730000D03*
X185320000Y-93580000D03*
X185520000Y-87680000D03*
X185770000Y-114130000D03*
X185820000Y-105780000D03*
X185870000Y-117530000D03*
X185970000Y-97930000D03*
X185970000Y-103730000D03*
X186170000Y-108580000D03*
X187020000Y-86030000D03*
X187820000Y-92230000D03*
X188070000Y-111180000D03*
X188200000Y-89630000D03*
X188220000Y-107730000D03*
X188270000Y-99580000D03*
X189220000Y-86680000D03*
X189220000Y-103280000D03*
X189370000Y-93780000D03*
X190120000Y-98630000D03*
X190820000Y-108230000D03*
X190920000Y-96080000D03*
X191370000Y-114130000D03*
X191420000Y-117380000D03*
X191620000Y-106080000D03*
X191820000Y-103280000D03*
X192070000Y-97180000D03*
X192170000Y-87680000D03*
X192270000Y-100730000D03*
X192720000Y-107080000D03*
X192870000Y-93430000D03*
X193420000Y-99080000D03*
X193670000Y-97180000D03*
X194320000Y-107080000D03*
X194670000Y-103280000D03*
X195020000Y-100780000D03*
X195395000Y-104555000D03*
X195520000Y-94080000D03*
X195620000Y-112980000D03*
X195670000Y-97180000D03*
X195770000Y-105880000D03*
X196720000Y-73580000D03*
X196720000Y-80830000D03*
X196870000Y-87280000D03*
X197070000Y-102580000D03*
X197420000Y-95980000D03*
X197620000Y-99930000D03*
X197770000Y-106480000D03*
X199420000Y-98030000D03*
X199470000Y-102680000D03*
X199520000Y-108480000D03*
X199720000Y-105530000D03*
X199720000Y-111230000D03*
X200120000Y-95280000D03*
X200120000Y-101130000D03*
X202970000Y-80980000D03*
X203020000Y-73630000D03*
X203020000Y-93180000D03*
X203070000Y-99880000D03*
X203120000Y-87080000D03*
D11*
%TO.C,D3*%
X186965276Y-110064724D03*
X189505276Y-110064724D03*
D12*
%TO.C,J3*%
X175920000Y-97005000D03*
X175920000Y-99545000D03*
%TO.C,J1*%
X175920000Y-107040000D03*
X175920000Y-109580000D03*
%TO.C,J5*%
X185800000Y-84460000D03*
X188300000Y-84460000D03*
%TO.C,J2*%
X201120000Y-97005000D03*
X201120000Y-99545000D03*
%TO.C,J4*%
X201120000Y-107040000D03*
X201120000Y-109580000D03*
D13*
%TO.C,J5*%
X183500000Y-79460000D03*
X193500000Y-79460000D03*
M02*
