%TF.GenerationSoftware,KiCad,Pcbnew,9.0.0*%
%TF.CreationDate,2025-04-28T20:10:03+02:00*%
%TF.ProjectId,OOS - optyczny odbiornik sygnalow,4f4f5320-2d20-46f7-9074-79637a6e7920,rev?*%
%TF.SameCoordinates,Original*%
%TF.FileFunction,Copper,L1,Top*%
%TF.FilePolarity,Positive*%
%FSLAX46Y46*%
G04 Gerber Fmt 4.6, Leading zero omitted, Abs format (unit mm)*
G04 Created by KiCad (PCBNEW 9.0.0) date 2025-04-28 20:10:03*
%MOMM*%
%LPD*%
G01*
G04 APERTURE LIST*
G04 Aperture macros list*
%AMRoundRect*
0 Rectangle with rounded corners*
0 $1 Rounding radius*
0 $2 $3 $4 $5 $6 $7 $8 $9 X,Y pos of 4 corners*
0 Add a 4 corners polygon primitive as box body*
4,1,4,$2,$3,$4,$5,$6,$7,$8,$9,$2,$3,0*
0 Add four circle primitives for the rounded corners*
1,1,$1+$1,$2,$3*
1,1,$1+$1,$4,$5*
1,1,$1+$1,$6,$7*
1,1,$1+$1,$8,$9*
0 Add four rect primitives between the rounded corners*
20,1,$1+$1,$2,$3,$4,$5,0*
20,1,$1+$1,$4,$5,$6,$7,0*
20,1,$1+$1,$6,$7,$8,$9,0*
20,1,$1+$1,$8,$9,$2,$3,0*%
%AMFreePoly0*
4,1,23,0.500000,-0.750000,0.000000,-0.750000,0.000000,-0.745722,-0.065263,-0.745722,-0.191342,-0.711940,-0.304381,-0.646677,-0.396677,-0.554381,-0.461940,-0.441342,-0.495722,-0.315263,-0.495722,-0.250000,-0.500000,-0.250000,-0.500000,0.250000,-0.495722,0.250000,-0.495722,0.315263,-0.461940,0.441342,-0.396677,0.554381,-0.304381,0.646677,-0.191342,0.711940,-0.065263,0.745722,0.000000,0.745722,
0.000000,0.750000,0.500000,0.750000,0.500000,-0.750000,0.500000,-0.750000,$1*%
%AMFreePoly1*
4,1,23,0.000000,0.745722,0.065263,0.745722,0.191342,0.711940,0.304381,0.646677,0.396677,0.554381,0.461940,0.441342,0.495722,0.315263,0.495722,0.250000,0.500000,0.250000,0.500000,-0.250000,0.495722,-0.250000,0.495722,-0.315263,0.461940,-0.441342,0.396677,-0.554381,0.304381,-0.646677,0.191342,-0.711940,0.065263,-0.745722,0.000000,-0.745722,0.000000,-0.750000,-0.500000,-0.750000,
-0.500000,0.750000,0.000000,0.750000,0.000000,0.745722,0.000000,0.745722,$1*%
G04 Aperture macros list end*
%TA.AperFunction,EtchedComponent*%
%ADD10C,0.000000*%
%TD*%
%TA.AperFunction,ComponentPad*%
%ADD11O,4.000000X4.000000*%
%TD*%
%TA.AperFunction,ComponentPad*%
%ADD12O,2.000000X2.000000*%
%TD*%
%TA.AperFunction,SMDPad,CuDef*%
%ADD13RoundRect,0.225000X0.250000X-0.225000X0.250000X0.225000X-0.250000X0.225000X-0.250000X-0.225000X0*%
%TD*%
%TA.AperFunction,SMDPad,CuDef*%
%ADD14RoundRect,0.225000X-0.250000X0.225000X-0.250000X-0.225000X0.250000X-0.225000X0.250000X0.225000X0*%
%TD*%
%TA.AperFunction,SMDPad,CuDef*%
%ADD15C,1.000000*%
%TD*%
%TA.AperFunction,ComponentPad*%
%ADD16R,1.700000X1.700000*%
%TD*%
%TA.AperFunction,ComponentPad*%
%ADD17O,1.700000X1.700000*%
%TD*%
%TA.AperFunction,SMDPad,CuDef*%
%ADD18RoundRect,0.135000X0.135000X0.185000X-0.135000X0.185000X-0.135000X-0.185000X0.135000X-0.185000X0*%
%TD*%
%TA.AperFunction,SMDPad,CuDef*%
%ADD19RoundRect,0.135000X0.185000X-0.135000X0.185000X0.135000X-0.185000X0.135000X-0.185000X-0.135000X0*%
%TD*%
%TA.AperFunction,ComponentPad*%
%ADD20O,1.600000X1.200000*%
%TD*%
%TA.AperFunction,ComponentPad*%
%ADD21C,1.200000*%
%TD*%
%TA.AperFunction,SMDPad,CuDef*%
%ADD22FreePoly0,90.000000*%
%TD*%
%TA.AperFunction,SMDPad,CuDef*%
%ADD23FreePoly1,90.000000*%
%TD*%
%TA.AperFunction,SMDPad,CuDef*%
%ADD24RoundRect,0.135000X-0.135000X-0.185000X0.135000X-0.185000X0.135000X0.185000X-0.135000X0.185000X0*%
%TD*%
%TA.AperFunction,SMDPad,CuDef*%
%ADD25RoundRect,0.140000X0.170000X-0.140000X0.170000X0.140000X-0.170000X0.140000X-0.170000X-0.140000X0*%
%TD*%
%TA.AperFunction,SMDPad,CuDef*%
%ADD26RoundRect,0.218750X0.218750X0.256250X-0.218750X0.256250X-0.218750X-0.256250X0.218750X-0.256250X0*%
%TD*%
%TA.AperFunction,SMDPad,CuDef*%
%ADD27C,1.500000*%
%TD*%
%TA.AperFunction,SMDPad,CuDef*%
%ADD28RoundRect,0.218750X-0.218750X-0.256250X0.218750X-0.256250X0.218750X0.256250X-0.218750X0.256250X0*%
%TD*%
%TA.AperFunction,SMDPad,CuDef*%
%ADD29RoundRect,0.140000X-0.170000X0.140000X-0.170000X-0.140000X0.170000X-0.140000X0.170000X0.140000X0*%
%TD*%
%TA.AperFunction,SMDPad,CuDef*%
%ADD30RoundRect,0.140000X0.140000X0.170000X-0.140000X0.170000X-0.140000X-0.170000X0.140000X-0.170000X0*%
%TD*%
%TA.AperFunction,SMDPad,CuDef*%
%ADD31RoundRect,0.200000X-0.200000X-0.275000X0.200000X-0.275000X0.200000X0.275000X-0.200000X0.275000X0*%
%TD*%
%TA.AperFunction,SMDPad,CuDef*%
%ADD32RoundRect,0.162500X-0.617500X-0.162500X0.617500X-0.162500X0.617500X0.162500X-0.617500X0.162500X0*%
%TD*%
%TA.AperFunction,SMDPad,CuDef*%
%ADD33RoundRect,0.200000X0.200000X0.275000X-0.200000X0.275000X-0.200000X-0.275000X0.200000X-0.275000X0*%
%TD*%
%TA.AperFunction,ViaPad*%
%ADD34C,0.600000*%
%TD*%
%TA.AperFunction,Conductor*%
%ADD35C,0.200000*%
%TD*%
%TA.AperFunction,Conductor*%
%ADD36C,0.300000*%
%TD*%
G04 APERTURE END LIST*
D10*
%TA.AperFunction,EtchedComponent*%
%TO.C,JP1*%
G36*
X201420000Y-103530000D02*
G01*
X200820000Y-103530000D01*
X200820000Y-103030000D01*
X201420000Y-103030000D01*
X201420000Y-103530000D01*
G37*
%TD.AperFunction*%
%TD*%
D11*
%TO.P,J5,2,Ext*%
%TO.N,0V*%
X183500000Y-79460000D03*
D12*
X185800000Y-84460000D03*
D11*
X193500000Y-79460000D03*
D12*
%TO.P,J5,1,In*%
%TO.N,/OPA300_x10_Out_AC*%
X188300000Y-84460000D03*
%TD*%
D13*
%TO.P,C8,2*%
%TO.N,0V*%
X183270000Y-107540000D03*
%TO.P,C8,1*%
%TO.N,/BPX65_Cathode*%
X183270000Y-109090000D03*
%TD*%
D14*
%TO.P,C4,2*%
%TO.N,0V*%
X192070000Y-96190000D03*
%TO.P,C4,1*%
%TO.N,+5V*%
X192070000Y-94640000D03*
%TD*%
%TO.P,C3,2*%
%TO.N,0V*%
X192720000Y-106155000D03*
%TO.P,C3,1*%
%TO.N,+5V*%
X192720000Y-104605000D03*
%TD*%
%TO.P,C2,2*%
%TO.N,0V*%
X193670000Y-96190000D03*
%TO.P,C2,1*%
%TO.N,+5V*%
X193670000Y-94640000D03*
%TD*%
%TO.P,C1,2*%
%TO.N,0V*%
X194320000Y-106155000D03*
%TO.P,C1,1*%
%TO.N,+5V*%
X194320000Y-104605000D03*
%TD*%
D15*
%TO.P,TP5,1,1*%
%TO.N,/OPA300_En*%
X196840000Y-103930000D03*
%TD*%
D16*
%TO.P,J2,1,Pin_1*%
%TO.N,+5V*%
X201120000Y-97005000D03*
D17*
%TO.P,J2,2,Pin_2*%
X201120000Y-99545000D03*
%TD*%
D18*
%TO.P,R10,1*%
%TO.N,/OPA300_x10_-*%
X187440000Y-93390000D03*
%TO.P,R10,2*%
%TO.N,/OPA300_x10_Out*%
X186420000Y-93390000D03*
%TD*%
D15*
%TO.P,TP9,1,1*%
%TO.N,/OPA300_x10_-*%
X189120000Y-97640000D03*
%TD*%
D19*
%TO.P,R7,1*%
%TO.N,/OPA300_x10_+*%
X182820000Y-98790000D03*
%TO.P,R7,2*%
%TO.N,0V*%
X182820000Y-97770000D03*
%TD*%
D16*
%TO.P,J1,1,Pin_1*%
%TO.N,+V_photo*%
X175920000Y-107040000D03*
D17*
%TO.P,J1,2,Pin_2*%
X175920000Y-109580000D03*
%TD*%
D15*
%TO.P,TP6,1,1*%
%TO.N,/OPA300_TIA_-*%
X189505276Y-108380000D03*
%TD*%
D16*
%TO.P,J3,1,Pin_1*%
%TO.N,0V*%
X175920000Y-97005000D03*
D17*
%TO.P,J3,2,Pin_2*%
X175920000Y-99545000D03*
%TD*%
D15*
%TO.P,TP3,1,1*%
%TO.N,/OPA300_TIA_+*%
X184420000Y-105380000D03*
%TD*%
D20*
%TO.P,D3,1,A*%
%TO.N,/OPA300_TIA_-*%
X189505276Y-110064724D03*
D21*
%TO.P,D3,2,K*%
%TO.N,/BPX65_Cathode*%
X186965276Y-110064724D03*
%TD*%
D22*
%TO.P,JP1,1,A*%
%TO.N,/OPA300_En_Alt_Con*%
X201120000Y-103930000D03*
D23*
%TO.P,JP1,2,B*%
%TO.N,+5V*%
X201120000Y-102630000D03*
%TD*%
D15*
%TO.P,TP2,1,1*%
%TO.N,/BPX65_Cathode*%
X185170000Y-110064724D03*
%TD*%
D18*
%TO.P,R11,1*%
%TO.N,0V*%
X187440000Y-89630000D03*
%TO.P,R11,2*%
%TO.N,/OPA300_x10_Out_AC*%
X186420000Y-89630000D03*
%TD*%
D24*
%TO.P,R9,1*%
%TO.N,/OPA300_TIA_Out_AC*%
X187070000Y-97890000D03*
%TO.P,R9,2*%
%TO.N,/OPA300_x10_-*%
X188090000Y-97890000D03*
%TD*%
D25*
%TO.P,C9,2*%
%TO.N,0V*%
X184570000Y-107300000D03*
%TO.P,C9,1*%
%TO.N,/BPX65_Cathode*%
X184570000Y-108260000D03*
%TD*%
D26*
%TO.P,D1,1,K*%
%TO.N,0V*%
X180632500Y-104180000D03*
%TO.P,D1,2,A*%
%TO.N,Net-(D1-A)*%
X179057500Y-104180000D03*
%TD*%
D15*
%TO.P,TP10,1,1*%
%TO.N,/OPA300_x10_Out*%
X186420000Y-92390000D03*
%TD*%
%TO.P,TP4,1,1*%
%TO.N,/OPA300_x10_+*%
X184920000Y-96740000D03*
%TD*%
D27*
%TO.P,FID3,*%
%TO.N,*%
X176920000Y-82910000D03*
%TD*%
%TO.P,FID2,*%
%TO.N,*%
X199920000Y-82910000D03*
%TD*%
D28*
%TO.P,D2,1,K*%
%TO.N,0V*%
X196445000Y-94080000D03*
%TO.P,D2,2,A*%
%TO.N,Net-(D2-A)*%
X198020000Y-94080000D03*
%TD*%
D15*
%TO.P,TP7,1,1*%
%TO.N,/OPA300_TIA_Out*%
X187070000Y-101880000D03*
%TD*%
D25*
%TO.P,C11,1*%
%TO.N,/OPA300_TIA_Out*%
X187070000Y-100880000D03*
%TO.P,C11,2*%
%TO.N,/OPA300_TIA_Out_AC*%
X187070000Y-99920000D03*
%TD*%
D29*
%TO.P,C5,2*%
%TO.N,0V*%
X191420000Y-105360000D03*
%TO.P,C5,1*%
%TO.N,+5V*%
X191420000Y-104400000D03*
%TD*%
D19*
%TO.P,R6,1*%
%TO.N,/OPA300_TIA_+*%
X182820000Y-100790000D03*
%TO.P,R6,2*%
%TO.N,/OPA300_x10_+*%
X182820000Y-99770000D03*
%TD*%
D16*
%TO.P,J4,1,Pin_1*%
%TO.N,/OPA300_En_Alt_Con*%
X201120000Y-107040000D03*
D17*
%TO.P,J4,2,Pin_2*%
X201120000Y-109580000D03*
%TD*%
D30*
%TO.P,C10,1*%
%TO.N,/OPA300_TIA_-*%
X188030000Y-102880000D03*
%TO.P,C10,2*%
%TO.N,/OPA300_TIA_Out*%
X187070000Y-102880000D03*
%TD*%
D19*
%TO.P,R5,1*%
%TO.N,+5V*%
X182820000Y-102790000D03*
%TO.P,R5,2*%
%TO.N,/OPA300_TIA_+*%
X182820000Y-101770000D03*
%TD*%
D29*
%TO.P,C6,2*%
%TO.N,0V*%
X190770000Y-95350000D03*
%TO.P,C6,1*%
%TO.N,+5V*%
X190770000Y-94390000D03*
%TD*%
D18*
%TO.P,R8,1*%
%TO.N,/OPA300_TIA_-*%
X188090000Y-103880000D03*
%TO.P,R8,2*%
%TO.N,/OPA300_TIA_Out*%
X187070000Y-103880000D03*
%TD*%
D31*
%TO.P,R1,1*%
%TO.N,+V_photo*%
X175920000Y-104180000D03*
%TO.P,R1,2*%
%TO.N,Net-(D1-A)*%
X177570000Y-104180000D03*
%TD*%
D15*
%TO.P,TP8,1,1*%
%TO.N,/OPA300_TIA_Out_AC*%
X187070000Y-98880000D03*
%TD*%
D25*
%TO.P,C12,1*%
%TO.N,/OPA300_x10_Out*%
X186420000Y-91370000D03*
%TO.P,C12,2*%
%TO.N,/OPA300_x10_Out_AC*%
X186420000Y-90410000D03*
%TD*%
D31*
%TO.P,R3,1*%
%TO.N,+V_photo*%
X178595000Y-110615000D03*
%TO.P,R3,2*%
%TO.N,/BPX65_Cathode*%
X180245000Y-110615000D03*
%TD*%
D15*
%TO.P,TP1,1,1*%
%TO.N,+V_photo*%
X178595000Y-109180000D03*
%TD*%
D32*
%TO.P,U2,2,V-*%
%TO.N,0V*%
X186420000Y-95790000D03*
%TO.P,U2,1,OUT*%
%TO.N,/OPA300_x10_Out*%
X186420000Y-94840000D03*
%TO.P,U2,3,+*%
%TO.N,/OPA300_x10_+*%
X186420000Y-96740000D03*
%TO.P,U2,4,-*%
%TO.N,/OPA300_x10_-*%
X189120000Y-96740000D03*
%TO.P,U2,5,En*%
%TO.N,/OPA300_En*%
X189120000Y-95790000D03*
%TO.P,U2,6,V+*%
%TO.N,+5V*%
X189120000Y-94840000D03*
%TD*%
D15*
%TO.P,TP11,1,1*%
%TO.N,/OPA300_x10_Out_AC*%
X186420000Y-88630000D03*
%TD*%
D27*
%TO.P,FID1,*%
%TO.N,*%
X193920000Y-115380000D03*
%TD*%
D33*
%TO.P,R2,1*%
%TO.N,+5V*%
X201120000Y-94080000D03*
%TO.P,R2,2*%
%TO.N,Net-(D2-A)*%
X199470000Y-94080000D03*
%TD*%
D14*
%TO.P,C7,1*%
%TO.N,0V*%
X181670000Y-107540000D03*
%TO.P,C7,2*%
%TO.N,/BPX65_Cathode*%
X181670000Y-109090000D03*
%TD*%
D18*
%TO.P,R4,1*%
%TO.N,/OPA300_En_Alt_Con*%
X199340000Y-103930000D03*
%TO.P,R4,2*%
%TO.N,/OPA300_En*%
X198320000Y-103930000D03*
%TD*%
D32*
%TO.P,U1,2,V-*%
%TO.N,0V*%
X187070000Y-105780000D03*
%TO.P,U1,1,OUT*%
%TO.N,/OPA300_TIA_Out*%
X187070000Y-104830000D03*
%TO.P,U1,3,+*%
%TO.N,/OPA300_TIA_+*%
X187070000Y-106730000D03*
%TO.P,U1,4,-*%
%TO.N,/OPA300_TIA_-*%
X189770000Y-106730000D03*
%TO.P,U1,5,En*%
%TO.N,/OPA300_En*%
X189770000Y-105780000D03*
%TO.P,U1,6,V+*%
%TO.N,+5V*%
X189770000Y-104830000D03*
%TD*%
D34*
%TO.N,0V*%
X195770000Y-105880000D03*
X196720000Y-73580000D03*
X203020000Y-73630000D03*
X180070000Y-73680000D03*
X173770000Y-73680000D03*
X173820000Y-94830000D03*
X173820000Y-87830000D03*
X173720000Y-80980000D03*
X179970000Y-80930000D03*
X180370000Y-87730000D03*
X192170000Y-87680000D03*
X196870000Y-87280000D03*
X196720000Y-80830000D03*
X202970000Y-80980000D03*
X203120000Y-87080000D03*
X203020000Y-93180000D03*
X203070000Y-99880000D03*
X191820000Y-103280000D03*
X192270000Y-100730000D03*
X194670000Y-103280000D03*
X189220000Y-103280000D03*
X188270000Y-99580000D03*
X190120000Y-98630000D03*
X185870000Y-117530000D03*
X185770000Y-114130000D03*
X195620000Y-112980000D03*
X191370000Y-114130000D03*
X191420000Y-117380000D03*
X174720000Y-111280000D03*
X180870000Y-117380000D03*
X180870000Y-112080000D03*
X181520000Y-110430000D03*
X183870000Y-110330000D03*
X188070000Y-111180000D03*
X186170000Y-108580000D03*
X188220000Y-107730000D03*
X190820000Y-108230000D03*
X199720000Y-111230000D03*
X199520000Y-108480000D03*
X197770000Y-106480000D03*
X199720000Y-105530000D03*
X193420000Y-99080000D03*
X195670000Y-97180000D03*
X197620000Y-99930000D03*
X195020000Y-100780000D03*
X197070000Y-102580000D03*
X199470000Y-102680000D03*
X200120000Y-101130000D03*
X199420000Y-98030000D03*
X197420000Y-95980000D03*
X200120000Y-95280000D03*
X192870000Y-93430000D03*
X189220000Y-86680000D03*
X189370000Y-93780000D03*
X187820000Y-92230000D03*
X187020000Y-86030000D03*
X185520000Y-87680000D03*
X185220000Y-90730000D03*
X185320000Y-93580000D03*
X185970000Y-103730000D03*
X184920000Y-101980000D03*
X184020000Y-99480000D03*
X185970000Y-97930000D03*
X183420000Y-103780000D03*
X177320000Y-108580000D03*
X179970000Y-108680000D03*
X176920000Y-105380000D03*
X174720000Y-104380000D03*
X175542491Y-101792751D03*
X179970000Y-101580000D03*
X191620000Y-106080000D03*
X182820000Y-96980000D03*
%TO.N,+5V*%
X174820000Y-102790000D03*
%TO.N,0V*%
X192720000Y-107080000D03*
X188200000Y-89630000D03*
X192070000Y-97180000D03*
X181670000Y-106580000D03*
X183270000Y-106580000D03*
X185170000Y-95790000D03*
X190920000Y-96080000D03*
X193670000Y-97180000D03*
X181520000Y-104180000D03*
X185820000Y-105780000D03*
X195520000Y-94080000D03*
X194320000Y-107080000D03*
X184570000Y-106580000D03*
%TO.N,+5V*%
X195395000Y-104555000D03*
%TD*%
D35*
%TO.N,/OPA300_En*%
X189770000Y-105780000D02*
X190620000Y-105780000D01*
X195820000Y-107880000D02*
X196840000Y-106860000D01*
X190620000Y-105780000D02*
X190920000Y-106080000D01*
X190920000Y-106080000D02*
X190920000Y-106980000D01*
X190920000Y-106980000D02*
X191820000Y-107880000D01*
X196840000Y-106860000D02*
X196840000Y-103930000D01*
X191820000Y-107880000D02*
X195820000Y-107880000D01*
D36*
%TO.N,0V*%
X191420000Y-105360000D02*
X191420000Y-105880000D01*
X191420000Y-105880000D02*
X191620000Y-106080000D01*
X194320000Y-106205000D02*
X194320000Y-107080000D01*
X192720000Y-106205000D02*
X192720000Y-107080000D01*
%TO.N,+5V*%
X174820000Y-102790000D02*
X182820000Y-102790000D01*
D35*
%TO.N,/OPA300_x10_+*%
X182820000Y-98790000D02*
X183310000Y-98790000D01*
X183310000Y-98790000D02*
X183920000Y-98180000D01*
X183920000Y-98180000D02*
X183920000Y-97740000D01*
X183920000Y-97740000D02*
X184920000Y-96740000D01*
D36*
%TO.N,0V*%
X182820000Y-97770000D02*
X182820000Y-96980000D01*
X187440000Y-89630000D02*
X188200000Y-89630000D01*
X192070000Y-96240000D02*
X192070000Y-97180000D01*
X181670000Y-106580000D02*
X181670000Y-107540000D01*
X183270000Y-106580000D02*
X183270000Y-107490000D01*
X185170000Y-95790000D02*
X186420000Y-95790000D01*
X190770000Y-95930000D02*
X190920000Y-96080000D01*
X190770000Y-95350000D02*
X190770000Y-95930000D01*
X193670000Y-96240000D02*
X193670000Y-97180000D01*
X180632500Y-104180000D02*
X181520000Y-104180000D01*
X185820000Y-105780000D02*
X187070000Y-105780000D01*
X196445000Y-94080000D02*
X195520000Y-94080000D01*
X184570000Y-106580000D02*
X184570000Y-107300000D01*
D35*
%TO.N,/OPA300_TIA_+*%
X184420000Y-105380000D02*
X184420000Y-102880000D01*
X183310000Y-101770000D02*
X182820000Y-101770000D01*
X184420000Y-102880000D02*
X183310000Y-101770000D01*
X187070000Y-106730000D02*
X185770000Y-106730000D01*
X185770000Y-106730000D02*
X184420000Y-105380000D01*
X182820000Y-100790000D02*
X182820000Y-101770000D01*
%TO.N,/OPA300_x10_+*%
X182820000Y-98790000D02*
X182820000Y-99770000D01*
X186420000Y-96740000D02*
X184920000Y-96740000D01*
D36*
%TO.N,/OPA300_TIA_Out_AC*%
X187070000Y-99920000D02*
X187070000Y-98880000D01*
%TO.N,+5V*%
X193670000Y-94640000D02*
X194680000Y-94640000D01*
X194680000Y-94640000D02*
X197045000Y-97005000D01*
X197045000Y-97005000D02*
X201120000Y-97005000D01*
D35*
%TO.N,/OPA300_En*%
X189120000Y-95790000D02*
X189980000Y-95790000D01*
X189980000Y-95790000D02*
X190220000Y-96030000D01*
X190220000Y-96030000D02*
X190220000Y-97310000D01*
X190220000Y-97310000D02*
X196840000Y-103930000D01*
%TO.N,/OPA300_x10_Out_AC*%
X186420000Y-88630000D02*
X186420000Y-88130000D01*
X186420000Y-88130000D02*
X188420000Y-86130000D01*
X188420000Y-86130000D02*
X188420000Y-84460000D01*
X186420000Y-89630000D02*
X186420000Y-88630000D01*
%TO.N,/OPA300_x10_Out*%
X186420000Y-93390000D02*
X186420000Y-94840000D01*
X186420000Y-93390000D02*
X186420000Y-92390000D01*
X186420000Y-91370000D02*
X186420000Y-92390000D01*
%TO.N,/OPA300_x10_Out_AC*%
X186420000Y-90410000D02*
X186420000Y-89630000D01*
%TO.N,/OPA300_TIA_Out_AC*%
X187070000Y-98880000D02*
X187070000Y-97890000D01*
%TO.N,/OPA300_x10_-*%
X188180000Y-97890000D02*
X188870000Y-97890000D01*
X188870000Y-97890000D02*
X189120000Y-97640000D01*
X189120000Y-97640000D02*
X189120000Y-96740000D01*
%TO.N,/OPA300_TIA_Out*%
X187070000Y-102880000D02*
X187070000Y-101880000D01*
X187070000Y-100880000D02*
X187070000Y-101880000D01*
%TO.N,/OPA300_TIA_-*%
X188030000Y-102880000D02*
X188030000Y-103320000D01*
X188030000Y-103320000D02*
X188090000Y-103380000D01*
X188090000Y-103380000D02*
X188090000Y-103880000D01*
%TO.N,/OPA300_TIA_Out*%
X187070000Y-103880000D02*
X187070000Y-102880000D01*
X187070000Y-104830000D02*
X187070000Y-103880000D01*
%TO.N,/OPA300_TIA_-*%
X189770000Y-106730000D02*
X188870000Y-106730000D01*
X188870000Y-106730000D02*
X188420000Y-106280000D01*
X188420000Y-106280000D02*
X188420000Y-104210000D01*
X188420000Y-104210000D02*
X188090000Y-103880000D01*
X189505276Y-108380000D02*
X189505276Y-107630000D01*
X189505276Y-110064724D02*
X189505276Y-108380000D01*
X189770000Y-107365276D02*
X189505276Y-107630000D01*
X189770000Y-106730000D02*
X189770000Y-107365276D01*
D36*
%TO.N,/BPX65_Cathode*%
X180245000Y-109805000D02*
X180960000Y-109090000D01*
X181670000Y-109090000D02*
X182380000Y-109090000D01*
X182380000Y-109090000D02*
X182430000Y-109140000D01*
X185170000Y-108860000D02*
X185170000Y-110064724D01*
X184570000Y-108260000D02*
X185170000Y-108860000D01*
X182430000Y-109140000D02*
X183270000Y-109140000D01*
X183690000Y-109140000D02*
X184570000Y-108260000D01*
X183270000Y-109140000D02*
X183690000Y-109140000D01*
X180245000Y-110615000D02*
X180245000Y-109805000D01*
X180960000Y-109090000D02*
X181670000Y-109090000D01*
X186965276Y-110064724D02*
X185170000Y-110064724D01*
%TO.N,+5V*%
X191100000Y-104400000D02*
X191420000Y-104400000D01*
X191470000Y-94590000D02*
X192070000Y-94590000D01*
X189770000Y-104830000D02*
X190670000Y-104830000D01*
X192720000Y-104555000D02*
X194320000Y-104555000D01*
X190670000Y-104830000D02*
X191100000Y-104400000D01*
X190370000Y-94390000D02*
X190770000Y-94390000D01*
X201120000Y-97005000D02*
X201120000Y-94080000D01*
X201120000Y-102630000D02*
X201120000Y-99545000D01*
X192120000Y-104555000D02*
X192720000Y-104555000D01*
X191965000Y-104400000D02*
X192120000Y-104555000D01*
X189920000Y-94840000D02*
X190370000Y-94390000D01*
X201120000Y-99545000D02*
X201120000Y-97005000D01*
X190770000Y-94390000D02*
X191270000Y-94390000D01*
X191270000Y-94390000D02*
X191470000Y-94590000D01*
X189120000Y-94840000D02*
X189920000Y-94840000D01*
X192070000Y-94590000D02*
X193670000Y-94590000D01*
X195395000Y-104555000D02*
X194320000Y-104555000D01*
X191420000Y-104400000D02*
X191965000Y-104400000D01*
%TO.N,+V_photo*%
X176955000Y-110615000D02*
X178595000Y-110615000D01*
X175920000Y-107040000D02*
X175920000Y-109580000D01*
X175920000Y-104180000D02*
X175920000Y-107040000D01*
X175920000Y-109580000D02*
X176955000Y-110615000D01*
X178595000Y-109180000D02*
X178595000Y-110615000D01*
D35*
%TO.N,/OPA300_En_Alt_Con*%
X199340000Y-103930000D02*
X201120000Y-103930000D01*
X201120000Y-103930000D02*
X201120000Y-107040000D01*
X201120000Y-107040000D02*
X201120000Y-109580000D01*
%TO.N,/OPA300_x10_-*%
X187870000Y-93820000D02*
X187440000Y-93390000D01*
X188120000Y-96740000D02*
X187870000Y-96490000D01*
X189120000Y-96740000D02*
X188120000Y-96740000D01*
X187870000Y-96490000D02*
X187870000Y-93820000D01*
D36*
%TO.N,/OPA300_En*%
X196840000Y-103930000D02*
X198320000Y-103930000D01*
%TO.N,Net-(D1-A)*%
X177570000Y-104180000D02*
X179057500Y-104180000D01*
%TO.N,Net-(D2-A)*%
X199470000Y-94080000D02*
X198020000Y-94080000D01*
%TD*%
%TA.AperFunction,Conductor*%
%TO.N,0V*%
G36*
X183773168Y-103152785D02*
G01*
X183813098Y-103210120D01*
X183819500Y-103249448D01*
X183819500Y-104514216D01*
X183799815Y-104581255D01*
X183783181Y-104601897D01*
X183642863Y-104742214D01*
X183642860Y-104742218D01*
X183533371Y-104906079D01*
X183533364Y-104906092D01*
X183457950Y-105088160D01*
X183457947Y-105088170D01*
X183419500Y-105281456D01*
X183419500Y-105281459D01*
X183419500Y-105478541D01*
X183419500Y-105478543D01*
X183419499Y-105478543D01*
X183457947Y-105671829D01*
X183457950Y-105671839D01*
X183533364Y-105853907D01*
X183533371Y-105853920D01*
X183642860Y-106017781D01*
X183642863Y-106017785D01*
X183782214Y-106157136D01*
X183782218Y-106157139D01*
X183946079Y-106266628D01*
X183946092Y-106266635D01*
X184041012Y-106305951D01*
X184128165Y-106342051D01*
X184128167Y-106342051D01*
X184132746Y-106343948D01*
X184142371Y-106351704D01*
X184154172Y-106355398D01*
X184169066Y-106373216D01*
X184187150Y-106387788D01*
X184191054Y-106399519D01*
X184198984Y-106409005D01*
X184201881Y-106432047D01*
X184209215Y-106454082D01*
X184206157Y-106466061D01*
X184207700Y-106478329D01*
X184197678Y-106499280D01*
X184191936Y-106521782D01*
X184182152Y-106531742D01*
X184177553Y-106541360D01*
X184152699Y-106561730D01*
X184150474Y-106563996D01*
X183982291Y-106667915D01*
X183961955Y-106673496D01*
X183943446Y-106683599D01*
X183928939Y-106682558D01*
X183914913Y-106686409D01*
X183894787Y-106680110D01*
X183873756Y-106678602D01*
X183852014Y-106667967D01*
X183828486Y-106653454D01*
X183828481Y-106653452D01*
X183667606Y-106600144D01*
X183568322Y-106590000D01*
X183520000Y-106590000D01*
X183520000Y-107290000D01*
X183630000Y-107290000D01*
X183630000Y-107174000D01*
X183649685Y-107106961D01*
X183702489Y-107061206D01*
X183754000Y-107050000D01*
X185189403Y-107050000D01*
X185218843Y-107058644D01*
X185248830Y-107065168D01*
X185253845Y-107068922D01*
X185256442Y-107069685D01*
X185277084Y-107086319D01*
X185285139Y-107094374D01*
X185285149Y-107094385D01*
X185289479Y-107098715D01*
X185289480Y-107098716D01*
X185401284Y-107210520D01*
X185457856Y-107243181D01*
X185488095Y-107260639D01*
X185488097Y-107260641D01*
X185538213Y-107289576D01*
X185538215Y-107289577D01*
X185690942Y-107330500D01*
X185690943Y-107330500D01*
X185901514Y-107330500D01*
X185968553Y-107350185D01*
X185989196Y-107366820D01*
X186040607Y-107418232D01*
X186040608Y-107418233D01*
X186040610Y-107418234D01*
X186040612Y-107418236D01*
X186178398Y-107501531D01*
X186332113Y-107549430D01*
X186398909Y-107555500D01*
X187741090Y-107555499D01*
X187741097Y-107555499D01*
X187807882Y-107549431D01*
X187807885Y-107549430D01*
X187807887Y-107549430D01*
X187961602Y-107501531D01*
X188099388Y-107418236D01*
X188213236Y-107304388D01*
X188275247Y-107201808D01*
X188326773Y-107154624D01*
X188395632Y-107142785D01*
X188453384Y-107165021D01*
X188461764Y-107171000D01*
X188501284Y-107210520D01*
X188584419Y-107258517D01*
X188589273Y-107261980D01*
X188600754Y-107276607D01*
X188623367Y-107298769D01*
X188626764Y-107304388D01*
X188740612Y-107418236D01*
X188799308Y-107453719D01*
X188846495Y-107505246D01*
X188858333Y-107574106D01*
X188831064Y-107638434D01*
X188822838Y-107647516D01*
X188728139Y-107742214D01*
X188728136Y-107742218D01*
X188618647Y-107906079D01*
X188618640Y-107906092D01*
X188543226Y-108088160D01*
X188543223Y-108088170D01*
X188504776Y-108281456D01*
X188504776Y-108281459D01*
X188504776Y-108478541D01*
X188504776Y-108478543D01*
X188504775Y-108478543D01*
X188543223Y-108671829D01*
X188543226Y-108671839D01*
X188618640Y-108853907D01*
X188618647Y-108853920D01*
X188709563Y-108989985D01*
X188730441Y-109056663D01*
X188711956Y-109124043D01*
X188679348Y-109159193D01*
X188588348Y-109225309D01*
X188465864Y-109347793D01*
X188465864Y-109347794D01*
X188465862Y-109347796D01*
X188431901Y-109394539D01*
X188364044Y-109487935D01*
X188285404Y-109642276D01*
X188253207Y-109741368D01*
X188213769Y-109799044D01*
X188149411Y-109826242D01*
X188080564Y-109814327D01*
X188029089Y-109767083D01*
X188017345Y-109741368D01*
X187999448Y-109686287D01*
X187985149Y-109642279D01*
X187906508Y-109487936D01*
X187804690Y-109347796D01*
X187682204Y-109225310D01*
X187542064Y-109123492D01*
X187459563Y-109081456D01*
X187387723Y-109044852D01*
X187387722Y-109044851D01*
X187387721Y-109044851D01*
X187222977Y-108991322D01*
X187222975Y-108991321D01*
X187222974Y-108991321D01*
X187091547Y-108970505D01*
X187051887Y-108964224D01*
X186878665Y-108964224D01*
X186839004Y-108970505D01*
X186707578Y-108991321D01*
X186542828Y-109044852D01*
X186388487Y-109123492D01*
X186339350Y-109159193D01*
X186248348Y-109225310D01*
X186248346Y-109225312D01*
X186248345Y-109225312D01*
X186125861Y-109347796D01*
X186114735Y-109363111D01*
X186110403Y-109366450D01*
X186108131Y-109371427D01*
X186083030Y-109387558D01*
X186059404Y-109405776D01*
X186052733Y-109407028D01*
X186049353Y-109409201D01*
X186014418Y-109414224D01*
X185985783Y-109414224D01*
X185918744Y-109394539D01*
X185898102Y-109377905D01*
X185856819Y-109336622D01*
X185823334Y-109275299D01*
X185820500Y-109248941D01*
X185820500Y-108795928D01*
X185795502Y-108670261D01*
X185795501Y-108670260D01*
X185795501Y-108670256D01*
X185746465Y-108551873D01*
X185746464Y-108551872D01*
X185746461Y-108551866D01*
X185675277Y-108445332D01*
X185632805Y-108402860D01*
X185584669Y-108354724D01*
X185416817Y-108186871D01*
X185383334Y-108125550D01*
X185380500Y-108099192D01*
X185380500Y-108055317D01*
X185380499Y-108055302D01*
X185377643Y-108019008D01*
X185377642Y-108019002D01*
X185332495Y-107863609D01*
X185332494Y-107863605D01*
X185320089Y-107842630D01*
X185302906Y-107774909D01*
X185320091Y-107716384D01*
X185332032Y-107696194D01*
X185374504Y-107550000D01*
X185068352Y-107550000D01*
X185005233Y-107532732D01*
X184996395Y-107527506D01*
X184996393Y-107527505D01*
X184996389Y-107527503D01*
X184840997Y-107482357D01*
X184840991Y-107482356D01*
X184804697Y-107479500D01*
X184804690Y-107479500D01*
X184335310Y-107479500D01*
X184335302Y-107479500D01*
X184299008Y-107482356D01*
X184299002Y-107482357D01*
X184143609Y-107527504D01*
X184143606Y-107527505D01*
X184004315Y-107609881D01*
X184004307Y-107609887D01*
X183889887Y-107724307D01*
X183889880Y-107724316D01*
X183887038Y-107729123D01*
X183835968Y-107776806D01*
X183780307Y-107790000D01*
X180695001Y-107790000D01*
X180695001Y-107813322D01*
X180705144Y-107912607D01*
X180758452Y-108073481D01*
X180758457Y-108073492D01*
X180847424Y-108217728D01*
X180847427Y-108217732D01*
X180856660Y-108226965D01*
X180859115Y-108231462D01*
X180863404Y-108234272D01*
X180875694Y-108261823D01*
X180890145Y-108288288D01*
X180889779Y-108293399D01*
X180891868Y-108298081D01*
X180887312Y-108327896D01*
X180885161Y-108357980D01*
X180881879Y-108363455D01*
X180881315Y-108367149D01*
X180869931Y-108383392D01*
X180861973Y-108396671D01*
X180859400Y-108399587D01*
X180847032Y-108411956D01*
X180843638Y-108417456D01*
X180836645Y-108425386D01*
X180815667Y-108438607D01*
X180797228Y-108455189D01*
X180780534Y-108460751D01*
X180777536Y-108462641D01*
X180776059Y-108462628D01*
X180776090Y-108462729D01*
X180770257Y-108464498D01*
X180682152Y-108500993D01*
X180682151Y-108500993D01*
X180651876Y-108513532D01*
X180545326Y-108584726D01*
X180545325Y-108584727D01*
X179807181Y-109322872D01*
X179745858Y-109356357D01*
X179676166Y-109351373D01*
X179620233Y-109309501D01*
X179595816Y-109244037D01*
X179595500Y-109235191D01*
X179595500Y-109081456D01*
X179557052Y-108888170D01*
X179557051Y-108888169D01*
X179557051Y-108888165D01*
X179550432Y-108872184D01*
X179481635Y-108706092D01*
X179481628Y-108706079D01*
X179372139Y-108542218D01*
X179372136Y-108542214D01*
X179232785Y-108402863D01*
X179232781Y-108402860D01*
X179068920Y-108293371D01*
X179068907Y-108293364D01*
X178886839Y-108217950D01*
X178886829Y-108217947D01*
X178693543Y-108179500D01*
X178693541Y-108179500D01*
X178496459Y-108179500D01*
X178496457Y-108179500D01*
X178303170Y-108217947D01*
X178303160Y-108217950D01*
X178121092Y-108293364D01*
X178121079Y-108293371D01*
X177957218Y-108402860D01*
X177957214Y-108402863D01*
X177817863Y-108542214D01*
X177817860Y-108542218D01*
X177708371Y-108706079D01*
X177708364Y-108706092D01*
X177632950Y-108888160D01*
X177632947Y-108888170D01*
X177594500Y-109081456D01*
X177594500Y-109081459D01*
X177594500Y-109278541D01*
X177594500Y-109278543D01*
X177594499Y-109278543D01*
X177632947Y-109471829D01*
X177632950Y-109471839D01*
X177708364Y-109653907D01*
X177708371Y-109653920D01*
X177787009Y-109771609D01*
X177807887Y-109838286D01*
X177789403Y-109905667D01*
X177737424Y-109952357D01*
X177683907Y-109964500D01*
X177371620Y-109964500D01*
X177304581Y-109944815D01*
X177258826Y-109892011D01*
X177248882Y-109822853D01*
X177249147Y-109821102D01*
X177251377Y-109807026D01*
X177270500Y-109686287D01*
X177270500Y-109473713D01*
X177237246Y-109263757D01*
X177171557Y-109061588D01*
X177075051Y-108872184D01*
X177075049Y-108872181D01*
X177075048Y-108872179D01*
X176950109Y-108700213D01*
X176836569Y-108586673D01*
X176803084Y-108525350D01*
X176808068Y-108455658D01*
X176849940Y-108399725D01*
X176880915Y-108382810D01*
X177012331Y-108333796D01*
X177127546Y-108247546D01*
X177213796Y-108132331D01*
X177264091Y-107997483D01*
X177270500Y-107937873D01*
X177270499Y-107266677D01*
X180695000Y-107266677D01*
X180695000Y-107290000D01*
X181420000Y-107290000D01*
X181420000Y-106590000D01*
X181920000Y-106590000D01*
X181920000Y-107290000D01*
X183020000Y-107290000D01*
X183020000Y-106590000D01*
X183019999Y-106589999D01*
X182971693Y-106590000D01*
X182971675Y-106590001D01*
X182872392Y-106600144D01*
X182711518Y-106653452D01*
X182711507Y-106653457D01*
X182567271Y-106742424D01*
X182567267Y-106742427D01*
X182557681Y-106752014D01*
X182496358Y-106785499D01*
X182426666Y-106780515D01*
X182382319Y-106752014D01*
X182372732Y-106742427D01*
X182372728Y-106742424D01*
X182228492Y-106653457D01*
X182228481Y-106653452D01*
X182067606Y-106600144D01*
X181968322Y-106590000D01*
X181920000Y-106590000D01*
X181420000Y-106590000D01*
X181419999Y-106589999D01*
X181371693Y-106590000D01*
X181371675Y-106590001D01*
X181272392Y-106600144D01*
X181111518Y-106653452D01*
X181111507Y-106653457D01*
X180967271Y-106742424D01*
X180967267Y-106742427D01*
X180847427Y-106862267D01*
X180847424Y-106862271D01*
X180758457Y-107006507D01*
X180758452Y-107006518D01*
X180705144Y-107167393D01*
X180695000Y-107266677D01*
X177270499Y-107266677D01*
X177270499Y-107006518D01*
X177270499Y-106142129D01*
X177270498Y-106142123D01*
X177270497Y-106142116D01*
X177264091Y-106082517D01*
X177244130Y-106029000D01*
X177213797Y-105947671D01*
X177213793Y-105947664D01*
X177127547Y-105832455D01*
X177127544Y-105832452D01*
X177012335Y-105746206D01*
X177012328Y-105746202D01*
X176877482Y-105695908D01*
X176877483Y-105695908D01*
X176817883Y-105689501D01*
X176817881Y-105689500D01*
X176817873Y-105689500D01*
X176817865Y-105689500D01*
X176694500Y-105689500D01*
X176627461Y-105669815D01*
X176581706Y-105617011D01*
X176570500Y-105565500D01*
X176570500Y-105046519D01*
X176579143Y-105017082D01*
X176585667Y-104987093D01*
X176589422Y-104982076D01*
X176590185Y-104979480D01*
X176606818Y-104958839D01*
X176631478Y-104934179D01*
X176657319Y-104908337D01*
X176718640Y-104874853D01*
X176788331Y-104879837D01*
X176832680Y-104908338D01*
X176934811Y-105010469D01*
X176934813Y-105010470D01*
X176934815Y-105010472D01*
X177080394Y-105098478D01*
X177242804Y-105149086D01*
X177313384Y-105155500D01*
X177313387Y-105155500D01*
X177826613Y-105155500D01*
X177826616Y-105155500D01*
X177897196Y-105149086D01*
X178059606Y-105098478D01*
X178205185Y-105010472D01*
X178212806Y-105002850D01*
X178274125Y-104969362D01*
X178343817Y-104974341D01*
X178383775Y-105000018D01*
X178383946Y-104999803D01*
X178386144Y-105001541D01*
X178388173Y-105002845D01*
X178389608Y-105004280D01*
X178389612Y-105004283D01*
X178532704Y-105092544D01*
X178532707Y-105092545D01*
X178532713Y-105092549D01*
X178692315Y-105145436D01*
X178790826Y-105155500D01*
X178790831Y-105155500D01*
X179324169Y-105155500D01*
X179324174Y-105155500D01*
X179422685Y-105145436D01*
X179582287Y-105092549D01*
X179725391Y-105004281D01*
X179757672Y-104972000D01*
X179818995Y-104938515D01*
X179888687Y-104943499D01*
X179933034Y-104972000D01*
X179964919Y-105003885D01*
X180107922Y-105092091D01*
X180107927Y-105092093D01*
X180267416Y-105144942D01*
X180365856Y-105154999D01*
X180882500Y-105154999D01*
X180899136Y-105154999D01*
X180899152Y-105154998D01*
X180997583Y-105144943D01*
X181157072Y-105092093D01*
X181157077Y-105092091D01*
X181300080Y-105003885D01*
X181418885Y-104885080D01*
X181507091Y-104742077D01*
X181507093Y-104742072D01*
X181559942Y-104582583D01*
X181569999Y-104484150D01*
X181570000Y-104484137D01*
X181570000Y-104430000D01*
X180882500Y-104430000D01*
X180882500Y-105154999D01*
X180365856Y-105154999D01*
X180382500Y-105154998D01*
X180382500Y-104304000D01*
X180402185Y-104236961D01*
X180454989Y-104191206D01*
X180506500Y-104180000D01*
X180632500Y-104180000D01*
X180632500Y-104054000D01*
X180652185Y-103986961D01*
X180704989Y-103941206D01*
X180756500Y-103930000D01*
X181569999Y-103930000D01*
X181569999Y-103875864D01*
X181569998Y-103875847D01*
X181559943Y-103777416D01*
X181507093Y-103617928D01*
X181506616Y-103616904D01*
X181506499Y-103616134D01*
X181504821Y-103611070D01*
X181505686Y-103610783D01*
X181496125Y-103547826D01*
X181524646Y-103484042D01*
X181583122Y-103445803D01*
X181618999Y-103440500D01*
X182224315Y-103440500D01*
X182287435Y-103457767D01*
X182380607Y-103512869D01*
X182421268Y-103524682D01*
X182534791Y-103557664D01*
X182534794Y-103557664D01*
X182534796Y-103557665D01*
X182570819Y-103560500D01*
X183069180Y-103560499D01*
X183105204Y-103557665D01*
X183259393Y-103512869D01*
X183397598Y-103431135D01*
X183511135Y-103317598D01*
X183588768Y-103186326D01*
X183639837Y-103138644D01*
X183708578Y-103126140D01*
X183773168Y-103152785D01*
G37*
%TD.AperFunction*%
%TA.AperFunction,Conductor*%
G36*
X196207004Y-105056788D02*
G01*
X196237721Y-105119544D01*
X196239500Y-105140472D01*
X196239500Y-106559903D01*
X196219815Y-106626942D01*
X196203181Y-106647584D01*
X195607584Y-107243181D01*
X195546261Y-107276666D01*
X195519903Y-107279500D01*
X194927519Y-107279500D01*
X194860480Y-107259815D01*
X194814725Y-107207011D01*
X194804781Y-107137853D01*
X194833806Y-107074297D01*
X194875118Y-107043116D01*
X194878489Y-107041543D01*
X195022728Y-106952575D01*
X195022732Y-106952572D01*
X195142572Y-106832732D01*
X195142575Y-106832728D01*
X195231542Y-106688492D01*
X195231547Y-106688481D01*
X195284855Y-106527606D01*
X195294999Y-106428322D01*
X195295000Y-106428309D01*
X195295000Y-106405000D01*
X192844000Y-106405000D01*
X192776961Y-106385315D01*
X192731206Y-106332511D01*
X192720000Y-106281000D01*
X192720000Y-106029000D01*
X192739685Y-105961961D01*
X192792489Y-105916206D01*
X192844000Y-105905000D01*
X195294999Y-105905000D01*
X195294999Y-105881692D01*
X195294998Y-105881677D01*
X195284855Y-105782392D01*
X195231547Y-105621518D01*
X195231544Y-105621511D01*
X195182102Y-105541355D01*
X195163661Y-105473963D01*
X195184583Y-105407299D01*
X195238224Y-105362529D01*
X195307555Y-105353867D01*
X195311831Y-105354640D01*
X195316153Y-105355499D01*
X195316156Y-105355500D01*
X195316158Y-105355500D01*
X195473844Y-105355500D01*
X195473845Y-105355499D01*
X195628497Y-105324737D01*
X195741166Y-105278067D01*
X195774172Y-105264397D01*
X195774172Y-105264396D01*
X195774179Y-105264394D01*
X195905289Y-105176789D01*
X196016789Y-105065289D01*
X196016791Y-105065285D01*
X196019646Y-105061808D01*
X196077391Y-105022473D01*
X196147236Y-105020602D01*
X196207004Y-105056788D01*
G37*
%TD.AperFunction*%
%TA.AperFunction,Conductor*%
G36*
X185610699Y-97537177D02*
G01*
X185650324Y-97549524D01*
X185682113Y-97559430D01*
X185748909Y-97565500D01*
X186175500Y-97565499D01*
X186242539Y-97585183D01*
X186288294Y-97637987D01*
X186299500Y-97689499D01*
X186299500Y-98139169D01*
X186299502Y-98139196D01*
X186302681Y-98179610D01*
X186288314Y-98247987D01*
X186282165Y-98258225D01*
X186183371Y-98406079D01*
X186183364Y-98406092D01*
X186107950Y-98588160D01*
X186107947Y-98588170D01*
X186069500Y-98781456D01*
X186069500Y-98781459D01*
X186069500Y-98978541D01*
X186069500Y-98978543D01*
X186069499Y-98978543D01*
X186107947Y-99171829D01*
X186107950Y-99171839D01*
X186183364Y-99353907D01*
X186183371Y-99353920D01*
X186272158Y-99486798D01*
X186293036Y-99553475D01*
X186288133Y-99590282D01*
X186262358Y-99679004D01*
X186262356Y-99679013D01*
X186259500Y-99715302D01*
X186259500Y-100124697D01*
X186262356Y-100160991D01*
X186262357Y-100160997D01*
X186307504Y-100316391D01*
X186307506Y-100316397D01*
X186319620Y-100336880D01*
X186336801Y-100404604D01*
X186319620Y-100463120D01*
X186307506Y-100483602D01*
X186307504Y-100483608D01*
X186262357Y-100639002D01*
X186262356Y-100639008D01*
X186259500Y-100675302D01*
X186259500Y-101084697D01*
X186262356Y-101120986D01*
X186262357Y-101120993D01*
X186280032Y-101181833D01*
X186280034Y-101181838D01*
X186279834Y-101251708D01*
X186264059Y-101285323D01*
X186183371Y-101406079D01*
X186183364Y-101406092D01*
X186107950Y-101588160D01*
X186107947Y-101588170D01*
X186069500Y-101781456D01*
X186069500Y-101781459D01*
X186069500Y-101978541D01*
X186069500Y-101978543D01*
X186069499Y-101978543D01*
X186107947Y-102171829D01*
X186107950Y-102171839D01*
X186183364Y-102353907D01*
X186183371Y-102353920D01*
X186278893Y-102496878D01*
X186299771Y-102563556D01*
X186294869Y-102600357D01*
X186292359Y-102608997D01*
X186292356Y-102609013D01*
X186289500Y-102645302D01*
X186289500Y-103114697D01*
X186292356Y-103150991D01*
X186292357Y-103150997D01*
X186337504Y-103306390D01*
X186337507Y-103306397D01*
X186344675Y-103318518D01*
X186361858Y-103386242D01*
X186348250Y-103432589D01*
X186350230Y-103433446D01*
X186347129Y-103440611D01*
X186302335Y-103594791D01*
X186302334Y-103594797D01*
X186299500Y-103630811D01*
X186299500Y-103929491D01*
X186279815Y-103996530D01*
X186227011Y-104042285D01*
X186212390Y-104047876D01*
X186178403Y-104058466D01*
X186178400Y-104058467D01*
X186040608Y-104141766D01*
X185926766Y-104255608D01*
X185843469Y-104393397D01*
X185795569Y-104547116D01*
X185789500Y-104613911D01*
X185789500Y-105046098D01*
X185795568Y-105112882D01*
X185795571Y-105112893D01*
X185844200Y-105268951D01*
X185845351Y-105338811D01*
X185844201Y-105342730D01*
X185796066Y-105497205D01*
X185790000Y-105563956D01*
X185790000Y-105601403D01*
X185783761Y-105622648D01*
X185782182Y-105644737D01*
X185774109Y-105655520D01*
X185770315Y-105668442D01*
X185753581Y-105682941D01*
X185740310Y-105700670D01*
X185727689Y-105705377D01*
X185717511Y-105714197D01*
X185695593Y-105717348D01*
X185674846Y-105725087D01*
X185661685Y-105722224D01*
X185648353Y-105724141D01*
X185628209Y-105714941D01*
X185606573Y-105710235D01*
X185588847Y-105696966D01*
X185584797Y-105695116D01*
X185578319Y-105689084D01*
X185456819Y-105567584D01*
X185423334Y-105506261D01*
X185420500Y-105479903D01*
X185420500Y-105281456D01*
X185382052Y-105088170D01*
X185382051Y-105088169D01*
X185382051Y-105088165D01*
X185364801Y-105046519D01*
X185306635Y-104906092D01*
X185306628Y-104906079D01*
X185197139Y-104742218D01*
X185197136Y-104742214D01*
X185056819Y-104601897D01*
X185023334Y-104540574D01*
X185020500Y-104514216D01*
X185020500Y-102800945D01*
X185020500Y-102800943D01*
X184979577Y-102648216D01*
X184979577Y-102648215D01*
X184934524Y-102570181D01*
X184900520Y-102511284D01*
X184788716Y-102399480D01*
X184788715Y-102399479D01*
X184784385Y-102395149D01*
X184784374Y-102395139D01*
X183799439Y-101410204D01*
X183790521Y-101401286D01*
X183790520Y-101401284D01*
X183678716Y-101289480D01*
X183650170Y-101272999D01*
X183640099Y-101263742D01*
X183628849Y-101245055D01*
X183613797Y-101229269D01*
X183611184Y-101215710D01*
X183604063Y-101203882D01*
X183604702Y-101182078D01*
X183600575Y-101160662D01*
X183604937Y-101137854D01*
X183637664Y-101025208D01*
X183637664Y-101025206D01*
X183637665Y-101025204D01*
X183640500Y-100989181D01*
X183640499Y-100590820D01*
X183637665Y-100554796D01*
X183592869Y-100400607D01*
X183558869Y-100343117D01*
X183541688Y-100275398D01*
X183558869Y-100216882D01*
X183592869Y-100159393D01*
X183602954Y-100124682D01*
X183637664Y-100005208D01*
X183637664Y-100005206D01*
X183637665Y-100005204D01*
X183640500Y-99969181D01*
X183640499Y-99570820D01*
X183637665Y-99534796D01*
X183604937Y-99422145D01*
X183605136Y-99352276D01*
X183640022Y-99296328D01*
X183650121Y-99287028D01*
X183678716Y-99270520D01*
X183790520Y-99158716D01*
X183790521Y-99158713D01*
X184288713Y-98660521D01*
X184288716Y-98660520D01*
X184400520Y-98548716D01*
X184450639Y-98461904D01*
X184479577Y-98411785D01*
X184520500Y-98259058D01*
X184520500Y-98100943D01*
X184520500Y-98040096D01*
X184529144Y-98010655D01*
X184535668Y-97980669D01*
X184539422Y-97975653D01*
X184540185Y-97973057D01*
X184556815Y-97952419D01*
X184732415Y-97776818D01*
X184793738Y-97743334D01*
X184820096Y-97740500D01*
X185018543Y-97740500D01*
X185156595Y-97713039D01*
X185211835Y-97702051D01*
X185393914Y-97626632D01*
X185504920Y-97552459D01*
X185507023Y-97551800D01*
X185508497Y-97550156D01*
X185540209Y-97541409D01*
X185571595Y-97531582D01*
X185574390Y-97531982D01*
X185575852Y-97531579D01*
X185610699Y-97537177D01*
G37*
%TD.AperFunction*%
%TA.AperFunction,Conductor*%
G36*
X190175963Y-98115449D02*
G01*
X190180782Y-98120017D01*
X195610993Y-103550229D01*
X195644478Y-103611552D01*
X195639494Y-103681244D01*
X195597622Y-103737177D01*
X195532158Y-103761594D01*
X195499123Y-103759528D01*
X195473843Y-103754500D01*
X195473842Y-103754500D01*
X195316158Y-103754500D01*
X195316155Y-103754500D01*
X195161511Y-103785260D01*
X195161502Y-103785263D01*
X195116135Y-103804054D01*
X195046666Y-103811521D01*
X195003588Y-103795031D01*
X194878699Y-103717998D01*
X194878694Y-103717996D01*
X194717709Y-103664651D01*
X194618346Y-103654500D01*
X194021662Y-103654500D01*
X194021644Y-103654501D01*
X193922292Y-103664650D01*
X193922289Y-103664651D01*
X193761305Y-103717996D01*
X193761294Y-103718001D01*
X193616959Y-103807029D01*
X193616955Y-103807032D01*
X193607681Y-103816307D01*
X193546358Y-103849792D01*
X193476666Y-103844808D01*
X193432319Y-103816307D01*
X193423044Y-103807032D01*
X193423040Y-103807029D01*
X193278705Y-103718001D01*
X193278699Y-103717998D01*
X193278697Y-103717997D01*
X193167783Y-103681244D01*
X193117709Y-103664651D01*
X193018346Y-103654500D01*
X192421662Y-103654500D01*
X192421644Y-103654501D01*
X192322292Y-103664650D01*
X192322289Y-103664651D01*
X192161305Y-103717996D01*
X192161303Y-103717996D01*
X192161303Y-103717997D01*
X192161300Y-103717999D01*
X192131918Y-103736121D01*
X192109640Y-103742215D01*
X192089006Y-103752580D01*
X192072262Y-103752442D01*
X192064525Y-103754559D01*
X192053737Y-103753887D01*
X192048134Y-103753292D01*
X192029069Y-103749500D01*
X192012403Y-103749500D01*
X192005874Y-103748807D01*
X191985109Y-103740239D01*
X191955840Y-103732232D01*
X191933349Y-103718931D01*
X191846395Y-103667506D01*
X191846394Y-103667505D01*
X191846393Y-103667505D01*
X191846390Y-103667504D01*
X191690997Y-103622357D01*
X191690991Y-103622356D01*
X191654697Y-103619500D01*
X191654690Y-103619500D01*
X191185310Y-103619500D01*
X191185302Y-103619500D01*
X191149008Y-103622356D01*
X191149002Y-103622357D01*
X190993609Y-103667504D01*
X190993606Y-103667505D01*
X190854318Y-103749879D01*
X190854312Y-103749883D01*
X190766717Y-103837477D01*
X190759364Y-103844259D01*
X190753892Y-103848911D01*
X190685331Y-103894723D01*
X190601880Y-103978172D01*
X190598063Y-103981419D01*
X190570537Y-103993680D01*
X190544093Y-104008121D01*
X190537161Y-104008549D01*
X190534240Y-104009851D01*
X190529031Y-104009052D01*
X190506515Y-104010445D01*
X190464728Y-104006647D01*
X190441091Y-104004500D01*
X190441089Y-104004500D01*
X189098907Y-104004500D01*
X189078902Y-104006318D01*
X189063813Y-104003337D01*
X189048566Y-104005343D01*
X189030237Y-103996705D01*
X189010357Y-103992778D01*
X188998345Y-103981674D01*
X188985364Y-103975557D01*
X188965867Y-103951652D01*
X188962573Y-103948608D01*
X188961410Y-103946750D01*
X188900520Y-103841284D01*
X188886857Y-103827621D01*
X188879386Y-103815683D01*
X188873598Y-103795058D01*
X188863333Y-103776259D01*
X188860499Y-103749901D01*
X188860499Y-103630831D01*
X188860498Y-103630806D01*
X188857665Y-103594799D01*
X188857665Y-103594796D01*
X188812869Y-103440607D01*
X188780255Y-103385460D01*
X188763073Y-103317738D01*
X188767912Y-103287745D01*
X188768565Y-103285499D01*
X188807643Y-103150993D01*
X188810500Y-103114690D01*
X188810500Y-102645310D01*
X188807643Y-102609007D01*
X188807640Y-102608997D01*
X188762495Y-102453609D01*
X188762494Y-102453606D01*
X188762494Y-102453605D01*
X188680117Y-102314313D01*
X188680115Y-102314311D01*
X188680112Y-102314307D01*
X188565692Y-102199887D01*
X188565684Y-102199881D01*
X188463585Y-102139500D01*
X188426395Y-102117506D01*
X188426394Y-102117505D01*
X188426393Y-102117505D01*
X188426390Y-102117504D01*
X188270997Y-102072357D01*
X188270991Y-102072356D01*
X188234697Y-102069500D01*
X188234690Y-102069500D01*
X188194500Y-102069500D01*
X188127461Y-102049815D01*
X188081706Y-101997011D01*
X188070500Y-101945500D01*
X188070500Y-101781456D01*
X188032052Y-101588170D01*
X188032051Y-101588169D01*
X188032051Y-101588165D01*
X188024863Y-101570811D01*
X187956635Y-101406092D01*
X187956628Y-101406079D01*
X187875940Y-101285321D01*
X187855062Y-101218643D01*
X187859965Y-101181840D01*
X187877643Y-101120993D01*
X187880500Y-101084690D01*
X187880500Y-100675310D01*
X187877643Y-100639007D01*
X187853177Y-100554797D01*
X187832495Y-100483609D01*
X187832495Y-100483608D01*
X187832494Y-100483607D01*
X187832494Y-100483605D01*
X187820379Y-100463120D01*
X187803196Y-100395399D01*
X187820379Y-100336880D01*
X187832494Y-100316395D01*
X187877643Y-100160993D01*
X187880500Y-100124690D01*
X187880500Y-99715310D01*
X187877643Y-99679007D01*
X187851866Y-99590282D01*
X187852065Y-99520417D01*
X187867835Y-99486807D01*
X187956632Y-99353914D01*
X187957311Y-99352276D01*
X187991175Y-99270520D01*
X188032051Y-99171835D01*
X188050502Y-99079075D01*
X188070500Y-98978543D01*
X188070500Y-98834499D01*
X188090185Y-98767460D01*
X188142989Y-98721705D01*
X188194500Y-98710499D01*
X188289168Y-98710499D01*
X188289180Y-98710499D01*
X188325204Y-98707665D01*
X188479393Y-98662869D01*
X188601237Y-98590811D01*
X188624313Y-98577164D01*
X188625172Y-98578617D01*
X188681443Y-98556522D01*
X188739862Y-98565474D01*
X188828165Y-98602051D01*
X188828169Y-98602051D01*
X188828170Y-98602052D01*
X189021456Y-98640500D01*
X189021459Y-98640500D01*
X189218543Y-98640500D01*
X189348582Y-98614632D01*
X189411835Y-98602051D01*
X189593914Y-98526632D01*
X189757782Y-98417139D01*
X189897139Y-98277782D01*
X189940968Y-98212187D01*
X189989999Y-98138808D01*
X190043611Y-98094002D01*
X190112936Y-98085295D01*
X190175963Y-98115449D01*
G37*
%TD.AperFunction*%
%TA.AperFunction,Conductor*%
G36*
X194830465Y-95713035D02*
G01*
X194846888Y-95726834D01*
X196626372Y-97506319D01*
X196626375Y-97506321D01*
X196630331Y-97510277D01*
X196733932Y-97579500D01*
X196736873Y-97581465D01*
X196855256Y-97630501D01*
X196855260Y-97630501D01*
X196855261Y-97630502D01*
X196980928Y-97655500D01*
X196980931Y-97655500D01*
X199645501Y-97655500D01*
X199712540Y-97675185D01*
X199758295Y-97727989D01*
X199769501Y-97779500D01*
X199769501Y-97902876D01*
X199775908Y-97962483D01*
X199826202Y-98097328D01*
X199826206Y-98097335D01*
X199912452Y-98212544D01*
X199912455Y-98212547D01*
X200027664Y-98298793D01*
X200027671Y-98298797D01*
X200159082Y-98347810D01*
X200215016Y-98389681D01*
X200239433Y-98455145D01*
X200224582Y-98523418D01*
X200203431Y-98551673D01*
X200089889Y-98665215D01*
X199964951Y-98837179D01*
X199868444Y-99026585D01*
X199802753Y-99228760D01*
X199783233Y-99352007D01*
X199769500Y-99438713D01*
X199769500Y-99651287D01*
X199802754Y-99861243D01*
X199849531Y-100005208D01*
X199868444Y-100063414D01*
X199964951Y-100252820D01*
X200089890Y-100424786D01*
X200089896Y-100424792D01*
X200240208Y-100575104D01*
X200412184Y-100700051D01*
X200412188Y-100700053D01*
X200416126Y-100702914D01*
X200415146Y-100704262D01*
X200457160Y-100750690D01*
X200469500Y-100804617D01*
X200469500Y-101628586D01*
X200449815Y-101695625D01*
X200407501Y-101735973D01*
X200310243Y-101792125D01*
X200310232Y-101792132D01*
X200205555Y-101872455D01*
X200205545Y-101872464D01*
X200112464Y-101965545D01*
X200112455Y-101965555D01*
X200032132Y-102070232D01*
X200032120Y-102070250D01*
X199966303Y-102184248D01*
X199966302Y-102184249D01*
X199915800Y-102306170D01*
X199881724Y-102433341D01*
X199864500Y-102564166D01*
X199864500Y-103031230D01*
X199844815Y-103098269D01*
X199792011Y-103144024D01*
X199722853Y-103153968D01*
X199705906Y-103150307D01*
X199575202Y-103112334D01*
X199539181Y-103109500D01*
X199140830Y-103109500D01*
X199140808Y-103109501D01*
X199104794Y-103112335D01*
X198950611Y-103157129D01*
X198950604Y-103157132D01*
X198893119Y-103191128D01*
X198825395Y-103208309D01*
X198766881Y-103191128D01*
X198709395Y-103157132D01*
X198709388Y-103157129D01*
X198555208Y-103112335D01*
X198555202Y-103112334D01*
X198519181Y-103109500D01*
X198120830Y-103109500D01*
X198120808Y-103109501D01*
X198084794Y-103112335D01*
X197930611Y-103157129D01*
X197930606Y-103157131D01*
X197792404Y-103238863D01*
X197792396Y-103238869D01*
X197788085Y-103243181D01*
X197761157Y-103257884D01*
X197735339Y-103274477D01*
X197729138Y-103275368D01*
X197726762Y-103276666D01*
X197700404Y-103279500D01*
X197655783Y-103279500D01*
X197588744Y-103259815D01*
X197568106Y-103243185D01*
X197477782Y-103152861D01*
X197477781Y-103152860D01*
X197477780Y-103152859D01*
X197313920Y-103043371D01*
X197313907Y-103043364D01*
X197131839Y-102967950D01*
X197131829Y-102967947D01*
X196938543Y-102929500D01*
X196938541Y-102929500D01*
X196741459Y-102929500D01*
X196740098Y-102929500D01*
X196673059Y-102909815D01*
X196652417Y-102893181D01*
X190856819Y-97097583D01*
X190823334Y-97036260D01*
X190820500Y-97009902D01*
X190820500Y-96463322D01*
X191095001Y-96463322D01*
X191105144Y-96562607D01*
X191158452Y-96723481D01*
X191158457Y-96723492D01*
X191247424Y-96867728D01*
X191247427Y-96867732D01*
X191367267Y-96987572D01*
X191367271Y-96987575D01*
X191511507Y-97076542D01*
X191511518Y-97076547D01*
X191672393Y-97129855D01*
X191771683Y-97139999D01*
X192320000Y-97139999D01*
X192368308Y-97139999D01*
X192368322Y-97139998D01*
X192467607Y-97129855D01*
X192628481Y-97076547D01*
X192628492Y-97076542D01*
X192772728Y-96987575D01*
X192772732Y-96987572D01*
X192782319Y-96977986D01*
X192843642Y-96944501D01*
X192913334Y-96949485D01*
X192957681Y-96977986D01*
X192967267Y-96987572D01*
X192967271Y-96987575D01*
X193111507Y-97076542D01*
X193111518Y-97076547D01*
X193272393Y-97129855D01*
X193371683Y-97139999D01*
X193920000Y-97139999D01*
X193968308Y-97139999D01*
X193968322Y-97139998D01*
X194067607Y-97129855D01*
X194228481Y-97076547D01*
X194228492Y-97076542D01*
X194372728Y-96987575D01*
X194372732Y-96987572D01*
X194492572Y-96867732D01*
X194492575Y-96867728D01*
X194581542Y-96723492D01*
X194581547Y-96723481D01*
X194634855Y-96562606D01*
X194644999Y-96463322D01*
X194645000Y-96463309D01*
X194645000Y-96440000D01*
X193920000Y-96440000D01*
X193920000Y-97139999D01*
X193371683Y-97139999D01*
X193419999Y-97139998D01*
X193420000Y-97139998D01*
X193420000Y-96440000D01*
X192320000Y-96440000D01*
X192320000Y-97139999D01*
X191771683Y-97139999D01*
X191819999Y-97139998D01*
X191820000Y-97139998D01*
X191820000Y-96440000D01*
X191095001Y-96440000D01*
X191095001Y-96463322D01*
X190820500Y-96463322D01*
X190820500Y-96253999D01*
X190840185Y-96186960D01*
X190892989Y-96141205D01*
X190944500Y-96129999D01*
X190965000Y-96129999D01*
X190965000Y-96064000D01*
X190984685Y-95996961D01*
X191037489Y-95951206D01*
X191089000Y-95940000D01*
X194644999Y-95940000D01*
X194644999Y-95916692D01*
X194644998Y-95916677D01*
X194635849Y-95827117D01*
X194648619Y-95758424D01*
X194696499Y-95707540D01*
X194764289Y-95690619D01*
X194830465Y-95713035D01*
G37*
%TD.AperFunction*%
%TA.AperFunction,Conductor*%
G36*
X176170000Y-99111988D02*
G01*
X176112993Y-99079075D01*
X175985826Y-99045000D01*
X175854174Y-99045000D01*
X175727007Y-99079075D01*
X175670000Y-99111988D01*
X175670000Y-97438012D01*
X175727007Y-97470925D01*
X175854174Y-97505000D01*
X175985826Y-97505000D01*
X176112993Y-97470925D01*
X176170000Y-97438012D01*
X176170000Y-99111988D01*
G37*
%TD.AperFunction*%
%TA.AperFunction,Conductor*%
G36*
X203562539Y-72700185D02*
G01*
X203608294Y-72752989D01*
X203619500Y-72804500D01*
X203619500Y-118955500D01*
X203599815Y-119022539D01*
X203547011Y-119068294D01*
X203495500Y-119079500D01*
X173344500Y-119079500D01*
X173277461Y-119059815D01*
X173231706Y-119007011D01*
X173220500Y-118955500D01*
X173220500Y-115268549D01*
X175219500Y-115268549D01*
X175219500Y-115491450D01*
X175219501Y-115491466D01*
X175248594Y-115712452D01*
X175248595Y-115712457D01*
X175248596Y-115712463D01*
X175248597Y-115712465D01*
X175306290Y-115927780D01*
X175306293Y-115927790D01*
X175391593Y-116133722D01*
X175391595Y-116133726D01*
X175503052Y-116326774D01*
X175503057Y-116326780D01*
X175503058Y-116326782D01*
X175638751Y-116503622D01*
X175638757Y-116503629D01*
X175796370Y-116661242D01*
X175796377Y-116661248D01*
X175922294Y-116757867D01*
X175973226Y-116796948D01*
X176166274Y-116908405D01*
X176372219Y-116993710D01*
X176587537Y-117051404D01*
X176808543Y-117080500D01*
X176808550Y-117080500D01*
X177031450Y-117080500D01*
X177031457Y-117080500D01*
X177252463Y-117051404D01*
X177467781Y-116993710D01*
X177673726Y-116908405D01*
X177866774Y-116796948D01*
X178043624Y-116661247D01*
X178201247Y-116503624D01*
X178336948Y-116326774D01*
X178448405Y-116133726D01*
X178533710Y-115927781D01*
X178591404Y-115712463D01*
X178620500Y-115491457D01*
X178620500Y-115268543D01*
X178619626Y-115261902D01*
X192419500Y-115261902D01*
X192419500Y-115498097D01*
X192456446Y-115731368D01*
X192529433Y-115955996D01*
X192619990Y-116133722D01*
X192636657Y-116166433D01*
X192775483Y-116357510D01*
X192942490Y-116524517D01*
X193133567Y-116663343D01*
X193232991Y-116714002D01*
X193344003Y-116770566D01*
X193344005Y-116770566D01*
X193344008Y-116770568D01*
X193425194Y-116796947D01*
X193568631Y-116843553D01*
X193801903Y-116880500D01*
X193801908Y-116880500D01*
X194038097Y-116880500D01*
X194271368Y-116843553D01*
X194495992Y-116770568D01*
X194706433Y-116663343D01*
X194897510Y-116524517D01*
X195064517Y-116357510D01*
X195203343Y-116166433D01*
X195310568Y-115955992D01*
X195383553Y-115731368D01*
X195386549Y-115712452D01*
X195420500Y-115498097D01*
X195420500Y-115268549D01*
X198219500Y-115268549D01*
X198219500Y-115491450D01*
X198219501Y-115491466D01*
X198248594Y-115712452D01*
X198248595Y-115712457D01*
X198248596Y-115712463D01*
X198248597Y-115712465D01*
X198306290Y-115927780D01*
X198306293Y-115927790D01*
X198391593Y-116133722D01*
X198391595Y-116133726D01*
X198503052Y-116326774D01*
X198503057Y-116326780D01*
X198503058Y-116326782D01*
X198638751Y-116503622D01*
X198638757Y-116503629D01*
X198796370Y-116661242D01*
X198796377Y-116661248D01*
X198922294Y-116757867D01*
X198973226Y-116796948D01*
X199166274Y-116908405D01*
X199372219Y-116993710D01*
X199587537Y-117051404D01*
X199808543Y-117080500D01*
X199808550Y-117080500D01*
X200031450Y-117080500D01*
X200031457Y-117080500D01*
X200252463Y-117051404D01*
X200467781Y-116993710D01*
X200673726Y-116908405D01*
X200866774Y-116796948D01*
X201043624Y-116661247D01*
X201201247Y-116503624D01*
X201336948Y-116326774D01*
X201448405Y-116133726D01*
X201533710Y-115927781D01*
X201591404Y-115712463D01*
X201620500Y-115491457D01*
X201620500Y-115268543D01*
X201591404Y-115047537D01*
X201533710Y-114832219D01*
X201448405Y-114626274D01*
X201336948Y-114433226D01*
X201201247Y-114256376D01*
X201201242Y-114256370D01*
X201043629Y-114098757D01*
X201043622Y-114098751D01*
X200866782Y-113963058D01*
X200866780Y-113963057D01*
X200866774Y-113963052D01*
X200673726Y-113851595D01*
X200673722Y-113851593D01*
X200467790Y-113766293D01*
X200467783Y-113766291D01*
X200467781Y-113766290D01*
X200252463Y-113708596D01*
X200252457Y-113708595D01*
X200252452Y-113708594D01*
X200031466Y-113679501D01*
X200031463Y-113679500D01*
X200031457Y-113679500D01*
X199808543Y-113679500D01*
X199808537Y-113679500D01*
X199808533Y-113679501D01*
X199587547Y-113708594D01*
X199587540Y-113708595D01*
X199587537Y-113708596D01*
X199372219Y-113766290D01*
X199372209Y-113766293D01*
X199166277Y-113851593D01*
X199166273Y-113851595D01*
X198973226Y-113963052D01*
X198973217Y-113963058D01*
X198796377Y-114098751D01*
X198796370Y-114098757D01*
X198638757Y-114256370D01*
X198638751Y-114256377D01*
X198503058Y-114433217D01*
X198503052Y-114433226D01*
X198391595Y-114626273D01*
X198391593Y-114626277D01*
X198306293Y-114832209D01*
X198306290Y-114832219D01*
X198248597Y-115047534D01*
X198248594Y-115047547D01*
X198219501Y-115268533D01*
X198219500Y-115268549D01*
X195420500Y-115268549D01*
X195420500Y-115261902D01*
X195383553Y-115028631D01*
X195310566Y-114804003D01*
X195254002Y-114692991D01*
X195203343Y-114593567D01*
X195064517Y-114402490D01*
X194897510Y-114235483D01*
X194706433Y-114096657D01*
X194495996Y-113989433D01*
X194271368Y-113916446D01*
X194038097Y-113879500D01*
X194038092Y-113879500D01*
X193801908Y-113879500D01*
X193801903Y-113879500D01*
X193568631Y-113916446D01*
X193344003Y-113989433D01*
X193133566Y-114096657D01*
X193024550Y-114175862D01*
X192942490Y-114235483D01*
X192942488Y-114235485D01*
X192942487Y-114235485D01*
X192775485Y-114402487D01*
X192775485Y-114402488D01*
X192775483Y-114402490D01*
X192753152Y-114433226D01*
X192636657Y-114593566D01*
X192529433Y-114804003D01*
X192456446Y-115028631D01*
X192419500Y-115261902D01*
X178619626Y-115261902D01*
X178591404Y-115047537D01*
X178533710Y-114832219D01*
X178448405Y-114626274D01*
X178336948Y-114433226D01*
X178201247Y-114256376D01*
X178201242Y-114256370D01*
X178043629Y-114098757D01*
X178043622Y-114098751D01*
X177866782Y-113963058D01*
X177866780Y-113963057D01*
X177866774Y-113963052D01*
X177673726Y-113851595D01*
X177673722Y-113851593D01*
X177467790Y-113766293D01*
X177467783Y-113766291D01*
X177467781Y-113766290D01*
X177252463Y-113708596D01*
X177252457Y-113708595D01*
X177252452Y-113708594D01*
X177031466Y-113679501D01*
X177031463Y-113679500D01*
X177031457Y-113679500D01*
X176808543Y-113679500D01*
X176808537Y-113679500D01*
X176808533Y-113679501D01*
X176587547Y-113708594D01*
X176587540Y-113708595D01*
X176587537Y-113708596D01*
X176372219Y-113766290D01*
X176372209Y-113766293D01*
X176166277Y-113851593D01*
X176166273Y-113851595D01*
X175973226Y-113963052D01*
X175973217Y-113963058D01*
X175796377Y-114098751D01*
X175796370Y-114098757D01*
X175638757Y-114256370D01*
X175638751Y-114256377D01*
X175503058Y-114433217D01*
X175503052Y-114433226D01*
X175391595Y-114626273D01*
X175391593Y-114626277D01*
X175306293Y-114832209D01*
X175306290Y-114832219D01*
X175248597Y-115047534D01*
X175248594Y-115047547D01*
X175219501Y-115268533D01*
X175219500Y-115268549D01*
X173220500Y-115268549D01*
X173220500Y-102711153D01*
X174019500Y-102711153D01*
X174019500Y-102868846D01*
X174050261Y-103023489D01*
X174050264Y-103023501D01*
X174110602Y-103169172D01*
X174110609Y-103169185D01*
X174198210Y-103300288D01*
X174198213Y-103300292D01*
X174309707Y-103411786D01*
X174309711Y-103411789D01*
X174440814Y-103499390D01*
X174440827Y-103499397D01*
X174510901Y-103528422D01*
X174586503Y-103559737D01*
X174712638Y-103584827D01*
X174741153Y-103590499D01*
X174741156Y-103590500D01*
X174741158Y-103590500D01*
X174898840Y-103590500D01*
X174898842Y-103590500D01*
X174898843Y-103590499D01*
X174903947Y-103589997D01*
X174972593Y-103603016D01*
X175023304Y-103651080D01*
X175039979Y-103718931D01*
X175034488Y-103750288D01*
X175033176Y-103754500D01*
X175025914Y-103777804D01*
X175019500Y-103848384D01*
X175019500Y-104511616D01*
X175021216Y-104530500D01*
X175025913Y-104582192D01*
X175025913Y-104582194D01*
X175025914Y-104582196D01*
X175076522Y-104744606D01*
X175164528Y-104890185D01*
X175233182Y-104958839D01*
X175266666Y-105020160D01*
X175269500Y-105046519D01*
X175269500Y-105565500D01*
X175249815Y-105632539D01*
X175197011Y-105678294D01*
X175145501Y-105689500D01*
X175022130Y-105689500D01*
X175022123Y-105689501D01*
X174962516Y-105695908D01*
X174827671Y-105746202D01*
X174827664Y-105746206D01*
X174712455Y-105832452D01*
X174712452Y-105832455D01*
X174626206Y-105947664D01*
X174626202Y-105947671D01*
X174575908Y-106082517D01*
X174569501Y-106142116D01*
X174569501Y-106142123D01*
X174569500Y-106142135D01*
X174569500Y-107937870D01*
X174569501Y-107937876D01*
X174575908Y-107997483D01*
X174626202Y-108132328D01*
X174626206Y-108132335D01*
X174712452Y-108247544D01*
X174712455Y-108247547D01*
X174827664Y-108333793D01*
X174827671Y-108333797D01*
X174959082Y-108382810D01*
X175015016Y-108424681D01*
X175039433Y-108490145D01*
X175024582Y-108558418D01*
X175003431Y-108586673D01*
X174889889Y-108700215D01*
X174764951Y-108872179D01*
X174668444Y-109061585D01*
X174668443Y-109061587D01*
X174668443Y-109061588D01*
X174659884Y-109087929D01*
X174602753Y-109263760D01*
X174569500Y-109473713D01*
X174569500Y-109686286D01*
X174602083Y-109892011D01*
X174602754Y-109896243D01*
X174646104Y-110029661D01*
X174668444Y-110098414D01*
X174764951Y-110287820D01*
X174889890Y-110459786D01*
X175040213Y-110610109D01*
X175212179Y-110735048D01*
X175212181Y-110735049D01*
X175212184Y-110735051D01*
X175401588Y-110831557D01*
X175603757Y-110897246D01*
X175813713Y-110930500D01*
X175813714Y-110930500D01*
X176026286Y-110930500D01*
X176026287Y-110930500D01*
X176192748Y-110904135D01*
X176241055Y-110896484D01*
X176241315Y-110898128D01*
X176303852Y-110901250D01*
X176350711Y-110930657D01*
X176540325Y-111120272D01*
X176540326Y-111120273D01*
X176540329Y-111120275D01*
X176540331Y-111120277D01*
X176646873Y-111191465D01*
X176765256Y-111240501D01*
X176765260Y-111240501D01*
X176765261Y-111240502D01*
X176890928Y-111265500D01*
X176890931Y-111265500D01*
X177733511Y-111265500D01*
X177800550Y-111285185D01*
X177834237Y-111319808D01*
X177834906Y-111319285D01*
X177839531Y-111325189D01*
X177959811Y-111445469D01*
X177959813Y-111445470D01*
X177959815Y-111445472D01*
X178105394Y-111533478D01*
X178267804Y-111584086D01*
X178338384Y-111590500D01*
X178338387Y-111590500D01*
X178851613Y-111590500D01*
X178851616Y-111590500D01*
X178922196Y-111584086D01*
X179084606Y-111533478D01*
X179230185Y-111445472D01*
X179230189Y-111445468D01*
X179332319Y-111343339D01*
X179393642Y-111309854D01*
X179463334Y-111314838D01*
X179507681Y-111343339D01*
X179609811Y-111445469D01*
X179609813Y-111445470D01*
X179609815Y-111445472D01*
X179755394Y-111533478D01*
X179917804Y-111584086D01*
X179988384Y-111590500D01*
X179988387Y-111590500D01*
X180501613Y-111590500D01*
X180501616Y-111590500D01*
X180572196Y-111584086D01*
X180734606Y-111533478D01*
X180880185Y-111445472D01*
X181000472Y-111325185D01*
X181088478Y-111179606D01*
X181139086Y-111017196D01*
X181145500Y-110946616D01*
X181145500Y-110283384D01*
X181139086Y-110212804D01*
X181131763Y-110189306D01*
X181130612Y-110119450D01*
X181167412Y-110060057D01*
X181230481Y-110029988D01*
X181265432Y-110030891D01*
X181265558Y-110029661D01*
X181272291Y-110030348D01*
X181272292Y-110030349D01*
X181371655Y-110040500D01*
X181968344Y-110040499D01*
X181968352Y-110040498D01*
X181968355Y-110040498D01*
X182022760Y-110034940D01*
X182067708Y-110030349D01*
X182228697Y-109977003D01*
X182373044Y-109887968D01*
X182382319Y-109878693D01*
X182443642Y-109845208D01*
X182513334Y-109850192D01*
X182557681Y-109878693D01*
X182566955Y-109887967D01*
X182566959Y-109887970D01*
X182711294Y-109976998D01*
X182711297Y-109976999D01*
X182711303Y-109977003D01*
X182872292Y-110030349D01*
X182971655Y-110040500D01*
X183568344Y-110040499D01*
X183568352Y-110040498D01*
X183568355Y-110040498D01*
X183622760Y-110034940D01*
X183667708Y-110030349D01*
X183828697Y-109977003D01*
X183880400Y-109945112D01*
X183979191Y-109884177D01*
X183980694Y-109886613D01*
X184033344Y-109865353D01*
X184101991Y-109878371D01*
X184152701Y-109926436D01*
X184169500Y-109988756D01*
X184169500Y-110163265D01*
X184169500Y-110163267D01*
X184169499Y-110163267D01*
X184207947Y-110356553D01*
X184207950Y-110356563D01*
X184283364Y-110538631D01*
X184283371Y-110538644D01*
X184392860Y-110702505D01*
X184392863Y-110702509D01*
X184532214Y-110841860D01*
X184532218Y-110841863D01*
X184696079Y-110951352D01*
X184696092Y-110951359D01*
X184827903Y-111005956D01*
X184878165Y-111026775D01*
X184878169Y-111026775D01*
X184878170Y-111026776D01*
X185071456Y-111065224D01*
X185071459Y-111065224D01*
X185268543Y-111065224D01*
X185398582Y-111039356D01*
X185461835Y-111026775D01*
X185643914Y-110951356D01*
X185807782Y-110841863D01*
X185898103Y-110751541D01*
X185925034Y-110736835D01*
X185950848Y-110720247D01*
X185957047Y-110719355D01*
X185959424Y-110718058D01*
X185985783Y-110715224D01*
X186014418Y-110715224D01*
X186081457Y-110734909D01*
X186114734Y-110766336D01*
X186125862Y-110781652D01*
X186248348Y-110904138D01*
X186388488Y-111005956D01*
X186542831Y-111084597D01*
X186707575Y-111138126D01*
X186878665Y-111165224D01*
X186878666Y-111165224D01*
X187051886Y-111165224D01*
X187051887Y-111165224D01*
X187222977Y-111138126D01*
X187387721Y-111084597D01*
X187542064Y-111005956D01*
X187682204Y-110904138D01*
X187804690Y-110781652D01*
X187906508Y-110641512D01*
X187985149Y-110487169D01*
X188017346Y-110388077D01*
X188056782Y-110330403D01*
X188121141Y-110303205D01*
X188189987Y-110315120D01*
X188241463Y-110362364D01*
X188253205Y-110388074D01*
X188285403Y-110487169D01*
X188364044Y-110641512D01*
X188465862Y-110781652D01*
X188588348Y-110904138D01*
X188728488Y-111005956D01*
X188882831Y-111084597D01*
X189047575Y-111138126D01*
X189218665Y-111165224D01*
X189218666Y-111165224D01*
X189791886Y-111165224D01*
X189791887Y-111165224D01*
X189962977Y-111138126D01*
X190127721Y-111084597D01*
X190282064Y-111005956D01*
X190422204Y-110904138D01*
X190544690Y-110781652D01*
X190646508Y-110641512D01*
X190725149Y-110487169D01*
X190778678Y-110322425D01*
X190805776Y-110151335D01*
X190805776Y-109978113D01*
X190778678Y-109807023D01*
X190725149Y-109642279D01*
X190646508Y-109487936D01*
X190544690Y-109347796D01*
X190422204Y-109225310D01*
X190416996Y-109221526D01*
X190331204Y-109159193D01*
X190288538Y-109103863D01*
X190282560Y-109034250D01*
X190300988Y-108989985D01*
X190369026Y-108888160D01*
X190391908Y-108853914D01*
X190467327Y-108671835D01*
X190491191Y-108551866D01*
X190505776Y-108478543D01*
X190505776Y-108281456D01*
X190467328Y-108088170D01*
X190467327Y-108088169D01*
X190467327Y-108088165D01*
X190453715Y-108055302D01*
X190391911Y-107906092D01*
X190391904Y-107906079D01*
X190305595Y-107776909D01*
X190300808Y-107761621D01*
X190291515Y-107748570D01*
X190290581Y-107728962D01*
X190284717Y-107710232D01*
X190288917Y-107693978D01*
X190288194Y-107678779D01*
X190301308Y-107646023D01*
X190317779Y-107617494D01*
X190368348Y-107569281D01*
X190425164Y-107555499D01*
X190441097Y-107555499D01*
X190507880Y-107549431D01*
X190507882Y-107549430D01*
X190507887Y-107549430D01*
X190537195Y-107540296D01*
X190607054Y-107539145D01*
X190661766Y-107571001D01*
X191335139Y-108244374D01*
X191335149Y-108244385D01*
X191339479Y-108248715D01*
X191339480Y-108248716D01*
X191451284Y-108360520D01*
X191512297Y-108395745D01*
X191538095Y-108410639D01*
X191538097Y-108410641D01*
X191563636Y-108425386D01*
X191588215Y-108439577D01*
X191740942Y-108480500D01*
X191740943Y-108480500D01*
X195733331Y-108480500D01*
X195733347Y-108480501D01*
X195740943Y-108480501D01*
X195899054Y-108480501D01*
X195899057Y-108480501D01*
X196051785Y-108439577D01*
X196101904Y-108410639D01*
X196188716Y-108360520D01*
X196300520Y-108248716D01*
X196300520Y-108248714D01*
X196310728Y-108238507D01*
X196310730Y-108238504D01*
X197198506Y-107350728D01*
X197198511Y-107350724D01*
X197208714Y-107340520D01*
X197208716Y-107340520D01*
X197320520Y-107228716D01*
X197383831Y-107119057D01*
X197399577Y-107091785D01*
X197440501Y-106939057D01*
X197440501Y-106780943D01*
X197440501Y-106773348D01*
X197440500Y-106773330D01*
X197440500Y-104795783D01*
X197449144Y-104766342D01*
X197455668Y-104736356D01*
X197459422Y-104731340D01*
X197460185Y-104728744D01*
X197476819Y-104708102D01*
X197568102Y-104616819D01*
X197629425Y-104583334D01*
X197655783Y-104580500D01*
X197700404Y-104580500D01*
X197767443Y-104600185D01*
X197788085Y-104616819D01*
X197792396Y-104621130D01*
X197792400Y-104621133D01*
X197792402Y-104621135D01*
X197930607Y-104702869D01*
X197948619Y-104708102D01*
X198084791Y-104747664D01*
X198084794Y-104747664D01*
X198084796Y-104747665D01*
X198120819Y-104750500D01*
X198519180Y-104750499D01*
X198555204Y-104747665D01*
X198709393Y-104702869D01*
X198766882Y-104668869D01*
X198834602Y-104651688D01*
X198893117Y-104668869D01*
X198950607Y-104702869D01*
X198950610Y-104702869D01*
X198950612Y-104702871D01*
X199104791Y-104747664D01*
X199104794Y-104747664D01*
X199104796Y-104747665D01*
X199140819Y-104750500D01*
X199539180Y-104750499D01*
X199575204Y-104747665D01*
X199729393Y-104702869D01*
X199867598Y-104621135D01*
X199917753Y-104570979D01*
X199979072Y-104537496D01*
X200048763Y-104542479D01*
X200103807Y-104583174D01*
X200112459Y-104594449D01*
X200205551Y-104687541D01*
X200205555Y-104687544D01*
X200310232Y-104767867D01*
X200310236Y-104767869D01*
X200310243Y-104767875D01*
X200310250Y-104767879D01*
X200424249Y-104833697D01*
X200424257Y-104833701D01*
X200442951Y-104841444D01*
X200497355Y-104885284D01*
X200519421Y-104951578D01*
X200519500Y-104956006D01*
X200519500Y-105565500D01*
X200499815Y-105632539D01*
X200447011Y-105678294D01*
X200395501Y-105689500D01*
X200222130Y-105689500D01*
X200222123Y-105689501D01*
X200162516Y-105695908D01*
X200027671Y-105746202D01*
X200027664Y-105746206D01*
X199912455Y-105832452D01*
X199912452Y-105832455D01*
X199826206Y-105947664D01*
X199826202Y-105947671D01*
X199775908Y-106082517D01*
X199769501Y-106142116D01*
X199769501Y-106142123D01*
X199769500Y-106142135D01*
X199769500Y-107937870D01*
X199769501Y-107937876D01*
X199775908Y-107997483D01*
X199826202Y-108132328D01*
X199826206Y-108132335D01*
X199912452Y-108247544D01*
X199912455Y-108247547D01*
X200027664Y-108333793D01*
X200027671Y-108333797D01*
X200159082Y-108382810D01*
X200215016Y-108424681D01*
X200239433Y-108490145D01*
X200224582Y-108558418D01*
X200203431Y-108586673D01*
X200089889Y-108700215D01*
X199964951Y-108872179D01*
X199868444Y-109061585D01*
X199868443Y-109061587D01*
X199868443Y-109061588D01*
X199859884Y-109087929D01*
X199802753Y-109263760D01*
X199769500Y-109473713D01*
X199769500Y-109686286D01*
X199802083Y-109892011D01*
X199802754Y-109896243D01*
X199846104Y-110029661D01*
X199868444Y-110098414D01*
X199964951Y-110287820D01*
X200089890Y-110459786D01*
X200240213Y-110610109D01*
X200412179Y-110735048D01*
X200412181Y-110735049D01*
X200412184Y-110735051D01*
X200601588Y-110831557D01*
X200803757Y-110897246D01*
X201013713Y-110930500D01*
X201013714Y-110930500D01*
X201226286Y-110930500D01*
X201226287Y-110930500D01*
X201436243Y-110897246D01*
X201638412Y-110831557D01*
X201827816Y-110735051D01*
X201872612Y-110702505D01*
X201999786Y-110610109D01*
X201999788Y-110610106D01*
X201999792Y-110610104D01*
X202150104Y-110459792D01*
X202150106Y-110459788D01*
X202150109Y-110459786D01*
X202275048Y-110287820D01*
X202275047Y-110287820D01*
X202275051Y-110287816D01*
X202371557Y-110098412D01*
X202437246Y-109896243D01*
X202470500Y-109686287D01*
X202470500Y-109473713D01*
X202437246Y-109263757D01*
X202371557Y-109061588D01*
X202275051Y-108872184D01*
X202275049Y-108872181D01*
X202275048Y-108872179D01*
X202150109Y-108700213D01*
X202036569Y-108586673D01*
X202003084Y-108525350D01*
X202008068Y-108455658D01*
X202049940Y-108399725D01*
X202080915Y-108382810D01*
X202212331Y-108333796D01*
X202327546Y-108247546D01*
X202413796Y-108132331D01*
X202464091Y-107997483D01*
X202470500Y-107937873D01*
X202470499Y-106142128D01*
X202464091Y-106082517D01*
X202444130Y-106029000D01*
X202413797Y-105947671D01*
X202413793Y-105947664D01*
X202327547Y-105832455D01*
X202327544Y-105832452D01*
X202212335Y-105746206D01*
X202212328Y-105746202D01*
X202077482Y-105695908D01*
X202077483Y-105695908D01*
X202017883Y-105689501D01*
X202017881Y-105689500D01*
X202017873Y-105689500D01*
X202017865Y-105689500D01*
X201844500Y-105689500D01*
X201777461Y-105669815D01*
X201731706Y-105617011D01*
X201720500Y-105565500D01*
X201720500Y-104956006D01*
X201740185Y-104888967D01*
X201792989Y-104843212D01*
X201797033Y-104841450D01*
X201815743Y-104833701D01*
X201929757Y-104767875D01*
X202034449Y-104687541D01*
X202127541Y-104594449D01*
X202207875Y-104489757D01*
X202273701Y-104375743D01*
X202324200Y-104253829D01*
X202358275Y-104126662D01*
X202375500Y-103995826D01*
X202375500Y-103430000D01*
X202370355Y-103358060D01*
X202359396Y-103320740D01*
X202355636Y-103268158D01*
X202375500Y-103130000D01*
X202375500Y-102564174D01*
X202358275Y-102433338D01*
X202324200Y-102306171D01*
X202273701Y-102184257D01*
X202273698Y-102184252D01*
X202273697Y-102184249D01*
X202273696Y-102184248D01*
X202210131Y-102074151D01*
X202207875Y-102070243D01*
X202127541Y-101965551D01*
X202034449Y-101872459D01*
X202034444Y-101872455D01*
X201929767Y-101792132D01*
X201929761Y-101792128D01*
X201929757Y-101792125D01*
X201832499Y-101735973D01*
X201784284Y-101685406D01*
X201770500Y-101628586D01*
X201770500Y-100804617D01*
X201790185Y-100737578D01*
X201824592Y-100703902D01*
X201823874Y-100702914D01*
X201827811Y-100700053D01*
X201827816Y-100700051D01*
X201999792Y-100575104D01*
X202150104Y-100424792D01*
X202150106Y-100424788D01*
X202150109Y-100424786D01*
X202275048Y-100252820D01*
X202275047Y-100252820D01*
X202275051Y-100252816D01*
X202371557Y-100063412D01*
X202437246Y-99861243D01*
X202470500Y-99651287D01*
X202470500Y-99438713D01*
X202437246Y-99228757D01*
X202371557Y-99026588D01*
X202275051Y-98837184D01*
X202275049Y-98837181D01*
X202275048Y-98837179D01*
X202150109Y-98665213D01*
X202036569Y-98551673D01*
X202003084Y-98490350D01*
X202008068Y-98420658D01*
X202049940Y-98364725D01*
X202080915Y-98347810D01*
X202212331Y-98298796D01*
X202327546Y-98212546D01*
X202413796Y-98097331D01*
X202464091Y-97962483D01*
X202470500Y-97902873D01*
X202470499Y-96107128D01*
X202464091Y-96047517D01*
X202432516Y-95962861D01*
X202413797Y-95912671D01*
X202413793Y-95912664D01*
X202327547Y-95797455D01*
X202327544Y-95797452D01*
X202212335Y-95711206D01*
X202212328Y-95711202D01*
X202077482Y-95660908D01*
X202077483Y-95660908D01*
X202017883Y-95654501D01*
X202017881Y-95654500D01*
X202017873Y-95654500D01*
X202017865Y-95654500D01*
X201894500Y-95654500D01*
X201827461Y-95634815D01*
X201781706Y-95582011D01*
X201770500Y-95530500D01*
X201770500Y-94946519D01*
X201790185Y-94879480D01*
X201806814Y-94858842D01*
X201875472Y-94790185D01*
X201963478Y-94644606D01*
X202014086Y-94482196D01*
X202020500Y-94411616D01*
X202020500Y-93748384D01*
X202014086Y-93677804D01*
X201963478Y-93515394D01*
X201875472Y-93369815D01*
X201875470Y-93369813D01*
X201875469Y-93369811D01*
X201755188Y-93249530D01*
X201609606Y-93161522D01*
X201543205Y-93140831D01*
X201447196Y-93110914D01*
X201447194Y-93110913D01*
X201447192Y-93110913D01*
X201397778Y-93106423D01*
X201376616Y-93104500D01*
X200863384Y-93104500D01*
X200844145Y-93106248D01*
X200792807Y-93110913D01*
X200630393Y-93161522D01*
X200484811Y-93249530D01*
X200484810Y-93249531D01*
X200382681Y-93351661D01*
X200321358Y-93385146D01*
X200251666Y-93380162D01*
X200207319Y-93351661D01*
X200105188Y-93249530D01*
X199959606Y-93161522D01*
X199893205Y-93140831D01*
X199797196Y-93110914D01*
X199797194Y-93110913D01*
X199797192Y-93110913D01*
X199747778Y-93106423D01*
X199726616Y-93104500D01*
X199213384Y-93104500D01*
X199194145Y-93106248D01*
X199142807Y-93110913D01*
X198980393Y-93161522D01*
X198834814Y-93249527D01*
X198833695Y-93250405D01*
X198832723Y-93250791D01*
X198828396Y-93253408D01*
X198827960Y-93252688D01*
X198768782Y-93276253D01*
X198700200Y-93262904D01*
X198692126Y-93258331D01*
X198544795Y-93167455D01*
X198544789Y-93167452D01*
X198544787Y-93167451D01*
X198385185Y-93114564D01*
X198385183Y-93114563D01*
X198286681Y-93104500D01*
X198286674Y-93104500D01*
X197753326Y-93104500D01*
X197753318Y-93104500D01*
X197654816Y-93114563D01*
X197654815Y-93114564D01*
X197575719Y-93140773D01*
X197495215Y-93167450D01*
X197495204Y-93167455D01*
X197352112Y-93255716D01*
X197352107Y-93255719D01*
X197319827Y-93288000D01*
X197258503Y-93321485D01*
X197188812Y-93316499D01*
X197144467Y-93288000D01*
X197112580Y-93256114D01*
X196969577Y-93167908D01*
X196969572Y-93167906D01*
X196810083Y-93115057D01*
X196711650Y-93105000D01*
X196695000Y-93105000D01*
X196695000Y-95054999D01*
X196711636Y-95054999D01*
X196711652Y-95054998D01*
X196810083Y-95044943D01*
X196969572Y-94992093D01*
X196969577Y-94992091D01*
X197112580Y-94903885D01*
X197144466Y-94872000D01*
X197205789Y-94838515D01*
X197275481Y-94843499D01*
X197319828Y-94872000D01*
X197352108Y-94904280D01*
X197352112Y-94904283D01*
X197495204Y-94992544D01*
X197495207Y-94992545D01*
X197495213Y-94992549D01*
X197654815Y-95045436D01*
X197753326Y-95055500D01*
X197753331Y-95055500D01*
X198286669Y-95055500D01*
X198286674Y-95055500D01*
X198385185Y-95045436D01*
X198544787Y-94992549D01*
X198687891Y-94904281D01*
X198687894Y-94904277D01*
X198692125Y-94901668D01*
X198759517Y-94883227D01*
X198826181Y-94904149D01*
X198833695Y-94909594D01*
X198834810Y-94910467D01*
X198834815Y-94910472D01*
X198980394Y-94998478D01*
X199142804Y-95049086D01*
X199213384Y-95055500D01*
X199213387Y-95055500D01*
X199726613Y-95055500D01*
X199726616Y-95055500D01*
X199797196Y-95049086D01*
X199959606Y-94998478D01*
X200105185Y-94910472D01*
X200207320Y-94808336D01*
X200215265Y-94803998D01*
X200220690Y-94796752D01*
X200245446Y-94787518D01*
X200268641Y-94774853D01*
X200277671Y-94775498D01*
X200286154Y-94772335D01*
X200311974Y-94777951D01*
X200338333Y-94779837D01*
X200347386Y-94785655D01*
X200354427Y-94787187D01*
X200382681Y-94808338D01*
X200433181Y-94858838D01*
X200466666Y-94920161D01*
X200469500Y-94946519D01*
X200469500Y-95530500D01*
X200449815Y-95597539D01*
X200397011Y-95643294D01*
X200345501Y-95654500D01*
X200222130Y-95654500D01*
X200222123Y-95654501D01*
X200162516Y-95660908D01*
X200027671Y-95711202D01*
X200027664Y-95711206D01*
X199912455Y-95797452D01*
X199912452Y-95797455D01*
X199826206Y-95912664D01*
X199826202Y-95912671D01*
X199775908Y-96047517D01*
X199770028Y-96102214D01*
X199769501Y-96107123D01*
X199769500Y-96107135D01*
X199769500Y-96230500D01*
X199749815Y-96297539D01*
X199697011Y-96343294D01*
X199645500Y-96354500D01*
X197365808Y-96354500D01*
X197298769Y-96334815D01*
X197278127Y-96318181D01*
X196192653Y-95232707D01*
X196159168Y-95171384D01*
X196164152Y-95101692D01*
X196192652Y-95057346D01*
X196195000Y-95054997D01*
X196195000Y-94330000D01*
X195507500Y-94330000D01*
X195486403Y-94351097D01*
X195425080Y-94384581D01*
X195355388Y-94379596D01*
X195311042Y-94351096D01*
X195094674Y-94134727D01*
X195094673Y-94134726D01*
X194995511Y-94068469D01*
X194988127Y-94063535D01*
X194869744Y-94014499D01*
X194869742Y-94014498D01*
X194869741Y-94014498D01*
X194864903Y-94013536D01*
X194864898Y-94013535D01*
X194744071Y-93989500D01*
X194744069Y-93989500D01*
X194571874Y-93989500D01*
X194542433Y-93980855D01*
X194512447Y-93974332D01*
X194507431Y-93970577D01*
X194504835Y-93969815D01*
X194484193Y-93953181D01*
X194373044Y-93842032D01*
X194373040Y-93842029D01*
X194265747Y-93775849D01*
X195507500Y-93775849D01*
X195507500Y-93830000D01*
X196195000Y-93830000D01*
X196195000Y-93104999D01*
X196178356Y-93105000D01*
X196079915Y-93115057D01*
X195920427Y-93167906D01*
X195920422Y-93167908D01*
X195777419Y-93256114D01*
X195658614Y-93374919D01*
X195570408Y-93517922D01*
X195570406Y-93517927D01*
X195517557Y-93677416D01*
X195507500Y-93775849D01*
X194265747Y-93775849D01*
X194228705Y-93753001D01*
X194228699Y-93752998D01*
X194228697Y-93752997D01*
X194156366Y-93729029D01*
X194067709Y-93699651D01*
X193968346Y-93689500D01*
X193371662Y-93689500D01*
X193371644Y-93689501D01*
X193272292Y-93699650D01*
X193272289Y-93699651D01*
X193111305Y-93752996D01*
X193111294Y-93753001D01*
X192966959Y-93842029D01*
X192966955Y-93842032D01*
X192957681Y-93851307D01*
X192896358Y-93884792D01*
X192826666Y-93879808D01*
X192782319Y-93851307D01*
X192773044Y-93842032D01*
X192773040Y-93842029D01*
X192628705Y-93753001D01*
X192628699Y-93752998D01*
X192628697Y-93752997D01*
X192556366Y-93729029D01*
X192467709Y-93699651D01*
X192368346Y-93689500D01*
X191771662Y-93689500D01*
X191771644Y-93689501D01*
X191672292Y-93699650D01*
X191672286Y-93699652D01*
X191504447Y-93755268D01*
X191503656Y-93752881D01*
X191494064Y-93754335D01*
X191474027Y-93762219D01*
X191450413Y-93760952D01*
X191446269Y-93761581D01*
X191438784Y-93760329D01*
X191356264Y-93743914D01*
X191317335Y-93729029D01*
X191230061Y-93677416D01*
X191196395Y-93657506D01*
X191196394Y-93657505D01*
X191196393Y-93657505D01*
X191196390Y-93657504D01*
X191040997Y-93612357D01*
X191040991Y-93612356D01*
X191004697Y-93609500D01*
X191004690Y-93609500D01*
X190535310Y-93609500D01*
X190535302Y-93609500D01*
X190499008Y-93612356D01*
X190499002Y-93612357D01*
X190343609Y-93657504D01*
X190343606Y-93657505D01*
X190204314Y-93739881D01*
X190196740Y-93747456D01*
X190156516Y-93774332D01*
X190061873Y-93813534D01*
X189962687Y-93879808D01*
X189955331Y-93884723D01*
X189861870Y-93978182D01*
X189800548Y-94011666D01*
X189774191Y-94014500D01*
X188594501Y-94014500D01*
X188527462Y-93994815D01*
X188481707Y-93942011D01*
X188470501Y-93890500D01*
X188470501Y-93740945D01*
X188470501Y-93740943D01*
X188429577Y-93588215D01*
X188388872Y-93517713D01*
X188350520Y-93451284D01*
X188246817Y-93347581D01*
X188213333Y-93286258D01*
X188210499Y-93259900D01*
X188210499Y-93140831D01*
X188210498Y-93140806D01*
X188208146Y-93110914D01*
X188207665Y-93104796D01*
X188162869Y-92950607D01*
X188081135Y-92812402D01*
X188081133Y-92812400D01*
X188081130Y-92812396D01*
X187967603Y-92698869D01*
X187967595Y-92698863D01*
X187829393Y-92617131D01*
X187829388Y-92617129D01*
X187675208Y-92572335D01*
X187675202Y-92572334D01*
X187639188Y-92569500D01*
X187639181Y-92569500D01*
X187544500Y-92569500D01*
X187477461Y-92549815D01*
X187431706Y-92497011D01*
X187420500Y-92445500D01*
X187420500Y-92291456D01*
X187382052Y-92098170D01*
X187382051Y-92098169D01*
X187382051Y-92098165D01*
X187382049Y-92098160D01*
X187306635Y-91916092D01*
X187306628Y-91916079D01*
X187221890Y-91789260D01*
X187201012Y-91722582D01*
X187205916Y-91685775D01*
X187227643Y-91610993D01*
X187230500Y-91574690D01*
X187230500Y-91165310D01*
X187227643Y-91129007D01*
X187182494Y-90973605D01*
X187170379Y-90953120D01*
X187153196Y-90885399D01*
X187170379Y-90826880D01*
X187182494Y-90806395D01*
X187227643Y-90650993D01*
X187230500Y-90614690D01*
X187230500Y-90442843D01*
X187690000Y-90442843D01*
X187829194Y-90402404D01*
X187967285Y-90320738D01*
X187967294Y-90320731D01*
X188080731Y-90207294D01*
X188080738Y-90207285D01*
X188162406Y-90069191D01*
X188162407Y-90069188D01*
X188207166Y-89915128D01*
X188207167Y-89915122D01*
X188209931Y-89880000D01*
X187690000Y-89880000D01*
X187690000Y-90442843D01*
X187230500Y-90442843D01*
X187230500Y-90205310D01*
X187227643Y-90169007D01*
X187198643Y-90069191D01*
X187194924Y-90056388D01*
X187190000Y-90021793D01*
X187190000Y-89890408D01*
X187190382Y-89880679D01*
X187190500Y-89879181D01*
X187190499Y-89380820D01*
X187190434Y-89380000D01*
X187190382Y-89379332D01*
X187190000Y-89369607D01*
X187190000Y-89316082D01*
X187209685Y-89249043D01*
X187210898Y-89247191D01*
X187306628Y-89103920D01*
X187306628Y-89103919D01*
X187306632Y-89103914D01*
X187382051Y-88921835D01*
X187402874Y-88817154D01*
X187690000Y-88817154D01*
X187690000Y-89380000D01*
X188209931Y-89380000D01*
X188207167Y-89344877D01*
X188207166Y-89344871D01*
X188162407Y-89190811D01*
X188162406Y-89190808D01*
X188080738Y-89052714D01*
X188080731Y-89052705D01*
X187967294Y-88939268D01*
X187967285Y-88939261D01*
X187829191Y-88857593D01*
X187829188Y-88857591D01*
X187690001Y-88817153D01*
X187690000Y-88817154D01*
X187402874Y-88817154D01*
X187402874Y-88817153D01*
X187420011Y-88731003D01*
X187420500Y-88728543D01*
X187420500Y-88531456D01*
X187382052Y-88338170D01*
X187382051Y-88338169D01*
X187382051Y-88338165D01*
X187319743Y-88187740D01*
X187312275Y-88118273D01*
X187343550Y-88055794D01*
X187346596Y-88052637D01*
X188788713Y-86610521D01*
X188788716Y-86610520D01*
X188900520Y-86498716D01*
X188950639Y-86411904D01*
X188979577Y-86361785D01*
X189020500Y-86209057D01*
X189020500Y-86050943D01*
X189020500Y-85852924D01*
X189040185Y-85785885D01*
X189083040Y-85747117D01*
X189082285Y-85745884D01*
X189086418Y-85743350D01*
X189086433Y-85743343D01*
X189277510Y-85604517D01*
X189444517Y-85437510D01*
X189583343Y-85246433D01*
X189690568Y-85035992D01*
X189763553Y-84811368D01*
X189788637Y-84652993D01*
X189800500Y-84578097D01*
X189800500Y-84341902D01*
X189763553Y-84108631D01*
X189715259Y-83960000D01*
X189690568Y-83884008D01*
X189690566Y-83884005D01*
X189690566Y-83884003D01*
X189634002Y-83772991D01*
X189583343Y-83673567D01*
X189444517Y-83482490D01*
X189277510Y-83315483D01*
X189086433Y-83176657D01*
X188875996Y-83069433D01*
X188651368Y-82996446D01*
X188418097Y-82959500D01*
X188418092Y-82959500D01*
X188181908Y-82959500D01*
X188181903Y-82959500D01*
X187948631Y-82996446D01*
X187724003Y-83069433D01*
X187513566Y-83176657D01*
X187404550Y-83255862D01*
X187322490Y-83315483D01*
X187322488Y-83315485D01*
X187322487Y-83315485D01*
X187155485Y-83482487D01*
X187155480Y-83482493D01*
X187150005Y-83490029D01*
X187094673Y-83532692D01*
X187025059Y-83538667D01*
X186963266Y-83506058D01*
X186949372Y-83490022D01*
X186944139Y-83482819D01*
X186777186Y-83315866D01*
X186586171Y-83177085D01*
X186375802Y-83069897D01*
X186151247Y-82996934D01*
X186050000Y-82980897D01*
X186050000Y-84026988D01*
X185992993Y-83994075D01*
X185865826Y-83960000D01*
X185734174Y-83960000D01*
X185607007Y-83994075D01*
X185550000Y-84026988D01*
X185550000Y-82980897D01*
X185448752Y-82996934D01*
X185224197Y-83069897D01*
X185013828Y-83177085D01*
X184822813Y-83315866D01*
X184655866Y-83482813D01*
X184517085Y-83673828D01*
X184409897Y-83884197D01*
X184336934Y-84108752D01*
X184320898Y-84210000D01*
X185366988Y-84210000D01*
X185334075Y-84267007D01*
X185300000Y-84394174D01*
X185300000Y-84525826D01*
X185334075Y-84652993D01*
X185366988Y-84710000D01*
X184320898Y-84710000D01*
X184336934Y-84811247D01*
X184409897Y-85035802D01*
X184517085Y-85246171D01*
X184655866Y-85437186D01*
X184822813Y-85604133D01*
X185013828Y-85742914D01*
X185224195Y-85850102D01*
X185448744Y-85923063D01*
X185448750Y-85923065D01*
X185550000Y-85939101D01*
X185550000Y-84893012D01*
X185607007Y-84925925D01*
X185734174Y-84960000D01*
X185865826Y-84960000D01*
X185992993Y-84925925D01*
X186050000Y-84893012D01*
X186050000Y-85939100D01*
X186151249Y-85923065D01*
X186151255Y-85923063D01*
X186375804Y-85850102D01*
X186586171Y-85742914D01*
X186777186Y-85604133D01*
X186944137Y-85437182D01*
X186949369Y-85429981D01*
X187004696Y-85387312D01*
X187074309Y-85381329D01*
X187136106Y-85413932D01*
X187150008Y-85429974D01*
X187155247Y-85437186D01*
X187155483Y-85437510D01*
X187322490Y-85604517D01*
X187513567Y-85743343D01*
X187655533Y-85815678D01*
X187706329Y-85863652D01*
X187723124Y-85931473D01*
X187700587Y-85997608D01*
X187686919Y-86013844D01*
X186051286Y-87649478D01*
X186051284Y-87649480D01*
X186028058Y-87672706D01*
X185982831Y-87717932D01*
X185950826Y-87739318D01*
X185951457Y-87740497D01*
X185946083Y-87743369D01*
X185782222Y-87852857D01*
X185782214Y-87852863D01*
X185642863Y-87992214D01*
X185642860Y-87992218D01*
X185533371Y-88156079D01*
X185533364Y-88156092D01*
X185457950Y-88338160D01*
X185457947Y-88338170D01*
X185419500Y-88531456D01*
X185419500Y-88531459D01*
X185419500Y-88728541D01*
X185419500Y-88728543D01*
X185419499Y-88728543D01*
X185457947Y-88921829D01*
X185457950Y-88921839D01*
X185533364Y-89103907D01*
X185533371Y-89103920D01*
X185633443Y-89253688D01*
X185654321Y-89320366D01*
X185652491Y-89342807D01*
X185649500Y-89380811D01*
X185649500Y-89879169D01*
X185649501Y-89879191D01*
X185652335Y-89915204D01*
X185652335Y-89915205D01*
X185659164Y-89938711D01*
X185659163Y-90007900D01*
X185612357Y-90169002D01*
X185612356Y-90169008D01*
X185609500Y-90205302D01*
X185609500Y-90614697D01*
X185612356Y-90650991D01*
X185612357Y-90650997D01*
X185657504Y-90806391D01*
X185657506Y-90806397D01*
X185669620Y-90826880D01*
X185686801Y-90894604D01*
X185669620Y-90953120D01*
X185657506Y-90973602D01*
X185657504Y-90973608D01*
X185612357Y-91129002D01*
X185612356Y-91129008D01*
X185609500Y-91165302D01*
X185609500Y-91574697D01*
X185612356Y-91610991D01*
X185612357Y-91610997D01*
X185634083Y-91685775D01*
X185633884Y-91755644D01*
X185618109Y-91789261D01*
X185533371Y-91916079D01*
X185533364Y-91916092D01*
X185457950Y-92098160D01*
X185457947Y-92098170D01*
X185419500Y-92291456D01*
X185419500Y-92291459D01*
X185419500Y-92488541D01*
X185419500Y-92488543D01*
X185419499Y-92488543D01*
X185457947Y-92681829D01*
X185457950Y-92681839D01*
X185533364Y-92863907D01*
X185533371Y-92863920D01*
X185633443Y-93013688D01*
X185654321Y-93080366D01*
X185652491Y-93102807D01*
X185649500Y-93140811D01*
X185649500Y-93639169D01*
X185649501Y-93639191D01*
X185652335Y-93675205D01*
X185697129Y-93829388D01*
X185697131Y-93829393D01*
X185710491Y-93851983D01*
X185727674Y-93919707D01*
X185705514Y-93985969D01*
X185651048Y-94029733D01*
X185640650Y-94033489D01*
X185528400Y-94068468D01*
X185390608Y-94151766D01*
X185276766Y-94265608D01*
X185193469Y-94403397D01*
X185145569Y-94557116D01*
X185139500Y-94623911D01*
X185139500Y-95056098D01*
X185145568Y-95122882D01*
X185145571Y-95122893D01*
X185194200Y-95278951D01*
X185195351Y-95348811D01*
X185194201Y-95352730D01*
X185146066Y-95507205D01*
X185140000Y-95573956D01*
X185140000Y-95615500D01*
X185120315Y-95682539D01*
X185067511Y-95728294D01*
X185016000Y-95739500D01*
X184821457Y-95739500D01*
X184628170Y-95777947D01*
X184628160Y-95777950D01*
X184446092Y-95853364D01*
X184446079Y-95853371D01*
X184282218Y-95962860D01*
X184282214Y-95962863D01*
X184142863Y-96102214D01*
X184142860Y-96102218D01*
X184033371Y-96266079D01*
X184033364Y-96266092D01*
X183957950Y-96448160D01*
X183957947Y-96448170D01*
X183919500Y-96641456D01*
X183919500Y-96839902D01*
X183899815Y-96906941D01*
X183883181Y-96927583D01*
X183627076Y-97183688D01*
X183565753Y-97217173D01*
X183496061Y-97212189D01*
X183451714Y-97183688D01*
X183397294Y-97129268D01*
X183397285Y-97129261D01*
X183259191Y-97047593D01*
X183259188Y-97047592D01*
X183105130Y-97002834D01*
X183070000Y-97000068D01*
X183070000Y-97646000D01*
X183050315Y-97713039D01*
X182997511Y-97758794D01*
X182946000Y-97770000D01*
X182820000Y-97770000D01*
X182820000Y-97895500D01*
X182817514Y-97903966D01*
X182818802Y-97912697D01*
X182807820Y-97936977D01*
X182800315Y-97962539D01*
X182793647Y-97968316D01*
X182790010Y-97976359D01*
X182767643Y-97990848D01*
X182747511Y-98008294D01*
X182737234Y-98010549D01*
X182731371Y-98014348D01*
X182697337Y-98019305D01*
X182696455Y-98019499D01*
X182695977Y-98019500D01*
X182570820Y-98019501D01*
X182564706Y-98019981D01*
X182560062Y-98019999D01*
X182560010Y-98019984D01*
X182559607Y-98020000D01*
X182007156Y-98020000D01*
X182047594Y-98159193D01*
X182081419Y-98216388D01*
X182098601Y-98284112D01*
X182081419Y-98342628D01*
X182047130Y-98400607D01*
X182047129Y-98400611D01*
X182002335Y-98554791D01*
X182002334Y-98554797D01*
X181999500Y-98590811D01*
X181999500Y-98989169D01*
X181999501Y-98989191D01*
X182002335Y-99025205D01*
X182047130Y-99179391D01*
X182047134Y-99179400D01*
X182069299Y-99216880D01*
X182086482Y-99284604D01*
X182069299Y-99343120D01*
X182047134Y-99380599D01*
X182047130Y-99380608D01*
X182002335Y-99534791D01*
X182002334Y-99534797D01*
X181999500Y-99570811D01*
X181999500Y-99969169D01*
X181999501Y-99969191D01*
X182002335Y-100005205D01*
X182047129Y-100159388D01*
X182047132Y-100159395D01*
X182081128Y-100216881D01*
X182098309Y-100284605D01*
X182081128Y-100343119D01*
X182047132Y-100400604D01*
X182047129Y-100400611D01*
X182002335Y-100554791D01*
X182002334Y-100554797D01*
X181999500Y-100590811D01*
X181999500Y-100989169D01*
X181999501Y-100989191D01*
X182002335Y-101025205D01*
X182047130Y-101179391D01*
X182047134Y-101179400D01*
X182069299Y-101216880D01*
X182086482Y-101284604D01*
X182069299Y-101343120D01*
X182047134Y-101380599D01*
X182047130Y-101380608D01*
X182002335Y-101534791D01*
X182002334Y-101534797D01*
X181999500Y-101570811D01*
X181999500Y-101969169D01*
X181999501Y-101969191D01*
X182002380Y-102005774D01*
X181988014Y-102074151D01*
X181938962Y-102123907D01*
X181878762Y-102139500D01*
X175324935Y-102139500D01*
X175257896Y-102119815D01*
X175256090Y-102118633D01*
X175199179Y-102080606D01*
X175199172Y-102080602D01*
X175053501Y-102020264D01*
X175053489Y-102020261D01*
X174898845Y-101989500D01*
X174898842Y-101989500D01*
X174741158Y-101989500D01*
X174741155Y-101989500D01*
X174586510Y-102020261D01*
X174586498Y-102020264D01*
X174440827Y-102080602D01*
X174440814Y-102080609D01*
X174309711Y-102168210D01*
X174309707Y-102168213D01*
X174198213Y-102279707D01*
X174198210Y-102279711D01*
X174110609Y-102410814D01*
X174110602Y-102410827D01*
X174050264Y-102556498D01*
X174050261Y-102556510D01*
X174019500Y-102711153D01*
X173220500Y-102711153D01*
X173220500Y-96107155D01*
X174570000Y-96107155D01*
X174570000Y-96755000D01*
X175486988Y-96755000D01*
X175454075Y-96812007D01*
X175420000Y-96939174D01*
X175420000Y-97070826D01*
X175454075Y-97197993D01*
X175486988Y-97255000D01*
X174570000Y-97255000D01*
X174570000Y-97902844D01*
X174576401Y-97962372D01*
X174576403Y-97962379D01*
X174626645Y-98097086D01*
X174626649Y-98097093D01*
X174712809Y-98212187D01*
X174712812Y-98212190D01*
X174827906Y-98298350D01*
X174827913Y-98298354D01*
X174959986Y-98347614D01*
X175015920Y-98389485D01*
X175040337Y-98454949D01*
X175025486Y-98523222D01*
X175004335Y-98551477D01*
X174890271Y-98665541D01*
X174765379Y-98837442D01*
X174668904Y-99026782D01*
X174603242Y-99228870D01*
X174603242Y-99228873D01*
X174592769Y-99295000D01*
X175486988Y-99295000D01*
X175454075Y-99352007D01*
X175420000Y-99479174D01*
X175420000Y-99610826D01*
X175454075Y-99737993D01*
X175486988Y-99795000D01*
X174592769Y-99795000D01*
X174603242Y-99861126D01*
X174603242Y-99861129D01*
X174668904Y-100063217D01*
X174765379Y-100252557D01*
X174890272Y-100424459D01*
X174890276Y-100424464D01*
X175040535Y-100574723D01*
X175040540Y-100574727D01*
X175212442Y-100699620D01*
X175401782Y-100796095D01*
X175603871Y-100861757D01*
X175670000Y-100872231D01*
X175670000Y-99978012D01*
X175727007Y-100010925D01*
X175854174Y-100045000D01*
X175985826Y-100045000D01*
X176112993Y-100010925D01*
X176170000Y-99978012D01*
X176170000Y-100872230D01*
X176236126Y-100861757D01*
X176236129Y-100861757D01*
X176438217Y-100796095D01*
X176627557Y-100699620D01*
X176799459Y-100574727D01*
X176799464Y-100574723D01*
X176949723Y-100424464D01*
X176949727Y-100424459D01*
X177074620Y-100252557D01*
X177171095Y-100063217D01*
X177236757Y-99861129D01*
X177236757Y-99861126D01*
X177247231Y-99795000D01*
X176353012Y-99795000D01*
X176385925Y-99737993D01*
X176420000Y-99610826D01*
X176420000Y-99479174D01*
X176385925Y-99352007D01*
X176353012Y-99295000D01*
X177247231Y-99295000D01*
X177236757Y-99228873D01*
X177236757Y-99228870D01*
X177171095Y-99026782D01*
X177074620Y-98837442D01*
X176949727Y-98665540D01*
X176949723Y-98665535D01*
X176835665Y-98551477D01*
X176802180Y-98490154D01*
X176807164Y-98420462D01*
X176849036Y-98364529D01*
X176880013Y-98347614D01*
X177012086Y-98298354D01*
X177012093Y-98298350D01*
X177127187Y-98212190D01*
X177127190Y-98212187D01*
X177213350Y-98097093D01*
X177213354Y-98097086D01*
X177263596Y-97962379D01*
X177263598Y-97962372D01*
X177269999Y-97902844D01*
X177270000Y-97902827D01*
X177270000Y-97520000D01*
X182007156Y-97520000D01*
X182570000Y-97520000D01*
X182570000Y-97000068D01*
X182569999Y-97000068D01*
X182534869Y-97002834D01*
X182534868Y-97002834D01*
X182380811Y-97047592D01*
X182380808Y-97047593D01*
X182242714Y-97129261D01*
X182242705Y-97129268D01*
X182129268Y-97242705D01*
X182129261Y-97242714D01*
X182047595Y-97380805D01*
X182007156Y-97520000D01*
X177270000Y-97520000D01*
X177270000Y-97255000D01*
X176353012Y-97255000D01*
X176385925Y-97197993D01*
X176420000Y-97070826D01*
X176420000Y-96939174D01*
X176385925Y-96812007D01*
X176353012Y-96755000D01*
X177270000Y-96755000D01*
X177270000Y-96107172D01*
X177269999Y-96107155D01*
X177263598Y-96047627D01*
X177263596Y-96047620D01*
X177213354Y-95912913D01*
X177213350Y-95912906D01*
X177127190Y-95797812D01*
X177127187Y-95797809D01*
X177012093Y-95711649D01*
X177012086Y-95711645D01*
X176877379Y-95661403D01*
X176877372Y-95661401D01*
X176817844Y-95655000D01*
X176170000Y-95655000D01*
X176170000Y-96571988D01*
X176112993Y-96539075D01*
X175985826Y-96505000D01*
X175854174Y-96505000D01*
X175727007Y-96539075D01*
X175670000Y-96571988D01*
X175670000Y-95655000D01*
X175022155Y-95655000D01*
X174962627Y-95661401D01*
X174962620Y-95661403D01*
X174827913Y-95711645D01*
X174827906Y-95711649D01*
X174712812Y-95797809D01*
X174712809Y-95797812D01*
X174626649Y-95912906D01*
X174626645Y-95912913D01*
X174576403Y-96047620D01*
X174576401Y-96047627D01*
X174570000Y-96107155D01*
X173220500Y-96107155D01*
X173220500Y-82791902D01*
X175419500Y-82791902D01*
X175419500Y-83028097D01*
X175456446Y-83261368D01*
X175529433Y-83485996D01*
X175625006Y-83673566D01*
X175636657Y-83696433D01*
X175775483Y-83887510D01*
X175942490Y-84054517D01*
X176133567Y-84193343D01*
X176232991Y-84244002D01*
X176344003Y-84300566D01*
X176344005Y-84300566D01*
X176344008Y-84300568D01*
X176464412Y-84339689D01*
X176568631Y-84373553D01*
X176801903Y-84410500D01*
X176801908Y-84410500D01*
X177038097Y-84410500D01*
X177271368Y-84373553D01*
X177495992Y-84300568D01*
X177706433Y-84193343D01*
X177897510Y-84054517D01*
X178064517Y-83887510D01*
X178203343Y-83696433D01*
X178310568Y-83485992D01*
X178383553Y-83261368D01*
X178413879Y-83069897D01*
X178420500Y-83028097D01*
X178420500Y-82791902D01*
X198419500Y-82791902D01*
X198419500Y-83028097D01*
X198456446Y-83261368D01*
X198529433Y-83485996D01*
X198625006Y-83673566D01*
X198636657Y-83696433D01*
X198775483Y-83887510D01*
X198942490Y-84054517D01*
X199133567Y-84193343D01*
X199232991Y-84244002D01*
X199344003Y-84300566D01*
X199344005Y-84300566D01*
X199344008Y-84300568D01*
X199464412Y-84339689D01*
X199568631Y-84373553D01*
X199801903Y-84410500D01*
X199801908Y-84410500D01*
X200038097Y-84410500D01*
X200271368Y-84373553D01*
X200495992Y-84300568D01*
X200706433Y-84193343D01*
X200897510Y-84054517D01*
X201064517Y-83887510D01*
X201203343Y-83696433D01*
X201310568Y-83485992D01*
X201383553Y-83261368D01*
X201413879Y-83069897D01*
X201420500Y-83028097D01*
X201420500Y-82791902D01*
X201383553Y-82558631D01*
X201310566Y-82334003D01*
X201203342Y-82123566D01*
X201064517Y-81932490D01*
X200897510Y-81765483D01*
X200706433Y-81626657D01*
X200495996Y-81519433D01*
X200271368Y-81446446D01*
X200038097Y-81409500D01*
X200038092Y-81409500D01*
X199801908Y-81409500D01*
X199801903Y-81409500D01*
X199568631Y-81446446D01*
X199344003Y-81519433D01*
X199133566Y-81626657D01*
X199024550Y-81705862D01*
X198942490Y-81765483D01*
X198942488Y-81765485D01*
X198942487Y-81765485D01*
X198775485Y-81932487D01*
X198775485Y-81932488D01*
X198775483Y-81932490D01*
X198764469Y-81947650D01*
X198636657Y-82123566D01*
X198529433Y-82334003D01*
X198456446Y-82558631D01*
X198419500Y-82791902D01*
X178420500Y-82791902D01*
X178383553Y-82558631D01*
X178310566Y-82334003D01*
X178203342Y-82123566D01*
X178064517Y-81932490D01*
X177897510Y-81765483D01*
X177706433Y-81626657D01*
X177495996Y-81519433D01*
X177271368Y-81446446D01*
X177038097Y-81409500D01*
X177038092Y-81409500D01*
X176801908Y-81409500D01*
X176801903Y-81409500D01*
X176568631Y-81446446D01*
X176344003Y-81519433D01*
X176133566Y-81626657D01*
X176024550Y-81705862D01*
X175942490Y-81765483D01*
X175942488Y-81765485D01*
X175942487Y-81765485D01*
X175775485Y-81932487D01*
X175775485Y-81932488D01*
X175775483Y-81932490D01*
X175764469Y-81947650D01*
X175636657Y-82123566D01*
X175529433Y-82334003D01*
X175456446Y-82558631D01*
X175419500Y-82791902D01*
X173220500Y-82791902D01*
X173220500Y-79209999D01*
X181012348Y-79209999D01*
X181012349Y-79210000D01*
X182530137Y-79210000D01*
X182500000Y-79361509D01*
X182500000Y-79558491D01*
X182530137Y-79710000D01*
X181012349Y-79710000D01*
X181031437Y-79879412D01*
X181031439Y-79879424D01*
X181093921Y-80153178D01*
X181093922Y-80153180D01*
X181186662Y-80418217D01*
X181308492Y-80671200D01*
X181457884Y-80908956D01*
X181632957Y-81128490D01*
X181831509Y-81327042D01*
X182051043Y-81502115D01*
X182288799Y-81651507D01*
X182541782Y-81773337D01*
X182806819Y-81866077D01*
X182806821Y-81866078D01*
X183080575Y-81928560D01*
X183080589Y-81928563D01*
X183249999Y-81947650D01*
X183250000Y-81947650D01*
X183250000Y-80429863D01*
X183401509Y-80460000D01*
X183598491Y-80460000D01*
X183750000Y-80429863D01*
X183750000Y-81947650D01*
X183919410Y-81928563D01*
X183919424Y-81928560D01*
X184193178Y-81866078D01*
X184193180Y-81866077D01*
X184458217Y-81773337D01*
X184711200Y-81651507D01*
X184948956Y-81502115D01*
X185168490Y-81327042D01*
X185367042Y-81128490D01*
X185542115Y-80908956D01*
X185691507Y-80671200D01*
X185813337Y-80418217D01*
X185906077Y-80153180D01*
X185906078Y-80153178D01*
X185968560Y-79879424D01*
X185968562Y-79879412D01*
X185987651Y-79710000D01*
X184469863Y-79710000D01*
X184500000Y-79558491D01*
X184500000Y-79361509D01*
X184469863Y-79210000D01*
X185987651Y-79210000D01*
X185987651Y-79209999D01*
X191012348Y-79209999D01*
X191012349Y-79210000D01*
X192530137Y-79210000D01*
X192500000Y-79361509D01*
X192500000Y-79558491D01*
X192530137Y-79710000D01*
X191012349Y-79710000D01*
X191031437Y-79879412D01*
X191031439Y-79879424D01*
X191093921Y-80153178D01*
X191093922Y-80153180D01*
X191186662Y-80418217D01*
X191308492Y-80671200D01*
X191457884Y-80908956D01*
X191632957Y-81128490D01*
X191831509Y-81327042D01*
X192051043Y-81502115D01*
X192288799Y-81651507D01*
X192541782Y-81773337D01*
X192806819Y-81866077D01*
X192806821Y-81866078D01*
X193080575Y-81928560D01*
X193080589Y-81928563D01*
X193249999Y-81947650D01*
X193250000Y-81947650D01*
X193250000Y-80429863D01*
X193401509Y-80460000D01*
X193598491Y-80460000D01*
X193750000Y-80429863D01*
X193750000Y-81947650D01*
X193919410Y-81928563D01*
X193919424Y-81928560D01*
X194193178Y-81866078D01*
X194193180Y-81866077D01*
X194458217Y-81773337D01*
X194711200Y-81651507D01*
X194948956Y-81502115D01*
X195168490Y-81327042D01*
X195367042Y-81128490D01*
X195542115Y-80908956D01*
X195691507Y-80671200D01*
X195813337Y-80418217D01*
X195906077Y-80153180D01*
X195906078Y-80153178D01*
X195968560Y-79879424D01*
X195968562Y-79879412D01*
X195987651Y-79710000D01*
X194469863Y-79710000D01*
X194500000Y-79558491D01*
X194500000Y-79361509D01*
X194469863Y-79210000D01*
X195987651Y-79210000D01*
X195987651Y-79209999D01*
X195968562Y-79040587D01*
X195968560Y-79040575D01*
X195906078Y-78766821D01*
X195906077Y-78766819D01*
X195813337Y-78501782D01*
X195691507Y-78248799D01*
X195542115Y-78011043D01*
X195367042Y-77791509D01*
X195168490Y-77592957D01*
X194948956Y-77417884D01*
X194711200Y-77268492D01*
X194458217Y-77146662D01*
X194193180Y-77053922D01*
X194193178Y-77053921D01*
X193919424Y-76991439D01*
X193919412Y-76991437D01*
X193750000Y-76972348D01*
X193750000Y-78490136D01*
X193598491Y-78460000D01*
X193401509Y-78460000D01*
X193250000Y-78490136D01*
X193250000Y-76972349D01*
X193249999Y-76972348D01*
X193080587Y-76991437D01*
X193080575Y-76991439D01*
X192806821Y-77053921D01*
X192806819Y-77053922D01*
X192541782Y-77146662D01*
X192288799Y-77268492D01*
X192051043Y-77417884D01*
X191831509Y-77592957D01*
X191632957Y-77791509D01*
X191457884Y-78011043D01*
X191308492Y-78248799D01*
X191186662Y-78501782D01*
X191093922Y-78766819D01*
X191093921Y-78766821D01*
X191031439Y-79040575D01*
X191031437Y-79040587D01*
X191012348Y-79209999D01*
X185987651Y-79209999D01*
X185968562Y-79040587D01*
X185968560Y-79040575D01*
X185906078Y-78766821D01*
X185906077Y-78766819D01*
X185813337Y-78501782D01*
X185691507Y-78248799D01*
X185542115Y-78011043D01*
X185367042Y-77791509D01*
X185168490Y-77592957D01*
X184948956Y-77417884D01*
X184711200Y-77268492D01*
X184458217Y-77146662D01*
X184193180Y-77053922D01*
X184193178Y-77053921D01*
X183919424Y-76991439D01*
X183919412Y-76991437D01*
X183750000Y-76972348D01*
X183750000Y-78490136D01*
X183598491Y-78460000D01*
X183401509Y-78460000D01*
X183250000Y-78490136D01*
X183250000Y-76972349D01*
X183249999Y-76972348D01*
X183080587Y-76991437D01*
X183080575Y-76991439D01*
X182806821Y-77053921D01*
X182806819Y-77053922D01*
X182541782Y-77146662D01*
X182288799Y-77268492D01*
X182051043Y-77417884D01*
X181831509Y-77592957D01*
X181632957Y-77791509D01*
X181457884Y-78011043D01*
X181308492Y-78248799D01*
X181186662Y-78501782D01*
X181093922Y-78766819D01*
X181093921Y-78766821D01*
X181031439Y-79040575D01*
X181031437Y-79040587D01*
X181012348Y-79209999D01*
X173220500Y-79209999D01*
X173220500Y-76798549D01*
X175219500Y-76798549D01*
X175219500Y-77021450D01*
X175219501Y-77021466D01*
X175248594Y-77242452D01*
X175248595Y-77242457D01*
X175248596Y-77242463D01*
X175295600Y-77417884D01*
X175306290Y-77457780D01*
X175306293Y-77457790D01*
X175391593Y-77663722D01*
X175391595Y-77663726D01*
X175503052Y-77856774D01*
X175503057Y-77856780D01*
X175503058Y-77856782D01*
X175638751Y-78033622D01*
X175638757Y-78033629D01*
X175796370Y-78191242D01*
X175796376Y-78191247D01*
X175973226Y-78326948D01*
X176166274Y-78438405D01*
X176372219Y-78523710D01*
X176587537Y-78581404D01*
X176808543Y-78610500D01*
X176808550Y-78610500D01*
X177031450Y-78610500D01*
X177031457Y-78610500D01*
X177252463Y-78581404D01*
X177467781Y-78523710D01*
X177673726Y-78438405D01*
X177866774Y-78326948D01*
X178043624Y-78191247D01*
X178201247Y-78033624D01*
X178336948Y-77856774D01*
X178448405Y-77663726D01*
X178533710Y-77457781D01*
X178591404Y-77242463D01*
X178620500Y-77021457D01*
X178620500Y-76798549D01*
X198219500Y-76798549D01*
X198219500Y-77021450D01*
X198219501Y-77021466D01*
X198248594Y-77242452D01*
X198248595Y-77242457D01*
X198248596Y-77242463D01*
X198295600Y-77417884D01*
X198306290Y-77457780D01*
X198306293Y-77457790D01*
X198391593Y-77663722D01*
X198391595Y-77663726D01*
X198503052Y-77856774D01*
X198503057Y-77856780D01*
X198503058Y-77856782D01*
X198638751Y-78033622D01*
X198638757Y-78033629D01*
X198796370Y-78191242D01*
X198796376Y-78191247D01*
X198973226Y-78326948D01*
X199166274Y-78438405D01*
X199372219Y-78523710D01*
X199587537Y-78581404D01*
X199808543Y-78610500D01*
X199808550Y-78610500D01*
X200031450Y-78610500D01*
X200031457Y-78610500D01*
X200252463Y-78581404D01*
X200467781Y-78523710D01*
X200673726Y-78438405D01*
X200866774Y-78326948D01*
X201043624Y-78191247D01*
X201201247Y-78033624D01*
X201336948Y-77856774D01*
X201448405Y-77663726D01*
X201533710Y-77457781D01*
X201591404Y-77242463D01*
X201620500Y-77021457D01*
X201620500Y-76798543D01*
X201591404Y-76577537D01*
X201533710Y-76362219D01*
X201448405Y-76156274D01*
X201336948Y-75963226D01*
X201201247Y-75786376D01*
X201201242Y-75786370D01*
X201043629Y-75628757D01*
X201043622Y-75628751D01*
X200866782Y-75493058D01*
X200866780Y-75493057D01*
X200866774Y-75493052D01*
X200673726Y-75381595D01*
X200673722Y-75381593D01*
X200467790Y-75296293D01*
X200467783Y-75296291D01*
X200467781Y-75296290D01*
X200252463Y-75238596D01*
X200252457Y-75238595D01*
X200252452Y-75238594D01*
X200031466Y-75209501D01*
X200031463Y-75209500D01*
X200031457Y-75209500D01*
X199808543Y-75209500D01*
X199808537Y-75209500D01*
X199808533Y-75209501D01*
X199587547Y-75238594D01*
X199587540Y-75238595D01*
X199587537Y-75238596D01*
X199372219Y-75296290D01*
X199372209Y-75296293D01*
X199166277Y-75381593D01*
X199166273Y-75381595D01*
X198973226Y-75493052D01*
X198973217Y-75493058D01*
X198796377Y-75628751D01*
X198796370Y-75628757D01*
X198638757Y-75786370D01*
X198638751Y-75786377D01*
X198503058Y-75963217D01*
X198503052Y-75963226D01*
X198391595Y-76156273D01*
X198391593Y-76156277D01*
X198306293Y-76362209D01*
X198306290Y-76362219D01*
X198248597Y-76577534D01*
X198248594Y-76577547D01*
X198219501Y-76798533D01*
X198219500Y-76798549D01*
X178620500Y-76798549D01*
X178620500Y-76798543D01*
X178591404Y-76577537D01*
X178533710Y-76362219D01*
X178448405Y-76156274D01*
X178336948Y-75963226D01*
X178201247Y-75786376D01*
X178201242Y-75786370D01*
X178043629Y-75628757D01*
X178043622Y-75628751D01*
X177866782Y-75493058D01*
X177866780Y-75493057D01*
X177866774Y-75493052D01*
X177673726Y-75381595D01*
X177673722Y-75381593D01*
X177467790Y-75296293D01*
X177467783Y-75296291D01*
X177467781Y-75296290D01*
X177252463Y-75238596D01*
X177252457Y-75238595D01*
X177252452Y-75238594D01*
X177031466Y-75209501D01*
X177031463Y-75209500D01*
X177031457Y-75209500D01*
X176808543Y-75209500D01*
X176808537Y-75209500D01*
X176808533Y-75209501D01*
X176587547Y-75238594D01*
X176587540Y-75238595D01*
X176587537Y-75238596D01*
X176372219Y-75296290D01*
X176372209Y-75296293D01*
X176166277Y-75381593D01*
X176166273Y-75381595D01*
X175973226Y-75493052D01*
X175973217Y-75493058D01*
X175796377Y-75628751D01*
X175796370Y-75628757D01*
X175638757Y-75786370D01*
X175638751Y-75786377D01*
X175503058Y-75963217D01*
X175503052Y-75963226D01*
X175391595Y-76156273D01*
X175391593Y-76156277D01*
X175306293Y-76362209D01*
X175306290Y-76362219D01*
X175248597Y-76577534D01*
X175248594Y-76577547D01*
X175219501Y-76798533D01*
X175219500Y-76798549D01*
X173220500Y-76798549D01*
X173220500Y-72804500D01*
X173240185Y-72737461D01*
X173292989Y-72691706D01*
X173344500Y-72680500D01*
X203495500Y-72680500D01*
X203562539Y-72700185D01*
G37*
%TD.AperFunction*%
%TD*%
M02*
