%TF.GenerationSoftware,KiCad,Pcbnew,9.0.0*%
%TF.CreationDate,2025-04-27T22:51:00+02:00*%
%TF.ProjectId,OOS - optyczny odbiornik sygnalow,4f4f5320-2d20-46f7-9074-79637a6e7920,rev?*%
%TF.SameCoordinates,Original*%
%TF.FileFunction,Legend,Top*%
%TF.FilePolarity,Positive*%
%FSLAX46Y46*%
G04 Gerber Fmt 4.6, Leading zero omitted, Abs format (unit mm)*
G04 Created by KiCad (PCBNEW 9.0.0) date 2025-04-27 22:51:00*
%MOMM*%
%LPD*%
G01*
G04 APERTURE LIST*
G04 Aperture macros list*
%AMRoundRect*
0 Rectangle with rounded corners*
0 $1 Rounding radius*
0 $2 $3 $4 $5 $6 $7 $8 $9 X,Y pos of 4 corners*
0 Add a 4 corners polygon primitive as box body*
4,1,4,$2,$3,$4,$5,$6,$7,$8,$9,$2,$3,0*
0 Add four circle primitives for the rounded corners*
1,1,$1+$1,$2,$3*
1,1,$1+$1,$4,$5*
1,1,$1+$1,$6,$7*
1,1,$1+$1,$8,$9*
0 Add four rect primitives between the rounded corners*
20,1,$1+$1,$2,$3,$4,$5,0*
20,1,$1+$1,$4,$5,$6,$7,0*
20,1,$1+$1,$6,$7,$8,$9,0*
20,1,$1+$1,$8,$9,$2,$3,0*%
%AMFreePoly0*
4,1,23,0.000000,0.745722,0.065263,0.745722,0.191342,0.711940,0.304381,0.646677,0.396677,0.554381,0.461940,0.441342,0.495722,0.315263,0.495722,0.250000,0.500000,0.250000,0.500000,-0.250000,0.495722,-0.250000,0.495722,-0.315263,0.461940,-0.441342,0.396677,-0.554381,0.304381,-0.646677,0.191342,-0.711940,0.065263,-0.745722,0.000000,-0.745722,0.000000,-0.750000,-0.500000,-0.750000,
-0.500000,0.750000,0.000000,0.750000,0.000000,0.745722,0.000000,0.745722,$1*%
%AMFreePoly1*
4,1,23,0.500000,-0.750000,0.000000,-0.750000,0.000000,-0.745722,-0.065263,-0.745722,-0.191342,-0.711940,-0.304381,-0.646677,-0.396677,-0.554381,-0.461940,-0.441342,-0.495722,-0.315263,-0.495722,-0.250000,-0.500000,-0.250000,-0.500000,0.250000,-0.495722,0.250000,-0.495722,0.315263,-0.461940,0.441342,-0.396677,0.554381,-0.304381,0.646677,-0.191342,0.711940,-0.065263,0.745722,0.000000,0.745722,
0.000000,0.750000,0.500000,0.750000,0.500000,-0.750000,0.500000,-0.750000,$1*%
G04 Aperture macros list end*
%ADD10C,0.150000*%
%ADD11C,0.120000*%
%ADD12RoundRect,0.162500X-0.617500X-0.162500X0.617500X-0.162500X0.617500X0.162500X-0.617500X0.162500X0*%
%ADD13C,1.000000*%
%ADD14RoundRect,0.135000X0.135000X0.185000X-0.135000X0.185000X-0.135000X-0.185000X0.135000X-0.185000X0*%
%ADD15RoundRect,0.135000X-0.135000X-0.185000X0.135000X-0.185000X0.135000X0.185000X-0.135000X0.185000X0*%
%ADD16RoundRect,0.200000X-0.200000X-0.275000X0.200000X-0.275000X0.200000X0.275000X-0.200000X0.275000X0*%
%ADD17RoundRect,0.200000X0.200000X0.275000X-0.200000X0.275000X-0.200000X-0.275000X0.200000X-0.275000X0*%
%ADD18FreePoly0,90.000000*%
%ADD19FreePoly1,90.000000*%
%ADD20O,3.500000X7.000000*%
%ADD21O,1.600000X2.500000*%
%ADD22O,1.700000X1.700000*%
%ADD23R,1.700000X1.700000*%
%ADD24C,3.200000*%
%ADD25C,3.000000*%
%ADD26C,1.200000*%
%ADD27O,1.600000X1.200000*%
%ADD28RoundRect,0.218750X-0.218750X-0.256250X0.218750X-0.256250X0.218750X0.256250X-0.218750X0.256250X0*%
%ADD29RoundRect,0.218750X0.218750X0.256250X-0.218750X0.256250X-0.218750X-0.256250X0.218750X-0.256250X0*%
%ADD30RoundRect,0.140000X0.170000X-0.140000X0.170000X0.140000X-0.170000X0.140000X-0.170000X-0.140000X0*%
%ADD31RoundRect,0.140000X0.140000X0.170000X-0.140000X0.170000X-0.140000X-0.170000X0.140000X-0.170000X0*%
%ADD32RoundRect,0.200000X0.275000X-0.200000X0.275000X0.200000X-0.275000X0.200000X-0.275000X-0.200000X0*%
%ADD33RoundRect,0.225000X-0.250000X0.225000X-0.250000X-0.225000X0.250000X-0.225000X0.250000X0.225000X0*%
%ADD34RoundRect,0.140000X-0.170000X0.140000X-0.170000X-0.140000X0.170000X-0.140000X0.170000X0.140000X0*%
%ADD35RoundRect,0.200000X-0.275000X0.200000X-0.275000X-0.200000X0.275000X-0.200000X0.275000X0.200000X0*%
G04 APERTURE END LIST*
D10*
X187258095Y-90834819D02*
X187258095Y-91644342D01*
X187258095Y-91644342D02*
X187305714Y-91739580D01*
X187305714Y-91739580D02*
X187353333Y-91787200D01*
X187353333Y-91787200D02*
X187448571Y-91834819D01*
X187448571Y-91834819D02*
X187639047Y-91834819D01*
X187639047Y-91834819D02*
X187734285Y-91787200D01*
X187734285Y-91787200D02*
X187781904Y-91739580D01*
X187781904Y-91739580D02*
X187829523Y-91644342D01*
X187829523Y-91644342D02*
X187829523Y-90834819D01*
X188258095Y-90930057D02*
X188305714Y-90882438D01*
X188305714Y-90882438D02*
X188400952Y-90834819D01*
X188400952Y-90834819D02*
X188639047Y-90834819D01*
X188639047Y-90834819D02*
X188734285Y-90882438D01*
X188734285Y-90882438D02*
X188781904Y-90930057D01*
X188781904Y-90930057D02*
X188829523Y-91025295D01*
X188829523Y-91025295D02*
X188829523Y-91120533D01*
X188829523Y-91120533D02*
X188781904Y-91263390D01*
X188781904Y-91263390D02*
X188210476Y-91834819D01*
X188210476Y-91834819D02*
X188829523Y-91834819D01*
X187658095Y-102334819D02*
X187658095Y-103144342D01*
X187658095Y-103144342D02*
X187705714Y-103239580D01*
X187705714Y-103239580D02*
X187753333Y-103287200D01*
X187753333Y-103287200D02*
X187848571Y-103334819D01*
X187848571Y-103334819D02*
X188039047Y-103334819D01*
X188039047Y-103334819D02*
X188134285Y-103287200D01*
X188134285Y-103287200D02*
X188181904Y-103239580D01*
X188181904Y-103239580D02*
X188229523Y-103144342D01*
X188229523Y-103144342D02*
X188229523Y-102334819D01*
X189229523Y-103334819D02*
X188658095Y-103334819D01*
X188943809Y-103334819D02*
X188943809Y-102334819D01*
X188943809Y-102334819D02*
X188848571Y-102477676D01*
X188848571Y-102477676D02*
X188753333Y-102572914D01*
X188753333Y-102572914D02*
X188658095Y-102620533D01*
X184931905Y-85886819D02*
X185503333Y-85886819D01*
X185217619Y-86886819D02*
X185217619Y-85886819D01*
X185836667Y-86886819D02*
X185836667Y-85886819D01*
X185836667Y-85886819D02*
X186217619Y-85886819D01*
X186217619Y-85886819D02*
X186312857Y-85934438D01*
X186312857Y-85934438D02*
X186360476Y-85982057D01*
X186360476Y-85982057D02*
X186408095Y-86077295D01*
X186408095Y-86077295D02*
X186408095Y-86220152D01*
X186408095Y-86220152D02*
X186360476Y-86315390D01*
X186360476Y-86315390D02*
X186312857Y-86363009D01*
X186312857Y-86363009D02*
X186217619Y-86410628D01*
X186217619Y-86410628D02*
X185836667Y-86410628D01*
X187360476Y-86886819D02*
X186789048Y-86886819D01*
X187074762Y-86886819D02*
X187074762Y-85886819D01*
X187074762Y-85886819D02*
X186979524Y-86029676D01*
X186979524Y-86029676D02*
X186884286Y-86124914D01*
X186884286Y-86124914D02*
X186789048Y-86172533D01*
X188312857Y-86886819D02*
X187741429Y-86886819D01*
X188027143Y-86886819D02*
X188027143Y-85886819D01*
X188027143Y-85886819D02*
X187931905Y-86029676D01*
X187931905Y-86029676D02*
X187836667Y-86124914D01*
X187836667Y-86124914D02*
X187741429Y-86172533D01*
X184931905Y-88886819D02*
X185503333Y-88886819D01*
X185217619Y-89886819D02*
X185217619Y-88886819D01*
X185836667Y-89886819D02*
X185836667Y-88886819D01*
X185836667Y-88886819D02*
X186217619Y-88886819D01*
X186217619Y-88886819D02*
X186312857Y-88934438D01*
X186312857Y-88934438D02*
X186360476Y-88982057D01*
X186360476Y-88982057D02*
X186408095Y-89077295D01*
X186408095Y-89077295D02*
X186408095Y-89220152D01*
X186408095Y-89220152D02*
X186360476Y-89315390D01*
X186360476Y-89315390D02*
X186312857Y-89363009D01*
X186312857Y-89363009D02*
X186217619Y-89410628D01*
X186217619Y-89410628D02*
X185836667Y-89410628D01*
X187360476Y-89886819D02*
X186789048Y-89886819D01*
X187074762Y-89886819D02*
X187074762Y-88886819D01*
X187074762Y-88886819D02*
X186979524Y-89029676D01*
X186979524Y-89029676D02*
X186884286Y-89124914D01*
X186884286Y-89124914D02*
X186789048Y-89172533D01*
X187979524Y-88886819D02*
X188074762Y-88886819D01*
X188074762Y-88886819D02*
X188170000Y-88934438D01*
X188170000Y-88934438D02*
X188217619Y-88982057D01*
X188217619Y-88982057D02*
X188265238Y-89077295D01*
X188265238Y-89077295D02*
X188312857Y-89267771D01*
X188312857Y-89267771D02*
X188312857Y-89505866D01*
X188312857Y-89505866D02*
X188265238Y-89696342D01*
X188265238Y-89696342D02*
X188217619Y-89791580D01*
X188217619Y-89791580D02*
X188170000Y-89839200D01*
X188170000Y-89839200D02*
X188074762Y-89886819D01*
X188074762Y-89886819D02*
X187979524Y-89886819D01*
X187979524Y-89886819D02*
X187884286Y-89839200D01*
X187884286Y-89839200D02*
X187836667Y-89791580D01*
X187836667Y-89791580D02*
X187789048Y-89696342D01*
X187789048Y-89696342D02*
X187741429Y-89505866D01*
X187741429Y-89505866D02*
X187741429Y-89267771D01*
X187741429Y-89267771D02*
X187789048Y-89077295D01*
X187789048Y-89077295D02*
X187836667Y-88982057D01*
X187836667Y-88982057D02*
X187884286Y-88934438D01*
X187884286Y-88934438D02*
X187979524Y-88886819D01*
X188108095Y-94586819D02*
X188679523Y-94586819D01*
X188393809Y-95586819D02*
X188393809Y-94586819D01*
X189012857Y-95586819D02*
X189012857Y-94586819D01*
X189012857Y-94586819D02*
X189393809Y-94586819D01*
X189393809Y-94586819D02*
X189489047Y-94634438D01*
X189489047Y-94634438D02*
X189536666Y-94682057D01*
X189536666Y-94682057D02*
X189584285Y-94777295D01*
X189584285Y-94777295D02*
X189584285Y-94920152D01*
X189584285Y-94920152D02*
X189536666Y-95015390D01*
X189536666Y-95015390D02*
X189489047Y-95063009D01*
X189489047Y-95063009D02*
X189393809Y-95110628D01*
X189393809Y-95110628D02*
X189012857Y-95110628D01*
X190060476Y-95586819D02*
X190250952Y-95586819D01*
X190250952Y-95586819D02*
X190346190Y-95539200D01*
X190346190Y-95539200D02*
X190393809Y-95491580D01*
X190393809Y-95491580D02*
X190489047Y-95348723D01*
X190489047Y-95348723D02*
X190536666Y-95158247D01*
X190536666Y-95158247D02*
X190536666Y-94777295D01*
X190536666Y-94777295D02*
X190489047Y-94682057D01*
X190489047Y-94682057D02*
X190441428Y-94634438D01*
X190441428Y-94634438D02*
X190346190Y-94586819D01*
X190346190Y-94586819D02*
X190155714Y-94586819D01*
X190155714Y-94586819D02*
X190060476Y-94634438D01*
X190060476Y-94634438D02*
X190012857Y-94682057D01*
X190012857Y-94682057D02*
X189965238Y-94777295D01*
X189965238Y-94777295D02*
X189965238Y-95015390D01*
X189965238Y-95015390D02*
X190012857Y-95110628D01*
X190012857Y-95110628D02*
X190060476Y-95158247D01*
X190060476Y-95158247D02*
X190155714Y-95205866D01*
X190155714Y-95205866D02*
X190346190Y-95205866D01*
X190346190Y-95205866D02*
X190441428Y-95158247D01*
X190441428Y-95158247D02*
X190489047Y-95110628D01*
X190489047Y-95110628D02*
X190536666Y-95015390D01*
X185808095Y-96486819D02*
X186379523Y-96486819D01*
X186093809Y-97486819D02*
X186093809Y-96486819D01*
X186712857Y-97486819D02*
X186712857Y-96486819D01*
X186712857Y-96486819D02*
X187093809Y-96486819D01*
X187093809Y-96486819D02*
X187189047Y-96534438D01*
X187189047Y-96534438D02*
X187236666Y-96582057D01*
X187236666Y-96582057D02*
X187284285Y-96677295D01*
X187284285Y-96677295D02*
X187284285Y-96820152D01*
X187284285Y-96820152D02*
X187236666Y-96915390D01*
X187236666Y-96915390D02*
X187189047Y-96963009D01*
X187189047Y-96963009D02*
X187093809Y-97010628D01*
X187093809Y-97010628D02*
X186712857Y-97010628D01*
X187855714Y-96915390D02*
X187760476Y-96867771D01*
X187760476Y-96867771D02*
X187712857Y-96820152D01*
X187712857Y-96820152D02*
X187665238Y-96724914D01*
X187665238Y-96724914D02*
X187665238Y-96677295D01*
X187665238Y-96677295D02*
X187712857Y-96582057D01*
X187712857Y-96582057D02*
X187760476Y-96534438D01*
X187760476Y-96534438D02*
X187855714Y-96486819D01*
X187855714Y-96486819D02*
X188046190Y-96486819D01*
X188046190Y-96486819D02*
X188141428Y-96534438D01*
X188141428Y-96534438D02*
X188189047Y-96582057D01*
X188189047Y-96582057D02*
X188236666Y-96677295D01*
X188236666Y-96677295D02*
X188236666Y-96724914D01*
X188236666Y-96724914D02*
X188189047Y-96820152D01*
X188189047Y-96820152D02*
X188141428Y-96867771D01*
X188141428Y-96867771D02*
X188046190Y-96915390D01*
X188046190Y-96915390D02*
X187855714Y-96915390D01*
X187855714Y-96915390D02*
X187760476Y-96963009D01*
X187760476Y-96963009D02*
X187712857Y-97010628D01*
X187712857Y-97010628D02*
X187665238Y-97105866D01*
X187665238Y-97105866D02*
X187665238Y-97296342D01*
X187665238Y-97296342D02*
X187712857Y-97391580D01*
X187712857Y-97391580D02*
X187760476Y-97439200D01*
X187760476Y-97439200D02*
X187855714Y-97486819D01*
X187855714Y-97486819D02*
X188046190Y-97486819D01*
X188046190Y-97486819D02*
X188141428Y-97439200D01*
X188141428Y-97439200D02*
X188189047Y-97391580D01*
X188189047Y-97391580D02*
X188236666Y-97296342D01*
X188236666Y-97296342D02*
X188236666Y-97105866D01*
X188236666Y-97105866D02*
X188189047Y-97010628D01*
X188189047Y-97010628D02*
X188141428Y-96963009D01*
X188141428Y-96963009D02*
X188046190Y-96915390D01*
X185808095Y-99386819D02*
X186379523Y-99386819D01*
X186093809Y-100386819D02*
X186093809Y-99386819D01*
X186712857Y-100386819D02*
X186712857Y-99386819D01*
X186712857Y-99386819D02*
X187093809Y-99386819D01*
X187093809Y-99386819D02*
X187189047Y-99434438D01*
X187189047Y-99434438D02*
X187236666Y-99482057D01*
X187236666Y-99482057D02*
X187284285Y-99577295D01*
X187284285Y-99577295D02*
X187284285Y-99720152D01*
X187284285Y-99720152D02*
X187236666Y-99815390D01*
X187236666Y-99815390D02*
X187189047Y-99863009D01*
X187189047Y-99863009D02*
X187093809Y-99910628D01*
X187093809Y-99910628D02*
X186712857Y-99910628D01*
X187617619Y-99386819D02*
X188284285Y-99386819D01*
X188284285Y-99386819D02*
X187855714Y-100386819D01*
X188243371Y-106386819D02*
X188814799Y-106386819D01*
X188529085Y-107386819D02*
X188529085Y-106386819D01*
X189148133Y-107386819D02*
X189148133Y-106386819D01*
X189148133Y-106386819D02*
X189529085Y-106386819D01*
X189529085Y-106386819D02*
X189624323Y-106434438D01*
X189624323Y-106434438D02*
X189671942Y-106482057D01*
X189671942Y-106482057D02*
X189719561Y-106577295D01*
X189719561Y-106577295D02*
X189719561Y-106720152D01*
X189719561Y-106720152D02*
X189671942Y-106815390D01*
X189671942Y-106815390D02*
X189624323Y-106863009D01*
X189624323Y-106863009D02*
X189529085Y-106910628D01*
X189529085Y-106910628D02*
X189148133Y-106910628D01*
X190576704Y-106386819D02*
X190386228Y-106386819D01*
X190386228Y-106386819D02*
X190290990Y-106434438D01*
X190290990Y-106434438D02*
X190243371Y-106482057D01*
X190243371Y-106482057D02*
X190148133Y-106624914D01*
X190148133Y-106624914D02*
X190100514Y-106815390D01*
X190100514Y-106815390D02*
X190100514Y-107196342D01*
X190100514Y-107196342D02*
X190148133Y-107291580D01*
X190148133Y-107291580D02*
X190195752Y-107339200D01*
X190195752Y-107339200D02*
X190290990Y-107386819D01*
X190290990Y-107386819D02*
X190481466Y-107386819D01*
X190481466Y-107386819D02*
X190576704Y-107339200D01*
X190576704Y-107339200D02*
X190624323Y-107291580D01*
X190624323Y-107291580D02*
X190671942Y-107196342D01*
X190671942Y-107196342D02*
X190671942Y-106958247D01*
X190671942Y-106958247D02*
X190624323Y-106863009D01*
X190624323Y-106863009D02*
X190576704Y-106815390D01*
X190576704Y-106815390D02*
X190481466Y-106767771D01*
X190481466Y-106767771D02*
X190290990Y-106767771D01*
X190290990Y-106767771D02*
X190195752Y-106815390D01*
X190195752Y-106815390D02*
X190148133Y-106863009D01*
X190148133Y-106863009D02*
X190100514Y-106958247D01*
X195578095Y-101936819D02*
X196149523Y-101936819D01*
X195863809Y-102936819D02*
X195863809Y-101936819D01*
X196482857Y-102936819D02*
X196482857Y-101936819D01*
X196482857Y-101936819D02*
X196863809Y-101936819D01*
X196863809Y-101936819D02*
X196959047Y-101984438D01*
X196959047Y-101984438D02*
X197006666Y-102032057D01*
X197006666Y-102032057D02*
X197054285Y-102127295D01*
X197054285Y-102127295D02*
X197054285Y-102270152D01*
X197054285Y-102270152D02*
X197006666Y-102365390D01*
X197006666Y-102365390D02*
X196959047Y-102413009D01*
X196959047Y-102413009D02*
X196863809Y-102460628D01*
X196863809Y-102460628D02*
X196482857Y-102460628D01*
X197959047Y-101936819D02*
X197482857Y-101936819D01*
X197482857Y-101936819D02*
X197435238Y-102413009D01*
X197435238Y-102413009D02*
X197482857Y-102365390D01*
X197482857Y-102365390D02*
X197578095Y-102317771D01*
X197578095Y-102317771D02*
X197816190Y-102317771D01*
X197816190Y-102317771D02*
X197911428Y-102365390D01*
X197911428Y-102365390D02*
X197959047Y-102413009D01*
X197959047Y-102413009D02*
X198006666Y-102508247D01*
X198006666Y-102508247D02*
X198006666Y-102746342D01*
X198006666Y-102746342D02*
X197959047Y-102841580D01*
X197959047Y-102841580D02*
X197911428Y-102889200D01*
X197911428Y-102889200D02*
X197816190Y-102936819D01*
X197816190Y-102936819D02*
X197578095Y-102936819D01*
X197578095Y-102936819D02*
X197482857Y-102889200D01*
X197482857Y-102889200D02*
X197435238Y-102841580D01*
X183658095Y-96586819D02*
X184229523Y-96586819D01*
X183943809Y-97586819D02*
X183943809Y-96586819D01*
X184562857Y-97586819D02*
X184562857Y-96586819D01*
X184562857Y-96586819D02*
X184943809Y-96586819D01*
X184943809Y-96586819D02*
X185039047Y-96634438D01*
X185039047Y-96634438D02*
X185086666Y-96682057D01*
X185086666Y-96682057D02*
X185134285Y-96777295D01*
X185134285Y-96777295D02*
X185134285Y-96920152D01*
X185134285Y-96920152D02*
X185086666Y-97015390D01*
X185086666Y-97015390D02*
X185039047Y-97063009D01*
X185039047Y-97063009D02*
X184943809Y-97110628D01*
X184943809Y-97110628D02*
X184562857Y-97110628D01*
X185991428Y-96920152D02*
X185991428Y-97586819D01*
X185753333Y-96539200D02*
X185515238Y-97253485D01*
X185515238Y-97253485D02*
X186134285Y-97253485D01*
X182958095Y-100386819D02*
X183529523Y-100386819D01*
X183243809Y-101386819D02*
X183243809Y-100386819D01*
X183862857Y-101386819D02*
X183862857Y-100386819D01*
X183862857Y-100386819D02*
X184243809Y-100386819D01*
X184243809Y-100386819D02*
X184339047Y-100434438D01*
X184339047Y-100434438D02*
X184386666Y-100482057D01*
X184386666Y-100482057D02*
X184434285Y-100577295D01*
X184434285Y-100577295D02*
X184434285Y-100720152D01*
X184434285Y-100720152D02*
X184386666Y-100815390D01*
X184386666Y-100815390D02*
X184339047Y-100863009D01*
X184339047Y-100863009D02*
X184243809Y-100910628D01*
X184243809Y-100910628D02*
X183862857Y-100910628D01*
X184767619Y-100386819D02*
X185386666Y-100386819D01*
X185386666Y-100386819D02*
X185053333Y-100767771D01*
X185053333Y-100767771D02*
X185196190Y-100767771D01*
X185196190Y-100767771D02*
X185291428Y-100815390D01*
X185291428Y-100815390D02*
X185339047Y-100863009D01*
X185339047Y-100863009D02*
X185386666Y-100958247D01*
X185386666Y-100958247D02*
X185386666Y-101196342D01*
X185386666Y-101196342D02*
X185339047Y-101291580D01*
X185339047Y-101291580D02*
X185291428Y-101339200D01*
X185291428Y-101339200D02*
X185196190Y-101386819D01*
X185196190Y-101386819D02*
X184910476Y-101386819D01*
X184910476Y-101386819D02*
X184815238Y-101339200D01*
X184815238Y-101339200D02*
X184767619Y-101291580D01*
X183908095Y-108071543D02*
X184479523Y-108071543D01*
X184193809Y-109071543D02*
X184193809Y-108071543D01*
X184812857Y-109071543D02*
X184812857Y-108071543D01*
X184812857Y-108071543D02*
X185193809Y-108071543D01*
X185193809Y-108071543D02*
X185289047Y-108119162D01*
X185289047Y-108119162D02*
X185336666Y-108166781D01*
X185336666Y-108166781D02*
X185384285Y-108262019D01*
X185384285Y-108262019D02*
X185384285Y-108404876D01*
X185384285Y-108404876D02*
X185336666Y-108500114D01*
X185336666Y-108500114D02*
X185289047Y-108547733D01*
X185289047Y-108547733D02*
X185193809Y-108595352D01*
X185193809Y-108595352D02*
X184812857Y-108595352D01*
X185765238Y-108166781D02*
X185812857Y-108119162D01*
X185812857Y-108119162D02*
X185908095Y-108071543D01*
X185908095Y-108071543D02*
X186146190Y-108071543D01*
X186146190Y-108071543D02*
X186241428Y-108119162D01*
X186241428Y-108119162D02*
X186289047Y-108166781D01*
X186289047Y-108166781D02*
X186336666Y-108262019D01*
X186336666Y-108262019D02*
X186336666Y-108357257D01*
X186336666Y-108357257D02*
X186289047Y-108500114D01*
X186289047Y-108500114D02*
X185717619Y-109071543D01*
X185717619Y-109071543D02*
X186336666Y-109071543D01*
X177333095Y-107186819D02*
X177904523Y-107186819D01*
X177618809Y-108186819D02*
X177618809Y-107186819D01*
X178237857Y-108186819D02*
X178237857Y-107186819D01*
X178237857Y-107186819D02*
X178618809Y-107186819D01*
X178618809Y-107186819D02*
X178714047Y-107234438D01*
X178714047Y-107234438D02*
X178761666Y-107282057D01*
X178761666Y-107282057D02*
X178809285Y-107377295D01*
X178809285Y-107377295D02*
X178809285Y-107520152D01*
X178809285Y-107520152D02*
X178761666Y-107615390D01*
X178761666Y-107615390D02*
X178714047Y-107663009D01*
X178714047Y-107663009D02*
X178618809Y-107710628D01*
X178618809Y-107710628D02*
X178237857Y-107710628D01*
X179761666Y-108186819D02*
X179190238Y-108186819D01*
X179475952Y-108186819D02*
X179475952Y-107186819D01*
X179475952Y-107186819D02*
X179380714Y-107329676D01*
X179380714Y-107329676D02*
X179285476Y-107424914D01*
X179285476Y-107424914D02*
X179190238Y-107472533D01*
X187487142Y-90524819D02*
X187153809Y-90048628D01*
X186915714Y-90524819D02*
X186915714Y-89524819D01*
X186915714Y-89524819D02*
X187296666Y-89524819D01*
X187296666Y-89524819D02*
X187391904Y-89572438D01*
X187391904Y-89572438D02*
X187439523Y-89620057D01*
X187439523Y-89620057D02*
X187487142Y-89715295D01*
X187487142Y-89715295D02*
X187487142Y-89858152D01*
X187487142Y-89858152D02*
X187439523Y-89953390D01*
X187439523Y-89953390D02*
X187391904Y-90001009D01*
X187391904Y-90001009D02*
X187296666Y-90048628D01*
X187296666Y-90048628D02*
X186915714Y-90048628D01*
X188439523Y-90524819D02*
X187868095Y-90524819D01*
X188153809Y-90524819D02*
X188153809Y-89524819D01*
X188153809Y-89524819D02*
X188058571Y-89667676D01*
X188058571Y-89667676D02*
X187963333Y-89762914D01*
X187963333Y-89762914D02*
X187868095Y-89810533D01*
X189391904Y-90524819D02*
X188820476Y-90524819D01*
X189106190Y-90524819D02*
X189106190Y-89524819D01*
X189106190Y-89524819D02*
X189010952Y-89667676D01*
X189010952Y-89667676D02*
X188915714Y-89762914D01*
X188915714Y-89762914D02*
X188820476Y-89810533D01*
X186537142Y-93504819D02*
X186203809Y-93028628D01*
X185965714Y-93504819D02*
X185965714Y-92504819D01*
X185965714Y-92504819D02*
X186346666Y-92504819D01*
X186346666Y-92504819D02*
X186441904Y-92552438D01*
X186441904Y-92552438D02*
X186489523Y-92600057D01*
X186489523Y-92600057D02*
X186537142Y-92695295D01*
X186537142Y-92695295D02*
X186537142Y-92838152D01*
X186537142Y-92838152D02*
X186489523Y-92933390D01*
X186489523Y-92933390D02*
X186441904Y-92981009D01*
X186441904Y-92981009D02*
X186346666Y-93028628D01*
X186346666Y-93028628D02*
X185965714Y-93028628D01*
X187489523Y-93504819D02*
X186918095Y-93504819D01*
X187203809Y-93504819D02*
X187203809Y-92504819D01*
X187203809Y-92504819D02*
X187108571Y-92647676D01*
X187108571Y-92647676D02*
X187013333Y-92742914D01*
X187013333Y-92742914D02*
X186918095Y-92790533D01*
X188108571Y-92504819D02*
X188203809Y-92504819D01*
X188203809Y-92504819D02*
X188299047Y-92552438D01*
X188299047Y-92552438D02*
X188346666Y-92600057D01*
X188346666Y-92600057D02*
X188394285Y-92695295D01*
X188394285Y-92695295D02*
X188441904Y-92885771D01*
X188441904Y-92885771D02*
X188441904Y-93123866D01*
X188441904Y-93123866D02*
X188394285Y-93314342D01*
X188394285Y-93314342D02*
X188346666Y-93409580D01*
X188346666Y-93409580D02*
X188299047Y-93457200D01*
X188299047Y-93457200D02*
X188203809Y-93504819D01*
X188203809Y-93504819D02*
X188108571Y-93504819D01*
X188108571Y-93504819D02*
X188013333Y-93457200D01*
X188013333Y-93457200D02*
X187965714Y-93409580D01*
X187965714Y-93409580D02*
X187918095Y-93314342D01*
X187918095Y-93314342D02*
X187870476Y-93123866D01*
X187870476Y-93123866D02*
X187870476Y-92885771D01*
X187870476Y-92885771D02*
X187918095Y-92695295D01*
X187918095Y-92695295D02*
X187965714Y-92600057D01*
X187965714Y-92600057D02*
X188013333Y-92552438D01*
X188013333Y-92552438D02*
X188108571Y-92504819D01*
X187413333Y-96664819D02*
X187080000Y-96188628D01*
X186841905Y-96664819D02*
X186841905Y-95664819D01*
X186841905Y-95664819D02*
X187222857Y-95664819D01*
X187222857Y-95664819D02*
X187318095Y-95712438D01*
X187318095Y-95712438D02*
X187365714Y-95760057D01*
X187365714Y-95760057D02*
X187413333Y-95855295D01*
X187413333Y-95855295D02*
X187413333Y-95998152D01*
X187413333Y-95998152D02*
X187365714Y-96093390D01*
X187365714Y-96093390D02*
X187318095Y-96141009D01*
X187318095Y-96141009D02*
X187222857Y-96188628D01*
X187222857Y-96188628D02*
X186841905Y-96188628D01*
X187889524Y-96664819D02*
X188080000Y-96664819D01*
X188080000Y-96664819D02*
X188175238Y-96617200D01*
X188175238Y-96617200D02*
X188222857Y-96569580D01*
X188222857Y-96569580D02*
X188318095Y-96426723D01*
X188318095Y-96426723D02*
X188365714Y-96236247D01*
X188365714Y-96236247D02*
X188365714Y-95855295D01*
X188365714Y-95855295D02*
X188318095Y-95760057D01*
X188318095Y-95760057D02*
X188270476Y-95712438D01*
X188270476Y-95712438D02*
X188175238Y-95664819D01*
X188175238Y-95664819D02*
X187984762Y-95664819D01*
X187984762Y-95664819D02*
X187889524Y-95712438D01*
X187889524Y-95712438D02*
X187841905Y-95760057D01*
X187841905Y-95760057D02*
X187794286Y-95855295D01*
X187794286Y-95855295D02*
X187794286Y-96093390D01*
X187794286Y-96093390D02*
X187841905Y-96188628D01*
X187841905Y-96188628D02*
X187889524Y-96236247D01*
X187889524Y-96236247D02*
X187984762Y-96283866D01*
X187984762Y-96283866D02*
X188175238Y-96283866D01*
X188175238Y-96283866D02*
X188270476Y-96236247D01*
X188270476Y-96236247D02*
X188318095Y-96188628D01*
X188318095Y-96188628D02*
X188365714Y-96093390D01*
X187413333Y-105004819D02*
X187080000Y-104528628D01*
X186841905Y-105004819D02*
X186841905Y-104004819D01*
X186841905Y-104004819D02*
X187222857Y-104004819D01*
X187222857Y-104004819D02*
X187318095Y-104052438D01*
X187318095Y-104052438D02*
X187365714Y-104100057D01*
X187365714Y-104100057D02*
X187413333Y-104195295D01*
X187413333Y-104195295D02*
X187413333Y-104338152D01*
X187413333Y-104338152D02*
X187365714Y-104433390D01*
X187365714Y-104433390D02*
X187318095Y-104481009D01*
X187318095Y-104481009D02*
X187222857Y-104528628D01*
X187222857Y-104528628D02*
X186841905Y-104528628D01*
X187984762Y-104433390D02*
X187889524Y-104385771D01*
X187889524Y-104385771D02*
X187841905Y-104338152D01*
X187841905Y-104338152D02*
X187794286Y-104242914D01*
X187794286Y-104242914D02*
X187794286Y-104195295D01*
X187794286Y-104195295D02*
X187841905Y-104100057D01*
X187841905Y-104100057D02*
X187889524Y-104052438D01*
X187889524Y-104052438D02*
X187984762Y-104004819D01*
X187984762Y-104004819D02*
X188175238Y-104004819D01*
X188175238Y-104004819D02*
X188270476Y-104052438D01*
X188270476Y-104052438D02*
X188318095Y-104100057D01*
X188318095Y-104100057D02*
X188365714Y-104195295D01*
X188365714Y-104195295D02*
X188365714Y-104242914D01*
X188365714Y-104242914D02*
X188318095Y-104338152D01*
X188318095Y-104338152D02*
X188270476Y-104385771D01*
X188270476Y-104385771D02*
X188175238Y-104433390D01*
X188175238Y-104433390D02*
X187984762Y-104433390D01*
X187984762Y-104433390D02*
X187889524Y-104481009D01*
X187889524Y-104481009D02*
X187841905Y-104528628D01*
X187841905Y-104528628D02*
X187794286Y-104623866D01*
X187794286Y-104623866D02*
X187794286Y-104814342D01*
X187794286Y-104814342D02*
X187841905Y-104909580D01*
X187841905Y-104909580D02*
X187889524Y-104957200D01*
X187889524Y-104957200D02*
X187984762Y-105004819D01*
X187984762Y-105004819D02*
X188175238Y-105004819D01*
X188175238Y-105004819D02*
X188270476Y-104957200D01*
X188270476Y-104957200D02*
X188318095Y-104909580D01*
X188318095Y-104909580D02*
X188365714Y-104814342D01*
X188365714Y-104814342D02*
X188365714Y-104623866D01*
X188365714Y-104623866D02*
X188318095Y-104528628D01*
X188318095Y-104528628D02*
X188270476Y-104481009D01*
X188270476Y-104481009D02*
X188175238Y-104433390D01*
X182753333Y-98564819D02*
X182420000Y-98088628D01*
X182181905Y-98564819D02*
X182181905Y-97564819D01*
X182181905Y-97564819D02*
X182562857Y-97564819D01*
X182562857Y-97564819D02*
X182658095Y-97612438D01*
X182658095Y-97612438D02*
X182705714Y-97660057D01*
X182705714Y-97660057D02*
X182753333Y-97755295D01*
X182753333Y-97755295D02*
X182753333Y-97898152D01*
X182753333Y-97898152D02*
X182705714Y-97993390D01*
X182705714Y-97993390D02*
X182658095Y-98041009D01*
X182658095Y-98041009D02*
X182562857Y-98088628D01*
X182562857Y-98088628D02*
X182181905Y-98088628D01*
X183086667Y-97564819D02*
X183753333Y-97564819D01*
X183753333Y-97564819D02*
X183324762Y-98564819D01*
X182763333Y-102014819D02*
X182430000Y-101538628D01*
X182191905Y-102014819D02*
X182191905Y-101014819D01*
X182191905Y-101014819D02*
X182572857Y-101014819D01*
X182572857Y-101014819D02*
X182668095Y-101062438D01*
X182668095Y-101062438D02*
X182715714Y-101110057D01*
X182715714Y-101110057D02*
X182763333Y-101205295D01*
X182763333Y-101205295D02*
X182763333Y-101348152D01*
X182763333Y-101348152D02*
X182715714Y-101443390D01*
X182715714Y-101443390D02*
X182668095Y-101491009D01*
X182668095Y-101491009D02*
X182572857Y-101538628D01*
X182572857Y-101538628D02*
X182191905Y-101538628D01*
X183620476Y-101014819D02*
X183430000Y-101014819D01*
X183430000Y-101014819D02*
X183334762Y-101062438D01*
X183334762Y-101062438D02*
X183287143Y-101110057D01*
X183287143Y-101110057D02*
X183191905Y-101252914D01*
X183191905Y-101252914D02*
X183144286Y-101443390D01*
X183144286Y-101443390D02*
X183144286Y-101824342D01*
X183144286Y-101824342D02*
X183191905Y-101919580D01*
X183191905Y-101919580D02*
X183239524Y-101967200D01*
X183239524Y-101967200D02*
X183334762Y-102014819D01*
X183334762Y-102014819D02*
X183525238Y-102014819D01*
X183525238Y-102014819D02*
X183620476Y-101967200D01*
X183620476Y-101967200D02*
X183668095Y-101919580D01*
X183668095Y-101919580D02*
X183715714Y-101824342D01*
X183715714Y-101824342D02*
X183715714Y-101586247D01*
X183715714Y-101586247D02*
X183668095Y-101491009D01*
X183668095Y-101491009D02*
X183620476Y-101443390D01*
X183620476Y-101443390D02*
X183525238Y-101395771D01*
X183525238Y-101395771D02*
X183334762Y-101395771D01*
X183334762Y-101395771D02*
X183239524Y-101443390D01*
X183239524Y-101443390D02*
X183191905Y-101491009D01*
X183191905Y-101491009D02*
X183144286Y-101586247D01*
X182763333Y-100764819D02*
X182430000Y-100288628D01*
X182191905Y-100764819D02*
X182191905Y-99764819D01*
X182191905Y-99764819D02*
X182572857Y-99764819D01*
X182572857Y-99764819D02*
X182668095Y-99812438D01*
X182668095Y-99812438D02*
X182715714Y-99860057D01*
X182715714Y-99860057D02*
X182763333Y-99955295D01*
X182763333Y-99955295D02*
X182763333Y-100098152D01*
X182763333Y-100098152D02*
X182715714Y-100193390D01*
X182715714Y-100193390D02*
X182668095Y-100241009D01*
X182668095Y-100241009D02*
X182572857Y-100288628D01*
X182572857Y-100288628D02*
X182191905Y-100288628D01*
X183668095Y-99764819D02*
X183191905Y-99764819D01*
X183191905Y-99764819D02*
X183144286Y-100241009D01*
X183144286Y-100241009D02*
X183191905Y-100193390D01*
X183191905Y-100193390D02*
X183287143Y-100145771D01*
X183287143Y-100145771D02*
X183525238Y-100145771D01*
X183525238Y-100145771D02*
X183620476Y-100193390D01*
X183620476Y-100193390D02*
X183668095Y-100241009D01*
X183668095Y-100241009D02*
X183715714Y-100336247D01*
X183715714Y-100336247D02*
X183715714Y-100574342D01*
X183715714Y-100574342D02*
X183668095Y-100669580D01*
X183668095Y-100669580D02*
X183620476Y-100717200D01*
X183620476Y-100717200D02*
X183525238Y-100764819D01*
X183525238Y-100764819D02*
X183287143Y-100764819D01*
X183287143Y-100764819D02*
X183191905Y-100717200D01*
X183191905Y-100717200D02*
X183144286Y-100669580D01*
X198663333Y-105554819D02*
X198330000Y-105078628D01*
X198091905Y-105554819D02*
X198091905Y-104554819D01*
X198091905Y-104554819D02*
X198472857Y-104554819D01*
X198472857Y-104554819D02*
X198568095Y-104602438D01*
X198568095Y-104602438D02*
X198615714Y-104650057D01*
X198615714Y-104650057D02*
X198663333Y-104745295D01*
X198663333Y-104745295D02*
X198663333Y-104888152D01*
X198663333Y-104888152D02*
X198615714Y-104983390D01*
X198615714Y-104983390D02*
X198568095Y-105031009D01*
X198568095Y-105031009D02*
X198472857Y-105078628D01*
X198472857Y-105078628D02*
X198091905Y-105078628D01*
X199520476Y-104888152D02*
X199520476Y-105554819D01*
X199282381Y-104507200D02*
X199044286Y-105221485D01*
X199044286Y-105221485D02*
X199663333Y-105221485D01*
X179253333Y-109639819D02*
X178920000Y-109163628D01*
X178681905Y-109639819D02*
X178681905Y-108639819D01*
X178681905Y-108639819D02*
X179062857Y-108639819D01*
X179062857Y-108639819D02*
X179158095Y-108687438D01*
X179158095Y-108687438D02*
X179205714Y-108735057D01*
X179205714Y-108735057D02*
X179253333Y-108830295D01*
X179253333Y-108830295D02*
X179253333Y-108973152D01*
X179253333Y-108973152D02*
X179205714Y-109068390D01*
X179205714Y-109068390D02*
X179158095Y-109116009D01*
X179158095Y-109116009D02*
X179062857Y-109163628D01*
X179062857Y-109163628D02*
X178681905Y-109163628D01*
X179586667Y-108639819D02*
X180205714Y-108639819D01*
X180205714Y-108639819D02*
X179872381Y-109020771D01*
X179872381Y-109020771D02*
X180015238Y-109020771D01*
X180015238Y-109020771D02*
X180110476Y-109068390D01*
X180110476Y-109068390D02*
X180158095Y-109116009D01*
X180158095Y-109116009D02*
X180205714Y-109211247D01*
X180205714Y-109211247D02*
X180205714Y-109449342D01*
X180205714Y-109449342D02*
X180158095Y-109544580D01*
X180158095Y-109544580D02*
X180110476Y-109592200D01*
X180110476Y-109592200D02*
X180015238Y-109639819D01*
X180015238Y-109639819D02*
X179729524Y-109639819D01*
X179729524Y-109639819D02*
X179634286Y-109592200D01*
X179634286Y-109592200D02*
X179586667Y-109544580D01*
X200128333Y-95964819D02*
X199795000Y-95488628D01*
X199556905Y-95964819D02*
X199556905Y-94964819D01*
X199556905Y-94964819D02*
X199937857Y-94964819D01*
X199937857Y-94964819D02*
X200033095Y-95012438D01*
X200033095Y-95012438D02*
X200080714Y-95060057D01*
X200080714Y-95060057D02*
X200128333Y-95155295D01*
X200128333Y-95155295D02*
X200128333Y-95298152D01*
X200128333Y-95298152D02*
X200080714Y-95393390D01*
X200080714Y-95393390D02*
X200033095Y-95441009D01*
X200033095Y-95441009D02*
X199937857Y-95488628D01*
X199937857Y-95488628D02*
X199556905Y-95488628D01*
X200509286Y-95060057D02*
X200556905Y-95012438D01*
X200556905Y-95012438D02*
X200652143Y-94964819D01*
X200652143Y-94964819D02*
X200890238Y-94964819D01*
X200890238Y-94964819D02*
X200985476Y-95012438D01*
X200985476Y-95012438D02*
X201033095Y-95060057D01*
X201033095Y-95060057D02*
X201080714Y-95155295D01*
X201080714Y-95155295D02*
X201080714Y-95250533D01*
X201080714Y-95250533D02*
X201033095Y-95393390D01*
X201033095Y-95393390D02*
X200461667Y-95964819D01*
X200461667Y-95964819D02*
X201080714Y-95964819D01*
X176578333Y-103204819D02*
X176245000Y-102728628D01*
X176006905Y-103204819D02*
X176006905Y-102204819D01*
X176006905Y-102204819D02*
X176387857Y-102204819D01*
X176387857Y-102204819D02*
X176483095Y-102252438D01*
X176483095Y-102252438D02*
X176530714Y-102300057D01*
X176530714Y-102300057D02*
X176578333Y-102395295D01*
X176578333Y-102395295D02*
X176578333Y-102538152D01*
X176578333Y-102538152D02*
X176530714Y-102633390D01*
X176530714Y-102633390D02*
X176483095Y-102681009D01*
X176483095Y-102681009D02*
X176387857Y-102728628D01*
X176387857Y-102728628D02*
X176006905Y-102728628D01*
X177530714Y-103204819D02*
X176959286Y-103204819D01*
X177245000Y-103204819D02*
X177245000Y-102204819D01*
X177245000Y-102204819D02*
X177149762Y-102347676D01*
X177149762Y-102347676D02*
X177054524Y-102442914D01*
X177054524Y-102442914D02*
X176959286Y-102490533D01*
X198774819Y-104113333D02*
X199489104Y-104113333D01*
X199489104Y-104113333D02*
X199631961Y-104160952D01*
X199631961Y-104160952D02*
X199727200Y-104256190D01*
X199727200Y-104256190D02*
X199774819Y-104399047D01*
X199774819Y-104399047D02*
X199774819Y-104494285D01*
X199774819Y-103637142D02*
X198774819Y-103637142D01*
X198774819Y-103637142D02*
X198774819Y-103256190D01*
X198774819Y-103256190D02*
X198822438Y-103160952D01*
X198822438Y-103160952D02*
X198870057Y-103113333D01*
X198870057Y-103113333D02*
X198965295Y-103065714D01*
X198965295Y-103065714D02*
X199108152Y-103065714D01*
X199108152Y-103065714D02*
X199203390Y-103113333D01*
X199203390Y-103113333D02*
X199251009Y-103160952D01*
X199251009Y-103160952D02*
X199298628Y-103256190D01*
X199298628Y-103256190D02*
X199298628Y-103637142D01*
X199774819Y-102113333D02*
X199774819Y-102684761D01*
X199774819Y-102399047D02*
X198774819Y-102399047D01*
X198774819Y-102399047D02*
X198917676Y-102494285D01*
X198917676Y-102494285D02*
X199012914Y-102589523D01*
X199012914Y-102589523D02*
X199060533Y-102684761D01*
X188086666Y-87914819D02*
X188086666Y-88629104D01*
X188086666Y-88629104D02*
X188039047Y-88771961D01*
X188039047Y-88771961D02*
X187943809Y-88867200D01*
X187943809Y-88867200D02*
X187800952Y-88914819D01*
X187800952Y-88914819D02*
X187705714Y-88914819D01*
X189039047Y-87914819D02*
X188562857Y-87914819D01*
X188562857Y-87914819D02*
X188515238Y-88391009D01*
X188515238Y-88391009D02*
X188562857Y-88343390D01*
X188562857Y-88343390D02*
X188658095Y-88295771D01*
X188658095Y-88295771D02*
X188896190Y-88295771D01*
X188896190Y-88295771D02*
X188991428Y-88343390D01*
X188991428Y-88343390D02*
X189039047Y-88391009D01*
X189039047Y-88391009D02*
X189086666Y-88486247D01*
X189086666Y-88486247D02*
X189086666Y-88724342D01*
X189086666Y-88724342D02*
X189039047Y-88819580D01*
X189039047Y-88819580D02*
X188991428Y-88867200D01*
X188991428Y-88867200D02*
X188896190Y-88914819D01*
X188896190Y-88914819D02*
X188658095Y-88914819D01*
X188658095Y-88914819D02*
X188562857Y-88867200D01*
X188562857Y-88867200D02*
X188515238Y-88819580D01*
X200786666Y-104164819D02*
X200786666Y-104879104D01*
X200786666Y-104879104D02*
X200739047Y-105021961D01*
X200739047Y-105021961D02*
X200643809Y-105117200D01*
X200643809Y-105117200D02*
X200500952Y-105164819D01*
X200500952Y-105164819D02*
X200405714Y-105164819D01*
X201691428Y-104498152D02*
X201691428Y-105164819D01*
X201453333Y-104117200D02*
X201215238Y-104831485D01*
X201215238Y-104831485D02*
X201834285Y-104831485D01*
X175586666Y-94129819D02*
X175586666Y-94844104D01*
X175586666Y-94844104D02*
X175539047Y-94986961D01*
X175539047Y-94986961D02*
X175443809Y-95082200D01*
X175443809Y-95082200D02*
X175300952Y-95129819D01*
X175300952Y-95129819D02*
X175205714Y-95129819D01*
X175967619Y-94129819D02*
X176586666Y-94129819D01*
X176586666Y-94129819D02*
X176253333Y-94510771D01*
X176253333Y-94510771D02*
X176396190Y-94510771D01*
X176396190Y-94510771D02*
X176491428Y-94558390D01*
X176491428Y-94558390D02*
X176539047Y-94606009D01*
X176539047Y-94606009D02*
X176586666Y-94701247D01*
X176586666Y-94701247D02*
X176586666Y-94939342D01*
X176586666Y-94939342D02*
X176539047Y-95034580D01*
X176539047Y-95034580D02*
X176491428Y-95082200D01*
X176491428Y-95082200D02*
X176396190Y-95129819D01*
X176396190Y-95129819D02*
X176110476Y-95129819D01*
X176110476Y-95129819D02*
X176015238Y-95082200D01*
X176015238Y-95082200D02*
X175967619Y-95034580D01*
X200786666Y-94129819D02*
X200786666Y-94844104D01*
X200786666Y-94844104D02*
X200739047Y-94986961D01*
X200739047Y-94986961D02*
X200643809Y-95082200D01*
X200643809Y-95082200D02*
X200500952Y-95129819D01*
X200500952Y-95129819D02*
X200405714Y-95129819D01*
X201215238Y-94225057D02*
X201262857Y-94177438D01*
X201262857Y-94177438D02*
X201358095Y-94129819D01*
X201358095Y-94129819D02*
X201596190Y-94129819D01*
X201596190Y-94129819D02*
X201691428Y-94177438D01*
X201691428Y-94177438D02*
X201739047Y-94225057D01*
X201739047Y-94225057D02*
X201786666Y-94320295D01*
X201786666Y-94320295D02*
X201786666Y-94415533D01*
X201786666Y-94415533D02*
X201739047Y-94558390D01*
X201739047Y-94558390D02*
X201167619Y-95129819D01*
X201167619Y-95129819D02*
X201786666Y-95129819D01*
X175586666Y-104164819D02*
X175586666Y-104879104D01*
X175586666Y-104879104D02*
X175539047Y-105021961D01*
X175539047Y-105021961D02*
X175443809Y-105117200D01*
X175443809Y-105117200D02*
X175300952Y-105164819D01*
X175300952Y-105164819D02*
X175205714Y-105164819D01*
X176586666Y-105164819D02*
X176015238Y-105164819D01*
X176300952Y-105164819D02*
X176300952Y-104164819D01*
X176300952Y-104164819D02*
X176205714Y-104307676D01*
X176205714Y-104307676D02*
X176110476Y-104402914D01*
X176110476Y-104402914D02*
X176015238Y-104450533D01*
X176158095Y-111634819D02*
X176158095Y-110634819D01*
X176158095Y-111111009D02*
X176729523Y-111111009D01*
X176729523Y-111634819D02*
X176729523Y-110634819D01*
X177634285Y-110968152D02*
X177634285Y-111634819D01*
X177396190Y-110587200D02*
X177158095Y-111301485D01*
X177158095Y-111301485D02*
X177777142Y-111301485D01*
X199158095Y-111634819D02*
X199158095Y-110634819D01*
X199158095Y-111111009D02*
X199729523Y-111111009D01*
X199729523Y-111634819D02*
X199729523Y-110634819D01*
X200110476Y-110634819D02*
X200729523Y-110634819D01*
X200729523Y-110634819D02*
X200396190Y-111015771D01*
X200396190Y-111015771D02*
X200539047Y-111015771D01*
X200539047Y-111015771D02*
X200634285Y-111063390D01*
X200634285Y-111063390D02*
X200681904Y-111111009D01*
X200681904Y-111111009D02*
X200729523Y-111206247D01*
X200729523Y-111206247D02*
X200729523Y-111444342D01*
X200729523Y-111444342D02*
X200681904Y-111539580D01*
X200681904Y-111539580D02*
X200634285Y-111587200D01*
X200634285Y-111587200D02*
X200539047Y-111634819D01*
X200539047Y-111634819D02*
X200253333Y-111634819D01*
X200253333Y-111634819D02*
X200158095Y-111587200D01*
X200158095Y-111587200D02*
X200110476Y-111539580D01*
X199158095Y-73164819D02*
X199158095Y-72164819D01*
X199158095Y-72641009D02*
X199729523Y-72641009D01*
X199729523Y-73164819D02*
X199729523Y-72164819D01*
X200158095Y-72260057D02*
X200205714Y-72212438D01*
X200205714Y-72212438D02*
X200300952Y-72164819D01*
X200300952Y-72164819D02*
X200539047Y-72164819D01*
X200539047Y-72164819D02*
X200634285Y-72212438D01*
X200634285Y-72212438D02*
X200681904Y-72260057D01*
X200681904Y-72260057D02*
X200729523Y-72355295D01*
X200729523Y-72355295D02*
X200729523Y-72450533D01*
X200729523Y-72450533D02*
X200681904Y-72593390D01*
X200681904Y-72593390D02*
X200110476Y-73164819D01*
X200110476Y-73164819D02*
X200729523Y-73164819D01*
X176158095Y-73164819D02*
X176158095Y-72164819D01*
X176158095Y-72641009D02*
X176729523Y-72641009D01*
X176729523Y-73164819D02*
X176729523Y-72164819D01*
X177729523Y-73164819D02*
X177158095Y-73164819D01*
X177443809Y-73164819D02*
X177443809Y-72164819D01*
X177443809Y-72164819D02*
X177348571Y-72307676D01*
X177348571Y-72307676D02*
X177253333Y-72402914D01*
X177253333Y-72402914D02*
X177158095Y-72450533D01*
X175848571Y-80364509D02*
X175515238Y-80364509D01*
X175515238Y-80888319D02*
X175515238Y-79888319D01*
X175515238Y-79888319D02*
X175991428Y-79888319D01*
X176372381Y-80888319D02*
X176372381Y-79888319D01*
X176848571Y-80888319D02*
X176848571Y-79888319D01*
X176848571Y-79888319D02*
X177086666Y-79888319D01*
X177086666Y-79888319D02*
X177229523Y-79935938D01*
X177229523Y-79935938D02*
X177324761Y-80031176D01*
X177324761Y-80031176D02*
X177372380Y-80126414D01*
X177372380Y-80126414D02*
X177419999Y-80316890D01*
X177419999Y-80316890D02*
X177419999Y-80459747D01*
X177419999Y-80459747D02*
X177372380Y-80650223D01*
X177372380Y-80650223D02*
X177324761Y-80745461D01*
X177324761Y-80745461D02*
X177229523Y-80840700D01*
X177229523Y-80840700D02*
X177086666Y-80888319D01*
X177086666Y-80888319D02*
X176848571Y-80888319D01*
X177753333Y-79888319D02*
X178372380Y-79888319D01*
X178372380Y-79888319D02*
X178039047Y-80269271D01*
X178039047Y-80269271D02*
X178181904Y-80269271D01*
X178181904Y-80269271D02*
X178277142Y-80316890D01*
X178277142Y-80316890D02*
X178324761Y-80364509D01*
X178324761Y-80364509D02*
X178372380Y-80459747D01*
X178372380Y-80459747D02*
X178372380Y-80697842D01*
X178372380Y-80697842D02*
X178324761Y-80793080D01*
X178324761Y-80793080D02*
X178277142Y-80840700D01*
X178277142Y-80840700D02*
X178181904Y-80888319D01*
X178181904Y-80888319D02*
X177896190Y-80888319D01*
X177896190Y-80888319D02*
X177800952Y-80840700D01*
X177800952Y-80840700D02*
X177753333Y-80793080D01*
X198848571Y-80364509D02*
X198515238Y-80364509D01*
X198515238Y-80888319D02*
X198515238Y-79888319D01*
X198515238Y-79888319D02*
X198991428Y-79888319D01*
X199372381Y-80888319D02*
X199372381Y-79888319D01*
X199848571Y-80888319D02*
X199848571Y-79888319D01*
X199848571Y-79888319D02*
X200086666Y-79888319D01*
X200086666Y-79888319D02*
X200229523Y-79935938D01*
X200229523Y-79935938D02*
X200324761Y-80031176D01*
X200324761Y-80031176D02*
X200372380Y-80126414D01*
X200372380Y-80126414D02*
X200419999Y-80316890D01*
X200419999Y-80316890D02*
X200419999Y-80459747D01*
X200419999Y-80459747D02*
X200372380Y-80650223D01*
X200372380Y-80650223D02*
X200324761Y-80745461D01*
X200324761Y-80745461D02*
X200229523Y-80840700D01*
X200229523Y-80840700D02*
X200086666Y-80888319D01*
X200086666Y-80888319D02*
X199848571Y-80888319D01*
X200800952Y-79983557D02*
X200848571Y-79935938D01*
X200848571Y-79935938D02*
X200943809Y-79888319D01*
X200943809Y-79888319D02*
X201181904Y-79888319D01*
X201181904Y-79888319D02*
X201277142Y-79935938D01*
X201277142Y-79935938D02*
X201324761Y-79983557D01*
X201324761Y-79983557D02*
X201372380Y-80078795D01*
X201372380Y-80078795D02*
X201372380Y-80174033D01*
X201372380Y-80174033D02*
X201324761Y-80316890D01*
X201324761Y-80316890D02*
X200753333Y-80888319D01*
X200753333Y-80888319D02*
X201372380Y-80888319D01*
X192848571Y-112834509D02*
X192515238Y-112834509D01*
X192515238Y-113358319D02*
X192515238Y-112358319D01*
X192515238Y-112358319D02*
X192991428Y-112358319D01*
X193372381Y-113358319D02*
X193372381Y-112358319D01*
X193848571Y-113358319D02*
X193848571Y-112358319D01*
X193848571Y-112358319D02*
X194086666Y-112358319D01*
X194086666Y-112358319D02*
X194229523Y-112405938D01*
X194229523Y-112405938D02*
X194324761Y-112501176D01*
X194324761Y-112501176D02*
X194372380Y-112596414D01*
X194372380Y-112596414D02*
X194419999Y-112786890D01*
X194419999Y-112786890D02*
X194419999Y-112929747D01*
X194419999Y-112929747D02*
X194372380Y-113120223D01*
X194372380Y-113120223D02*
X194324761Y-113215461D01*
X194324761Y-113215461D02*
X194229523Y-113310700D01*
X194229523Y-113310700D02*
X194086666Y-113358319D01*
X194086666Y-113358319D02*
X193848571Y-113358319D01*
X195372380Y-113358319D02*
X194800952Y-113358319D01*
X195086666Y-113358319D02*
X195086666Y-112358319D01*
X195086666Y-112358319D02*
X194991428Y-112501176D01*
X194991428Y-112501176D02*
X194896190Y-112596414D01*
X194896190Y-112596414D02*
X194800952Y-112644033D01*
X187497181Y-114539543D02*
X187497181Y-113539543D01*
X187497181Y-113539543D02*
X187735276Y-113539543D01*
X187735276Y-113539543D02*
X187878133Y-113587162D01*
X187878133Y-113587162D02*
X187973371Y-113682400D01*
X187973371Y-113682400D02*
X188020990Y-113777638D01*
X188020990Y-113777638D02*
X188068609Y-113968114D01*
X188068609Y-113968114D02*
X188068609Y-114110971D01*
X188068609Y-114110971D02*
X188020990Y-114301447D01*
X188020990Y-114301447D02*
X187973371Y-114396685D01*
X187973371Y-114396685D02*
X187878133Y-114491924D01*
X187878133Y-114491924D02*
X187735276Y-114539543D01*
X187735276Y-114539543D02*
X187497181Y-114539543D01*
X188401943Y-113539543D02*
X189020990Y-113539543D01*
X189020990Y-113539543D02*
X188687657Y-113920495D01*
X188687657Y-113920495D02*
X188830514Y-113920495D01*
X188830514Y-113920495D02*
X188925752Y-113968114D01*
X188925752Y-113968114D02*
X188973371Y-114015733D01*
X188973371Y-114015733D02*
X189020990Y-114110971D01*
X189020990Y-114110971D02*
X189020990Y-114349066D01*
X189020990Y-114349066D02*
X188973371Y-114444304D01*
X188973371Y-114444304D02*
X188925752Y-114491924D01*
X188925752Y-114491924D02*
X188830514Y-114539543D01*
X188830514Y-114539543D02*
X188544800Y-114539543D01*
X188544800Y-114539543D02*
X188449562Y-114491924D01*
X188449562Y-114491924D02*
X188401943Y-114444304D01*
X196494405Y-93104819D02*
X196494405Y-92104819D01*
X196494405Y-92104819D02*
X196732500Y-92104819D01*
X196732500Y-92104819D02*
X196875357Y-92152438D01*
X196875357Y-92152438D02*
X196970595Y-92247676D01*
X196970595Y-92247676D02*
X197018214Y-92342914D01*
X197018214Y-92342914D02*
X197065833Y-92533390D01*
X197065833Y-92533390D02*
X197065833Y-92676247D01*
X197065833Y-92676247D02*
X197018214Y-92866723D01*
X197018214Y-92866723D02*
X196970595Y-92961961D01*
X196970595Y-92961961D02*
X196875357Y-93057200D01*
X196875357Y-93057200D02*
X196732500Y-93104819D01*
X196732500Y-93104819D02*
X196494405Y-93104819D01*
X197446786Y-92200057D02*
X197494405Y-92152438D01*
X197494405Y-92152438D02*
X197589643Y-92104819D01*
X197589643Y-92104819D02*
X197827738Y-92104819D01*
X197827738Y-92104819D02*
X197922976Y-92152438D01*
X197922976Y-92152438D02*
X197970595Y-92200057D01*
X197970595Y-92200057D02*
X198018214Y-92295295D01*
X198018214Y-92295295D02*
X198018214Y-92390533D01*
X198018214Y-92390533D02*
X197970595Y-92533390D01*
X197970595Y-92533390D02*
X197399167Y-93104819D01*
X197399167Y-93104819D02*
X198018214Y-93104819D01*
X179106905Y-106064819D02*
X179106905Y-105064819D01*
X179106905Y-105064819D02*
X179345000Y-105064819D01*
X179345000Y-105064819D02*
X179487857Y-105112438D01*
X179487857Y-105112438D02*
X179583095Y-105207676D01*
X179583095Y-105207676D02*
X179630714Y-105302914D01*
X179630714Y-105302914D02*
X179678333Y-105493390D01*
X179678333Y-105493390D02*
X179678333Y-105636247D01*
X179678333Y-105636247D02*
X179630714Y-105826723D01*
X179630714Y-105826723D02*
X179583095Y-105921961D01*
X179583095Y-105921961D02*
X179487857Y-106017200D01*
X179487857Y-106017200D02*
X179345000Y-106064819D01*
X179345000Y-106064819D02*
X179106905Y-106064819D01*
X180630714Y-106064819D02*
X180059286Y-106064819D01*
X180345000Y-106064819D02*
X180345000Y-105064819D01*
X180345000Y-105064819D02*
X180249762Y-105207676D01*
X180249762Y-105207676D02*
X180154524Y-105302914D01*
X180154524Y-105302914D02*
X180059286Y-105350533D01*
X185869580Y-90022857D02*
X185917200Y-90070476D01*
X185917200Y-90070476D02*
X185964819Y-90213333D01*
X185964819Y-90213333D02*
X185964819Y-90308571D01*
X185964819Y-90308571D02*
X185917200Y-90451428D01*
X185917200Y-90451428D02*
X185821961Y-90546666D01*
X185821961Y-90546666D02*
X185726723Y-90594285D01*
X185726723Y-90594285D02*
X185536247Y-90641904D01*
X185536247Y-90641904D02*
X185393390Y-90641904D01*
X185393390Y-90641904D02*
X185202914Y-90594285D01*
X185202914Y-90594285D02*
X185107676Y-90546666D01*
X185107676Y-90546666D02*
X185012438Y-90451428D01*
X185012438Y-90451428D02*
X184964819Y-90308571D01*
X184964819Y-90308571D02*
X184964819Y-90213333D01*
X184964819Y-90213333D02*
X185012438Y-90070476D01*
X185012438Y-90070476D02*
X185060057Y-90022857D01*
X185964819Y-89070476D02*
X185964819Y-89641904D01*
X185964819Y-89356190D02*
X184964819Y-89356190D01*
X184964819Y-89356190D02*
X185107676Y-89451428D01*
X185107676Y-89451428D02*
X185202914Y-89546666D01*
X185202914Y-89546666D02*
X185250533Y-89641904D01*
X185060057Y-88689523D02*
X185012438Y-88641904D01*
X185012438Y-88641904D02*
X184964819Y-88546666D01*
X184964819Y-88546666D02*
X184964819Y-88308571D01*
X184964819Y-88308571D02*
X185012438Y-88213333D01*
X185012438Y-88213333D02*
X185060057Y-88165714D01*
X185060057Y-88165714D02*
X185155295Y-88118095D01*
X185155295Y-88118095D02*
X185250533Y-88118095D01*
X185250533Y-88118095D02*
X185393390Y-88165714D01*
X185393390Y-88165714D02*
X185964819Y-88737142D01*
X185964819Y-88737142D02*
X185964819Y-88118095D01*
X186269580Y-100622857D02*
X186317200Y-100670476D01*
X186317200Y-100670476D02*
X186364819Y-100813333D01*
X186364819Y-100813333D02*
X186364819Y-100908571D01*
X186364819Y-100908571D02*
X186317200Y-101051428D01*
X186317200Y-101051428D02*
X186221961Y-101146666D01*
X186221961Y-101146666D02*
X186126723Y-101194285D01*
X186126723Y-101194285D02*
X185936247Y-101241904D01*
X185936247Y-101241904D02*
X185793390Y-101241904D01*
X185793390Y-101241904D02*
X185602914Y-101194285D01*
X185602914Y-101194285D02*
X185507676Y-101146666D01*
X185507676Y-101146666D02*
X185412438Y-101051428D01*
X185412438Y-101051428D02*
X185364819Y-100908571D01*
X185364819Y-100908571D02*
X185364819Y-100813333D01*
X185364819Y-100813333D02*
X185412438Y-100670476D01*
X185412438Y-100670476D02*
X185460057Y-100622857D01*
X186364819Y-99670476D02*
X186364819Y-100241904D01*
X186364819Y-99956190D02*
X185364819Y-99956190D01*
X185364819Y-99956190D02*
X185507676Y-100051428D01*
X185507676Y-100051428D02*
X185602914Y-100146666D01*
X185602914Y-100146666D02*
X185650533Y-100241904D01*
X186364819Y-98718095D02*
X186364819Y-99289523D01*
X186364819Y-99003809D02*
X185364819Y-99003809D01*
X185364819Y-99003809D02*
X185507676Y-99099047D01*
X185507676Y-99099047D02*
X185602914Y-99194285D01*
X185602914Y-99194285D02*
X185650533Y-99289523D01*
X186907142Y-103899580D02*
X186859523Y-103947200D01*
X186859523Y-103947200D02*
X186716666Y-103994819D01*
X186716666Y-103994819D02*
X186621428Y-103994819D01*
X186621428Y-103994819D02*
X186478571Y-103947200D01*
X186478571Y-103947200D02*
X186383333Y-103851961D01*
X186383333Y-103851961D02*
X186335714Y-103756723D01*
X186335714Y-103756723D02*
X186288095Y-103566247D01*
X186288095Y-103566247D02*
X186288095Y-103423390D01*
X186288095Y-103423390D02*
X186335714Y-103232914D01*
X186335714Y-103232914D02*
X186383333Y-103137676D01*
X186383333Y-103137676D02*
X186478571Y-103042438D01*
X186478571Y-103042438D02*
X186621428Y-102994819D01*
X186621428Y-102994819D02*
X186716666Y-102994819D01*
X186716666Y-102994819D02*
X186859523Y-103042438D01*
X186859523Y-103042438D02*
X186907142Y-103090057D01*
X187859523Y-103994819D02*
X187288095Y-103994819D01*
X187573809Y-103994819D02*
X187573809Y-102994819D01*
X187573809Y-102994819D02*
X187478571Y-103137676D01*
X187478571Y-103137676D02*
X187383333Y-103232914D01*
X187383333Y-103232914D02*
X187288095Y-103280533D01*
X188478571Y-102994819D02*
X188573809Y-102994819D01*
X188573809Y-102994819D02*
X188669047Y-103042438D01*
X188669047Y-103042438D02*
X188716666Y-103090057D01*
X188716666Y-103090057D02*
X188764285Y-103185295D01*
X188764285Y-103185295D02*
X188811904Y-103375771D01*
X188811904Y-103375771D02*
X188811904Y-103613866D01*
X188811904Y-103613866D02*
X188764285Y-103804342D01*
X188764285Y-103804342D02*
X188716666Y-103899580D01*
X188716666Y-103899580D02*
X188669047Y-103947200D01*
X188669047Y-103947200D02*
X188573809Y-103994819D01*
X188573809Y-103994819D02*
X188478571Y-103994819D01*
X188478571Y-103994819D02*
X188383333Y-103947200D01*
X188383333Y-103947200D02*
X188335714Y-103899580D01*
X188335714Y-103899580D02*
X188288095Y-103804342D01*
X188288095Y-103804342D02*
X188240476Y-103613866D01*
X188240476Y-103613866D02*
X188240476Y-103375771D01*
X188240476Y-103375771D02*
X188288095Y-103185295D01*
X188288095Y-103185295D02*
X188335714Y-103090057D01*
X188335714Y-103090057D02*
X188383333Y-103042438D01*
X188383333Y-103042438D02*
X188478571Y-102994819D01*
X183769580Y-107946666D02*
X183817200Y-107994285D01*
X183817200Y-107994285D02*
X183864819Y-108137142D01*
X183864819Y-108137142D02*
X183864819Y-108232380D01*
X183864819Y-108232380D02*
X183817200Y-108375237D01*
X183817200Y-108375237D02*
X183721961Y-108470475D01*
X183721961Y-108470475D02*
X183626723Y-108518094D01*
X183626723Y-108518094D02*
X183436247Y-108565713D01*
X183436247Y-108565713D02*
X183293390Y-108565713D01*
X183293390Y-108565713D02*
X183102914Y-108518094D01*
X183102914Y-108518094D02*
X183007676Y-108470475D01*
X183007676Y-108470475D02*
X182912438Y-108375237D01*
X182912438Y-108375237D02*
X182864819Y-108232380D01*
X182864819Y-108232380D02*
X182864819Y-108137142D01*
X182864819Y-108137142D02*
X182912438Y-107994285D01*
X182912438Y-107994285D02*
X182960057Y-107946666D01*
X183864819Y-107470475D02*
X183864819Y-107279999D01*
X183864819Y-107279999D02*
X183817200Y-107184761D01*
X183817200Y-107184761D02*
X183769580Y-107137142D01*
X183769580Y-107137142D02*
X183626723Y-107041904D01*
X183626723Y-107041904D02*
X183436247Y-106994285D01*
X183436247Y-106994285D02*
X183055295Y-106994285D01*
X183055295Y-106994285D02*
X182960057Y-107041904D01*
X182960057Y-107041904D02*
X182912438Y-107089523D01*
X182912438Y-107089523D02*
X182864819Y-107184761D01*
X182864819Y-107184761D02*
X182864819Y-107375237D01*
X182864819Y-107375237D02*
X182912438Y-107470475D01*
X182912438Y-107470475D02*
X182960057Y-107518094D01*
X182960057Y-107518094D02*
X183055295Y-107565713D01*
X183055295Y-107565713D02*
X183293390Y-107565713D01*
X183293390Y-107565713D02*
X183388628Y-107518094D01*
X183388628Y-107518094D02*
X183436247Y-107470475D01*
X183436247Y-107470475D02*
X183483866Y-107375237D01*
X183483866Y-107375237D02*
X183483866Y-107184761D01*
X183483866Y-107184761D02*
X183436247Y-107089523D01*
X183436247Y-107089523D02*
X183388628Y-107041904D01*
X183388628Y-107041904D02*
X183293390Y-106994285D01*
X182199580Y-108481666D02*
X182247200Y-108529285D01*
X182247200Y-108529285D02*
X182294819Y-108672142D01*
X182294819Y-108672142D02*
X182294819Y-108767380D01*
X182294819Y-108767380D02*
X182247200Y-108910237D01*
X182247200Y-108910237D02*
X182151961Y-109005475D01*
X182151961Y-109005475D02*
X182056723Y-109053094D01*
X182056723Y-109053094D02*
X181866247Y-109100713D01*
X181866247Y-109100713D02*
X181723390Y-109100713D01*
X181723390Y-109100713D02*
X181532914Y-109053094D01*
X181532914Y-109053094D02*
X181437676Y-109005475D01*
X181437676Y-109005475D02*
X181342438Y-108910237D01*
X181342438Y-108910237D02*
X181294819Y-108767380D01*
X181294819Y-108767380D02*
X181294819Y-108672142D01*
X181294819Y-108672142D02*
X181342438Y-108529285D01*
X181342438Y-108529285D02*
X181390057Y-108481666D01*
X181723390Y-107910237D02*
X181675771Y-108005475D01*
X181675771Y-108005475D02*
X181628152Y-108053094D01*
X181628152Y-108053094D02*
X181532914Y-108100713D01*
X181532914Y-108100713D02*
X181485295Y-108100713D01*
X181485295Y-108100713D02*
X181390057Y-108053094D01*
X181390057Y-108053094D02*
X181342438Y-108005475D01*
X181342438Y-108005475D02*
X181294819Y-107910237D01*
X181294819Y-107910237D02*
X181294819Y-107719761D01*
X181294819Y-107719761D02*
X181342438Y-107624523D01*
X181342438Y-107624523D02*
X181390057Y-107576904D01*
X181390057Y-107576904D02*
X181485295Y-107529285D01*
X181485295Y-107529285D02*
X181532914Y-107529285D01*
X181532914Y-107529285D02*
X181628152Y-107576904D01*
X181628152Y-107576904D02*
X181675771Y-107624523D01*
X181675771Y-107624523D02*
X181723390Y-107719761D01*
X181723390Y-107719761D02*
X181723390Y-107910237D01*
X181723390Y-107910237D02*
X181771009Y-108005475D01*
X181771009Y-108005475D02*
X181818628Y-108053094D01*
X181818628Y-108053094D02*
X181913866Y-108100713D01*
X181913866Y-108100713D02*
X182104342Y-108100713D01*
X182104342Y-108100713D02*
X182199580Y-108053094D01*
X182199580Y-108053094D02*
X182247200Y-108005475D01*
X182247200Y-108005475D02*
X182294819Y-107910237D01*
X182294819Y-107910237D02*
X182294819Y-107719761D01*
X182294819Y-107719761D02*
X182247200Y-107624523D01*
X182247200Y-107624523D02*
X182199580Y-107576904D01*
X182199580Y-107576904D02*
X182104342Y-107529285D01*
X182104342Y-107529285D02*
X181913866Y-107529285D01*
X181913866Y-107529285D02*
X181818628Y-107576904D01*
X181818628Y-107576904D02*
X181771009Y-107624523D01*
X181771009Y-107624523D02*
X181723390Y-107719761D01*
X183459580Y-108481666D02*
X183507200Y-108529285D01*
X183507200Y-108529285D02*
X183554819Y-108672142D01*
X183554819Y-108672142D02*
X183554819Y-108767380D01*
X183554819Y-108767380D02*
X183507200Y-108910237D01*
X183507200Y-108910237D02*
X183411961Y-109005475D01*
X183411961Y-109005475D02*
X183316723Y-109053094D01*
X183316723Y-109053094D02*
X183126247Y-109100713D01*
X183126247Y-109100713D02*
X182983390Y-109100713D01*
X182983390Y-109100713D02*
X182792914Y-109053094D01*
X182792914Y-109053094D02*
X182697676Y-109005475D01*
X182697676Y-109005475D02*
X182602438Y-108910237D01*
X182602438Y-108910237D02*
X182554819Y-108767380D01*
X182554819Y-108767380D02*
X182554819Y-108672142D01*
X182554819Y-108672142D02*
X182602438Y-108529285D01*
X182602438Y-108529285D02*
X182650057Y-108481666D01*
X182554819Y-108148332D02*
X182554819Y-107481666D01*
X182554819Y-107481666D02*
X183554819Y-107910237D01*
X192539580Y-93526666D02*
X192587200Y-93574285D01*
X192587200Y-93574285D02*
X192634819Y-93717142D01*
X192634819Y-93717142D02*
X192634819Y-93812380D01*
X192634819Y-93812380D02*
X192587200Y-93955237D01*
X192587200Y-93955237D02*
X192491961Y-94050475D01*
X192491961Y-94050475D02*
X192396723Y-94098094D01*
X192396723Y-94098094D02*
X192206247Y-94145713D01*
X192206247Y-94145713D02*
X192063390Y-94145713D01*
X192063390Y-94145713D02*
X191872914Y-94098094D01*
X191872914Y-94098094D02*
X191777676Y-94050475D01*
X191777676Y-94050475D02*
X191682438Y-93955237D01*
X191682438Y-93955237D02*
X191634819Y-93812380D01*
X191634819Y-93812380D02*
X191634819Y-93717142D01*
X191634819Y-93717142D02*
X191682438Y-93574285D01*
X191682438Y-93574285D02*
X191730057Y-93526666D01*
X191634819Y-92669523D02*
X191634819Y-92859999D01*
X191634819Y-92859999D02*
X191682438Y-92955237D01*
X191682438Y-92955237D02*
X191730057Y-93002856D01*
X191730057Y-93002856D02*
X191872914Y-93098094D01*
X191872914Y-93098094D02*
X192063390Y-93145713D01*
X192063390Y-93145713D02*
X192444342Y-93145713D01*
X192444342Y-93145713D02*
X192539580Y-93098094D01*
X192539580Y-93098094D02*
X192587200Y-93050475D01*
X192587200Y-93050475D02*
X192634819Y-92955237D01*
X192634819Y-92955237D02*
X192634819Y-92764761D01*
X192634819Y-92764761D02*
X192587200Y-92669523D01*
X192587200Y-92669523D02*
X192539580Y-92621904D01*
X192539580Y-92621904D02*
X192444342Y-92574285D01*
X192444342Y-92574285D02*
X192206247Y-92574285D01*
X192206247Y-92574285D02*
X192111009Y-92621904D01*
X192111009Y-92621904D02*
X192063390Y-92669523D01*
X192063390Y-92669523D02*
X192015771Y-92764761D01*
X192015771Y-92764761D02*
X192015771Y-92955237D01*
X192015771Y-92955237D02*
X192063390Y-93050475D01*
X192063390Y-93050475D02*
X192111009Y-93098094D01*
X192111009Y-93098094D02*
X192206247Y-93145713D01*
X192939580Y-105046666D02*
X192987200Y-105094285D01*
X192987200Y-105094285D02*
X193034819Y-105237142D01*
X193034819Y-105237142D02*
X193034819Y-105332380D01*
X193034819Y-105332380D02*
X192987200Y-105475237D01*
X192987200Y-105475237D02*
X192891961Y-105570475D01*
X192891961Y-105570475D02*
X192796723Y-105618094D01*
X192796723Y-105618094D02*
X192606247Y-105665713D01*
X192606247Y-105665713D02*
X192463390Y-105665713D01*
X192463390Y-105665713D02*
X192272914Y-105618094D01*
X192272914Y-105618094D02*
X192177676Y-105570475D01*
X192177676Y-105570475D02*
X192082438Y-105475237D01*
X192082438Y-105475237D02*
X192034819Y-105332380D01*
X192034819Y-105332380D02*
X192034819Y-105237142D01*
X192034819Y-105237142D02*
X192082438Y-105094285D01*
X192082438Y-105094285D02*
X192130057Y-105046666D01*
X192034819Y-104141904D02*
X192034819Y-104618094D01*
X192034819Y-104618094D02*
X192511009Y-104665713D01*
X192511009Y-104665713D02*
X192463390Y-104618094D01*
X192463390Y-104618094D02*
X192415771Y-104522856D01*
X192415771Y-104522856D02*
X192415771Y-104284761D01*
X192415771Y-104284761D02*
X192463390Y-104189523D01*
X192463390Y-104189523D02*
X192511009Y-104141904D01*
X192511009Y-104141904D02*
X192606247Y-104094285D01*
X192606247Y-104094285D02*
X192844342Y-104094285D01*
X192844342Y-104094285D02*
X192939580Y-104141904D01*
X192939580Y-104141904D02*
X192987200Y-104189523D01*
X192987200Y-104189523D02*
X193034819Y-104284761D01*
X193034819Y-104284761D02*
X193034819Y-104522856D01*
X193034819Y-104522856D02*
X192987200Y-104618094D01*
X192987200Y-104618094D02*
X192939580Y-104665713D01*
X194109580Y-94071666D02*
X194157200Y-94119285D01*
X194157200Y-94119285D02*
X194204819Y-94262142D01*
X194204819Y-94262142D02*
X194204819Y-94357380D01*
X194204819Y-94357380D02*
X194157200Y-94500237D01*
X194157200Y-94500237D02*
X194061961Y-94595475D01*
X194061961Y-94595475D02*
X193966723Y-94643094D01*
X193966723Y-94643094D02*
X193776247Y-94690713D01*
X193776247Y-94690713D02*
X193633390Y-94690713D01*
X193633390Y-94690713D02*
X193442914Y-94643094D01*
X193442914Y-94643094D02*
X193347676Y-94595475D01*
X193347676Y-94595475D02*
X193252438Y-94500237D01*
X193252438Y-94500237D02*
X193204819Y-94357380D01*
X193204819Y-94357380D02*
X193204819Y-94262142D01*
X193204819Y-94262142D02*
X193252438Y-94119285D01*
X193252438Y-94119285D02*
X193300057Y-94071666D01*
X193538152Y-93214523D02*
X194204819Y-93214523D01*
X193157200Y-93452618D02*
X193871485Y-93690713D01*
X193871485Y-93690713D02*
X193871485Y-93071666D01*
X194509580Y-105546666D02*
X194557200Y-105594285D01*
X194557200Y-105594285D02*
X194604819Y-105737142D01*
X194604819Y-105737142D02*
X194604819Y-105832380D01*
X194604819Y-105832380D02*
X194557200Y-105975237D01*
X194557200Y-105975237D02*
X194461961Y-106070475D01*
X194461961Y-106070475D02*
X194366723Y-106118094D01*
X194366723Y-106118094D02*
X194176247Y-106165713D01*
X194176247Y-106165713D02*
X194033390Y-106165713D01*
X194033390Y-106165713D02*
X193842914Y-106118094D01*
X193842914Y-106118094D02*
X193747676Y-106070475D01*
X193747676Y-106070475D02*
X193652438Y-105975237D01*
X193652438Y-105975237D02*
X193604819Y-105832380D01*
X193604819Y-105832380D02*
X193604819Y-105737142D01*
X193604819Y-105737142D02*
X193652438Y-105594285D01*
X193652438Y-105594285D02*
X193700057Y-105546666D01*
X193604819Y-105213332D02*
X193604819Y-104594285D01*
X193604819Y-104594285D02*
X193985771Y-104927618D01*
X193985771Y-104927618D02*
X193985771Y-104784761D01*
X193985771Y-104784761D02*
X194033390Y-104689523D01*
X194033390Y-104689523D02*
X194081009Y-104641904D01*
X194081009Y-104641904D02*
X194176247Y-104594285D01*
X194176247Y-104594285D02*
X194414342Y-104594285D01*
X194414342Y-104594285D02*
X194509580Y-104641904D01*
X194509580Y-104641904D02*
X194557200Y-104689523D01*
X194557200Y-104689523D02*
X194604819Y-104784761D01*
X194604819Y-104784761D02*
X194604819Y-105070475D01*
X194604819Y-105070475D02*
X194557200Y-105165713D01*
X194557200Y-105165713D02*
X194509580Y-105213332D01*
X195709580Y-94071666D02*
X195757200Y-94119285D01*
X195757200Y-94119285D02*
X195804819Y-94262142D01*
X195804819Y-94262142D02*
X195804819Y-94357380D01*
X195804819Y-94357380D02*
X195757200Y-94500237D01*
X195757200Y-94500237D02*
X195661961Y-94595475D01*
X195661961Y-94595475D02*
X195566723Y-94643094D01*
X195566723Y-94643094D02*
X195376247Y-94690713D01*
X195376247Y-94690713D02*
X195233390Y-94690713D01*
X195233390Y-94690713D02*
X195042914Y-94643094D01*
X195042914Y-94643094D02*
X194947676Y-94595475D01*
X194947676Y-94595475D02*
X194852438Y-94500237D01*
X194852438Y-94500237D02*
X194804819Y-94357380D01*
X194804819Y-94357380D02*
X194804819Y-94262142D01*
X194804819Y-94262142D02*
X194852438Y-94119285D01*
X194852438Y-94119285D02*
X194900057Y-94071666D01*
X194900057Y-93690713D02*
X194852438Y-93643094D01*
X194852438Y-93643094D02*
X194804819Y-93547856D01*
X194804819Y-93547856D02*
X194804819Y-93309761D01*
X194804819Y-93309761D02*
X194852438Y-93214523D01*
X194852438Y-93214523D02*
X194900057Y-93166904D01*
X194900057Y-93166904D02*
X194995295Y-93119285D01*
X194995295Y-93119285D02*
X195090533Y-93119285D01*
X195090533Y-93119285D02*
X195233390Y-93166904D01*
X195233390Y-93166904D02*
X195804819Y-93738332D01*
X195804819Y-93738332D02*
X195804819Y-93119285D01*
X196109580Y-105546666D02*
X196157200Y-105594285D01*
X196157200Y-105594285D02*
X196204819Y-105737142D01*
X196204819Y-105737142D02*
X196204819Y-105832380D01*
X196204819Y-105832380D02*
X196157200Y-105975237D01*
X196157200Y-105975237D02*
X196061961Y-106070475D01*
X196061961Y-106070475D02*
X195966723Y-106118094D01*
X195966723Y-106118094D02*
X195776247Y-106165713D01*
X195776247Y-106165713D02*
X195633390Y-106165713D01*
X195633390Y-106165713D02*
X195442914Y-106118094D01*
X195442914Y-106118094D02*
X195347676Y-106070475D01*
X195347676Y-106070475D02*
X195252438Y-105975237D01*
X195252438Y-105975237D02*
X195204819Y-105832380D01*
X195204819Y-105832380D02*
X195204819Y-105737142D01*
X195204819Y-105737142D02*
X195252438Y-105594285D01*
X195252438Y-105594285D02*
X195300057Y-105546666D01*
X196204819Y-104594285D02*
X196204819Y-105165713D01*
X196204819Y-104879999D02*
X195204819Y-104879999D01*
X195204819Y-104879999D02*
X195347676Y-104975237D01*
X195347676Y-104975237D02*
X195442914Y-105070475D01*
X195442914Y-105070475D02*
X195490533Y-105165713D01*
D11*
%TO.C,U2*%
X186820000Y-92720000D02*
X186580000Y-92390000D01*
X187060000Y-92390000D01*
X186820000Y-92720000D01*
G36*
X186820000Y-92720000D02*
G01*
X186580000Y-92390000D01*
X187060000Y-92390000D01*
X186820000Y-92720000D01*
G37*
X188120000Y-92670000D02*
X188920000Y-92670000D01*
X188120000Y-92670000D02*
X187320000Y-92670000D01*
X187120000Y-95890000D02*
X188920000Y-95890000D01*
%TO.C,U1*%
X187220000Y-104220000D02*
X186980000Y-103890000D01*
X187460000Y-103890000D01*
X187220000Y-104220000D01*
G36*
X187220000Y-104220000D02*
G01*
X186980000Y-103890000D01*
X187460000Y-103890000D01*
X187220000Y-104220000D01*
G37*
X188520000Y-104170000D02*
X189320000Y-104170000D01*
X188520000Y-104170000D02*
X187720000Y-104170000D01*
X187520000Y-107390000D02*
X189320000Y-107390000D01*
%TO.C,TP11*%
X187370000Y-87880000D02*
G75*
G02*
X185970000Y-87880000I-700000J0D01*
G01*
X185970000Y-87880000D02*
G75*
G02*
X187370000Y-87880000I700000J0D01*
G01*
%TO.C,TP10*%
X187370000Y-90880000D02*
G75*
G02*
X185970000Y-90880000I-700000J0D01*
G01*
X185970000Y-90880000D02*
G75*
G02*
X187370000Y-90880000I700000J0D01*
G01*
%TO.C,TP9*%
X190070000Y-96580000D02*
G75*
G02*
X188670000Y-96580000I-700000J0D01*
G01*
X188670000Y-96580000D02*
G75*
G02*
X190070000Y-96580000I700000J0D01*
G01*
%TO.C,TP8*%
X187770000Y-98480000D02*
G75*
G02*
X186370000Y-98480000I-700000J0D01*
G01*
X186370000Y-98480000D02*
G75*
G02*
X187770000Y-98480000I700000J0D01*
G01*
%TO.C,TP7*%
X187770000Y-101380000D02*
G75*
G02*
X186370000Y-101380000I-700000J0D01*
G01*
X186370000Y-101380000D02*
G75*
G02*
X187770000Y-101380000I700000J0D01*
G01*
%TO.C,TP6*%
X190205276Y-108380000D02*
G75*
G02*
X188805276Y-108380000I-700000J0D01*
G01*
X188805276Y-108380000D02*
G75*
G02*
X190205276Y-108380000I700000J0D01*
G01*
%TO.C,TP5*%
X197540000Y-103930000D02*
G75*
G02*
X196140000Y-103930000I-700000J0D01*
G01*
X196140000Y-103930000D02*
G75*
G02*
X197540000Y-103930000I700000J0D01*
G01*
%TO.C,TP4*%
X185620000Y-98580000D02*
G75*
G02*
X184220000Y-98580000I-700000J0D01*
G01*
X184220000Y-98580000D02*
G75*
G02*
X185620000Y-98580000I700000J0D01*
G01*
%TO.C,TP3*%
X184920000Y-102380000D02*
G75*
G02*
X183520000Y-102380000I-700000J0D01*
G01*
X183520000Y-102380000D02*
G75*
G02*
X184920000Y-102380000I700000J0D01*
G01*
%TO.C,TP2*%
X185870000Y-110064724D02*
G75*
G02*
X184470000Y-110064724I-700000J0D01*
G01*
X184470000Y-110064724D02*
G75*
G02*
X185870000Y-110064724I700000J0D01*
G01*
%TO.C,TP1*%
X179295000Y-109180000D02*
G75*
G02*
X177895000Y-109180000I-700000J0D01*
G01*
X177895000Y-109180000D02*
G75*
G02*
X179295000Y-109180000I700000J0D01*
G01*
%TO.C,R11*%
X188283641Y-88520000D02*
X187976359Y-88520000D01*
X188283641Y-89280000D02*
X187976359Y-89280000D01*
%TO.C,R10*%
X187333641Y-91500000D02*
X187026359Y-91500000D01*
X187333641Y-92260000D02*
X187026359Y-92260000D01*
%TO.C,R9*%
X187426359Y-97760000D02*
X187733641Y-97760000D01*
X187426359Y-97000000D02*
X187733641Y-97000000D01*
%TO.C,R8*%
X187733641Y-103760000D02*
X187426359Y-103760000D01*
X187733641Y-103000000D02*
X187426359Y-103000000D01*
%TO.C,R7*%
X182766359Y-99660000D02*
X183073641Y-99660000D01*
X182766359Y-98900000D02*
X183073641Y-98900000D01*
%TO.C,R6*%
X183083641Y-100010000D02*
X182776359Y-100010000D01*
X183083641Y-100770000D02*
X182776359Y-100770000D01*
%TO.C,R5*%
X182776359Y-101860000D02*
X183083641Y-101860000D01*
X182776359Y-101100000D02*
X183083641Y-101100000D01*
%TO.C,R4*%
X198983641Y-103550000D02*
X198676359Y-103550000D01*
X198983641Y-104310000D02*
X198676359Y-104310000D01*
%TO.C,R3*%
X179182742Y-111137500D02*
X179657258Y-111137500D01*
X179182742Y-110092500D02*
X179657258Y-110092500D01*
%TO.C,R2*%
X200532258Y-93557500D02*
X200057742Y-93557500D01*
X200532258Y-94602500D02*
X200057742Y-94602500D01*
%TO.C,R1*%
X176507742Y-104702500D02*
X176982258Y-104702500D01*
X176507742Y-103657500D02*
X176982258Y-103657500D01*
%TO.C,JP1*%
X201420000Y-101880000D02*
G75*
G02*
X202120000Y-102580000I0J-700000D01*
G01*
X200120000Y-102580000D02*
G75*
G02*
X200820000Y-101880000I700000J0D01*
G01*
X202120000Y-103980000D02*
G75*
G02*
X201420000Y-104680000I-699999J-1D01*
G01*
X200820000Y-104680000D02*
G75*
G02*
X200120000Y-103980000I-1J699999D01*
G01*
X200820000Y-101880000D02*
X201420000Y-101880000D01*
X202120000Y-102580000D02*
X202120000Y-103980000D01*
X200120000Y-103980000D02*
X200120000Y-102580000D01*
X201420000Y-104680000D02*
X200820000Y-104680000D01*
%TO.C,J5*%
X195920000Y-86760000D02*
X180920000Y-86760000D01*
X195920000Y-71760000D02*
X195920000Y-86760000D01*
X188420000Y-71960000D02*
X189420000Y-72960000D01*
X188420000Y-71960000D02*
X187420000Y-72960000D01*
X180920000Y-86760000D02*
X180920000Y-71760000D01*
X180920000Y-71760000D02*
X195920000Y-71760000D01*
%TO.C,J4*%
X202450000Y-108310000D02*
X202450000Y-110910000D01*
X199790000Y-110910000D02*
X202450000Y-110910000D01*
X199790000Y-108310000D02*
X202450000Y-108310000D01*
X199790000Y-108310000D02*
X199790000Y-110910000D01*
X199790000Y-107040000D02*
X199790000Y-105710000D01*
X199790000Y-105710000D02*
X201120000Y-105710000D01*
%TO.C,J3*%
X177250000Y-98275000D02*
X177250000Y-100875000D01*
X174590000Y-100875000D02*
X177250000Y-100875000D01*
X174590000Y-98275000D02*
X177250000Y-98275000D01*
X174590000Y-98275000D02*
X174590000Y-100875000D01*
X174590000Y-97005000D02*
X174590000Y-95675000D01*
X174590000Y-95675000D02*
X175920000Y-95675000D01*
%TO.C,J2*%
X202450000Y-98275000D02*
X202450000Y-100875000D01*
X199790000Y-100875000D02*
X202450000Y-100875000D01*
X199790000Y-98275000D02*
X202450000Y-98275000D01*
X199790000Y-98275000D02*
X199790000Y-100875000D01*
X199790000Y-97005000D02*
X199790000Y-95675000D01*
X199790000Y-95675000D02*
X201120000Y-95675000D01*
%TO.C,J1*%
X177250000Y-108310000D02*
X177250000Y-110910000D01*
X174590000Y-110910000D02*
X177250000Y-110910000D01*
X174590000Y-108310000D02*
X177250000Y-108310000D01*
X174590000Y-108310000D02*
X174590000Y-110910000D01*
X174590000Y-107040000D02*
X174590000Y-105710000D01*
X174590000Y-105710000D02*
X175920000Y-105710000D01*
%TO.C,D3*%
X189817607Y-112637005D02*
G75*
G02*
X190807557Y-111647055I-1582331J2572281D01*
G01*
X189817607Y-112637005D02*
X190729775Y-113549172D01*
X190729775Y-113549172D02*
X191719724Y-112559223D01*
X191719724Y-112559223D02*
X190807557Y-111647055D01*
%TO.C,D2*%
X198032500Y-93345000D02*
X195747500Y-93345000D01*
X195747500Y-94815000D02*
X198032500Y-94815000D01*
X195747500Y-93345000D02*
X195747500Y-94815000D01*
%TO.C,D1*%
X179045000Y-104915000D02*
X181330000Y-104915000D01*
X181330000Y-103445000D02*
X179045000Y-103445000D01*
X181330000Y-104915000D02*
X181330000Y-103445000D01*
%TO.C,C12*%
X187030000Y-89487836D02*
X187030000Y-89272164D01*
X186310000Y-89487836D02*
X186310000Y-89272164D01*
%TO.C,C11*%
X187430000Y-100087836D02*
X187430000Y-99872164D01*
X186710000Y-100087836D02*
X186710000Y-99872164D01*
%TO.C,C10*%
X187657836Y-102740000D02*
X187442164Y-102740000D01*
X187657836Y-102020000D02*
X187442164Y-102020000D01*
%TO.C,C9*%
X184930000Y-107887836D02*
X184930000Y-107672164D01*
X184210000Y-107887836D02*
X184210000Y-107672164D01*
%TO.C,C8*%
X183792500Y-108552258D02*
X183792500Y-108077742D01*
X182747500Y-108552258D02*
X182747500Y-108077742D01*
%TO.C,C7*%
X181160000Y-108174420D02*
X181160000Y-108455580D01*
X182180000Y-108174420D02*
X182180000Y-108455580D01*
%TO.C,C6*%
X190660000Y-93252164D02*
X190660000Y-93467836D01*
X191380000Y-93252164D02*
X191380000Y-93467836D01*
%TO.C,C5*%
X191060000Y-104772164D02*
X191060000Y-104987836D01*
X191780000Y-104772164D02*
X191780000Y-104987836D01*
%TO.C,C4*%
X191797500Y-93667742D02*
X191797500Y-94142258D01*
X192842500Y-93667742D02*
X192842500Y-94142258D01*
%TO.C,C3*%
X192197500Y-105142742D02*
X192197500Y-105617258D01*
X193242500Y-105142742D02*
X193242500Y-105617258D01*
%TO.C,C2*%
X193397500Y-93667742D02*
X193397500Y-94142258D01*
X194442500Y-93667742D02*
X194442500Y-94142258D01*
%TO.C,C1*%
X193797500Y-105142742D02*
X193797500Y-105617258D01*
X194842500Y-105142742D02*
X194842500Y-105617258D01*
%TD*%
%LPC*%
%TO.C,JP1*%
G36*
X200370000Y-103430000D02*
G01*
X201870000Y-103430000D01*
X201870000Y-103130000D01*
X200370000Y-103130000D01*
X200370000Y-103430000D01*
G37*
%TD*%
D12*
%TO.C,U2*%
X189370000Y-93330000D03*
X189370000Y-94280000D03*
X189370000Y-95230000D03*
X186670000Y-95230000D03*
X186670000Y-94280000D03*
X186670000Y-93330000D03*
%TD*%
%TO.C,U1*%
X189770000Y-104830000D03*
X189770000Y-105780000D03*
X189770000Y-106730000D03*
X187070000Y-106730000D03*
X187070000Y-105780000D03*
X187070000Y-104830000D03*
%TD*%
D13*
%TO.C,TP11*%
X186670000Y-87880000D03*
%TD*%
%TO.C,TP10*%
X186670000Y-90880000D03*
%TD*%
%TO.C,TP9*%
X189370000Y-96580000D03*
%TD*%
%TO.C,TP8*%
X187070000Y-98480000D03*
%TD*%
%TO.C,TP7*%
X187070000Y-101380000D03*
%TD*%
%TO.C,TP6*%
X189505276Y-108380000D03*
%TD*%
%TO.C,TP5*%
X196840000Y-103930000D03*
%TD*%
%TO.C,TP4*%
X184920000Y-98580000D03*
%TD*%
%TO.C,TP3*%
X184220000Y-102380000D03*
%TD*%
%TO.C,TP2*%
X185170000Y-110064724D03*
%TD*%
%TO.C,TP1*%
X178595000Y-109180000D03*
%TD*%
D14*
%TO.C,R11*%
X187620000Y-88900000D03*
X188640000Y-88900000D03*
%TD*%
%TO.C,R10*%
X186670000Y-91880000D03*
X187690000Y-91880000D03*
%TD*%
D15*
%TO.C,R9*%
X188090000Y-97380000D03*
X187070000Y-97380000D03*
%TD*%
D14*
%TO.C,R8*%
X188090000Y-103380000D03*
X187070000Y-103380000D03*
%TD*%
D15*
%TO.C,R7*%
X183430000Y-99280000D03*
X182410000Y-99280000D03*
%TD*%
D14*
%TO.C,R6*%
X182420000Y-100390000D03*
X183440000Y-100390000D03*
%TD*%
D15*
%TO.C,R5*%
X183440000Y-101480000D03*
X182420000Y-101480000D03*
%TD*%
D14*
%TO.C,R4*%
X198320000Y-103930000D03*
X199340000Y-103930000D03*
%TD*%
D16*
%TO.C,R3*%
X180245000Y-110615000D03*
X178595000Y-110615000D03*
%TD*%
D17*
%TO.C,R2*%
X199470000Y-94080000D03*
X201120000Y-94080000D03*
%TD*%
D16*
%TO.C,R1*%
X177570000Y-104180000D03*
X175920000Y-104180000D03*
%TD*%
D18*
%TO.C,JP1*%
X201120000Y-102630000D03*
D19*
X201120000Y-103930000D03*
%TD*%
D20*
%TO.C,J5*%
X193500000Y-79380000D03*
D21*
X185880000Y-84460000D03*
D20*
X183340000Y-79380000D03*
D21*
X188420000Y-84460000D03*
%TD*%
D22*
%TO.C,J4*%
X201120000Y-109580000D03*
D23*
X201120000Y-107040000D03*
%TD*%
D22*
%TO.C,J3*%
X175920000Y-99545000D03*
D23*
X175920000Y-97005000D03*
%TD*%
D22*
%TO.C,J2*%
X201120000Y-99545000D03*
D23*
X201120000Y-97005000D03*
%TD*%
D22*
%TO.C,J1*%
X175920000Y-109580000D03*
D23*
X175920000Y-107040000D03*
%TD*%
D24*
%TO.C,H4*%
X176920000Y-115380000D03*
%TD*%
%TO.C,H3*%
X199920000Y-115380000D03*
%TD*%
%TO.C,H2*%
X199920000Y-76910000D03*
%TD*%
%TO.C,H1*%
X176920000Y-76910000D03*
%TD*%
D25*
%TO.C,FID3*%
X176920000Y-82910000D03*
%TD*%
%TO.C,FID2*%
X199920000Y-82910000D03*
%TD*%
%TO.C,FID1*%
X193920000Y-115380000D03*
%TD*%
D26*
%TO.C,D3*%
X186965276Y-110064724D03*
D27*
X189505276Y-110064724D03*
%TD*%
D28*
%TO.C,D2*%
X198020000Y-94080000D03*
X196445000Y-94080000D03*
%TD*%
D29*
%TO.C,D1*%
X179057500Y-104180000D03*
X180632500Y-104180000D03*
%TD*%
D30*
%TO.C,C12*%
X186670000Y-88900000D03*
X186670000Y-89860000D03*
%TD*%
%TO.C,C11*%
X187070000Y-99500000D03*
X187070000Y-100460000D03*
%TD*%
D31*
%TO.C,C10*%
X188030000Y-102380000D03*
X187070000Y-102380000D03*
%TD*%
D30*
%TO.C,C9*%
X184570000Y-107300000D03*
X184570000Y-108260000D03*
%TD*%
D32*
%TO.C,C8*%
X183270000Y-107490000D03*
X183270000Y-109140000D03*
%TD*%
D33*
%TO.C,C7*%
X181670000Y-109090000D03*
X181670000Y-107540000D03*
%TD*%
D34*
%TO.C,C6*%
X191020000Y-93840000D03*
X191020000Y-92880000D03*
%TD*%
%TO.C,C5*%
X191420000Y-105360000D03*
X191420000Y-104400000D03*
%TD*%
D35*
%TO.C,C4*%
X192320000Y-94730000D03*
X192320000Y-93080000D03*
%TD*%
%TO.C,C3*%
X192720000Y-106205000D03*
X192720000Y-104555000D03*
%TD*%
%TO.C,C2*%
X193920000Y-94730000D03*
X193920000Y-93080000D03*
%TD*%
%TO.C,C1*%
X194320000Y-106205000D03*
X194320000Y-104555000D03*
%TD*%
%LPD*%
M02*
