%TF.GenerationSoftware,KiCad,Pcbnew,9.0.0*%
%TF.CreationDate,2025-04-27T22:50:59+02:00*%
%TF.ProjectId,OOS - optyczny odbiornik sygnalow,4f4f5320-2d20-46f7-9074-79637a6e7920,rev?*%
%TF.SameCoordinates,Original*%
%TF.FileFunction,Copper,L1,Top*%
%TF.FilePolarity,Positive*%
%FSLAX46Y46*%
G04 Gerber Fmt 4.6, Leading zero omitted, Abs format (unit mm)*
G04 Created by KiCad (PCBNEW 9.0.0) date 2025-04-27 22:50:59*
%MOMM*%
%LPD*%
G01*
G04 APERTURE LIST*
G04 Aperture macros list*
%AMRoundRect*
0 Rectangle with rounded corners*
0 $1 Rounding radius*
0 $2 $3 $4 $5 $6 $7 $8 $9 X,Y pos of 4 corners*
0 Add a 4 corners polygon primitive as box body*
4,1,4,$2,$3,$4,$5,$6,$7,$8,$9,$2,$3,0*
0 Add four circle primitives for the rounded corners*
1,1,$1+$1,$2,$3*
1,1,$1+$1,$4,$5*
1,1,$1+$1,$6,$7*
1,1,$1+$1,$8,$9*
0 Add four rect primitives between the rounded corners*
20,1,$1+$1,$2,$3,$4,$5,0*
20,1,$1+$1,$4,$5,$6,$7,0*
20,1,$1+$1,$6,$7,$8,$9,0*
20,1,$1+$1,$8,$9,$2,$3,0*%
%AMFreePoly0*
4,1,23,0.000000,0.745722,0.065263,0.745722,0.191342,0.711940,0.304381,0.646677,0.396677,0.554381,0.461940,0.441342,0.495722,0.315263,0.495722,0.250000,0.500000,0.250000,0.500000,-0.250000,0.495722,-0.250000,0.495722,-0.315263,0.461940,-0.441342,0.396677,-0.554381,0.304381,-0.646677,0.191342,-0.711940,0.065263,-0.745722,0.000000,-0.745722,0.000000,-0.750000,-0.500000,-0.750000,
-0.500000,0.750000,0.000000,0.750000,0.000000,0.745722,0.000000,0.745722,$1*%
%AMFreePoly1*
4,1,23,0.500000,-0.750000,0.000000,-0.750000,0.000000,-0.745722,-0.065263,-0.745722,-0.191342,-0.711940,-0.304381,-0.646677,-0.396677,-0.554381,-0.461940,-0.441342,-0.495722,-0.315263,-0.495722,-0.250000,-0.500000,-0.250000,-0.500000,0.250000,-0.495722,0.250000,-0.495722,0.315263,-0.461940,0.441342,-0.396677,0.554381,-0.304381,0.646677,-0.191342,0.711940,-0.065263,0.745722,0.000000,0.745722,
0.000000,0.750000,0.500000,0.750000,0.500000,-0.750000,0.500000,-0.750000,$1*%
G04 Aperture macros list end*
%TA.AperFunction,EtchedComponent*%
%ADD10C,0.000000*%
%TD*%
%TA.AperFunction,SMDPad,CuDef*%
%ADD11RoundRect,0.162500X-0.617500X-0.162500X0.617500X-0.162500X0.617500X0.162500X-0.617500X0.162500X0*%
%TD*%
%TA.AperFunction,SMDPad,CuDef*%
%ADD12C,1.000000*%
%TD*%
%TA.AperFunction,SMDPad,CuDef*%
%ADD13RoundRect,0.135000X0.135000X0.185000X-0.135000X0.185000X-0.135000X-0.185000X0.135000X-0.185000X0*%
%TD*%
%TA.AperFunction,SMDPad,CuDef*%
%ADD14RoundRect,0.135000X-0.135000X-0.185000X0.135000X-0.185000X0.135000X0.185000X-0.135000X0.185000X0*%
%TD*%
%TA.AperFunction,SMDPad,CuDef*%
%ADD15RoundRect,0.200000X-0.200000X-0.275000X0.200000X-0.275000X0.200000X0.275000X-0.200000X0.275000X0*%
%TD*%
%TA.AperFunction,SMDPad,CuDef*%
%ADD16RoundRect,0.200000X0.200000X0.275000X-0.200000X0.275000X-0.200000X-0.275000X0.200000X-0.275000X0*%
%TD*%
%TA.AperFunction,SMDPad,CuDef*%
%ADD17FreePoly0,90.000000*%
%TD*%
%TA.AperFunction,SMDPad,CuDef*%
%ADD18FreePoly1,90.000000*%
%TD*%
%TA.AperFunction,ComponentPad*%
%ADD19O,3.500000X7.000000*%
%TD*%
%TA.AperFunction,ComponentPad*%
%ADD20O,1.600000X2.500000*%
%TD*%
%TA.AperFunction,ComponentPad*%
%ADD21O,1.700000X1.700000*%
%TD*%
%TA.AperFunction,ComponentPad*%
%ADD22R,1.700000X1.700000*%
%TD*%
%TA.AperFunction,SMDPad,CuDef*%
%ADD23C,1.500000*%
%TD*%
%TA.AperFunction,ComponentPad*%
%ADD24C,1.200000*%
%TD*%
%TA.AperFunction,ComponentPad*%
%ADD25O,1.600000X1.200000*%
%TD*%
%TA.AperFunction,SMDPad,CuDef*%
%ADD26RoundRect,0.218750X-0.218750X-0.256250X0.218750X-0.256250X0.218750X0.256250X-0.218750X0.256250X0*%
%TD*%
%TA.AperFunction,SMDPad,CuDef*%
%ADD27RoundRect,0.218750X0.218750X0.256250X-0.218750X0.256250X-0.218750X-0.256250X0.218750X-0.256250X0*%
%TD*%
%TA.AperFunction,SMDPad,CuDef*%
%ADD28RoundRect,0.140000X0.170000X-0.140000X0.170000X0.140000X-0.170000X0.140000X-0.170000X-0.140000X0*%
%TD*%
%TA.AperFunction,SMDPad,CuDef*%
%ADD29RoundRect,0.140000X0.140000X0.170000X-0.140000X0.170000X-0.140000X-0.170000X0.140000X-0.170000X0*%
%TD*%
%TA.AperFunction,SMDPad,CuDef*%
%ADD30RoundRect,0.200000X0.275000X-0.200000X0.275000X0.200000X-0.275000X0.200000X-0.275000X-0.200000X0*%
%TD*%
%TA.AperFunction,SMDPad,CuDef*%
%ADD31RoundRect,0.225000X-0.250000X0.225000X-0.250000X-0.225000X0.250000X-0.225000X0.250000X0.225000X0*%
%TD*%
%TA.AperFunction,SMDPad,CuDef*%
%ADD32RoundRect,0.140000X-0.170000X0.140000X-0.170000X-0.140000X0.170000X-0.140000X0.170000X0.140000X0*%
%TD*%
%TA.AperFunction,SMDPad,CuDef*%
%ADD33RoundRect,0.200000X-0.275000X0.200000X-0.275000X-0.200000X0.275000X-0.200000X0.275000X0.200000X0*%
%TD*%
%TA.AperFunction,ViaPad*%
%ADD34C,0.600000*%
%TD*%
%TA.AperFunction,Conductor*%
%ADD35C,0.300000*%
%TD*%
G04 APERTURE END LIST*
D10*
%TA.AperFunction,EtchedComponent*%
%TO.C,JP1*%
G36*
X201420000Y-103530000D02*
G01*
X200820000Y-103530000D01*
X200820000Y-103030000D01*
X201420000Y-103030000D01*
X201420000Y-103530000D01*
G37*
%TD.AperFunction*%
%TD*%
D11*
%TO.P,U2,6,V+*%
%TO.N,+5V*%
X189370000Y-93330000D03*
%TO.P,U2,5,En*%
%TO.N,/OPA300_En*%
X189370000Y-94280000D03*
%TO.P,U2,4,-*%
%TO.N,/OPA300_x10_-*%
X189370000Y-95230000D03*
%TO.P,U2,3,+*%
%TO.N,/OPA300_x10_+*%
X186670000Y-95230000D03*
%TO.P,U2,2,V-*%
%TO.N,0V*%
X186670000Y-94280000D03*
%TO.P,U2,1,OUT*%
%TO.N,/OPA300_x10_Out*%
X186670000Y-93330000D03*
%TD*%
%TO.P,U1,6,V+*%
%TO.N,+5V*%
X189770000Y-104830000D03*
%TO.P,U1,5,En*%
%TO.N,/OPA300_En*%
X189770000Y-105780000D03*
%TO.P,U1,4,-*%
%TO.N,/OPA300_TIA_-*%
X189770000Y-106730000D03*
%TO.P,U1,3,+*%
%TO.N,/OPA300_TIA_+*%
X187070000Y-106730000D03*
%TO.P,U1,2,V-*%
%TO.N,0V*%
X187070000Y-105780000D03*
%TO.P,U1,1,OUT*%
%TO.N,/OPA300_TIA_Out*%
X187070000Y-104830000D03*
%TD*%
D12*
%TO.P,TP11,1,1*%
%TO.N,/OPA300_x10_Out_AC*%
X186670000Y-87880000D03*
%TD*%
%TO.P,TP10,1,1*%
%TO.N,/OPA300_x10_Out*%
X186670000Y-90880000D03*
%TD*%
%TO.P,TP9,1,1*%
%TO.N,/OPA300_x10_-*%
X189370000Y-96580000D03*
%TD*%
%TO.P,TP8,1,1*%
%TO.N,/OPA300_TIA_Out_AC*%
X187070000Y-98480000D03*
%TD*%
%TO.P,TP7,1,1*%
%TO.N,/OPA300_TIA_Out*%
X187070000Y-101380000D03*
%TD*%
%TO.P,TP6,1,1*%
%TO.N,/OPA300_TIA_-*%
X189505276Y-108380000D03*
%TD*%
%TO.P,TP5,1,1*%
%TO.N,/OPA300_En*%
X196840000Y-103930000D03*
%TD*%
%TO.P,TP4,1,1*%
%TO.N,/OPA300_x10_+*%
X184920000Y-98580000D03*
%TD*%
%TO.P,TP3,1,1*%
%TO.N,/OPA300_TIA_+*%
X184220000Y-102380000D03*
%TD*%
%TO.P,TP2,1,1*%
%TO.N,/BPX65_Cathode*%
X185170000Y-110064724D03*
%TD*%
%TO.P,TP1,1,1*%
%TO.N,+V_photo*%
X178595000Y-109180000D03*
%TD*%
D13*
%TO.P,R11,2*%
%TO.N,/OPA300_x10_Out_AC*%
X187620000Y-88900000D03*
%TO.P,R11,1*%
%TO.N,0V*%
X188640000Y-88900000D03*
%TD*%
%TO.P,R10,2*%
%TO.N,/OPA300_x10_Out*%
X186670000Y-91880000D03*
%TO.P,R10,1*%
%TO.N,/OPA300_x10_-*%
X187690000Y-91880000D03*
%TD*%
D14*
%TO.P,R9,2*%
%TO.N,/OPA300_x10_-*%
X188090000Y-97380000D03*
%TO.P,R9,1*%
%TO.N,/OPA300_TIA_Out_AC*%
X187070000Y-97380000D03*
%TD*%
D13*
%TO.P,R8,1*%
%TO.N,/OPA300_TIA_-*%
X188090000Y-103380000D03*
%TO.P,R8,2*%
%TO.N,/OPA300_TIA_Out*%
X187070000Y-103380000D03*
%TD*%
D14*
%TO.P,R7,2*%
%TO.N,0V*%
X183430000Y-99280000D03*
%TO.P,R7,1*%
%TO.N,/OPA300_x10_+*%
X182410000Y-99280000D03*
%TD*%
D13*
%TO.P,R6,2*%
%TO.N,/OPA300_x10_+*%
X182420000Y-100390000D03*
%TO.P,R6,1*%
%TO.N,/OPA300_TIA_+*%
X183440000Y-100390000D03*
%TD*%
D14*
%TO.P,R5,2*%
%TO.N,/OPA300_TIA_+*%
X183440000Y-101480000D03*
%TO.P,R5,1*%
%TO.N,+5V*%
X182420000Y-101480000D03*
%TD*%
D13*
%TO.P,R4,2*%
%TO.N,/OPA300_En*%
X198320000Y-103930000D03*
%TO.P,R4,1*%
%TO.N,/OPA300_En_Alt_Con*%
X199340000Y-103930000D03*
%TD*%
D15*
%TO.P,R3,2*%
%TO.N,/BPX65_Cathode*%
X180245000Y-110615000D03*
%TO.P,R3,1*%
%TO.N,+V_photo*%
X178595000Y-110615000D03*
%TD*%
D16*
%TO.P,R2,2*%
%TO.N,Net-(D2-A)*%
X199470000Y-94080000D03*
%TO.P,R2,1*%
%TO.N,+5V*%
X201120000Y-94080000D03*
%TD*%
D15*
%TO.P,R1,2*%
%TO.N,Net-(D1-A)*%
X177570000Y-104180000D03*
%TO.P,R1,1*%
%TO.N,+V_photo*%
X175920000Y-104180000D03*
%TD*%
D17*
%TO.P,JP1,2,B*%
%TO.N,+5V*%
X201120000Y-102630000D03*
D18*
%TO.P,JP1,1,A*%
%TO.N,/OPA300_En_Alt_Con*%
X201120000Y-103930000D03*
%TD*%
D19*
%TO.P,J5,2,Ext*%
%TO.N,0V*%
X193500000Y-79380000D03*
D20*
X185880000Y-84460000D03*
D19*
X183340000Y-79380000D03*
D20*
%TO.P,J5,1,In*%
%TO.N,/OPA300_x10_Out_AC*%
X188420000Y-84460000D03*
%TD*%
D21*
%TO.P,J4,2,Pin_2*%
%TO.N,/OPA300_En_Alt_Con*%
X201120000Y-109580000D03*
D22*
%TO.P,J4,1,Pin_1*%
X201120000Y-107040000D03*
%TD*%
D21*
%TO.P,J3,2,Pin_2*%
%TO.N,0V*%
X175920000Y-99545000D03*
D22*
%TO.P,J3,1,Pin_1*%
X175920000Y-97005000D03*
%TD*%
D21*
%TO.P,J2,2,Pin_2*%
%TO.N,+5V*%
X201120000Y-99545000D03*
D22*
%TO.P,J2,1,Pin_1*%
X201120000Y-97005000D03*
%TD*%
D21*
%TO.P,J1,2,Pin_2*%
%TO.N,+V_photo*%
X175920000Y-109580000D03*
D22*
%TO.P,J1,1,Pin_1*%
X175920000Y-107040000D03*
%TD*%
D23*
%TO.P,FID3,*%
%TO.N,*%
X176920000Y-82910000D03*
%TD*%
%TO.P,FID2,*%
%TO.N,*%
X199920000Y-82910000D03*
%TD*%
%TO.P,FID1,*%
%TO.N,*%
X193920000Y-115380000D03*
%TD*%
D24*
%TO.P,D3,2,K*%
%TO.N,/BPX65_Cathode*%
X186965276Y-110064724D03*
D25*
%TO.P,D3,1,A*%
%TO.N,/OPA300_TIA_-*%
X189505276Y-110064724D03*
%TD*%
D26*
%TO.P,D2,2,A*%
%TO.N,Net-(D2-A)*%
X198020000Y-94080000D03*
%TO.P,D2,1,K*%
%TO.N,0V*%
X196445000Y-94080000D03*
%TD*%
D27*
%TO.P,D1,2,A*%
%TO.N,Net-(D1-A)*%
X179057500Y-104180000D03*
%TO.P,D1,1,K*%
%TO.N,0V*%
X180632500Y-104180000D03*
%TD*%
D28*
%TO.P,C12,2*%
%TO.N,/OPA300_x10_Out_AC*%
X186670000Y-88900000D03*
%TO.P,C12,1*%
%TO.N,/OPA300_x10_Out*%
X186670000Y-89860000D03*
%TD*%
%TO.P,C11,2*%
%TO.N,/OPA300_TIA_Out_AC*%
X187070000Y-99500000D03*
%TO.P,C11,1*%
%TO.N,/OPA300_TIA_Out*%
X187070000Y-100460000D03*
%TD*%
D29*
%TO.P,C10,1*%
%TO.N,/OPA300_TIA_-*%
X188030000Y-102380000D03*
%TO.P,C10,2*%
%TO.N,/OPA300_TIA_Out*%
X187070000Y-102380000D03*
%TD*%
D28*
%TO.P,C9,2*%
%TO.N,0V*%
X184570000Y-107300000D03*
%TO.P,C9,1*%
%TO.N,/BPX65_Cathode*%
X184570000Y-108260000D03*
%TD*%
D30*
%TO.P,C8,2*%
%TO.N,0V*%
X183270000Y-107490000D03*
%TO.P,C8,1*%
%TO.N,/BPX65_Cathode*%
X183270000Y-109140000D03*
%TD*%
D31*
%TO.P,C7,2*%
%TO.N,/BPX65_Cathode*%
X181670000Y-109090000D03*
%TO.P,C7,1*%
%TO.N,0V*%
X181670000Y-107540000D03*
%TD*%
D32*
%TO.P,C6,2*%
%TO.N,0V*%
X191020000Y-93840000D03*
%TO.P,C6,1*%
%TO.N,+5V*%
X191020000Y-92880000D03*
%TD*%
%TO.P,C5,2*%
%TO.N,0V*%
X191420000Y-105360000D03*
%TO.P,C5,1*%
%TO.N,+5V*%
X191420000Y-104400000D03*
%TD*%
D33*
%TO.P,C4,2*%
%TO.N,0V*%
X192320000Y-94730000D03*
%TO.P,C4,1*%
%TO.N,+5V*%
X192320000Y-93080000D03*
%TD*%
%TO.P,C3,2*%
%TO.N,0V*%
X192720000Y-106205000D03*
%TO.P,C3,1*%
%TO.N,+5V*%
X192720000Y-104555000D03*
%TD*%
%TO.P,C2,2*%
%TO.N,0V*%
X193920000Y-94730000D03*
%TO.P,C2,1*%
%TO.N,+5V*%
X193920000Y-93080000D03*
%TD*%
%TO.P,C1,2*%
%TO.N,0V*%
X194320000Y-106205000D03*
%TO.P,C1,1*%
%TO.N,+5V*%
X194320000Y-104555000D03*
%TD*%
D34*
%TO.N,0V*%
X195520000Y-94080000D03*
X193920000Y-95580000D03*
X192320000Y-95580000D03*
X191323510Y-94538596D03*
X189320000Y-88880000D03*
X194320000Y-107080000D03*
X192720000Y-107080000D03*
X191650593Y-106022352D03*
X185820000Y-105780000D03*
X185320000Y-94280000D03*
X184520000Y-106680000D03*
X183220000Y-106680000D03*
X181720000Y-106680000D03*
X184120000Y-99280000D03*
X181520000Y-104180000D03*
%TO.N,+5V*%
X195395000Y-104555000D03*
X181720000Y-101480000D03*
%TD*%
D35*
%TO.N,0V*%
X196445000Y-94080000D02*
X195520000Y-94080000D01*
X193920000Y-94730000D02*
X193920000Y-95580000D01*
X192320000Y-94730000D02*
X192320000Y-95580000D01*
X191020000Y-94235086D02*
X191323510Y-94538596D01*
X191020000Y-93840000D02*
X191020000Y-94235086D01*
X189300000Y-88900000D02*
X189320000Y-88880000D01*
X188640000Y-88900000D02*
X189300000Y-88900000D01*
X194320000Y-106205000D02*
X194320000Y-107080000D01*
X192720000Y-106205000D02*
X192720000Y-107080000D01*
X191650593Y-106022352D02*
X191420000Y-105791759D01*
X191420000Y-105791759D02*
X191420000Y-105360000D01*
%TO.N,/OPA300_En*%
X189770000Y-105780000D02*
X190620000Y-105780000D01*
X196840000Y-106260000D02*
X196840000Y-103930000D01*
X190620000Y-105780000D02*
X191020000Y-106180000D01*
X191020000Y-106180000D02*
X191020000Y-106880000D01*
X191020000Y-106880000D02*
X191920000Y-107780000D01*
X191920000Y-107780000D02*
X195320000Y-107780000D01*
X195320000Y-107780000D02*
X196840000Y-106260000D01*
%TO.N,0V*%
X187070000Y-105780000D02*
X185820000Y-105780000D01*
X186670000Y-94280000D02*
X185320000Y-94280000D01*
X184570000Y-106730000D02*
X184520000Y-106680000D01*
X184570000Y-107300000D02*
X184570000Y-106730000D01*
X183270000Y-106730000D02*
X183220000Y-106680000D01*
X183270000Y-107490000D02*
X183270000Y-106730000D01*
X181670000Y-106730000D02*
X181720000Y-106680000D01*
X181670000Y-107540000D02*
X181670000Y-106730000D01*
X183430000Y-99280000D02*
X184120000Y-99280000D01*
X180632500Y-104180000D02*
X181520000Y-104180000D01*
%TO.N,+5V*%
X195395000Y-104555000D02*
X194320000Y-104555000D01*
X182420000Y-101480000D02*
X181720000Y-101480000D01*
%TO.N,/OPA300_x10_Out_AC*%
X186670000Y-87880000D02*
X188420000Y-86130000D01*
X188420000Y-86130000D02*
X188420000Y-84460000D01*
X187620000Y-88900000D02*
X186670000Y-88900000D01*
X186670000Y-87880000D02*
X186670000Y-88900000D01*
%TO.N,/OPA300_x10_Out*%
X186670000Y-90880000D02*
X186670000Y-89860000D01*
X186670000Y-91880000D02*
X186670000Y-90880000D01*
X186670000Y-93330000D02*
X186670000Y-91880000D01*
%TO.N,Net-(D1-A)*%
X177570000Y-104180000D02*
X179057500Y-104180000D01*
%TO.N,+V_photo*%
X175920000Y-104180000D02*
X175920000Y-107040000D01*
%TO.N,+5V*%
X193920000Y-93080000D02*
X200820000Y-93080000D01*
X200820000Y-93080000D02*
X201120000Y-93380000D01*
X201120000Y-93380000D02*
X201120000Y-94080000D01*
%TO.N,/OPA300_En*%
X189370000Y-94280000D02*
X190220000Y-94280000D01*
X190220000Y-94280000D02*
X190720000Y-94780000D01*
X190720000Y-94780000D02*
X190720000Y-97810000D01*
X190720000Y-97810000D02*
X196840000Y-103930000D01*
%TO.N,+5V*%
X192320000Y-93080000D02*
X193920000Y-93080000D01*
X191720000Y-93080000D02*
X192320000Y-93080000D01*
X191020000Y-92880000D02*
X191520000Y-92880000D01*
X191520000Y-92880000D02*
X191720000Y-93080000D01*
X189370000Y-93330000D02*
X190170000Y-93330000D01*
X190170000Y-93330000D02*
X190620000Y-92880000D01*
X190620000Y-92880000D02*
X191020000Y-92880000D01*
%TO.N,/OPA300_x10_+*%
X184920000Y-98580000D02*
X184920000Y-95980000D01*
X184920000Y-95980000D02*
X185670000Y-95230000D01*
X185670000Y-95230000D02*
X186670000Y-95230000D01*
%TO.N,/OPA300_TIA_+*%
X184220000Y-102380000D02*
X184220000Y-105280000D01*
X184220000Y-105280000D02*
X185670000Y-106730000D01*
X185670000Y-106730000D02*
X187070000Y-106730000D01*
X183440000Y-101480000D02*
X183440000Y-101600000D01*
X183440000Y-101600000D02*
X184220000Y-102380000D01*
X183440000Y-100390000D02*
X183440000Y-101480000D01*
%TO.N,/OPA300_x10_+*%
X182410000Y-99280000D02*
X183110000Y-98580000D01*
X183110000Y-98580000D02*
X184920000Y-98580000D01*
X182420000Y-100390000D02*
X182420000Y-99290000D01*
X182420000Y-99290000D02*
X182410000Y-99280000D01*
%TO.N,/OPA300_x10_-*%
X189370000Y-95230000D02*
X188370000Y-95230000D01*
X188370000Y-95230000D02*
X188120000Y-94980000D01*
X188120000Y-94980000D02*
X188120000Y-92310000D01*
X188120000Y-92310000D02*
X187690000Y-91880000D01*
X188670000Y-97380000D02*
X189370000Y-96680000D01*
X189370000Y-96680000D02*
X189370000Y-96580000D01*
X189370000Y-95230000D02*
X189370000Y-96580000D01*
X188090000Y-97380000D02*
X188670000Y-97380000D01*
%TO.N,/OPA300_TIA_Out_AC*%
X187070000Y-98480000D02*
X187070000Y-97380000D01*
X187070000Y-99500000D02*
X187070000Y-98480000D01*
%TO.N,/OPA300_TIA_Out*%
X187070000Y-101380000D02*
X187070000Y-100460000D01*
X187070000Y-102380000D02*
X187070000Y-101380000D01*
X187070000Y-103380000D02*
X187070000Y-102380000D01*
X187070000Y-104830000D02*
X187070000Y-103380000D01*
%TO.N,/OPA300_TIA_-*%
X188090000Y-103420000D02*
X188090000Y-103950000D01*
X188090000Y-103950000D02*
X188520000Y-104380000D01*
X188520000Y-104380000D02*
X188520000Y-106380000D01*
X188520000Y-106380000D02*
X188870000Y-106730000D01*
X188870000Y-106730000D02*
X189770000Y-106730000D01*
%TO.N,+5V*%
X189770000Y-104830000D02*
X190670000Y-104830000D01*
X190670000Y-104830000D02*
X191100000Y-104400000D01*
X191100000Y-104400000D02*
X191420000Y-104400000D01*
X192120000Y-104555000D02*
X192720000Y-104555000D01*
X191420000Y-104400000D02*
X191965000Y-104400000D01*
X191965000Y-104400000D02*
X192120000Y-104555000D01*
X192720000Y-104555000D02*
X194320000Y-104555000D01*
%TO.N,Net-(D2-A)*%
X199470000Y-94080000D02*
X198020000Y-94080000D01*
%TO.N,+5V*%
X201120000Y-97005000D02*
X201120000Y-94080000D01*
X201120000Y-99545000D02*
X201120000Y-97005000D01*
X201120000Y-102630000D02*
X201120000Y-99545000D01*
%TO.N,/OPA300_En_Alt_Con*%
X201120000Y-107040000D02*
X201120000Y-109580000D01*
X201120000Y-103930000D02*
X201120000Y-107040000D01*
X199340000Y-103930000D02*
X201120000Y-103930000D01*
%TO.N,/OPA300_En*%
X196840000Y-103930000D02*
X198320000Y-103930000D01*
%TO.N,/OPA300_TIA_-*%
X189505276Y-108380000D02*
X189505276Y-107630000D01*
X189770000Y-106730000D02*
X189770000Y-107365276D01*
X189770000Y-107365276D02*
X189505276Y-107630000D01*
X189505276Y-110064724D02*
X189505276Y-108380000D01*
%TO.N,/BPX65_Cathode*%
X184570000Y-108260000D02*
X185170000Y-108860000D01*
X185170000Y-108860000D02*
X185170000Y-110064724D01*
X183270000Y-109140000D02*
X183690000Y-109140000D01*
X183690000Y-109140000D02*
X184570000Y-108260000D01*
X186965276Y-110064724D02*
X185170000Y-110064724D01*
X181670000Y-109090000D02*
X182380000Y-109090000D01*
X182430000Y-109140000D02*
X183270000Y-109140000D01*
X182380000Y-109090000D02*
X182430000Y-109140000D01*
X180245000Y-110615000D02*
X180245000Y-109805000D01*
X180245000Y-109805000D02*
X180960000Y-109090000D01*
X180960000Y-109090000D02*
X181670000Y-109090000D01*
%TO.N,+V_photo*%
X178595000Y-109180000D02*
X178595000Y-110615000D01*
X175920000Y-109580000D02*
X176955000Y-110615000D01*
X176955000Y-110615000D02*
X178595000Y-110615000D01*
X175920000Y-107040000D02*
X175920000Y-109580000D01*
%TD*%
M02*
