%TF.GenerationSoftware,KiCad,Pcbnew,9.0.0*%
%TF.CreationDate,2025-04-27T22:51:00+02:00*%
%TF.ProjectId,OOS - optyczny odbiornik sygnalow,4f4f5320-2d20-46f7-9074-79637a6e7920,rev?*%
%TF.SameCoordinates,Original*%
%TF.FileFunction,Copper,L2,Bot*%
%TF.FilePolarity,Positive*%
%FSLAX46Y46*%
G04 Gerber Fmt 4.6, Leading zero omitted, Abs format (unit mm)*
G04 Created by KiCad (PCBNEW 9.0.0) date 2025-04-27 22:51:00*
%MOMM*%
%LPD*%
G01*
G04 APERTURE LIST*
%TA.AperFunction,ComponentPad*%
%ADD10O,3.500000X7.000000*%
%TD*%
%TA.AperFunction,ComponentPad*%
%ADD11O,1.600000X2.500000*%
%TD*%
%TA.AperFunction,ComponentPad*%
%ADD12O,1.700000X1.700000*%
%TD*%
%TA.AperFunction,ComponentPad*%
%ADD13R,1.700000X1.700000*%
%TD*%
%TA.AperFunction,ComponentPad*%
%ADD14C,1.200000*%
%TD*%
%TA.AperFunction,ComponentPad*%
%ADD15O,1.600000X1.200000*%
%TD*%
%TA.AperFunction,ViaPad*%
%ADD16C,0.600000*%
%TD*%
%TA.AperFunction,Conductor*%
%ADD17C,0.500000*%
%TD*%
G04 APERTURE END LIST*
D10*
%TO.P,J5,2,Ext*%
%TO.N,0V*%
X193500000Y-79380000D03*
D11*
X185880000Y-84460000D03*
D10*
X183340000Y-79380000D03*
D11*
%TO.P,J5,1,In*%
%TO.N,/OPA300_x10_Out_AC*%
X188420000Y-84460000D03*
%TD*%
D12*
%TO.P,J4,2,Pin_2*%
%TO.N,/OPA300_En_Alt_Con*%
X201120000Y-109580000D03*
D13*
%TO.P,J4,1,Pin_1*%
X201120000Y-107040000D03*
%TD*%
D12*
%TO.P,J3,2,Pin_2*%
%TO.N,0V*%
X175920000Y-99545000D03*
D13*
%TO.P,J3,1,Pin_1*%
X175920000Y-97005000D03*
%TD*%
D12*
%TO.P,J2,2,Pin_2*%
%TO.N,+5V*%
X201120000Y-99545000D03*
D13*
%TO.P,J2,1,Pin_1*%
X201120000Y-97005000D03*
%TD*%
D12*
%TO.P,J1,2,Pin_2*%
%TO.N,+V_photo*%
X175920000Y-109580000D03*
D13*
%TO.P,J1,1,Pin_1*%
X175920000Y-107040000D03*
%TD*%
D14*
%TO.P,D3,2,K*%
%TO.N,/BPX65_Cathode*%
X186965276Y-110064724D03*
D15*
%TO.P,D3,1,A*%
%TO.N,/OPA300_TIA_-*%
X189505276Y-110064724D03*
%TD*%
D16*
%TO.N,0V*%
X195520000Y-94080000D03*
X193920000Y-95580000D03*
X192320000Y-95580000D03*
X191323510Y-94538596D03*
X189320000Y-88880000D03*
X194320000Y-107080000D03*
X192720000Y-107080000D03*
X191650593Y-106022352D03*
X185820000Y-105780000D03*
X185320000Y-94280000D03*
X184520000Y-106680000D03*
X183220000Y-106680000D03*
X181720000Y-106680000D03*
X184120000Y-99280000D03*
X181520000Y-104180000D03*
%TO.N,+5V*%
X195395000Y-104555000D03*
X181720000Y-101480000D03*
%TD*%
D17*
%TO.N,+5V*%
X203169000Y-101594000D02*
X203169000Y-104480000D01*
X195395000Y-104555000D02*
X203094000Y-104555000D01*
X203094000Y-104555000D02*
X203169000Y-104480000D01*
X201120000Y-99545000D02*
X203169000Y-101594000D01*
X175920000Y-118580000D02*
X173671000Y-116331000D01*
X176120000Y-101480000D02*
X181720000Y-101480000D01*
X203169000Y-104480000D02*
X203169000Y-116331000D01*
X203169000Y-116331000D02*
X200920000Y-118580000D01*
X200920000Y-118580000D02*
X175920000Y-118580000D01*
X173671000Y-116331000D02*
X173671000Y-103929000D01*
X173671000Y-103929000D02*
X176120000Y-101480000D01*
%TD*%
%TA.AperFunction,Conductor*%
%TO.N,0V*%
G36*
X203362539Y-72900185D02*
G01*
X203408294Y-72952989D01*
X203419500Y-73004500D01*
X203419500Y-100483770D01*
X203399815Y-100550809D01*
X203347011Y-100596564D01*
X203277853Y-100606508D01*
X203214297Y-100577483D01*
X203207819Y-100571451D01*
X202490174Y-99853807D01*
X202456689Y-99792484D01*
X202455382Y-99746733D01*
X202470500Y-99651287D01*
X202470500Y-99438713D01*
X202437246Y-99228757D01*
X202371557Y-99026588D01*
X202275051Y-98837184D01*
X202275049Y-98837181D01*
X202275048Y-98837179D01*
X202150109Y-98665213D01*
X202036569Y-98551673D01*
X202003084Y-98490350D01*
X202008068Y-98420658D01*
X202049940Y-98364725D01*
X202080915Y-98347810D01*
X202212331Y-98298796D01*
X202327546Y-98212546D01*
X202413796Y-98097331D01*
X202464091Y-97962483D01*
X202470500Y-97902873D01*
X202470499Y-96107128D01*
X202464091Y-96047517D01*
X202413884Y-95912906D01*
X202413797Y-95912671D01*
X202413793Y-95912664D01*
X202327547Y-95797455D01*
X202327544Y-95797452D01*
X202212335Y-95711206D01*
X202212328Y-95711202D01*
X202077482Y-95660908D01*
X202077483Y-95660908D01*
X202017883Y-95654501D01*
X202017881Y-95654500D01*
X202017873Y-95654500D01*
X202017864Y-95654500D01*
X200222129Y-95654500D01*
X200222123Y-95654501D01*
X200162516Y-95660908D01*
X200027671Y-95711202D01*
X200027664Y-95711206D01*
X199912455Y-95797452D01*
X199912452Y-95797455D01*
X199826206Y-95912664D01*
X199826202Y-95912671D01*
X199775908Y-96047517D01*
X199769501Y-96107116D01*
X199769501Y-96107123D01*
X199769500Y-96107135D01*
X199769500Y-97902870D01*
X199769501Y-97902876D01*
X199775908Y-97962483D01*
X199826202Y-98097328D01*
X199826206Y-98097335D01*
X199912452Y-98212544D01*
X199912455Y-98212547D01*
X200027664Y-98298793D01*
X200027671Y-98298797D01*
X200159082Y-98347810D01*
X200215016Y-98389681D01*
X200239433Y-98455145D01*
X200224582Y-98523418D01*
X200203431Y-98551673D01*
X200089889Y-98665215D01*
X199964951Y-98837179D01*
X199868444Y-99026585D01*
X199802753Y-99228760D01*
X199769500Y-99438713D01*
X199769500Y-99651286D01*
X199802753Y-99861239D01*
X199868444Y-100063414D01*
X199964951Y-100252820D01*
X200089890Y-100424786D01*
X200240213Y-100575109D01*
X200412179Y-100700048D01*
X200412181Y-100700049D01*
X200412184Y-100700051D01*
X200601588Y-100796557D01*
X200803757Y-100862246D01*
X201013713Y-100895500D01*
X201013714Y-100895500D01*
X201226284Y-100895500D01*
X201226287Y-100895500D01*
X201321731Y-100880382D01*
X201391020Y-100889336D01*
X201428807Y-100915174D01*
X202382181Y-101868548D01*
X202415666Y-101929871D01*
X202418500Y-101956229D01*
X202418500Y-103680500D01*
X202398815Y-103747539D01*
X202346011Y-103793294D01*
X202294500Y-103804500D01*
X195699604Y-103804500D01*
X195652155Y-103795062D01*
X195628497Y-103785263D01*
X195628493Y-103785262D01*
X195628488Y-103785260D01*
X195473845Y-103754500D01*
X195473842Y-103754500D01*
X195316158Y-103754500D01*
X195316155Y-103754500D01*
X195161510Y-103785261D01*
X195161498Y-103785264D01*
X195015827Y-103845602D01*
X195015814Y-103845609D01*
X194884711Y-103933210D01*
X194884707Y-103933213D01*
X194773213Y-104044707D01*
X194773210Y-104044711D01*
X194685609Y-104175814D01*
X194685602Y-104175827D01*
X194625264Y-104321498D01*
X194625261Y-104321510D01*
X194594500Y-104476153D01*
X194594500Y-104633846D01*
X194625261Y-104788489D01*
X194625264Y-104788501D01*
X194685602Y-104934172D01*
X194685609Y-104934185D01*
X194773210Y-105065288D01*
X194773213Y-105065292D01*
X194884707Y-105176786D01*
X194884711Y-105176789D01*
X195015814Y-105264390D01*
X195015827Y-105264397D01*
X195115060Y-105305500D01*
X195161503Y-105324737D01*
X195316153Y-105355499D01*
X195316156Y-105355500D01*
X195316158Y-105355500D01*
X195473844Y-105355500D01*
X195473845Y-105355499D01*
X195550152Y-105340320D01*
X195628488Y-105324739D01*
X195628489Y-105324738D01*
X195628497Y-105324737D01*
X195652155Y-105314937D01*
X195699604Y-105305500D01*
X202294500Y-105305500D01*
X202361539Y-105325185D01*
X202407294Y-105377989D01*
X202418500Y-105429500D01*
X202418500Y-105652819D01*
X202398815Y-105719858D01*
X202346011Y-105765613D01*
X202276853Y-105775557D01*
X202220191Y-105752087D01*
X202212334Y-105746206D01*
X202212328Y-105746202D01*
X202077482Y-105695908D01*
X202077483Y-105695908D01*
X202017883Y-105689501D01*
X202017881Y-105689500D01*
X202017873Y-105689500D01*
X202017864Y-105689500D01*
X200222129Y-105689500D01*
X200222123Y-105689501D01*
X200162516Y-105695908D01*
X200027671Y-105746202D01*
X200027664Y-105746206D01*
X199912455Y-105832452D01*
X199912452Y-105832455D01*
X199826206Y-105947664D01*
X199826202Y-105947671D01*
X199775908Y-106082517D01*
X199769501Y-106142116D01*
X199769501Y-106142123D01*
X199769500Y-106142135D01*
X199769500Y-107937870D01*
X199769501Y-107937876D01*
X199775908Y-107997483D01*
X199826202Y-108132328D01*
X199826206Y-108132335D01*
X199912452Y-108247544D01*
X199912455Y-108247547D01*
X200027664Y-108333793D01*
X200027671Y-108333797D01*
X200159082Y-108382810D01*
X200215016Y-108424681D01*
X200239433Y-108490145D01*
X200224582Y-108558418D01*
X200203431Y-108586673D01*
X200089889Y-108700215D01*
X199964951Y-108872179D01*
X199868444Y-109061585D01*
X199802753Y-109263760D01*
X199769500Y-109473713D01*
X199769500Y-109686286D01*
X199802753Y-109896239D01*
X199802753Y-109896241D01*
X199802754Y-109896243D01*
X199854098Y-110054264D01*
X199868444Y-110098414D01*
X199964951Y-110287820D01*
X200089890Y-110459786D01*
X200240213Y-110610109D01*
X200412179Y-110735048D01*
X200412181Y-110735049D01*
X200412184Y-110735051D01*
X200601588Y-110831557D01*
X200803757Y-110897246D01*
X201013713Y-110930500D01*
X201013714Y-110930500D01*
X201226286Y-110930500D01*
X201226287Y-110930500D01*
X201436243Y-110897246D01*
X201638412Y-110831557D01*
X201827816Y-110735051D01*
X201849789Y-110719086D01*
X201999786Y-110610109D01*
X201999788Y-110610106D01*
X201999792Y-110610104D01*
X202150104Y-110459792D01*
X202194181Y-110399125D01*
X202249511Y-110356458D01*
X202319124Y-110350479D01*
X202380919Y-110383084D01*
X202415277Y-110443922D01*
X202418500Y-110472009D01*
X202418500Y-115968770D01*
X202398815Y-116035809D01*
X202382181Y-116056451D01*
X200645451Y-117793181D01*
X200584128Y-117826666D01*
X200557770Y-117829500D01*
X176282229Y-117829500D01*
X176215190Y-117809815D01*
X176194548Y-117793181D01*
X174457819Y-116056451D01*
X174424334Y-115995128D01*
X174421500Y-115968770D01*
X174421500Y-115258711D01*
X175069500Y-115258711D01*
X175069500Y-115501288D01*
X175101161Y-115741785D01*
X175163947Y-115976104D01*
X175188678Y-116035809D01*
X175256776Y-116200212D01*
X175378064Y-116410289D01*
X175378066Y-116410292D01*
X175378067Y-116410293D01*
X175525733Y-116602736D01*
X175525739Y-116602743D01*
X175697256Y-116774260D01*
X175697262Y-116774265D01*
X175889711Y-116921936D01*
X176099788Y-117043224D01*
X176323900Y-117136054D01*
X176558211Y-117198838D01*
X176738586Y-117222584D01*
X176798711Y-117230500D01*
X176798712Y-117230500D01*
X177041289Y-117230500D01*
X177089388Y-117224167D01*
X177281789Y-117198838D01*
X177516100Y-117136054D01*
X177740212Y-117043224D01*
X177950289Y-116921936D01*
X178142738Y-116774265D01*
X178314265Y-116602738D01*
X178461936Y-116410289D01*
X178583224Y-116200212D01*
X178676054Y-115976100D01*
X178738838Y-115741789D01*
X178770500Y-115501288D01*
X178770500Y-115258712D01*
X178770500Y-115258711D01*
X198069500Y-115258711D01*
X198069500Y-115501288D01*
X198101161Y-115741785D01*
X198163947Y-115976104D01*
X198188678Y-116035809D01*
X198256776Y-116200212D01*
X198378064Y-116410289D01*
X198378066Y-116410292D01*
X198378067Y-116410293D01*
X198525733Y-116602736D01*
X198525739Y-116602743D01*
X198697256Y-116774260D01*
X198697262Y-116774265D01*
X198889711Y-116921936D01*
X199099788Y-117043224D01*
X199323900Y-117136054D01*
X199558211Y-117198838D01*
X199738586Y-117222584D01*
X199798711Y-117230500D01*
X199798712Y-117230500D01*
X200041289Y-117230500D01*
X200089388Y-117224167D01*
X200281789Y-117198838D01*
X200516100Y-117136054D01*
X200740212Y-117043224D01*
X200950289Y-116921936D01*
X201142738Y-116774265D01*
X201314265Y-116602738D01*
X201461936Y-116410289D01*
X201583224Y-116200212D01*
X201676054Y-115976100D01*
X201738838Y-115741789D01*
X201770500Y-115501288D01*
X201770500Y-115258712D01*
X201738838Y-115018211D01*
X201676054Y-114783900D01*
X201583224Y-114559788D01*
X201461936Y-114349711D01*
X201314265Y-114157262D01*
X201314260Y-114157256D01*
X201142743Y-113985739D01*
X201142736Y-113985733D01*
X200950293Y-113838067D01*
X200950292Y-113838066D01*
X200950289Y-113838064D01*
X200740212Y-113716776D01*
X200740205Y-113716773D01*
X200516104Y-113623947D01*
X200281785Y-113561161D01*
X200041289Y-113529500D01*
X200041288Y-113529500D01*
X199798712Y-113529500D01*
X199798711Y-113529500D01*
X199558214Y-113561161D01*
X199323895Y-113623947D01*
X199099794Y-113716773D01*
X199099785Y-113716777D01*
X198889706Y-113838067D01*
X198697263Y-113985733D01*
X198697256Y-113985739D01*
X198525739Y-114157256D01*
X198525733Y-114157263D01*
X198378067Y-114349706D01*
X198256777Y-114559785D01*
X198256773Y-114559794D01*
X198163947Y-114783895D01*
X198101161Y-115018214D01*
X198069500Y-115258711D01*
X178770500Y-115258711D01*
X178738838Y-115018211D01*
X178676054Y-114783900D01*
X178583224Y-114559788D01*
X178461936Y-114349711D01*
X178314265Y-114157262D01*
X178314260Y-114157256D01*
X178142743Y-113985739D01*
X178142736Y-113985733D01*
X177950293Y-113838067D01*
X177950292Y-113838066D01*
X177950289Y-113838064D01*
X177740212Y-113716776D01*
X177740205Y-113716773D01*
X177516104Y-113623947D01*
X177281785Y-113561161D01*
X177041289Y-113529500D01*
X177041288Y-113529500D01*
X176798712Y-113529500D01*
X176798711Y-113529500D01*
X176558214Y-113561161D01*
X176323895Y-113623947D01*
X176099794Y-113716773D01*
X176099785Y-113716777D01*
X175889706Y-113838067D01*
X175697263Y-113985733D01*
X175697256Y-113985739D01*
X175525739Y-114157256D01*
X175525733Y-114157263D01*
X175378067Y-114349706D01*
X175256777Y-114559785D01*
X175256773Y-114559794D01*
X175163947Y-114783895D01*
X175101161Y-115018214D01*
X175069500Y-115258711D01*
X174421500Y-115258711D01*
X174421500Y-110121303D01*
X174441185Y-110054264D01*
X174493989Y-110008509D01*
X174563147Y-109998565D01*
X174626703Y-110027590D01*
X174663431Y-110082986D01*
X174668443Y-110098413D01*
X174764951Y-110287820D01*
X174889890Y-110459786D01*
X175040213Y-110610109D01*
X175212179Y-110735048D01*
X175212181Y-110735049D01*
X175212184Y-110735051D01*
X175401588Y-110831557D01*
X175603757Y-110897246D01*
X175813713Y-110930500D01*
X175813714Y-110930500D01*
X176026286Y-110930500D01*
X176026287Y-110930500D01*
X176236243Y-110897246D01*
X176438412Y-110831557D01*
X176627816Y-110735051D01*
X176649789Y-110719086D01*
X176799786Y-110610109D01*
X176799788Y-110610106D01*
X176799792Y-110610104D01*
X176950104Y-110459792D01*
X176950106Y-110459788D01*
X176950109Y-110459786D01*
X177075048Y-110287820D01*
X177075047Y-110287820D01*
X177075051Y-110287816D01*
X177171557Y-110098412D01*
X177210645Y-109978113D01*
X185864776Y-109978113D01*
X185864776Y-110151335D01*
X185891874Y-110322425D01*
X185945403Y-110487169D01*
X186024044Y-110641512D01*
X186125862Y-110781652D01*
X186248348Y-110904138D01*
X186388488Y-111005956D01*
X186542831Y-111084597D01*
X186707575Y-111138126D01*
X186878665Y-111165224D01*
X186878666Y-111165224D01*
X187051886Y-111165224D01*
X187051887Y-111165224D01*
X187222977Y-111138126D01*
X187387721Y-111084597D01*
X187542064Y-111005956D01*
X187682204Y-110904138D01*
X187804690Y-110781652D01*
X187906508Y-110641512D01*
X187985149Y-110487169D01*
X188017346Y-110388077D01*
X188056782Y-110330403D01*
X188121141Y-110303205D01*
X188189987Y-110315120D01*
X188241463Y-110362364D01*
X188253205Y-110388074D01*
X188285403Y-110487169D01*
X188364044Y-110641512D01*
X188465862Y-110781652D01*
X188588348Y-110904138D01*
X188728488Y-111005956D01*
X188882831Y-111084597D01*
X189047575Y-111138126D01*
X189218665Y-111165224D01*
X189218666Y-111165224D01*
X189791886Y-111165224D01*
X189791887Y-111165224D01*
X189962977Y-111138126D01*
X190127721Y-111084597D01*
X190282064Y-111005956D01*
X190422204Y-110904138D01*
X190544690Y-110781652D01*
X190646508Y-110641512D01*
X190725149Y-110487169D01*
X190778678Y-110322425D01*
X190805776Y-110151335D01*
X190805776Y-109978113D01*
X190778678Y-109807023D01*
X190725149Y-109642279D01*
X190646508Y-109487936D01*
X190544690Y-109347796D01*
X190422204Y-109225310D01*
X190282064Y-109123492D01*
X190190847Y-109077015D01*
X190127723Y-109044852D01*
X190127722Y-109044851D01*
X190127721Y-109044851D01*
X189962977Y-108991322D01*
X189962975Y-108991321D01*
X189962974Y-108991321D01*
X189831547Y-108970505D01*
X189791887Y-108964224D01*
X189218665Y-108964224D01*
X189179004Y-108970505D01*
X189047578Y-108991321D01*
X188882828Y-109044852D01*
X188728487Y-109123492D01*
X188648532Y-109181583D01*
X188588348Y-109225310D01*
X188588346Y-109225312D01*
X188588345Y-109225312D01*
X188465864Y-109347793D01*
X188465864Y-109347794D01*
X188465862Y-109347796D01*
X188422135Y-109407980D01*
X188364044Y-109487935D01*
X188285404Y-109642276D01*
X188253207Y-109741368D01*
X188213769Y-109799044D01*
X188149411Y-109826242D01*
X188080564Y-109814327D01*
X188029089Y-109767083D01*
X188017345Y-109741368D01*
X187999448Y-109686287D01*
X187985149Y-109642279D01*
X187906508Y-109487936D01*
X187804690Y-109347796D01*
X187682204Y-109225310D01*
X187542064Y-109123492D01*
X187450847Y-109077015D01*
X187387723Y-109044852D01*
X187387722Y-109044851D01*
X187387721Y-109044851D01*
X187222977Y-108991322D01*
X187222975Y-108991321D01*
X187222974Y-108991321D01*
X187091547Y-108970505D01*
X187051887Y-108964224D01*
X186878665Y-108964224D01*
X186839004Y-108970505D01*
X186707578Y-108991321D01*
X186542828Y-109044852D01*
X186388487Y-109123492D01*
X186308532Y-109181583D01*
X186248348Y-109225310D01*
X186248346Y-109225312D01*
X186248345Y-109225312D01*
X186125864Y-109347793D01*
X186125864Y-109347794D01*
X186125862Y-109347796D01*
X186082135Y-109407980D01*
X186024044Y-109487935D01*
X185945404Y-109642276D01*
X185891873Y-109807026D01*
X185868605Y-109953936D01*
X185864776Y-109978113D01*
X177210645Y-109978113D01*
X177237246Y-109896243D01*
X177270500Y-109686287D01*
X177270500Y-109473713D01*
X177237246Y-109263757D01*
X177171557Y-109061588D01*
X177075051Y-108872184D01*
X177075049Y-108872181D01*
X177075048Y-108872179D01*
X176950109Y-108700213D01*
X176836569Y-108586673D01*
X176803084Y-108525350D01*
X176808068Y-108455658D01*
X176849940Y-108399725D01*
X176880915Y-108382810D01*
X177012331Y-108333796D01*
X177127546Y-108247546D01*
X177213796Y-108132331D01*
X177264091Y-107997483D01*
X177270500Y-107937873D01*
X177270499Y-106142128D01*
X177264091Y-106082517D01*
X177213796Y-105947669D01*
X177213795Y-105947668D01*
X177213793Y-105947664D01*
X177127547Y-105832455D01*
X177127544Y-105832452D01*
X177012335Y-105746206D01*
X177012328Y-105746202D01*
X176877482Y-105695908D01*
X176877483Y-105695908D01*
X176817883Y-105689501D01*
X176817881Y-105689500D01*
X176817873Y-105689500D01*
X176817864Y-105689500D01*
X175022129Y-105689500D01*
X175022123Y-105689501D01*
X174962516Y-105695908D01*
X174827671Y-105746202D01*
X174827664Y-105746206D01*
X174712455Y-105832452D01*
X174644766Y-105922873D01*
X174588832Y-105964743D01*
X174519141Y-105969727D01*
X174457818Y-105936241D01*
X174424333Y-105874918D01*
X174421500Y-105848561D01*
X174421500Y-104291230D01*
X174441185Y-104224191D01*
X174457819Y-104203549D01*
X176394549Y-102266819D01*
X176455872Y-102233334D01*
X176482230Y-102230500D01*
X181415396Y-102230500D01*
X181462844Y-102239937D01*
X181486503Y-102249737D01*
X181486508Y-102249738D01*
X181486511Y-102249739D01*
X181641153Y-102280499D01*
X181641156Y-102280500D01*
X181641158Y-102280500D01*
X181798844Y-102280500D01*
X181798845Y-102280499D01*
X181953497Y-102249737D01*
X182099179Y-102189394D01*
X182230289Y-102101789D01*
X182341789Y-101990289D01*
X182429394Y-101859179D01*
X182489737Y-101713497D01*
X182520500Y-101558842D01*
X182520500Y-101401158D01*
X182520500Y-101401155D01*
X182520499Y-101401153D01*
X182489738Y-101246510D01*
X182489737Y-101246503D01*
X182489735Y-101246498D01*
X182429397Y-101100827D01*
X182429390Y-101100814D01*
X182341789Y-100969711D01*
X182341786Y-100969707D01*
X182230292Y-100858213D01*
X182230288Y-100858210D01*
X182099185Y-100770609D01*
X182099172Y-100770602D01*
X181953501Y-100710264D01*
X181953489Y-100710261D01*
X181798845Y-100679500D01*
X181798842Y-100679500D01*
X181641158Y-100679500D01*
X181641155Y-100679500D01*
X181486511Y-100710260D01*
X181486506Y-100710262D01*
X181486504Y-100710262D01*
X181486503Y-100710263D01*
X181462844Y-100720062D01*
X181415396Y-100729500D01*
X176944050Y-100729500D01*
X176877011Y-100709815D01*
X176831256Y-100657011D01*
X176821312Y-100587853D01*
X176850337Y-100524297D01*
X176856369Y-100517819D01*
X176949723Y-100424464D01*
X176949727Y-100424459D01*
X177074620Y-100252557D01*
X177171095Y-100063217D01*
X177236757Y-99861129D01*
X177236757Y-99861126D01*
X177247231Y-99795000D01*
X176353012Y-99795000D01*
X176385925Y-99737993D01*
X176420000Y-99610826D01*
X176420000Y-99479174D01*
X176385925Y-99352007D01*
X176353012Y-99295000D01*
X177247231Y-99295000D01*
X177236757Y-99228873D01*
X177236757Y-99228870D01*
X177171095Y-99026782D01*
X177074620Y-98837442D01*
X176949727Y-98665540D01*
X176949723Y-98665535D01*
X176835665Y-98551477D01*
X176802180Y-98490154D01*
X176807164Y-98420462D01*
X176849036Y-98364529D01*
X176880013Y-98347614D01*
X177012086Y-98298354D01*
X177012093Y-98298350D01*
X177127187Y-98212190D01*
X177127190Y-98212187D01*
X177213350Y-98097093D01*
X177213354Y-98097086D01*
X177263596Y-97962379D01*
X177263598Y-97962372D01*
X177269999Y-97902844D01*
X177270000Y-97902827D01*
X177270000Y-97255000D01*
X176353012Y-97255000D01*
X176385925Y-97197993D01*
X176420000Y-97070826D01*
X176420000Y-96939174D01*
X176385925Y-96812007D01*
X176353012Y-96755000D01*
X177270000Y-96755000D01*
X177270000Y-96107172D01*
X177269999Y-96107155D01*
X177263598Y-96047627D01*
X177263596Y-96047620D01*
X177213354Y-95912913D01*
X177213350Y-95912906D01*
X177127190Y-95797812D01*
X177127187Y-95797809D01*
X177012093Y-95711649D01*
X177012086Y-95711645D01*
X176877379Y-95661403D01*
X176877372Y-95661401D01*
X176817844Y-95655000D01*
X176170000Y-95655000D01*
X176170000Y-96571988D01*
X176112993Y-96539075D01*
X175985826Y-96505000D01*
X175854174Y-96505000D01*
X175727007Y-96539075D01*
X175670000Y-96571988D01*
X175670000Y-95655000D01*
X175022155Y-95655000D01*
X174962627Y-95661401D01*
X174962620Y-95661403D01*
X174827913Y-95711645D01*
X174827906Y-95711649D01*
X174712812Y-95797809D01*
X174712809Y-95797812D01*
X174626649Y-95912906D01*
X174626645Y-95912913D01*
X174576403Y-96047620D01*
X174576401Y-96047627D01*
X174570000Y-96107155D01*
X174570000Y-96755000D01*
X175486988Y-96755000D01*
X175454075Y-96812007D01*
X175420000Y-96939174D01*
X175420000Y-97070826D01*
X175454075Y-97197993D01*
X175486988Y-97255000D01*
X174570000Y-97255000D01*
X174570000Y-97902844D01*
X174576401Y-97962372D01*
X174576403Y-97962379D01*
X174626645Y-98097086D01*
X174626649Y-98097093D01*
X174712809Y-98212187D01*
X174712812Y-98212190D01*
X174827906Y-98298350D01*
X174827913Y-98298354D01*
X174959986Y-98347614D01*
X175015920Y-98389485D01*
X175040337Y-98454949D01*
X175025486Y-98523222D01*
X175004335Y-98551477D01*
X174890271Y-98665541D01*
X174765379Y-98837442D01*
X174668904Y-99026782D01*
X174603242Y-99228870D01*
X174603242Y-99228873D01*
X174592769Y-99295000D01*
X175486988Y-99295000D01*
X175454075Y-99352007D01*
X175420000Y-99479174D01*
X175420000Y-99610826D01*
X175454075Y-99737993D01*
X175486988Y-99795000D01*
X174592769Y-99795000D01*
X174603242Y-99861126D01*
X174603242Y-99861129D01*
X174668904Y-100063217D01*
X174765379Y-100252557D01*
X174890272Y-100424459D01*
X174890276Y-100424464D01*
X175040535Y-100574723D01*
X175040540Y-100574727D01*
X175212442Y-100699620D01*
X175401782Y-100796095D01*
X175466524Y-100817131D01*
X175524199Y-100856568D01*
X175551398Y-100920927D01*
X175539484Y-100989773D01*
X175515887Y-101022743D01*
X173632181Y-102906450D01*
X173570858Y-102939935D01*
X173501166Y-102934951D01*
X173445233Y-102893079D01*
X173420816Y-102827615D01*
X173420500Y-102818769D01*
X173420500Y-83907682D01*
X184580000Y-83907682D01*
X184580000Y-84210000D01*
X185510496Y-84210000D01*
X185465326Y-84288236D01*
X185435000Y-84401415D01*
X185435000Y-84518585D01*
X185465326Y-84631764D01*
X185510496Y-84710000D01*
X184580000Y-84710000D01*
X184580000Y-85012317D01*
X184612009Y-85214417D01*
X184675244Y-85409031D01*
X184768140Y-85591349D01*
X184888417Y-85756894D01*
X184888417Y-85756895D01*
X185033104Y-85901582D01*
X185198650Y-86021859D01*
X185380968Y-86114754D01*
X185575578Y-86177988D01*
X185630000Y-86186607D01*
X185630000Y-84829504D01*
X185708236Y-84874674D01*
X185821415Y-84905000D01*
X185938585Y-84905000D01*
X186051764Y-84874674D01*
X186130000Y-84829504D01*
X186130000Y-86186606D01*
X186184421Y-86177988D01*
X186379031Y-86114754D01*
X186561349Y-86021859D01*
X186726894Y-85901582D01*
X186726895Y-85901582D01*
X186871582Y-85756895D01*
X186871582Y-85756894D01*
X186991861Y-85591347D01*
X187039234Y-85498371D01*
X187087208Y-85447575D01*
X187155028Y-85430779D01*
X187221164Y-85453316D01*
X187260203Y-85498369D01*
X187307713Y-85591611D01*
X187428028Y-85757213D01*
X187572786Y-85901971D01*
X187727749Y-86014556D01*
X187738390Y-86022287D01*
X187854607Y-86081503D01*
X187920776Y-86115218D01*
X187920778Y-86115218D01*
X187920781Y-86115220D01*
X188025137Y-86149127D01*
X188115465Y-86178477D01*
X188216557Y-86194488D01*
X188317648Y-86210500D01*
X188317649Y-86210500D01*
X188522351Y-86210500D01*
X188522352Y-86210500D01*
X188724534Y-86178477D01*
X188919219Y-86115220D01*
X189101610Y-86022287D01*
X189194590Y-85954732D01*
X189267213Y-85901971D01*
X189267215Y-85901968D01*
X189267219Y-85901966D01*
X189411966Y-85757219D01*
X189411968Y-85757215D01*
X189411971Y-85757213D01*
X189464732Y-85684590D01*
X189532287Y-85591610D01*
X189625220Y-85409219D01*
X189688477Y-85214534D01*
X189720500Y-85012352D01*
X189720500Y-83907648D01*
X189688477Y-83705465D01*
X189659127Y-83615137D01*
X189625220Y-83510781D01*
X189625218Y-83510778D01*
X189625218Y-83510776D01*
X189579794Y-83421628D01*
X189532287Y-83328390D01*
X189486349Y-83265161D01*
X189411971Y-83162786D01*
X189267213Y-83018028D01*
X189101613Y-82897715D01*
X189101612Y-82897714D01*
X189101610Y-82897713D01*
X189044653Y-82868691D01*
X188919223Y-82804781D01*
X188724534Y-82741522D01*
X188549995Y-82713878D01*
X188522352Y-82709500D01*
X188317648Y-82709500D01*
X188293329Y-82713351D01*
X188115465Y-82741522D01*
X187920776Y-82804781D01*
X187738386Y-82897715D01*
X187572786Y-83018028D01*
X187428028Y-83162786D01*
X187307713Y-83328388D01*
X187260203Y-83421630D01*
X187212228Y-83472426D01*
X187144407Y-83489220D01*
X187078272Y-83466682D01*
X187039234Y-83421628D01*
X186991861Y-83328652D01*
X186871582Y-83163105D01*
X186871582Y-83163104D01*
X186726895Y-83018417D01*
X186561349Y-82898140D01*
X186379029Y-82805244D01*
X186184413Y-82742009D01*
X186130000Y-82733390D01*
X186130000Y-84090495D01*
X186051764Y-84045326D01*
X185938585Y-84015000D01*
X185821415Y-84015000D01*
X185708236Y-84045326D01*
X185630000Y-84090495D01*
X185630000Y-82733390D01*
X185575586Y-82742009D01*
X185380970Y-82805244D01*
X185198650Y-82898140D01*
X185033105Y-83018417D01*
X185033104Y-83018417D01*
X184888417Y-83163104D01*
X184888417Y-83163105D01*
X184768140Y-83328650D01*
X184675244Y-83510968D01*
X184612009Y-83705582D01*
X184580000Y-83907682D01*
X173420500Y-83907682D01*
X173420500Y-76788711D01*
X175069500Y-76788711D01*
X175069500Y-77031288D01*
X175101161Y-77271785D01*
X175163947Y-77506104D01*
X175256773Y-77730205D01*
X175256776Y-77730212D01*
X175378064Y-77940289D01*
X175378066Y-77940292D01*
X175378067Y-77940293D01*
X175525733Y-78132736D01*
X175525739Y-78132743D01*
X175697256Y-78304260D01*
X175697262Y-78304265D01*
X175889711Y-78451936D01*
X176099788Y-78573224D01*
X176323900Y-78666054D01*
X176558211Y-78728838D01*
X176738586Y-78752584D01*
X176798711Y-78760500D01*
X176798712Y-78760500D01*
X177041289Y-78760500D01*
X177089388Y-78754167D01*
X177281789Y-78728838D01*
X177516100Y-78666054D01*
X177740212Y-78573224D01*
X177950289Y-78451936D01*
X178142738Y-78304265D01*
X178314265Y-78132738D01*
X178461936Y-77940289D01*
X178583224Y-77730212D01*
X178676054Y-77506100D01*
X178682369Y-77482533D01*
X181090000Y-77482533D01*
X181090000Y-79130000D01*
X182365038Y-79130000D01*
X182335000Y-79281016D01*
X182335000Y-79478984D01*
X182365038Y-79630000D01*
X181090000Y-79630000D01*
X181090000Y-81277466D01*
X181090001Y-81277483D01*
X181128496Y-81569884D01*
X181128499Y-81569897D01*
X181204835Y-81854790D01*
X181204838Y-81854800D01*
X181317704Y-82127281D01*
X181317709Y-82127292D01*
X181465174Y-82382707D01*
X181465185Y-82382723D01*
X181644729Y-82616709D01*
X181644735Y-82616716D01*
X181853283Y-82825264D01*
X181853290Y-82825270D01*
X182087276Y-83004814D01*
X182087292Y-83004825D01*
X182342707Y-83152290D01*
X182342718Y-83152295D01*
X182615199Y-83265161D01*
X182615209Y-83265164D01*
X182900102Y-83341500D01*
X182900115Y-83341503D01*
X183090000Y-83366502D01*
X183090000Y-80354961D01*
X183241016Y-80385000D01*
X183438984Y-80385000D01*
X183590000Y-80354961D01*
X183590000Y-83366501D01*
X183779884Y-83341503D01*
X183779897Y-83341500D01*
X184064790Y-83265164D01*
X184064800Y-83265161D01*
X184337281Y-83152295D01*
X184337292Y-83152290D01*
X184592707Y-83004825D01*
X184592723Y-83004814D01*
X184826709Y-82825270D01*
X184826716Y-82825264D01*
X185035264Y-82616716D01*
X185035270Y-82616709D01*
X185214814Y-82382723D01*
X185214825Y-82382707D01*
X185362290Y-82127292D01*
X185362295Y-82127281D01*
X185475161Y-81854800D01*
X185475164Y-81854790D01*
X185551500Y-81569897D01*
X185551503Y-81569884D01*
X185589998Y-81277483D01*
X185590000Y-81277466D01*
X185590000Y-79630000D01*
X184314962Y-79630000D01*
X184345000Y-79478984D01*
X184345000Y-79281016D01*
X184314962Y-79130000D01*
X185590000Y-79130000D01*
X185590000Y-77482533D01*
X191250000Y-77482533D01*
X191250000Y-79130000D01*
X192525038Y-79130000D01*
X192495000Y-79281016D01*
X192495000Y-79478984D01*
X192525038Y-79630000D01*
X191250000Y-79630000D01*
X191250000Y-81277466D01*
X191250001Y-81277483D01*
X191288496Y-81569884D01*
X191288499Y-81569897D01*
X191364835Y-81854790D01*
X191364838Y-81854800D01*
X191477704Y-82127281D01*
X191477709Y-82127292D01*
X191625174Y-82382707D01*
X191625185Y-82382723D01*
X191804729Y-82616709D01*
X191804735Y-82616716D01*
X192013283Y-82825264D01*
X192013290Y-82825270D01*
X192247276Y-83004814D01*
X192247292Y-83004825D01*
X192502707Y-83152290D01*
X192502718Y-83152295D01*
X192775199Y-83265161D01*
X192775209Y-83265164D01*
X193060102Y-83341500D01*
X193060115Y-83341503D01*
X193250000Y-83366502D01*
X193250000Y-80354961D01*
X193401016Y-80385000D01*
X193598984Y-80385000D01*
X193750000Y-80354961D01*
X193750000Y-83366501D01*
X193939884Y-83341503D01*
X193939897Y-83341500D01*
X194224790Y-83265164D01*
X194224800Y-83265161D01*
X194497281Y-83152295D01*
X194497292Y-83152290D01*
X194752707Y-83004825D01*
X194752723Y-83004814D01*
X194986709Y-82825270D01*
X194986716Y-82825264D01*
X195195264Y-82616716D01*
X195195270Y-82616709D01*
X195374814Y-82382723D01*
X195374825Y-82382707D01*
X195522290Y-82127292D01*
X195522295Y-82127281D01*
X195635161Y-81854800D01*
X195635164Y-81854790D01*
X195711500Y-81569897D01*
X195711503Y-81569884D01*
X195749998Y-81277483D01*
X195750000Y-81277466D01*
X195750000Y-79630000D01*
X194474962Y-79630000D01*
X194505000Y-79478984D01*
X194505000Y-79281016D01*
X194474962Y-79130000D01*
X195750000Y-79130000D01*
X195750000Y-77482533D01*
X195749998Y-77482516D01*
X195711503Y-77190115D01*
X195711500Y-77190102D01*
X195635164Y-76905209D01*
X195635161Y-76905199D01*
X195604885Y-76832106D01*
X195586910Y-76788711D01*
X198069500Y-76788711D01*
X198069500Y-77031288D01*
X198101161Y-77271785D01*
X198163947Y-77506104D01*
X198256773Y-77730205D01*
X198256776Y-77730212D01*
X198378064Y-77940289D01*
X198378066Y-77940292D01*
X198378067Y-77940293D01*
X198525733Y-78132736D01*
X198525739Y-78132743D01*
X198697256Y-78304260D01*
X198697262Y-78304265D01*
X198889711Y-78451936D01*
X199099788Y-78573224D01*
X199323900Y-78666054D01*
X199558211Y-78728838D01*
X199738586Y-78752584D01*
X199798711Y-78760500D01*
X199798712Y-78760500D01*
X200041289Y-78760500D01*
X200089388Y-78754167D01*
X200281789Y-78728838D01*
X200516100Y-78666054D01*
X200740212Y-78573224D01*
X200950289Y-78451936D01*
X201142738Y-78304265D01*
X201314265Y-78132738D01*
X201461936Y-77940289D01*
X201583224Y-77730212D01*
X201676054Y-77506100D01*
X201738838Y-77271789D01*
X201770500Y-77031288D01*
X201770500Y-76788712D01*
X201738838Y-76548211D01*
X201676054Y-76313900D01*
X201583224Y-76089788D01*
X201461936Y-75879711D01*
X201314265Y-75687262D01*
X201314260Y-75687256D01*
X201142743Y-75515739D01*
X201142736Y-75515733D01*
X200950293Y-75368067D01*
X200950292Y-75368066D01*
X200950289Y-75368064D01*
X200740212Y-75246776D01*
X200740205Y-75246773D01*
X200516104Y-75153947D01*
X200281785Y-75091161D01*
X200041289Y-75059500D01*
X200041288Y-75059500D01*
X199798712Y-75059500D01*
X199798711Y-75059500D01*
X199558214Y-75091161D01*
X199323895Y-75153947D01*
X199099794Y-75246773D01*
X199099785Y-75246777D01*
X198889706Y-75368067D01*
X198697263Y-75515733D01*
X198697256Y-75515739D01*
X198525739Y-75687256D01*
X198525733Y-75687263D01*
X198378067Y-75879706D01*
X198256777Y-76089785D01*
X198256773Y-76089794D01*
X198163947Y-76313895D01*
X198101161Y-76548214D01*
X198069500Y-76788711D01*
X195586910Y-76788711D01*
X195522295Y-76632718D01*
X195522290Y-76632707D01*
X195374825Y-76377292D01*
X195374814Y-76377276D01*
X195195270Y-76143290D01*
X195195264Y-76143283D01*
X194986716Y-75934735D01*
X194986709Y-75934729D01*
X194752723Y-75755185D01*
X194752707Y-75755174D01*
X194497292Y-75607709D01*
X194497281Y-75607704D01*
X194224800Y-75494838D01*
X194224790Y-75494835D01*
X193939897Y-75418499D01*
X193939886Y-75418497D01*
X193750000Y-75393496D01*
X193750000Y-78405038D01*
X193598984Y-78375000D01*
X193401016Y-78375000D01*
X193250000Y-78405038D01*
X193250000Y-75393496D01*
X193249999Y-75393496D01*
X193060113Y-75418497D01*
X193060102Y-75418499D01*
X192775209Y-75494835D01*
X192775199Y-75494838D01*
X192502718Y-75607704D01*
X192502707Y-75607709D01*
X192247292Y-75755174D01*
X192247276Y-75755185D01*
X192013290Y-75934729D01*
X192013283Y-75934735D01*
X191804735Y-76143283D01*
X191804729Y-76143290D01*
X191625185Y-76377276D01*
X191625174Y-76377292D01*
X191477709Y-76632707D01*
X191477704Y-76632718D01*
X191364838Y-76905199D01*
X191364835Y-76905209D01*
X191288499Y-77190102D01*
X191288496Y-77190115D01*
X191250001Y-77482516D01*
X191250000Y-77482533D01*
X185590000Y-77482533D01*
X185589998Y-77482516D01*
X185551503Y-77190115D01*
X185551500Y-77190102D01*
X185475164Y-76905209D01*
X185475161Y-76905199D01*
X185362295Y-76632718D01*
X185362290Y-76632707D01*
X185214825Y-76377292D01*
X185214814Y-76377276D01*
X185035270Y-76143290D01*
X185035264Y-76143283D01*
X184826716Y-75934735D01*
X184826709Y-75934729D01*
X184592723Y-75755185D01*
X184592707Y-75755174D01*
X184337292Y-75607709D01*
X184337281Y-75607704D01*
X184064800Y-75494838D01*
X184064790Y-75494835D01*
X183779897Y-75418499D01*
X183779886Y-75418497D01*
X183590000Y-75393496D01*
X183590000Y-78405038D01*
X183438984Y-78375000D01*
X183241016Y-78375000D01*
X183090000Y-78405038D01*
X183090000Y-75393496D01*
X183089999Y-75393496D01*
X182900113Y-75418497D01*
X182900102Y-75418499D01*
X182615209Y-75494835D01*
X182615199Y-75494838D01*
X182342718Y-75607704D01*
X182342707Y-75607709D01*
X182087292Y-75755174D01*
X182087276Y-75755185D01*
X181853290Y-75934729D01*
X181853283Y-75934735D01*
X181644735Y-76143283D01*
X181644729Y-76143290D01*
X181465185Y-76377276D01*
X181465174Y-76377292D01*
X181317709Y-76632707D01*
X181317704Y-76632718D01*
X181204838Y-76905199D01*
X181204835Y-76905209D01*
X181128499Y-77190102D01*
X181128496Y-77190115D01*
X181090001Y-77482516D01*
X181090000Y-77482533D01*
X178682369Y-77482533D01*
X178738838Y-77271789D01*
X178770500Y-77031288D01*
X178770500Y-76788712D01*
X178738838Y-76548211D01*
X178676054Y-76313900D01*
X178583224Y-76089788D01*
X178461936Y-75879711D01*
X178314265Y-75687262D01*
X178314260Y-75687256D01*
X178142743Y-75515739D01*
X178142736Y-75515733D01*
X177950293Y-75368067D01*
X177950292Y-75368066D01*
X177950289Y-75368064D01*
X177740212Y-75246776D01*
X177740205Y-75246773D01*
X177516104Y-75153947D01*
X177281785Y-75091161D01*
X177041289Y-75059500D01*
X177041288Y-75059500D01*
X176798712Y-75059500D01*
X176798711Y-75059500D01*
X176558214Y-75091161D01*
X176323895Y-75153947D01*
X176099794Y-75246773D01*
X176099785Y-75246777D01*
X175889706Y-75368067D01*
X175697263Y-75515733D01*
X175697256Y-75515739D01*
X175525739Y-75687256D01*
X175525733Y-75687263D01*
X175378067Y-75879706D01*
X175256777Y-76089785D01*
X175256773Y-76089794D01*
X175163947Y-76313895D01*
X175101161Y-76548214D01*
X175069500Y-76788711D01*
X173420500Y-76788711D01*
X173420500Y-73004500D01*
X173440185Y-72937461D01*
X173492989Y-72891706D01*
X173544500Y-72880500D01*
X203295500Y-72880500D01*
X203362539Y-72900185D01*
G37*
%TD.AperFunction*%
%TA.AperFunction,Conductor*%
G36*
X176170000Y-99111988D02*
G01*
X176112993Y-99079075D01*
X175985826Y-99045000D01*
X175854174Y-99045000D01*
X175727007Y-99079075D01*
X175670000Y-99111988D01*
X175670000Y-97438012D01*
X175727007Y-97470925D01*
X175854174Y-97505000D01*
X175985826Y-97505000D01*
X176112993Y-97470925D01*
X176170000Y-97438012D01*
X176170000Y-99111988D01*
G37*
%TD.AperFunction*%
%TD*%
M02*
