%TF.GenerationSoftware,KiCad,Pcbnew,9.0.0*%
%TF.CreationDate,2025-04-27T22:51:01+02:00*%
%TF.ProjectId,OOS - optyczny odbiornik sygnalow,4f4f5320-2d20-46f7-9074-79637a6e7920,rev?*%
%TF.SameCoordinates,Original*%
%TF.FileFunction,Soldermask,Top*%
%TF.FilePolarity,Negative*%
%FSLAX46Y46*%
G04 Gerber Fmt 4.6, Leading zero omitted, Abs format (unit mm)*
G04 Created by KiCad (PCBNEW 9.0.0) date 2025-04-27 22:51:01*
%MOMM*%
%LPD*%
G01*
G04 APERTURE LIST*
G04 Aperture macros list*
%AMRoundRect*
0 Rectangle with rounded corners*
0 $1 Rounding radius*
0 $2 $3 $4 $5 $6 $7 $8 $9 X,Y pos of 4 corners*
0 Add a 4 corners polygon primitive as box body*
4,1,4,$2,$3,$4,$5,$6,$7,$8,$9,$2,$3,0*
0 Add four circle primitives for the rounded corners*
1,1,$1+$1,$2,$3*
1,1,$1+$1,$4,$5*
1,1,$1+$1,$6,$7*
1,1,$1+$1,$8,$9*
0 Add four rect primitives between the rounded corners*
20,1,$1+$1,$2,$3,$4,$5,0*
20,1,$1+$1,$4,$5,$6,$7,0*
20,1,$1+$1,$6,$7,$8,$9,0*
20,1,$1+$1,$8,$9,$2,$3,0*%
%AMFreePoly0*
4,1,23,0.000000,0.745722,0.065263,0.745722,0.191342,0.711940,0.304381,0.646677,0.396677,0.554381,0.461940,0.441342,0.495722,0.315263,0.495722,0.250000,0.500000,0.250000,0.500000,-0.250000,0.495722,-0.250000,0.495722,-0.315263,0.461940,-0.441342,0.396677,-0.554381,0.304381,-0.646677,0.191342,-0.711940,0.065263,-0.745722,0.000000,-0.745722,0.000000,-0.750000,-0.500000,-0.750000,
-0.500000,0.750000,0.000000,0.750000,0.000000,0.745722,0.000000,0.745722,$1*%
%AMFreePoly1*
4,1,23,0.500000,-0.750000,0.000000,-0.750000,0.000000,-0.745722,-0.065263,-0.745722,-0.191342,-0.711940,-0.304381,-0.646677,-0.396677,-0.554381,-0.461940,-0.441342,-0.495722,-0.315263,-0.495722,-0.250000,-0.500000,-0.250000,-0.500000,0.250000,-0.495722,0.250000,-0.495722,0.315263,-0.461940,0.441342,-0.396677,0.554381,-0.304381,0.646677,-0.191342,0.711940,-0.065263,0.745722,0.000000,0.745722,
0.000000,0.750000,0.500000,0.750000,0.500000,-0.750000,0.500000,-0.750000,$1*%
G04 Aperture macros list end*
%ADD10RoundRect,0.162500X-0.617500X-0.162500X0.617500X-0.162500X0.617500X0.162500X-0.617500X0.162500X0*%
%ADD11C,1.000000*%
%ADD12RoundRect,0.135000X0.135000X0.185000X-0.135000X0.185000X-0.135000X-0.185000X0.135000X-0.185000X0*%
%ADD13RoundRect,0.135000X-0.135000X-0.185000X0.135000X-0.185000X0.135000X0.185000X-0.135000X0.185000X0*%
%ADD14RoundRect,0.200000X-0.200000X-0.275000X0.200000X-0.275000X0.200000X0.275000X-0.200000X0.275000X0*%
%ADD15RoundRect,0.200000X0.200000X0.275000X-0.200000X0.275000X-0.200000X-0.275000X0.200000X-0.275000X0*%
%ADD16FreePoly0,90.000000*%
%ADD17FreePoly1,90.000000*%
%ADD18O,3.500000X7.000000*%
%ADD19O,1.600000X2.500000*%
%ADD20O,1.700000X1.700000*%
%ADD21R,1.700000X1.700000*%
%ADD22C,3.200000*%
%ADD23C,3.000000*%
%ADD24C,1.200000*%
%ADD25O,1.600000X1.200000*%
%ADD26RoundRect,0.218750X-0.218750X-0.256250X0.218750X-0.256250X0.218750X0.256250X-0.218750X0.256250X0*%
%ADD27RoundRect,0.218750X0.218750X0.256250X-0.218750X0.256250X-0.218750X-0.256250X0.218750X-0.256250X0*%
%ADD28RoundRect,0.140000X0.170000X-0.140000X0.170000X0.140000X-0.170000X0.140000X-0.170000X-0.140000X0*%
%ADD29RoundRect,0.140000X0.140000X0.170000X-0.140000X0.170000X-0.140000X-0.170000X0.140000X-0.170000X0*%
%ADD30RoundRect,0.200000X0.275000X-0.200000X0.275000X0.200000X-0.275000X0.200000X-0.275000X-0.200000X0*%
%ADD31RoundRect,0.225000X-0.250000X0.225000X-0.250000X-0.225000X0.250000X-0.225000X0.250000X0.225000X0*%
%ADD32RoundRect,0.140000X-0.170000X0.140000X-0.170000X-0.140000X0.170000X-0.140000X0.170000X0.140000X0*%
%ADD33RoundRect,0.200000X-0.275000X0.200000X-0.275000X-0.200000X0.275000X-0.200000X0.275000X0.200000X0*%
G04 APERTURE END LIST*
%TO.C,JP1*%
G36*
X200370000Y-103430000D02*
G01*
X201870000Y-103430000D01*
X201870000Y-103130000D01*
X200370000Y-103130000D01*
X200370000Y-103430000D01*
G37*
%TD*%
D10*
%TO.C,U2*%
X189370000Y-93330000D03*
X189370000Y-94280000D03*
X189370000Y-95230000D03*
X186670000Y-95230000D03*
X186670000Y-94280000D03*
X186670000Y-93330000D03*
%TD*%
%TO.C,U1*%
X189770000Y-104830000D03*
X189770000Y-105780000D03*
X189770000Y-106730000D03*
X187070000Y-106730000D03*
X187070000Y-105780000D03*
X187070000Y-104830000D03*
%TD*%
D11*
%TO.C,TP11*%
X186670000Y-87880000D03*
%TD*%
%TO.C,TP10*%
X186670000Y-90880000D03*
%TD*%
%TO.C,TP9*%
X189370000Y-96580000D03*
%TD*%
%TO.C,TP8*%
X187070000Y-98480000D03*
%TD*%
%TO.C,TP7*%
X187070000Y-101380000D03*
%TD*%
%TO.C,TP6*%
X189505276Y-108380000D03*
%TD*%
%TO.C,TP5*%
X196840000Y-103930000D03*
%TD*%
%TO.C,TP4*%
X184920000Y-98580000D03*
%TD*%
%TO.C,TP3*%
X184220000Y-102380000D03*
%TD*%
%TO.C,TP2*%
X185170000Y-110064724D03*
%TD*%
%TO.C,TP1*%
X178595000Y-109180000D03*
%TD*%
D12*
%TO.C,R11*%
X187620000Y-88900000D03*
X188640000Y-88900000D03*
%TD*%
%TO.C,R10*%
X186670000Y-91880000D03*
X187690000Y-91880000D03*
%TD*%
D13*
%TO.C,R9*%
X188090000Y-97380000D03*
X187070000Y-97380000D03*
%TD*%
D12*
%TO.C,R8*%
X188090000Y-103380000D03*
X187070000Y-103380000D03*
%TD*%
D13*
%TO.C,R7*%
X183430000Y-99280000D03*
X182410000Y-99280000D03*
%TD*%
D12*
%TO.C,R6*%
X182420000Y-100390000D03*
X183440000Y-100390000D03*
%TD*%
D13*
%TO.C,R5*%
X183440000Y-101480000D03*
X182420000Y-101480000D03*
%TD*%
D12*
%TO.C,R4*%
X198320000Y-103930000D03*
X199340000Y-103930000D03*
%TD*%
D14*
%TO.C,R3*%
X180245000Y-110615000D03*
X178595000Y-110615000D03*
%TD*%
D15*
%TO.C,R2*%
X199470000Y-94080000D03*
X201120000Y-94080000D03*
%TD*%
D14*
%TO.C,R1*%
X177570000Y-104180000D03*
X175920000Y-104180000D03*
%TD*%
D16*
%TO.C,JP1*%
X201120000Y-102630000D03*
D17*
X201120000Y-103930000D03*
%TD*%
D18*
%TO.C,J5*%
X193500000Y-79380000D03*
D19*
X185880000Y-84460000D03*
D18*
X183340000Y-79380000D03*
D19*
X188420000Y-84460000D03*
%TD*%
D20*
%TO.C,J4*%
X201120000Y-109580000D03*
D21*
X201120000Y-107040000D03*
%TD*%
D20*
%TO.C,J3*%
X175920000Y-99545000D03*
D21*
X175920000Y-97005000D03*
%TD*%
D20*
%TO.C,J2*%
X201120000Y-99545000D03*
D21*
X201120000Y-97005000D03*
%TD*%
D20*
%TO.C,J1*%
X175920000Y-109580000D03*
D21*
X175920000Y-107040000D03*
%TD*%
D22*
%TO.C,H4*%
X176920000Y-115380000D03*
%TD*%
%TO.C,H3*%
X199920000Y-115380000D03*
%TD*%
%TO.C,H2*%
X199920000Y-76910000D03*
%TD*%
%TO.C,H1*%
X176920000Y-76910000D03*
%TD*%
D23*
%TO.C,FID3*%
X176920000Y-82910000D03*
%TD*%
%TO.C,FID2*%
X199920000Y-82910000D03*
%TD*%
%TO.C,FID1*%
X193920000Y-115380000D03*
%TD*%
D24*
%TO.C,D3*%
X186965276Y-110064724D03*
D25*
X189505276Y-110064724D03*
%TD*%
D26*
%TO.C,D2*%
X198020000Y-94080000D03*
X196445000Y-94080000D03*
%TD*%
D27*
%TO.C,D1*%
X179057500Y-104180000D03*
X180632500Y-104180000D03*
%TD*%
D28*
%TO.C,C12*%
X186670000Y-88900000D03*
X186670000Y-89860000D03*
%TD*%
%TO.C,C11*%
X187070000Y-99500000D03*
X187070000Y-100460000D03*
%TD*%
D29*
%TO.C,C10*%
X188030000Y-102380000D03*
X187070000Y-102380000D03*
%TD*%
D28*
%TO.C,C9*%
X184570000Y-107300000D03*
X184570000Y-108260000D03*
%TD*%
D30*
%TO.C,C8*%
X183270000Y-107490000D03*
X183270000Y-109140000D03*
%TD*%
D31*
%TO.C,C7*%
X181670000Y-109090000D03*
X181670000Y-107540000D03*
%TD*%
D32*
%TO.C,C6*%
X191020000Y-93840000D03*
X191020000Y-92880000D03*
%TD*%
%TO.C,C5*%
X191420000Y-105360000D03*
X191420000Y-104400000D03*
%TD*%
D33*
%TO.C,C4*%
X192320000Y-94730000D03*
X192320000Y-93080000D03*
%TD*%
%TO.C,C3*%
X192720000Y-106205000D03*
X192720000Y-104555000D03*
%TD*%
%TO.C,C2*%
X193920000Y-94730000D03*
X193920000Y-93080000D03*
%TD*%
%TO.C,C1*%
X194320000Y-106205000D03*
X194320000Y-104555000D03*
%TD*%
M02*
